G75*
%MOIN*%
%OFA0B0*%
%FSLAX25Y25*%
%IPPOS*%
%LPD*%
%AMOC8*
5,1,8,0,0,1.08239X$1,22.5*
%
%ADD10C,0.00800*%
%ADD11C,0.01000*%
%ADD12C,0.01575*%
%ADD13C,0.00600*%
%ADD14C,0.00500*%
%ADD15R,0.00157X0.13858*%
%ADD16R,0.00157X0.14331*%
%ADD17R,0.00157X0.14646*%
%ADD18R,0.00157X0.14961*%
%ADD19R,0.00157X0.15118*%
%ADD20R,0.00157X0.15276*%
%ADD21R,0.00157X0.15433*%
%ADD22R,0.00157X0.02835*%
%ADD23R,0.00157X0.11969*%
%ADD24R,0.00157X0.02520*%
%ADD25R,0.00157X0.01102*%
%ADD26R,0.00157X0.03150*%
%ADD27R,0.00157X0.04567*%
%ADD28R,0.00157X0.02205*%
%ADD29R,0.00157X0.00787*%
%ADD30R,0.00157X0.02677*%
%ADD31R,0.00157X0.04409*%
%ADD32R,0.00157X0.02047*%
%ADD33R,0.00157X0.00630*%
%ADD34R,0.00157X0.01890*%
%ADD35R,0.00157X0.01732*%
%ADD36R,0.00157X0.01575*%
%ADD37R,0.00157X0.00945*%
%ADD38R,0.00157X0.02362*%
%ADD39R,0.00157X0.01260*%
%ADD40R,0.00157X0.01417*%
%ADD41R,0.00157X0.04252*%
%ADD42R,0.00157X0.00315*%
%ADD43R,0.00157X0.04094*%
%ADD44R,0.00157X0.00472*%
%ADD45R,0.00157X0.03937*%
%ADD46R,0.00157X0.03307*%
%ADD47R,0.00157X0.03780*%
%ADD48R,0.00157X0.03465*%
%ADD49R,0.00157X0.02992*%
%ADD50R,0.00157X0.12913*%
%ADD51R,0.00157X0.13386*%
%ADD52R,0.00157X0.13701*%
%ADD53R,0.00157X0.14016*%
%ADD54R,0.00157X0.14173*%
%ADD55R,0.00157X0.14488*%
%ADD56R,0.00157X0.07087*%
%ADD57R,0.00157X0.04882*%
%ADD58R,0.00157X0.05039*%
%ADD59R,0.00157X0.05197*%
%ADD60R,0.00157X0.03622*%
%ADD61R,0.00157X0.00157*%
%ADD62R,0.00157X0.11024*%
%ADD63R,0.07205X0.00118*%
%ADD64R,0.07913X0.00118*%
%ADD65R,0.08386X0.00079*%
%ADD66R,0.08858X0.00157*%
%ADD67R,0.09094X0.00118*%
%ADD68R,0.09331X0.00118*%
%ADD69R,0.09567X0.00079*%
%ADD70R,0.03661X0.00118*%
%ADD71R,0.02126X0.00118*%
%ADD72R,0.02953X0.00118*%
%ADD73R,0.02244X0.00157*%
%ADD74R,0.00591X0.00157*%
%ADD75R,0.01535X0.00157*%
%ADD76R,0.02598X0.00157*%
%ADD77R,0.02244X0.00118*%
%ADD78R,0.00472X0.00118*%
%ADD79R,0.01181X0.00118*%
%ADD80R,0.02362X0.00118*%
%ADD81R,0.00945X0.00118*%
%ADD82R,0.00354X0.00118*%
%ADD83R,0.00827X0.00118*%
%ADD84R,0.02480X0.00157*%
%ADD85R,0.00354X0.00157*%
%ADD86R,0.00236X0.00157*%
%ADD87R,0.02480X0.00118*%
%ADD88R,0.02598X0.00118*%
%ADD89R,0.01063X0.00118*%
%ADD90R,0.02835X0.00118*%
%ADD91R,0.00472X0.00157*%
%ADD92R,0.04252X0.00157*%
%ADD93R,0.04370X0.00118*%
%ADD94R,0.00591X0.00118*%
%ADD95R,0.04488X0.00118*%
%ADD96R,0.00709X0.00157*%
%ADD97R,0.04488X0.00157*%
%ADD98R,0.00236X0.00118*%
%ADD99R,0.00118X0.00118*%
%ADD100R,0.00118X0.00157*%
%ADD101R,0.04370X0.00157*%
%ADD102R,0.04252X0.00118*%
%ADD103R,0.02717X0.00118*%
%ADD104R,0.03071X0.00157*%
%ADD105R,0.03425X0.00118*%
%ADD106R,0.09567X0.00118*%
%ADD107R,0.08858X0.00118*%
%ADD108R,0.08386X0.00118*%
%ADD109R,0.00157X0.12756*%
%ADD110R,0.00157X0.11181*%
%ADD111R,0.00157X0.11496*%
%ADD112R,0.00157X0.11654*%
%ADD113R,0.00157X0.13071*%
%ADD114R,0.00157X0.13228*%
%ADD115R,0.00157X0.11811*%
%ADD116R,0.00157X0.14803*%
%ADD117R,0.00157X0.15906*%
%ADD118R,0.00157X0.16063*%
%ADD119R,0.00157X0.16220*%
%ADD120R,0.00157X0.16378*%
%ADD121R,0.00157X0.09921*%
%ADD122R,0.00118X0.09094*%
%ADD123R,0.00118X0.09803*%
%ADD124R,0.00079X0.10276*%
%ADD125R,0.00157X0.10748*%
%ADD126R,0.00118X0.10984*%
%ADD127R,0.00118X0.11220*%
%ADD128R,0.00079X0.11457*%
%ADD129R,0.00118X0.08150*%
%ADD130R,0.00118X0.02835*%
%ADD131R,0.00157X0.02244*%
%ADD132R,0.00157X0.01063*%
%ADD133R,0.00157X0.02598*%
%ADD134R,0.00118X0.02244*%
%ADD135R,0.00118X0.00827*%
%ADD136R,0.00118X0.01063*%
%ADD137R,0.00118X0.02480*%
%ADD138R,0.00118X0.02362*%
%ADD139R,0.00118X0.00709*%
%ADD140R,0.00118X0.00591*%
%ADD141R,0.00157X0.02480*%
%ADD142R,0.00118X0.00472*%
%ADD143R,0.00118X0.00354*%
%ADD144R,0.00118X0.02717*%
%ADD145R,0.00118X0.02598*%
%ADD146R,0.00118X0.00945*%
%ADD147R,0.00118X0.00236*%
%ADD148R,0.00118X0.04016*%
%ADD149R,0.00157X0.00354*%
%ADD150R,0.00157X0.00236*%
%ADD151R,0.00157X0.03898*%
%ADD152R,0.00118X0.03661*%
%ADD153R,0.00118X0.03189*%
%ADD154R,0.00157X0.00591*%
%ADD155R,0.00157X0.02717*%
%ADD156R,0.00118X0.01181*%
%ADD157R,0.00118X0.01654*%
%ADD158R,0.00157X0.00709*%
%ADD159R,0.00157X0.02126*%
%ADD160R,0.00118X0.01299*%
%ADD161R,0.00118X0.02008*%
%ADD162R,0.00118X0.01890*%
%ADD163R,0.00157X0.02008*%
%ADD164R,0.00118X0.02126*%
%ADD165R,0.00118X0.11457*%
%ADD166R,0.00118X0.10748*%
%ADD167R,0.00118X0.10276*%
%ADD168C,0.01000*%
%ADD169C,0.01181*%
%ADD170R,0.00118X0.15236*%
%ADD171R,0.00118X0.15945*%
%ADD172R,0.00079X0.16417*%
%ADD173R,0.00157X0.16890*%
%ADD174R,0.00118X0.17126*%
%ADD175R,0.00118X0.17362*%
%ADD176R,0.00079X0.17598*%
%ADD177R,0.00118X0.11929*%
%ADD178R,0.00118X0.05551*%
%ADD179R,0.00157X0.01299*%
%ADD180R,0.00118X0.04134*%
%ADD181R,0.00157X0.04134*%
%ADD182R,0.00118X0.02953*%
%ADD183R,0.00157X0.00118*%
%ADD184R,0.00157X0.02953*%
%ADD185R,0.00118X0.03071*%
%ADD186R,0.00157X0.00827*%
%ADD187R,0.00157X0.01181*%
%ADD188R,0.00118X0.01417*%
%ADD189R,0.00118X0.01535*%
%ADD190R,0.00118X0.17598*%
%ADD191R,0.00118X0.16890*%
%ADD192R,0.00118X0.16417*%
%ADD193R,0.00118X0.09567*%
%ADD194R,0.00079X0.10748*%
%ADD195R,0.00157X0.11220*%
%ADD196R,0.00118X0.11693*%
%ADD197R,0.00079X0.11929*%
%ADD198R,0.00157X0.03071*%
%ADD199R,0.00118X0.03307*%
%ADD200R,0.00118X0.03425*%
%ADD201R,0.00157X0.03543*%
%ADD202R,0.00118X0.03543*%
%ADD203R,0.00157X0.03189*%
%ADD204R,0.00118X0.17480*%
%ADD205R,0.00079X0.17362*%
%ADD206R,0.00157X0.17244*%
%ADD207R,0.00118X0.17008*%
%ADD208R,0.00079X0.16890*%
%ADD209R,0.00118X0.05197*%
%ADD210R,0.00157X0.01535*%
%ADD211R,0.00118X0.01772*%
%ADD212R,0.00118X0.17244*%
%ADD213R,0.00157X0.15748*%
%ADD214R,0.00157X0.15591*%
%ADD215R,0.00157X0.12402*%
%ADD216R,0.00118X0.12638*%
%ADD217R,0.00118X0.12874*%
%ADD218R,0.00079X0.13110*%
%ADD219R,0.00118X0.04961*%
%ADD220R,0.00118X0.05079*%
%ADD221R,0.00118X0.13110*%
%ADD222R,0.00118X0.12402*%
%ADD223R,0.00157X0.10551*%
%ADD224R,0.00157X0.07874*%
%ADD225R,0.00157X0.08031*%
%ADD226R,0.00157X0.08346*%
%ADD227R,0.00157X0.08504*%
%ADD228R,0.00157X0.09606*%
%ADD229R,0.00157X0.09764*%
%ADD230R,0.00157X0.10079*%
%ADD231R,0.00157X0.08661*%
%ADD232C,0.00300*%
%ADD233C,0.01114*%
%ADD234C,0.00700*%
%ADD235R,0.15276X0.00157*%
%ADD236R,0.03307X0.00157*%
%ADD237R,0.11024X0.00157*%
%ADD238R,0.02992X0.00157*%
%ADD239R,0.01260X0.00157*%
%ADD240R,0.01890X0.00157*%
%ADD241R,0.00630X0.00157*%
%ADD242R,0.02677X0.00157*%
%ADD243R,0.00787X0.00157*%
%ADD244R,0.01575X0.00157*%
%ADD245R,0.02520X0.00157*%
%ADD246R,0.01417X0.00157*%
%ADD247R,0.02205X0.00157*%
%ADD248R,0.02362X0.00157*%
%ADD249R,0.02047X0.00157*%
%ADD250R,0.01102X0.00157*%
%ADD251R,0.00945X0.00157*%
%ADD252R,0.02835X0.00157*%
%ADD253R,0.01732X0.00157*%
%ADD254R,0.00315X0.00157*%
%ADD255R,0.03150X0.00157*%
%ADD256R,0.01929X0.00276*%
%ADD257R,0.02756X0.00276*%
%ADD258R,0.02480X0.00276*%
%ADD259R,0.06063X0.00276*%
%ADD260R,0.00551X0.00276*%
%ADD261R,0.00827X0.00276*%
%ADD262R,0.01654X0.00276*%
%ADD263R,0.03307X0.00315*%
%ADD264R,0.04134X0.00315*%
%ADD265R,0.03858X0.00315*%
%ADD266R,0.06890X0.00315*%
%ADD267R,0.01654X0.00315*%
%ADD268R,0.01378X0.00315*%
%ADD269R,0.02756X0.00315*%
%ADD270R,0.04409X0.00276*%
%ADD271R,0.04685X0.00276*%
%ADD272R,0.03858X0.00276*%
%ADD273R,0.07165X0.00276*%
%ADD274R,0.03583X0.00276*%
%ADD275R,0.04961X0.00236*%
%ADD276R,0.04409X0.00236*%
%ADD277R,0.07165X0.00236*%
%ADD278R,0.01654X0.00236*%
%ADD279R,0.02205X0.00236*%
%ADD280R,0.04134X0.00236*%
%ADD281R,0.05236X0.00315*%
%ADD282R,0.04685X0.00315*%
%ADD283R,0.02480X0.00315*%
%ADD284R,0.04409X0.00315*%
%ADD285R,0.05512X0.00276*%
%ADD286R,0.05236X0.00276*%
%ADD287R,0.06614X0.00276*%
%ADD288R,0.04961X0.00276*%
%ADD289R,0.05787X0.00276*%
%ADD290R,0.02480X0.00236*%
%ADD291R,0.01378X0.00236*%
%ADD292R,0.01929X0.00236*%
%ADD293R,0.00827X0.00236*%
%ADD294R,0.02205X0.00315*%
%ADD295R,0.00276X0.00315*%
%ADD296R,0.01929X0.00315*%
%ADD297R,0.02205X0.00276*%
%ADD298R,0.04134X0.00276*%
%ADD299R,0.03307X0.00276*%
%ADD300R,0.01378X0.00276*%
%ADD301R,0.03031X0.00315*%
%ADD302R,0.03583X0.00315*%
%ADD303R,0.03031X0.00276*%
%ADD304R,0.05236X0.00236*%
%ADD305R,0.04685X0.00236*%
%ADD306R,0.05787X0.00236*%
%ADD307R,0.03031X0.00236*%
%ADD308R,0.01102X0.00236*%
%ADD309R,0.14331X0.00157*%
%ADD310R,0.07087X0.00157*%
%ADD311R,0.03465X0.00157*%
%ADD312R,0.03937X0.00157*%
%ADD313R,0.03622X0.00157*%
%ADD314R,0.04567X0.00157*%
%ADD315R,0.00157X0.23425*%
%ADD316R,0.00118X0.23543*%
%ADD317R,0.00157X0.23819*%
%ADD318R,0.00118X0.23976*%
%ADD319R,0.00157X0.24094*%
%ADD320R,0.00118X0.24252*%
%ADD321R,0.00157X0.13898*%
%ADD322R,0.00118X0.02205*%
%ADD323R,0.00118X0.06063*%
%ADD324R,0.00118X0.02756*%
%ADD325R,0.00118X0.03701*%
%ADD326R,0.00157X0.01772*%
%ADD327R,0.00157X0.01929*%
%ADD328R,0.00157X0.00433*%
%ADD329R,0.00157X0.01811*%
%ADD330R,0.00157X0.00984*%
%ADD331R,0.00157X0.01496*%
%ADD332R,0.00118X0.01929*%
%ADD333R,0.00118X0.00433*%
%ADD334R,0.00118X0.02047*%
%ADD335R,0.00118X0.01102*%
%ADD336R,0.00118X0.01496*%
%ADD337R,0.00157X0.00551*%
%ADD338R,0.00157X0.01378*%
%ADD339R,0.00157X0.01654*%
%ADD340R,0.00118X0.00394*%
%ADD341R,0.00118X0.01260*%
%ADD342R,0.00118X0.00551*%
%ADD343R,0.00118X0.00984*%
%ADD344R,0.00157X0.02323*%
%ADD345R,0.00157X0.00669*%
%ADD346R,0.00118X0.00669*%
%ADD347R,0.00157X0.00394*%
%ADD348R,0.00118X0.01811*%
%ADD349R,0.00118X0.02087*%
%ADD350R,0.00157X0.02756*%
%ADD351R,0.00118X0.02874*%
%ADD352R,0.00157X0.02874*%
%ADD353R,0.00118X0.00276*%
%ADD354R,0.00157X0.00276*%
%ADD355R,0.00118X0.01378*%
%ADD356R,0.00118X0.01220*%
%ADD357R,0.00157X0.01220*%
%ADD358R,0.00157X0.08268*%
%ADD359R,0.00118X0.08425*%
%ADD360R,0.00118X0.15433*%
%ADD361R,0.00157X0.26299*%
%ADD362R,0.00118X0.26181*%
%ADD363R,0.00157X0.26024*%
%ADD364R,0.00118X0.25906*%
%ADD365R,0.00157X0.25748*%
%ADD366R,0.00118X0.25630*%
%ADD367R,0.00157X0.14055*%
%ADD368R,0.00118X0.05787*%
%ADD369R,0.00118X0.06772*%
%ADD370R,0.00118X0.03031*%
%ADD371R,0.00118X0.02323*%
%ADD372R,0.00118X0.02638*%
%ADD373R,0.00118X0.02913*%
%ADD374R,0.00157X0.03031*%
%ADD375R,0.00157X0.09370*%
%ADD376R,0.00118X0.15551*%
%ADD377R,0.00079X0.00472*%
%ADD378R,0.00157X0.05669*%
%ADD379R,0.13228X0.00157*%
%ADD380R,0.13386X0.00157*%
%ADD381R,0.13701X0.00157*%
%ADD382R,0.13858X0.00157*%
%ADD383R,0.14016X0.00157*%
%ADD384R,0.14173X0.00157*%
%ADD385R,0.05512X0.00157*%
%ADD386R,0.03780X0.00157*%
%ADD387R,0.04094X0.00157*%
%ADD388R,0.00157X0.16535*%
%ADD389R,0.00157X0.06614*%
%ADD390R,0.16535X0.00157*%
%ADD391R,0.16378X0.00157*%
%ADD392R,0.16220X0.00157*%
%ADD393R,0.16063X0.00157*%
%ADD394R,0.15906X0.00157*%
%ADD395R,0.15748X0.00157*%
%ADD396R,0.15591X0.00157*%
%ADD397R,0.06142X0.00157*%
D10*
X0186300Y0155000D02*
X0196300Y0155000D01*
X0196300Y0215000D01*
X0186300Y0215000D01*
X0222914Y0200000D02*
X0222918Y0200329D01*
X0222930Y0200657D01*
X0222950Y0200985D01*
X0222978Y0201312D01*
X0223015Y0201639D01*
X0223059Y0201964D01*
X0223111Y0202288D01*
X0223171Y0202611D01*
X0223239Y0202933D01*
X0223315Y0203253D01*
X0223399Y0203570D01*
X0223490Y0203886D01*
X0223590Y0204199D01*
X0223696Y0204510D01*
X0223811Y0204818D01*
X0223933Y0205123D01*
X0224062Y0205425D01*
X0224199Y0205723D01*
X0224343Y0206018D01*
X0224495Y0206310D01*
X0224653Y0206598D01*
X0224818Y0206882D01*
X0224991Y0207161D01*
X0225170Y0207437D01*
X0225356Y0207708D01*
X0225548Y0207974D01*
X0225747Y0208235D01*
X0225952Y0208492D01*
X0226164Y0208743D01*
X0226382Y0208989D01*
X0226605Y0209230D01*
X0226835Y0209465D01*
X0227070Y0209695D01*
X0227311Y0209918D01*
X0227557Y0210136D01*
X0227808Y0210348D01*
X0228065Y0210553D01*
X0228326Y0210752D01*
X0228592Y0210944D01*
X0228863Y0211130D01*
X0229139Y0211309D01*
X0229418Y0211482D01*
X0229702Y0211647D01*
X0229990Y0211805D01*
X0230282Y0211957D01*
X0230577Y0212101D01*
X0230875Y0212238D01*
X0231177Y0212367D01*
X0231482Y0212489D01*
X0231790Y0212604D01*
X0232101Y0212710D01*
X0232414Y0212810D01*
X0232730Y0212901D01*
X0233047Y0212985D01*
X0233367Y0213061D01*
X0233689Y0213129D01*
X0234012Y0213189D01*
X0234336Y0213241D01*
X0234661Y0213285D01*
X0234988Y0213322D01*
X0235315Y0213350D01*
X0235643Y0213370D01*
X0235971Y0213382D01*
X0236300Y0213386D01*
X0236629Y0213382D01*
X0236957Y0213370D01*
X0237285Y0213350D01*
X0237612Y0213322D01*
X0237939Y0213285D01*
X0238264Y0213241D01*
X0238588Y0213189D01*
X0238911Y0213129D01*
X0239233Y0213061D01*
X0239553Y0212985D01*
X0239870Y0212901D01*
X0240186Y0212810D01*
X0240499Y0212710D01*
X0240810Y0212604D01*
X0241118Y0212489D01*
X0241423Y0212367D01*
X0241725Y0212238D01*
X0242023Y0212101D01*
X0242318Y0211957D01*
X0242610Y0211805D01*
X0242898Y0211647D01*
X0243182Y0211482D01*
X0243461Y0211309D01*
X0243737Y0211130D01*
X0244008Y0210944D01*
X0244274Y0210752D01*
X0244535Y0210553D01*
X0244792Y0210348D01*
X0245043Y0210136D01*
X0245289Y0209918D01*
X0245530Y0209695D01*
X0245765Y0209465D01*
X0245995Y0209230D01*
X0246218Y0208989D01*
X0246436Y0208743D01*
X0246648Y0208492D01*
X0246853Y0208235D01*
X0247052Y0207974D01*
X0247244Y0207708D01*
X0247430Y0207437D01*
X0247609Y0207161D01*
X0247782Y0206882D01*
X0247947Y0206598D01*
X0248105Y0206310D01*
X0248257Y0206018D01*
X0248401Y0205723D01*
X0248538Y0205425D01*
X0248667Y0205123D01*
X0248789Y0204818D01*
X0248904Y0204510D01*
X0249010Y0204199D01*
X0249110Y0203886D01*
X0249201Y0203570D01*
X0249285Y0203253D01*
X0249361Y0202933D01*
X0249429Y0202611D01*
X0249489Y0202288D01*
X0249541Y0201964D01*
X0249585Y0201639D01*
X0249622Y0201312D01*
X0249650Y0200985D01*
X0249670Y0200657D01*
X0249682Y0200329D01*
X0249686Y0200000D01*
X0249682Y0199671D01*
X0249670Y0199343D01*
X0249650Y0199015D01*
X0249622Y0198688D01*
X0249585Y0198361D01*
X0249541Y0198036D01*
X0249489Y0197712D01*
X0249429Y0197389D01*
X0249361Y0197067D01*
X0249285Y0196747D01*
X0249201Y0196430D01*
X0249110Y0196114D01*
X0249010Y0195801D01*
X0248904Y0195490D01*
X0248789Y0195182D01*
X0248667Y0194877D01*
X0248538Y0194575D01*
X0248401Y0194277D01*
X0248257Y0193982D01*
X0248105Y0193690D01*
X0247947Y0193402D01*
X0247782Y0193118D01*
X0247609Y0192839D01*
X0247430Y0192563D01*
X0247244Y0192292D01*
X0247052Y0192026D01*
X0246853Y0191765D01*
X0246648Y0191508D01*
X0246436Y0191257D01*
X0246218Y0191011D01*
X0245995Y0190770D01*
X0245765Y0190535D01*
X0245530Y0190305D01*
X0245289Y0190082D01*
X0245043Y0189864D01*
X0244792Y0189652D01*
X0244535Y0189447D01*
X0244274Y0189248D01*
X0244008Y0189056D01*
X0243737Y0188870D01*
X0243461Y0188691D01*
X0243182Y0188518D01*
X0242898Y0188353D01*
X0242610Y0188195D01*
X0242318Y0188043D01*
X0242023Y0187899D01*
X0241725Y0187762D01*
X0241423Y0187633D01*
X0241118Y0187511D01*
X0240810Y0187396D01*
X0240499Y0187290D01*
X0240186Y0187190D01*
X0239870Y0187099D01*
X0239553Y0187015D01*
X0239233Y0186939D01*
X0238911Y0186871D01*
X0238588Y0186811D01*
X0238264Y0186759D01*
X0237939Y0186715D01*
X0237612Y0186678D01*
X0237285Y0186650D01*
X0236957Y0186630D01*
X0236629Y0186618D01*
X0236300Y0186614D01*
X0235971Y0186618D01*
X0235643Y0186630D01*
X0235315Y0186650D01*
X0234988Y0186678D01*
X0234661Y0186715D01*
X0234336Y0186759D01*
X0234012Y0186811D01*
X0233689Y0186871D01*
X0233367Y0186939D01*
X0233047Y0187015D01*
X0232730Y0187099D01*
X0232414Y0187190D01*
X0232101Y0187290D01*
X0231790Y0187396D01*
X0231482Y0187511D01*
X0231177Y0187633D01*
X0230875Y0187762D01*
X0230577Y0187899D01*
X0230282Y0188043D01*
X0229990Y0188195D01*
X0229702Y0188353D01*
X0229418Y0188518D01*
X0229139Y0188691D01*
X0228863Y0188870D01*
X0228592Y0189056D01*
X0228326Y0189248D01*
X0228065Y0189447D01*
X0227808Y0189652D01*
X0227557Y0189864D01*
X0227311Y0190082D01*
X0227070Y0190305D01*
X0226835Y0190535D01*
X0226605Y0190770D01*
X0226382Y0191011D01*
X0226164Y0191257D01*
X0225952Y0191508D01*
X0225747Y0191765D01*
X0225548Y0192026D01*
X0225356Y0192292D01*
X0225170Y0192563D01*
X0224991Y0192839D01*
X0224818Y0193118D01*
X0224653Y0193402D01*
X0224495Y0193690D01*
X0224343Y0193982D01*
X0224199Y0194277D01*
X0224062Y0194575D01*
X0223933Y0194877D01*
X0223811Y0195182D01*
X0223696Y0195490D01*
X0223590Y0195801D01*
X0223490Y0196114D01*
X0223399Y0196430D01*
X0223315Y0196747D01*
X0223239Y0197067D01*
X0223171Y0197389D01*
X0223111Y0197712D01*
X0223059Y0198036D01*
X0223015Y0198361D01*
X0222978Y0198688D01*
X0222950Y0199015D01*
X0222930Y0199343D01*
X0222918Y0199671D01*
X0222914Y0200000D01*
X0234609Y0175000D02*
X0237991Y0175000D01*
X0239091Y0171057D02*
X0239091Y0168943D01*
X0237991Y0165000D02*
X0234609Y0165000D01*
X0234331Y0161461D02*
X0234331Y0156539D01*
X0237757Y0156539D02*
X0244843Y0156539D01*
X0244843Y0161461D02*
X0237757Y0161461D01*
D11*
X0227206Y0076890D02*
X0215394Y0076890D01*
X0209489Y0087126D02*
X0209489Y0093622D01*
X0212442Y0093622D01*
X0230158Y0093622D02*
X0233111Y0093622D01*
X0233111Y0087126D01*
X0233111Y0226378D02*
X0230158Y0226378D01*
X0233111Y0226378D02*
X0233111Y0232874D01*
X0227206Y0243110D02*
X0215394Y0243110D01*
X0209489Y0232874D02*
X0209489Y0226378D01*
X0212442Y0226378D01*
D12*
X0230586Y0223819D02*
X0230588Y0223866D01*
X0230594Y0223912D01*
X0230603Y0223958D01*
X0230617Y0224002D01*
X0230634Y0224046D01*
X0230655Y0224087D01*
X0230679Y0224127D01*
X0230706Y0224165D01*
X0230737Y0224200D01*
X0230770Y0224233D01*
X0230806Y0224263D01*
X0230845Y0224289D01*
X0230885Y0224313D01*
X0230927Y0224332D01*
X0230971Y0224349D01*
X0231016Y0224361D01*
X0231062Y0224370D01*
X0231108Y0224375D01*
X0231155Y0224376D01*
X0231201Y0224373D01*
X0231247Y0224366D01*
X0231293Y0224355D01*
X0231337Y0224341D01*
X0231380Y0224323D01*
X0231421Y0224301D01*
X0231461Y0224276D01*
X0231498Y0224248D01*
X0231533Y0224217D01*
X0231565Y0224183D01*
X0231594Y0224146D01*
X0231619Y0224108D01*
X0231642Y0224067D01*
X0231661Y0224024D01*
X0231676Y0223980D01*
X0231688Y0223935D01*
X0231696Y0223889D01*
X0231700Y0223842D01*
X0231700Y0223796D01*
X0231696Y0223749D01*
X0231688Y0223703D01*
X0231676Y0223658D01*
X0231661Y0223614D01*
X0231642Y0223571D01*
X0231619Y0223530D01*
X0231594Y0223492D01*
X0231565Y0223455D01*
X0231533Y0223421D01*
X0231498Y0223390D01*
X0231461Y0223362D01*
X0231422Y0223337D01*
X0231380Y0223315D01*
X0231337Y0223297D01*
X0231293Y0223283D01*
X0231247Y0223272D01*
X0231201Y0223265D01*
X0231155Y0223262D01*
X0231108Y0223263D01*
X0231062Y0223268D01*
X0231016Y0223277D01*
X0230971Y0223289D01*
X0230927Y0223306D01*
X0230885Y0223325D01*
X0230845Y0223349D01*
X0230806Y0223375D01*
X0230770Y0223405D01*
X0230737Y0223438D01*
X0230706Y0223473D01*
X0230679Y0223511D01*
X0230655Y0223551D01*
X0230634Y0223592D01*
X0230617Y0223636D01*
X0230603Y0223680D01*
X0230594Y0223726D01*
X0230588Y0223772D01*
X0230586Y0223819D01*
X0210900Y0096181D02*
X0210902Y0096228D01*
X0210908Y0096274D01*
X0210917Y0096320D01*
X0210931Y0096364D01*
X0210948Y0096408D01*
X0210969Y0096449D01*
X0210993Y0096489D01*
X0211020Y0096527D01*
X0211051Y0096562D01*
X0211084Y0096595D01*
X0211120Y0096625D01*
X0211159Y0096651D01*
X0211199Y0096675D01*
X0211241Y0096694D01*
X0211285Y0096711D01*
X0211330Y0096723D01*
X0211376Y0096732D01*
X0211422Y0096737D01*
X0211469Y0096738D01*
X0211515Y0096735D01*
X0211561Y0096728D01*
X0211607Y0096717D01*
X0211651Y0096703D01*
X0211694Y0096685D01*
X0211735Y0096663D01*
X0211775Y0096638D01*
X0211812Y0096610D01*
X0211847Y0096579D01*
X0211879Y0096545D01*
X0211908Y0096508D01*
X0211933Y0096470D01*
X0211956Y0096429D01*
X0211975Y0096386D01*
X0211990Y0096342D01*
X0212002Y0096297D01*
X0212010Y0096251D01*
X0212014Y0096204D01*
X0212014Y0096158D01*
X0212010Y0096111D01*
X0212002Y0096065D01*
X0211990Y0096020D01*
X0211975Y0095976D01*
X0211956Y0095933D01*
X0211933Y0095892D01*
X0211908Y0095854D01*
X0211879Y0095817D01*
X0211847Y0095783D01*
X0211812Y0095752D01*
X0211775Y0095724D01*
X0211736Y0095699D01*
X0211694Y0095677D01*
X0211651Y0095659D01*
X0211607Y0095645D01*
X0211561Y0095634D01*
X0211515Y0095627D01*
X0211469Y0095624D01*
X0211422Y0095625D01*
X0211376Y0095630D01*
X0211330Y0095639D01*
X0211285Y0095651D01*
X0211241Y0095668D01*
X0211199Y0095687D01*
X0211159Y0095711D01*
X0211120Y0095737D01*
X0211084Y0095767D01*
X0211051Y0095800D01*
X0211020Y0095835D01*
X0210993Y0095873D01*
X0210969Y0095913D01*
X0210948Y0095954D01*
X0210931Y0095998D01*
X0210917Y0096042D01*
X0210908Y0096088D01*
X0210902Y0096134D01*
X0210900Y0096181D01*
D13*
X0226300Y0106000D02*
X0236300Y0106000D01*
X0236383Y0106002D01*
X0236466Y0106008D01*
X0236549Y0106017D01*
X0236631Y0106031D01*
X0236712Y0106048D01*
X0236793Y0106069D01*
X0236872Y0106093D01*
X0236950Y0106122D01*
X0237027Y0106153D01*
X0237102Y0106189D01*
X0237176Y0106227D01*
X0237248Y0106270D01*
X0237317Y0106315D01*
X0237385Y0106364D01*
X0237450Y0106415D01*
X0237513Y0106470D01*
X0237573Y0106527D01*
X0237630Y0106587D01*
X0237685Y0106650D01*
X0237736Y0106715D01*
X0237785Y0106783D01*
X0237830Y0106852D01*
X0237873Y0106924D01*
X0237911Y0106998D01*
X0237947Y0107073D01*
X0237978Y0107150D01*
X0238007Y0107228D01*
X0238031Y0107307D01*
X0238052Y0107388D01*
X0238069Y0107469D01*
X0238083Y0107551D01*
X0238092Y0107634D01*
X0238098Y0107717D01*
X0238100Y0107800D01*
X0238100Y0112200D01*
X0238098Y0112283D01*
X0238092Y0112366D01*
X0238083Y0112449D01*
X0238069Y0112531D01*
X0238052Y0112612D01*
X0238031Y0112693D01*
X0238007Y0112772D01*
X0237978Y0112850D01*
X0237947Y0112927D01*
X0237911Y0113002D01*
X0237873Y0113076D01*
X0237830Y0113148D01*
X0237785Y0113217D01*
X0237736Y0113285D01*
X0237685Y0113350D01*
X0237630Y0113413D01*
X0237573Y0113473D01*
X0237513Y0113530D01*
X0237450Y0113585D01*
X0237385Y0113636D01*
X0237317Y0113685D01*
X0237248Y0113730D01*
X0237176Y0113773D01*
X0237102Y0113811D01*
X0237027Y0113847D01*
X0236950Y0113878D01*
X0236872Y0113907D01*
X0236793Y0113931D01*
X0236712Y0113952D01*
X0236631Y0113969D01*
X0236549Y0113983D01*
X0236466Y0113992D01*
X0236383Y0113998D01*
X0236300Y0114000D01*
X0226300Y0114000D01*
X0226217Y0113998D01*
X0226134Y0113992D01*
X0226051Y0113983D01*
X0225969Y0113969D01*
X0225888Y0113952D01*
X0225807Y0113931D01*
X0225728Y0113907D01*
X0225650Y0113878D01*
X0225573Y0113847D01*
X0225498Y0113811D01*
X0225424Y0113773D01*
X0225352Y0113730D01*
X0225283Y0113685D01*
X0225215Y0113636D01*
X0225150Y0113585D01*
X0225087Y0113530D01*
X0225027Y0113473D01*
X0224970Y0113413D01*
X0224915Y0113350D01*
X0224864Y0113285D01*
X0224815Y0113217D01*
X0224770Y0113148D01*
X0224727Y0113076D01*
X0224689Y0113002D01*
X0224653Y0112927D01*
X0224622Y0112850D01*
X0224593Y0112772D01*
X0224569Y0112693D01*
X0224548Y0112612D01*
X0224531Y0112531D01*
X0224517Y0112449D01*
X0224508Y0112366D01*
X0224502Y0112283D01*
X0224500Y0112200D01*
X0224500Y0107800D01*
X0224502Y0107717D01*
X0224508Y0107634D01*
X0224517Y0107551D01*
X0224531Y0107469D01*
X0224548Y0107388D01*
X0224569Y0107307D01*
X0224593Y0107228D01*
X0224622Y0107150D01*
X0224653Y0107073D01*
X0224689Y0106998D01*
X0224727Y0106924D01*
X0224770Y0106852D01*
X0224815Y0106783D01*
X0224864Y0106715D01*
X0224915Y0106650D01*
X0224970Y0106587D01*
X0225027Y0106527D01*
X0225087Y0106470D01*
X0225150Y0106415D01*
X0225215Y0106364D01*
X0225283Y0106315D01*
X0225352Y0106270D01*
X0225424Y0106227D01*
X0225498Y0106189D01*
X0225573Y0106153D01*
X0225650Y0106122D01*
X0225728Y0106093D01*
X0225807Y0106069D01*
X0225888Y0106048D01*
X0225969Y0106031D01*
X0226051Y0106017D01*
X0226134Y0106008D01*
X0226217Y0106002D01*
X0226300Y0106000D01*
X0202639Y0107992D02*
X0195552Y0107992D01*
X0195552Y0142008D02*
X0202639Y0142008D01*
D14*
X0227331Y0134748D02*
X0231269Y0134748D01*
X0231269Y0128252D02*
X0227331Y0128252D01*
X0329394Y0128126D02*
X0330182Y0128126D01*
X0340418Y0128126D01*
X0340418Y0133244D01*
X0330182Y0133244D02*
X0330182Y0128126D01*
X0329788Y0128126D02*
X0329788Y0133244D01*
X0329394Y0133244D02*
X0330182Y0133244D01*
X0329394Y0133244D02*
X0329394Y0128126D01*
X0329394Y0138756D02*
X0330182Y0138756D01*
X0330182Y0143874D01*
X0329394Y0143874D01*
X0329394Y0138756D01*
X0329788Y0138756D02*
X0329788Y0143874D01*
X0330182Y0143874D02*
X0340418Y0143874D01*
X0340418Y0138756D01*
X0339425Y0173750D02*
X0343175Y0173750D01*
X0346925Y0173750D02*
X0350675Y0173750D01*
X0335675Y0173750D02*
X0331925Y0173750D01*
X0328175Y0173750D02*
X0324425Y0173750D01*
D15*
X0283977Y0229449D03*
X0278623Y0229449D03*
X0264450Y0090319D03*
X0258150Y0090319D03*
D16*
X0258308Y0090555D03*
X0254450Y0090713D03*
X0254292Y0090713D03*
X0254135Y0090713D03*
X0253977Y0090713D03*
X0253820Y0090713D03*
X0253662Y0090713D03*
X0253505Y0090713D03*
X0249095Y0090713D03*
X0248938Y0090713D03*
X0248780Y0090713D03*
X0248623Y0090713D03*
X0248465Y0090713D03*
X0248308Y0090713D03*
X0248150Y0090713D03*
X0264292Y0090555D03*
X0268938Y0090555D03*
X0273662Y0090555D03*
X0299095Y0090555D03*
X0303505Y0090555D03*
X0318308Y0090343D03*
X0324292Y0090343D03*
X0323977Y0229740D03*
X0318623Y0229740D03*
X0283505Y0229213D03*
X0279095Y0229213D03*
X0264450Y0229213D03*
X0264292Y0229213D03*
X0264135Y0229213D03*
X0263977Y0229213D03*
X0263820Y0229213D03*
X0263662Y0229213D03*
X0263505Y0229213D03*
X0259095Y0229213D03*
X0258938Y0229213D03*
X0258780Y0229213D03*
X0258623Y0229213D03*
X0258465Y0229213D03*
X0258308Y0229213D03*
X0258150Y0229213D03*
D17*
X0318938Y0229583D03*
X0323662Y0229583D03*
X0324135Y0090500D03*
X0318465Y0090500D03*
X0303820Y0090713D03*
X0298780Y0090713D03*
X0264135Y0090713D03*
X0258465Y0090713D03*
D18*
X0258623Y0090870D03*
X0263977Y0090870D03*
X0289095Y0090370D03*
X0293505Y0090370D03*
X0298465Y0090870D03*
X0304135Y0090870D03*
X0323820Y0090657D03*
D19*
X0304292Y0090949D03*
X0298308Y0090949D03*
X0293662Y0090449D03*
X0288938Y0090449D03*
X0263820Y0090949D03*
X0258780Y0090949D03*
D20*
X0258938Y0091028D03*
X0263662Y0091028D03*
X0244450Y0091028D03*
X0244292Y0091028D03*
X0244135Y0091028D03*
X0243977Y0091028D03*
X0243820Y0091028D03*
X0243662Y0091028D03*
X0243505Y0091028D03*
X0239095Y0091028D03*
X0238938Y0091028D03*
X0238780Y0091028D03*
X0238623Y0091028D03*
X0238465Y0091028D03*
X0238308Y0091028D03*
X0238150Y0091028D03*
X0288780Y0090528D03*
X0293820Y0090528D03*
X0298150Y0091028D03*
X0304450Y0091028D03*
X0244450Y0229028D03*
X0244292Y0229028D03*
X0244135Y0229028D03*
X0243977Y0229028D03*
X0243820Y0229028D03*
X0243662Y0229028D03*
X0243505Y0229028D03*
X0239095Y0229028D03*
X0238938Y0229028D03*
X0238780Y0229028D03*
X0238623Y0229028D03*
X0238465Y0229028D03*
X0238308Y0229028D03*
X0238150Y0229028D03*
D21*
X0303229Y0228965D03*
X0313229Y0229016D03*
X0293977Y0090606D03*
X0288623Y0090606D03*
X0263505Y0091106D03*
X0259095Y0091106D03*
D22*
X0259253Y0084807D03*
X0261615Y0084807D03*
X0269253Y0084807D03*
X0270828Y0090949D03*
X0270985Y0090949D03*
X0271143Y0090949D03*
X0271300Y0090949D03*
X0271457Y0090949D03*
X0271615Y0090949D03*
X0271772Y0090949D03*
X0271930Y0090949D03*
X0273347Y0096618D03*
X0273190Y0096776D03*
X0273032Y0096776D03*
X0263190Y0097720D03*
X0263032Y0097720D03*
X0249253Y0096461D03*
X0243190Y0097248D03*
X0240513Y0087799D03*
X0243190Y0084807D03*
X0249253Y0084965D03*
X0250828Y0084965D03*
X0250985Y0084965D03*
X0251143Y0084965D03*
X0251300Y0084965D03*
X0251457Y0084965D03*
X0251615Y0084965D03*
X0301930Y0092839D03*
X0303032Y0091264D03*
X0311300Y0089949D03*
X0313662Y0093571D03*
X0324883Y0171256D03*
X0326772Y0171610D03*
X0282402Y0222362D03*
X0280198Y0222362D03*
X0272560Y0223622D03*
X0271615Y0227402D03*
X0271143Y0227402D03*
X0270985Y0227402D03*
X0271457Y0231969D03*
X0272245Y0235433D03*
X0282245Y0234961D03*
X0291930Y0231457D03*
X0292402Y0227992D03*
X0292245Y0227835D03*
X0292087Y0227835D03*
X0320828Y0230449D03*
X0320985Y0230449D03*
X0321143Y0230449D03*
X0321300Y0230449D03*
X0321457Y0230449D03*
X0321615Y0230449D03*
X0321772Y0230449D03*
X0321930Y0230449D03*
X0321772Y0235488D03*
X0320985Y0235488D03*
X0261615Y0223465D03*
X0261457Y0223465D03*
X0261300Y0223465D03*
X0261143Y0223465D03*
X0260985Y0223465D03*
X0260828Y0223465D03*
X0259253Y0223465D03*
X0253347Y0231087D03*
X0249253Y0232819D03*
X0252087Y0235181D03*
X0252245Y0235181D03*
X0259253Y0234961D03*
X0243190Y0235248D03*
X0240513Y0225799D03*
X0243190Y0222807D03*
D23*
X0259253Y0092996D03*
D24*
X0253190Y0092366D03*
X0253190Y0089059D03*
X0253347Y0084807D03*
X0259410Y0084650D03*
X0273347Y0084650D03*
X0273347Y0088587D03*
X0293347Y0096433D03*
X0302402Y0091106D03*
X0302560Y0091106D03*
X0302717Y0091106D03*
X0322245Y0084437D03*
X0253347Y0096618D03*
X0243032Y0097406D03*
X0239725Y0097406D03*
X0239725Y0084650D03*
X0243032Y0084650D03*
X0243032Y0222650D03*
X0239725Y0222650D03*
X0263347Y0223307D03*
X0263190Y0227559D03*
X0263190Y0230866D03*
X0269253Y0229764D03*
X0270670Y0227244D03*
X0271930Y0227244D03*
X0272245Y0223780D03*
X0270355Y0223780D03*
X0279883Y0222520D03*
X0282717Y0222520D03*
X0292717Y0228150D03*
X0292875Y0228307D03*
X0293505Y0228937D03*
X0291772Y0231457D03*
X0291615Y0231457D03*
X0281615Y0231496D03*
X0279253Y0229291D03*
X0271615Y0231969D03*
X0279410Y0235118D03*
X0282087Y0235118D03*
X0263347Y0235118D03*
X0251615Y0235339D03*
X0251457Y0235339D03*
X0249410Y0232819D03*
X0243032Y0235406D03*
X0239725Y0235406D03*
X0320670Y0235646D03*
X0322087Y0235646D03*
X0323347Y0228087D03*
D25*
X0322875Y0228008D03*
X0322245Y0226118D03*
X0320985Y0227378D03*
X0320355Y0227693D03*
X0320040Y0227850D03*
X0319883Y0228008D03*
X0320355Y0230055D03*
X0319410Y0231472D03*
X0311576Y0229016D03*
X0311024Y0231220D03*
X0309922Y0231772D03*
X0301576Y0231602D03*
X0299922Y0231051D03*
X0301024Y0233807D03*
X0282245Y0231260D03*
X0280828Y0230945D03*
X0280985Y0232992D03*
X0272245Y0231732D03*
X0270828Y0231417D03*
X0270040Y0229685D03*
X0270670Y0233465D03*
X0270828Y0233465D03*
X0262245Y0233150D03*
X0262087Y0233150D03*
X0260670Y0232992D03*
X0260513Y0233150D03*
X0259410Y0231732D03*
X0260828Y0229213D03*
X0260985Y0229213D03*
X0260985Y0227165D03*
X0259410Y0226693D03*
X0260513Y0225276D03*
X0260670Y0225118D03*
X0262087Y0225276D03*
X0262245Y0225276D03*
X0252245Y0228961D03*
X0242560Y0228870D03*
X0240198Y0229343D03*
X0240513Y0232965D03*
X0242245Y0232965D03*
X0240355Y0225248D03*
X0240985Y0224618D03*
X0280513Y0225433D03*
X0280670Y0225433D03*
X0280828Y0225433D03*
X0280985Y0225433D03*
X0281143Y0225433D03*
X0282717Y0225433D03*
X0282875Y0225433D03*
X0283032Y0225433D03*
X0282087Y0227323D03*
X0280828Y0227638D03*
X0301300Y0222783D03*
X0302127Y0220421D03*
X0311576Y0222677D03*
X0302678Y0215185D03*
X0301024Y0215185D03*
X0300749Y0215185D03*
X0299646Y0216445D03*
X0302245Y0095909D03*
X0301143Y0095437D03*
X0302245Y0093862D03*
X0301457Y0092445D03*
X0299725Y0092130D03*
X0300513Y0090398D03*
X0300985Y0090398D03*
X0301143Y0090398D03*
X0299568Y0088350D03*
X0301143Y0086776D03*
X0292717Y0086276D03*
X0292560Y0086276D03*
X0291143Y0086276D03*
X0310513Y0087508D03*
X0313662Y0087823D03*
X0313505Y0086248D03*
X0321457Y0090500D03*
X0321615Y0090500D03*
X0330198Y0088823D03*
X0332560Y0088350D03*
X0272875Y0088508D03*
X0272245Y0086618D03*
X0270985Y0087878D03*
X0270355Y0088193D03*
X0270040Y0088350D03*
X0269883Y0088508D03*
X0270355Y0090555D03*
X0269410Y0091972D03*
X0263190Y0091657D03*
X0259410Y0088035D03*
X0262245Y0086618D03*
X0252245Y0086776D03*
X0252087Y0086776D03*
X0250670Y0086618D03*
X0250513Y0086776D03*
X0249410Y0088193D03*
X0250985Y0088665D03*
X0250985Y0090713D03*
X0250828Y0090713D03*
X0249410Y0093232D03*
X0250670Y0094492D03*
X0250513Y0094650D03*
X0252087Y0094650D03*
X0252245Y0094650D03*
X0242245Y0094965D03*
X0240513Y0094965D03*
X0240198Y0091343D03*
X0242560Y0090870D03*
X0240355Y0087248D03*
X0240985Y0086618D03*
D26*
X0243347Y0084965D03*
X0259410Y0092366D03*
X0262717Y0097720D03*
X0303347Y0095988D03*
X0310670Y0094988D03*
X0313347Y0093728D03*
X0320670Y0098295D03*
X0330198Y0094728D03*
X0330355Y0094728D03*
X0330513Y0094728D03*
X0330670Y0094728D03*
X0330828Y0094728D03*
X0330985Y0094728D03*
X0331143Y0094728D03*
X0331300Y0094728D03*
X0331457Y0094728D03*
X0331615Y0094728D03*
X0331772Y0094728D03*
X0331930Y0094728D03*
X0332087Y0094728D03*
X0332245Y0094728D03*
X0332402Y0094728D03*
X0332560Y0094728D03*
X0332717Y0094728D03*
X0332875Y0094728D03*
X0333032Y0094728D03*
X0333190Y0094728D03*
X0322402Y0084752D03*
X0322560Y0223047D03*
X0322717Y0223205D03*
X0322875Y0223205D03*
X0323032Y0223362D03*
X0321457Y0235331D03*
X0321300Y0235331D03*
X0292245Y0231772D03*
X0291772Y0227677D03*
X0281930Y0222205D03*
X0280670Y0222205D03*
X0272875Y0223465D03*
X0272402Y0235276D03*
X0252875Y0235024D03*
X0252717Y0235024D03*
X0243347Y0222965D03*
X0291457Y0235079D03*
D27*
X0260513Y0097327D03*
X0260040Y0097169D03*
X0259725Y0097012D03*
X0259410Y0096854D03*
X0311143Y0094437D03*
X0311300Y0094437D03*
X0311457Y0094437D03*
X0311615Y0094437D03*
X0311772Y0094437D03*
X0322560Y0097114D03*
D28*
X0323032Y0097823D03*
X0323032Y0092941D03*
X0322875Y0092941D03*
X0322717Y0092941D03*
X0322560Y0092941D03*
X0323190Y0092941D03*
X0323347Y0092941D03*
X0323505Y0092941D03*
X0321457Y0092941D03*
X0321300Y0092941D03*
X0333347Y0091264D03*
X0322087Y0084280D03*
X0301772Y0092681D03*
X0300828Y0094886D03*
X0303032Y0096146D03*
X0293190Y0096433D03*
X0270670Y0087484D03*
X0271300Y0084492D03*
X0269568Y0084492D03*
X0261300Y0084492D03*
X0259568Y0084492D03*
X0260670Y0087484D03*
X0259725Y0092524D03*
X0263190Y0094256D03*
X0253190Y0096776D03*
X0251300Y0096776D03*
X0249568Y0096776D03*
X0251300Y0093154D03*
X0251457Y0093154D03*
X0253032Y0092366D03*
X0253032Y0089059D03*
X0253190Y0084650D03*
X0250670Y0084650D03*
X0249568Y0084650D03*
X0242717Y0084492D03*
X0240040Y0084492D03*
X0239883Y0084492D03*
X0240040Y0097563D03*
X0242717Y0097563D03*
X0310473Y0213465D03*
X0312127Y0213465D03*
X0311851Y0216496D03*
X0302954Y0225264D03*
X0302678Y0225264D03*
X0302402Y0225264D03*
X0291457Y0231457D03*
X0291772Y0235551D03*
X0290355Y0235551D03*
X0281772Y0235276D03*
X0279725Y0235276D03*
X0271772Y0235748D03*
X0271615Y0235748D03*
X0269725Y0235748D03*
X0263190Y0235276D03*
X0261300Y0235276D03*
X0259568Y0235276D03*
X0261300Y0231654D03*
X0261457Y0231654D03*
X0263032Y0230866D03*
X0263032Y0227559D03*
X0269410Y0229764D03*
X0270355Y0227087D03*
X0272245Y0227087D03*
X0273347Y0226929D03*
X0271930Y0223937D03*
X0270670Y0223937D03*
X0263190Y0223150D03*
X0260670Y0223150D03*
X0259568Y0223150D03*
X0253347Y0227150D03*
X0250670Y0229984D03*
X0250513Y0229984D03*
X0253032Y0231244D03*
X0249725Y0232819D03*
X0249568Y0232819D03*
X0249253Y0235496D03*
X0250828Y0235496D03*
X0250985Y0235496D03*
X0242717Y0235563D03*
X0240040Y0235563D03*
X0240040Y0222492D03*
X0239883Y0222492D03*
X0242717Y0222492D03*
X0279410Y0222835D03*
X0279568Y0222677D03*
X0283032Y0222677D03*
X0283190Y0222835D03*
X0279410Y0229291D03*
X0319253Y0235803D03*
X0320355Y0235803D03*
X0322402Y0235803D03*
X0320670Y0226984D03*
D29*
X0321143Y0227535D03*
X0322560Y0228008D03*
X0322717Y0228008D03*
X0322402Y0230055D03*
X0320513Y0231472D03*
X0319883Y0233362D03*
X0322717Y0233362D03*
X0293505Y0232480D03*
X0292717Y0232323D03*
X0292875Y0231063D03*
X0291143Y0231063D03*
X0292875Y0233740D03*
X0283347Y0231417D03*
X0282402Y0231260D03*
X0280513Y0231102D03*
X0280355Y0231260D03*
X0280198Y0229213D03*
X0280513Y0227480D03*
X0280355Y0227323D03*
X0279568Y0226850D03*
X0282402Y0227165D03*
X0283347Y0227165D03*
X0272402Y0229685D03*
X0272402Y0231732D03*
X0270513Y0231575D03*
X0270198Y0231732D03*
X0269568Y0232047D03*
X0270355Y0233465D03*
X0270198Y0229685D03*
X0262402Y0233150D03*
X0260355Y0233150D03*
X0259568Y0231732D03*
X0260355Y0231417D03*
X0260513Y0231417D03*
X0261143Y0229213D03*
X0261300Y0229213D03*
X0260670Y0227165D03*
X0259568Y0226693D03*
X0260355Y0225276D03*
X0262402Y0225276D03*
X0252402Y0228961D03*
X0250198Y0230535D03*
X0243347Y0231075D03*
X0242245Y0228713D03*
X0242087Y0228713D03*
X0240670Y0229500D03*
X0240355Y0226823D03*
X0239568Y0226823D03*
X0242402Y0225248D03*
X0301930Y0095752D03*
X0301615Y0095594D03*
X0301457Y0095594D03*
X0302402Y0093862D03*
X0301300Y0092287D03*
X0299883Y0092130D03*
X0300355Y0093862D03*
X0292717Y0093677D03*
X0289883Y0093677D03*
X0289410Y0087535D03*
X0299883Y0088508D03*
X0301772Y0088508D03*
X0310670Y0087508D03*
X0312087Y0087823D03*
X0312875Y0088925D03*
X0311143Y0088925D03*
X0311143Y0086091D03*
X0311930Y0086091D03*
X0312875Y0086091D03*
X0313032Y0086091D03*
X0321143Y0086091D03*
X0322875Y0086091D03*
X0330513Y0088980D03*
X0330670Y0088980D03*
X0332087Y0088193D03*
X0322245Y0090657D03*
X0322087Y0090657D03*
X0322087Y0093650D03*
X0321930Y0093650D03*
X0321772Y0093650D03*
X0322245Y0093650D03*
X0272717Y0088508D03*
X0272560Y0088508D03*
X0271143Y0088035D03*
X0272402Y0090555D03*
X0270513Y0091972D03*
X0263032Y0088193D03*
X0261143Y0088193D03*
X0260198Y0088193D03*
X0259568Y0088193D03*
X0261143Y0092602D03*
X0261300Y0092602D03*
X0252402Y0094650D03*
X0250355Y0094650D03*
X0249568Y0093232D03*
X0250355Y0092917D03*
X0250513Y0092917D03*
X0251143Y0090713D03*
X0251300Y0090713D03*
X0250670Y0088665D03*
X0249568Y0088193D03*
X0250355Y0086776D03*
X0252402Y0086776D03*
X0242402Y0087248D03*
X0240355Y0088823D03*
X0239568Y0088823D03*
X0240670Y0091500D03*
X0242087Y0090713D03*
X0242245Y0090713D03*
X0243347Y0093075D03*
D30*
X0239568Y0097327D03*
X0259568Y0092445D03*
X0270670Y0091028D03*
X0272087Y0091028D03*
X0271615Y0084728D03*
X0263347Y0084728D03*
X0239568Y0084728D03*
X0289253Y0096354D03*
X0299410Y0096067D03*
X0300670Y0094807D03*
X0303190Y0096067D03*
X0302875Y0091185D03*
X0302875Y0087563D03*
X0303032Y0087563D03*
X0303190Y0087563D03*
X0302717Y0087563D03*
X0302560Y0087563D03*
X0302402Y0087563D03*
X0311457Y0090028D03*
X0321300Y0087035D03*
X0282560Y0222441D03*
X0280040Y0222441D03*
X0272402Y0223701D03*
X0270198Y0223701D03*
X0270828Y0227323D03*
X0271772Y0227323D03*
X0272087Y0235512D03*
X0269410Y0235512D03*
X0251930Y0235260D03*
X0251772Y0235260D03*
X0239568Y0235327D03*
X0239568Y0222728D03*
X0292560Y0228071D03*
X0293662Y0229173D03*
X0291615Y0235315D03*
X0320828Y0235567D03*
X0321930Y0235567D03*
X0322087Y0230528D03*
X0320670Y0230528D03*
D31*
X0322717Y0097035D03*
X0311930Y0094358D03*
X0310985Y0094516D03*
X0260828Y0097406D03*
X0260670Y0097406D03*
X0260355Y0097248D03*
X0260198Y0097248D03*
X0259883Y0097091D03*
X0259568Y0096933D03*
D32*
X0263032Y0094177D03*
X0259883Y0092602D03*
X0252875Y0092287D03*
X0251143Y0093232D03*
X0250985Y0093232D03*
X0249883Y0090713D03*
X0249725Y0090713D03*
X0252875Y0089138D03*
X0253032Y0084571D03*
X0249725Y0084571D03*
X0242560Y0084413D03*
X0242402Y0084413D03*
X0240198Y0084413D03*
X0259725Y0084413D03*
X0259883Y0084413D03*
X0260985Y0084413D03*
X0261143Y0084413D03*
X0262087Y0084413D03*
X0262875Y0084413D03*
X0263032Y0084413D03*
X0269725Y0084413D03*
X0269883Y0084413D03*
X0271143Y0084413D03*
X0272087Y0084413D03*
X0273032Y0084413D03*
X0293347Y0083913D03*
X0303347Y0084413D03*
X0312402Y0088138D03*
X0312560Y0088295D03*
X0313662Y0090500D03*
X0309410Y0094437D03*
X0302875Y0096067D03*
X0299725Y0096067D03*
X0293032Y0096354D03*
X0291457Y0095094D03*
X0291300Y0095094D03*
X0289568Y0096354D03*
X0293347Y0091315D03*
X0320355Y0087823D03*
X0321615Y0087193D03*
X0323662Y0089083D03*
X0323505Y0084201D03*
X0321930Y0084201D03*
X0320513Y0084201D03*
X0321143Y0093020D03*
X0323190Y0097744D03*
X0253032Y0096854D03*
X0251143Y0096854D03*
X0249725Y0096854D03*
X0242560Y0097642D03*
X0242402Y0097642D03*
X0240198Y0097642D03*
X0299922Y0212783D03*
X0302678Y0212783D03*
X0310749Y0216417D03*
X0311300Y0220276D03*
X0301300Y0220224D03*
X0312402Y0225236D03*
X0312678Y0225236D03*
X0289568Y0228228D03*
X0283190Y0229213D03*
X0281772Y0231417D03*
X0273190Y0229685D03*
X0271772Y0231890D03*
X0272402Y0227008D03*
X0270198Y0227008D03*
X0270828Y0224016D03*
X0270985Y0224016D03*
X0271143Y0224016D03*
X0271300Y0224016D03*
X0271457Y0224016D03*
X0271615Y0224016D03*
X0271772Y0224016D03*
X0269410Y0222598D03*
X0263032Y0223071D03*
X0259725Y0223071D03*
X0262875Y0227638D03*
X0262875Y0230787D03*
X0261143Y0231732D03*
X0260985Y0231732D03*
X0259883Y0229213D03*
X0259725Y0229213D03*
X0253190Y0227071D03*
X0252245Y0227071D03*
X0251772Y0227071D03*
X0249568Y0227071D03*
X0249410Y0227071D03*
X0250355Y0229906D03*
X0252875Y0231165D03*
X0250670Y0235575D03*
X0250513Y0235575D03*
X0242560Y0235642D03*
X0242402Y0235642D03*
X0240198Y0235642D03*
X0259725Y0235354D03*
X0261143Y0235354D03*
X0263032Y0235354D03*
X0269883Y0235827D03*
X0270040Y0235827D03*
X0271457Y0235827D03*
X0279883Y0235354D03*
X0280040Y0235354D03*
X0281457Y0235354D03*
X0281615Y0235354D03*
X0290513Y0235630D03*
X0291143Y0235630D03*
X0293505Y0235630D03*
X0309922Y0235709D03*
X0312678Y0235709D03*
X0319410Y0235882D03*
X0320198Y0235882D03*
X0322560Y0235882D03*
X0323347Y0235882D03*
X0283347Y0222913D03*
X0242560Y0222413D03*
X0242402Y0222413D03*
X0240198Y0222413D03*
D33*
X0240198Y0226902D03*
X0240040Y0226902D03*
X0239883Y0226902D03*
X0239725Y0226902D03*
X0240985Y0226902D03*
X0241930Y0228634D03*
X0240828Y0229579D03*
X0239410Y0231154D03*
X0242402Y0232728D03*
X0243190Y0231154D03*
X0243032Y0226902D03*
X0249410Y0230614D03*
X0251772Y0229039D03*
X0259725Y0226772D03*
X0260040Y0226929D03*
X0260355Y0227087D03*
X0260513Y0227087D03*
X0260198Y0231496D03*
X0260040Y0231496D03*
X0259725Y0231654D03*
X0269725Y0231969D03*
X0269883Y0231969D03*
X0270040Y0231811D03*
X0270355Y0231654D03*
X0272560Y0231811D03*
X0273347Y0231811D03*
X0279725Y0231654D03*
X0279883Y0231496D03*
X0280040Y0231339D03*
X0280198Y0231339D03*
X0280355Y0233071D03*
X0282560Y0231339D03*
X0282402Y0229291D03*
X0280198Y0227244D03*
X0280040Y0227087D03*
X0279725Y0226929D03*
X0291300Y0232244D03*
X0291143Y0233819D03*
X0319568Y0231551D03*
X0320355Y0231551D03*
X0320040Y0233283D03*
X0322560Y0233283D03*
X0322245Y0231551D03*
X0322245Y0227929D03*
X0322402Y0227929D03*
X0320198Y0226197D03*
X0251457Y0232819D03*
X0251300Y0232819D03*
X0242402Y0094728D03*
X0243190Y0093154D03*
X0241930Y0090634D03*
X0240828Y0091579D03*
X0239410Y0093154D03*
X0249725Y0093154D03*
X0250040Y0092996D03*
X0250198Y0092996D03*
X0250355Y0088587D03*
X0250513Y0088587D03*
X0250040Y0088429D03*
X0249725Y0088272D03*
X0243032Y0088902D03*
X0240985Y0088902D03*
X0240198Y0088902D03*
X0240040Y0088902D03*
X0239883Y0088902D03*
X0239725Y0088902D03*
X0259725Y0088272D03*
X0259883Y0088272D03*
X0260040Y0088272D03*
X0261300Y0088272D03*
X0262875Y0088272D03*
X0262402Y0090004D03*
X0262717Y0091894D03*
X0262875Y0091894D03*
X0262560Y0092051D03*
X0261930Y0092366D03*
X0261615Y0092524D03*
X0261457Y0092524D03*
X0261615Y0094256D03*
X0269568Y0092051D03*
X0270355Y0092051D03*
X0272245Y0092051D03*
X0272245Y0088429D03*
X0272402Y0088429D03*
X0270198Y0086697D03*
X0260198Y0086697D03*
X0289568Y0087614D03*
X0290040Y0093598D03*
X0292560Y0093598D03*
X0300040Y0092209D03*
X0301143Y0092366D03*
X0300198Y0093783D03*
X0301772Y0095673D03*
X0310355Y0089949D03*
X0310828Y0087587D03*
X0311930Y0087744D03*
X0312717Y0087587D03*
X0322087Y0087587D03*
X0322245Y0087587D03*
X0322402Y0090736D03*
X0322560Y0090736D03*
X0323662Y0090894D03*
X0330040Y0090634D03*
X0330828Y0089059D03*
X0331930Y0088114D03*
X0333190Y0086539D03*
X0333347Y0086539D03*
X0329568Y0086539D03*
X0329410Y0086539D03*
X0301615Y0088587D03*
X0301457Y0088587D03*
X0300198Y0088587D03*
X0300040Y0088587D03*
D34*
X0299410Y0092051D03*
X0293190Y0091394D03*
X0293347Y0088717D03*
X0292087Y0088559D03*
X0291930Y0088559D03*
X0291772Y0088559D03*
X0299410Y0084335D03*
X0299568Y0084335D03*
X0299725Y0084335D03*
X0299883Y0084335D03*
X0300040Y0084335D03*
X0300198Y0084335D03*
X0300355Y0084335D03*
X0300513Y0084335D03*
X0300670Y0084335D03*
X0300828Y0084335D03*
X0300985Y0084335D03*
X0301143Y0084335D03*
X0301300Y0084335D03*
X0301457Y0084335D03*
X0301615Y0084335D03*
X0301772Y0084335D03*
X0301930Y0084335D03*
X0302087Y0084335D03*
X0302245Y0084335D03*
X0302402Y0084335D03*
X0302560Y0084335D03*
X0302717Y0084335D03*
X0302875Y0084335D03*
X0303032Y0084335D03*
X0303190Y0084335D03*
X0310355Y0083965D03*
X0310513Y0083965D03*
X0310670Y0083965D03*
X0310828Y0083965D03*
X0310985Y0083965D03*
X0311143Y0083965D03*
X0311300Y0083965D03*
X0311457Y0083965D03*
X0311615Y0083965D03*
X0311772Y0083965D03*
X0311930Y0083965D03*
X0312087Y0083965D03*
X0312245Y0083965D03*
X0312402Y0083965D03*
X0312560Y0083965D03*
X0312717Y0083965D03*
X0312875Y0083965D03*
X0313032Y0083965D03*
X0313190Y0083965D03*
X0313347Y0083965D03*
X0313505Y0083965D03*
X0313662Y0083965D03*
X0320670Y0084122D03*
X0320828Y0084122D03*
X0321772Y0084122D03*
X0322717Y0084122D03*
X0323347Y0084122D03*
X0329410Y0084492D03*
X0333190Y0084492D03*
X0333347Y0084492D03*
X0333347Y0088587D03*
X0333190Y0091264D03*
X0333032Y0091264D03*
X0332875Y0091264D03*
X0332717Y0091264D03*
X0332560Y0091264D03*
X0332402Y0091264D03*
X0332245Y0091264D03*
X0332087Y0091264D03*
X0331930Y0091264D03*
X0331772Y0091264D03*
X0331615Y0091264D03*
X0331457Y0091264D03*
X0331300Y0091264D03*
X0331143Y0091264D03*
X0330985Y0091264D03*
X0330828Y0091264D03*
X0330670Y0091264D03*
X0330513Y0091264D03*
X0330355Y0091264D03*
X0330198Y0091264D03*
X0329410Y0088587D03*
X0320355Y0090264D03*
X0319410Y0097823D03*
X0323347Y0097665D03*
X0309253Y0094358D03*
X0299883Y0095988D03*
X0292875Y0096276D03*
X0291615Y0095173D03*
X0291143Y0095173D03*
X0289725Y0096276D03*
X0281772Y0089323D03*
X0280828Y0089323D03*
X0280828Y0086606D03*
X0281772Y0086606D03*
X0282245Y0086606D03*
X0289410Y0083835D03*
X0289568Y0083835D03*
X0289725Y0083835D03*
X0289883Y0083835D03*
X0290040Y0083835D03*
X0290198Y0083835D03*
X0290355Y0083835D03*
X0290513Y0083835D03*
X0290670Y0083835D03*
X0290828Y0083835D03*
X0290985Y0083835D03*
X0291143Y0083835D03*
X0291300Y0083835D03*
X0291457Y0083835D03*
X0291615Y0083835D03*
X0291772Y0083835D03*
X0291930Y0083835D03*
X0292087Y0083835D03*
X0292245Y0083835D03*
X0292402Y0083835D03*
X0292560Y0083835D03*
X0292717Y0083835D03*
X0292875Y0083835D03*
X0293032Y0083835D03*
X0293190Y0083835D03*
X0272875Y0084335D03*
X0272717Y0084335D03*
X0272402Y0084335D03*
X0272245Y0084335D03*
X0270985Y0084335D03*
X0270828Y0084335D03*
X0270670Y0084335D03*
X0270513Y0084335D03*
X0270355Y0084335D03*
X0270198Y0084335D03*
X0270040Y0084335D03*
X0270828Y0087642D03*
X0273190Y0088587D03*
X0262717Y0084335D03*
X0262560Y0084335D03*
X0262402Y0084335D03*
X0262245Y0084335D03*
X0260828Y0084335D03*
X0260670Y0084335D03*
X0260513Y0084335D03*
X0260355Y0084335D03*
X0260198Y0084335D03*
X0260040Y0084335D03*
X0260828Y0087642D03*
X0252875Y0084492D03*
X0251930Y0084492D03*
X0250513Y0084492D03*
X0250355Y0084492D03*
X0250198Y0084492D03*
X0250040Y0084492D03*
X0249883Y0084492D03*
X0242245Y0084335D03*
X0242087Y0084335D03*
X0241930Y0084335D03*
X0240670Y0084335D03*
X0240513Y0084335D03*
X0240355Y0084335D03*
X0239410Y0091106D03*
X0243347Y0091106D03*
X0250040Y0090791D03*
X0250828Y0093311D03*
X0250828Y0096933D03*
X0250985Y0096933D03*
X0251457Y0096933D03*
X0251615Y0096933D03*
X0252875Y0096933D03*
X0250040Y0096933D03*
X0249883Y0096933D03*
X0242245Y0097720D03*
X0242087Y0097720D03*
X0240513Y0097720D03*
X0240355Y0097720D03*
X0262875Y0094256D03*
X0350828Y0130469D03*
X0347745Y0138689D03*
X0348328Y0158606D03*
X0349272Y0158606D03*
X0349745Y0158606D03*
X0349272Y0161323D03*
X0348328Y0161323D03*
X0334745Y0167205D03*
X0269568Y0222677D03*
X0262875Y0222992D03*
X0261930Y0222992D03*
X0260513Y0222992D03*
X0260355Y0222992D03*
X0260198Y0222992D03*
X0260040Y0222992D03*
X0259883Y0222992D03*
X0252402Y0226992D03*
X0250670Y0226992D03*
X0250513Y0226992D03*
X0250355Y0226992D03*
X0250198Y0226992D03*
X0250040Y0226992D03*
X0249883Y0226992D03*
X0249725Y0226992D03*
X0252717Y0231244D03*
X0250040Y0232819D03*
X0249883Y0232819D03*
X0250198Y0235654D03*
X0250355Y0235654D03*
X0249410Y0235654D03*
X0242245Y0235720D03*
X0242087Y0235720D03*
X0240513Y0235720D03*
X0240355Y0235720D03*
X0239410Y0229106D03*
X0243347Y0229106D03*
X0242245Y0222335D03*
X0242087Y0222335D03*
X0241930Y0222335D03*
X0240670Y0222335D03*
X0240513Y0222335D03*
X0240355Y0222335D03*
X0260040Y0229291D03*
X0260828Y0231811D03*
X0269568Y0229764D03*
X0272560Y0226929D03*
X0272717Y0226929D03*
X0273190Y0226929D03*
X0279568Y0229291D03*
X0279253Y0231811D03*
X0283032Y0229291D03*
X0289410Y0228307D03*
X0290670Y0235709D03*
X0290828Y0235709D03*
X0290985Y0235709D03*
X0291930Y0235709D03*
X0293347Y0235709D03*
X0281300Y0235433D03*
X0281143Y0235433D03*
X0280985Y0235433D03*
X0280513Y0235433D03*
X0280355Y0235433D03*
X0280198Y0235433D03*
X0273347Y0235906D03*
X0271300Y0235906D03*
X0271143Y0235906D03*
X0270985Y0235906D03*
X0270828Y0235906D03*
X0270670Y0235906D03*
X0270513Y0235906D03*
X0270355Y0235906D03*
X0270198Y0235906D03*
X0262875Y0235433D03*
X0261615Y0235433D03*
X0261457Y0235433D03*
X0260985Y0235433D03*
X0260828Y0235433D03*
X0260040Y0235433D03*
X0259883Y0235433D03*
X0319568Y0235961D03*
X0319725Y0235961D03*
X0319883Y0235961D03*
X0320040Y0235961D03*
X0322717Y0235961D03*
X0322875Y0235961D03*
X0323032Y0235961D03*
X0323190Y0235961D03*
X0323190Y0228087D03*
X0320828Y0227142D03*
D35*
X0319568Y0228165D03*
X0293190Y0235787D03*
X0293032Y0235787D03*
X0292245Y0235787D03*
X0292087Y0235787D03*
X0289568Y0235787D03*
X0288780Y0235787D03*
X0283347Y0235512D03*
X0283190Y0235512D03*
X0282560Y0235512D03*
X0280828Y0235512D03*
X0280670Y0235512D03*
X0273190Y0235984D03*
X0273032Y0235984D03*
X0272875Y0235984D03*
X0272717Y0235984D03*
X0272560Y0235984D03*
X0269253Y0232205D03*
X0271930Y0231732D03*
X0273032Y0229685D03*
X0273032Y0226850D03*
X0272875Y0226850D03*
X0281930Y0231417D03*
X0289253Y0228386D03*
X0269725Y0222756D03*
X0262717Y0222913D03*
X0262560Y0222913D03*
X0262402Y0222913D03*
X0262245Y0222913D03*
X0262087Y0222913D03*
X0262560Y0227638D03*
X0262717Y0227638D03*
X0260198Y0229213D03*
X0262560Y0230787D03*
X0262717Y0230787D03*
X0252560Y0231165D03*
X0250198Y0232898D03*
X0250040Y0235732D03*
X0249883Y0235732D03*
X0249568Y0235732D03*
X0241930Y0235799D03*
X0241772Y0235799D03*
X0241615Y0235799D03*
X0241457Y0235799D03*
X0241300Y0235799D03*
X0241143Y0235799D03*
X0240985Y0235799D03*
X0240828Y0235799D03*
X0240670Y0235799D03*
X0243190Y0229028D03*
X0250828Y0226913D03*
X0250985Y0226913D03*
X0251143Y0226913D03*
X0251300Y0226913D03*
X0251457Y0226913D03*
X0251615Y0226913D03*
X0252560Y0226913D03*
X0252875Y0226913D03*
X0253032Y0226913D03*
X0241772Y0222256D03*
X0241615Y0222256D03*
X0241457Y0222256D03*
X0241300Y0222256D03*
X0241143Y0222256D03*
X0240985Y0222256D03*
X0240828Y0222256D03*
X0260198Y0235512D03*
X0260355Y0235512D03*
X0260513Y0235512D03*
X0260670Y0235512D03*
X0261772Y0235512D03*
X0261930Y0235512D03*
X0262087Y0235512D03*
X0262245Y0235512D03*
X0262402Y0235512D03*
X0262560Y0235512D03*
X0262717Y0235512D03*
X0252717Y0097012D03*
X0252560Y0097012D03*
X0252402Y0097012D03*
X0252245Y0097012D03*
X0252087Y0097012D03*
X0251930Y0097012D03*
X0251772Y0097012D03*
X0250670Y0097012D03*
X0250513Y0097012D03*
X0250355Y0097012D03*
X0250198Y0097012D03*
X0241930Y0097799D03*
X0241772Y0097799D03*
X0241615Y0097799D03*
X0241457Y0097799D03*
X0241300Y0097799D03*
X0241143Y0097799D03*
X0240985Y0097799D03*
X0240828Y0097799D03*
X0240670Y0097799D03*
X0243190Y0091028D03*
X0250198Y0090713D03*
X0252560Y0092287D03*
X0252717Y0092287D03*
X0252717Y0089138D03*
X0252560Y0089138D03*
X0252560Y0084413D03*
X0252717Y0084413D03*
X0252402Y0084413D03*
X0252245Y0084413D03*
X0252087Y0084413D03*
X0241772Y0084256D03*
X0241615Y0084256D03*
X0241457Y0084256D03*
X0241300Y0084256D03*
X0241143Y0084256D03*
X0240985Y0084256D03*
X0240828Y0084256D03*
X0260040Y0092602D03*
X0261143Y0090398D03*
X0261300Y0090398D03*
X0261457Y0090398D03*
X0263347Y0091500D03*
X0262717Y0094177D03*
X0269568Y0088665D03*
X0272560Y0084256D03*
X0290198Y0088638D03*
X0291457Y0088638D03*
X0291615Y0088638D03*
X0292245Y0088638D03*
X0292402Y0088638D03*
X0292560Y0088638D03*
X0292560Y0091315D03*
X0292717Y0091315D03*
X0292875Y0091315D03*
X0293032Y0091315D03*
X0292402Y0091315D03*
X0292245Y0091315D03*
X0292087Y0091315D03*
X0291930Y0091315D03*
X0291772Y0091315D03*
X0291615Y0091315D03*
X0291457Y0091315D03*
X0291300Y0091315D03*
X0291143Y0091315D03*
X0290985Y0091315D03*
X0290828Y0091315D03*
X0290670Y0091315D03*
X0290513Y0091315D03*
X0290355Y0091315D03*
X0290198Y0091315D03*
X0290985Y0095252D03*
X0291772Y0095252D03*
X0291930Y0095409D03*
X0292087Y0095567D03*
X0292245Y0095724D03*
X0292402Y0095882D03*
X0292560Y0096039D03*
X0292717Y0096197D03*
X0289883Y0096197D03*
X0300040Y0095909D03*
X0300198Y0095752D03*
X0300355Y0095594D03*
X0302717Y0096067D03*
X0309095Y0094280D03*
X0311772Y0090500D03*
X0310355Y0087508D03*
X0302245Y0088035D03*
X0302245Y0091657D03*
X0319253Y0097744D03*
X0323505Y0097587D03*
X0329410Y0095437D03*
X0330040Y0095437D03*
X0323505Y0089083D03*
X0323347Y0089083D03*
X0320513Y0087823D03*
X0329568Y0084413D03*
X0329725Y0084413D03*
X0329883Y0084413D03*
X0330040Y0084413D03*
X0330198Y0084413D03*
X0330355Y0084413D03*
X0330513Y0084413D03*
X0330670Y0084413D03*
X0330828Y0084413D03*
X0330985Y0084413D03*
X0331143Y0084413D03*
X0331300Y0084413D03*
X0331457Y0084413D03*
X0331615Y0084413D03*
X0331772Y0084413D03*
X0331930Y0084413D03*
X0332087Y0084413D03*
X0332245Y0084413D03*
X0332402Y0084413D03*
X0332560Y0084413D03*
X0332717Y0084413D03*
X0332875Y0084413D03*
X0333032Y0084413D03*
X0323190Y0084043D03*
X0323032Y0084043D03*
X0322875Y0084043D03*
X0321615Y0084043D03*
X0321457Y0084043D03*
X0321300Y0084043D03*
X0321143Y0084043D03*
X0320985Y0084043D03*
X0319568Y0084043D03*
X0318780Y0084043D03*
X0309568Y0083886D03*
X0308780Y0083886D03*
D36*
X0308938Y0083807D03*
X0309095Y0083807D03*
X0309253Y0083807D03*
X0309410Y0083807D03*
X0318938Y0083965D03*
X0319095Y0083965D03*
X0319253Y0083965D03*
X0319410Y0083965D03*
X0320670Y0087902D03*
X0320670Y0090264D03*
X0320513Y0090264D03*
X0313505Y0090579D03*
X0311143Y0090579D03*
X0308780Y0094043D03*
X0308938Y0094201D03*
X0302560Y0095988D03*
X0300985Y0095201D03*
X0301615Y0092524D03*
X0293190Y0088717D03*
X0293032Y0088717D03*
X0292875Y0088717D03*
X0292717Y0088717D03*
X0291300Y0088717D03*
X0291143Y0088717D03*
X0290985Y0088717D03*
X0290828Y0088717D03*
X0290670Y0088717D03*
X0290513Y0088717D03*
X0290355Y0088717D03*
X0293347Y0086354D03*
X0290828Y0095331D03*
X0290670Y0095488D03*
X0290513Y0095646D03*
X0290355Y0095803D03*
X0290198Y0095961D03*
X0290040Y0096118D03*
X0273032Y0088587D03*
X0270513Y0090634D03*
X0261930Y0090319D03*
X0261772Y0090319D03*
X0261615Y0090319D03*
X0260985Y0090319D03*
X0260828Y0090319D03*
X0260355Y0092681D03*
X0260198Y0092681D03*
X0262560Y0094256D03*
X0252402Y0092366D03*
X0252245Y0092366D03*
X0251930Y0092524D03*
X0250355Y0090791D03*
X0251300Y0088587D03*
X0252245Y0089059D03*
X0252402Y0089059D03*
X0241930Y0087012D03*
X0241772Y0087012D03*
X0239568Y0091106D03*
X0240985Y0095201D03*
X0241143Y0095201D03*
X0241300Y0095201D03*
X0241457Y0095201D03*
X0241615Y0095201D03*
X0318780Y0097350D03*
X0319095Y0097665D03*
X0323662Y0097508D03*
X0329568Y0095516D03*
X0329725Y0095516D03*
X0329883Y0095516D03*
X0329568Y0088587D03*
X0333190Y0088587D03*
X0269883Y0222835D03*
X0270040Y0222992D03*
X0262402Y0227559D03*
X0262245Y0227559D03*
X0261300Y0227087D03*
X0260355Y0229291D03*
X0261930Y0231024D03*
X0262245Y0230866D03*
X0262402Y0230866D03*
X0269725Y0229764D03*
X0271143Y0231339D03*
X0272875Y0229764D03*
X0279725Y0229291D03*
X0281143Y0227717D03*
X0281300Y0227717D03*
X0281457Y0227717D03*
X0281615Y0227559D03*
X0281772Y0227402D03*
X0282875Y0229291D03*
X0281143Y0230866D03*
X0289095Y0228465D03*
X0290355Y0232402D03*
X0293662Y0232402D03*
X0292875Y0235866D03*
X0292717Y0235866D03*
X0292560Y0235866D03*
X0292402Y0235866D03*
X0289410Y0235866D03*
X0289253Y0235866D03*
X0289095Y0235866D03*
X0288938Y0235866D03*
X0283032Y0235591D03*
X0282875Y0235591D03*
X0282717Y0235591D03*
X0252402Y0231244D03*
X0250828Y0230457D03*
X0250355Y0232819D03*
X0249725Y0235811D03*
X0241615Y0233201D03*
X0241457Y0233201D03*
X0241300Y0233201D03*
X0241143Y0233201D03*
X0240985Y0233201D03*
X0239568Y0229106D03*
X0241772Y0225012D03*
X0241930Y0225012D03*
X0252717Y0226835D03*
X0320513Y0230134D03*
X0323032Y0228087D03*
D37*
X0322402Y0226197D03*
X0320355Y0226197D03*
X0320198Y0227772D03*
X0323190Y0231551D03*
X0323032Y0233441D03*
X0322875Y0233441D03*
X0319725Y0233441D03*
X0310198Y0231575D03*
X0309646Y0228819D03*
X0310473Y0225236D03*
X0311300Y0222756D03*
X0310198Y0218622D03*
X0300198Y0218571D03*
X0300473Y0225185D03*
X0299922Y0227665D03*
X0302678Y0230972D03*
X0302127Y0232626D03*
X0292717Y0233661D03*
X0290513Y0232402D03*
X0282560Y0229291D03*
X0282245Y0227244D03*
X0280670Y0227559D03*
X0280040Y0229291D03*
X0280670Y0231024D03*
X0279568Y0231654D03*
X0280513Y0233071D03*
X0280670Y0233071D03*
X0280828Y0233071D03*
X0281143Y0232913D03*
X0272560Y0229764D03*
X0270670Y0231496D03*
X0270985Y0233386D03*
X0271143Y0233386D03*
X0270513Y0233543D03*
X0260828Y0227087D03*
X0251143Y0232819D03*
X0250985Y0232819D03*
X0240355Y0232886D03*
X0240355Y0229421D03*
X0240513Y0229421D03*
X0242402Y0228791D03*
X0243190Y0226902D03*
X0241615Y0224539D03*
X0241457Y0224539D03*
X0241300Y0224539D03*
X0241143Y0224539D03*
X0280355Y0225354D03*
X0282402Y0225354D03*
X0282560Y0225354D03*
X0325828Y0169366D03*
X0327717Y0169366D03*
X0333328Y0166732D03*
X0333328Y0164016D03*
X0326772Y0163815D03*
X0325828Y0162516D03*
X0324883Y0163461D03*
X0340828Y0163516D03*
X0342717Y0163516D03*
X0347855Y0163803D03*
X0342717Y0169067D03*
X0347745Y0134673D03*
X0346800Y0132075D03*
X0351300Y0128343D03*
X0346800Y0124280D03*
X0302087Y0095831D03*
X0301300Y0095516D03*
X0300355Y0090319D03*
X0299725Y0088429D03*
X0300355Y0086697D03*
X0301930Y0088429D03*
X0311300Y0086169D03*
X0311457Y0086169D03*
X0311615Y0086169D03*
X0311772Y0086169D03*
X0313190Y0086169D03*
X0313347Y0086169D03*
X0312717Y0088846D03*
X0321772Y0090579D03*
X0321930Y0090579D03*
X0321930Y0087587D03*
X0322717Y0086012D03*
X0323662Y0087114D03*
X0330355Y0088902D03*
X0332245Y0088272D03*
X0332402Y0088272D03*
X0322402Y0093571D03*
X0321615Y0093571D03*
X0293032Y0093756D03*
X0292875Y0093756D03*
X0289725Y0093756D03*
X0280355Y0091803D03*
X0273190Y0092051D03*
X0270198Y0088272D03*
X0270355Y0086697D03*
X0272402Y0086697D03*
X0263190Y0088114D03*
X0262402Y0086697D03*
X0260355Y0086697D03*
X0260355Y0088114D03*
X0260355Y0090004D03*
X0260828Y0092681D03*
X0260985Y0092681D03*
X0263032Y0091736D03*
X0250828Y0088587D03*
X0243190Y0088902D03*
X0242402Y0090791D03*
X0240513Y0091421D03*
X0240355Y0091421D03*
X0240355Y0094886D03*
X0241143Y0086539D03*
X0241300Y0086539D03*
X0241457Y0086539D03*
X0241615Y0086539D03*
X0281300Y0098654D03*
X0290355Y0086197D03*
X0292402Y0086197D03*
D38*
X0311615Y0090185D03*
X0309568Y0094437D03*
X0299568Y0096067D03*
X0289410Y0096354D03*
X0270513Y0087406D03*
X0269410Y0088665D03*
X0269410Y0084571D03*
X0271457Y0084571D03*
X0273190Y0084571D03*
X0263190Y0084571D03*
X0261457Y0084571D03*
X0260513Y0087406D03*
X0263347Y0094177D03*
X0251615Y0093075D03*
X0249568Y0090713D03*
X0249410Y0090713D03*
X0249410Y0096697D03*
X0242875Y0097484D03*
X0239883Y0097484D03*
X0242875Y0084571D03*
X0249410Y0084728D03*
X0319568Y0097744D03*
X0323662Y0093020D03*
X0321457Y0087035D03*
X0320355Y0084358D03*
X0323662Y0084358D03*
X0347745Y0147783D03*
X0348217Y0147783D03*
X0347855Y0171835D03*
X0349745Y0171835D03*
X0339883Y0171311D03*
X0282875Y0222598D03*
X0279725Y0222598D03*
X0272087Y0223858D03*
X0270513Y0223858D03*
X0270513Y0227165D03*
X0272087Y0227165D03*
X0273347Y0229685D03*
X0261615Y0231575D03*
X0259568Y0229213D03*
X0259410Y0229213D03*
X0253190Y0231165D03*
X0251300Y0235417D03*
X0251143Y0235417D03*
X0242875Y0235484D03*
X0239883Y0235484D03*
X0259410Y0235197D03*
X0269568Y0235669D03*
X0271930Y0235669D03*
X0279568Y0235197D03*
X0281930Y0235197D03*
X0283347Y0229213D03*
X0293032Y0228386D03*
X0293190Y0228543D03*
X0293347Y0228701D03*
X0299646Y0225185D03*
X0309646Y0225236D03*
X0312954Y0225236D03*
X0319410Y0228165D03*
X0320513Y0226906D03*
X0320513Y0235724D03*
X0322245Y0235724D03*
X0293662Y0235472D03*
X0259410Y0223228D03*
X0242875Y0222571D03*
D39*
X0242245Y0225169D03*
X0243347Y0226744D03*
X0242875Y0228949D03*
X0242717Y0228949D03*
X0240040Y0229264D03*
X0239410Y0226744D03*
X0251143Y0230772D03*
X0251300Y0230772D03*
X0251457Y0230929D03*
X0251615Y0230929D03*
X0251772Y0231087D03*
X0251930Y0231087D03*
X0250828Y0232819D03*
X0250670Y0232819D03*
X0242087Y0233043D03*
X0240670Y0233043D03*
X0260670Y0231496D03*
X0261930Y0233071D03*
X0260670Y0229291D03*
X0261772Y0227402D03*
X0261457Y0227244D03*
X0261143Y0227087D03*
X0261930Y0225197D03*
X0270985Y0231339D03*
X0269410Y0232126D03*
X0272717Y0229764D03*
X0279410Y0231654D03*
X0280985Y0230866D03*
X0282087Y0231339D03*
X0282717Y0229291D03*
X0280985Y0227717D03*
X0279410Y0226772D03*
X0279883Y0229291D03*
X0288780Y0228622D03*
X0291300Y0231142D03*
X0302127Y0229319D03*
X0312127Y0233504D03*
X0319568Y0233441D03*
X0323190Y0233441D03*
X0323347Y0231394D03*
X0319725Y0228087D03*
X0322087Y0226039D03*
X0312678Y0218622D03*
X0302954Y0215264D03*
X0301851Y0216917D03*
X0301024Y0217193D03*
X0301576Y0222705D03*
X0302402Y0095988D03*
X0293190Y0093756D03*
X0289568Y0093756D03*
X0300670Y0090476D03*
X0300828Y0090476D03*
X0302087Y0088272D03*
X0300985Y0086854D03*
X0300828Y0086854D03*
X0300670Y0086854D03*
X0300513Y0086854D03*
X0293190Y0086354D03*
X0293032Y0086354D03*
X0292875Y0086354D03*
X0290985Y0086354D03*
X0290828Y0086354D03*
X0290670Y0086354D03*
X0290513Y0086354D03*
X0312245Y0087902D03*
X0313662Y0086169D03*
X0321772Y0087429D03*
X0321300Y0090421D03*
X0321143Y0090421D03*
X0313190Y0090736D03*
X0313032Y0090736D03*
X0312875Y0090736D03*
X0312717Y0090736D03*
X0312560Y0090736D03*
X0312402Y0090736D03*
X0312245Y0090736D03*
X0312087Y0090736D03*
X0329883Y0088744D03*
X0330040Y0088744D03*
X0332717Y0088429D03*
X0273347Y0091894D03*
X0269725Y0088587D03*
X0272087Y0086539D03*
X0262087Y0086539D03*
X0260985Y0087957D03*
X0260513Y0090161D03*
X0262245Y0090161D03*
X0260670Y0092681D03*
X0260513Y0092681D03*
X0251930Y0094571D03*
X0250670Y0092996D03*
X0250670Y0090791D03*
X0251772Y0088902D03*
X0251457Y0088744D03*
X0251143Y0088587D03*
X0251930Y0086697D03*
X0243347Y0088744D03*
X0242245Y0087169D03*
X0239410Y0088744D03*
X0240040Y0091264D03*
X0242717Y0090949D03*
X0242875Y0090949D03*
X0242087Y0095043D03*
X0240670Y0095043D03*
D40*
X0240828Y0095122D03*
X0241772Y0095122D03*
X0241930Y0095122D03*
X0243032Y0091028D03*
X0239883Y0091185D03*
X0239725Y0091185D03*
X0242087Y0087091D03*
X0250513Y0090713D03*
X0251615Y0088823D03*
X0251930Y0088980D03*
X0252087Y0088980D03*
X0252087Y0092445D03*
X0260670Y0090240D03*
X0262087Y0090240D03*
X0263347Y0088035D03*
X0272245Y0090555D03*
X0279883Y0091685D03*
X0289410Y0093835D03*
X0293347Y0093835D03*
X0299568Y0092130D03*
X0302087Y0091972D03*
X0302087Y0093705D03*
X0310985Y0090657D03*
X0311930Y0090657D03*
X0313347Y0090657D03*
X0320828Y0090343D03*
X0320985Y0090343D03*
X0323032Y0089083D03*
X0323190Y0089083D03*
X0321143Y0087665D03*
X0320985Y0087823D03*
X0320828Y0087823D03*
X0329725Y0088665D03*
X0332875Y0088508D03*
X0333032Y0088508D03*
X0318938Y0097587D03*
X0299410Y0088193D03*
X0282717Y0084244D03*
X0282245Y0084244D03*
X0281772Y0084244D03*
X0281300Y0084244D03*
X0280828Y0084244D03*
X0280355Y0084244D03*
X0279883Y0084244D03*
X0347272Y0147783D03*
X0347383Y0163685D03*
X0341772Y0165169D03*
X0342717Y0167295D03*
X0332383Y0167913D03*
X0283347Y0225433D03*
X0283190Y0225433D03*
X0281930Y0227323D03*
X0288938Y0228543D03*
X0292717Y0231063D03*
X0272087Y0231732D03*
X0269883Y0229685D03*
X0262087Y0230945D03*
X0260513Y0229213D03*
X0261615Y0227323D03*
X0261930Y0227480D03*
X0262087Y0227480D03*
X0252245Y0231165D03*
X0252087Y0231165D03*
X0250985Y0230535D03*
X0250513Y0232898D03*
X0241930Y0233122D03*
X0241772Y0233122D03*
X0240828Y0233122D03*
X0239883Y0229185D03*
X0239725Y0229185D03*
X0243032Y0229028D03*
X0242087Y0225091D03*
X0319410Y0233520D03*
X0323347Y0233520D03*
X0322245Y0230055D03*
D41*
X0321615Y0223441D03*
X0261143Y0097484D03*
X0260985Y0097484D03*
X0312087Y0094280D03*
X0312245Y0094280D03*
D42*
X0310828Y0090106D03*
X0310513Y0089949D03*
X0310985Y0087587D03*
X0311143Y0087587D03*
X0311300Y0087587D03*
X0311457Y0087587D03*
X0311615Y0087587D03*
X0312875Y0087587D03*
X0313032Y0087587D03*
X0313190Y0087587D03*
X0313347Y0087744D03*
X0322717Y0087429D03*
X0322875Y0087429D03*
X0323347Y0087272D03*
X0323347Y0090894D03*
X0323190Y0090894D03*
X0323032Y0090894D03*
X0323505Y0090894D03*
X0320985Y0093886D03*
X0320828Y0093886D03*
X0320670Y0093886D03*
X0320513Y0093886D03*
X0331143Y0089217D03*
X0331300Y0089217D03*
X0331457Y0087957D03*
X0300670Y0092209D03*
X0300513Y0092209D03*
X0292245Y0093441D03*
X0290513Y0093441D03*
X0289883Y0092024D03*
X0289725Y0092024D03*
X0289568Y0092024D03*
X0290040Y0087929D03*
X0289883Y0087772D03*
X0272875Y0092209D03*
X0272717Y0092209D03*
X0270040Y0092209D03*
X0269883Y0092209D03*
X0271615Y0088272D03*
X0262087Y0088429D03*
X0261300Y0094256D03*
X0261143Y0094256D03*
X0250198Y0094728D03*
X0241300Y0091736D03*
X0241457Y0090476D03*
X0241615Y0090476D03*
X0250198Y0086854D03*
X0260198Y0225354D03*
X0272717Y0231811D03*
X0272875Y0231811D03*
X0273032Y0231811D03*
X0273190Y0231811D03*
X0280513Y0229291D03*
X0282245Y0229291D03*
X0282717Y0231339D03*
X0283032Y0231339D03*
X0283190Y0227244D03*
X0290985Y0232402D03*
X0293032Y0232402D03*
X0293190Y0232402D03*
X0319883Y0231709D03*
X0320040Y0231709D03*
X0320513Y0233126D03*
X0322245Y0233126D03*
X0322717Y0231709D03*
X0322875Y0231709D03*
X0321615Y0227772D03*
X0260198Y0233228D03*
X0251772Y0232819D03*
X0251615Y0232819D03*
X0241300Y0229736D03*
X0241457Y0228476D03*
X0241615Y0228476D03*
D43*
X0290355Y0228465D03*
X0261457Y0097563D03*
X0261300Y0097563D03*
X0312402Y0094201D03*
X0322875Y0097035D03*
D44*
X0320355Y0093965D03*
X0322717Y0090815D03*
X0322875Y0090815D03*
X0322245Y0089083D03*
X0322087Y0089083D03*
X0322402Y0087508D03*
X0322560Y0087508D03*
X0323505Y0087193D03*
X0329725Y0086618D03*
X0329883Y0086618D03*
X0330040Y0086618D03*
X0330198Y0086618D03*
X0330355Y0086618D03*
X0330513Y0086618D03*
X0330670Y0086618D03*
X0330828Y0086618D03*
X0330985Y0086618D03*
X0331143Y0086618D03*
X0331300Y0086618D03*
X0331457Y0086618D03*
X0331615Y0086618D03*
X0331772Y0086618D03*
X0331930Y0086618D03*
X0332087Y0086618D03*
X0332245Y0086618D03*
X0332402Y0086618D03*
X0332560Y0086618D03*
X0332717Y0086618D03*
X0332875Y0086618D03*
X0333032Y0086618D03*
X0331772Y0088035D03*
X0331615Y0088035D03*
X0330985Y0089138D03*
X0329883Y0090555D03*
X0329725Y0090555D03*
X0329568Y0090555D03*
X0329410Y0090555D03*
X0313505Y0087823D03*
X0311772Y0087665D03*
X0301300Y0088665D03*
X0301143Y0088665D03*
X0300985Y0088665D03*
X0300828Y0088665D03*
X0300670Y0088665D03*
X0300513Y0088665D03*
X0300355Y0088665D03*
X0300355Y0092130D03*
X0300198Y0092130D03*
X0300828Y0092287D03*
X0300985Y0092287D03*
X0292402Y0093520D03*
X0290355Y0093520D03*
X0290198Y0093520D03*
X0290040Y0091945D03*
X0289410Y0092102D03*
X0289725Y0087693D03*
X0281772Y0091331D03*
X0279883Y0090150D03*
X0273032Y0092130D03*
X0272560Y0092130D03*
X0272402Y0092130D03*
X0270198Y0092130D03*
X0269725Y0092130D03*
X0271300Y0088193D03*
X0271457Y0088193D03*
X0271772Y0088350D03*
X0271930Y0088350D03*
X0272087Y0088350D03*
X0262717Y0088350D03*
X0262560Y0088350D03*
X0262402Y0088350D03*
X0262245Y0088350D03*
X0261930Y0088350D03*
X0261772Y0088350D03*
X0261615Y0088350D03*
X0261457Y0088350D03*
X0262402Y0092130D03*
X0262245Y0092287D03*
X0262087Y0092287D03*
X0261772Y0092445D03*
X0261457Y0094177D03*
X0251615Y0090713D03*
X0251457Y0090713D03*
X0250198Y0088508D03*
X0249883Y0088350D03*
X0242875Y0088980D03*
X0242717Y0088980D03*
X0242560Y0088980D03*
X0242402Y0088980D03*
X0242245Y0088980D03*
X0242087Y0088980D03*
X0241930Y0088980D03*
X0241772Y0088980D03*
X0241615Y0088980D03*
X0241457Y0088980D03*
X0241300Y0088980D03*
X0241143Y0088980D03*
X0241772Y0090555D03*
X0241143Y0091657D03*
X0240985Y0091657D03*
X0240985Y0093075D03*
X0240828Y0093075D03*
X0240670Y0093075D03*
X0240513Y0093075D03*
X0240355Y0093075D03*
X0240198Y0093075D03*
X0240040Y0093075D03*
X0239883Y0093075D03*
X0239725Y0093075D03*
X0239568Y0093075D03*
X0241143Y0093075D03*
X0241300Y0093075D03*
X0241457Y0093075D03*
X0241615Y0093075D03*
X0241772Y0093075D03*
X0241930Y0093075D03*
X0242087Y0093075D03*
X0242245Y0093075D03*
X0242402Y0093075D03*
X0242560Y0093075D03*
X0242717Y0093075D03*
X0242875Y0093075D03*
X0243032Y0093075D03*
X0249883Y0093075D03*
X0352245Y0135665D03*
X0347383Y0162150D03*
X0349272Y0163331D03*
X0342245Y0168949D03*
X0340355Y0168949D03*
X0332855Y0168031D03*
X0332855Y0165315D03*
X0326772Y0165823D03*
X0325828Y0166650D03*
X0324883Y0167949D03*
X0325828Y0164996D03*
X0326300Y0163933D03*
X0321457Y0227693D03*
X0321300Y0227693D03*
X0321772Y0227850D03*
X0321930Y0227850D03*
X0322087Y0227850D03*
X0322402Y0231630D03*
X0322560Y0231630D03*
X0323032Y0231630D03*
X0322402Y0233205D03*
X0320355Y0233205D03*
X0320198Y0233205D03*
X0320198Y0231630D03*
X0319725Y0231630D03*
X0293347Y0232480D03*
X0292875Y0232323D03*
X0291143Y0232323D03*
X0290828Y0232480D03*
X0290670Y0232480D03*
X0283190Y0231417D03*
X0280355Y0229213D03*
X0279883Y0227008D03*
X0282560Y0227165D03*
X0282717Y0227165D03*
X0272245Y0229685D03*
X0270355Y0229685D03*
X0270040Y0227638D03*
X0269410Y0227638D03*
X0261615Y0229213D03*
X0261457Y0229213D03*
X0260198Y0227008D03*
X0259883Y0226850D03*
X0259883Y0231575D03*
X0250040Y0230535D03*
X0249883Y0230535D03*
X0249725Y0230535D03*
X0249568Y0230535D03*
X0243032Y0231075D03*
X0242875Y0231075D03*
X0242717Y0231075D03*
X0242560Y0231075D03*
X0242402Y0231075D03*
X0242245Y0231075D03*
X0242087Y0231075D03*
X0241930Y0231075D03*
X0241772Y0231075D03*
X0241615Y0231075D03*
X0241457Y0231075D03*
X0241300Y0231075D03*
X0241143Y0231075D03*
X0240985Y0231075D03*
X0240828Y0231075D03*
X0240670Y0231075D03*
X0240513Y0231075D03*
X0240355Y0231075D03*
X0240198Y0231075D03*
X0240040Y0231075D03*
X0239883Y0231075D03*
X0239725Y0231075D03*
X0239568Y0231075D03*
X0240985Y0229657D03*
X0241143Y0229657D03*
X0241772Y0228555D03*
X0241772Y0226980D03*
X0241615Y0226980D03*
X0241457Y0226980D03*
X0241300Y0226980D03*
X0241143Y0226980D03*
X0241930Y0226980D03*
X0242087Y0226980D03*
X0242245Y0226980D03*
X0242402Y0226980D03*
X0242560Y0226980D03*
X0242717Y0226980D03*
X0242875Y0226980D03*
D45*
X0319253Y0232417D03*
X0321457Y0223283D03*
X0321615Y0098059D03*
X0312560Y0094122D03*
X0261772Y0097642D03*
X0261615Y0097642D03*
D46*
X0262560Y0097799D03*
X0269253Y0088665D03*
X0271772Y0085043D03*
X0261772Y0085043D03*
X0239253Y0085043D03*
X0243347Y0097012D03*
X0299253Y0095909D03*
X0310828Y0095067D03*
X0313190Y0093807D03*
X0320828Y0098374D03*
X0320985Y0098374D03*
X0333347Y0094650D03*
X0322560Y0084831D03*
X0322402Y0223126D03*
X0322245Y0223126D03*
X0320355Y0223126D03*
X0320198Y0223126D03*
X0320040Y0223126D03*
X0319883Y0223283D03*
X0319725Y0223283D03*
X0319568Y0223441D03*
X0319253Y0228165D03*
X0291615Y0227756D03*
X0291457Y0227756D03*
X0291300Y0227756D03*
X0281300Y0231575D03*
X0271300Y0232047D03*
X0253190Y0234945D03*
X0253032Y0234945D03*
X0243347Y0235012D03*
X0251930Y0227701D03*
X0239253Y0223043D03*
X0273032Y0223386D03*
X0280828Y0222126D03*
X0280985Y0222126D03*
X0281143Y0222126D03*
X0281300Y0222126D03*
X0281457Y0222126D03*
X0281615Y0222126D03*
X0281772Y0222126D03*
X0291300Y0235000D03*
D47*
X0292560Y0232244D03*
X0292402Y0232087D03*
X0290513Y0228307D03*
X0273347Y0223307D03*
X0319253Y0223835D03*
X0321300Y0223205D03*
X0321772Y0098138D03*
X0312717Y0094043D03*
X0262087Y0097720D03*
X0261930Y0097720D03*
X0261930Y0085280D03*
D48*
X0251772Y0085280D03*
X0262245Y0097720D03*
X0262402Y0097720D03*
X0303347Y0091421D03*
X0313032Y0093886D03*
X0322087Y0097980D03*
X0322245Y0097980D03*
X0322402Y0097823D03*
X0320985Y0223047D03*
X0320828Y0223047D03*
X0320670Y0223047D03*
X0320513Y0223047D03*
X0319410Y0223520D03*
X0323190Y0223520D03*
X0323347Y0223677D03*
X0291143Y0227835D03*
X0290985Y0227835D03*
X0273190Y0223307D03*
X0261772Y0223780D03*
X0252087Y0227780D03*
X0253347Y0234866D03*
D49*
X0252560Y0235102D03*
X0252402Y0235102D03*
X0261772Y0231890D03*
X0263347Y0230945D03*
X0263347Y0227480D03*
X0271300Y0227480D03*
X0271457Y0227480D03*
X0272717Y0223543D03*
X0280355Y0222283D03*
X0280513Y0222283D03*
X0282087Y0222283D03*
X0282245Y0222283D03*
X0291930Y0227756D03*
X0292087Y0231535D03*
X0282402Y0234882D03*
X0279253Y0234882D03*
X0281457Y0231575D03*
X0269253Y0235354D03*
X0239410Y0235169D03*
X0240670Y0225720D03*
X0240828Y0225720D03*
X0239410Y0222886D03*
X0321143Y0235409D03*
X0321615Y0235409D03*
X0320513Y0098217D03*
X0320355Y0098217D03*
X0313505Y0093650D03*
X0310513Y0094909D03*
X0310355Y0094909D03*
X0303190Y0091343D03*
X0303347Y0087563D03*
X0300513Y0094807D03*
X0272875Y0096854D03*
X0272717Y0096854D03*
X0263347Y0097484D03*
X0262875Y0097799D03*
X0251772Y0093390D03*
X0253347Y0092445D03*
X0253347Y0088980D03*
X0240828Y0087720D03*
X0240670Y0087720D03*
X0239410Y0084886D03*
X0239410Y0097169D03*
D50*
X0268150Y0089846D03*
X0274450Y0089846D03*
X0309883Y0089476D03*
D51*
X0274292Y0090083D03*
X0268308Y0090083D03*
X0278308Y0229685D03*
X0284292Y0229685D03*
D52*
X0284135Y0229528D03*
X0278465Y0229528D03*
X0318308Y0230055D03*
X0324292Y0230055D03*
X0274135Y0090240D03*
X0268465Y0090240D03*
D53*
X0268623Y0090398D03*
X0273977Y0090398D03*
X0278780Y0229370D03*
X0283820Y0229370D03*
X0318465Y0229898D03*
X0324135Y0229898D03*
D54*
X0283662Y0229291D03*
X0278938Y0229291D03*
X0273820Y0090476D03*
X0268780Y0090476D03*
X0318150Y0090264D03*
X0324450Y0090264D03*
D55*
X0303662Y0090634D03*
X0298938Y0090634D03*
X0273505Y0090634D03*
X0269095Y0090634D03*
X0318780Y0229661D03*
X0323820Y0229661D03*
D56*
X0259253Y0229213D03*
X0269253Y0094492D03*
X0249253Y0090713D03*
D57*
X0269410Y0095752D03*
X0269568Y0095752D03*
X0269725Y0095909D03*
X0269883Y0095909D03*
X0321772Y0223756D03*
D58*
X0321143Y0097508D03*
X0272560Y0095988D03*
X0272402Y0095988D03*
X0272245Y0095988D03*
X0270355Y0095988D03*
X0270198Y0095988D03*
X0270040Y0095988D03*
D59*
X0270513Y0096067D03*
X0270670Y0096067D03*
X0270828Y0096067D03*
X0270985Y0096067D03*
X0271143Y0096067D03*
X0271300Y0096067D03*
X0271457Y0096067D03*
X0271615Y0096067D03*
X0271772Y0096067D03*
X0271930Y0096067D03*
X0272087Y0096067D03*
X0321300Y0097429D03*
X0321457Y0097429D03*
X0321930Y0223913D03*
X0249253Y0228646D03*
D60*
X0290670Y0228071D03*
X0290828Y0227913D03*
X0321143Y0223126D03*
X0322087Y0223126D03*
X0321930Y0098059D03*
X0312875Y0093965D03*
X0271930Y0085201D03*
D61*
X0251930Y0090713D03*
X0251772Y0090713D03*
X0241457Y0091815D03*
X0241300Y0090398D03*
X0290670Y0093362D03*
X0292087Y0093362D03*
X0310670Y0090028D03*
X0321772Y0089083D03*
X0321930Y0089083D03*
X0323032Y0087350D03*
X0323190Y0087350D03*
X0331300Y0087878D03*
X0331457Y0089295D03*
X0205115Y0159843D03*
X0203698Y0160000D03*
X0203513Y0179370D03*
X0203513Y0179528D03*
X0201465Y0188268D03*
X0201465Y0188425D03*
X0205717Y0188425D03*
X0203985Y0199213D03*
X0203985Y0200787D03*
X0201938Y0201417D03*
X0201938Y0201575D03*
X0201938Y0201732D03*
X0194013Y0216795D03*
X0190706Y0216795D03*
X0200312Y0218843D03*
X0206139Y0218055D03*
X0212438Y0216795D03*
X0208119Y0226047D03*
X0204654Y0226047D03*
X0241300Y0228398D03*
X0241457Y0229815D03*
X0261772Y0229213D03*
X0261930Y0229213D03*
X0269568Y0227638D03*
X0269725Y0227638D03*
X0269883Y0227638D03*
X0270513Y0229685D03*
X0272087Y0229685D03*
X0282875Y0231417D03*
X0282875Y0227165D03*
X0283032Y0227165D03*
X0301024Y0225185D03*
X0311024Y0225236D03*
X0320670Y0233047D03*
X0322087Y0233047D03*
D62*
X0309371Y0216772D03*
X0239253Y0231154D03*
X0239253Y0093154D03*
X0308150Y0088531D03*
X0314450Y0088531D03*
D63*
X0231410Y0114657D03*
X0231410Y0119343D03*
D64*
X0231410Y0119224D03*
X0231410Y0114776D03*
D65*
X0231410Y0119126D03*
D66*
X0231410Y0119008D03*
D67*
X0231410Y0118870D03*
X0231410Y0115091D03*
D68*
X0231410Y0115209D03*
X0231410Y0118752D03*
D69*
X0231410Y0118654D03*
D70*
X0228339Y0118555D03*
D71*
X0231942Y0118555D03*
D72*
X0234835Y0118555D03*
D73*
X0227513Y0118417D03*
X0227513Y0115583D03*
D74*
X0229639Y0118417D03*
X0231646Y0117945D03*
D75*
X0231765Y0118417D03*
D76*
X0235131Y0118417D03*
X0227335Y0117472D03*
X0227335Y0117000D03*
X0227335Y0116528D03*
D77*
X0227513Y0115720D03*
X0227631Y0115445D03*
X0227513Y0118280D03*
X0235308Y0115720D03*
D78*
X0231351Y0117217D03*
X0231587Y0117807D03*
X0230524Y0117807D03*
X0230524Y0117728D03*
X0229580Y0118201D03*
X0229580Y0118280D03*
X0229580Y0116390D03*
D79*
X0231706Y0118280D03*
D80*
X0230524Y0116272D03*
X0227454Y0115917D03*
X0227454Y0115839D03*
X0227454Y0118083D03*
X0227454Y0118201D03*
X0235249Y0118280D03*
X0235367Y0118201D03*
X0235367Y0118083D03*
X0235367Y0115917D03*
X0235367Y0115839D03*
D81*
X0231706Y0118201D03*
D82*
X0231528Y0117728D03*
X0231528Y0117610D03*
X0231410Y0117335D03*
X0231528Y0116390D03*
X0230465Y0117610D03*
X0229520Y0117610D03*
X0229520Y0117728D03*
X0229520Y0117807D03*
X0229520Y0118083D03*
X0229520Y0116862D03*
X0229520Y0116783D03*
X0229520Y0116665D03*
D83*
X0229757Y0117217D03*
X0231646Y0118083D03*
X0233182Y0117728D03*
D84*
X0235426Y0117945D03*
X0235426Y0116055D03*
X0235190Y0115583D03*
X0230583Y0116055D03*
X0227394Y0116055D03*
X0227394Y0117945D03*
D85*
X0229520Y0117945D03*
X0229520Y0116528D03*
D86*
X0230524Y0117945D03*
D87*
X0230583Y0116193D03*
X0227394Y0116193D03*
X0227394Y0116272D03*
X0227394Y0117728D03*
X0227394Y0117807D03*
X0235426Y0117807D03*
D88*
X0235367Y0117728D03*
X0235367Y0116193D03*
X0235013Y0115445D03*
X0230643Y0115917D03*
X0227335Y0116390D03*
X0227335Y0116665D03*
X0227335Y0116783D03*
X0227335Y0116862D03*
X0227335Y0117138D03*
X0227335Y0117217D03*
X0227335Y0117335D03*
X0227335Y0117610D03*
D89*
X0229875Y0117335D03*
X0233182Y0117610D03*
X0233182Y0116272D03*
D90*
X0230761Y0115720D03*
X0235367Y0117610D03*
D91*
X0231469Y0117472D03*
X0230288Y0117472D03*
X0229580Y0117472D03*
X0229580Y0117000D03*
X0206375Y0158268D03*
X0206375Y0158425D03*
X0206375Y0158583D03*
X0206375Y0158740D03*
X0206375Y0158898D03*
X0206375Y0159055D03*
X0206375Y0159213D03*
X0206375Y0159370D03*
X0206375Y0159528D03*
X0206375Y0159685D03*
X0206375Y0159843D03*
X0206375Y0160000D03*
X0206375Y0160157D03*
X0206375Y0160315D03*
X0206375Y0160472D03*
X0206375Y0160630D03*
X0206375Y0160787D03*
X0206375Y0160945D03*
X0206375Y0161102D03*
X0206375Y0161260D03*
X0206375Y0161417D03*
X0206375Y0161575D03*
X0206375Y0161732D03*
X0204957Y0160315D03*
X0204957Y0160157D03*
X0203855Y0159528D03*
X0202280Y0159528D03*
X0202280Y0159685D03*
X0202280Y0159843D03*
X0202280Y0160000D03*
X0202280Y0160157D03*
X0202280Y0159370D03*
X0202280Y0159213D03*
X0202280Y0159055D03*
X0202280Y0158898D03*
X0202280Y0158740D03*
X0202280Y0158583D03*
X0202280Y0158425D03*
X0203513Y0179685D03*
X0203513Y0179843D03*
X0201308Y0181102D03*
X0201150Y0181417D03*
X0205875Y0181417D03*
X0205717Y0188110D03*
X0203513Y0190945D03*
X0201308Y0191417D03*
X0201465Y0188740D03*
X0201465Y0188583D03*
X0203985Y0199055D03*
X0203985Y0200945D03*
X0201938Y0201260D03*
X0201938Y0201890D03*
X0203146Y0217740D03*
X0203237Y0223055D03*
X0203237Y0224787D03*
X0207871Y0220890D03*
X0210076Y0220260D03*
D92*
X0234658Y0117472D03*
D93*
X0234599Y0117335D03*
X0234599Y0117217D03*
X0234599Y0116665D03*
D94*
X0233182Y0116193D03*
X0231292Y0117138D03*
X0229639Y0117138D03*
D95*
X0234540Y0117138D03*
X0234540Y0116862D03*
X0234540Y0116783D03*
D96*
X0231233Y0117000D03*
D97*
X0234540Y0117000D03*
D98*
X0231469Y0116862D03*
D99*
X0231528Y0116783D03*
X0231528Y0116665D03*
X0281438Y0092217D03*
X0345245Y0124811D03*
X0349745Y0127811D03*
X0346662Y0140520D03*
X0345245Y0141228D03*
X0345245Y0144535D03*
X0348938Y0164217D03*
X0341910Y0168772D03*
X0309784Y0216831D03*
X0302816Y0216780D03*
D100*
X0301989Y0218571D03*
X0300611Y0218571D03*
X0310611Y0218622D03*
X0311989Y0218622D03*
X0231528Y0116528D03*
D101*
X0234599Y0116528D03*
D102*
X0234658Y0116390D03*
D103*
X0235308Y0116272D03*
X0230702Y0115839D03*
D104*
X0230879Y0115583D03*
D105*
X0230938Y0115445D03*
D106*
X0231410Y0115327D03*
D107*
X0231410Y0115012D03*
D108*
X0231410Y0114894D03*
D109*
X0309725Y0089398D03*
X0328150Y0089925D03*
X0328308Y0089925D03*
X0328465Y0089925D03*
X0328623Y0089925D03*
X0328780Y0089925D03*
X0328938Y0089925D03*
X0329095Y0089925D03*
X0329253Y0089925D03*
X0333505Y0089925D03*
X0333662Y0089925D03*
X0333820Y0089925D03*
X0333977Y0089925D03*
X0334135Y0089925D03*
X0334292Y0089925D03*
X0334450Y0089925D03*
D110*
X0314292Y0088610D03*
X0308308Y0088610D03*
D111*
X0308465Y0088768D03*
X0314135Y0088768D03*
D112*
X0313977Y0088846D03*
X0308623Y0088846D03*
D113*
X0310040Y0089555D03*
D114*
X0310198Y0089634D03*
X0318150Y0230291D03*
X0324450Y0230291D03*
X0284450Y0229764D03*
X0278150Y0229764D03*
D115*
X0289253Y0088795D03*
X0313820Y0088925D03*
D116*
X0318623Y0090579D03*
X0323977Y0090579D03*
X0303977Y0090791D03*
X0298623Y0090791D03*
X0319095Y0229504D03*
X0323505Y0229504D03*
D117*
X0273820Y0228898D03*
X0268780Y0228898D03*
X0288150Y0090843D03*
X0294450Y0090843D03*
X0319725Y0091130D03*
D118*
X0319883Y0091209D03*
X0273977Y0228819D03*
X0268623Y0228819D03*
D119*
X0268465Y0228740D03*
X0274135Y0228740D03*
X0320040Y0091287D03*
D120*
X0320198Y0091366D03*
X0274292Y0228661D03*
X0268308Y0228661D03*
D121*
X0290040Y0231693D03*
X0299371Y0217272D03*
X0299253Y0088350D03*
D122*
X0331457Y0166555D03*
X0336143Y0166555D03*
D123*
X0336024Y0166555D03*
X0331576Y0166555D03*
X0313367Y0216004D03*
D124*
X0331674Y0166555D03*
D125*
X0331792Y0166555D03*
D126*
X0331930Y0166555D03*
X0335709Y0166555D03*
D127*
X0335591Y0166555D03*
X0332048Y0166555D03*
X0343288Y0166291D03*
X0279745Y0089146D03*
D128*
X0332146Y0166555D03*
D129*
X0332245Y0164783D03*
D130*
X0327855Y0163343D03*
X0332245Y0170984D03*
X0333072Y0171339D03*
X0333662Y0171457D03*
X0326635Y0171610D03*
X0342028Y0171311D03*
X0352107Y0127752D03*
X0347607Y0124870D03*
D131*
X0351300Y0130646D03*
X0351772Y0134898D03*
X0351300Y0135016D03*
X0347272Y0135205D03*
X0348217Y0138866D03*
X0348217Y0145244D03*
X0347383Y0155831D03*
X0350217Y0155831D03*
X0342717Y0161213D03*
X0339883Y0161213D03*
X0335217Y0161713D03*
X0332383Y0161713D03*
X0327717Y0160213D03*
X0324883Y0160213D03*
X0335217Y0167382D03*
X0342717Y0171370D03*
X0348800Y0167169D03*
X0281772Y0098122D03*
X0280828Y0098122D03*
X0281300Y0095169D03*
D132*
X0280355Y0099185D03*
X0282245Y0099185D03*
X0345855Y0124811D03*
X0348217Y0129654D03*
X0350355Y0127811D03*
X0352717Y0133126D03*
X0352245Y0134425D03*
X0346800Y0148315D03*
X0332383Y0165020D03*
X0327717Y0165764D03*
X0327245Y0167654D03*
X0339883Y0169126D03*
D133*
X0342245Y0171429D03*
X0335217Y0171220D03*
X0332855Y0171457D03*
X0332383Y0171220D03*
X0326300Y0171728D03*
X0327717Y0163343D03*
X0326772Y0160035D03*
X0326300Y0160035D03*
X0325828Y0160035D03*
X0333328Y0161535D03*
X0333800Y0161535D03*
X0334272Y0161535D03*
X0340828Y0161035D03*
X0341300Y0161035D03*
X0341772Y0161035D03*
X0348328Y0155654D03*
X0348800Y0155654D03*
X0349272Y0155654D03*
X0302127Y0212508D03*
X0300473Y0212508D03*
X0311300Y0216693D03*
D134*
X0327383Y0171669D03*
X0327461Y0171669D03*
X0327855Y0171433D03*
X0340020Y0171370D03*
X0342580Y0171370D03*
X0342855Y0171252D03*
X0347599Y0171776D03*
X0347717Y0171776D03*
X0349883Y0171776D03*
X0349961Y0171776D03*
X0349135Y0167169D03*
X0349017Y0167169D03*
X0348938Y0167169D03*
X0348662Y0167169D03*
X0348583Y0167169D03*
X0342855Y0161331D03*
X0342580Y0161213D03*
X0340020Y0161213D03*
X0335355Y0161831D03*
X0335080Y0161713D03*
X0332520Y0161713D03*
X0335355Y0164547D03*
X0327855Y0160331D03*
X0327580Y0160213D03*
X0325020Y0160213D03*
X0347520Y0155831D03*
X0350080Y0155831D03*
X0348355Y0147843D03*
X0345993Y0147724D03*
X0347883Y0145244D03*
X0347961Y0145244D03*
X0348080Y0145244D03*
X0351438Y0142575D03*
X0352107Y0142575D03*
X0351438Y0140094D03*
X0351438Y0137496D03*
X0351635Y0135016D03*
X0351438Y0130646D03*
X0347135Y0135205D03*
X0347961Y0138866D03*
X0348080Y0138866D03*
X0281635Y0095169D03*
X0281517Y0095169D03*
X0281438Y0095169D03*
X0281162Y0095169D03*
X0281083Y0095169D03*
D135*
X0280572Y0094933D03*
X0282461Y0093398D03*
X0280493Y0091862D03*
X0281083Y0089854D03*
X0281635Y0089854D03*
X0281635Y0087138D03*
X0346662Y0124339D03*
X0346938Y0124220D03*
X0347883Y0123748D03*
X0347961Y0123748D03*
X0348080Y0123630D03*
X0347017Y0125520D03*
X0347961Y0125992D03*
X0348080Y0125992D03*
X0347528Y0126819D03*
X0347410Y0126819D03*
X0347135Y0126819D03*
X0347017Y0126819D03*
X0345599Y0124811D03*
X0345599Y0129299D03*
X0345717Y0129299D03*
X0345993Y0129299D03*
X0346072Y0129299D03*
X0347017Y0129299D03*
X0347135Y0129299D03*
X0347410Y0129299D03*
X0347528Y0129299D03*
X0347607Y0129299D03*
X0346465Y0131898D03*
X0346662Y0132016D03*
X0346938Y0132134D03*
X0347135Y0132252D03*
X0348080Y0132843D03*
X0347017Y0133433D03*
X0346583Y0133669D03*
X0346465Y0133669D03*
X0347017Y0134496D03*
X0346938Y0134614D03*
X0347607Y0134614D03*
X0350099Y0132772D03*
X0350217Y0132772D03*
X0350493Y0132772D03*
X0350572Y0132772D03*
X0351517Y0132772D03*
X0351635Y0132772D03*
X0351910Y0132772D03*
X0352028Y0132772D03*
X0352107Y0132772D03*
X0352107Y0131472D03*
X0352028Y0131472D03*
X0351910Y0131472D03*
X0351635Y0131472D03*
X0351517Y0131354D03*
X0352383Y0131472D03*
X0352461Y0131472D03*
X0352580Y0131472D03*
X0352580Y0129937D03*
X0352461Y0129937D03*
X0352383Y0129937D03*
X0352107Y0129937D03*
X0352028Y0129937D03*
X0351910Y0129937D03*
X0351635Y0129937D03*
X0352383Y0128874D03*
X0352461Y0128874D03*
X0352580Y0128992D03*
X0351438Y0128402D03*
X0351162Y0128283D03*
X0350099Y0127811D03*
X0351517Y0127102D03*
X0352383Y0126748D03*
X0352461Y0126630D03*
X0352580Y0126630D03*
X0352107Y0134307D03*
X0351517Y0134307D03*
X0351517Y0135724D03*
X0351438Y0135724D03*
X0351517Y0136787D03*
X0351635Y0136787D03*
X0351635Y0138205D03*
X0351517Y0138205D03*
X0351910Y0138205D03*
X0352028Y0138205D03*
X0352107Y0138205D03*
X0352383Y0138205D03*
X0352461Y0138205D03*
X0352580Y0138205D03*
X0351517Y0139386D03*
X0351517Y0140803D03*
X0351635Y0140803D03*
X0351910Y0140803D03*
X0352028Y0140803D03*
X0352107Y0140803D03*
X0352383Y0140803D03*
X0352461Y0140803D03*
X0352580Y0140803D03*
X0352028Y0141866D03*
X0351910Y0141866D03*
X0351635Y0141866D03*
X0351517Y0141866D03*
X0351517Y0143283D03*
X0351635Y0143283D03*
X0351910Y0143283D03*
X0352028Y0143283D03*
X0348355Y0142173D03*
X0348080Y0142291D03*
X0347961Y0142291D03*
X0347883Y0142409D03*
X0347607Y0142528D03*
X0347528Y0142528D03*
X0347410Y0142646D03*
X0347135Y0142764D03*
X0347017Y0142764D03*
X0346938Y0142882D03*
X0346662Y0143000D03*
X0346583Y0143000D03*
X0346465Y0143118D03*
X0346190Y0143236D03*
X0346072Y0143236D03*
X0345993Y0143354D03*
X0345599Y0143472D03*
X0345520Y0143472D03*
X0345520Y0144535D03*
X0345599Y0144535D03*
X0345717Y0144535D03*
X0345993Y0144535D03*
X0346072Y0144535D03*
X0346190Y0144535D03*
X0346465Y0144535D03*
X0346583Y0144535D03*
X0346662Y0144535D03*
X0346938Y0144535D03*
X0347017Y0144535D03*
X0347135Y0144535D03*
X0347410Y0144535D03*
X0347528Y0144535D03*
X0347607Y0144535D03*
X0346190Y0147016D03*
X0346190Y0148433D03*
X0346072Y0148433D03*
X0346465Y0148551D03*
X0346583Y0148433D03*
X0346662Y0141228D03*
X0346938Y0141228D03*
X0347017Y0141228D03*
X0347135Y0141228D03*
X0347410Y0141228D03*
X0347528Y0141228D03*
X0347607Y0141228D03*
X0347883Y0141228D03*
X0347961Y0141228D03*
X0348080Y0141228D03*
X0345520Y0141228D03*
X0349135Y0159138D03*
X0349135Y0161854D03*
X0348583Y0161854D03*
X0347993Y0163862D03*
X0349961Y0165398D03*
X0348072Y0166933D03*
X0342383Y0163457D03*
X0341162Y0163457D03*
X0333662Y0163957D03*
X0332520Y0165138D03*
X0333190Y0166673D03*
X0333583Y0166673D03*
X0333662Y0166673D03*
X0333938Y0168209D03*
X0334528Y0169272D03*
X0332599Y0167972D03*
X0327461Y0169307D03*
X0327383Y0169307D03*
X0326162Y0169307D03*
X0326083Y0169307D03*
X0325690Y0169307D03*
X0326517Y0167772D03*
X0326635Y0167772D03*
X0325217Y0166591D03*
X0325217Y0164937D03*
X0326635Y0163874D03*
X0326162Y0162457D03*
X0302265Y0215047D03*
X0300611Y0216976D03*
X0299784Y0216425D03*
X0302265Y0220441D03*
X0300611Y0222921D03*
X0300611Y0225244D03*
X0301989Y0225953D03*
X0300060Y0227606D03*
X0301438Y0231465D03*
X0302540Y0231031D03*
X0302265Y0232685D03*
X0301162Y0233945D03*
X0310335Y0231516D03*
X0312265Y0230138D03*
X0311438Y0228878D03*
X0310611Y0225177D03*
X0310887Y0222815D03*
X0312265Y0220492D03*
D136*
X0334410Y0169154D03*
X0334410Y0167854D03*
X0332520Y0167972D03*
X0327383Y0167654D03*
X0327107Y0167654D03*
X0342855Y0169126D03*
X0347520Y0165516D03*
X0347599Y0163744D03*
X0347717Y0163744D03*
X0350080Y0163626D03*
X0349528Y0166933D03*
X0346938Y0148197D03*
X0345717Y0141110D03*
X0346190Y0135323D03*
X0347883Y0132843D03*
X0347961Y0132843D03*
X0347607Y0126937D03*
X0346938Y0126937D03*
X0280493Y0099067D03*
X0281635Y0098594D03*
X0282028Y0094933D03*
X0280020Y0093516D03*
X0280099Y0091744D03*
X0280217Y0091744D03*
X0282580Y0091626D03*
D137*
X0282028Y0098240D03*
X0280572Y0098240D03*
X0347961Y0147843D03*
X0348080Y0147843D03*
X0348072Y0155713D03*
X0347993Y0155713D03*
X0349528Y0155713D03*
X0349607Y0155713D03*
X0342107Y0161094D03*
X0342028Y0161094D03*
X0340572Y0161094D03*
X0340493Y0161094D03*
X0334607Y0161594D03*
X0334528Y0161594D03*
X0333072Y0161594D03*
X0332993Y0161594D03*
X0327383Y0163283D03*
X0327107Y0160094D03*
X0327028Y0160094D03*
X0325572Y0160094D03*
X0325493Y0160094D03*
X0325217Y0171551D03*
X0325493Y0171669D03*
X0325572Y0171669D03*
X0325690Y0171787D03*
X0325965Y0171787D03*
X0326083Y0171787D03*
X0326162Y0171787D03*
X0327107Y0171669D03*
X0332520Y0171280D03*
X0332599Y0171398D03*
X0332717Y0171398D03*
X0334135Y0171634D03*
X0334410Y0171634D03*
X0334961Y0171398D03*
X0347993Y0171776D03*
X0302265Y0212567D03*
X0300335Y0212567D03*
X0311162Y0216634D03*
X0311438Y0216634D03*
X0303091Y0225244D03*
D138*
X0313091Y0225236D03*
X0312265Y0213386D03*
X0310335Y0213386D03*
X0334528Y0171575D03*
X0334607Y0171575D03*
X0334883Y0171457D03*
X0335080Y0171339D03*
X0339745Y0171193D03*
X0340099Y0171429D03*
X0340217Y0171429D03*
X0342383Y0171429D03*
X0342461Y0171429D03*
X0327107Y0163224D03*
X0327383Y0160154D03*
X0327461Y0160154D03*
X0325217Y0160154D03*
X0325099Y0160154D03*
X0332599Y0161654D03*
X0332717Y0161654D03*
X0334883Y0161654D03*
X0334961Y0161654D03*
X0340099Y0161154D03*
X0340217Y0161154D03*
X0342383Y0161154D03*
X0342461Y0161154D03*
X0347599Y0155772D03*
X0347717Y0155772D03*
X0349883Y0155772D03*
X0349961Y0155772D03*
X0347883Y0147783D03*
X0351635Y0127752D03*
X0347135Y0124870D03*
X0281910Y0098181D03*
X0280690Y0098181D03*
D139*
X0280217Y0093339D03*
X0280572Y0091921D03*
X0280690Y0091921D03*
X0282107Y0091449D03*
X0281517Y0089913D03*
X0281438Y0089913D03*
X0281162Y0089913D03*
X0281162Y0087197D03*
X0281083Y0087197D03*
X0281438Y0087197D03*
X0281517Y0087197D03*
X0282383Y0093339D03*
X0345520Y0124870D03*
X0345520Y0129240D03*
X0345520Y0130894D03*
X0345599Y0130894D03*
X0345717Y0130894D03*
X0345245Y0130894D03*
X0346465Y0130894D03*
X0346583Y0130894D03*
X0346662Y0130894D03*
X0346938Y0130894D03*
X0347017Y0130894D03*
X0347135Y0130894D03*
X0347410Y0130894D03*
X0347528Y0130894D03*
X0347607Y0130894D03*
X0347883Y0130894D03*
X0347961Y0130894D03*
X0348080Y0130894D03*
X0348355Y0129713D03*
X0350020Y0127752D03*
X0352855Y0133185D03*
X0347017Y0135972D03*
X0346938Y0135972D03*
X0346938Y0138098D03*
X0347017Y0138098D03*
X0347135Y0138098D03*
X0347410Y0138098D03*
X0347528Y0138098D03*
X0347607Y0138098D03*
X0346662Y0138098D03*
X0346583Y0138098D03*
X0346465Y0138098D03*
X0346190Y0138098D03*
X0346072Y0138098D03*
X0345993Y0138098D03*
X0345717Y0138098D03*
X0345599Y0138098D03*
X0345520Y0138098D03*
X0350690Y0137673D03*
X0351910Y0136728D03*
X0352028Y0136728D03*
X0352107Y0136728D03*
X0352383Y0136728D03*
X0352461Y0136728D03*
X0352580Y0136728D03*
X0352580Y0139327D03*
X0352461Y0139327D03*
X0352383Y0139327D03*
X0352107Y0139327D03*
X0352028Y0139327D03*
X0351910Y0139327D03*
X0351635Y0139327D03*
X0345717Y0143413D03*
X0345245Y0143531D03*
X0346465Y0146957D03*
X0346583Y0146957D03*
X0346662Y0146957D03*
X0345245Y0147783D03*
X0348583Y0159197D03*
X0348662Y0159197D03*
X0348938Y0159197D03*
X0349017Y0159197D03*
X0349017Y0161913D03*
X0348938Y0161913D03*
X0348662Y0161913D03*
X0349607Y0163449D03*
X0348190Y0163921D03*
X0348072Y0163921D03*
X0347717Y0165339D03*
X0349883Y0165339D03*
X0342107Y0163398D03*
X0340572Y0163398D03*
X0333072Y0163898D03*
X0332599Y0165197D03*
X0333072Y0166614D03*
X0327383Y0165823D03*
X0327107Y0165823D03*
X0325572Y0166650D03*
X0325493Y0166650D03*
X0326162Y0167831D03*
X0326438Y0167831D03*
X0327107Y0169248D03*
X0325572Y0169248D03*
X0325493Y0164996D03*
X0326517Y0163933D03*
X0325572Y0162398D03*
X0340099Y0169067D03*
X0342461Y0169067D03*
X0342580Y0169067D03*
X0312265Y0218622D03*
X0310335Y0218622D03*
X0302265Y0218571D03*
X0300335Y0218571D03*
X0300335Y0222980D03*
X0309784Y0228819D03*
X0311162Y0231299D03*
X0312265Y0233504D03*
X0302816Y0234004D03*
X0300335Y0234004D03*
X0299784Y0234004D03*
X0301989Y0231248D03*
X0302265Y0229319D03*
D140*
X0333072Y0169272D03*
X0332717Y0167972D03*
X0334607Y0169272D03*
X0340217Y0169008D03*
X0342383Y0169008D03*
X0347520Y0167996D03*
X0348190Y0167996D03*
X0349528Y0167996D03*
X0349607Y0166933D03*
X0349607Y0165280D03*
X0347993Y0165280D03*
X0349410Y0163390D03*
X0349528Y0163390D03*
X0334135Y0165256D03*
X0332717Y0165256D03*
X0326438Y0163874D03*
X0325572Y0164937D03*
X0325020Y0163520D03*
X0325965Y0167890D03*
X0326083Y0167890D03*
X0348473Y0142173D03*
X0348355Y0141228D03*
X0350690Y0140213D03*
X0350690Y0139268D03*
X0352855Y0139268D03*
X0352855Y0138205D03*
X0352855Y0136787D03*
X0352973Y0135134D03*
X0350690Y0136787D03*
X0352855Y0140803D03*
X0352855Y0142457D03*
X0352855Y0143283D03*
X0350690Y0143283D03*
X0350690Y0142457D03*
X0346190Y0133669D03*
X0346190Y0130953D03*
X0348355Y0130953D03*
X0350690Y0130882D03*
X0350690Y0129937D03*
X0352855Y0129937D03*
X0352855Y0131472D03*
X0350020Y0132772D03*
X0347607Y0127882D03*
X0346938Y0128000D03*
X0348355Y0125992D03*
X0352855Y0126630D03*
X0282028Y0095996D03*
X0282107Y0094933D03*
X0282107Y0093280D03*
X0280493Y0093280D03*
X0281910Y0091390D03*
X0282028Y0091390D03*
X0280690Y0095996D03*
X0280020Y0095996D03*
D141*
X0347272Y0124811D03*
X0351772Y0127811D03*
X0349745Y0155713D03*
X0347855Y0155713D03*
X0342245Y0161094D03*
X0340355Y0161094D03*
X0334745Y0161594D03*
X0332855Y0161594D03*
X0327245Y0160094D03*
X0325355Y0160094D03*
X0327245Y0163283D03*
X0327245Y0171669D03*
X0325828Y0171787D03*
X0325355Y0171669D03*
X0334272Y0171634D03*
X0334745Y0171516D03*
X0340355Y0171488D03*
X0312402Y0213327D03*
X0309646Y0235492D03*
D142*
X0332993Y0169213D03*
X0333662Y0168150D03*
X0333938Y0165315D03*
X0334017Y0165315D03*
X0332993Y0165315D03*
X0327028Y0165823D03*
X0326910Y0165823D03*
X0325965Y0166650D03*
X0325690Y0166650D03*
X0325690Y0167949D03*
X0325572Y0167949D03*
X0325493Y0167949D03*
X0325690Y0164996D03*
X0326162Y0163933D03*
X0325099Y0163579D03*
X0340020Y0164461D03*
X0348072Y0165220D03*
X0348190Y0165220D03*
X0348465Y0164039D03*
X0349410Y0165220D03*
X0349528Y0165220D03*
X0349607Y0168055D03*
X0350080Y0168055D03*
X0348072Y0168055D03*
X0350355Y0162150D03*
X0348591Y0142232D03*
X0348473Y0135382D03*
X0348355Y0132783D03*
X0346190Y0131957D03*
X0352855Y0128933D03*
X0348355Y0123689D03*
X0282580Y0096055D03*
X0282107Y0096055D03*
X0280572Y0096055D03*
X0280572Y0093220D03*
X0280690Y0093220D03*
X0280965Y0092039D03*
X0281910Y0093220D03*
X0282028Y0093220D03*
X0282855Y0090150D03*
D143*
X0281635Y0091272D03*
X0281162Y0092098D03*
X0281083Y0092098D03*
X0281083Y0093161D03*
X0281162Y0093161D03*
X0280965Y0093161D03*
X0281438Y0093161D03*
X0281517Y0093161D03*
X0281635Y0093161D03*
X0282383Y0096114D03*
X0282461Y0096114D03*
X0280493Y0096114D03*
X0280217Y0096114D03*
X0280099Y0096114D03*
X0280493Y0090091D03*
X0280493Y0087374D03*
X0347993Y0159374D03*
X0347993Y0162091D03*
X0349135Y0163272D03*
X0348662Y0164098D03*
X0348583Y0164098D03*
X0348583Y0165161D03*
X0348662Y0165161D03*
X0348465Y0165161D03*
X0348938Y0165161D03*
X0349017Y0165161D03*
X0349135Y0165161D03*
X0349883Y0168114D03*
X0349961Y0168114D03*
X0347993Y0168114D03*
X0347717Y0168114D03*
X0347599Y0168114D03*
X0342107Y0168890D03*
X0340572Y0168890D03*
X0340493Y0168890D03*
X0333583Y0168091D03*
X0333465Y0168091D03*
X0333072Y0167972D03*
X0332993Y0167972D03*
X0333072Y0165374D03*
X0333190Y0165374D03*
X0333465Y0165374D03*
X0333583Y0165374D03*
X0333662Y0165374D03*
X0340099Y0164520D03*
X0326083Y0163874D03*
X0325965Y0163874D03*
X0325493Y0163756D03*
X0325217Y0163638D03*
X0325965Y0164937D03*
X0325217Y0168008D03*
X0325099Y0168008D03*
X0325020Y0168008D03*
D144*
X0335355Y0171043D03*
X0332993Y0171398D03*
X0326910Y0171669D03*
X0326517Y0171669D03*
X0340572Y0171370D03*
X0342107Y0171370D03*
X0352028Y0127811D03*
X0347528Y0124811D03*
D145*
X0347410Y0124870D03*
X0351910Y0127752D03*
X0349410Y0155654D03*
X0349135Y0155654D03*
X0349017Y0155654D03*
X0348938Y0155654D03*
X0348662Y0155654D03*
X0348583Y0155654D03*
X0348465Y0155654D03*
X0348190Y0155654D03*
X0341910Y0161035D03*
X0341635Y0161035D03*
X0341517Y0161035D03*
X0341438Y0161035D03*
X0341162Y0161035D03*
X0341083Y0161035D03*
X0340965Y0161035D03*
X0340690Y0161035D03*
X0334410Y0161535D03*
X0334135Y0161535D03*
X0334017Y0161535D03*
X0333938Y0161535D03*
X0333662Y0161535D03*
X0333583Y0161535D03*
X0333465Y0161535D03*
X0333190Y0161535D03*
X0327580Y0163343D03*
X0327461Y0163343D03*
X0326910Y0160035D03*
X0326635Y0160035D03*
X0326517Y0160035D03*
X0326438Y0160035D03*
X0326162Y0160035D03*
X0326083Y0160035D03*
X0325965Y0160035D03*
X0325690Y0160035D03*
X0335355Y0167441D03*
X0334017Y0171575D03*
X0333938Y0171575D03*
X0340493Y0171429D03*
X0327028Y0171610D03*
X0326438Y0171728D03*
X0325099Y0171492D03*
X0325020Y0171374D03*
X0301989Y0212508D03*
X0300611Y0212508D03*
X0313091Y0235433D03*
X0282107Y0098299D03*
D146*
X0281517Y0098654D03*
X0281438Y0098654D03*
X0281162Y0098654D03*
X0281083Y0098654D03*
X0282855Y0095937D03*
X0282580Y0093457D03*
X0282461Y0091567D03*
X0282383Y0091567D03*
X0280099Y0093457D03*
X0347017Y0124161D03*
X0346662Y0125343D03*
X0346938Y0125461D03*
X0347883Y0125933D03*
X0348355Y0127587D03*
X0350217Y0127752D03*
X0351162Y0127280D03*
X0351438Y0127161D03*
X0351517Y0128461D03*
X0351517Y0129996D03*
X0351438Y0132713D03*
X0351438Y0134366D03*
X0347135Y0133374D03*
X0346938Y0133492D03*
X0346662Y0133610D03*
X0347017Y0132193D03*
X0346583Y0131957D03*
X0346938Y0129240D03*
X0346190Y0127587D03*
X0345717Y0124870D03*
X0345599Y0141169D03*
X0346072Y0147075D03*
X0346662Y0148374D03*
X0349883Y0163567D03*
X0349961Y0163567D03*
X0350080Y0165457D03*
X0347599Y0165457D03*
X0350355Y0167937D03*
X0342580Y0163516D03*
X0342461Y0163516D03*
X0341083Y0163516D03*
X0340965Y0163516D03*
X0340690Y0163516D03*
X0334410Y0165079D03*
X0333583Y0164016D03*
X0333465Y0164016D03*
X0333190Y0164016D03*
X0333465Y0166732D03*
X0327580Y0165823D03*
X0327461Y0165823D03*
X0327028Y0167713D03*
X0326910Y0167713D03*
X0327580Y0169366D03*
X0325965Y0169366D03*
X0325099Y0166650D03*
X0325020Y0166650D03*
X0325020Y0164996D03*
X0325099Y0164996D03*
X0325690Y0162516D03*
X0325965Y0162516D03*
X0326083Y0162516D03*
X0340020Y0169067D03*
X0311162Y0222756D03*
X0302816Y0227665D03*
D147*
X0340690Y0168831D03*
X0340217Y0167768D03*
X0340099Y0167768D03*
X0340020Y0167768D03*
X0342028Y0168831D03*
X0333190Y0168031D03*
X0326635Y0165823D03*
X0326517Y0165823D03*
X0326438Y0165823D03*
X0326162Y0166650D03*
X0326083Y0166650D03*
X0326083Y0164996D03*
X0326162Y0164996D03*
X0325690Y0163815D03*
X0325572Y0163815D03*
X0340217Y0164579D03*
X0347520Y0162150D03*
X0347599Y0162150D03*
X0347717Y0162150D03*
X0348938Y0163213D03*
X0349017Y0163213D03*
X0349883Y0162150D03*
X0349961Y0162150D03*
X0350080Y0162150D03*
X0347717Y0159433D03*
X0347599Y0159433D03*
X0347520Y0159433D03*
X0345245Y0138098D03*
X0346072Y0135382D03*
X0350572Y0135075D03*
X0351438Y0133421D03*
X0346938Y0129949D03*
X0347017Y0127941D03*
X0347528Y0127941D03*
X0282580Y0090150D03*
X0282461Y0090150D03*
X0282383Y0090150D03*
X0281517Y0091213D03*
X0281438Y0091213D03*
X0280217Y0090150D03*
X0280099Y0090150D03*
X0280020Y0090150D03*
X0280020Y0087433D03*
X0280099Y0087433D03*
X0280217Y0087433D03*
D148*
X0333190Y0170866D03*
X0348072Y0171008D03*
X0349528Y0171008D03*
X0349607Y0171008D03*
D149*
X0349745Y0168114D03*
X0347855Y0168114D03*
X0348328Y0165161D03*
X0348800Y0165161D03*
X0349272Y0165161D03*
X0350217Y0162209D03*
X0349745Y0162091D03*
X0347383Y0159492D03*
X0340355Y0167709D03*
X0339883Y0167827D03*
X0333800Y0165374D03*
X0333328Y0165374D03*
X0325828Y0163874D03*
X0325355Y0168008D03*
X0347745Y0135913D03*
X0349883Y0132772D03*
X0282245Y0096114D03*
X0280355Y0096114D03*
X0280828Y0093161D03*
X0281300Y0093161D03*
X0281772Y0093161D03*
X0282717Y0090209D03*
X0282245Y0090091D03*
X0279883Y0087492D03*
D150*
X0280355Y0087433D03*
X0280355Y0090150D03*
X0281300Y0092157D03*
X0345383Y0129240D03*
X0345855Y0130894D03*
X0347855Y0159433D03*
X0347855Y0162150D03*
X0348800Y0164157D03*
X0340355Y0164697D03*
X0333328Y0168031D03*
X0326300Y0166650D03*
X0325355Y0163697D03*
D151*
X0333328Y0170925D03*
D152*
X0333465Y0171043D03*
D153*
X0333583Y0171280D03*
X0340965Y0171252D03*
D154*
X0333800Y0168091D03*
X0339883Y0164402D03*
X0348328Y0163980D03*
X0349745Y0165280D03*
X0350217Y0167996D03*
X0325828Y0167890D03*
X0349883Y0127811D03*
X0345383Y0124811D03*
X0282717Y0095996D03*
X0282245Y0093280D03*
X0280828Y0091980D03*
D155*
X0333800Y0171516D03*
D156*
X0334017Y0168268D03*
X0327855Y0169366D03*
X0327580Y0167594D03*
X0327461Y0167594D03*
X0340572Y0165287D03*
X0340690Y0165287D03*
X0340965Y0165287D03*
X0341083Y0165287D03*
X0341162Y0165287D03*
X0342383Y0165287D03*
X0342461Y0165287D03*
X0342580Y0165287D03*
X0342855Y0163516D03*
X0347520Y0163685D03*
X0348190Y0166874D03*
X0350690Y0135075D03*
X0352383Y0133067D03*
X0352461Y0133067D03*
X0352580Y0133067D03*
X0348080Y0129594D03*
X0347961Y0129594D03*
X0350493Y0127752D03*
X0345993Y0124870D03*
X0282383Y0099244D03*
X0280217Y0099244D03*
X0280690Y0094874D03*
X0280020Y0091685D03*
D157*
X0346465Y0124870D03*
X0346465Y0127587D03*
X0350965Y0127752D03*
X0347410Y0132783D03*
X0327028Y0163579D03*
X0334135Y0168386D03*
X0309784Y0218543D03*
X0311713Y0220354D03*
X0310060Y0221181D03*
X0312540Y0222402D03*
X0310060Y0225157D03*
X0303091Y0227862D03*
X0300887Y0229240D03*
X0301713Y0231878D03*
X0300887Y0233531D03*
X0303091Y0235854D03*
X0310611Y0235906D03*
X0311989Y0235906D03*
X0312265Y0235906D03*
X0310887Y0233425D03*
X0310887Y0230945D03*
X0311713Y0229291D03*
X0300060Y0225264D03*
X0302540Y0222508D03*
X0300060Y0221130D03*
X0299784Y0218650D03*
D158*
X0300473Y0216917D03*
X0302402Y0220500D03*
X0300473Y0222980D03*
X0300749Y0225185D03*
X0301851Y0226012D03*
X0310749Y0225236D03*
X0311300Y0228819D03*
X0300198Y0234004D03*
X0327245Y0169248D03*
X0326300Y0167831D03*
X0325355Y0166650D03*
X0325355Y0164996D03*
X0327245Y0165823D03*
X0334272Y0165197D03*
X0347383Y0167937D03*
X0347855Y0165339D03*
X0348800Y0161913D03*
X0348800Y0159197D03*
X0345383Y0144594D03*
X0345383Y0141287D03*
X0348217Y0142232D03*
X0351772Y0141807D03*
X0351772Y0139327D03*
X0352245Y0139327D03*
X0352717Y0139327D03*
X0352717Y0138264D03*
X0352717Y0136728D03*
X0352245Y0136728D03*
X0351772Y0136728D03*
X0347272Y0138098D03*
X0346800Y0138098D03*
X0346328Y0138098D03*
X0345855Y0138098D03*
X0345383Y0138098D03*
X0346328Y0133728D03*
X0346328Y0131957D03*
X0346328Y0130894D03*
X0346800Y0130894D03*
X0347272Y0130894D03*
X0347745Y0130894D03*
X0348217Y0130894D03*
X0348217Y0132783D03*
X0345383Y0130894D03*
X0352717Y0131413D03*
X0352717Y0128933D03*
X0352717Y0126571D03*
X0348217Y0126051D03*
X0348217Y0123689D03*
X0279883Y0095937D03*
X0280355Y0093339D03*
X0281300Y0089913D03*
X0281300Y0087197D03*
D159*
X0281772Y0095228D03*
X0280828Y0095228D03*
X0346800Y0135264D03*
X0351300Y0137437D03*
X0351300Y0140035D03*
X0351300Y0142634D03*
X0352245Y0142634D03*
X0349272Y0167228D03*
X0348328Y0167228D03*
X0347383Y0171717D03*
X0350217Y0171717D03*
X0334272Y0168504D03*
X0327717Y0171610D03*
D160*
X0327855Y0165764D03*
X0326910Y0163756D03*
X0334528Y0164902D03*
X0334528Y0167618D03*
X0340493Y0167236D03*
X0340572Y0167236D03*
X0340690Y0167236D03*
X0340965Y0167236D03*
X0341083Y0167236D03*
X0341162Y0167236D03*
X0341438Y0167236D03*
X0341517Y0167236D03*
X0341635Y0167236D03*
X0341910Y0167236D03*
X0342028Y0167236D03*
X0342107Y0167236D03*
X0342383Y0167236D03*
X0342461Y0167236D03*
X0342580Y0167236D03*
X0342107Y0165228D03*
X0342028Y0165228D03*
X0341517Y0165228D03*
X0341438Y0165228D03*
X0340493Y0165228D03*
X0347017Y0148079D03*
X0347135Y0147961D03*
X0347528Y0147488D03*
X0345993Y0140992D03*
X0348355Y0135441D03*
X0352855Y0135134D03*
X0347883Y0129535D03*
X0350572Y0127811D03*
X0346072Y0124811D03*
X0282461Y0099303D03*
X0280099Y0099303D03*
D161*
X0281910Y0095287D03*
X0350965Y0130528D03*
X0351083Y0135016D03*
X0351162Y0135016D03*
X0352461Y0135016D03*
X0351083Y0137378D03*
X0351083Y0139976D03*
X0351083Y0142693D03*
X0352461Y0142693D03*
X0347607Y0147724D03*
X0345717Y0147724D03*
X0347883Y0135205D03*
X0347528Y0135087D03*
X0335080Y0164547D03*
X0334961Y0164547D03*
X0334883Y0164547D03*
X0334607Y0164547D03*
X0334961Y0167264D03*
X0349410Y0167287D03*
D162*
X0349410Y0161323D03*
X0349528Y0161323D03*
X0349607Y0161323D03*
X0348465Y0161323D03*
X0348190Y0161323D03*
X0348072Y0161323D03*
X0348072Y0158606D03*
X0348190Y0158606D03*
X0348465Y0158606D03*
X0349410Y0158606D03*
X0349528Y0158606D03*
X0349607Y0158606D03*
X0349883Y0158606D03*
X0349961Y0158606D03*
X0350080Y0158606D03*
X0334883Y0167205D03*
X0334607Y0167205D03*
X0350965Y0142752D03*
X0352580Y0142752D03*
X0350965Y0139917D03*
X0350965Y0137319D03*
X0352028Y0134839D03*
X0352383Y0134957D03*
X0352580Y0135075D03*
X0347961Y0135264D03*
X0346583Y0135264D03*
X0346662Y0127469D03*
X0347883Y0127469D03*
X0282107Y0089323D03*
X0282028Y0089323D03*
X0281910Y0089323D03*
X0280965Y0089323D03*
X0280690Y0089323D03*
X0280572Y0089323D03*
X0280572Y0086606D03*
X0280690Y0086606D03*
X0280965Y0086606D03*
X0281910Y0086606D03*
X0282028Y0086606D03*
X0282107Y0086606D03*
X0282383Y0086606D03*
X0282461Y0086606D03*
X0282580Y0086606D03*
D163*
X0282717Y0086665D03*
X0347745Y0145126D03*
X0345855Y0147724D03*
X0350217Y0158665D03*
X0335217Y0164547D03*
X0334745Y0164547D03*
D164*
X0335080Y0167323D03*
X0327580Y0171610D03*
X0347520Y0171717D03*
X0350080Y0171717D03*
X0350355Y0171598D03*
X0348465Y0167228D03*
X0350355Y0158606D03*
X0350355Y0155890D03*
X0348355Y0145303D03*
X0351162Y0142634D03*
X0352383Y0142634D03*
X0351162Y0140035D03*
X0351162Y0137437D03*
X0351910Y0134957D03*
X0351162Y0130587D03*
X0351083Y0130587D03*
X0347410Y0135146D03*
X0346662Y0135264D03*
X0347883Y0138807D03*
X0348355Y0138807D03*
X0280965Y0098063D03*
X0280965Y0095228D03*
X0282855Y0086606D03*
D165*
X0324076Y0165882D03*
X0328524Y0165882D03*
X0335473Y0166555D03*
X0339430Y0166291D03*
X0343209Y0166291D03*
D166*
X0343406Y0166291D03*
X0335788Y0166555D03*
X0328643Y0165882D03*
X0323957Y0165882D03*
D167*
X0335906Y0166555D03*
X0339076Y0166291D03*
X0343524Y0166291D03*
D168*
X0232300Y0176300D03*
D169*
X0226544Y0135043D03*
D170*
X0346457Y0163744D03*
X0351143Y0163744D03*
D171*
X0351024Y0163744D03*
X0346576Y0163744D03*
D172*
X0346674Y0163744D03*
D173*
X0346792Y0163744D03*
D174*
X0346930Y0163744D03*
X0350709Y0163744D03*
X0283209Y0092098D03*
X0279430Y0092098D03*
D175*
X0283406Y0092217D03*
X0347048Y0163744D03*
X0350591Y0163744D03*
D176*
X0347146Y0163744D03*
D177*
X0347245Y0160791D03*
X0342973Y0166291D03*
X0328406Y0165882D03*
D178*
X0347245Y0169886D03*
D179*
X0347383Y0165634D03*
X0350217Y0163626D03*
X0342245Y0165228D03*
X0342245Y0167236D03*
X0341772Y0167236D03*
X0341300Y0167236D03*
X0340828Y0167236D03*
X0345383Y0147724D03*
X0347745Y0132843D03*
X0352245Y0133008D03*
X0348217Y0127528D03*
X0346328Y0127528D03*
X0279883Y0093634D03*
X0282717Y0091626D03*
D180*
X0348190Y0171067D03*
X0348465Y0171067D03*
X0349410Y0171067D03*
D181*
X0349272Y0171067D03*
X0348328Y0171067D03*
D182*
X0348583Y0171657D03*
X0348662Y0171657D03*
X0348938Y0171657D03*
X0349017Y0171657D03*
X0340690Y0171370D03*
D183*
X0340828Y0168772D03*
X0348800Y0163154D03*
X0326300Y0164937D03*
X0309922Y0216831D03*
X0311300Y0224272D03*
X0311300Y0226201D03*
X0301300Y0224220D03*
X0281300Y0091154D03*
D184*
X0347745Y0124811D03*
X0352245Y0127811D03*
X0348800Y0171657D03*
D185*
X0349135Y0171598D03*
X0341910Y0171311D03*
X0324745Y0165823D03*
D186*
X0326772Y0167772D03*
X0342245Y0163457D03*
X0349745Y0163508D03*
X0346328Y0148551D03*
X0346328Y0147016D03*
X0346328Y0144535D03*
X0346800Y0144535D03*
X0347272Y0144535D03*
X0345855Y0144535D03*
X0345383Y0143591D03*
X0345855Y0143354D03*
X0346328Y0143118D03*
X0346800Y0142882D03*
X0347272Y0142646D03*
X0347745Y0142409D03*
X0347745Y0141228D03*
X0348217Y0141228D03*
X0347272Y0141228D03*
X0346800Y0141228D03*
X0351772Y0140803D03*
X0352245Y0140803D03*
X0352717Y0140803D03*
X0352245Y0138205D03*
X0351772Y0138205D03*
X0346800Y0133551D03*
X0347272Y0133315D03*
X0347272Y0132370D03*
X0347272Y0129299D03*
X0345855Y0129299D03*
X0347272Y0126819D03*
X0346800Y0125402D03*
X0351300Y0127220D03*
X0351772Y0129937D03*
X0352245Y0129937D03*
X0352717Y0129937D03*
X0352245Y0131472D03*
X0351772Y0131472D03*
X0351772Y0132772D03*
X0350355Y0132772D03*
X0351772Y0143283D03*
X0282245Y0091508D03*
X0302127Y0216858D03*
X0302402Y0218630D03*
X0300749Y0222921D03*
X0302127Y0224575D03*
X0302127Y0225953D03*
X0302678Y0227606D03*
X0300473Y0229260D03*
X0300473Y0232685D03*
X0300473Y0233945D03*
X0302954Y0233945D03*
X0310473Y0233445D03*
X0310473Y0230138D03*
X0312954Y0228878D03*
X0312127Y0225846D03*
X0312127Y0224626D03*
X0311024Y0222815D03*
X0312402Y0218563D03*
D187*
X0327717Y0167594D03*
X0324883Y0166650D03*
X0324883Y0164996D03*
X0340828Y0165287D03*
X0341300Y0165287D03*
X0342717Y0165287D03*
X0350217Y0165575D03*
X0345855Y0141051D03*
X0347745Y0129476D03*
X0282717Y0093575D03*
D188*
X0282855Y0091685D03*
X0282855Y0084244D03*
X0282580Y0084244D03*
X0282461Y0084244D03*
X0282383Y0084244D03*
X0282107Y0084244D03*
X0282028Y0084244D03*
X0281910Y0084244D03*
X0281635Y0084244D03*
X0281517Y0084244D03*
X0281438Y0084244D03*
X0281162Y0084244D03*
X0281083Y0084244D03*
X0280965Y0084244D03*
X0280690Y0084244D03*
X0280572Y0084244D03*
X0280493Y0084244D03*
X0280217Y0084244D03*
X0280099Y0084244D03*
X0280020Y0084244D03*
X0280020Y0099362D03*
X0282580Y0099362D03*
X0346190Y0124870D03*
X0350690Y0127752D03*
X0347607Y0132783D03*
X0346583Y0140933D03*
X0346072Y0140933D03*
X0347410Y0147665D03*
X0350355Y0163685D03*
X0342855Y0165287D03*
X0341910Y0165169D03*
X0341635Y0165169D03*
X0327855Y0167594D03*
D189*
X0342855Y0167236D03*
X0350355Y0165634D03*
X0345520Y0147724D03*
X0346190Y0140874D03*
X0346465Y0140874D03*
X0347528Y0132843D03*
X0350690Y0132890D03*
X0346190Y0129417D03*
X0348080Y0127528D03*
X0282855Y0093634D03*
X0309784Y0212421D03*
X0301713Y0220362D03*
X0301989Y0222567D03*
X0302265Y0222567D03*
D190*
X0350473Y0163744D03*
X0283643Y0092335D03*
X0278957Y0092335D03*
D191*
X0282973Y0091980D03*
X0350788Y0163744D03*
D192*
X0350906Y0163744D03*
D193*
X0343643Y0166291D03*
X0339745Y0164992D03*
X0338957Y0166291D03*
D194*
X0339174Y0166291D03*
D195*
X0339292Y0166291D03*
D196*
X0339548Y0166291D03*
X0343091Y0166291D03*
D197*
X0339646Y0166291D03*
X0324174Y0165882D03*
D198*
X0340828Y0171311D03*
D199*
X0341083Y0171193D03*
X0341635Y0171193D03*
X0313091Y0213031D03*
D200*
X0341162Y0171134D03*
X0341517Y0171134D03*
D201*
X0341300Y0171075D03*
D202*
X0341438Y0171075D03*
D203*
X0341772Y0171252D03*
D204*
X0283524Y0092276D03*
X0279076Y0092276D03*
D205*
X0279174Y0092217D03*
D206*
X0279292Y0092157D03*
D207*
X0279548Y0092039D03*
X0283091Y0092039D03*
D208*
X0279646Y0091980D03*
D209*
X0279745Y0097709D03*
D210*
X0279883Y0099421D03*
X0282717Y0099421D03*
X0346328Y0124811D03*
X0350828Y0127811D03*
X0350828Y0135016D03*
X0346328Y0135323D03*
X0346328Y0140874D03*
X0301851Y0220362D03*
X0302127Y0222567D03*
X0299646Y0227803D03*
D211*
X0299784Y0221189D03*
X0300335Y0220913D03*
X0309784Y0221240D03*
X0310335Y0220965D03*
X0312816Y0222343D03*
X0312265Y0216280D03*
X0310335Y0216280D03*
X0310335Y0235846D03*
X0345599Y0147724D03*
X0346465Y0135323D03*
X0348080Y0135323D03*
X0350965Y0135016D03*
X0350965Y0132890D03*
X0351083Y0132890D03*
X0351162Y0132890D03*
X0351083Y0127811D03*
X0347961Y0127528D03*
X0346583Y0127528D03*
X0346583Y0129417D03*
X0346662Y0129417D03*
X0346465Y0129417D03*
X0346583Y0124811D03*
X0282855Y0099421D03*
D212*
X0283288Y0092157D03*
D213*
X0288308Y0090764D03*
X0294292Y0090764D03*
X0273662Y0228976D03*
X0268938Y0228976D03*
D214*
X0269095Y0229055D03*
X0273505Y0229055D03*
X0288465Y0090685D03*
X0294135Y0090685D03*
D215*
X0324292Y0165882D03*
D216*
X0324430Y0165882D03*
X0328209Y0165882D03*
D217*
X0328091Y0165882D03*
X0324548Y0165882D03*
D218*
X0324646Y0165882D03*
D219*
X0324745Y0161689D03*
X0299509Y0214634D03*
D220*
X0324745Y0170016D03*
D221*
X0327973Y0165882D03*
D222*
X0328288Y0165882D03*
D223*
X0254450Y0231323D03*
X0254292Y0231323D03*
X0254135Y0231323D03*
X0253977Y0231323D03*
X0253820Y0231323D03*
X0253662Y0231323D03*
X0253505Y0231323D03*
X0249095Y0231323D03*
X0248938Y0231323D03*
X0248780Y0231323D03*
X0248623Y0231323D03*
X0248465Y0231323D03*
X0248308Y0231323D03*
X0248150Y0231323D03*
D224*
X0288150Y0232717D03*
X0294450Y0232717D03*
D225*
X0294292Y0232638D03*
X0288308Y0232638D03*
D226*
X0288465Y0232480D03*
X0294135Y0232480D03*
D227*
X0293977Y0232402D03*
X0288623Y0232402D03*
D228*
X0289725Y0231850D03*
D229*
X0289883Y0231772D03*
D230*
X0290198Y0231614D03*
D231*
X0293820Y0232323D03*
D232*
X0291812Y0222799D02*
X0291457Y0222878D01*
X0291064Y0222878D01*
X0290631Y0222799D01*
X0290198Y0222563D01*
X0289843Y0222287D01*
X0289646Y0221972D01*
X0289528Y0221618D01*
X0289528Y0221303D01*
X0289607Y0220949D01*
X0289804Y0220594D01*
X0290080Y0220280D01*
X0290394Y0219925D01*
X0290670Y0219650D01*
X0290788Y0219335D01*
X0290788Y0219059D01*
X0290709Y0218823D01*
X0290552Y0218626D01*
X0290316Y0218469D01*
X0290001Y0218390D01*
X0289686Y0218390D01*
X0289489Y0218429D01*
X0289292Y0218508D01*
X0289056Y0218744D01*
X0288977Y0218862D01*
X0288938Y0218980D01*
X0288938Y0219138D01*
X0288977Y0219256D01*
X0289213Y0219492D01*
X0289331Y0219531D01*
X0289489Y0219610D01*
X0289528Y0219650D01*
X0289371Y0219728D01*
X0288898Y0219728D01*
X0288662Y0219689D01*
X0288465Y0219650D01*
X0288269Y0219571D01*
X0288111Y0219453D01*
X0287914Y0219295D01*
X0287678Y0218902D01*
X0287599Y0218626D01*
X0287560Y0218311D01*
X0287560Y0212917D01*
X0287757Y0213114D01*
X0287875Y0213311D01*
X0288072Y0213508D01*
X0288269Y0213744D01*
X0288741Y0214217D01*
X0289213Y0214768D01*
X0289607Y0215161D01*
X0290001Y0215398D01*
X0290237Y0215437D01*
X0290985Y0215437D01*
X0291457Y0215516D01*
X0291891Y0215634D01*
X0292284Y0215791D01*
X0292678Y0216028D01*
X0292993Y0216303D01*
X0293308Y0216618D01*
X0293583Y0216972D01*
X0293977Y0217681D01*
X0294174Y0218429D01*
X0294213Y0219098D01*
X0294095Y0219728D01*
X0293898Y0220319D01*
X0293623Y0220752D01*
X0293308Y0221106D01*
X0292993Y0221303D01*
X0292993Y0220949D01*
X0292954Y0220831D01*
X0292914Y0220752D01*
X0292796Y0220634D01*
X0292678Y0220594D01*
X0292560Y0220594D01*
X0292245Y0220673D01*
X0292087Y0220752D01*
X0291969Y0220831D01*
X0291812Y0220949D01*
X0291576Y0221185D01*
X0291418Y0221421D01*
X0291379Y0221579D01*
X0291379Y0221815D01*
X0291418Y0221933D01*
X0291457Y0222012D01*
X0291536Y0222130D01*
X0291694Y0222248D01*
X0291851Y0222327D01*
X0292048Y0222366D01*
X0292206Y0222406D01*
X0292442Y0222406D01*
X0292520Y0222366D01*
X0292560Y0222366D01*
X0292520Y0222406D01*
X0292363Y0222524D01*
X0291812Y0222799D01*
X0291884Y0222763D02*
X0290565Y0222763D01*
X0290071Y0222465D02*
X0292442Y0222465D01*
X0291584Y0222166D02*
X0289767Y0222166D01*
X0289612Y0221868D02*
X0291396Y0221868D01*
X0291381Y0221569D02*
X0289528Y0221569D01*
X0289536Y0221271D02*
X0291519Y0221271D01*
X0291789Y0220972D02*
X0289602Y0220972D01*
X0289760Y0220674D02*
X0292244Y0220674D01*
X0292836Y0220674D02*
X0293673Y0220674D01*
X0293863Y0220375D02*
X0289996Y0220375D01*
X0290260Y0220077D02*
X0293979Y0220077D01*
X0294079Y0219778D02*
X0290542Y0219778D01*
X0290734Y0219479D02*
X0294142Y0219479D01*
X0294198Y0219181D02*
X0290788Y0219181D01*
X0290729Y0218882D02*
X0294201Y0218882D01*
X0294183Y0218584D02*
X0290489Y0218584D01*
X0289216Y0218584D02*
X0287594Y0218584D01*
X0287560Y0218285D02*
X0294136Y0218285D01*
X0294058Y0217987D02*
X0287560Y0217987D01*
X0287560Y0217688D02*
X0293979Y0217688D01*
X0293815Y0217390D02*
X0287560Y0217390D01*
X0287560Y0217091D02*
X0293650Y0217091D01*
X0293444Y0216793D02*
X0287560Y0216793D01*
X0287560Y0216494D02*
X0293184Y0216494D01*
X0292870Y0216196D02*
X0287560Y0216196D01*
X0287560Y0215897D02*
X0292461Y0215897D01*
X0291762Y0215599D02*
X0287560Y0215599D01*
X0287560Y0215300D02*
X0289839Y0215300D01*
X0289447Y0215002D02*
X0287560Y0215002D01*
X0287560Y0214703D02*
X0289158Y0214703D01*
X0288902Y0214405D02*
X0287560Y0214405D01*
X0287560Y0214106D02*
X0288631Y0214106D01*
X0288332Y0213808D02*
X0287560Y0213808D01*
X0287560Y0213509D02*
X0288073Y0213509D01*
X0287815Y0213211D02*
X0287560Y0213211D01*
X0287672Y0218882D02*
X0288970Y0218882D01*
X0288952Y0219181D02*
X0287846Y0219181D01*
X0288147Y0219479D02*
X0289201Y0219479D01*
X0292993Y0220972D02*
X0293427Y0220972D01*
X0293045Y0221271D02*
X0292993Y0221271D01*
D233*
X0319765Y0114331D03*
D234*
X0320749Y0115709D02*
X0313072Y0115709D01*
X0320749Y0115709D02*
X0320749Y0125354D01*
X0259528Y0115709D02*
X0251851Y0115709D01*
X0251851Y0125354D01*
X0251851Y0194646D02*
X0251851Y0204291D01*
X0259528Y0204291D01*
X0313072Y0204291D02*
X0320749Y0204291D01*
X0320749Y0194646D01*
D235*
X0204328Y0163150D03*
X0204328Y0162992D03*
X0204328Y0162835D03*
X0204328Y0162677D03*
X0204328Y0162520D03*
X0204328Y0162362D03*
X0204328Y0162205D03*
X0204328Y0157795D03*
X0204328Y0157638D03*
X0204328Y0157480D03*
X0204328Y0157323D03*
X0204328Y0157165D03*
X0204328Y0157008D03*
X0204328Y0156850D03*
D236*
X0210312Y0157953D03*
X0198343Y0162047D03*
X0205875Y0190000D03*
X0210599Y0190472D03*
X0206347Y0200000D03*
X0197843Y0197953D03*
X0202135Y0222740D03*
X0202135Y0225102D03*
X0198355Y0226047D03*
X0194733Y0224000D03*
D237*
X0206454Y0162047D03*
D238*
X0210469Y0161890D03*
X0201020Y0160630D03*
X0201020Y0160472D03*
X0198186Y0161890D03*
X0201780Y0177953D03*
X0205245Y0177953D03*
X0206190Y0179528D03*
X0205875Y0189843D03*
X0210127Y0191260D03*
X0210284Y0191102D03*
X0201780Y0199843D03*
X0201780Y0200000D03*
X0209969Y0201890D03*
X0212438Y0217740D03*
X0212438Y0219000D03*
X0215902Y0218843D03*
X0202202Y0218528D03*
X0202202Y0218370D03*
X0202292Y0222425D03*
X0202292Y0225417D03*
X0194576Y0225417D03*
X0194576Y0223528D03*
X0194576Y0223370D03*
X0194576Y0223213D03*
X0194576Y0223055D03*
X0190548Y0220417D03*
X0190548Y0217583D03*
D239*
X0189367Y0218055D03*
X0189209Y0218213D03*
X0189209Y0219630D03*
X0189367Y0219787D03*
X0192989Y0218843D03*
X0193146Y0217898D03*
X0193934Y0216953D03*
X0194879Y0217898D03*
X0194879Y0218843D03*
X0196454Y0218843D03*
X0195757Y0222583D03*
X0195757Y0224157D03*
X0195757Y0224945D03*
X0200796Y0224472D03*
X0200954Y0224787D03*
X0204733Y0225575D03*
X0208040Y0225575D03*
X0205587Y0219787D03*
X0204643Y0218685D03*
X0204643Y0218055D03*
X0204800Y0217898D03*
X0205587Y0216953D03*
X0207792Y0218843D03*
X0211572Y0218843D03*
X0211572Y0217898D03*
X0213304Y0217898D03*
X0213461Y0218055D03*
X0213461Y0218685D03*
X0213304Y0218843D03*
X0201493Y0217740D03*
X0206426Y0201890D03*
X0205639Y0200315D03*
X0204064Y0198583D03*
X0209891Y0200945D03*
X0205954Y0191890D03*
X0205166Y0190315D03*
X0205639Y0189213D03*
X0203591Y0188583D03*
X0202017Y0190315D03*
X0201072Y0191890D03*
X0203591Y0191417D03*
X0203591Y0180630D03*
X0201702Y0179528D03*
X0201544Y0179843D03*
X0201387Y0180157D03*
X0199497Y0179370D03*
X0205796Y0180630D03*
X0207371Y0179370D03*
X0202044Y0161890D03*
X0204564Y0161260D03*
X0204249Y0158583D03*
X0204249Y0158425D03*
X0202044Y0157953D03*
X0200469Y0159055D03*
X0208343Y0159213D03*
X0208343Y0160630D03*
D240*
X0211020Y0160787D03*
X0211020Y0160945D03*
X0211020Y0159213D03*
X0211020Y0159055D03*
X0204406Y0157953D03*
X0204406Y0161890D03*
X0197635Y0160945D03*
X0197635Y0160787D03*
X0197635Y0160630D03*
X0197635Y0159370D03*
X0197635Y0159213D03*
X0197635Y0159055D03*
X0197292Y0178425D03*
X0197292Y0179370D03*
X0197292Y0180787D03*
X0197292Y0180945D03*
X0197292Y0181102D03*
X0197292Y0181260D03*
X0197292Y0181417D03*
X0203591Y0181260D03*
X0206111Y0180472D03*
X0209733Y0180472D03*
X0209733Y0180315D03*
X0209733Y0179843D03*
X0209733Y0179685D03*
X0209733Y0178425D03*
X0209733Y0181260D03*
X0209733Y0181417D03*
X0209891Y0187953D03*
X0203591Y0188268D03*
X0197292Y0188110D03*
X0197292Y0187953D03*
X0197292Y0191890D03*
X0203591Y0191732D03*
X0206111Y0192047D03*
X0210363Y0198268D03*
X0209418Y0199213D03*
X0210048Y0201417D03*
X0204064Y0201732D03*
X0201229Y0198740D03*
X0201229Y0198583D03*
X0201229Y0198110D03*
X0197135Y0201260D03*
X0193934Y0217110D03*
X0193934Y0219630D03*
X0205587Y0219630D03*
X0205587Y0217110D03*
X0212517Y0217110D03*
X0212517Y0219630D03*
X0207725Y0224787D03*
X0206308Y0223843D03*
X0205048Y0224787D03*
D241*
X0191572Y0218055D03*
X0202438Y0216795D03*
X0206269Y0201575D03*
X0206269Y0201417D03*
X0206111Y0201260D03*
X0205954Y0200945D03*
X0206111Y0198740D03*
X0206111Y0197953D03*
X0205954Y0191575D03*
X0205796Y0191417D03*
X0205639Y0191260D03*
X0205639Y0191102D03*
X0207371Y0190945D03*
X0205639Y0188740D03*
X0203591Y0188898D03*
X0201544Y0191102D03*
X0201387Y0191260D03*
X0201229Y0191575D03*
X0201072Y0181575D03*
X0201229Y0181260D03*
X0201387Y0180945D03*
X0201387Y0180787D03*
X0205796Y0181102D03*
X0205796Y0181260D03*
X0205954Y0181575D03*
X0206454Y0161890D03*
X0204879Y0160472D03*
X0203934Y0159370D03*
X0202202Y0160315D03*
X0202202Y0161102D03*
X0202202Y0161260D03*
X0202202Y0161417D03*
X0202202Y0161575D03*
X0202202Y0158268D03*
X0206454Y0158110D03*
X0208028Y0158898D03*
D242*
X0210627Y0161732D03*
X0198028Y0161732D03*
X0210284Y0188740D03*
X0209339Y0198898D03*
X0201623Y0199528D03*
X0201623Y0200472D03*
X0190706Y0217268D03*
X0202044Y0218055D03*
X0202202Y0217583D03*
X0202292Y0222268D03*
X0194418Y0225732D03*
X0212438Y0219157D03*
X0212438Y0217583D03*
X0215745Y0219315D03*
D243*
X0214957Y0219787D03*
X0214957Y0216953D03*
X0216847Y0216953D03*
X0210076Y0216953D03*
X0210076Y0219787D03*
X0210076Y0221205D03*
X0208119Y0221953D03*
X0207871Y0220732D03*
X0206139Y0218843D03*
X0206139Y0217898D03*
X0204654Y0221953D03*
X0206387Y0223055D03*
X0204654Y0225890D03*
X0203237Y0224945D03*
X0202292Y0226047D03*
X0198355Y0221953D03*
X0198894Y0219787D03*
X0200154Y0219787D03*
X0198894Y0216953D03*
X0196375Y0216953D03*
X0196375Y0219787D03*
X0195835Y0221953D03*
X0193631Y0221953D03*
X0191493Y0219945D03*
X0190706Y0221047D03*
X0203985Y0201102D03*
X0205875Y0200787D03*
X0206032Y0201102D03*
X0206347Y0201732D03*
X0207765Y0200945D03*
X0209654Y0200472D03*
X0209654Y0200315D03*
X0209654Y0200157D03*
X0209654Y0200000D03*
X0206032Y0198898D03*
X0203985Y0198898D03*
X0201150Y0191732D03*
X0201623Y0190945D03*
X0201780Y0190787D03*
X0203513Y0191102D03*
X0205402Y0190787D03*
X0205560Y0190945D03*
X0205560Y0188898D03*
X0205717Y0187953D03*
X0201465Y0187953D03*
X0201465Y0188898D03*
X0200993Y0181732D03*
X0201465Y0180630D03*
X0199576Y0180945D03*
X0199576Y0178898D03*
X0203513Y0180000D03*
X0203513Y0180157D03*
X0205717Y0180787D03*
X0205717Y0180945D03*
X0206032Y0181732D03*
X0207450Y0180945D03*
X0207450Y0178898D03*
X0202123Y0161732D03*
X0202123Y0160945D03*
X0204013Y0159213D03*
X0204013Y0159055D03*
X0204800Y0160630D03*
X0206375Y0157953D03*
X0200548Y0158898D03*
D244*
X0200312Y0159370D03*
X0200312Y0159528D03*
X0204406Y0161732D03*
X0208501Y0160315D03*
X0208501Y0160157D03*
X0208501Y0160000D03*
X0208501Y0159843D03*
X0208501Y0159685D03*
X0205166Y0178898D03*
X0205166Y0179055D03*
X0205324Y0179370D03*
X0203591Y0180945D03*
X0201387Y0180000D03*
X0201859Y0179055D03*
X0201859Y0178898D03*
X0203591Y0188425D03*
X0202017Y0189843D03*
X0202017Y0190000D03*
X0202017Y0190157D03*
X0201859Y0189685D03*
X0201702Y0189528D03*
X0203591Y0191575D03*
X0205166Y0190157D03*
X0204064Y0198425D03*
X0205639Y0200157D03*
X0204064Y0201575D03*
X0210206Y0198583D03*
X0208265Y0217268D03*
X0208265Y0217425D03*
X0208265Y0217583D03*
X0202371Y0221953D03*
X0201269Y0222898D03*
X0201111Y0224945D03*
X0204891Y0225102D03*
X0204891Y0225260D03*
X0207883Y0225260D03*
X0207883Y0225102D03*
X0190627Y0216953D03*
X0189524Y0217898D03*
D245*
X0193934Y0217425D03*
X0193934Y0219315D03*
X0202280Y0219315D03*
X0202280Y0217425D03*
X0205430Y0217583D03*
X0205430Y0217740D03*
X0205430Y0219000D03*
X0205430Y0219157D03*
X0212517Y0219315D03*
X0212517Y0217425D03*
X0215666Y0219472D03*
X0210048Y0201732D03*
X0206269Y0199685D03*
X0204064Y0202047D03*
X0201544Y0200630D03*
X0201544Y0199370D03*
X0203591Y0192047D03*
X0205796Y0189685D03*
X0205166Y0178110D03*
X0201859Y0178110D03*
X0197607Y0177953D03*
X0209418Y0177953D03*
X0210706Y0161575D03*
X0210706Y0158268D03*
X0197950Y0158268D03*
X0197950Y0161575D03*
D246*
X0200391Y0159213D03*
X0204328Y0158268D03*
X0204485Y0161417D03*
X0204485Y0161575D03*
X0208422Y0160472D03*
X0208422Y0159528D03*
X0208422Y0159370D03*
X0205245Y0179213D03*
X0203513Y0180787D03*
X0201623Y0179685D03*
X0201780Y0179370D03*
X0201780Y0179213D03*
X0199733Y0187953D03*
X0199733Y0188110D03*
X0201623Y0189370D03*
X0206032Y0199213D03*
X0203985Y0201417D03*
X0209497Y0199370D03*
X0210127Y0198740D03*
X0209969Y0201102D03*
X0212438Y0216953D03*
X0212438Y0219787D03*
X0208343Y0217110D03*
X0204721Y0218843D03*
X0202359Y0219787D03*
X0201032Y0223055D03*
X0204812Y0225417D03*
X0206387Y0223528D03*
X0207961Y0225417D03*
X0194261Y0226047D03*
X0194013Y0219787D03*
X0189446Y0219945D03*
D247*
X0190627Y0217110D03*
X0193934Y0217268D03*
X0193934Y0219472D03*
X0196926Y0219000D03*
X0199603Y0219000D03*
X0199603Y0219157D03*
X0199603Y0219315D03*
X0199603Y0219472D03*
X0199603Y0219630D03*
X0202371Y0222110D03*
X0205206Y0224315D03*
X0207568Y0224315D03*
X0205587Y0219472D03*
X0205587Y0217268D03*
X0202438Y0217110D03*
X0212517Y0217268D03*
X0210048Y0201575D03*
X0209418Y0199055D03*
X0204064Y0201890D03*
X0201387Y0200945D03*
X0201387Y0199055D03*
X0201229Y0197953D03*
X0203591Y0191890D03*
X0210206Y0188425D03*
X0209576Y0181732D03*
X0209576Y0180000D03*
X0209576Y0178110D03*
X0205954Y0179843D03*
X0205954Y0180000D03*
X0205166Y0178268D03*
X0201859Y0178268D03*
X0197450Y0178110D03*
X0197450Y0180630D03*
X0197450Y0181732D03*
X0197792Y0161417D03*
X0197792Y0161260D03*
X0197792Y0158583D03*
X0210863Y0158583D03*
X0210863Y0161260D03*
D248*
X0210784Y0161417D03*
X0210784Y0158425D03*
X0197871Y0158425D03*
X0205875Y0179685D03*
X0203513Y0181732D03*
X0203513Y0181890D03*
X0209497Y0181890D03*
X0203513Y0187953D03*
X0210284Y0188583D03*
X0210442Y0197953D03*
X0203985Y0197953D03*
X0201465Y0199213D03*
X0201465Y0200787D03*
X0202359Y0217268D03*
X0202359Y0219472D03*
X0205509Y0219315D03*
X0205509Y0217425D03*
X0208028Y0219000D03*
X0208028Y0219157D03*
X0208028Y0219315D03*
X0208028Y0219472D03*
X0208028Y0219630D03*
X0212438Y0219472D03*
X0215587Y0219630D03*
X0202292Y0225732D03*
X0194418Y0225890D03*
X0190706Y0220732D03*
X0197005Y0219630D03*
X0197005Y0219472D03*
X0197005Y0219315D03*
X0197005Y0219157D03*
X0197528Y0181890D03*
D249*
X0197371Y0181575D03*
X0197371Y0178268D03*
X0201938Y0178425D03*
X0205087Y0178425D03*
X0206032Y0180157D03*
X0206032Y0180315D03*
X0203513Y0181417D03*
X0203513Y0181575D03*
X0209654Y0181575D03*
X0209654Y0180157D03*
X0209654Y0178268D03*
X0209969Y0188110D03*
X0210127Y0188268D03*
X0205717Y0189528D03*
X0203513Y0188110D03*
X0203985Y0198110D03*
X0206190Y0199528D03*
X0210442Y0198110D03*
X0201308Y0198898D03*
X0201308Y0201102D03*
X0202359Y0219630D03*
X0208028Y0219787D03*
X0206387Y0224000D03*
X0207646Y0224472D03*
X0207646Y0224630D03*
X0205127Y0224630D03*
X0205127Y0224472D03*
X0210942Y0161102D03*
X0210942Y0158898D03*
X0210942Y0158740D03*
X0197713Y0158740D03*
X0197713Y0158898D03*
X0197713Y0161102D03*
D250*
X0199918Y0160315D03*
X0200548Y0160945D03*
X0204643Y0161102D03*
X0204170Y0158740D03*
X0208265Y0159055D03*
X0208265Y0160787D03*
X0207450Y0179055D03*
X0207450Y0179213D03*
X0207292Y0180630D03*
X0207450Y0180787D03*
X0206032Y0181890D03*
X0203513Y0180472D03*
X0203513Y0180315D03*
X0201465Y0180315D03*
X0200993Y0181890D03*
X0199576Y0180787D03*
X0199418Y0180630D03*
X0199576Y0179213D03*
X0199576Y0179055D03*
X0199733Y0188268D03*
X0199733Y0188425D03*
X0199733Y0188583D03*
X0199733Y0190157D03*
X0199733Y0190315D03*
X0199733Y0190472D03*
X0199733Y0190630D03*
X0199733Y0190787D03*
X0201938Y0190472D03*
X0201623Y0189213D03*
X0205245Y0190472D03*
X0205560Y0189055D03*
X0207292Y0190315D03*
X0206032Y0199055D03*
X0205717Y0200472D03*
X0203985Y0201260D03*
X0207765Y0200630D03*
X0207765Y0200472D03*
X0209497Y0199685D03*
X0209497Y0199528D03*
X0209812Y0200787D03*
X0210076Y0217110D03*
X0210076Y0217268D03*
X0210076Y0217425D03*
X0210076Y0217583D03*
X0210076Y0217740D03*
X0210076Y0217898D03*
X0210076Y0218055D03*
X0210076Y0218213D03*
X0210076Y0218370D03*
X0210076Y0218528D03*
X0210076Y0218685D03*
X0210076Y0218843D03*
X0210076Y0219000D03*
X0210076Y0219157D03*
X0210076Y0219315D03*
X0210076Y0219472D03*
X0210076Y0219630D03*
X0210076Y0220575D03*
X0210076Y0220732D03*
X0210076Y0220890D03*
X0210076Y0221047D03*
X0208119Y0222110D03*
X0208119Y0222268D03*
X0208119Y0222425D03*
X0208119Y0222583D03*
X0208119Y0222740D03*
X0208119Y0222898D03*
X0208119Y0223055D03*
X0208119Y0223213D03*
X0208119Y0223370D03*
X0208119Y0223528D03*
X0208119Y0223685D03*
X0208119Y0223843D03*
X0208119Y0224000D03*
X0208119Y0225732D03*
X0206387Y0223370D03*
X0206387Y0223213D03*
X0204654Y0223213D03*
X0204654Y0223370D03*
X0204654Y0223528D03*
X0204654Y0223685D03*
X0204654Y0223843D03*
X0204654Y0224000D03*
X0204654Y0223055D03*
X0204654Y0222898D03*
X0204654Y0222740D03*
X0204654Y0222583D03*
X0204654Y0222425D03*
X0204654Y0222268D03*
X0204654Y0222110D03*
X0207871Y0220575D03*
X0207871Y0220417D03*
X0207871Y0220260D03*
X0207871Y0220102D03*
X0207871Y0219945D03*
X0207871Y0218685D03*
X0207871Y0218528D03*
X0207871Y0218370D03*
X0207871Y0218213D03*
X0207871Y0218055D03*
X0207871Y0217898D03*
X0204564Y0218213D03*
X0204564Y0218370D03*
X0204564Y0218528D03*
X0201414Y0218843D03*
X0201257Y0218685D03*
X0201414Y0217898D03*
X0199052Y0218843D03*
X0196375Y0218685D03*
X0196375Y0218528D03*
X0196375Y0218370D03*
X0196375Y0218213D03*
X0196375Y0218055D03*
X0196375Y0217898D03*
X0196375Y0217740D03*
X0196375Y0217583D03*
X0196375Y0217425D03*
X0196375Y0217268D03*
X0196375Y0217110D03*
X0194957Y0218055D03*
X0194957Y0218213D03*
X0194957Y0218370D03*
X0194957Y0218528D03*
X0194957Y0218685D03*
X0192910Y0218685D03*
X0192910Y0218528D03*
X0192910Y0218370D03*
X0192910Y0218213D03*
X0192910Y0218055D03*
X0189131Y0218370D03*
X0189131Y0218528D03*
X0188973Y0219000D03*
X0189131Y0219315D03*
X0189131Y0219472D03*
X0193631Y0222110D03*
X0193631Y0222268D03*
X0193631Y0222425D03*
X0193631Y0222583D03*
X0193631Y0222740D03*
X0193631Y0222898D03*
X0193631Y0224157D03*
X0193631Y0224315D03*
X0193631Y0224472D03*
X0193631Y0224630D03*
X0193631Y0224787D03*
X0193631Y0224945D03*
X0195835Y0224787D03*
X0195835Y0224630D03*
X0195835Y0224472D03*
X0195835Y0224315D03*
X0195678Y0222898D03*
X0195678Y0222740D03*
X0195835Y0222425D03*
X0195835Y0222268D03*
X0198355Y0222268D03*
X0198355Y0222425D03*
X0198355Y0222583D03*
X0198355Y0222740D03*
X0198355Y0222898D03*
X0198355Y0223055D03*
X0198355Y0223213D03*
X0198355Y0223370D03*
X0198355Y0223528D03*
X0198355Y0223685D03*
X0198355Y0223843D03*
X0198355Y0224000D03*
X0198355Y0224157D03*
X0198355Y0224315D03*
X0198355Y0224472D03*
X0198355Y0224630D03*
X0198355Y0224787D03*
X0198355Y0224945D03*
X0198355Y0225102D03*
X0200717Y0224315D03*
X0200717Y0224157D03*
X0200717Y0224000D03*
X0200717Y0223843D03*
X0200717Y0223685D03*
X0200717Y0223528D03*
X0200875Y0223370D03*
X0200875Y0223213D03*
X0200875Y0224630D03*
X0198355Y0222110D03*
X0204654Y0225732D03*
X0211493Y0218685D03*
X0211335Y0218370D03*
X0211493Y0218055D03*
X0213540Y0218213D03*
X0213540Y0218370D03*
X0213540Y0218528D03*
X0214957Y0218528D03*
X0214957Y0218685D03*
X0216847Y0218685D03*
X0216847Y0218528D03*
X0216847Y0218370D03*
X0216847Y0218213D03*
X0216847Y0218055D03*
X0216847Y0217898D03*
X0216847Y0217740D03*
X0216847Y0217583D03*
X0216847Y0217425D03*
X0216847Y0217268D03*
D251*
X0216926Y0217110D03*
X0214879Y0217110D03*
X0214879Y0217268D03*
X0214879Y0217425D03*
X0214879Y0217583D03*
X0214879Y0217740D03*
X0214879Y0217898D03*
X0214879Y0218055D03*
X0214879Y0218213D03*
X0214879Y0218370D03*
X0216139Y0219787D03*
X0211414Y0218528D03*
X0211414Y0218213D03*
X0209997Y0220417D03*
X0208040Y0225890D03*
X0203158Y0222898D03*
X0203225Y0218843D03*
X0203225Y0218685D03*
X0198973Y0218685D03*
X0198973Y0218528D03*
X0198973Y0218370D03*
X0198973Y0218213D03*
X0198973Y0218055D03*
X0198973Y0217898D03*
X0198973Y0217740D03*
X0198973Y0217583D03*
X0198973Y0217425D03*
X0198973Y0217268D03*
X0198973Y0217110D03*
X0197556Y0219787D03*
X0195914Y0222110D03*
X0191414Y0217898D03*
X0189052Y0218685D03*
X0189052Y0218843D03*
X0189052Y0219157D03*
X0208422Y0216953D03*
X0207843Y0200787D03*
X0207686Y0200315D03*
X0207686Y0200157D03*
X0209576Y0199843D03*
X0209733Y0200630D03*
X0205796Y0200630D03*
X0204064Y0198740D03*
X0205954Y0191732D03*
X0205324Y0190630D03*
X0203591Y0191260D03*
X0201859Y0190630D03*
X0201544Y0189055D03*
X0199654Y0188898D03*
X0199654Y0188740D03*
X0199654Y0190945D03*
X0203591Y0188740D03*
X0207213Y0190157D03*
X0207371Y0190472D03*
X0207371Y0190630D03*
X0207371Y0190787D03*
X0201387Y0180472D03*
X0204721Y0160945D03*
X0204721Y0160787D03*
X0204091Y0158898D03*
X0202202Y0158110D03*
X0199839Y0159685D03*
X0199839Y0159843D03*
X0199839Y0160000D03*
X0199839Y0160157D03*
X0208186Y0160945D03*
D252*
X0210548Y0158110D03*
X0201099Y0160787D03*
X0198107Y0158110D03*
X0197765Y0179685D03*
X0197765Y0179843D03*
X0197765Y0180000D03*
X0197765Y0180157D03*
X0197765Y0180315D03*
X0197765Y0180472D03*
X0197765Y0182047D03*
X0209261Y0182047D03*
X0210048Y0191417D03*
X0209891Y0191575D03*
X0209733Y0191732D03*
X0209576Y0191890D03*
X0206269Y0199843D03*
X0201702Y0199685D03*
X0201702Y0200157D03*
X0201702Y0200315D03*
X0190627Y0217425D03*
X0193934Y0217583D03*
X0193934Y0217740D03*
X0193934Y0219000D03*
X0193934Y0219157D03*
X0190627Y0220575D03*
X0194497Y0225575D03*
X0202371Y0225575D03*
X0202280Y0219157D03*
X0202280Y0219000D03*
X0202123Y0218213D03*
X0215824Y0219000D03*
X0215824Y0219157D03*
D253*
X0208186Y0217740D03*
X0202517Y0216953D03*
X0190706Y0220890D03*
X0202292Y0225890D03*
X0204969Y0224945D03*
X0206387Y0223685D03*
X0207804Y0224945D03*
X0206505Y0202047D03*
X0206032Y0199370D03*
X0203985Y0198268D03*
X0201150Y0198268D03*
X0201150Y0198425D03*
X0197056Y0201417D03*
X0197056Y0201575D03*
X0197056Y0201732D03*
X0197056Y0201890D03*
X0209969Y0201260D03*
X0210284Y0198425D03*
X0197213Y0191732D03*
X0197213Y0191575D03*
X0197213Y0191417D03*
X0197213Y0191260D03*
X0197213Y0191102D03*
X0197213Y0190945D03*
X0197213Y0190787D03*
X0197213Y0190630D03*
X0197213Y0190472D03*
X0197213Y0190315D03*
X0197213Y0190157D03*
X0197213Y0190000D03*
X0197213Y0189843D03*
X0197213Y0189685D03*
X0197213Y0189528D03*
X0197213Y0189370D03*
X0197213Y0189213D03*
X0197213Y0189055D03*
X0197213Y0188898D03*
X0197213Y0188740D03*
X0197213Y0188583D03*
X0197213Y0188425D03*
X0197213Y0188268D03*
X0205717Y0189370D03*
X0203513Y0181102D03*
X0205087Y0178740D03*
X0205087Y0178583D03*
X0201938Y0178583D03*
X0201938Y0178740D03*
X0197213Y0178740D03*
X0197213Y0178583D03*
X0197213Y0178898D03*
X0197213Y0179055D03*
X0197213Y0179213D03*
X0209812Y0179213D03*
X0209812Y0179370D03*
X0209812Y0179528D03*
X0209812Y0179055D03*
X0209812Y0178898D03*
X0209812Y0178740D03*
X0209812Y0178583D03*
X0209812Y0180630D03*
X0209812Y0180787D03*
X0209812Y0180945D03*
X0209812Y0181102D03*
X0211099Y0160630D03*
X0211099Y0160472D03*
X0211099Y0160315D03*
X0211099Y0160157D03*
X0211099Y0160000D03*
X0211099Y0159843D03*
X0211099Y0159685D03*
X0211099Y0159528D03*
X0211099Y0159370D03*
X0204328Y0158110D03*
X0197556Y0159528D03*
X0197556Y0159685D03*
X0197556Y0159843D03*
X0197556Y0160000D03*
X0197556Y0160157D03*
X0197556Y0160315D03*
X0197556Y0160472D03*
D254*
X0203776Y0159843D03*
X0203776Y0159685D03*
X0205036Y0160000D03*
X0207528Y0181102D03*
X0199654Y0181102D03*
X0201544Y0188110D03*
X0203591Y0189055D03*
X0203591Y0190787D03*
X0205639Y0188583D03*
X0205639Y0188268D03*
X0206111Y0198110D03*
X0206111Y0198268D03*
X0206111Y0198425D03*
X0206111Y0198583D03*
X0206217Y0218685D03*
X0208737Y0218843D03*
X0212517Y0219945D03*
X0202438Y0219945D03*
X0202371Y0221795D03*
X0197713Y0218843D03*
X0193934Y0219945D03*
X0191572Y0219787D03*
D255*
X0190469Y0220102D03*
X0190469Y0220260D03*
X0190469Y0217740D03*
X0194654Y0223685D03*
X0194654Y0223843D03*
X0194654Y0225102D03*
X0194654Y0225260D03*
X0202213Y0225260D03*
X0202213Y0222583D03*
X0197765Y0201102D03*
X0197765Y0200945D03*
X0197765Y0200787D03*
X0197765Y0200630D03*
X0197765Y0200472D03*
X0197765Y0200315D03*
X0197765Y0200157D03*
X0197765Y0200000D03*
X0197765Y0199843D03*
X0197765Y0199685D03*
X0197765Y0199528D03*
X0197765Y0199370D03*
X0197765Y0199213D03*
X0197765Y0199055D03*
X0197765Y0198898D03*
X0197765Y0198740D03*
X0197765Y0198583D03*
X0197765Y0198425D03*
X0197765Y0198268D03*
X0197765Y0198110D03*
X0209261Y0192047D03*
X0210363Y0190945D03*
X0210363Y0190787D03*
X0210520Y0190630D03*
X0198265Y0157953D03*
D256*
X0272804Y0205673D03*
X0272804Y0205949D03*
X0272804Y0206500D03*
X0272804Y0206776D03*
X0272804Y0207051D03*
X0272804Y0209256D03*
X0272804Y0209531D03*
X0272804Y0209807D03*
X0272804Y0210083D03*
X0276662Y0210083D03*
X0276662Y0209807D03*
X0276662Y0209531D03*
X0276387Y0206776D03*
X0276662Y0205949D03*
X0281072Y0206500D03*
X0281072Y0206776D03*
X0281072Y0207051D03*
X0281072Y0207327D03*
X0281072Y0207602D03*
X0281072Y0207878D03*
X0281072Y0208154D03*
X0281072Y0208705D03*
X0281072Y0208980D03*
X0281072Y0209256D03*
X0281072Y0209531D03*
X0281072Y0209807D03*
X0281072Y0210083D03*
X0281072Y0210909D03*
X0289615Y0212012D03*
X0292095Y0210083D03*
X0292095Y0209807D03*
X0292095Y0209531D03*
X0295678Y0209531D03*
X0295678Y0209807D03*
X0295678Y0210083D03*
X0289615Y0205949D03*
X0266190Y0207327D03*
X0266190Y0207602D03*
X0265914Y0207051D03*
X0262883Y0210083D03*
X0262883Y0210909D03*
X0264261Y0212602D03*
X0260402Y0210083D03*
X0260402Y0209807D03*
X0260127Y0209256D03*
X0256544Y0209256D03*
X0256544Y0209531D03*
X0256544Y0209807D03*
X0256544Y0210083D03*
X0256544Y0207051D03*
X0256544Y0206776D03*
X0256544Y0206500D03*
X0256544Y0205949D03*
X0253788Y0207051D03*
X0253788Y0207327D03*
X0253788Y0207602D03*
X0253788Y0207878D03*
X0249379Y0207878D03*
X0249379Y0208154D03*
X0249103Y0208980D03*
X0249379Y0209531D03*
X0249379Y0209807D03*
X0252135Y0212602D03*
D257*
X0253099Y0209531D03*
X0253375Y0208154D03*
X0250068Y0207051D03*
X0257509Y0212602D03*
X0265501Y0208154D03*
X0294989Y0208705D03*
D258*
X0289339Y0206500D03*
X0289064Y0206776D03*
X0288788Y0207051D03*
X0288513Y0207327D03*
X0288237Y0207602D03*
X0288237Y0210083D03*
X0289064Y0210909D03*
X0289064Y0211185D03*
X0273906Y0212602D03*
X0263158Y0209807D03*
D259*
X0280934Y0212602D03*
D260*
X0285894Y0212602D03*
X0264398Y0205122D03*
X0251997Y0205122D03*
D261*
X0262607Y0207602D03*
X0289615Y0212602D03*
D262*
X0285894Y0212012D03*
X0285894Y0211185D03*
X0285894Y0210909D03*
X0285894Y0210083D03*
X0285894Y0207602D03*
X0285894Y0207327D03*
X0285894Y0207051D03*
X0285894Y0206776D03*
X0285894Y0206500D03*
X0285894Y0205949D03*
X0285894Y0205673D03*
X0289753Y0205673D03*
X0280934Y0205673D03*
X0280934Y0205949D03*
X0276800Y0205673D03*
X0265501Y0210909D03*
X0260265Y0209531D03*
X0256406Y0205673D03*
X0249241Y0208705D03*
X0249241Y0209256D03*
X0293887Y0212602D03*
D263*
X0264398Y0212307D03*
X0251997Y0212307D03*
D264*
X0257646Y0212307D03*
D265*
X0274044Y0212307D03*
D266*
X0281072Y0212307D03*
X0281072Y0211480D03*
D267*
X0285894Y0211480D03*
X0285894Y0212307D03*
X0285894Y0210378D03*
D268*
X0289615Y0212307D03*
D269*
X0293887Y0212307D03*
X0294713Y0208449D03*
D270*
X0257784Y0207602D03*
X0251997Y0212012D03*
D271*
X0257922Y0212012D03*
X0264261Y0211185D03*
X0257922Y0207878D03*
X0252135Y0205949D03*
X0274182Y0212012D03*
X0293749Y0207051D03*
D272*
X0286997Y0208154D03*
X0286997Y0209531D03*
X0269359Y0207878D03*
X0269359Y0207602D03*
X0269359Y0207327D03*
X0269359Y0207051D03*
X0264398Y0212012D03*
D273*
X0280934Y0212012D03*
D274*
X0286859Y0209256D03*
X0293749Y0212012D03*
X0269497Y0206776D03*
X0264261Y0205673D03*
X0257371Y0207327D03*
X0263709Y0209531D03*
D275*
X0258060Y0211756D03*
X0251997Y0211756D03*
X0274320Y0211756D03*
D276*
X0264398Y0211756D03*
D277*
X0280934Y0211756D03*
D278*
X0285894Y0211756D03*
X0285894Y0210654D03*
X0285894Y0206244D03*
X0262745Y0210654D03*
D279*
X0259989Y0210654D03*
X0276524Y0210654D03*
X0289477Y0211756D03*
X0292233Y0210654D03*
X0295540Y0210654D03*
X0289477Y0206244D03*
D280*
X0293749Y0211756D03*
D281*
X0274457Y0211480D03*
X0274457Y0208449D03*
X0258198Y0208449D03*
X0258198Y0211480D03*
X0251859Y0211480D03*
D282*
X0264261Y0211480D03*
D283*
X0288513Y0210378D03*
X0289339Y0211480D03*
D284*
X0293887Y0211480D03*
D285*
X0294162Y0205673D03*
X0274595Y0208705D03*
X0274595Y0208980D03*
X0274595Y0210909D03*
X0274595Y0211185D03*
X0258335Y0210909D03*
X0258335Y0208980D03*
X0258335Y0208705D03*
X0251997Y0206500D03*
X0251721Y0211185D03*
D286*
X0258198Y0211185D03*
X0264261Y0206776D03*
X0264261Y0206500D03*
X0274457Y0207327D03*
X0274457Y0207602D03*
X0274457Y0208154D03*
X0294024Y0206776D03*
D287*
X0280934Y0211185D03*
D288*
X0274320Y0207878D03*
X0258060Y0208154D03*
X0293887Y0210909D03*
X0293887Y0211185D03*
D289*
X0294024Y0206500D03*
X0294024Y0205949D03*
X0251859Y0206776D03*
X0251583Y0210909D03*
D290*
X0249930Y0210654D03*
X0264261Y0205417D03*
X0288788Y0210654D03*
D291*
X0285757Y0205417D03*
X0281072Y0205417D03*
X0276662Y0205417D03*
X0272804Y0205417D03*
X0256544Y0205417D03*
X0253513Y0210654D03*
D292*
X0256544Y0210654D03*
X0256544Y0206244D03*
X0272804Y0206244D03*
X0276662Y0206244D03*
X0281072Y0206244D03*
X0281072Y0210654D03*
X0272804Y0210654D03*
D293*
X0265639Y0210654D03*
D294*
X0249517Y0210378D03*
D295*
X0253513Y0210378D03*
D296*
X0256544Y0210378D03*
X0260127Y0210378D03*
X0262607Y0210378D03*
X0272804Y0210378D03*
X0276662Y0210378D03*
X0281072Y0210378D03*
X0281072Y0208449D03*
X0292095Y0210378D03*
X0295678Y0210378D03*
X0249379Y0208449D03*
D297*
X0249517Y0207602D03*
X0249792Y0207327D03*
X0249517Y0210083D03*
X0262745Y0207051D03*
X0266052Y0207878D03*
X0276249Y0207051D03*
X0276524Y0206500D03*
X0276524Y0209256D03*
X0295265Y0208980D03*
X0295540Y0209256D03*
D298*
X0287135Y0209807D03*
X0287135Y0207878D03*
X0264812Y0208705D03*
X0264536Y0208980D03*
X0264261Y0209256D03*
X0264261Y0205949D03*
X0252135Y0205673D03*
D299*
X0253099Y0208705D03*
X0253099Y0208980D03*
X0253099Y0209256D03*
X0269359Y0208154D03*
X0286721Y0208705D03*
X0286721Y0208980D03*
X0293611Y0207602D03*
X0293887Y0207878D03*
D300*
X0292095Y0209256D03*
X0262607Y0207327D03*
D301*
X0253237Y0208449D03*
D302*
X0265087Y0208449D03*
X0286859Y0208449D03*
D303*
X0293198Y0207327D03*
X0294300Y0208154D03*
D304*
X0294024Y0205417D03*
X0252135Y0206244D03*
D305*
X0264261Y0206244D03*
D306*
X0294024Y0206244D03*
D307*
X0252135Y0205417D03*
D308*
X0289477Y0205417D03*
D309*
X0203513Y0192205D03*
X0203513Y0187795D03*
X0203513Y0183150D03*
X0203513Y0182992D03*
X0203513Y0182835D03*
X0203513Y0182677D03*
X0203513Y0182520D03*
X0203513Y0182362D03*
X0203513Y0182205D03*
X0203513Y0177795D03*
X0203513Y0177638D03*
X0203513Y0177480D03*
X0203513Y0177323D03*
X0203513Y0177165D03*
X0203513Y0177008D03*
X0203513Y0176850D03*
D310*
X0203513Y0182047D03*
D311*
X0198080Y0179528D03*
X0210520Y0190000D03*
X0210520Y0190157D03*
X0210520Y0190315D03*
X0209891Y0202047D03*
D312*
X0198355Y0225417D03*
X0198355Y0225575D03*
X0198355Y0225732D03*
X0198355Y0225890D03*
D313*
X0198355Y0225260D03*
X0210442Y0189843D03*
X0210442Y0189685D03*
D314*
X0206387Y0224157D03*
D315*
X0298544Y0224969D03*
X0304056Y0224969D03*
D316*
X0303918Y0224909D03*
X0298682Y0224909D03*
D317*
X0298820Y0224772D03*
X0303780Y0224772D03*
D318*
X0303643Y0224693D03*
X0298957Y0224693D03*
D319*
X0299095Y0224634D03*
X0303505Y0224634D03*
D320*
X0299233Y0224555D03*
D321*
X0299371Y0229732D03*
D322*
X0302265Y0225264D03*
X0302540Y0225264D03*
X0302816Y0225264D03*
X0299509Y0221130D03*
X0299509Y0218650D03*
X0309509Y0221181D03*
X0310887Y0216496D03*
X0302540Y0212705D03*
X0300060Y0212705D03*
X0313091Y0231772D03*
X0312816Y0235630D03*
D323*
X0299509Y0225933D03*
D324*
X0299509Y0230894D03*
X0309509Y0231772D03*
D325*
X0299509Y0234831D03*
D326*
X0310198Y0235846D03*
X0312402Y0235846D03*
X0300749Y0220638D03*
X0301576Y0220362D03*
X0302954Y0212921D03*
X0299646Y0212921D03*
X0309646Y0212421D03*
X0350828Y0142811D03*
X0352717Y0142811D03*
X0350828Y0139858D03*
X0350828Y0137260D03*
X0350828Y0132890D03*
X0351300Y0132890D03*
X0346800Y0129417D03*
X0346328Y0129417D03*
X0346800Y0127409D03*
X0347745Y0127409D03*
D327*
X0311851Y0213602D03*
X0310749Y0213602D03*
X0310473Y0216358D03*
X0312127Y0216358D03*
X0299646Y0218630D03*
X0301024Y0220441D03*
X0299646Y0221110D03*
X0302954Y0222370D03*
X0309646Y0221161D03*
X0310749Y0220610D03*
X0311024Y0220492D03*
X0312954Y0222421D03*
X0311851Y0229429D03*
X0310749Y0230807D03*
X0309646Y0231791D03*
X0301851Y0232016D03*
X0300749Y0233394D03*
D328*
X0301576Y0234142D03*
X0301851Y0234142D03*
X0302127Y0234142D03*
X0302402Y0234142D03*
X0311300Y0231437D03*
X0311024Y0228681D03*
X0310749Y0228681D03*
X0310473Y0228681D03*
X0310198Y0228681D03*
X0312127Y0228681D03*
X0312678Y0228681D03*
X0301576Y0226150D03*
X0299922Y0223118D03*
X0299646Y0223118D03*
X0309646Y0223169D03*
X0312954Y0220413D03*
X0310198Y0216831D03*
X0309646Y0216831D03*
X0302954Y0216780D03*
X0302402Y0216780D03*
D329*
X0302954Y0218571D03*
X0302678Y0222429D03*
X0299922Y0225185D03*
X0309922Y0225236D03*
X0310473Y0220827D03*
X0311576Y0220276D03*
X0312954Y0218622D03*
X0309646Y0218622D03*
X0311024Y0213661D03*
X0311300Y0213661D03*
X0311576Y0213661D03*
X0301576Y0229319D03*
X0301300Y0229319D03*
X0301024Y0229319D03*
X0299646Y0230972D03*
X0311024Y0233504D03*
X0311300Y0233504D03*
X0311576Y0233504D03*
D330*
X0312678Y0231713D03*
X0312127Y0230059D03*
X0310473Y0231437D03*
X0299646Y0233866D03*
X0301024Y0222843D03*
X0312127Y0220413D03*
X0302402Y0215126D03*
X0300473Y0215126D03*
X0300749Y0217055D03*
D331*
X0312678Y0216142D03*
X0312954Y0216142D03*
X0312402Y0222480D03*
X0310198Y0225236D03*
X0300198Y0225185D03*
X0300749Y0229319D03*
X0310749Y0233504D03*
X0310749Y0235984D03*
X0311024Y0235984D03*
X0311300Y0235984D03*
X0311576Y0235984D03*
X0311851Y0235984D03*
X0302954Y0235933D03*
X0302678Y0235933D03*
X0302402Y0235933D03*
X0302127Y0235933D03*
X0301851Y0235933D03*
X0301576Y0235933D03*
X0301300Y0235933D03*
X0301024Y0235933D03*
X0300749Y0235933D03*
X0300473Y0235933D03*
X0300198Y0235933D03*
X0299922Y0235933D03*
X0299646Y0235933D03*
D332*
X0310060Y0235768D03*
X0312540Y0235768D03*
X0310611Y0220768D03*
X0303091Y0222370D03*
X0301438Y0220283D03*
X0300887Y0220559D03*
X0310611Y0216358D03*
X0313091Y0216201D03*
X0302816Y0212843D03*
X0299784Y0212843D03*
D333*
X0302540Y0216780D03*
X0303091Y0220362D03*
X0299784Y0223118D03*
X0301438Y0226150D03*
X0310335Y0228681D03*
X0310611Y0228681D03*
X0310887Y0228681D03*
X0312265Y0228681D03*
X0312540Y0228681D03*
X0311438Y0231437D03*
X0302540Y0234142D03*
X0302265Y0234142D03*
X0301989Y0234142D03*
X0301713Y0234142D03*
D334*
X0303091Y0230972D03*
X0310611Y0230748D03*
X0309784Y0225236D03*
X0312265Y0225236D03*
X0312540Y0225236D03*
X0312816Y0225236D03*
X0310887Y0220551D03*
X0311438Y0220276D03*
X0313091Y0218622D03*
X0311989Y0216417D03*
X0309509Y0218622D03*
X0303091Y0218571D03*
X0299784Y0225185D03*
D335*
X0299784Y0227744D03*
X0311989Y0230000D03*
X0313091Y0228898D03*
X0311438Y0222677D03*
X0312540Y0218543D03*
X0302540Y0218650D03*
X0301989Y0216839D03*
X0300887Y0217114D03*
X0300887Y0215185D03*
X0300611Y0215185D03*
X0302816Y0215185D03*
X0301162Y0222783D03*
X0301989Y0232547D03*
D336*
X0299784Y0230972D03*
X0301989Y0229319D03*
X0311989Y0233504D03*
X0311713Y0235984D03*
X0311438Y0235984D03*
X0311162Y0235984D03*
X0310887Y0235984D03*
X0302816Y0235933D03*
X0302540Y0235933D03*
X0302265Y0235933D03*
X0301989Y0235933D03*
X0301713Y0235933D03*
X0301438Y0235933D03*
X0301162Y0235933D03*
X0300887Y0235933D03*
X0300611Y0235933D03*
X0300335Y0235933D03*
X0300060Y0235933D03*
X0299784Y0235933D03*
X0312265Y0222480D03*
X0312816Y0218622D03*
X0312816Y0216142D03*
X0312540Y0216142D03*
X0302816Y0218571D03*
X0301438Y0217193D03*
D337*
X0300198Y0216720D03*
X0299922Y0216563D03*
X0300198Y0223059D03*
X0301851Y0224437D03*
X0300473Y0227469D03*
X0300473Y0231169D03*
X0302127Y0231169D03*
X0302402Y0231051D03*
X0302678Y0234083D03*
X0301300Y0234083D03*
X0299922Y0234083D03*
X0309922Y0228740D03*
X0309646Y0227362D03*
X0311851Y0225984D03*
X0311851Y0224488D03*
X0310473Y0222953D03*
X0312402Y0220472D03*
X0312954Y0227362D03*
D338*
X0312127Y0222539D03*
X0311851Y0220335D03*
X0309922Y0218563D03*
X0302678Y0218630D03*
X0301576Y0217134D03*
X0301300Y0217252D03*
X0299922Y0218630D03*
X0301851Y0222646D03*
X0309922Y0212500D03*
D339*
X0312402Y0216220D03*
X0310198Y0221024D03*
X0309922Y0221181D03*
X0312678Y0222402D03*
X0302402Y0222508D03*
X0300473Y0220854D03*
X0300198Y0220972D03*
X0299922Y0221130D03*
X0301851Y0229240D03*
X0302954Y0231051D03*
X0311851Y0233425D03*
X0312954Y0231772D03*
X0312127Y0235906D03*
X0310473Y0235906D03*
X0348217Y0135382D03*
X0352717Y0135075D03*
D340*
X0300060Y0216642D03*
X0302540Y0220500D03*
X0301713Y0224358D03*
X0300887Y0225185D03*
X0300887Y0227390D03*
X0300611Y0227390D03*
X0301713Y0227390D03*
X0301989Y0227390D03*
X0300887Y0231248D03*
X0309784Y0227441D03*
X0310060Y0227441D03*
X0310335Y0227441D03*
X0310611Y0227441D03*
X0310887Y0227441D03*
X0311162Y0227441D03*
X0311438Y0227441D03*
X0311713Y0227441D03*
X0311989Y0227441D03*
X0312265Y0227441D03*
X0312540Y0227441D03*
X0312816Y0227441D03*
X0311713Y0226063D03*
X0310887Y0225236D03*
X0311713Y0224409D03*
X0310060Y0223031D03*
X0312540Y0220551D03*
X0313091Y0220276D03*
X0311989Y0231575D03*
X0311713Y0231575D03*
D341*
X0310611Y0233504D03*
X0302816Y0230972D03*
X0300611Y0229319D03*
X0300335Y0225185D03*
X0301438Y0222705D03*
X0300060Y0218571D03*
X0301162Y0217193D03*
X0310060Y0218622D03*
X0310335Y0225236D03*
D342*
X0310335Y0222953D03*
X0301713Y0226091D03*
X0302265Y0227469D03*
X0300335Y0227469D03*
X0300611Y0231169D03*
X0301162Y0231327D03*
X0302265Y0231169D03*
X0300335Y0232705D03*
X0300060Y0234083D03*
X0301438Y0234083D03*
X0310335Y0230118D03*
X0310060Y0228740D03*
X0311162Y0228740D03*
X0311989Y0228740D03*
X0312816Y0228740D03*
X0313091Y0227362D03*
X0312265Y0231654D03*
X0300060Y0223059D03*
X0300335Y0216839D03*
D343*
X0301162Y0215126D03*
X0302540Y0215126D03*
X0300887Y0222843D03*
X0300060Y0231110D03*
X0310060Y0231713D03*
D344*
X0312954Y0235571D03*
X0311576Y0216555D03*
X0311024Y0216555D03*
X0302402Y0212646D03*
X0300198Y0212646D03*
D345*
X0310749Y0222894D03*
X0302402Y0227528D03*
X0300198Y0227528D03*
X0300198Y0231110D03*
X0301300Y0231386D03*
X0312402Y0231713D03*
D346*
X0312540Y0231713D03*
X0302540Y0227528D03*
X0301989Y0224496D03*
X0310611Y0222894D03*
X0311989Y0224547D03*
X0311989Y0225925D03*
X0300335Y0231110D03*
X0302265Y0216780D03*
X0303091Y0216780D03*
D347*
X0302127Y0218571D03*
X0300473Y0218571D03*
X0302678Y0220500D03*
X0301576Y0224358D03*
X0301851Y0227390D03*
X0302127Y0227390D03*
X0301024Y0227390D03*
X0300749Y0227390D03*
X0300749Y0231248D03*
X0301024Y0231248D03*
X0309922Y0227441D03*
X0310198Y0227441D03*
X0310473Y0227441D03*
X0310749Y0227441D03*
X0311024Y0227441D03*
X0311300Y0227441D03*
X0311576Y0227441D03*
X0311851Y0227441D03*
X0312127Y0227441D03*
X0312402Y0227441D03*
X0312678Y0227441D03*
X0311576Y0226063D03*
X0310198Y0223031D03*
X0312678Y0220551D03*
X0312127Y0218622D03*
X0310473Y0218622D03*
X0311851Y0231575D03*
X0312127Y0231575D03*
D348*
X0311713Y0233504D03*
X0311438Y0233504D03*
X0311162Y0233504D03*
X0301713Y0229319D03*
X0301438Y0229319D03*
X0301162Y0229319D03*
X0302816Y0222429D03*
X0300611Y0220776D03*
X0303091Y0213059D03*
X0310887Y0213661D03*
X0311162Y0213661D03*
X0311438Y0213661D03*
X0311713Y0213661D03*
D349*
X0311989Y0213524D03*
X0310611Y0213524D03*
X0301162Y0220362D03*
X0311162Y0220413D03*
X0313091Y0222343D03*
X0300611Y0233315D03*
D350*
X0300749Y0212429D03*
X0301851Y0212429D03*
X0312678Y0213189D03*
D351*
X0301713Y0212370D03*
X0301438Y0212370D03*
X0301162Y0212370D03*
X0300887Y0212370D03*
D352*
X0301024Y0212370D03*
X0301300Y0212370D03*
X0301576Y0212370D03*
D353*
X0310060Y0216752D03*
X0312816Y0220492D03*
X0309784Y0223091D03*
X0311438Y0224350D03*
X0311438Y0226122D03*
X0301438Y0227331D03*
X0301162Y0227331D03*
X0301438Y0224299D03*
X0302816Y0220441D03*
D354*
X0302954Y0220441D03*
X0309922Y0223091D03*
X0311576Y0224350D03*
X0312402Y0228602D03*
X0311576Y0231516D03*
X0301576Y0227331D03*
X0301300Y0227331D03*
X0301300Y0226228D03*
X0302678Y0216701D03*
D355*
X0301713Y0216976D03*
X0303091Y0215205D03*
X0310060Y0212618D03*
X0311989Y0222539D03*
X0301713Y0222646D03*
X0309784Y0231791D03*
D356*
X0312816Y0231713D03*
X0303091Y0233866D03*
X0311713Y0222618D03*
X0311989Y0220413D03*
X0301989Y0220362D03*
D357*
X0311851Y0222618D03*
X0302954Y0227803D03*
X0310198Y0212697D03*
D358*
X0303229Y0216445D03*
D359*
X0303367Y0216642D03*
D360*
X0303367Y0228965D03*
D361*
X0308544Y0223583D03*
X0314056Y0223583D03*
D362*
X0313918Y0223642D03*
X0308682Y0223642D03*
D363*
X0308820Y0223720D03*
X0313780Y0223720D03*
D364*
X0313643Y0223780D03*
X0308957Y0223780D03*
D365*
X0309095Y0223858D03*
X0313505Y0223858D03*
D366*
X0309233Y0223917D03*
D367*
X0309371Y0229705D03*
D368*
X0309509Y0214272D03*
D369*
X0309509Y0226339D03*
D370*
X0309509Y0235217D03*
D371*
X0309784Y0235571D03*
X0311713Y0216555D03*
D372*
X0312540Y0213248D03*
D373*
X0312816Y0213110D03*
D374*
X0312954Y0213051D03*
D375*
X0313229Y0215945D03*
D376*
X0313367Y0228957D03*
D377*
X0345146Y0143531D03*
X0345146Y0130894D03*
D378*
X0279253Y0224724D03*
D379*
X0202961Y0193150D03*
X0202961Y0186850D03*
D380*
X0203040Y0187008D03*
X0203040Y0192992D03*
D381*
X0203198Y0192835D03*
X0203198Y0187165D03*
D382*
X0203276Y0187323D03*
X0203276Y0192677D03*
D383*
X0203355Y0192520D03*
X0203355Y0187480D03*
D384*
X0203434Y0187638D03*
X0203434Y0192362D03*
D385*
X0199103Y0192047D03*
D386*
X0210048Y0189213D03*
X0210206Y0189370D03*
X0210363Y0189528D03*
D387*
X0209891Y0189055D03*
X0209733Y0188898D03*
D388*
X0268150Y0228583D03*
X0274450Y0228583D03*
D389*
X0269253Y0224724D03*
D390*
X0204457Y0203150D03*
X0204457Y0196850D03*
D391*
X0204379Y0197008D03*
X0204379Y0202992D03*
D392*
X0204300Y0202835D03*
X0204300Y0197165D03*
D393*
X0204221Y0197323D03*
X0204221Y0202677D03*
D394*
X0204143Y0202520D03*
X0204143Y0197480D03*
D395*
X0204064Y0197638D03*
X0204064Y0202362D03*
D396*
X0203985Y0202205D03*
X0203985Y0197795D03*
D397*
X0199261Y0202047D03*
M02*
