%
M48
M72
T01C0.0120
T02C0.0256
T03C0.0400
T04C0.1300
%
T01
X21530Y8950
X21530Y10000
X21880Y10050
X22630Y10000
X24630Y9750
X24930Y9750
X26630Y9500
X26630Y9000
X25230Y10500
X25130Y11000
X24630Y11000
X24630Y11500
X25030Y11450
X25530Y11400
X25530Y11950
X25530Y12300
X25680Y12750
X26180Y12650
X26980Y12650
X27830Y12650
X28630Y12650
X29430Y12650
X30280Y12650
X31080Y12750
X31430Y12750
X31780Y12750
X32130Y12750
X32530Y12750
X32880Y12750
X33180Y12650
X33530Y12650
X33880Y12650
X34230Y12650
X34230Y13000
X32880Y13100
X32530Y13100
X32130Y13100
X31080Y13200
X30280Y13500
X31080Y13650
X31080Y14050
X31080Y14350
X30280Y14350
X29430Y14350
X28630Y14350
X27830Y14350
X26980Y14350
X26180Y14350
X26180Y14900
X26180Y15200
X26980Y15150
X27830Y15150
X28630Y15150
X29430Y15150
X30280Y15150
X31080Y15150
X32080Y15300
X32830Y15450
X33230Y15450
X33680Y15450
X34130Y14950
X33880Y14550
X33530Y14550
X33130Y14550
X32830Y14500
X32080Y14650
X32830Y14150
X34230Y14100
X34230Y14450
X34480Y16100
X34485Y16450
X34532Y16902
X35130Y17250
X33780Y17050
X33030Y17300
X32130Y17000
X32130Y16500
X31080Y16850
X30280Y16850
X29430Y16850
X28630Y16850
X27830Y16850
X26980Y16850
X26180Y16750
X26180Y17100
X26180Y17650
X26980Y17650
X27830Y17650
X28630Y17650
X29430Y17650
X30280Y17650
X31080Y17650
X31080Y17950
X31080Y18400
X31080Y18800
X30280Y18500
X29430Y18500
X28630Y18500
X27830Y18500
X26980Y18500
X26180Y18500
X25080Y19000
X24930Y18450
X23630Y18000
X23130Y18000
X22780Y17700
X22380Y17800
X21630Y17500
X21630Y17000
X24130Y16300
X22880Y15500
X23330Y14700
X23330Y14100
X21680Y13800
X21680Y13465
X21980Y12650
X22330Y12000
X21680Y11650
X21680Y11250
X19080Y10250
X24630Y12000
X25030Y12000
X25030Y12500
X24630Y12500
X25130Y13000
X26180Y13200
X26180Y13550
X26980Y13500
X27830Y13500
X28630Y13500
X29430Y13500
X31780Y12300
X31780Y11950
X32380Y12000
X32380Y12350
X31130Y11500
X30380Y11400
X30380Y10800
X31130Y11000
X31130Y10500
X31630Y10500
X31630Y11000
X32030Y11000
X32130Y10500
X30795Y10100
X30630Y9000
X28780Y10800
X28780Y11150
X28630Y11500
X28130Y11400
X25180Y14900
X25210Y15350
X26180Y16000
X26980Y16000
X27830Y16000
X28630Y16000
X29430Y16000
X30280Y16000
X31080Y16000
X32130Y17700
X32130Y18050
X32130Y18450
X32130Y18800
X32130Y19200
X31780Y19200
X31430Y19200
X31080Y19200
X30280Y19350
X29430Y19350
X28630Y19350
X27830Y19350
X26980Y19350
X26130Y19350
X25580Y19650
X25580Y20100
X27130Y20500
X27630Y20500
X28130Y20500
X28630Y20500
X29130Y20850
X30130Y20500
X30630Y20500
X31130Y20500
X31730Y20100
X31730Y19700
X33380Y20400
X34130Y20400
X34532Y20400
X34880Y20400
X29630Y21200
X27630Y21500
X27130Y21500
X25630Y21500
X25130Y21500
X24130Y22000
X23630Y22000
X22730Y22000
X21880Y21830
X22630Y21000
X23630Y21000
X24130Y22500
X24630Y22750
X24630Y23050
X26032Y22750
X27630Y23000
X22130Y23210
X21622Y23508
X21780Y19200
X21580Y18350
X19080Y14800
X33130Y23500
T02
X20561Y13638
X20561Y11362
T03
X24130Y8000
X25130Y8000
X26130Y8000
X27130Y8000
X28130Y8000
X29130Y8000
X30130Y8000
X31130Y8000
X32130Y8000
X33130Y8000
X19130Y16000
X19130Y17000
X19130Y18000
X19130Y19000
X19130Y20000
X19130Y21000
X24130Y24000
X25130Y24000
X26130Y24000
X27130Y24000
X28130Y24000
X29130Y24000
X30130Y24000
X31130Y24000
X32130Y24000
T04
X19630Y8500
X34630Y8500
X34630Y23500
X19630Y23500
M30
