G75*
%MOIN*%
%OFA0B0*%
%FSLAX25Y25*%
%IPPOS*%
%LPD*%
%AMOC8*
5,1,8,0,0,1.08239X$1,22.5*
%
%ADD10C,0.00800*%
%ADD11C,0.00000*%
%ADD12C,0.00039*%
%ADD13C,0.00600*%
%ADD14C,0.00500*%
D10*
X0186300Y0075000D02*
X0186300Y0245000D01*
X0356300Y0245000D01*
X0356300Y0075000D01*
X0186300Y0075000D01*
D11*
X0189800Y0085000D02*
X0189802Y0085161D01*
X0189808Y0085321D01*
X0189818Y0085482D01*
X0189832Y0085642D01*
X0189850Y0085802D01*
X0189871Y0085961D01*
X0189897Y0086120D01*
X0189927Y0086278D01*
X0189960Y0086435D01*
X0189998Y0086592D01*
X0190039Y0086747D01*
X0190084Y0086901D01*
X0190133Y0087054D01*
X0190186Y0087206D01*
X0190242Y0087357D01*
X0190303Y0087506D01*
X0190366Y0087654D01*
X0190434Y0087800D01*
X0190505Y0087944D01*
X0190579Y0088086D01*
X0190657Y0088227D01*
X0190739Y0088365D01*
X0190824Y0088502D01*
X0190912Y0088636D01*
X0191004Y0088768D01*
X0191099Y0088898D01*
X0191197Y0089026D01*
X0191298Y0089151D01*
X0191402Y0089273D01*
X0191509Y0089393D01*
X0191619Y0089510D01*
X0191732Y0089625D01*
X0191848Y0089736D01*
X0191967Y0089845D01*
X0192088Y0089950D01*
X0192212Y0090053D01*
X0192338Y0090153D01*
X0192466Y0090249D01*
X0192597Y0090342D01*
X0192731Y0090432D01*
X0192866Y0090519D01*
X0193004Y0090602D01*
X0193143Y0090682D01*
X0193285Y0090758D01*
X0193428Y0090831D01*
X0193573Y0090900D01*
X0193720Y0090966D01*
X0193868Y0091028D01*
X0194018Y0091086D01*
X0194169Y0091141D01*
X0194322Y0091192D01*
X0194476Y0091239D01*
X0194631Y0091282D01*
X0194787Y0091321D01*
X0194943Y0091357D01*
X0195101Y0091388D01*
X0195259Y0091416D01*
X0195418Y0091440D01*
X0195578Y0091460D01*
X0195738Y0091476D01*
X0195898Y0091488D01*
X0196059Y0091496D01*
X0196220Y0091500D01*
X0196380Y0091500D01*
X0196541Y0091496D01*
X0196702Y0091488D01*
X0196862Y0091476D01*
X0197022Y0091460D01*
X0197182Y0091440D01*
X0197341Y0091416D01*
X0197499Y0091388D01*
X0197657Y0091357D01*
X0197813Y0091321D01*
X0197969Y0091282D01*
X0198124Y0091239D01*
X0198278Y0091192D01*
X0198431Y0091141D01*
X0198582Y0091086D01*
X0198732Y0091028D01*
X0198880Y0090966D01*
X0199027Y0090900D01*
X0199172Y0090831D01*
X0199315Y0090758D01*
X0199457Y0090682D01*
X0199596Y0090602D01*
X0199734Y0090519D01*
X0199869Y0090432D01*
X0200003Y0090342D01*
X0200134Y0090249D01*
X0200262Y0090153D01*
X0200388Y0090053D01*
X0200512Y0089950D01*
X0200633Y0089845D01*
X0200752Y0089736D01*
X0200868Y0089625D01*
X0200981Y0089510D01*
X0201091Y0089393D01*
X0201198Y0089273D01*
X0201302Y0089151D01*
X0201403Y0089026D01*
X0201501Y0088898D01*
X0201596Y0088768D01*
X0201688Y0088636D01*
X0201776Y0088502D01*
X0201861Y0088365D01*
X0201943Y0088227D01*
X0202021Y0088086D01*
X0202095Y0087944D01*
X0202166Y0087800D01*
X0202234Y0087654D01*
X0202297Y0087506D01*
X0202358Y0087357D01*
X0202414Y0087206D01*
X0202467Y0087054D01*
X0202516Y0086901D01*
X0202561Y0086747D01*
X0202602Y0086592D01*
X0202640Y0086435D01*
X0202673Y0086278D01*
X0202703Y0086120D01*
X0202729Y0085961D01*
X0202750Y0085802D01*
X0202768Y0085642D01*
X0202782Y0085482D01*
X0202792Y0085321D01*
X0202798Y0085161D01*
X0202800Y0085000D01*
X0202798Y0084839D01*
X0202792Y0084679D01*
X0202782Y0084518D01*
X0202768Y0084358D01*
X0202750Y0084198D01*
X0202729Y0084039D01*
X0202703Y0083880D01*
X0202673Y0083722D01*
X0202640Y0083565D01*
X0202602Y0083408D01*
X0202561Y0083253D01*
X0202516Y0083099D01*
X0202467Y0082946D01*
X0202414Y0082794D01*
X0202358Y0082643D01*
X0202297Y0082494D01*
X0202234Y0082346D01*
X0202166Y0082200D01*
X0202095Y0082056D01*
X0202021Y0081914D01*
X0201943Y0081773D01*
X0201861Y0081635D01*
X0201776Y0081498D01*
X0201688Y0081364D01*
X0201596Y0081232D01*
X0201501Y0081102D01*
X0201403Y0080974D01*
X0201302Y0080849D01*
X0201198Y0080727D01*
X0201091Y0080607D01*
X0200981Y0080490D01*
X0200868Y0080375D01*
X0200752Y0080264D01*
X0200633Y0080155D01*
X0200512Y0080050D01*
X0200388Y0079947D01*
X0200262Y0079847D01*
X0200134Y0079751D01*
X0200003Y0079658D01*
X0199869Y0079568D01*
X0199734Y0079481D01*
X0199596Y0079398D01*
X0199457Y0079318D01*
X0199315Y0079242D01*
X0199172Y0079169D01*
X0199027Y0079100D01*
X0198880Y0079034D01*
X0198732Y0078972D01*
X0198582Y0078914D01*
X0198431Y0078859D01*
X0198278Y0078808D01*
X0198124Y0078761D01*
X0197969Y0078718D01*
X0197813Y0078679D01*
X0197657Y0078643D01*
X0197499Y0078612D01*
X0197341Y0078584D01*
X0197182Y0078560D01*
X0197022Y0078540D01*
X0196862Y0078524D01*
X0196702Y0078512D01*
X0196541Y0078504D01*
X0196380Y0078500D01*
X0196220Y0078500D01*
X0196059Y0078504D01*
X0195898Y0078512D01*
X0195738Y0078524D01*
X0195578Y0078540D01*
X0195418Y0078560D01*
X0195259Y0078584D01*
X0195101Y0078612D01*
X0194943Y0078643D01*
X0194787Y0078679D01*
X0194631Y0078718D01*
X0194476Y0078761D01*
X0194322Y0078808D01*
X0194169Y0078859D01*
X0194018Y0078914D01*
X0193868Y0078972D01*
X0193720Y0079034D01*
X0193573Y0079100D01*
X0193428Y0079169D01*
X0193285Y0079242D01*
X0193143Y0079318D01*
X0193004Y0079398D01*
X0192866Y0079481D01*
X0192731Y0079568D01*
X0192597Y0079658D01*
X0192466Y0079751D01*
X0192338Y0079847D01*
X0192212Y0079947D01*
X0192088Y0080050D01*
X0191967Y0080155D01*
X0191848Y0080264D01*
X0191732Y0080375D01*
X0191619Y0080490D01*
X0191509Y0080607D01*
X0191402Y0080727D01*
X0191298Y0080849D01*
X0191197Y0080974D01*
X0191099Y0081102D01*
X0191004Y0081232D01*
X0190912Y0081364D01*
X0190824Y0081498D01*
X0190739Y0081635D01*
X0190657Y0081773D01*
X0190579Y0081914D01*
X0190505Y0082056D01*
X0190434Y0082200D01*
X0190366Y0082346D01*
X0190303Y0082494D01*
X0190242Y0082643D01*
X0190186Y0082794D01*
X0190133Y0082946D01*
X0190084Y0083099D01*
X0190039Y0083253D01*
X0189998Y0083408D01*
X0189960Y0083565D01*
X0189927Y0083722D01*
X0189897Y0083880D01*
X0189871Y0084039D01*
X0189850Y0084198D01*
X0189832Y0084358D01*
X0189818Y0084518D01*
X0189808Y0084679D01*
X0189802Y0084839D01*
X0189800Y0085000D01*
X0204331Y0113622D02*
X0204333Y0113693D01*
X0204339Y0113764D01*
X0204349Y0113835D01*
X0204363Y0113904D01*
X0204380Y0113973D01*
X0204402Y0114041D01*
X0204427Y0114108D01*
X0204456Y0114173D01*
X0204488Y0114236D01*
X0204524Y0114298D01*
X0204563Y0114357D01*
X0204606Y0114414D01*
X0204651Y0114469D01*
X0204700Y0114521D01*
X0204751Y0114570D01*
X0204805Y0114616D01*
X0204862Y0114660D01*
X0204920Y0114700D01*
X0204981Y0114736D01*
X0205044Y0114770D01*
X0205109Y0114799D01*
X0205175Y0114825D01*
X0205243Y0114848D01*
X0205311Y0114866D01*
X0205381Y0114881D01*
X0205451Y0114892D01*
X0205522Y0114899D01*
X0205593Y0114902D01*
X0205664Y0114901D01*
X0205735Y0114896D01*
X0205806Y0114887D01*
X0205876Y0114874D01*
X0205945Y0114858D01*
X0206013Y0114837D01*
X0206080Y0114813D01*
X0206146Y0114785D01*
X0206209Y0114753D01*
X0206271Y0114718D01*
X0206331Y0114680D01*
X0206389Y0114638D01*
X0206444Y0114594D01*
X0206497Y0114546D01*
X0206547Y0114495D01*
X0206594Y0114442D01*
X0206638Y0114386D01*
X0206679Y0114328D01*
X0206717Y0114267D01*
X0206751Y0114205D01*
X0206781Y0114140D01*
X0206808Y0114075D01*
X0206832Y0114007D01*
X0206851Y0113939D01*
X0206867Y0113870D01*
X0206879Y0113799D01*
X0206887Y0113729D01*
X0206891Y0113658D01*
X0206891Y0113586D01*
X0206887Y0113515D01*
X0206879Y0113445D01*
X0206867Y0113374D01*
X0206851Y0113305D01*
X0206832Y0113237D01*
X0206808Y0113169D01*
X0206781Y0113104D01*
X0206751Y0113039D01*
X0206717Y0112977D01*
X0206679Y0112916D01*
X0206638Y0112858D01*
X0206594Y0112802D01*
X0206547Y0112749D01*
X0206497Y0112698D01*
X0206444Y0112650D01*
X0206389Y0112606D01*
X0206331Y0112564D01*
X0206271Y0112526D01*
X0206209Y0112491D01*
X0206146Y0112459D01*
X0206080Y0112431D01*
X0206013Y0112407D01*
X0205945Y0112386D01*
X0205876Y0112370D01*
X0205806Y0112357D01*
X0205735Y0112348D01*
X0205664Y0112343D01*
X0205593Y0112342D01*
X0205522Y0112345D01*
X0205451Y0112352D01*
X0205381Y0112363D01*
X0205311Y0112378D01*
X0205243Y0112396D01*
X0205175Y0112419D01*
X0205109Y0112445D01*
X0205044Y0112474D01*
X0204981Y0112508D01*
X0204920Y0112544D01*
X0204862Y0112584D01*
X0204805Y0112628D01*
X0204751Y0112674D01*
X0204700Y0112723D01*
X0204651Y0112775D01*
X0204606Y0112830D01*
X0204563Y0112887D01*
X0204524Y0112946D01*
X0204488Y0113008D01*
X0204456Y0113071D01*
X0204427Y0113136D01*
X0204402Y0113203D01*
X0204380Y0113271D01*
X0204363Y0113340D01*
X0204349Y0113409D01*
X0204339Y0113480D01*
X0204333Y0113551D01*
X0204331Y0113622D01*
X0204331Y0136378D02*
X0204333Y0136449D01*
X0204339Y0136520D01*
X0204349Y0136591D01*
X0204363Y0136660D01*
X0204380Y0136729D01*
X0204402Y0136797D01*
X0204427Y0136864D01*
X0204456Y0136929D01*
X0204488Y0136992D01*
X0204524Y0137054D01*
X0204563Y0137113D01*
X0204606Y0137170D01*
X0204651Y0137225D01*
X0204700Y0137277D01*
X0204751Y0137326D01*
X0204805Y0137372D01*
X0204862Y0137416D01*
X0204920Y0137456D01*
X0204981Y0137492D01*
X0205044Y0137526D01*
X0205109Y0137555D01*
X0205175Y0137581D01*
X0205243Y0137604D01*
X0205311Y0137622D01*
X0205381Y0137637D01*
X0205451Y0137648D01*
X0205522Y0137655D01*
X0205593Y0137658D01*
X0205664Y0137657D01*
X0205735Y0137652D01*
X0205806Y0137643D01*
X0205876Y0137630D01*
X0205945Y0137614D01*
X0206013Y0137593D01*
X0206080Y0137569D01*
X0206146Y0137541D01*
X0206209Y0137509D01*
X0206271Y0137474D01*
X0206331Y0137436D01*
X0206389Y0137394D01*
X0206444Y0137350D01*
X0206497Y0137302D01*
X0206547Y0137251D01*
X0206594Y0137198D01*
X0206638Y0137142D01*
X0206679Y0137084D01*
X0206717Y0137023D01*
X0206751Y0136961D01*
X0206781Y0136896D01*
X0206808Y0136831D01*
X0206832Y0136763D01*
X0206851Y0136695D01*
X0206867Y0136626D01*
X0206879Y0136555D01*
X0206887Y0136485D01*
X0206891Y0136414D01*
X0206891Y0136342D01*
X0206887Y0136271D01*
X0206879Y0136201D01*
X0206867Y0136130D01*
X0206851Y0136061D01*
X0206832Y0135993D01*
X0206808Y0135925D01*
X0206781Y0135860D01*
X0206751Y0135795D01*
X0206717Y0135733D01*
X0206679Y0135672D01*
X0206638Y0135614D01*
X0206594Y0135558D01*
X0206547Y0135505D01*
X0206497Y0135454D01*
X0206444Y0135406D01*
X0206389Y0135362D01*
X0206331Y0135320D01*
X0206271Y0135282D01*
X0206209Y0135247D01*
X0206146Y0135215D01*
X0206080Y0135187D01*
X0206013Y0135163D01*
X0205945Y0135142D01*
X0205876Y0135126D01*
X0205806Y0135113D01*
X0205735Y0135104D01*
X0205664Y0135099D01*
X0205593Y0135098D01*
X0205522Y0135101D01*
X0205451Y0135108D01*
X0205381Y0135119D01*
X0205311Y0135134D01*
X0205243Y0135152D01*
X0205175Y0135175D01*
X0205109Y0135201D01*
X0205044Y0135230D01*
X0204981Y0135264D01*
X0204920Y0135300D01*
X0204862Y0135340D01*
X0204805Y0135384D01*
X0204751Y0135430D01*
X0204700Y0135479D01*
X0204651Y0135531D01*
X0204606Y0135586D01*
X0204563Y0135643D01*
X0204524Y0135702D01*
X0204488Y0135764D01*
X0204456Y0135827D01*
X0204427Y0135892D01*
X0204402Y0135959D01*
X0204380Y0136027D01*
X0204363Y0136096D01*
X0204349Y0136165D01*
X0204339Y0136236D01*
X0204333Y0136307D01*
X0204331Y0136378D01*
X0339800Y0085000D02*
X0339802Y0085161D01*
X0339808Y0085321D01*
X0339818Y0085482D01*
X0339832Y0085642D01*
X0339850Y0085802D01*
X0339871Y0085961D01*
X0339897Y0086120D01*
X0339927Y0086278D01*
X0339960Y0086435D01*
X0339998Y0086592D01*
X0340039Y0086747D01*
X0340084Y0086901D01*
X0340133Y0087054D01*
X0340186Y0087206D01*
X0340242Y0087357D01*
X0340303Y0087506D01*
X0340366Y0087654D01*
X0340434Y0087800D01*
X0340505Y0087944D01*
X0340579Y0088086D01*
X0340657Y0088227D01*
X0340739Y0088365D01*
X0340824Y0088502D01*
X0340912Y0088636D01*
X0341004Y0088768D01*
X0341099Y0088898D01*
X0341197Y0089026D01*
X0341298Y0089151D01*
X0341402Y0089273D01*
X0341509Y0089393D01*
X0341619Y0089510D01*
X0341732Y0089625D01*
X0341848Y0089736D01*
X0341967Y0089845D01*
X0342088Y0089950D01*
X0342212Y0090053D01*
X0342338Y0090153D01*
X0342466Y0090249D01*
X0342597Y0090342D01*
X0342731Y0090432D01*
X0342866Y0090519D01*
X0343004Y0090602D01*
X0343143Y0090682D01*
X0343285Y0090758D01*
X0343428Y0090831D01*
X0343573Y0090900D01*
X0343720Y0090966D01*
X0343868Y0091028D01*
X0344018Y0091086D01*
X0344169Y0091141D01*
X0344322Y0091192D01*
X0344476Y0091239D01*
X0344631Y0091282D01*
X0344787Y0091321D01*
X0344943Y0091357D01*
X0345101Y0091388D01*
X0345259Y0091416D01*
X0345418Y0091440D01*
X0345578Y0091460D01*
X0345738Y0091476D01*
X0345898Y0091488D01*
X0346059Y0091496D01*
X0346220Y0091500D01*
X0346380Y0091500D01*
X0346541Y0091496D01*
X0346702Y0091488D01*
X0346862Y0091476D01*
X0347022Y0091460D01*
X0347182Y0091440D01*
X0347341Y0091416D01*
X0347499Y0091388D01*
X0347657Y0091357D01*
X0347813Y0091321D01*
X0347969Y0091282D01*
X0348124Y0091239D01*
X0348278Y0091192D01*
X0348431Y0091141D01*
X0348582Y0091086D01*
X0348732Y0091028D01*
X0348880Y0090966D01*
X0349027Y0090900D01*
X0349172Y0090831D01*
X0349315Y0090758D01*
X0349457Y0090682D01*
X0349596Y0090602D01*
X0349734Y0090519D01*
X0349869Y0090432D01*
X0350003Y0090342D01*
X0350134Y0090249D01*
X0350262Y0090153D01*
X0350388Y0090053D01*
X0350512Y0089950D01*
X0350633Y0089845D01*
X0350752Y0089736D01*
X0350868Y0089625D01*
X0350981Y0089510D01*
X0351091Y0089393D01*
X0351198Y0089273D01*
X0351302Y0089151D01*
X0351403Y0089026D01*
X0351501Y0088898D01*
X0351596Y0088768D01*
X0351688Y0088636D01*
X0351776Y0088502D01*
X0351861Y0088365D01*
X0351943Y0088227D01*
X0352021Y0088086D01*
X0352095Y0087944D01*
X0352166Y0087800D01*
X0352234Y0087654D01*
X0352297Y0087506D01*
X0352358Y0087357D01*
X0352414Y0087206D01*
X0352467Y0087054D01*
X0352516Y0086901D01*
X0352561Y0086747D01*
X0352602Y0086592D01*
X0352640Y0086435D01*
X0352673Y0086278D01*
X0352703Y0086120D01*
X0352729Y0085961D01*
X0352750Y0085802D01*
X0352768Y0085642D01*
X0352782Y0085482D01*
X0352792Y0085321D01*
X0352798Y0085161D01*
X0352800Y0085000D01*
X0352798Y0084839D01*
X0352792Y0084679D01*
X0352782Y0084518D01*
X0352768Y0084358D01*
X0352750Y0084198D01*
X0352729Y0084039D01*
X0352703Y0083880D01*
X0352673Y0083722D01*
X0352640Y0083565D01*
X0352602Y0083408D01*
X0352561Y0083253D01*
X0352516Y0083099D01*
X0352467Y0082946D01*
X0352414Y0082794D01*
X0352358Y0082643D01*
X0352297Y0082494D01*
X0352234Y0082346D01*
X0352166Y0082200D01*
X0352095Y0082056D01*
X0352021Y0081914D01*
X0351943Y0081773D01*
X0351861Y0081635D01*
X0351776Y0081498D01*
X0351688Y0081364D01*
X0351596Y0081232D01*
X0351501Y0081102D01*
X0351403Y0080974D01*
X0351302Y0080849D01*
X0351198Y0080727D01*
X0351091Y0080607D01*
X0350981Y0080490D01*
X0350868Y0080375D01*
X0350752Y0080264D01*
X0350633Y0080155D01*
X0350512Y0080050D01*
X0350388Y0079947D01*
X0350262Y0079847D01*
X0350134Y0079751D01*
X0350003Y0079658D01*
X0349869Y0079568D01*
X0349734Y0079481D01*
X0349596Y0079398D01*
X0349457Y0079318D01*
X0349315Y0079242D01*
X0349172Y0079169D01*
X0349027Y0079100D01*
X0348880Y0079034D01*
X0348732Y0078972D01*
X0348582Y0078914D01*
X0348431Y0078859D01*
X0348278Y0078808D01*
X0348124Y0078761D01*
X0347969Y0078718D01*
X0347813Y0078679D01*
X0347657Y0078643D01*
X0347499Y0078612D01*
X0347341Y0078584D01*
X0347182Y0078560D01*
X0347022Y0078540D01*
X0346862Y0078524D01*
X0346702Y0078512D01*
X0346541Y0078504D01*
X0346380Y0078500D01*
X0346220Y0078500D01*
X0346059Y0078504D01*
X0345898Y0078512D01*
X0345738Y0078524D01*
X0345578Y0078540D01*
X0345418Y0078560D01*
X0345259Y0078584D01*
X0345101Y0078612D01*
X0344943Y0078643D01*
X0344787Y0078679D01*
X0344631Y0078718D01*
X0344476Y0078761D01*
X0344322Y0078808D01*
X0344169Y0078859D01*
X0344018Y0078914D01*
X0343868Y0078972D01*
X0343720Y0079034D01*
X0343573Y0079100D01*
X0343428Y0079169D01*
X0343285Y0079242D01*
X0343143Y0079318D01*
X0343004Y0079398D01*
X0342866Y0079481D01*
X0342731Y0079568D01*
X0342597Y0079658D01*
X0342466Y0079751D01*
X0342338Y0079847D01*
X0342212Y0079947D01*
X0342088Y0080050D01*
X0341967Y0080155D01*
X0341848Y0080264D01*
X0341732Y0080375D01*
X0341619Y0080490D01*
X0341509Y0080607D01*
X0341402Y0080727D01*
X0341298Y0080849D01*
X0341197Y0080974D01*
X0341099Y0081102D01*
X0341004Y0081232D01*
X0340912Y0081364D01*
X0340824Y0081498D01*
X0340739Y0081635D01*
X0340657Y0081773D01*
X0340579Y0081914D01*
X0340505Y0082056D01*
X0340434Y0082200D01*
X0340366Y0082346D01*
X0340303Y0082494D01*
X0340242Y0082643D01*
X0340186Y0082794D01*
X0340133Y0082946D01*
X0340084Y0083099D01*
X0340039Y0083253D01*
X0339998Y0083408D01*
X0339960Y0083565D01*
X0339927Y0083722D01*
X0339897Y0083880D01*
X0339871Y0084039D01*
X0339850Y0084198D01*
X0339832Y0084358D01*
X0339818Y0084518D01*
X0339808Y0084679D01*
X0339802Y0084839D01*
X0339800Y0085000D01*
X0339800Y0235000D02*
X0339802Y0235161D01*
X0339808Y0235321D01*
X0339818Y0235482D01*
X0339832Y0235642D01*
X0339850Y0235802D01*
X0339871Y0235961D01*
X0339897Y0236120D01*
X0339927Y0236278D01*
X0339960Y0236435D01*
X0339998Y0236592D01*
X0340039Y0236747D01*
X0340084Y0236901D01*
X0340133Y0237054D01*
X0340186Y0237206D01*
X0340242Y0237357D01*
X0340303Y0237506D01*
X0340366Y0237654D01*
X0340434Y0237800D01*
X0340505Y0237944D01*
X0340579Y0238086D01*
X0340657Y0238227D01*
X0340739Y0238365D01*
X0340824Y0238502D01*
X0340912Y0238636D01*
X0341004Y0238768D01*
X0341099Y0238898D01*
X0341197Y0239026D01*
X0341298Y0239151D01*
X0341402Y0239273D01*
X0341509Y0239393D01*
X0341619Y0239510D01*
X0341732Y0239625D01*
X0341848Y0239736D01*
X0341967Y0239845D01*
X0342088Y0239950D01*
X0342212Y0240053D01*
X0342338Y0240153D01*
X0342466Y0240249D01*
X0342597Y0240342D01*
X0342731Y0240432D01*
X0342866Y0240519D01*
X0343004Y0240602D01*
X0343143Y0240682D01*
X0343285Y0240758D01*
X0343428Y0240831D01*
X0343573Y0240900D01*
X0343720Y0240966D01*
X0343868Y0241028D01*
X0344018Y0241086D01*
X0344169Y0241141D01*
X0344322Y0241192D01*
X0344476Y0241239D01*
X0344631Y0241282D01*
X0344787Y0241321D01*
X0344943Y0241357D01*
X0345101Y0241388D01*
X0345259Y0241416D01*
X0345418Y0241440D01*
X0345578Y0241460D01*
X0345738Y0241476D01*
X0345898Y0241488D01*
X0346059Y0241496D01*
X0346220Y0241500D01*
X0346380Y0241500D01*
X0346541Y0241496D01*
X0346702Y0241488D01*
X0346862Y0241476D01*
X0347022Y0241460D01*
X0347182Y0241440D01*
X0347341Y0241416D01*
X0347499Y0241388D01*
X0347657Y0241357D01*
X0347813Y0241321D01*
X0347969Y0241282D01*
X0348124Y0241239D01*
X0348278Y0241192D01*
X0348431Y0241141D01*
X0348582Y0241086D01*
X0348732Y0241028D01*
X0348880Y0240966D01*
X0349027Y0240900D01*
X0349172Y0240831D01*
X0349315Y0240758D01*
X0349457Y0240682D01*
X0349596Y0240602D01*
X0349734Y0240519D01*
X0349869Y0240432D01*
X0350003Y0240342D01*
X0350134Y0240249D01*
X0350262Y0240153D01*
X0350388Y0240053D01*
X0350512Y0239950D01*
X0350633Y0239845D01*
X0350752Y0239736D01*
X0350868Y0239625D01*
X0350981Y0239510D01*
X0351091Y0239393D01*
X0351198Y0239273D01*
X0351302Y0239151D01*
X0351403Y0239026D01*
X0351501Y0238898D01*
X0351596Y0238768D01*
X0351688Y0238636D01*
X0351776Y0238502D01*
X0351861Y0238365D01*
X0351943Y0238227D01*
X0352021Y0238086D01*
X0352095Y0237944D01*
X0352166Y0237800D01*
X0352234Y0237654D01*
X0352297Y0237506D01*
X0352358Y0237357D01*
X0352414Y0237206D01*
X0352467Y0237054D01*
X0352516Y0236901D01*
X0352561Y0236747D01*
X0352602Y0236592D01*
X0352640Y0236435D01*
X0352673Y0236278D01*
X0352703Y0236120D01*
X0352729Y0235961D01*
X0352750Y0235802D01*
X0352768Y0235642D01*
X0352782Y0235482D01*
X0352792Y0235321D01*
X0352798Y0235161D01*
X0352800Y0235000D01*
X0352798Y0234839D01*
X0352792Y0234679D01*
X0352782Y0234518D01*
X0352768Y0234358D01*
X0352750Y0234198D01*
X0352729Y0234039D01*
X0352703Y0233880D01*
X0352673Y0233722D01*
X0352640Y0233565D01*
X0352602Y0233408D01*
X0352561Y0233253D01*
X0352516Y0233099D01*
X0352467Y0232946D01*
X0352414Y0232794D01*
X0352358Y0232643D01*
X0352297Y0232494D01*
X0352234Y0232346D01*
X0352166Y0232200D01*
X0352095Y0232056D01*
X0352021Y0231914D01*
X0351943Y0231773D01*
X0351861Y0231635D01*
X0351776Y0231498D01*
X0351688Y0231364D01*
X0351596Y0231232D01*
X0351501Y0231102D01*
X0351403Y0230974D01*
X0351302Y0230849D01*
X0351198Y0230727D01*
X0351091Y0230607D01*
X0350981Y0230490D01*
X0350868Y0230375D01*
X0350752Y0230264D01*
X0350633Y0230155D01*
X0350512Y0230050D01*
X0350388Y0229947D01*
X0350262Y0229847D01*
X0350134Y0229751D01*
X0350003Y0229658D01*
X0349869Y0229568D01*
X0349734Y0229481D01*
X0349596Y0229398D01*
X0349457Y0229318D01*
X0349315Y0229242D01*
X0349172Y0229169D01*
X0349027Y0229100D01*
X0348880Y0229034D01*
X0348732Y0228972D01*
X0348582Y0228914D01*
X0348431Y0228859D01*
X0348278Y0228808D01*
X0348124Y0228761D01*
X0347969Y0228718D01*
X0347813Y0228679D01*
X0347657Y0228643D01*
X0347499Y0228612D01*
X0347341Y0228584D01*
X0347182Y0228560D01*
X0347022Y0228540D01*
X0346862Y0228524D01*
X0346702Y0228512D01*
X0346541Y0228504D01*
X0346380Y0228500D01*
X0346220Y0228500D01*
X0346059Y0228504D01*
X0345898Y0228512D01*
X0345738Y0228524D01*
X0345578Y0228540D01*
X0345418Y0228560D01*
X0345259Y0228584D01*
X0345101Y0228612D01*
X0344943Y0228643D01*
X0344787Y0228679D01*
X0344631Y0228718D01*
X0344476Y0228761D01*
X0344322Y0228808D01*
X0344169Y0228859D01*
X0344018Y0228914D01*
X0343868Y0228972D01*
X0343720Y0229034D01*
X0343573Y0229100D01*
X0343428Y0229169D01*
X0343285Y0229242D01*
X0343143Y0229318D01*
X0343004Y0229398D01*
X0342866Y0229481D01*
X0342731Y0229568D01*
X0342597Y0229658D01*
X0342466Y0229751D01*
X0342338Y0229847D01*
X0342212Y0229947D01*
X0342088Y0230050D01*
X0341967Y0230155D01*
X0341848Y0230264D01*
X0341732Y0230375D01*
X0341619Y0230490D01*
X0341509Y0230607D01*
X0341402Y0230727D01*
X0341298Y0230849D01*
X0341197Y0230974D01*
X0341099Y0231102D01*
X0341004Y0231232D01*
X0340912Y0231364D01*
X0340824Y0231498D01*
X0340739Y0231635D01*
X0340657Y0231773D01*
X0340579Y0231914D01*
X0340505Y0232056D01*
X0340434Y0232200D01*
X0340366Y0232346D01*
X0340303Y0232494D01*
X0340242Y0232643D01*
X0340186Y0232794D01*
X0340133Y0232946D01*
X0340084Y0233099D01*
X0340039Y0233253D01*
X0339998Y0233408D01*
X0339960Y0233565D01*
X0339927Y0233722D01*
X0339897Y0233880D01*
X0339871Y0234039D01*
X0339850Y0234198D01*
X0339832Y0234358D01*
X0339818Y0234518D01*
X0339808Y0234679D01*
X0339802Y0234839D01*
X0339800Y0235000D01*
X0189800Y0235000D02*
X0189802Y0235161D01*
X0189808Y0235321D01*
X0189818Y0235482D01*
X0189832Y0235642D01*
X0189850Y0235802D01*
X0189871Y0235961D01*
X0189897Y0236120D01*
X0189927Y0236278D01*
X0189960Y0236435D01*
X0189998Y0236592D01*
X0190039Y0236747D01*
X0190084Y0236901D01*
X0190133Y0237054D01*
X0190186Y0237206D01*
X0190242Y0237357D01*
X0190303Y0237506D01*
X0190366Y0237654D01*
X0190434Y0237800D01*
X0190505Y0237944D01*
X0190579Y0238086D01*
X0190657Y0238227D01*
X0190739Y0238365D01*
X0190824Y0238502D01*
X0190912Y0238636D01*
X0191004Y0238768D01*
X0191099Y0238898D01*
X0191197Y0239026D01*
X0191298Y0239151D01*
X0191402Y0239273D01*
X0191509Y0239393D01*
X0191619Y0239510D01*
X0191732Y0239625D01*
X0191848Y0239736D01*
X0191967Y0239845D01*
X0192088Y0239950D01*
X0192212Y0240053D01*
X0192338Y0240153D01*
X0192466Y0240249D01*
X0192597Y0240342D01*
X0192731Y0240432D01*
X0192866Y0240519D01*
X0193004Y0240602D01*
X0193143Y0240682D01*
X0193285Y0240758D01*
X0193428Y0240831D01*
X0193573Y0240900D01*
X0193720Y0240966D01*
X0193868Y0241028D01*
X0194018Y0241086D01*
X0194169Y0241141D01*
X0194322Y0241192D01*
X0194476Y0241239D01*
X0194631Y0241282D01*
X0194787Y0241321D01*
X0194943Y0241357D01*
X0195101Y0241388D01*
X0195259Y0241416D01*
X0195418Y0241440D01*
X0195578Y0241460D01*
X0195738Y0241476D01*
X0195898Y0241488D01*
X0196059Y0241496D01*
X0196220Y0241500D01*
X0196380Y0241500D01*
X0196541Y0241496D01*
X0196702Y0241488D01*
X0196862Y0241476D01*
X0197022Y0241460D01*
X0197182Y0241440D01*
X0197341Y0241416D01*
X0197499Y0241388D01*
X0197657Y0241357D01*
X0197813Y0241321D01*
X0197969Y0241282D01*
X0198124Y0241239D01*
X0198278Y0241192D01*
X0198431Y0241141D01*
X0198582Y0241086D01*
X0198732Y0241028D01*
X0198880Y0240966D01*
X0199027Y0240900D01*
X0199172Y0240831D01*
X0199315Y0240758D01*
X0199457Y0240682D01*
X0199596Y0240602D01*
X0199734Y0240519D01*
X0199869Y0240432D01*
X0200003Y0240342D01*
X0200134Y0240249D01*
X0200262Y0240153D01*
X0200388Y0240053D01*
X0200512Y0239950D01*
X0200633Y0239845D01*
X0200752Y0239736D01*
X0200868Y0239625D01*
X0200981Y0239510D01*
X0201091Y0239393D01*
X0201198Y0239273D01*
X0201302Y0239151D01*
X0201403Y0239026D01*
X0201501Y0238898D01*
X0201596Y0238768D01*
X0201688Y0238636D01*
X0201776Y0238502D01*
X0201861Y0238365D01*
X0201943Y0238227D01*
X0202021Y0238086D01*
X0202095Y0237944D01*
X0202166Y0237800D01*
X0202234Y0237654D01*
X0202297Y0237506D01*
X0202358Y0237357D01*
X0202414Y0237206D01*
X0202467Y0237054D01*
X0202516Y0236901D01*
X0202561Y0236747D01*
X0202602Y0236592D01*
X0202640Y0236435D01*
X0202673Y0236278D01*
X0202703Y0236120D01*
X0202729Y0235961D01*
X0202750Y0235802D01*
X0202768Y0235642D01*
X0202782Y0235482D01*
X0202792Y0235321D01*
X0202798Y0235161D01*
X0202800Y0235000D01*
X0202798Y0234839D01*
X0202792Y0234679D01*
X0202782Y0234518D01*
X0202768Y0234358D01*
X0202750Y0234198D01*
X0202729Y0234039D01*
X0202703Y0233880D01*
X0202673Y0233722D01*
X0202640Y0233565D01*
X0202602Y0233408D01*
X0202561Y0233253D01*
X0202516Y0233099D01*
X0202467Y0232946D01*
X0202414Y0232794D01*
X0202358Y0232643D01*
X0202297Y0232494D01*
X0202234Y0232346D01*
X0202166Y0232200D01*
X0202095Y0232056D01*
X0202021Y0231914D01*
X0201943Y0231773D01*
X0201861Y0231635D01*
X0201776Y0231498D01*
X0201688Y0231364D01*
X0201596Y0231232D01*
X0201501Y0231102D01*
X0201403Y0230974D01*
X0201302Y0230849D01*
X0201198Y0230727D01*
X0201091Y0230607D01*
X0200981Y0230490D01*
X0200868Y0230375D01*
X0200752Y0230264D01*
X0200633Y0230155D01*
X0200512Y0230050D01*
X0200388Y0229947D01*
X0200262Y0229847D01*
X0200134Y0229751D01*
X0200003Y0229658D01*
X0199869Y0229568D01*
X0199734Y0229481D01*
X0199596Y0229398D01*
X0199457Y0229318D01*
X0199315Y0229242D01*
X0199172Y0229169D01*
X0199027Y0229100D01*
X0198880Y0229034D01*
X0198732Y0228972D01*
X0198582Y0228914D01*
X0198431Y0228859D01*
X0198278Y0228808D01*
X0198124Y0228761D01*
X0197969Y0228718D01*
X0197813Y0228679D01*
X0197657Y0228643D01*
X0197499Y0228612D01*
X0197341Y0228584D01*
X0197182Y0228560D01*
X0197022Y0228540D01*
X0196862Y0228524D01*
X0196702Y0228512D01*
X0196541Y0228504D01*
X0196380Y0228500D01*
X0196220Y0228500D01*
X0196059Y0228504D01*
X0195898Y0228512D01*
X0195738Y0228524D01*
X0195578Y0228540D01*
X0195418Y0228560D01*
X0195259Y0228584D01*
X0195101Y0228612D01*
X0194943Y0228643D01*
X0194787Y0228679D01*
X0194631Y0228718D01*
X0194476Y0228761D01*
X0194322Y0228808D01*
X0194169Y0228859D01*
X0194018Y0228914D01*
X0193868Y0228972D01*
X0193720Y0229034D01*
X0193573Y0229100D01*
X0193428Y0229169D01*
X0193285Y0229242D01*
X0193143Y0229318D01*
X0193004Y0229398D01*
X0192866Y0229481D01*
X0192731Y0229568D01*
X0192597Y0229658D01*
X0192466Y0229751D01*
X0192338Y0229847D01*
X0192212Y0229947D01*
X0192088Y0230050D01*
X0191967Y0230155D01*
X0191848Y0230264D01*
X0191732Y0230375D01*
X0191619Y0230490D01*
X0191509Y0230607D01*
X0191402Y0230727D01*
X0191298Y0230849D01*
X0191197Y0230974D01*
X0191099Y0231102D01*
X0191004Y0231232D01*
X0190912Y0231364D01*
X0190824Y0231498D01*
X0190739Y0231635D01*
X0190657Y0231773D01*
X0190579Y0231914D01*
X0190505Y0232056D01*
X0190434Y0232200D01*
X0190366Y0232346D01*
X0190303Y0232494D01*
X0190242Y0232643D01*
X0190186Y0232794D01*
X0190133Y0232946D01*
X0190084Y0233099D01*
X0190039Y0233253D01*
X0189998Y0233408D01*
X0189960Y0233565D01*
X0189927Y0233722D01*
X0189897Y0233880D01*
X0189871Y0234039D01*
X0189850Y0234198D01*
X0189832Y0234358D01*
X0189818Y0234518D01*
X0189808Y0234679D01*
X0189802Y0234839D01*
X0189800Y0235000D01*
D12*
X0190040Y0143189D02*
X0192481Y0143189D01*
X0192548Y0143187D01*
X0192616Y0143181D01*
X0192682Y0143172D01*
X0192748Y0143158D01*
X0192814Y0143141D01*
X0192878Y0143120D01*
X0192941Y0143096D01*
X0193002Y0143068D01*
X0193062Y0143036D01*
X0193119Y0143002D01*
X0193175Y0142963D01*
X0193229Y0142922D01*
X0193280Y0142878D01*
X0193328Y0142831D01*
X0193374Y0142781D01*
X0193416Y0142729D01*
X0193456Y0142675D01*
X0193492Y0142618D01*
X0193526Y0142559D01*
X0193555Y0142499D01*
X0193582Y0142436D01*
X0193604Y0142373D01*
X0193623Y0142308D01*
X0193638Y0142243D01*
X0193650Y0142176D01*
X0193658Y0142109D01*
X0193662Y0142042D01*
X0193662Y0141974D01*
X0193658Y0141907D01*
X0193650Y0141840D01*
X0193638Y0141773D01*
X0193623Y0141708D01*
X0193604Y0141643D01*
X0193582Y0141580D01*
X0193555Y0141517D01*
X0193526Y0141457D01*
X0193492Y0141398D01*
X0193456Y0141341D01*
X0193416Y0141287D01*
X0193374Y0141235D01*
X0193328Y0141185D01*
X0193280Y0141138D01*
X0193229Y0141094D01*
X0193175Y0141053D01*
X0193119Y0141014D01*
X0193062Y0140980D01*
X0193002Y0140948D01*
X0192941Y0140920D01*
X0192878Y0140896D01*
X0192814Y0140875D01*
X0192748Y0140858D01*
X0192682Y0140844D01*
X0192616Y0140835D01*
X0192548Y0140829D01*
X0192481Y0140827D01*
X0190040Y0140827D01*
X0189973Y0140829D01*
X0189905Y0140835D01*
X0189839Y0140844D01*
X0189773Y0140858D01*
X0189707Y0140875D01*
X0189643Y0140896D01*
X0189580Y0140920D01*
X0189519Y0140948D01*
X0189459Y0140980D01*
X0189402Y0141014D01*
X0189346Y0141053D01*
X0189292Y0141094D01*
X0189241Y0141138D01*
X0189193Y0141185D01*
X0189147Y0141235D01*
X0189105Y0141287D01*
X0189065Y0141341D01*
X0189029Y0141398D01*
X0188995Y0141457D01*
X0188966Y0141517D01*
X0188939Y0141580D01*
X0188917Y0141643D01*
X0188898Y0141708D01*
X0188883Y0141773D01*
X0188871Y0141840D01*
X0188863Y0141907D01*
X0188859Y0141974D01*
X0188859Y0142042D01*
X0188863Y0142109D01*
X0188871Y0142176D01*
X0188883Y0142243D01*
X0188898Y0142308D01*
X0188917Y0142373D01*
X0188939Y0142436D01*
X0188966Y0142499D01*
X0188995Y0142559D01*
X0189029Y0142618D01*
X0189065Y0142675D01*
X0189105Y0142729D01*
X0189147Y0142781D01*
X0189193Y0142831D01*
X0189241Y0142878D01*
X0189292Y0142922D01*
X0189346Y0142963D01*
X0189402Y0143002D01*
X0189459Y0143036D01*
X0189519Y0143068D01*
X0189580Y0143096D01*
X0189643Y0143120D01*
X0189707Y0143141D01*
X0189773Y0143158D01*
X0189839Y0143172D01*
X0189905Y0143181D01*
X0189973Y0143187D01*
X0190040Y0143189D01*
X0205532Y0143189D02*
X0209863Y0143189D01*
X0209930Y0143187D01*
X0209998Y0143181D01*
X0210064Y0143172D01*
X0210130Y0143158D01*
X0210196Y0143141D01*
X0210260Y0143120D01*
X0210323Y0143096D01*
X0210384Y0143068D01*
X0210444Y0143036D01*
X0210501Y0143002D01*
X0210557Y0142963D01*
X0210611Y0142922D01*
X0210662Y0142878D01*
X0210710Y0142831D01*
X0210756Y0142781D01*
X0210798Y0142729D01*
X0210838Y0142675D01*
X0210874Y0142618D01*
X0210908Y0142559D01*
X0210937Y0142499D01*
X0210964Y0142436D01*
X0210986Y0142373D01*
X0211005Y0142308D01*
X0211020Y0142243D01*
X0211032Y0142176D01*
X0211040Y0142109D01*
X0211044Y0142042D01*
X0211044Y0141974D01*
X0211040Y0141907D01*
X0211032Y0141840D01*
X0211020Y0141773D01*
X0211005Y0141708D01*
X0210986Y0141643D01*
X0210964Y0141580D01*
X0210937Y0141517D01*
X0210908Y0141457D01*
X0210874Y0141398D01*
X0210838Y0141341D01*
X0210798Y0141287D01*
X0210756Y0141235D01*
X0210710Y0141185D01*
X0210662Y0141138D01*
X0210611Y0141094D01*
X0210557Y0141053D01*
X0210501Y0141014D01*
X0210444Y0140980D01*
X0210384Y0140948D01*
X0210323Y0140920D01*
X0210260Y0140896D01*
X0210196Y0140875D01*
X0210130Y0140858D01*
X0210064Y0140844D01*
X0209998Y0140835D01*
X0209930Y0140829D01*
X0209863Y0140827D01*
X0205532Y0140827D01*
X0205465Y0140829D01*
X0205397Y0140835D01*
X0205331Y0140844D01*
X0205265Y0140858D01*
X0205199Y0140875D01*
X0205135Y0140896D01*
X0205072Y0140920D01*
X0205011Y0140948D01*
X0204951Y0140980D01*
X0204894Y0141014D01*
X0204838Y0141053D01*
X0204784Y0141094D01*
X0204733Y0141138D01*
X0204685Y0141185D01*
X0204639Y0141235D01*
X0204597Y0141287D01*
X0204557Y0141341D01*
X0204521Y0141398D01*
X0204487Y0141457D01*
X0204458Y0141517D01*
X0204431Y0141580D01*
X0204409Y0141643D01*
X0204390Y0141708D01*
X0204375Y0141773D01*
X0204363Y0141840D01*
X0204355Y0141907D01*
X0204351Y0141974D01*
X0204351Y0142042D01*
X0204355Y0142109D01*
X0204363Y0142176D01*
X0204375Y0142243D01*
X0204390Y0142308D01*
X0204409Y0142373D01*
X0204431Y0142436D01*
X0204458Y0142499D01*
X0204487Y0142559D01*
X0204521Y0142618D01*
X0204557Y0142675D01*
X0204597Y0142729D01*
X0204639Y0142781D01*
X0204685Y0142831D01*
X0204733Y0142878D01*
X0204784Y0142922D01*
X0204838Y0142963D01*
X0204894Y0143002D01*
X0204951Y0143036D01*
X0205011Y0143068D01*
X0205072Y0143096D01*
X0205135Y0143120D01*
X0205199Y0143141D01*
X0205265Y0143158D01*
X0205331Y0143172D01*
X0205397Y0143181D01*
X0205465Y0143187D01*
X0205532Y0143189D01*
X0205532Y0109173D02*
X0209863Y0109173D01*
X0209930Y0109171D01*
X0209998Y0109165D01*
X0210064Y0109156D01*
X0210130Y0109142D01*
X0210196Y0109125D01*
X0210260Y0109104D01*
X0210323Y0109080D01*
X0210384Y0109052D01*
X0210444Y0109020D01*
X0210501Y0108986D01*
X0210557Y0108947D01*
X0210611Y0108906D01*
X0210662Y0108862D01*
X0210710Y0108815D01*
X0210756Y0108765D01*
X0210798Y0108713D01*
X0210838Y0108659D01*
X0210874Y0108602D01*
X0210908Y0108543D01*
X0210937Y0108483D01*
X0210964Y0108420D01*
X0210986Y0108357D01*
X0211005Y0108292D01*
X0211020Y0108227D01*
X0211032Y0108160D01*
X0211040Y0108093D01*
X0211044Y0108026D01*
X0211044Y0107958D01*
X0211040Y0107891D01*
X0211032Y0107824D01*
X0211020Y0107757D01*
X0211005Y0107692D01*
X0210986Y0107627D01*
X0210964Y0107564D01*
X0210937Y0107501D01*
X0210908Y0107441D01*
X0210874Y0107382D01*
X0210838Y0107325D01*
X0210798Y0107271D01*
X0210756Y0107219D01*
X0210710Y0107169D01*
X0210662Y0107122D01*
X0210611Y0107078D01*
X0210557Y0107037D01*
X0210501Y0106998D01*
X0210444Y0106964D01*
X0210384Y0106932D01*
X0210323Y0106904D01*
X0210260Y0106880D01*
X0210196Y0106859D01*
X0210130Y0106842D01*
X0210064Y0106828D01*
X0209998Y0106819D01*
X0209930Y0106813D01*
X0209863Y0106811D01*
X0205532Y0106811D01*
X0205465Y0106813D01*
X0205397Y0106819D01*
X0205331Y0106828D01*
X0205265Y0106842D01*
X0205199Y0106859D01*
X0205135Y0106880D01*
X0205072Y0106904D01*
X0205011Y0106932D01*
X0204951Y0106964D01*
X0204894Y0106998D01*
X0204838Y0107037D01*
X0204784Y0107078D01*
X0204733Y0107122D01*
X0204685Y0107169D01*
X0204639Y0107219D01*
X0204597Y0107271D01*
X0204557Y0107325D01*
X0204521Y0107382D01*
X0204487Y0107441D01*
X0204458Y0107501D01*
X0204431Y0107564D01*
X0204409Y0107627D01*
X0204390Y0107692D01*
X0204375Y0107757D01*
X0204363Y0107824D01*
X0204355Y0107891D01*
X0204351Y0107958D01*
X0204351Y0108026D01*
X0204355Y0108093D01*
X0204363Y0108160D01*
X0204375Y0108227D01*
X0204390Y0108292D01*
X0204409Y0108357D01*
X0204431Y0108420D01*
X0204458Y0108483D01*
X0204487Y0108543D01*
X0204521Y0108602D01*
X0204557Y0108659D01*
X0204597Y0108713D01*
X0204639Y0108765D01*
X0204685Y0108815D01*
X0204733Y0108862D01*
X0204784Y0108906D01*
X0204838Y0108947D01*
X0204894Y0108986D01*
X0204951Y0109020D01*
X0205011Y0109052D01*
X0205072Y0109080D01*
X0205135Y0109104D01*
X0205199Y0109125D01*
X0205265Y0109142D01*
X0205331Y0109156D01*
X0205397Y0109165D01*
X0205465Y0109171D01*
X0205532Y0109173D01*
X0192481Y0109173D02*
X0190040Y0109173D01*
X0189973Y0109171D01*
X0189905Y0109165D01*
X0189839Y0109156D01*
X0189773Y0109142D01*
X0189707Y0109125D01*
X0189643Y0109104D01*
X0189580Y0109080D01*
X0189519Y0109052D01*
X0189459Y0109020D01*
X0189402Y0108986D01*
X0189346Y0108947D01*
X0189292Y0108906D01*
X0189241Y0108862D01*
X0189193Y0108815D01*
X0189147Y0108765D01*
X0189105Y0108713D01*
X0189065Y0108659D01*
X0189029Y0108602D01*
X0188995Y0108543D01*
X0188966Y0108483D01*
X0188939Y0108420D01*
X0188917Y0108357D01*
X0188898Y0108292D01*
X0188883Y0108227D01*
X0188871Y0108160D01*
X0188863Y0108093D01*
X0188859Y0108026D01*
X0188859Y0107958D01*
X0188863Y0107891D01*
X0188871Y0107824D01*
X0188883Y0107757D01*
X0188898Y0107692D01*
X0188917Y0107627D01*
X0188939Y0107564D01*
X0188966Y0107501D01*
X0188995Y0107441D01*
X0189029Y0107382D01*
X0189065Y0107325D01*
X0189105Y0107271D01*
X0189147Y0107219D01*
X0189193Y0107169D01*
X0189241Y0107122D01*
X0189292Y0107078D01*
X0189346Y0107037D01*
X0189402Y0106998D01*
X0189459Y0106964D01*
X0189519Y0106932D01*
X0189580Y0106904D01*
X0189643Y0106880D01*
X0189707Y0106859D01*
X0189773Y0106842D01*
X0189839Y0106828D01*
X0189905Y0106819D01*
X0189973Y0106813D01*
X0190040Y0106811D01*
X0192481Y0106811D01*
X0192548Y0106813D01*
X0192616Y0106819D01*
X0192682Y0106828D01*
X0192748Y0106842D01*
X0192814Y0106859D01*
X0192878Y0106880D01*
X0192941Y0106904D01*
X0193002Y0106932D01*
X0193062Y0106964D01*
X0193119Y0106998D01*
X0193175Y0107037D01*
X0193229Y0107078D01*
X0193280Y0107122D01*
X0193328Y0107169D01*
X0193374Y0107219D01*
X0193416Y0107271D01*
X0193456Y0107325D01*
X0193492Y0107382D01*
X0193526Y0107441D01*
X0193555Y0107501D01*
X0193582Y0107564D01*
X0193604Y0107627D01*
X0193623Y0107692D01*
X0193638Y0107757D01*
X0193650Y0107824D01*
X0193658Y0107891D01*
X0193662Y0107958D01*
X0193662Y0108026D01*
X0193658Y0108093D01*
X0193650Y0108160D01*
X0193638Y0108227D01*
X0193623Y0108292D01*
X0193604Y0108357D01*
X0193582Y0108420D01*
X0193555Y0108483D01*
X0193526Y0108543D01*
X0193492Y0108602D01*
X0193456Y0108659D01*
X0193416Y0108713D01*
X0193374Y0108765D01*
X0193328Y0108815D01*
X0193280Y0108862D01*
X0193229Y0108906D01*
X0193175Y0108947D01*
X0193119Y0108986D01*
X0193062Y0109020D01*
X0193002Y0109052D01*
X0192941Y0109080D01*
X0192878Y0109104D01*
X0192814Y0109125D01*
X0192748Y0109142D01*
X0192682Y0109156D01*
X0192616Y0109165D01*
X0192548Y0109171D01*
X0192481Y0109173D01*
D13*
X0345930Y0104307D02*
X0345763Y0104050D01*
X0345590Y0103796D01*
X0345411Y0103547D01*
X0345226Y0103302D01*
X0345035Y0103062D01*
X0344838Y0102827D01*
X0344635Y0102596D01*
X0344427Y0102371D01*
X0344213Y0102151D01*
X0343994Y0101936D01*
X0343770Y0101726D01*
X0343541Y0101522D01*
X0343307Y0101324D01*
X0343068Y0101131D01*
X0342824Y0100944D01*
X0342576Y0100764D01*
X0342324Y0100589D01*
X0342067Y0100421D01*
X0341806Y0100259D01*
X0341542Y0100103D01*
X0341274Y0099954D01*
X0341002Y0099812D01*
X0340727Y0099676D01*
X0340448Y0099547D01*
X0340167Y0099425D01*
X0339882Y0099309D01*
X0339595Y0099201D01*
X0339305Y0099100D01*
X0339013Y0099006D01*
X0338719Y0098919D01*
X0338423Y0098839D01*
X0338124Y0098767D01*
X0337825Y0098701D01*
X0337523Y0098644D01*
X0337220Y0098593D01*
X0336917Y0098550D01*
X0336612Y0098515D01*
X0336306Y0098487D01*
X0336000Y0098466D01*
X0335693Y0098453D01*
X0335387Y0098447D01*
X0335080Y0098449D01*
X0334773Y0098458D01*
X0334466Y0098475D01*
X0334161Y0098500D01*
X0333855Y0098532D01*
X0333551Y0098571D01*
X0333248Y0098618D01*
X0332946Y0098672D01*
X0332645Y0098733D01*
X0332346Y0098802D01*
X0332049Y0098878D01*
X0331753Y0098961D01*
X0331460Y0099052D01*
X0331169Y0099150D01*
X0330881Y0099254D01*
X0330595Y0099366D01*
X0330312Y0099485D01*
X0330032Y0099611D01*
X0329755Y0099743D01*
X0329481Y0099882D01*
X0329211Y0100028D01*
X0328945Y0100180D01*
X0328682Y0100339D01*
X0328424Y0100504D01*
X0328169Y0100676D01*
X0327919Y0100853D01*
X0327673Y0101037D01*
X0327432Y0101227D01*
X0327195Y0101422D01*
X0326964Y0101624D01*
X0326737Y0101830D01*
X0326515Y0102043D01*
X0326299Y0102260D01*
X0326088Y0102483D01*
X0325883Y0102711D01*
X0325683Y0102944D01*
X0325489Y0103182D01*
X0325301Y0103424D01*
X0325118Y0103671D01*
X0324942Y0103923D01*
X0324772Y0104178D01*
X0324609Y0104438D01*
X0324452Y0104701D01*
X0324301Y0104969D01*
X0324157Y0105240D01*
X0324019Y0105514D01*
X0323888Y0105792D01*
X0323765Y0106072D01*
X0323648Y0106356D01*
X0323538Y0106643D01*
X0323435Y0106932D01*
X0323339Y0107223D01*
X0323250Y0107517D01*
X0323168Y0107813D01*
X0323094Y0108111D01*
X0323027Y0108410D01*
X0322967Y0108711D01*
X0322915Y0109014D01*
X0322870Y0109317D01*
X0322833Y0109622D01*
X0322803Y0109927D01*
X0322780Y0110233D01*
X0322765Y0110540D01*
X0322758Y0110847D01*
X0322758Y0111153D01*
X0322765Y0111460D01*
X0322780Y0111767D01*
X0322803Y0112073D01*
X0322833Y0112378D01*
X0322870Y0112683D01*
X0322915Y0112986D01*
X0322967Y0113289D01*
X0323027Y0113590D01*
X0323094Y0113889D01*
X0323168Y0114187D01*
X0323250Y0114483D01*
X0323339Y0114777D01*
X0323435Y0115068D01*
X0323538Y0115357D01*
X0323648Y0115644D01*
X0323765Y0115928D01*
X0323888Y0116208D01*
X0324019Y0116486D01*
X0324157Y0116760D01*
X0324301Y0117031D01*
X0324452Y0117299D01*
X0324609Y0117562D01*
X0324772Y0117822D01*
X0324942Y0118077D01*
X0325118Y0118329D01*
X0325301Y0118576D01*
X0325489Y0118818D01*
X0325683Y0119056D01*
X0325883Y0119289D01*
X0326088Y0119517D01*
X0326299Y0119740D01*
X0326515Y0119957D01*
X0326737Y0120170D01*
X0326964Y0120376D01*
X0327195Y0120578D01*
X0327432Y0120773D01*
X0327673Y0120963D01*
X0327919Y0121147D01*
X0328169Y0121324D01*
X0328424Y0121496D01*
X0328682Y0121661D01*
X0328945Y0121820D01*
X0329211Y0121972D01*
X0329481Y0122118D01*
X0329755Y0122257D01*
X0330032Y0122389D01*
X0330312Y0122515D01*
X0330595Y0122634D01*
X0330881Y0122746D01*
X0331169Y0122850D01*
X0331460Y0122948D01*
X0331753Y0123039D01*
X0332049Y0123122D01*
X0332346Y0123198D01*
X0332645Y0123267D01*
X0332946Y0123328D01*
X0333248Y0123382D01*
X0333551Y0123429D01*
X0333855Y0123468D01*
X0334161Y0123500D01*
X0334466Y0123525D01*
X0334773Y0123542D01*
X0335080Y0123551D01*
X0335387Y0123553D01*
X0335693Y0123547D01*
X0336000Y0123534D01*
X0336306Y0123513D01*
X0336612Y0123485D01*
X0336917Y0123450D01*
X0337220Y0123407D01*
X0337523Y0123356D01*
X0337825Y0123299D01*
X0338124Y0123233D01*
X0338423Y0123161D01*
X0338719Y0123081D01*
X0339013Y0122994D01*
X0339305Y0122900D01*
X0339595Y0122799D01*
X0339882Y0122691D01*
X0340167Y0122575D01*
X0340448Y0122453D01*
X0340727Y0122324D01*
X0341002Y0122188D01*
X0341274Y0122046D01*
X0341542Y0121897D01*
X0341806Y0121741D01*
X0342067Y0121579D01*
X0342324Y0121411D01*
X0342576Y0121236D01*
X0342824Y0121056D01*
X0343068Y0120869D01*
X0343307Y0120676D01*
X0343541Y0120478D01*
X0343770Y0120274D01*
X0343994Y0120064D01*
X0344213Y0119849D01*
X0344427Y0119629D01*
X0344635Y0119404D01*
X0344838Y0119173D01*
X0345035Y0118938D01*
X0345226Y0118698D01*
X0345411Y0118453D01*
X0345590Y0118204D01*
X0345763Y0117950D01*
X0345930Y0117693D01*
X0345930Y0104307D01*
D14*
X0338226Y0107500D02*
X0337809Y0107917D01*
X0337809Y0109585D01*
X0337392Y0109168D02*
X0338226Y0109168D01*
X0336297Y0109168D02*
X0336297Y0107500D01*
X0335046Y0107500D01*
X0334629Y0107917D01*
X0334629Y0109168D01*
X0333535Y0109585D02*
X0333118Y0110002D01*
X0332284Y0110002D01*
X0331867Y0109585D01*
X0331867Y0107917D01*
X0332284Y0107500D01*
X0333118Y0107500D01*
X0333535Y0107917D01*
X0333535Y0109585D01*
X0333118Y0112000D02*
X0333535Y0112417D01*
X0333535Y0113251D01*
X0333118Y0113668D01*
X0332284Y0113668D01*
X0331867Y0113251D01*
X0331867Y0112417D01*
X0332284Y0112000D01*
X0333118Y0112000D01*
X0334629Y0112417D02*
X0335046Y0112000D01*
X0336297Y0112000D01*
X0336297Y0113668D01*
X0337392Y0113668D02*
X0338226Y0113668D01*
X0337809Y0114085D02*
X0337809Y0112417D01*
X0338226Y0112000D01*
X0339233Y0112417D02*
X0339233Y0113251D01*
X0339650Y0113668D01*
X0340484Y0113668D01*
X0340901Y0113251D01*
X0340901Y0112834D01*
X0339233Y0112834D01*
X0339233Y0112417D02*
X0339650Y0112000D01*
X0340484Y0112000D01*
X0334629Y0112417D02*
X0334629Y0113668D01*
X0330773Y0113251D02*
X0330356Y0112834D01*
X0329105Y0112834D01*
X0329939Y0112834D02*
X0330773Y0112000D01*
X0330773Y0113251D02*
X0330773Y0114085D01*
X0330356Y0114502D01*
X0329105Y0114502D01*
X0329105Y0112000D01*
M02*
