G75*
%MOIN*%
%OFA0B0*%
%FSLAX25Y25*%
%IPPOS*%
%LPD*%
%AMOC8*
5,1,8,0,0,1.08239X$1,22.5*
%
%ADD10C,0.00800*%
%ADD11C,0.00299*%
%ADD12C,0.00600*%
%ADD13R,0.00157X0.13858*%
%ADD14R,0.00157X0.14331*%
%ADD15R,0.00157X0.14646*%
%ADD16R,0.00157X0.14961*%
%ADD17R,0.00157X0.15118*%
%ADD18R,0.00157X0.15276*%
%ADD19R,0.00157X0.15433*%
%ADD20R,0.00157X0.02835*%
%ADD21R,0.00157X0.11969*%
%ADD22R,0.00157X0.02520*%
%ADD23R,0.00157X0.01102*%
%ADD24R,0.00157X0.03150*%
%ADD25R,0.00157X0.04567*%
%ADD26R,0.00157X0.02205*%
%ADD27R,0.00157X0.00787*%
%ADD28R,0.00157X0.02677*%
%ADD29R,0.00157X0.04409*%
%ADD30R,0.00157X0.02047*%
%ADD31R,0.00157X0.00630*%
%ADD32R,0.00157X0.01890*%
%ADD33R,0.00157X0.01732*%
%ADD34R,0.00157X0.01575*%
%ADD35R,0.00157X0.00945*%
%ADD36R,0.00157X0.02362*%
%ADD37R,0.00157X0.01260*%
%ADD38R,0.00157X0.01417*%
%ADD39R,0.00157X0.04252*%
%ADD40R,0.00157X0.00315*%
%ADD41R,0.00157X0.04094*%
%ADD42R,0.00157X0.00472*%
%ADD43R,0.00157X0.03937*%
%ADD44R,0.00157X0.03307*%
%ADD45R,0.00157X0.03780*%
%ADD46R,0.00157X0.03465*%
%ADD47R,0.00157X0.02992*%
%ADD48R,0.00157X0.12913*%
%ADD49R,0.00157X0.13386*%
%ADD50R,0.00157X0.13701*%
%ADD51R,0.00157X0.14016*%
%ADD52R,0.00157X0.14173*%
%ADD53R,0.00157X0.14488*%
%ADD54R,0.00157X0.07087*%
%ADD55R,0.00157X0.04882*%
%ADD56R,0.00157X0.05039*%
%ADD57R,0.00157X0.05197*%
%ADD58R,0.00157X0.03622*%
%ADD59R,0.00157X0.00157*%
%ADD60R,0.00157X0.11024*%
%ADD61R,0.00157X0.12756*%
%ADD62R,0.01181X0.00236*%
%ADD63R,0.00945X0.00236*%
%ADD64R,0.01654X0.00236*%
%ADD65R,0.01417X0.00236*%
%ADD66R,0.00472X0.00236*%
%ADD67R,0.02126X0.00236*%
%ADD68R,0.00709X0.00236*%
%ADD69R,0.03543X0.00236*%
%ADD70R,0.02835X0.00236*%
%ADD71R,0.04016X0.00236*%
%ADD72R,0.03307X0.00236*%
%ADD73R,0.03780X0.00236*%
%ADD74R,0.01890X0.00236*%
%ADD75R,0.04252X0.00236*%
%ADD76R,0.04488X0.00236*%
%ADD77R,0.03071X0.00236*%
%ADD78R,0.02598X0.00236*%
%ADD79R,0.02362X0.00236*%
%ADD80R,0.00236X0.00236*%
%ADD81R,0.01654X0.00079*%
%ADD82R,0.03228X0.00079*%
%ADD83R,0.03858X0.00079*%
%ADD84R,0.04646X0.00079*%
%ADD85R,0.05276X0.00079*%
%ADD86R,0.05748X0.00079*%
%ADD87R,0.06299X0.00079*%
%ADD88R,0.06693X0.00079*%
%ADD89R,0.07165X0.00079*%
%ADD90R,0.07480X0.00079*%
%ADD91R,0.07795X0.00079*%
%ADD92R,0.08268X0.00079*%
%ADD93R,0.08504X0.00079*%
%ADD94R,0.08898X0.00079*%
%ADD95R,0.09213X0.00079*%
%ADD96R,0.09449X0.00079*%
%ADD97R,0.09764X0.00079*%
%ADD98R,0.10000X0.00079*%
%ADD99R,0.10236X0.00079*%
%ADD100R,0.10551X0.00079*%
%ADD101R,0.10709X0.00079*%
%ADD102R,0.11024X0.00079*%
%ADD103R,0.11181X0.00079*%
%ADD104R,0.11417X0.00079*%
%ADD105R,0.11654X0.00079*%
%ADD106R,0.11811X0.00079*%
%ADD107R,0.12047X0.00079*%
%ADD108R,0.12283X0.00079*%
%ADD109R,0.12441X0.00079*%
%ADD110R,0.12598X0.00079*%
%ADD111R,0.12835X0.00079*%
%ADD112R,0.12992X0.00079*%
%ADD113R,0.13150X0.00079*%
%ADD114R,0.13307X0.00079*%
%ADD115R,0.13465X0.00079*%
%ADD116R,0.13622X0.00079*%
%ADD117R,0.13858X0.00079*%
%ADD118R,0.13937X0.00079*%
%ADD119R,0.14094X0.00079*%
%ADD120R,0.14252X0.00079*%
%ADD121R,0.14409X0.00079*%
%ADD122R,0.14567X0.00079*%
%ADD123R,0.14724X0.00079*%
%ADD124R,0.14882X0.00079*%
%ADD125R,0.14961X0.00079*%
%ADD126R,0.15118X0.00079*%
%ADD127R,0.15197X0.00079*%
%ADD128R,0.15354X0.00079*%
%ADD129R,0.15512X0.00079*%
%ADD130R,0.15591X0.00079*%
%ADD131R,0.15669X0.00079*%
%ADD132R,0.15827X0.00079*%
%ADD133R,0.15984X0.00079*%
%ADD134R,0.16063X0.00079*%
%ADD135R,0.16142X0.00079*%
%ADD136R,0.16220X0.00079*%
%ADD137R,0.16378X0.00079*%
%ADD138R,0.16457X0.00079*%
%ADD139R,0.16535X0.00079*%
%ADD140R,0.16693X0.00079*%
%ADD141R,0.16772X0.00079*%
%ADD142R,0.16850X0.00079*%
%ADD143R,0.16929X0.00079*%
%ADD144R,0.17008X0.00079*%
%ADD145R,0.17087X0.00079*%
%ADD146R,0.17244X0.00079*%
%ADD147R,0.17323X0.00079*%
%ADD148R,0.17480X0.00079*%
%ADD149R,0.17559X0.00079*%
%ADD150R,0.17717X0.00079*%
%ADD151R,0.17795X0.00079*%
%ADD152R,0.17874X0.00079*%
%ADD153R,0.17953X0.00079*%
%ADD154R,0.18031X0.00079*%
%ADD155R,0.18110X0.00079*%
%ADD156R,0.18189X0.00079*%
%ADD157R,0.18268X0.00079*%
%ADD158R,0.18346X0.00079*%
%ADD159R,0.18425X0.00079*%
%ADD160R,0.18504X0.00079*%
%ADD161R,0.18583X0.00079*%
%ADD162R,0.18661X0.00079*%
%ADD163R,0.02362X0.00079*%
%ADD164R,0.02520X0.00079*%
%ADD165R,0.02441X0.00079*%
%ADD166R,0.02283X0.00079*%
%ADD167R,0.02598X0.00079*%
%ADD168R,0.02677X0.00079*%
%ADD169R,0.02756X0.00079*%
%ADD170R,0.01811X0.00079*%
%ADD171R,0.01890X0.00079*%
%ADD172R,0.01969X0.00079*%
%ADD173R,0.02835X0.00079*%
%ADD174R,0.02205X0.00079*%
%ADD175R,0.05827X0.00079*%
%ADD176R,0.06220X0.00079*%
%ADD177R,0.06142X0.00079*%
%ADD178R,0.06063X0.00079*%
%ADD179R,0.05984X0.00079*%
%ADD180R,0.05906X0.00079*%
%ADD181R,0.05669X0.00079*%
%ADD182R,0.05512X0.00079*%
%ADD183R,0.05591X0.00079*%
%ADD184R,0.05433X0.00079*%
%ADD185R,0.05354X0.00079*%
%ADD186R,0.05197X0.00079*%
%ADD187R,0.05118X0.00079*%
%ADD188R,0.04961X0.00079*%
%ADD189R,0.04803X0.00079*%
%ADD190R,0.04724X0.00079*%
%ADD191R,0.04488X0.00079*%
%ADD192R,0.02913X0.00079*%
%ADD193R,0.04331X0.00079*%
%ADD194R,0.04252X0.00079*%
%ADD195R,0.04094X0.00079*%
%ADD196R,0.04016X0.00079*%
%ADD197R,0.03937X0.00079*%
%ADD198R,0.03780X0.00079*%
%ADD199R,0.03622X0.00079*%
%ADD200R,0.02992X0.00079*%
%ADD201R,0.03543X0.00079*%
%ADD202R,0.03386X0.00079*%
%ADD203R,0.05039X0.00079*%
%ADD204R,0.03150X0.00079*%
%ADD205R,0.03071X0.00079*%
%ADD206R,0.02126X0.00079*%
%ADD207R,0.04882X0.00079*%
%ADD208R,0.01732X0.00079*%
%ADD209R,0.01496X0.00079*%
%ADD210R,0.01260X0.00079*%
%ADD211R,0.01102X0.00079*%
%ADD212R,0.03307X0.00079*%
%ADD213R,0.00866X0.00079*%
%ADD214R,0.00551X0.00079*%
%ADD215R,0.04567X0.00079*%
%ADD216R,0.00079X0.00079*%
%ADD217R,0.03465X0.00079*%
%ADD218R,0.04409X0.00079*%
%ADD219R,0.03701X0.00079*%
%ADD220R,0.04173X0.00079*%
%ADD221R,0.00236X0.00079*%
%ADD222R,0.07244X0.00079*%
%ADD223R,0.07087X0.00079*%
%ADD224R,0.07008X0.00079*%
%ADD225R,0.06929X0.00079*%
%ADD226R,0.06850X0.00079*%
%ADD227R,0.01575X0.00079*%
%ADD228R,0.01181X0.00079*%
%ADD229R,0.06614X0.00079*%
%ADD230R,0.00472X0.00079*%
%ADD231R,0.06535X0.00079*%
%ADD232R,0.06378X0.00079*%
%ADD233R,0.01063X0.00079*%
%ADD234R,0.01378X0.00079*%
%ADD235R,0.01457X0.00079*%
%ADD236R,0.01417X0.00079*%
%ADD237R,0.00827X0.00079*%
%ADD238R,0.01299X0.00079*%
%ADD239R,0.01142X0.00079*%
%ADD240R,0.02598X0.00118*%
%ADD241R,0.01457X0.00118*%
%ADD242R,0.01378X0.00118*%
%ADD243R,0.01575X0.00118*%
%ADD244R,0.01732X0.00118*%
%ADD245R,0.04213X0.00079*%
%ADD246R,0.02047X0.00079*%
%ADD247R,0.01929X0.00079*%
%ADD248R,0.01614X0.00079*%
%ADD249R,0.01772X0.00079*%
%ADD250R,0.01693X0.00079*%
%ADD251R,0.01535X0.00079*%
%ADD252R,0.01535X0.00118*%
%ADD253R,0.01693X0.00118*%
%ADD254R,0.01299X0.00118*%
%ADD255R,0.02205X0.00118*%
%ADD256R,0.01220X0.00118*%
%ADD257R,0.01220X0.00079*%
%ADD258R,0.01339X0.00079*%
%ADD259R,0.01260X0.00118*%
%ADD260R,0.01063X0.00118*%
%ADD261R,0.01142X0.00118*%
%ADD262R,0.02402X0.00079*%
%ADD263R,0.02008X0.00079*%
%ADD264R,0.04331X0.00118*%
%ADD265R,0.01772X0.00118*%
%ADD266R,0.01969X0.00118*%
%ADD267R,0.04134X0.00079*%
%ADD268R,0.00984X0.00079*%
%ADD269R,0.00748X0.00079*%
%ADD270R,0.00157X0.11181*%
%ADD271R,0.00157X0.11496*%
%ADD272R,0.00157X0.11654*%
%ADD273R,0.00157X0.13071*%
%ADD274R,0.00157X0.13228*%
%ADD275R,0.00157X0.11811*%
%ADD276R,0.00157X0.14803*%
%ADD277R,0.00157X0.15906*%
%ADD278R,0.00157X0.16063*%
%ADD279R,0.00157X0.16220*%
%ADD280R,0.00157X0.16378*%
%ADD281R,0.00157X0.09921*%
%ADD282R,0.00118X0.08858*%
%ADD283R,0.00118X0.09567*%
%ADD284R,0.00079X0.10039*%
%ADD285R,0.00157X0.10512*%
%ADD286R,0.00118X0.10748*%
%ADD287R,0.00118X0.10984*%
%ADD288R,0.00079X0.11220*%
%ADD289R,0.00118X0.07913*%
%ADD290R,0.00118X0.02953*%
%ADD291R,0.00157X0.03543*%
%ADD292R,0.00157X0.01535*%
%ADD293R,0.00118X0.03543*%
%ADD294R,0.00118X0.00472*%
%ADD295R,0.00118X0.01063*%
%ADD296R,0.00118X0.02598*%
%ADD297R,0.00118X0.00354*%
%ADD298R,0.00118X0.00827*%
%ADD299R,0.00118X0.00591*%
%ADD300R,0.00157X0.03661*%
%ADD301R,0.00157X0.00354*%
%ADD302R,0.00157X0.02598*%
%ADD303R,0.00118X0.03661*%
%ADD304R,0.00118X0.00709*%
%ADD305R,0.00118X0.02480*%
%ADD306R,0.00118X0.03780*%
%ADD307R,0.00118X0.00236*%
%ADD308R,0.00157X0.00236*%
%ADD309R,0.00157X0.00827*%
%ADD310R,0.00118X0.00945*%
%ADD311R,0.00157X0.01654*%
%ADD312R,0.00157X0.02717*%
%ADD313R,0.00118X0.01417*%
%ADD314R,0.00118X0.02717*%
%ADD315R,0.00118X0.02835*%
%ADD316R,0.00118X0.01299*%
%ADD317R,0.00157X0.01181*%
%ADD318R,0.00157X0.03071*%
%ADD319R,0.00118X0.01181*%
%ADD320R,0.00118X0.03189*%
%ADD321R,0.00118X0.02008*%
%ADD322R,0.00118X0.03425*%
%ADD323R,0.00118X0.02244*%
%ADD324R,0.00118X0.01890*%
%ADD325R,0.00118X0.02126*%
%ADD326R,0.00157X0.02126*%
%ADD327R,0.00118X0.11220*%
%ADD328R,0.00118X0.10512*%
%ADD329R,0.00118X0.10039*%
%ADD330R,0.00118X0.17598*%
%ADD331R,0.00118X0.17480*%
%ADD332R,0.00079X0.17362*%
%ADD333R,0.00157X0.17244*%
%ADD334R,0.00118X0.17126*%
%ADD335R,0.00118X0.17008*%
%ADD336R,0.00079X0.16890*%
%ADD337R,0.00118X0.05197*%
%ADD338R,0.00157X0.01299*%
%ADD339R,0.00157X0.00709*%
%ADD340R,0.00157X0.01063*%
%ADD341R,0.00118X0.02362*%
%ADD342R,0.00157X0.00591*%
%ADD343R,0.00157X0.02244*%
%ADD344R,0.00157X0.00118*%
%ADD345R,0.00118X0.00118*%
%ADD346R,0.00157X0.02008*%
%ADD347R,0.00118X0.01535*%
%ADD348R,0.00118X0.01772*%
%ADD349R,0.00118X0.16890*%
%ADD350R,0.00118X0.17244*%
%ADD351R,0.00118X0.17362*%
%ADD352R,0.00157X0.15748*%
%ADD353R,0.00157X0.15591*%
%ADD354R,0.00118X0.08622*%
%ADD355R,0.00079X0.09094*%
%ADD356R,0.00157X0.09567*%
%ADD357R,0.00118X0.09803*%
%ADD358R,0.00079X0.10276*%
%ADD359R,0.00157X0.02480*%
%ADD360R,0.00118X0.10276*%
%ADD361R,0.00118X0.09094*%
%ADD362R,0.00079X0.01181*%
%ADD363R,0.00079X0.07913*%
%ADD364R,0.00157X0.07913*%
%ADD365R,0.00118X0.01654*%
%ADD366R,0.00079X0.01772*%
%ADD367R,0.00118X0.06142*%
%ADD368R,0.11693X0.00118*%
%ADD369R,0.12402X0.00118*%
%ADD370R,0.12874X0.00079*%
%ADD371R,0.13346X0.00157*%
%ADD372R,0.13583X0.00118*%
%ADD373R,0.13819X0.00118*%
%ADD374R,0.14055X0.00079*%
%ADD375R,0.05669X0.00118*%
%ADD376R,0.08031X0.00118*%
%ADD377R,0.02244X0.00157*%
%ADD378R,0.01535X0.00157*%
%ADD379R,0.00827X0.00157*%
%ADD380R,0.00354X0.00157*%
%ADD381R,0.03661X0.00157*%
%ADD382R,0.02244X0.00118*%
%ADD383R,0.01181X0.00118*%
%ADD384R,0.00709X0.00118*%
%ADD385R,0.00236X0.00118*%
%ADD386R,0.03661X0.00118*%
%ADD387R,0.02362X0.00118*%
%ADD388R,0.00945X0.00118*%
%ADD389R,0.00591X0.00118*%
%ADD390R,0.02480X0.00157*%
%ADD391R,0.00591X0.00157*%
%ADD392R,0.00236X0.00157*%
%ADD393R,0.03780X0.00157*%
%ADD394R,0.02480X0.00118*%
%ADD395R,0.00472X0.00118*%
%ADD396R,0.00354X0.00118*%
%ADD397R,0.03780X0.00118*%
%ADD398R,0.01890X0.00118*%
%ADD399R,0.03898X0.00118*%
%ADD400R,0.02598X0.00157*%
%ADD401R,0.01063X0.00157*%
%ADD402R,0.01772X0.00157*%
%ADD403R,0.01890X0.00157*%
%ADD404R,0.03898X0.00157*%
%ADD405R,0.01181X0.00157*%
%ADD406R,0.00709X0.00157*%
%ADD407R,0.00827X0.00118*%
%ADD408R,0.02126X0.00118*%
%ADD409R,0.01299X0.00157*%
%ADD410R,0.02126X0.00157*%
%ADD411R,0.14055X0.00118*%
%ADD412R,0.13346X0.00118*%
%ADD413R,0.12874X0.00118*%
%ADD414R,0.00157X0.10551*%
%ADD415R,0.00157X0.07874*%
%ADD416R,0.00157X0.08031*%
%ADD417R,0.00157X0.08346*%
%ADD418R,0.00157X0.08504*%
%ADD419R,0.00157X0.09606*%
%ADD420R,0.00157X0.09764*%
%ADD421R,0.00157X0.10079*%
%ADD422R,0.00157X0.08661*%
%ADD423R,0.00157X0.23425*%
%ADD424R,0.00118X0.23543*%
%ADD425R,0.00157X0.23819*%
%ADD426R,0.00118X0.23976*%
%ADD427R,0.00157X0.24094*%
%ADD428R,0.00118X0.24252*%
%ADD429R,0.00157X0.13898*%
%ADD430R,0.00118X0.04961*%
%ADD431R,0.00118X0.02205*%
%ADD432R,0.00118X0.06063*%
%ADD433R,0.00118X0.02756*%
%ADD434R,0.00118X0.03701*%
%ADD435R,0.00157X0.01772*%
%ADD436R,0.00157X0.01929*%
%ADD437R,0.00157X0.00433*%
%ADD438R,0.00157X0.01811*%
%ADD439R,0.00157X0.00984*%
%ADD440R,0.00157X0.01496*%
%ADD441R,0.00118X0.01929*%
%ADD442R,0.00118X0.00433*%
%ADD443R,0.00118X0.02047*%
%ADD444R,0.00118X0.01102*%
%ADD445R,0.00118X0.01496*%
%ADD446R,0.00157X0.00551*%
%ADD447R,0.00157X0.01378*%
%ADD448R,0.00118X0.00394*%
%ADD449R,0.00118X0.01260*%
%ADD450R,0.00118X0.00551*%
%ADD451R,0.00118X0.00984*%
%ADD452R,0.00157X0.02323*%
%ADD453R,0.00157X0.00669*%
%ADD454R,0.00118X0.00669*%
%ADD455R,0.00157X0.00394*%
%ADD456R,0.00118X0.00157*%
%ADD457R,0.00118X0.01811*%
%ADD458R,0.00118X0.02087*%
%ADD459R,0.00157X0.02756*%
%ADD460R,0.00118X0.02874*%
%ADD461R,0.00157X0.02874*%
%ADD462R,0.00118X0.00276*%
%ADD463R,0.00157X0.00276*%
%ADD464R,0.00118X0.01378*%
%ADD465R,0.00118X0.01220*%
%ADD466R,0.00157X0.01220*%
%ADD467R,0.00157X0.08268*%
%ADD468R,0.00118X0.08425*%
%ADD469R,0.00118X0.15433*%
%ADD470R,0.00157X0.26299*%
%ADD471R,0.00118X0.26181*%
%ADD472R,0.00157X0.26024*%
%ADD473R,0.00118X0.25906*%
%ADD474R,0.00157X0.25748*%
%ADD475R,0.00118X0.25630*%
%ADD476R,0.00157X0.14055*%
%ADD477R,0.00118X0.05787*%
%ADD478R,0.00118X0.06772*%
%ADD479R,0.00118X0.03031*%
%ADD480R,0.00118X0.02323*%
%ADD481R,0.00118X0.02638*%
%ADD482R,0.00118X0.02913*%
%ADD483R,0.00157X0.03031*%
%ADD484R,0.00118X0.03307*%
%ADD485R,0.00157X0.09370*%
%ADD486R,0.00118X0.15551*%
%ADD487C,0.00300*%
%ADD488R,0.02205X0.00315*%
%ADD489R,0.03150X0.00315*%
%ADD490R,0.02835X0.00315*%
%ADD491R,0.06929X0.00315*%
%ADD492R,0.00630X0.00315*%
%ADD493R,0.00945X0.00315*%
%ADD494R,0.01890X0.00315*%
%ADD495R,0.03780X0.00315*%
%ADD496R,0.04724X0.00315*%
%ADD497R,0.04409X0.00315*%
%ADD498R,0.07874X0.00315*%
%ADD499R,0.01575X0.00315*%
%ADD500R,0.05039X0.00315*%
%ADD501R,0.05354X0.00315*%
%ADD502R,0.08189X0.00315*%
%ADD503R,0.04094X0.00315*%
%ADD504R,0.05669X0.00315*%
%ADD505R,0.02520X0.00315*%
%ADD506R,0.05984X0.00315*%
%ADD507R,0.06299X0.00315*%
%ADD508R,0.07559X0.00315*%
%ADD509R,0.06614X0.00315*%
%ADD510R,0.00315X0.00315*%
%ADD511R,0.03465X0.00315*%
%ADD512R,0.01260X0.00315*%
%ADD513R,0.14331X0.00157*%
%ADD514R,0.02835X0.00157*%
%ADD515R,0.07087X0.00157*%
%ADD516R,0.02362X0.00157*%
%ADD517R,0.01102X0.00157*%
%ADD518R,0.02205X0.00157*%
%ADD519R,0.00787X0.00157*%
%ADD520R,0.02047X0.00157*%
%ADD521R,0.00630X0.00157*%
%ADD522R,0.00472X0.00157*%
%ADD523R,0.00315X0.00157*%
%ADD524R,0.01732X0.00157*%
%ADD525R,0.01575X0.00157*%
%ADD526R,0.01417X0.00157*%
%ADD527R,0.01260X0.00157*%
%ADD528R,0.00945X0.00157*%
%ADD529R,0.03465X0.00157*%
%ADD530R,0.02992X0.00157*%
%ADD531R,0.02520X0.00157*%
%ADD532R,0.15276X0.00157*%
%ADD533R,0.03307X0.00157*%
%ADD534R,0.11024X0.00157*%
%ADD535R,0.02677X0.00157*%
%ADD536R,0.03150X0.00157*%
%ADD537R,0.04409X0.00276*%
%ADD538R,0.02480X0.00276*%
%ADD539R,0.01654X0.00276*%
%ADD540R,0.05512X0.00315*%
%ADD541R,0.04134X0.00315*%
%ADD542R,0.02756X0.00315*%
%ADD543R,0.05787X0.00276*%
%ADD544R,0.05512X0.00276*%
%ADD545R,0.04685X0.00276*%
%ADD546R,0.03583X0.00276*%
%ADD547R,0.05787X0.00236*%
%ADD548R,0.04961X0.00236*%
%ADD549R,0.04134X0.00236*%
%ADD550R,0.05787X0.00315*%
%ADD551R,0.05236X0.00315*%
%ADD552R,0.05236X0.00276*%
%ADD553R,0.01929X0.00276*%
%ADD554R,0.02205X0.00276*%
%ADD555R,0.02205X0.00236*%
%ADD556R,0.02480X0.00236*%
%ADD557R,0.01929X0.00236*%
%ADD558R,0.01654X0.00315*%
%ADD559R,0.01929X0.00315*%
%ADD560R,0.03858X0.00276*%
%ADD561R,0.04134X0.00276*%
%ADD562R,0.04961X0.00276*%
%ADD563R,0.04685X0.00315*%
%ADD564R,0.03858X0.00315*%
%ADD565R,0.03307X0.00276*%
%ADD566R,0.00276X0.00276*%
%ADD567R,0.05236X0.00236*%
%ADD568R,0.03858X0.00236*%
%ADD569R,0.02756X0.00276*%
%ADD570R,0.05512X0.00236*%
%ADD571R,0.01378X0.00236*%
%ADD572R,0.01102X0.00236*%
%ADD573R,0.03937X0.00157*%
%ADD574R,0.03622X0.00157*%
%ADD575R,0.04567X0.00157*%
%ADD576R,0.00157X0.16535*%
%ADD577R,0.00157X0.06614*%
%ADD578R,0.00157X0.05669*%
%ADD579R,0.16535X0.00157*%
%ADD580R,0.16378X0.00157*%
%ADD581R,0.16220X0.00157*%
%ADD582R,0.16063X0.00157*%
%ADD583R,0.15906X0.00157*%
%ADD584R,0.15748X0.00157*%
%ADD585R,0.15591X0.00157*%
%ADD586R,0.06614X0.00157*%
%ADD587R,0.13228X0.00157*%
%ADD588R,0.13386X0.00157*%
%ADD589R,0.13701X0.00157*%
%ADD590R,0.13858X0.00157*%
%ADD591R,0.14016X0.00157*%
%ADD592R,0.14173X0.00157*%
%ADD593R,0.05669X0.00157*%
D10*
X0186300Y0155000D02*
X0196300Y0155000D01*
X0196300Y0215000D01*
X0186300Y0215000D01*
D11*
X0195683Y0101793D02*
X0196943Y0101793D01*
X0197180Y0100415D01*
X0197219Y0100415D01*
X0197298Y0100375D01*
X0197376Y0100375D01*
X0197416Y0100336D01*
X0197494Y0100336D01*
X0197573Y0100297D01*
X0197613Y0100297D01*
X0197691Y0100257D01*
X0197731Y0100218D01*
X0197809Y0100218D01*
X0197849Y0100179D01*
X0197928Y0100139D01*
X0197967Y0100100D01*
X0198046Y0100100D01*
X0198085Y0100061D01*
X0198164Y0100021D01*
X0199306Y0100809D01*
X0200172Y0099942D01*
X0199384Y0098801D01*
X0199424Y0098761D01*
X0199424Y0098683D01*
X0199463Y0098643D01*
X0199502Y0098564D01*
X0199542Y0098525D01*
X0199542Y0098446D01*
X0199581Y0098407D01*
X0199620Y0098328D01*
X0199620Y0098289D01*
X0199699Y0098131D01*
X0199699Y0098092D01*
X0199739Y0098013D01*
X0199739Y0097974D01*
X0199778Y0097895D01*
X0199778Y0097816D01*
X0201156Y0097580D01*
X0201156Y0096320D01*
X0199778Y0096084D01*
X0199778Y0096045D01*
X0199739Y0095966D01*
X0199739Y0095887D01*
X0199699Y0095848D01*
X0199699Y0095769D01*
X0199660Y0095730D01*
X0199620Y0095651D01*
X0199620Y0095572D01*
X0199581Y0095533D01*
X0199581Y0095454D01*
X0199542Y0095415D01*
X0199502Y0095336D01*
X0199463Y0095297D01*
X0199424Y0095218D01*
X0199424Y0095179D01*
X0199384Y0095100D01*
X0200172Y0093998D01*
X0199306Y0093092D01*
X0198164Y0093879D01*
X0198124Y0093879D01*
X0198085Y0093840D01*
X0198046Y0093840D01*
X0198006Y0093801D01*
X0197967Y0093801D01*
X0197928Y0093761D01*
X0197888Y0093761D01*
X0197849Y0093722D01*
X0197809Y0093722D01*
X0197770Y0093683D01*
X0197731Y0093683D01*
X0197691Y0093643D01*
X0197613Y0093643D01*
X0197573Y0093604D01*
X0196786Y0095730D01*
X0196904Y0095769D01*
X0197061Y0095848D01*
X0197140Y0095927D01*
X0197219Y0095966D01*
X0197298Y0096045D01*
X0197337Y0096123D01*
X0197416Y0096202D01*
X0197494Y0096360D01*
X0197534Y0096478D01*
X0197613Y0096635D01*
X0197613Y0096753D01*
X0197652Y0096872D01*
X0197652Y0097108D01*
X0197494Y0097580D01*
X0197337Y0097816D01*
X0197258Y0097895D01*
X0197140Y0097974D01*
X0197061Y0098053D01*
X0196943Y0098131D01*
X0196825Y0098171D01*
X0196707Y0098249D01*
X0196589Y0098249D01*
X0196431Y0098289D01*
X0196156Y0098289D01*
X0196038Y0098249D01*
X0195920Y0098249D01*
X0195802Y0098171D01*
X0195683Y0098131D01*
X0195447Y0097974D01*
X0195290Y0097816D01*
X0195132Y0097580D01*
X0195093Y0097462D01*
X0195014Y0097344D01*
X0195014Y0097226D01*
X0194975Y0097108D01*
X0194975Y0096753D01*
X0195014Y0096635D01*
X0195014Y0096557D01*
X0195054Y0096478D01*
X0195093Y0096360D01*
X0195132Y0096281D01*
X0195211Y0096202D01*
X0195250Y0096123D01*
X0195408Y0095966D01*
X0195487Y0095927D01*
X0195565Y0095848D01*
X0195802Y0095730D01*
X0195014Y0093604D01*
X0195014Y0093643D01*
X0194935Y0093643D01*
X0194896Y0093683D01*
X0194857Y0093683D01*
X0194817Y0093722D01*
X0194778Y0093722D01*
X0194739Y0093761D01*
X0194660Y0093761D01*
X0194620Y0093801D01*
X0194581Y0093801D01*
X0194502Y0093879D01*
X0194463Y0093879D01*
X0193321Y0093092D01*
X0192416Y0093998D01*
X0193243Y0095100D01*
X0193203Y0095179D01*
X0193164Y0095218D01*
X0193124Y0095297D01*
X0193124Y0095336D01*
X0193085Y0095415D01*
X0193046Y0095454D01*
X0193006Y0095533D01*
X0193006Y0095572D01*
X0192928Y0095730D01*
X0192928Y0095769D01*
X0192888Y0095848D01*
X0192888Y0095887D01*
X0192849Y0095966D01*
X0192849Y0096045D01*
X0192809Y0096084D01*
X0191431Y0096320D01*
X0191431Y0097580D01*
X0192849Y0097816D01*
X0192849Y0097974D01*
X0192888Y0098013D01*
X0192888Y0098092D01*
X0192928Y0098131D01*
X0192967Y0098210D01*
X0192967Y0098289D01*
X0193006Y0098328D01*
X0193006Y0098407D01*
X0193046Y0098446D01*
X0193085Y0098525D01*
X0193124Y0098564D01*
X0193124Y0098643D01*
X0193164Y0098683D01*
X0193203Y0098761D01*
X0193243Y0098801D01*
X0192416Y0099942D01*
X0193321Y0100809D01*
X0194463Y0100021D01*
X0194502Y0100061D01*
X0194581Y0100100D01*
X0194620Y0100100D01*
X0194699Y0100139D01*
X0194739Y0100179D01*
X0194817Y0100218D01*
X0194857Y0100218D01*
X0194935Y0100257D01*
X0194975Y0100297D01*
X0195054Y0100297D01*
X0195132Y0100336D01*
X0195172Y0100336D01*
X0195250Y0100375D01*
X0195290Y0100375D01*
X0195369Y0100415D01*
X0195447Y0100415D01*
X0195683Y0101793D01*
X0195633Y0101497D02*
X0196994Y0101497D01*
X0197045Y0101200D02*
X0195582Y0101200D01*
X0195531Y0100902D02*
X0197096Y0100902D01*
X0197147Y0100604D02*
X0195480Y0100604D01*
X0195073Y0100307D02*
X0197554Y0100307D01*
X0198578Y0100307D02*
X0199808Y0100307D01*
X0200105Y0100009D02*
X0192485Y0100009D01*
X0192583Y0099711D02*
X0200012Y0099711D01*
X0199807Y0099413D02*
X0192799Y0099413D01*
X0193014Y0099116D02*
X0199601Y0099116D01*
X0199396Y0098818D02*
X0193230Y0098818D01*
X0193083Y0098520D02*
X0199542Y0098520D01*
X0199654Y0098222D02*
X0196748Y0098222D01*
X0197214Y0097925D02*
X0199763Y0097925D01*
X0200883Y0097627D02*
X0197463Y0097627D01*
X0197578Y0097329D02*
X0201156Y0097329D01*
X0201156Y0097032D02*
X0197652Y0097032D01*
X0197613Y0096734D02*
X0201156Y0096734D01*
X0201156Y0096436D02*
X0197520Y0096436D01*
X0197352Y0096138D02*
X0200095Y0096138D01*
X0199699Y0095841D02*
X0197047Y0095841D01*
X0196855Y0095543D02*
X0199591Y0095543D01*
X0199437Y0095245D02*
X0196965Y0095245D01*
X0197076Y0094948D02*
X0199493Y0094948D01*
X0199706Y0094650D02*
X0197186Y0094650D01*
X0197296Y0094352D02*
X0199918Y0094352D01*
X0200131Y0094054D02*
X0197406Y0094054D01*
X0197517Y0093757D02*
X0197884Y0093757D01*
X0198342Y0093757D02*
X0199941Y0093757D01*
X0199656Y0093459D02*
X0198774Y0093459D01*
X0199205Y0093161D02*
X0199372Y0093161D01*
X0195402Y0094650D02*
X0192905Y0094650D01*
X0193128Y0094948D02*
X0195512Y0094948D01*
X0195622Y0095245D02*
X0193150Y0095245D01*
X0193006Y0095543D02*
X0195732Y0095543D01*
X0195580Y0095841D02*
X0192892Y0095841D01*
X0192493Y0096138D02*
X0195243Y0096138D01*
X0195067Y0096436D02*
X0191431Y0096436D01*
X0191431Y0096734D02*
X0194981Y0096734D01*
X0194975Y0097032D02*
X0191431Y0097032D01*
X0191431Y0097329D02*
X0195014Y0097329D01*
X0195164Y0097627D02*
X0191712Y0097627D01*
X0192849Y0097925D02*
X0195398Y0097925D01*
X0195879Y0098222D02*
X0192967Y0098222D01*
X0192796Y0100307D02*
X0194049Y0100307D01*
X0193617Y0100604D02*
X0193108Y0100604D01*
X0199009Y0100604D02*
X0199510Y0100604D01*
X0195291Y0094352D02*
X0192682Y0094352D01*
X0192458Y0094054D02*
X0195181Y0094054D01*
X0195071Y0093757D02*
X0194743Y0093757D01*
X0194285Y0093757D02*
X0192657Y0093757D01*
X0192954Y0093459D02*
X0193853Y0093459D01*
X0193422Y0093161D02*
X0193252Y0093161D01*
D12*
X0277300Y0105100D02*
X0277300Y0111900D01*
X0277302Y0111960D01*
X0277307Y0112021D01*
X0277316Y0112080D01*
X0277329Y0112139D01*
X0277345Y0112198D01*
X0277365Y0112255D01*
X0277388Y0112310D01*
X0277415Y0112365D01*
X0277444Y0112417D01*
X0277477Y0112468D01*
X0277513Y0112517D01*
X0277551Y0112563D01*
X0277593Y0112607D01*
X0277637Y0112649D01*
X0277683Y0112687D01*
X0277732Y0112723D01*
X0277783Y0112756D01*
X0277835Y0112785D01*
X0277890Y0112812D01*
X0277945Y0112835D01*
X0278002Y0112855D01*
X0278061Y0112871D01*
X0278120Y0112884D01*
X0278179Y0112893D01*
X0278240Y0112898D01*
X0278300Y0112900D01*
X0284300Y0112900D01*
X0284360Y0112898D01*
X0284421Y0112893D01*
X0284480Y0112884D01*
X0284539Y0112871D01*
X0284598Y0112855D01*
X0284655Y0112835D01*
X0284710Y0112812D01*
X0284765Y0112785D01*
X0284817Y0112756D01*
X0284868Y0112723D01*
X0284917Y0112687D01*
X0284963Y0112649D01*
X0285007Y0112607D01*
X0285049Y0112563D01*
X0285087Y0112517D01*
X0285123Y0112468D01*
X0285156Y0112417D01*
X0285185Y0112365D01*
X0285212Y0112310D01*
X0285235Y0112255D01*
X0285255Y0112198D01*
X0285271Y0112139D01*
X0285284Y0112080D01*
X0285293Y0112021D01*
X0285298Y0111960D01*
X0285300Y0111900D01*
X0285300Y0105100D01*
X0285298Y0105040D01*
X0285293Y0104979D01*
X0285284Y0104920D01*
X0285271Y0104861D01*
X0285255Y0104802D01*
X0285235Y0104745D01*
X0285212Y0104690D01*
X0285185Y0104635D01*
X0285156Y0104583D01*
X0285123Y0104532D01*
X0285087Y0104483D01*
X0285049Y0104437D01*
X0285007Y0104393D01*
X0284963Y0104351D01*
X0284917Y0104313D01*
X0284868Y0104277D01*
X0284817Y0104244D01*
X0284765Y0104215D01*
X0284710Y0104188D01*
X0284655Y0104165D01*
X0284598Y0104145D01*
X0284539Y0104129D01*
X0284480Y0104116D01*
X0284421Y0104107D01*
X0284360Y0104102D01*
X0284300Y0104100D01*
X0278300Y0104100D01*
X0278240Y0104102D01*
X0278179Y0104107D01*
X0278120Y0104116D01*
X0278061Y0104129D01*
X0278002Y0104145D01*
X0277945Y0104165D01*
X0277890Y0104188D01*
X0277835Y0104215D01*
X0277783Y0104244D01*
X0277732Y0104277D01*
X0277683Y0104313D01*
X0277637Y0104351D01*
X0277593Y0104393D01*
X0277551Y0104437D01*
X0277513Y0104483D01*
X0277477Y0104532D01*
X0277444Y0104583D01*
X0277415Y0104635D01*
X0277388Y0104690D01*
X0277365Y0104745D01*
X0277345Y0104802D01*
X0277329Y0104861D01*
X0277316Y0104920D01*
X0277307Y0104979D01*
X0277302Y0105040D01*
X0277300Y0105100D01*
X0326600Y0180200D02*
X0331000Y0180200D01*
X0331083Y0180202D01*
X0331166Y0180208D01*
X0331249Y0180217D01*
X0331331Y0180231D01*
X0331412Y0180248D01*
X0331493Y0180269D01*
X0331572Y0180293D01*
X0331650Y0180322D01*
X0331727Y0180353D01*
X0331802Y0180389D01*
X0331876Y0180427D01*
X0331948Y0180470D01*
X0332017Y0180515D01*
X0332085Y0180564D01*
X0332150Y0180615D01*
X0332213Y0180670D01*
X0332273Y0180727D01*
X0332330Y0180787D01*
X0332385Y0180850D01*
X0332436Y0180915D01*
X0332485Y0180983D01*
X0332530Y0181052D01*
X0332573Y0181124D01*
X0332611Y0181198D01*
X0332647Y0181273D01*
X0332678Y0181350D01*
X0332707Y0181428D01*
X0332731Y0181507D01*
X0332752Y0181588D01*
X0332769Y0181669D01*
X0332783Y0181751D01*
X0332792Y0181834D01*
X0332798Y0181917D01*
X0332800Y0182000D01*
X0332800Y0188000D01*
X0332798Y0188083D01*
X0332792Y0188166D01*
X0332783Y0188249D01*
X0332769Y0188331D01*
X0332752Y0188412D01*
X0332731Y0188493D01*
X0332707Y0188572D01*
X0332678Y0188650D01*
X0332647Y0188727D01*
X0332611Y0188802D01*
X0332573Y0188876D01*
X0332530Y0188948D01*
X0332485Y0189017D01*
X0332436Y0189085D01*
X0332385Y0189150D01*
X0332330Y0189213D01*
X0332273Y0189273D01*
X0332213Y0189330D01*
X0332150Y0189385D01*
X0332085Y0189436D01*
X0332017Y0189485D01*
X0331948Y0189530D01*
X0331876Y0189573D01*
X0331802Y0189611D01*
X0331727Y0189647D01*
X0331650Y0189678D01*
X0331572Y0189707D01*
X0331493Y0189731D01*
X0331412Y0189752D01*
X0331331Y0189769D01*
X0331249Y0189783D01*
X0331166Y0189792D01*
X0331083Y0189798D01*
X0331000Y0189800D01*
X0326600Y0189800D01*
X0326517Y0189798D01*
X0326434Y0189792D01*
X0326351Y0189783D01*
X0326269Y0189769D01*
X0326188Y0189752D01*
X0326107Y0189731D01*
X0326028Y0189707D01*
X0325950Y0189678D01*
X0325873Y0189647D01*
X0325798Y0189611D01*
X0325724Y0189573D01*
X0325652Y0189530D01*
X0325583Y0189485D01*
X0325515Y0189436D01*
X0325450Y0189385D01*
X0325387Y0189330D01*
X0325327Y0189273D01*
X0325270Y0189213D01*
X0325215Y0189150D01*
X0325164Y0189085D01*
X0325115Y0189017D01*
X0325070Y0188948D01*
X0325027Y0188876D01*
X0324989Y0188802D01*
X0324953Y0188727D01*
X0324922Y0188650D01*
X0324893Y0188572D01*
X0324869Y0188493D01*
X0324848Y0188412D01*
X0324831Y0188331D01*
X0324817Y0188249D01*
X0324808Y0188166D01*
X0324802Y0188083D01*
X0324800Y0188000D01*
X0324800Y0182000D01*
X0324802Y0181917D01*
X0324808Y0181834D01*
X0324817Y0181751D01*
X0324831Y0181669D01*
X0324848Y0181588D01*
X0324869Y0181507D01*
X0324893Y0181428D01*
X0324922Y0181350D01*
X0324953Y0181273D01*
X0324989Y0181198D01*
X0325027Y0181124D01*
X0325070Y0181052D01*
X0325115Y0180983D01*
X0325164Y0180915D01*
X0325215Y0180850D01*
X0325270Y0180787D01*
X0325327Y0180727D01*
X0325387Y0180670D01*
X0325450Y0180615D01*
X0325515Y0180564D01*
X0325583Y0180515D01*
X0325652Y0180470D01*
X0325724Y0180427D01*
X0325798Y0180389D01*
X0325873Y0180353D01*
X0325950Y0180322D01*
X0326028Y0180293D01*
X0326107Y0180269D01*
X0326188Y0180248D01*
X0326269Y0180231D01*
X0326351Y0180217D01*
X0326434Y0180208D01*
X0326517Y0180202D01*
X0326600Y0180200D01*
X0334800Y0182000D02*
X0334800Y0188000D01*
X0334802Y0188083D01*
X0334808Y0188166D01*
X0334817Y0188249D01*
X0334831Y0188331D01*
X0334848Y0188412D01*
X0334869Y0188493D01*
X0334893Y0188572D01*
X0334922Y0188650D01*
X0334953Y0188727D01*
X0334989Y0188802D01*
X0335027Y0188876D01*
X0335070Y0188948D01*
X0335115Y0189017D01*
X0335164Y0189085D01*
X0335215Y0189150D01*
X0335270Y0189213D01*
X0335327Y0189273D01*
X0335387Y0189330D01*
X0335450Y0189385D01*
X0335515Y0189436D01*
X0335583Y0189485D01*
X0335652Y0189530D01*
X0335724Y0189573D01*
X0335798Y0189611D01*
X0335873Y0189647D01*
X0335950Y0189678D01*
X0336028Y0189707D01*
X0336107Y0189731D01*
X0336188Y0189752D01*
X0336269Y0189769D01*
X0336351Y0189783D01*
X0336434Y0189792D01*
X0336517Y0189798D01*
X0336600Y0189800D01*
X0341000Y0189800D01*
X0341083Y0189798D01*
X0341166Y0189792D01*
X0341249Y0189783D01*
X0341331Y0189769D01*
X0341412Y0189752D01*
X0341493Y0189731D01*
X0341572Y0189707D01*
X0341650Y0189678D01*
X0341727Y0189647D01*
X0341802Y0189611D01*
X0341876Y0189573D01*
X0341948Y0189530D01*
X0342017Y0189485D01*
X0342085Y0189436D01*
X0342150Y0189385D01*
X0342213Y0189330D01*
X0342273Y0189273D01*
X0342330Y0189213D01*
X0342385Y0189150D01*
X0342436Y0189085D01*
X0342485Y0189017D01*
X0342530Y0188948D01*
X0342573Y0188876D01*
X0342611Y0188802D01*
X0342647Y0188727D01*
X0342678Y0188650D01*
X0342707Y0188572D01*
X0342731Y0188493D01*
X0342752Y0188412D01*
X0342769Y0188331D01*
X0342783Y0188249D01*
X0342792Y0188166D01*
X0342798Y0188083D01*
X0342800Y0188000D01*
X0342800Y0182000D01*
X0342798Y0181917D01*
X0342792Y0181834D01*
X0342783Y0181751D01*
X0342769Y0181669D01*
X0342752Y0181588D01*
X0342731Y0181507D01*
X0342707Y0181428D01*
X0342678Y0181350D01*
X0342647Y0181273D01*
X0342611Y0181198D01*
X0342573Y0181124D01*
X0342530Y0181052D01*
X0342485Y0180983D01*
X0342436Y0180915D01*
X0342385Y0180850D01*
X0342330Y0180787D01*
X0342273Y0180727D01*
X0342213Y0180670D01*
X0342150Y0180615D01*
X0342085Y0180564D01*
X0342017Y0180515D01*
X0341948Y0180470D01*
X0341876Y0180427D01*
X0341802Y0180389D01*
X0341727Y0180353D01*
X0341650Y0180322D01*
X0341572Y0180293D01*
X0341493Y0180269D01*
X0341412Y0180248D01*
X0341331Y0180231D01*
X0341249Y0180217D01*
X0341166Y0180208D01*
X0341083Y0180202D01*
X0341000Y0180200D01*
X0336600Y0180200D01*
X0336517Y0180202D01*
X0336434Y0180208D01*
X0336351Y0180217D01*
X0336269Y0180231D01*
X0336188Y0180248D01*
X0336107Y0180269D01*
X0336028Y0180293D01*
X0335950Y0180322D01*
X0335873Y0180353D01*
X0335798Y0180389D01*
X0335724Y0180427D01*
X0335652Y0180470D01*
X0335583Y0180515D01*
X0335515Y0180564D01*
X0335450Y0180615D01*
X0335387Y0180670D01*
X0335327Y0180727D01*
X0335270Y0180787D01*
X0335215Y0180850D01*
X0335164Y0180915D01*
X0335115Y0180983D01*
X0335070Y0181052D01*
X0335027Y0181124D01*
X0334989Y0181198D01*
X0334953Y0181273D01*
X0334922Y0181350D01*
X0334893Y0181428D01*
X0334869Y0181507D01*
X0334848Y0181588D01*
X0334831Y0181669D01*
X0334817Y0181751D01*
X0334808Y0181834D01*
X0334802Y0181917D01*
X0334800Y0182000D01*
X0344800Y0182000D02*
X0344800Y0188000D01*
X0344802Y0188083D01*
X0344808Y0188166D01*
X0344817Y0188249D01*
X0344831Y0188331D01*
X0344848Y0188412D01*
X0344869Y0188493D01*
X0344893Y0188572D01*
X0344922Y0188650D01*
X0344953Y0188727D01*
X0344989Y0188802D01*
X0345027Y0188876D01*
X0345070Y0188948D01*
X0345115Y0189017D01*
X0345164Y0189085D01*
X0345215Y0189150D01*
X0345270Y0189213D01*
X0345327Y0189273D01*
X0345387Y0189330D01*
X0345450Y0189385D01*
X0345515Y0189436D01*
X0345583Y0189485D01*
X0345652Y0189530D01*
X0345724Y0189573D01*
X0345798Y0189611D01*
X0345873Y0189647D01*
X0345950Y0189678D01*
X0346028Y0189707D01*
X0346107Y0189731D01*
X0346188Y0189752D01*
X0346269Y0189769D01*
X0346351Y0189783D01*
X0346434Y0189792D01*
X0346517Y0189798D01*
X0346600Y0189800D01*
X0351000Y0189800D01*
X0351083Y0189798D01*
X0351166Y0189792D01*
X0351249Y0189783D01*
X0351331Y0189769D01*
X0351412Y0189752D01*
X0351493Y0189731D01*
X0351572Y0189707D01*
X0351650Y0189678D01*
X0351727Y0189647D01*
X0351802Y0189611D01*
X0351876Y0189573D01*
X0351948Y0189530D01*
X0352017Y0189485D01*
X0352085Y0189436D01*
X0352150Y0189385D01*
X0352213Y0189330D01*
X0352273Y0189273D01*
X0352330Y0189213D01*
X0352385Y0189150D01*
X0352436Y0189085D01*
X0352485Y0189017D01*
X0352530Y0188948D01*
X0352573Y0188876D01*
X0352611Y0188802D01*
X0352647Y0188727D01*
X0352678Y0188650D01*
X0352707Y0188572D01*
X0352731Y0188493D01*
X0352752Y0188412D01*
X0352769Y0188331D01*
X0352783Y0188249D01*
X0352792Y0188166D01*
X0352798Y0188083D01*
X0352800Y0188000D01*
X0352800Y0182000D01*
X0352798Y0181917D01*
X0352792Y0181834D01*
X0352783Y0181751D01*
X0352769Y0181669D01*
X0352752Y0181588D01*
X0352731Y0181507D01*
X0352707Y0181428D01*
X0352678Y0181350D01*
X0352647Y0181273D01*
X0352611Y0181198D01*
X0352573Y0181124D01*
X0352530Y0181052D01*
X0352485Y0180983D01*
X0352436Y0180915D01*
X0352385Y0180850D01*
X0352330Y0180787D01*
X0352273Y0180727D01*
X0352213Y0180670D01*
X0352150Y0180615D01*
X0352085Y0180564D01*
X0352017Y0180515D01*
X0351948Y0180470D01*
X0351876Y0180427D01*
X0351802Y0180389D01*
X0351727Y0180353D01*
X0351650Y0180322D01*
X0351572Y0180293D01*
X0351493Y0180269D01*
X0351412Y0180248D01*
X0351331Y0180231D01*
X0351249Y0180217D01*
X0351166Y0180208D01*
X0351083Y0180202D01*
X0351000Y0180200D01*
X0346600Y0180200D01*
X0346517Y0180202D01*
X0346434Y0180208D01*
X0346351Y0180217D01*
X0346269Y0180231D01*
X0346188Y0180248D01*
X0346107Y0180269D01*
X0346028Y0180293D01*
X0345950Y0180322D01*
X0345873Y0180353D01*
X0345798Y0180389D01*
X0345724Y0180427D01*
X0345652Y0180470D01*
X0345583Y0180515D01*
X0345515Y0180564D01*
X0345450Y0180615D01*
X0345387Y0180670D01*
X0345327Y0180727D01*
X0345270Y0180787D01*
X0345215Y0180850D01*
X0345164Y0180915D01*
X0345115Y0180983D01*
X0345070Y0181052D01*
X0345027Y0181124D01*
X0344989Y0181198D01*
X0344953Y0181273D01*
X0344922Y0181350D01*
X0344893Y0181428D01*
X0344869Y0181507D01*
X0344848Y0181588D01*
X0344831Y0181669D01*
X0344817Y0181751D01*
X0344808Y0181834D01*
X0344802Y0181917D01*
X0344800Y0182000D01*
D13*
X0283977Y0229449D03*
X0278623Y0229449D03*
X0264450Y0090319D03*
X0258150Y0090319D03*
D14*
X0258308Y0090555D03*
X0254450Y0090713D03*
X0254292Y0090713D03*
X0254135Y0090713D03*
X0253977Y0090713D03*
X0253820Y0090713D03*
X0253662Y0090713D03*
X0253505Y0090713D03*
X0249095Y0090713D03*
X0248938Y0090713D03*
X0248780Y0090713D03*
X0248623Y0090713D03*
X0248465Y0090713D03*
X0248308Y0090713D03*
X0248150Y0090713D03*
X0264292Y0090555D03*
X0268938Y0090555D03*
X0273662Y0090555D03*
X0299095Y0090555D03*
X0303505Y0090555D03*
X0318308Y0090343D03*
X0324292Y0090343D03*
X0323977Y0229740D03*
X0318623Y0229740D03*
X0283505Y0229213D03*
X0279095Y0229213D03*
X0264450Y0229213D03*
X0264292Y0229213D03*
X0264135Y0229213D03*
X0263977Y0229213D03*
X0263820Y0229213D03*
X0263662Y0229213D03*
X0263505Y0229213D03*
X0259095Y0229213D03*
X0258938Y0229213D03*
X0258780Y0229213D03*
X0258623Y0229213D03*
X0258465Y0229213D03*
X0258308Y0229213D03*
X0258150Y0229213D03*
D15*
X0318938Y0229583D03*
X0323662Y0229583D03*
X0324135Y0090500D03*
X0318465Y0090500D03*
X0303820Y0090713D03*
X0298780Y0090713D03*
X0264135Y0090713D03*
X0258465Y0090713D03*
D16*
X0258623Y0090870D03*
X0263977Y0090870D03*
X0289095Y0090370D03*
X0293505Y0090370D03*
X0298465Y0090870D03*
X0304135Y0090870D03*
X0318780Y0090657D03*
D17*
X0304292Y0090949D03*
X0298308Y0090949D03*
X0293662Y0090449D03*
X0288938Y0090449D03*
X0263820Y0090949D03*
X0258780Y0090949D03*
D18*
X0258938Y0091028D03*
X0263662Y0091028D03*
X0244450Y0091028D03*
X0244292Y0091028D03*
X0244135Y0091028D03*
X0243977Y0091028D03*
X0243820Y0091028D03*
X0243662Y0091028D03*
X0243505Y0091028D03*
X0239095Y0091028D03*
X0238938Y0091028D03*
X0238780Y0091028D03*
X0238623Y0091028D03*
X0238465Y0091028D03*
X0238308Y0091028D03*
X0238150Y0091028D03*
X0288780Y0090528D03*
X0293820Y0090528D03*
X0298150Y0091028D03*
X0304450Y0091028D03*
X0244450Y0229028D03*
X0244292Y0229028D03*
X0244135Y0229028D03*
X0243977Y0229028D03*
X0243820Y0229028D03*
X0243662Y0229028D03*
X0243505Y0229028D03*
X0239095Y0229028D03*
X0238938Y0229028D03*
X0238780Y0229028D03*
X0238623Y0229028D03*
X0238465Y0229028D03*
X0238308Y0229028D03*
X0238150Y0229028D03*
D19*
X0299371Y0228965D03*
X0309371Y0229016D03*
X0293977Y0090606D03*
X0288623Y0090606D03*
X0263505Y0091106D03*
X0259095Y0091106D03*
D20*
X0260985Y0084807D03*
X0263347Y0084807D03*
X0273347Y0084807D03*
X0271772Y0090949D03*
X0271615Y0090949D03*
X0271457Y0090949D03*
X0271300Y0090949D03*
X0271143Y0090949D03*
X0270985Y0090949D03*
X0270828Y0090949D03*
X0270670Y0090949D03*
X0269253Y0096618D03*
X0269410Y0096776D03*
X0269568Y0096776D03*
X0259568Y0097720D03*
X0259410Y0097720D03*
X0253347Y0096461D03*
X0239410Y0097248D03*
X0242087Y0087799D03*
X0239410Y0084807D03*
X0250985Y0084965D03*
X0251143Y0084965D03*
X0251300Y0084965D03*
X0251457Y0084965D03*
X0251615Y0084965D03*
X0251772Y0084965D03*
X0253347Y0084965D03*
X0299568Y0091264D03*
X0300670Y0092839D03*
X0308938Y0093571D03*
X0311300Y0089949D03*
X0340217Y0201866D03*
X0282402Y0222362D03*
X0280198Y0222362D03*
X0270040Y0223622D03*
X0270985Y0227402D03*
X0271457Y0227402D03*
X0271615Y0227402D03*
X0271143Y0231969D03*
X0270355Y0235433D03*
X0263347Y0234961D03*
X0253347Y0232819D03*
X0250513Y0235181D03*
X0250355Y0235181D03*
X0239410Y0235248D03*
X0249253Y0231087D03*
X0242087Y0225799D03*
X0239410Y0222807D03*
X0260985Y0223465D03*
X0261143Y0223465D03*
X0261300Y0223465D03*
X0261457Y0223465D03*
X0261615Y0223465D03*
X0261772Y0223465D03*
X0263347Y0223465D03*
X0280355Y0234961D03*
X0290670Y0231457D03*
X0290198Y0227992D03*
X0290355Y0227835D03*
X0290513Y0227835D03*
X0320670Y0230449D03*
X0320828Y0230449D03*
X0320985Y0230449D03*
X0321143Y0230449D03*
X0321300Y0230449D03*
X0321457Y0230449D03*
X0321615Y0230449D03*
X0321772Y0230449D03*
X0321615Y0235488D03*
X0320828Y0235488D03*
D21*
X0263347Y0092996D03*
D22*
X0269253Y0088587D03*
X0269253Y0084650D03*
X0263190Y0084650D03*
X0249253Y0084807D03*
X0249410Y0089059D03*
X0249410Y0092366D03*
X0249253Y0096618D03*
X0242875Y0097406D03*
X0239568Y0097406D03*
X0239568Y0084650D03*
X0242875Y0084650D03*
X0289253Y0096433D03*
X0299883Y0091106D03*
X0300040Y0091106D03*
X0300198Y0091106D03*
X0320355Y0084437D03*
X0282717Y0222520D03*
X0279883Y0222520D03*
X0272245Y0223780D03*
X0270355Y0223780D03*
X0270670Y0227244D03*
X0271930Y0227244D03*
X0273347Y0229764D03*
X0270985Y0231969D03*
X0280985Y0231496D03*
X0283347Y0229291D03*
X0289095Y0228937D03*
X0289725Y0228307D03*
X0289883Y0228150D03*
X0290828Y0231457D03*
X0290985Y0231457D03*
X0283190Y0235118D03*
X0280513Y0235118D03*
X0259410Y0230866D03*
X0259410Y0227559D03*
X0259253Y0223307D03*
X0242875Y0222650D03*
X0239568Y0222650D03*
X0253190Y0232819D03*
X0251143Y0235339D03*
X0250985Y0235339D03*
X0242875Y0235406D03*
X0239568Y0235406D03*
X0259253Y0235118D03*
X0319253Y0228087D03*
X0320513Y0235646D03*
X0321930Y0235646D03*
D23*
X0323190Y0231472D03*
X0322245Y0230055D03*
X0322717Y0228008D03*
X0322560Y0227850D03*
X0322245Y0227693D03*
X0321615Y0227378D03*
X0320355Y0226118D03*
X0319725Y0228008D03*
X0312678Y0231772D03*
X0311576Y0231220D03*
X0311024Y0229016D03*
X0302678Y0231051D03*
X0301024Y0231602D03*
X0301576Y0233807D03*
X0281615Y0232992D03*
X0281772Y0230945D03*
X0280355Y0231260D03*
X0281772Y0227638D03*
X0280513Y0227323D03*
X0279883Y0225433D03*
X0279725Y0225433D03*
X0279568Y0225433D03*
X0281457Y0225433D03*
X0281615Y0225433D03*
X0281772Y0225433D03*
X0281930Y0225433D03*
X0282087Y0225433D03*
X0272560Y0229685D03*
X0271772Y0231417D03*
X0270355Y0231732D03*
X0271772Y0233465D03*
X0271930Y0233465D03*
X0263190Y0231732D03*
X0261930Y0232992D03*
X0262087Y0233150D03*
X0260513Y0233150D03*
X0260355Y0233150D03*
X0261615Y0229213D03*
X0261772Y0229213D03*
X0261615Y0227165D03*
X0263190Y0226693D03*
X0262087Y0225276D03*
X0261930Y0225118D03*
X0260513Y0225276D03*
X0260355Y0225276D03*
X0250355Y0228961D03*
X0242402Y0229343D03*
X0240040Y0228870D03*
X0242245Y0225248D03*
X0241615Y0224618D03*
X0242087Y0232965D03*
X0240355Y0232965D03*
X0300473Y0220421D03*
X0301300Y0222783D03*
X0311024Y0222677D03*
X0302954Y0216445D03*
X0301851Y0215185D03*
X0301576Y0215185D03*
X0299922Y0215185D03*
X0300355Y0095909D03*
X0301457Y0095437D03*
X0300355Y0093862D03*
X0301143Y0092445D03*
X0302875Y0092130D03*
X0302087Y0090398D03*
X0301615Y0090398D03*
X0301457Y0090398D03*
X0303032Y0088350D03*
X0301457Y0086776D03*
X0308938Y0087823D03*
X0309095Y0086248D03*
X0312087Y0087508D03*
X0320985Y0090500D03*
X0321143Y0090500D03*
X0330040Y0088350D03*
X0332402Y0088823D03*
X0291457Y0086276D03*
X0290040Y0086276D03*
X0289883Y0086276D03*
X0272717Y0088508D03*
X0272560Y0088350D03*
X0272245Y0088193D03*
X0271615Y0087878D03*
X0270355Y0086618D03*
X0269725Y0088508D03*
X0272245Y0090555D03*
X0273190Y0091972D03*
X0263190Y0088035D03*
X0260355Y0086618D03*
X0253190Y0088193D03*
X0251615Y0088665D03*
X0252087Y0086776D03*
X0251930Y0086618D03*
X0250513Y0086776D03*
X0250355Y0086776D03*
X0242245Y0087248D03*
X0241615Y0086618D03*
X0240040Y0090870D03*
X0242402Y0091343D03*
X0242087Y0094965D03*
X0240355Y0094965D03*
X0250355Y0094650D03*
X0250513Y0094650D03*
X0251930Y0094492D03*
X0252087Y0094650D03*
X0253190Y0093232D03*
X0251772Y0090713D03*
X0251615Y0090713D03*
X0259410Y0091657D03*
D24*
X0263190Y0092366D03*
X0259883Y0097720D03*
X0239253Y0084965D03*
X0299253Y0095988D03*
X0309253Y0093728D03*
X0311930Y0094988D03*
X0321930Y0098295D03*
X0329410Y0094728D03*
X0329568Y0094728D03*
X0329725Y0094728D03*
X0329883Y0094728D03*
X0330040Y0094728D03*
X0330198Y0094728D03*
X0330355Y0094728D03*
X0330513Y0094728D03*
X0330670Y0094728D03*
X0330828Y0094728D03*
X0330985Y0094728D03*
X0331143Y0094728D03*
X0331300Y0094728D03*
X0331457Y0094728D03*
X0331615Y0094728D03*
X0331772Y0094728D03*
X0331930Y0094728D03*
X0332087Y0094728D03*
X0332245Y0094728D03*
X0332402Y0094728D03*
X0320198Y0084752D03*
X0320040Y0223047D03*
X0319883Y0223205D03*
X0319725Y0223205D03*
X0319568Y0223362D03*
X0290828Y0227677D03*
X0290355Y0231772D03*
X0291143Y0235079D03*
X0270198Y0235276D03*
X0249883Y0235024D03*
X0249725Y0235024D03*
X0269725Y0223465D03*
X0280670Y0222205D03*
X0281930Y0222205D03*
X0239253Y0222965D03*
X0321143Y0235331D03*
X0321300Y0235331D03*
D25*
X0320040Y0097114D03*
X0311457Y0094437D03*
X0311300Y0094437D03*
X0311143Y0094437D03*
X0310985Y0094437D03*
X0310828Y0094437D03*
X0263190Y0096854D03*
X0262875Y0097012D03*
X0262560Y0097169D03*
X0262087Y0097327D03*
D26*
X0259410Y0094256D03*
X0262875Y0092524D03*
X0261930Y0087484D03*
X0261300Y0084492D03*
X0263032Y0084492D03*
X0271300Y0084492D03*
X0273032Y0084492D03*
X0271930Y0087484D03*
X0253032Y0084650D03*
X0251930Y0084650D03*
X0249410Y0084650D03*
X0249568Y0089059D03*
X0249568Y0092366D03*
X0251143Y0093154D03*
X0251300Y0093154D03*
X0251300Y0096776D03*
X0253032Y0096776D03*
X0249410Y0096776D03*
X0242560Y0097563D03*
X0239883Y0097563D03*
X0239883Y0084492D03*
X0242560Y0084492D03*
X0242717Y0084492D03*
X0289410Y0096433D03*
X0299568Y0096146D03*
X0301772Y0094886D03*
X0300828Y0092681D03*
X0319095Y0092941D03*
X0319253Y0092941D03*
X0319410Y0092941D03*
X0319568Y0092941D03*
X0319725Y0092941D03*
X0319883Y0092941D03*
X0320040Y0092941D03*
X0321143Y0092941D03*
X0321300Y0092941D03*
X0319568Y0097823D03*
X0329253Y0091264D03*
X0320513Y0084280D03*
X0312127Y0213465D03*
X0310473Y0213465D03*
X0310749Y0216496D03*
X0300198Y0225264D03*
X0299922Y0225264D03*
X0299646Y0225264D03*
X0291143Y0231457D03*
X0283190Y0229291D03*
X0282875Y0235276D03*
X0280828Y0235276D03*
X0272875Y0235748D03*
X0270985Y0235748D03*
X0270828Y0235748D03*
X0263032Y0235276D03*
X0261300Y0235276D03*
X0259410Y0235276D03*
X0253347Y0235496D03*
X0251772Y0235496D03*
X0251615Y0235496D03*
X0252875Y0232819D03*
X0253032Y0232819D03*
X0252087Y0229984D03*
X0251930Y0229984D03*
X0249568Y0231244D03*
X0249253Y0227150D03*
X0242717Y0222492D03*
X0242560Y0222492D03*
X0239883Y0222492D03*
X0259410Y0223150D03*
X0261930Y0223150D03*
X0263032Y0223150D03*
X0270670Y0223937D03*
X0271930Y0223937D03*
X0272245Y0227087D03*
X0270355Y0227087D03*
X0269253Y0226929D03*
X0273190Y0229764D03*
X0261300Y0231654D03*
X0261143Y0231654D03*
X0259568Y0230866D03*
X0259568Y0227559D03*
X0279410Y0222835D03*
X0279568Y0222677D03*
X0283032Y0222677D03*
X0283190Y0222835D03*
X0290828Y0235551D03*
X0292245Y0235551D03*
X0320198Y0235803D03*
X0322245Y0235803D03*
X0323347Y0235803D03*
X0321930Y0226984D03*
X0242560Y0235563D03*
X0239883Y0235563D03*
D27*
X0239253Y0231075D03*
X0240355Y0228713D03*
X0240513Y0228713D03*
X0241930Y0229500D03*
X0242245Y0226823D03*
X0243032Y0226823D03*
X0240198Y0225248D03*
X0250198Y0228961D03*
X0252402Y0230535D03*
X0260198Y0233150D03*
X0262245Y0233150D03*
X0263032Y0231732D03*
X0262245Y0231417D03*
X0262087Y0231417D03*
X0261457Y0229213D03*
X0261300Y0229213D03*
X0261930Y0227165D03*
X0263032Y0226693D03*
X0262245Y0225276D03*
X0260198Y0225276D03*
X0270198Y0229685D03*
X0270198Y0231732D03*
X0272087Y0231575D03*
X0272402Y0231732D03*
X0273032Y0232047D03*
X0272245Y0233465D03*
X0272402Y0229685D03*
X0279253Y0231417D03*
X0280198Y0231260D03*
X0282087Y0231102D03*
X0282245Y0231260D03*
X0282402Y0229213D03*
X0282087Y0227480D03*
X0282245Y0227323D03*
X0283032Y0226850D03*
X0280198Y0227165D03*
X0279253Y0227165D03*
X0289725Y0231063D03*
X0289883Y0232323D03*
X0289095Y0232480D03*
X0289725Y0233740D03*
X0291457Y0231063D03*
X0319883Y0233362D03*
X0322717Y0233362D03*
X0322087Y0231472D03*
X0320198Y0230055D03*
X0320040Y0228008D03*
X0319883Y0228008D03*
X0321457Y0227535D03*
X0300670Y0095752D03*
X0300985Y0095594D03*
X0301143Y0095594D03*
X0300198Y0093862D03*
X0301300Y0092287D03*
X0302717Y0092130D03*
X0302245Y0093862D03*
X0292717Y0093677D03*
X0289883Y0093677D03*
X0293190Y0087535D03*
X0300828Y0088508D03*
X0302717Y0088508D03*
X0309725Y0088925D03*
X0310513Y0087823D03*
X0311457Y0088925D03*
X0311930Y0087508D03*
X0311457Y0086091D03*
X0310670Y0086091D03*
X0309725Y0086091D03*
X0309568Y0086091D03*
X0319725Y0086091D03*
X0321457Y0086091D03*
X0330513Y0088193D03*
X0331930Y0088980D03*
X0332087Y0088980D03*
X0320513Y0090657D03*
X0320355Y0090657D03*
X0320355Y0093650D03*
X0320513Y0093650D03*
X0320670Y0093650D03*
X0320828Y0093650D03*
X0272087Y0091972D03*
X0270198Y0090555D03*
X0270040Y0088508D03*
X0269883Y0088508D03*
X0271457Y0088035D03*
X0263032Y0088193D03*
X0262402Y0088193D03*
X0261457Y0088193D03*
X0259568Y0088193D03*
X0261300Y0092602D03*
X0261457Y0092602D03*
X0253032Y0093232D03*
X0252245Y0092917D03*
X0252087Y0092917D03*
X0252245Y0094650D03*
X0250198Y0094650D03*
X0251300Y0090713D03*
X0251457Y0090713D03*
X0251930Y0088665D03*
X0253032Y0088193D03*
X0252245Y0086776D03*
X0250198Y0086776D03*
X0243032Y0088823D03*
X0242245Y0088823D03*
X0240513Y0090713D03*
X0240355Y0090713D03*
X0241930Y0091500D03*
X0239253Y0093075D03*
X0240198Y0087248D03*
D28*
X0243032Y0084728D03*
X0259253Y0084728D03*
X0263032Y0092445D03*
X0270513Y0091028D03*
X0271930Y0091028D03*
X0270985Y0084728D03*
X0293347Y0096354D03*
X0299410Y0096067D03*
X0301930Y0094807D03*
X0303190Y0096067D03*
X0299725Y0091185D03*
X0299725Y0087563D03*
X0299568Y0087563D03*
X0299410Y0087563D03*
X0299883Y0087563D03*
X0300040Y0087563D03*
X0300198Y0087563D03*
X0311143Y0090028D03*
X0321300Y0087035D03*
X0243032Y0097327D03*
X0243032Y0222728D03*
X0270198Y0223701D03*
X0272402Y0223701D03*
X0271772Y0227323D03*
X0270828Y0227323D03*
X0280040Y0222441D03*
X0282560Y0222441D03*
X0290040Y0228071D03*
X0288938Y0229173D03*
X0290985Y0235315D03*
X0273190Y0235512D03*
X0270513Y0235512D03*
X0250828Y0235260D03*
X0250670Y0235260D03*
X0243032Y0235327D03*
X0320513Y0230528D03*
X0321930Y0230528D03*
X0321772Y0235567D03*
X0320670Y0235567D03*
D29*
X0319883Y0097035D03*
X0311615Y0094516D03*
X0310670Y0094358D03*
X0263032Y0096933D03*
X0262717Y0097091D03*
X0262402Y0097248D03*
X0262245Y0097248D03*
X0261930Y0097406D03*
X0261772Y0097406D03*
D30*
X0259568Y0094177D03*
X0262717Y0092602D03*
X0252875Y0090713D03*
X0252717Y0090713D03*
X0251615Y0093232D03*
X0251457Y0093232D03*
X0249725Y0092287D03*
X0249725Y0089138D03*
X0249568Y0084571D03*
X0252875Y0084571D03*
X0259568Y0084413D03*
X0259725Y0084413D03*
X0260513Y0084413D03*
X0261457Y0084413D03*
X0261615Y0084413D03*
X0262717Y0084413D03*
X0262875Y0084413D03*
X0269568Y0084413D03*
X0270513Y0084413D03*
X0271457Y0084413D03*
X0272717Y0084413D03*
X0272875Y0084413D03*
X0289253Y0083913D03*
X0299253Y0084413D03*
X0310040Y0088295D03*
X0310198Y0088138D03*
X0308938Y0090500D03*
X0313190Y0094437D03*
X0319410Y0097744D03*
X0321457Y0093020D03*
X0318938Y0089083D03*
X0320985Y0087193D03*
X0322245Y0087823D03*
X0322087Y0084201D03*
X0320670Y0084201D03*
X0319095Y0084201D03*
X0291300Y0095094D03*
X0291143Y0095094D03*
X0289568Y0096354D03*
X0293032Y0096354D03*
X0299725Y0096067D03*
X0302875Y0096067D03*
X0289253Y0091315D03*
X0252875Y0096854D03*
X0251457Y0096854D03*
X0249568Y0096854D03*
X0242402Y0097642D03*
X0240198Y0097642D03*
X0240040Y0097642D03*
X0240040Y0084413D03*
X0240198Y0084413D03*
X0242402Y0084413D03*
X0299922Y0212783D03*
X0302678Y0212783D03*
X0311851Y0216417D03*
X0311300Y0220276D03*
X0301300Y0220224D03*
X0309922Y0225236D03*
X0310198Y0225236D03*
X0293032Y0228228D03*
X0280828Y0231417D03*
X0279410Y0229213D03*
X0272402Y0227008D03*
X0270198Y0227008D03*
X0269410Y0229685D03*
X0270828Y0231890D03*
X0262875Y0229213D03*
X0262717Y0229213D03*
X0261615Y0231732D03*
X0261457Y0231732D03*
X0259725Y0230787D03*
X0259725Y0227638D03*
X0253190Y0227071D03*
X0253032Y0227071D03*
X0250828Y0227071D03*
X0250355Y0227071D03*
X0249410Y0227071D03*
X0252245Y0229906D03*
X0249725Y0231165D03*
X0251930Y0235575D03*
X0252087Y0235575D03*
X0259568Y0235354D03*
X0261457Y0235354D03*
X0262875Y0235354D03*
X0271143Y0235827D03*
X0272560Y0235827D03*
X0272717Y0235827D03*
X0280985Y0235354D03*
X0281143Y0235354D03*
X0282560Y0235354D03*
X0282717Y0235354D03*
X0289095Y0235630D03*
X0291457Y0235630D03*
X0292087Y0235630D03*
X0309922Y0235709D03*
X0312678Y0235709D03*
X0319253Y0235882D03*
X0320040Y0235882D03*
X0322402Y0235882D03*
X0323190Y0235882D03*
X0279253Y0222913D03*
X0273190Y0222598D03*
X0271772Y0224016D03*
X0271615Y0224016D03*
X0271457Y0224016D03*
X0271300Y0224016D03*
X0271143Y0224016D03*
X0270985Y0224016D03*
X0270828Y0224016D03*
X0262875Y0223071D03*
X0259568Y0223071D03*
X0242402Y0222413D03*
X0240198Y0222413D03*
X0240040Y0222413D03*
X0240040Y0235642D03*
X0240198Y0235642D03*
X0242402Y0235642D03*
D31*
X0240198Y0232728D03*
X0239410Y0231154D03*
X0240670Y0228634D03*
X0241772Y0229579D03*
X0243190Y0231154D03*
X0242875Y0226902D03*
X0242717Y0226902D03*
X0242560Y0226902D03*
X0242402Y0226902D03*
X0241615Y0226902D03*
X0239568Y0226902D03*
X0250828Y0229039D03*
X0253190Y0230614D03*
X0251300Y0232819D03*
X0251143Y0232819D03*
X0262402Y0231496D03*
X0262560Y0231496D03*
X0262875Y0231654D03*
X0262245Y0227087D03*
X0262087Y0227087D03*
X0262560Y0226929D03*
X0262875Y0226772D03*
X0269253Y0231811D03*
X0270040Y0231811D03*
X0272245Y0231654D03*
X0272560Y0231811D03*
X0272717Y0231969D03*
X0272875Y0231969D03*
X0280040Y0231339D03*
X0280198Y0229291D03*
X0282402Y0227244D03*
X0282560Y0227087D03*
X0282875Y0226929D03*
X0282560Y0231339D03*
X0282402Y0231339D03*
X0282717Y0231496D03*
X0282875Y0231654D03*
X0282245Y0233071D03*
X0291300Y0232244D03*
X0291457Y0233819D03*
X0320040Y0233283D03*
X0320355Y0231551D03*
X0322245Y0231551D03*
X0323032Y0231551D03*
X0322560Y0233283D03*
X0320355Y0227929D03*
X0320198Y0227929D03*
X0322402Y0226197D03*
X0300828Y0095673D03*
X0302402Y0093783D03*
X0302560Y0092209D03*
X0301457Y0092366D03*
X0301143Y0088587D03*
X0300985Y0088587D03*
X0302402Y0088587D03*
X0302560Y0088587D03*
X0309883Y0087587D03*
X0310670Y0087744D03*
X0311772Y0087587D03*
X0312245Y0089949D03*
X0318938Y0090894D03*
X0320040Y0090736D03*
X0320198Y0090736D03*
X0320355Y0087587D03*
X0320513Y0087587D03*
X0329253Y0086539D03*
X0329410Y0086539D03*
X0330670Y0088114D03*
X0331772Y0089059D03*
X0332560Y0090634D03*
X0333032Y0086539D03*
X0333190Y0086539D03*
X0293032Y0087614D03*
X0292560Y0093598D03*
X0290040Y0093598D03*
X0273032Y0092051D03*
X0272245Y0092051D03*
X0270355Y0092051D03*
X0270355Y0088429D03*
X0270198Y0088429D03*
X0272402Y0086697D03*
X0262875Y0088272D03*
X0262717Y0088272D03*
X0262560Y0088272D03*
X0261300Y0088272D03*
X0259725Y0088272D03*
X0260198Y0090004D03*
X0259883Y0091894D03*
X0259725Y0091894D03*
X0260040Y0092051D03*
X0260670Y0092366D03*
X0260985Y0092524D03*
X0261143Y0092524D03*
X0260985Y0094256D03*
X0252875Y0093154D03*
X0252560Y0092996D03*
X0252402Y0092996D03*
X0252245Y0088587D03*
X0252087Y0088587D03*
X0252560Y0088429D03*
X0252875Y0088272D03*
X0262402Y0086697D03*
X0242875Y0088902D03*
X0242717Y0088902D03*
X0242560Y0088902D03*
X0242402Y0088902D03*
X0241615Y0088902D03*
X0240670Y0090634D03*
X0241772Y0091579D03*
X0243190Y0093154D03*
X0240198Y0094728D03*
X0239410Y0093154D03*
X0239568Y0088902D03*
D32*
X0239253Y0091106D03*
X0243190Y0091106D03*
X0242245Y0097720D03*
X0242087Y0097720D03*
X0240513Y0097720D03*
X0240355Y0097720D03*
X0249725Y0096933D03*
X0250985Y0096933D03*
X0251143Y0096933D03*
X0251615Y0096933D03*
X0251772Y0096933D03*
X0252560Y0096933D03*
X0252717Y0096933D03*
X0251772Y0093311D03*
X0252560Y0090791D03*
X0259725Y0094256D03*
X0261772Y0087642D03*
X0261772Y0084335D03*
X0261930Y0084335D03*
X0262087Y0084335D03*
X0262245Y0084335D03*
X0262402Y0084335D03*
X0262560Y0084335D03*
X0260355Y0084335D03*
X0260198Y0084335D03*
X0260040Y0084335D03*
X0259883Y0084335D03*
X0252717Y0084492D03*
X0252560Y0084492D03*
X0252402Y0084492D03*
X0252245Y0084492D03*
X0252087Y0084492D03*
X0250670Y0084492D03*
X0249725Y0084492D03*
X0242245Y0084335D03*
X0242087Y0084335D03*
X0241930Y0084335D03*
X0240670Y0084335D03*
X0240513Y0084335D03*
X0240355Y0084335D03*
X0269410Y0088587D03*
X0271772Y0087642D03*
X0271772Y0084335D03*
X0271615Y0084335D03*
X0271930Y0084335D03*
X0272087Y0084335D03*
X0272245Y0084335D03*
X0272402Y0084335D03*
X0272560Y0084335D03*
X0270355Y0084335D03*
X0270198Y0084335D03*
X0269883Y0084335D03*
X0269725Y0084335D03*
X0280355Y0086606D03*
X0280828Y0086606D03*
X0281772Y0086606D03*
X0281772Y0089323D03*
X0280828Y0089323D03*
X0289253Y0088717D03*
X0290513Y0088559D03*
X0290670Y0088559D03*
X0290828Y0088559D03*
X0289410Y0091394D03*
X0290985Y0095173D03*
X0291457Y0095173D03*
X0292875Y0096276D03*
X0289725Y0096276D03*
X0302717Y0095988D03*
X0303190Y0092051D03*
X0303190Y0084335D03*
X0303032Y0084335D03*
X0302875Y0084335D03*
X0302717Y0084335D03*
X0302560Y0084335D03*
X0302402Y0084335D03*
X0302245Y0084335D03*
X0302087Y0084335D03*
X0301930Y0084335D03*
X0301772Y0084335D03*
X0301615Y0084335D03*
X0301457Y0084335D03*
X0301300Y0084335D03*
X0301143Y0084335D03*
X0300985Y0084335D03*
X0300828Y0084335D03*
X0300670Y0084335D03*
X0300513Y0084335D03*
X0300355Y0084335D03*
X0300198Y0084335D03*
X0300040Y0084335D03*
X0299883Y0084335D03*
X0299725Y0084335D03*
X0299568Y0084335D03*
X0299410Y0084335D03*
X0293190Y0083835D03*
X0293032Y0083835D03*
X0292875Y0083835D03*
X0292717Y0083835D03*
X0292560Y0083835D03*
X0292402Y0083835D03*
X0292245Y0083835D03*
X0292087Y0083835D03*
X0291930Y0083835D03*
X0291772Y0083835D03*
X0291615Y0083835D03*
X0291457Y0083835D03*
X0291300Y0083835D03*
X0291143Y0083835D03*
X0290985Y0083835D03*
X0290828Y0083835D03*
X0290670Y0083835D03*
X0290513Y0083835D03*
X0290355Y0083835D03*
X0290198Y0083835D03*
X0290040Y0083835D03*
X0289883Y0083835D03*
X0289725Y0083835D03*
X0289568Y0083835D03*
X0289410Y0083835D03*
X0308938Y0083965D03*
X0309095Y0083965D03*
X0309253Y0083965D03*
X0309410Y0083965D03*
X0309568Y0083965D03*
X0309725Y0083965D03*
X0309883Y0083965D03*
X0310040Y0083965D03*
X0310198Y0083965D03*
X0310355Y0083965D03*
X0310513Y0083965D03*
X0310670Y0083965D03*
X0310828Y0083965D03*
X0310985Y0083965D03*
X0311143Y0083965D03*
X0311300Y0083965D03*
X0311457Y0083965D03*
X0311615Y0083965D03*
X0311772Y0083965D03*
X0311930Y0083965D03*
X0312087Y0083965D03*
X0312245Y0083965D03*
X0319253Y0084122D03*
X0319883Y0084122D03*
X0320828Y0084122D03*
X0321772Y0084122D03*
X0321930Y0084122D03*
X0329253Y0084492D03*
X0329410Y0084492D03*
X0333190Y0084492D03*
X0333190Y0088587D03*
X0332402Y0091264D03*
X0332245Y0091264D03*
X0332087Y0091264D03*
X0331930Y0091264D03*
X0331772Y0091264D03*
X0331615Y0091264D03*
X0331457Y0091264D03*
X0331300Y0091264D03*
X0331143Y0091264D03*
X0330985Y0091264D03*
X0330828Y0091264D03*
X0330670Y0091264D03*
X0330513Y0091264D03*
X0330355Y0091264D03*
X0330198Y0091264D03*
X0330040Y0091264D03*
X0329883Y0091264D03*
X0329725Y0091264D03*
X0329568Y0091264D03*
X0329410Y0091264D03*
X0329253Y0088587D03*
X0322245Y0090264D03*
X0313347Y0094358D03*
X0319253Y0097665D03*
X0323190Y0097823D03*
X0337383Y0197850D03*
X0337855Y0197850D03*
X0347855Y0198323D03*
X0321772Y0227142D03*
X0319410Y0228087D03*
X0319410Y0235961D03*
X0319568Y0235961D03*
X0319725Y0235961D03*
X0319883Y0235961D03*
X0322560Y0235961D03*
X0322717Y0235961D03*
X0322875Y0235961D03*
X0323032Y0235961D03*
X0293190Y0228307D03*
X0283032Y0229291D03*
X0283347Y0231811D03*
X0279568Y0229291D03*
X0273032Y0229764D03*
X0270040Y0226929D03*
X0269883Y0226929D03*
X0269410Y0226929D03*
X0262560Y0229291D03*
X0261772Y0231811D03*
X0252717Y0232819D03*
X0252560Y0232819D03*
X0252402Y0235654D03*
X0252245Y0235654D03*
X0253190Y0235654D03*
X0259725Y0235433D03*
X0260985Y0235433D03*
X0261143Y0235433D03*
X0261615Y0235433D03*
X0261772Y0235433D03*
X0262560Y0235433D03*
X0262717Y0235433D03*
X0269253Y0235906D03*
X0271300Y0235906D03*
X0271457Y0235906D03*
X0271615Y0235906D03*
X0271772Y0235906D03*
X0271930Y0235906D03*
X0272087Y0235906D03*
X0272245Y0235906D03*
X0272402Y0235906D03*
X0281300Y0235433D03*
X0281457Y0235433D03*
X0281615Y0235433D03*
X0282087Y0235433D03*
X0282245Y0235433D03*
X0282402Y0235433D03*
X0289253Y0235709D03*
X0290670Y0235709D03*
X0291615Y0235709D03*
X0291772Y0235709D03*
X0291930Y0235709D03*
X0273032Y0222677D03*
X0262717Y0222992D03*
X0262560Y0222992D03*
X0262402Y0222992D03*
X0262245Y0222992D03*
X0262087Y0222992D03*
X0260670Y0222992D03*
X0259725Y0222992D03*
X0252875Y0226992D03*
X0252717Y0226992D03*
X0252560Y0226992D03*
X0252402Y0226992D03*
X0252245Y0226992D03*
X0252087Y0226992D03*
X0251930Y0226992D03*
X0250198Y0226992D03*
X0249883Y0231244D03*
X0243190Y0229106D03*
X0239253Y0229106D03*
X0240355Y0235720D03*
X0240513Y0235720D03*
X0242087Y0235720D03*
X0242245Y0235720D03*
X0242245Y0222335D03*
X0242087Y0222335D03*
X0241930Y0222335D03*
X0240670Y0222335D03*
X0240513Y0222335D03*
X0240355Y0222335D03*
D33*
X0240828Y0222256D03*
X0240985Y0222256D03*
X0241143Y0222256D03*
X0241300Y0222256D03*
X0241457Y0222256D03*
X0241615Y0222256D03*
X0241772Y0222256D03*
X0239410Y0229028D03*
X0249568Y0226913D03*
X0249725Y0226913D03*
X0250040Y0226913D03*
X0250985Y0226913D03*
X0251143Y0226913D03*
X0251300Y0226913D03*
X0251457Y0226913D03*
X0251615Y0226913D03*
X0251772Y0226913D03*
X0250040Y0231165D03*
X0252402Y0232898D03*
X0252560Y0235732D03*
X0252717Y0235732D03*
X0253032Y0235732D03*
X0259883Y0235512D03*
X0260040Y0235512D03*
X0260198Y0235512D03*
X0260355Y0235512D03*
X0260513Y0235512D03*
X0260670Y0235512D03*
X0260828Y0235512D03*
X0261930Y0235512D03*
X0262087Y0235512D03*
X0262245Y0235512D03*
X0262402Y0235512D03*
X0269410Y0235984D03*
X0269568Y0235984D03*
X0269725Y0235984D03*
X0269883Y0235984D03*
X0270040Y0235984D03*
X0273347Y0232205D03*
X0270670Y0231732D03*
X0269568Y0229685D03*
X0269568Y0226850D03*
X0269725Y0226850D03*
X0262402Y0229213D03*
X0260040Y0230787D03*
X0259883Y0230787D03*
X0259883Y0227638D03*
X0260040Y0227638D03*
X0260040Y0222913D03*
X0259883Y0222913D03*
X0260198Y0222913D03*
X0260355Y0222913D03*
X0260513Y0222913D03*
X0272875Y0222756D03*
X0280670Y0231417D03*
X0280040Y0235512D03*
X0279410Y0235512D03*
X0279253Y0235512D03*
X0281772Y0235512D03*
X0281930Y0235512D03*
X0289410Y0235787D03*
X0289568Y0235787D03*
X0290355Y0235787D03*
X0290513Y0235787D03*
X0293032Y0235787D03*
X0293820Y0235787D03*
X0293347Y0228386D03*
X0323032Y0228165D03*
X0241930Y0235799D03*
X0241772Y0235799D03*
X0241615Y0235799D03*
X0241457Y0235799D03*
X0241300Y0235799D03*
X0241143Y0235799D03*
X0240985Y0235799D03*
X0240828Y0235799D03*
X0240670Y0235799D03*
X0240670Y0097799D03*
X0240828Y0097799D03*
X0240985Y0097799D03*
X0241143Y0097799D03*
X0241300Y0097799D03*
X0241457Y0097799D03*
X0241615Y0097799D03*
X0241772Y0097799D03*
X0241930Y0097799D03*
X0249883Y0097012D03*
X0250040Y0097012D03*
X0250198Y0097012D03*
X0250355Y0097012D03*
X0250513Y0097012D03*
X0250670Y0097012D03*
X0250828Y0097012D03*
X0251930Y0097012D03*
X0252087Y0097012D03*
X0252245Y0097012D03*
X0252402Y0097012D03*
X0259883Y0094177D03*
X0259253Y0091500D03*
X0261143Y0090398D03*
X0261300Y0090398D03*
X0261457Y0090398D03*
X0262560Y0092602D03*
X0252402Y0090713D03*
X0250040Y0092287D03*
X0249883Y0092287D03*
X0249883Y0089138D03*
X0250040Y0089138D03*
X0250040Y0084413D03*
X0249883Y0084413D03*
X0250198Y0084413D03*
X0250355Y0084413D03*
X0250513Y0084413D03*
X0241772Y0084256D03*
X0241615Y0084256D03*
X0241457Y0084256D03*
X0241300Y0084256D03*
X0241143Y0084256D03*
X0240985Y0084256D03*
X0240828Y0084256D03*
X0239410Y0091028D03*
X0270040Y0084256D03*
X0273032Y0088665D03*
X0289568Y0091315D03*
X0289725Y0091315D03*
X0289883Y0091315D03*
X0290040Y0091315D03*
X0290198Y0091315D03*
X0290355Y0091315D03*
X0290513Y0091315D03*
X0290670Y0091315D03*
X0290828Y0091315D03*
X0290985Y0091315D03*
X0291143Y0091315D03*
X0291300Y0091315D03*
X0291457Y0091315D03*
X0291615Y0091315D03*
X0291772Y0091315D03*
X0291930Y0091315D03*
X0292087Y0091315D03*
X0292245Y0091315D03*
X0292402Y0091315D03*
X0292402Y0088638D03*
X0291143Y0088638D03*
X0290985Y0088638D03*
X0290355Y0088638D03*
X0290198Y0088638D03*
X0290040Y0088638D03*
X0300355Y0088035D03*
X0300355Y0091657D03*
X0302245Y0095594D03*
X0302402Y0095752D03*
X0302560Y0095909D03*
X0299883Y0096067D03*
X0292717Y0096197D03*
X0291615Y0095252D03*
X0290828Y0095252D03*
X0290670Y0095409D03*
X0290513Y0095567D03*
X0290355Y0095724D03*
X0290198Y0095882D03*
X0290040Y0096039D03*
X0289883Y0096197D03*
X0310828Y0090500D03*
X0312245Y0087508D03*
X0319095Y0089083D03*
X0319253Y0089083D03*
X0322087Y0087823D03*
X0329568Y0084413D03*
X0329725Y0084413D03*
X0329883Y0084413D03*
X0330040Y0084413D03*
X0330198Y0084413D03*
X0330355Y0084413D03*
X0330513Y0084413D03*
X0330670Y0084413D03*
X0330828Y0084413D03*
X0330985Y0084413D03*
X0331143Y0084413D03*
X0331300Y0084413D03*
X0331457Y0084413D03*
X0331615Y0084413D03*
X0331772Y0084413D03*
X0331930Y0084413D03*
X0332087Y0084413D03*
X0332245Y0084413D03*
X0332402Y0084413D03*
X0332560Y0084413D03*
X0332717Y0084413D03*
X0332875Y0084413D03*
X0333032Y0084413D03*
X0323820Y0084043D03*
X0323032Y0084043D03*
X0321615Y0084043D03*
X0321457Y0084043D03*
X0321300Y0084043D03*
X0321143Y0084043D03*
X0320985Y0084043D03*
X0319725Y0084043D03*
X0319568Y0084043D03*
X0319410Y0084043D03*
X0313820Y0083886D03*
X0313032Y0083886D03*
X0313505Y0094280D03*
X0319095Y0097587D03*
X0323347Y0097744D03*
X0332560Y0095437D03*
X0333190Y0095437D03*
D34*
X0333032Y0095516D03*
X0332875Y0095516D03*
X0332717Y0095516D03*
X0323820Y0097350D03*
X0323505Y0097665D03*
X0318938Y0097508D03*
X0313820Y0094043D03*
X0313662Y0094201D03*
X0311457Y0090579D03*
X0309095Y0090579D03*
X0300985Y0092524D03*
X0301615Y0095201D03*
X0300040Y0095988D03*
X0292560Y0096118D03*
X0292402Y0095961D03*
X0292245Y0095803D03*
X0292087Y0095646D03*
X0291930Y0095488D03*
X0291772Y0095331D03*
X0291772Y0088717D03*
X0291615Y0088717D03*
X0291457Y0088717D03*
X0291300Y0088717D03*
X0291930Y0088717D03*
X0292087Y0088717D03*
X0292245Y0088717D03*
X0289883Y0088717D03*
X0289725Y0088717D03*
X0289568Y0088717D03*
X0289410Y0088717D03*
X0289253Y0086354D03*
X0272087Y0090634D03*
X0269568Y0088587D03*
X0261772Y0090319D03*
X0261615Y0090319D03*
X0260985Y0090319D03*
X0260828Y0090319D03*
X0260670Y0090319D03*
X0262245Y0092681D03*
X0262402Y0092681D03*
X0260040Y0094256D03*
X0252245Y0090791D03*
X0250670Y0092524D03*
X0250355Y0092366D03*
X0250198Y0092366D03*
X0250198Y0089059D03*
X0250355Y0089059D03*
X0251300Y0088587D03*
X0243032Y0091106D03*
X0241615Y0095201D03*
X0241457Y0095201D03*
X0241300Y0095201D03*
X0241143Y0095201D03*
X0240985Y0095201D03*
X0240828Y0087012D03*
X0240670Y0087012D03*
X0313190Y0083807D03*
X0313347Y0083807D03*
X0313505Y0083807D03*
X0313662Y0083807D03*
X0323190Y0083965D03*
X0323347Y0083965D03*
X0323505Y0083965D03*
X0323662Y0083965D03*
X0321930Y0087902D03*
X0321930Y0090264D03*
X0322087Y0090264D03*
X0329410Y0088587D03*
X0333032Y0088587D03*
X0272717Y0222835D03*
X0272560Y0222992D03*
X0280828Y0227402D03*
X0280985Y0227559D03*
X0281143Y0227717D03*
X0281300Y0227717D03*
X0281457Y0227717D03*
X0282875Y0229291D03*
X0281457Y0230866D03*
X0279725Y0229291D03*
X0272875Y0229764D03*
X0271457Y0231339D03*
X0269725Y0229764D03*
X0262245Y0229291D03*
X0260670Y0231024D03*
X0260355Y0230866D03*
X0260198Y0230866D03*
X0260198Y0227559D03*
X0260355Y0227559D03*
X0261300Y0227087D03*
X0251772Y0230457D03*
X0250198Y0231244D03*
X0252245Y0232819D03*
X0252875Y0235811D03*
X0241615Y0233201D03*
X0241457Y0233201D03*
X0241300Y0233201D03*
X0241143Y0233201D03*
X0240985Y0233201D03*
X0243032Y0229106D03*
X0249883Y0226835D03*
X0240828Y0225012D03*
X0240670Y0225012D03*
X0279568Y0235591D03*
X0279725Y0235591D03*
X0279883Y0235591D03*
X0288938Y0232402D03*
X0292245Y0232402D03*
X0293190Y0235866D03*
X0293347Y0235866D03*
X0293505Y0235866D03*
X0293662Y0235866D03*
X0290198Y0235866D03*
X0290040Y0235866D03*
X0289883Y0235866D03*
X0289725Y0235866D03*
X0293505Y0228465D03*
X0319568Y0228087D03*
X0322087Y0230134D03*
D35*
X0322402Y0227772D03*
X0322245Y0226197D03*
X0320198Y0226197D03*
X0312954Y0228819D03*
X0312402Y0231575D03*
X0319410Y0231551D03*
X0319568Y0233441D03*
X0319725Y0233441D03*
X0322875Y0233441D03*
X0312127Y0225236D03*
X0311300Y0222756D03*
X0312402Y0218622D03*
X0302402Y0218571D03*
X0302127Y0225185D03*
X0302678Y0227665D03*
X0299922Y0230972D03*
X0300473Y0232626D03*
X0292087Y0232402D03*
X0289883Y0233661D03*
X0283032Y0231654D03*
X0281930Y0231024D03*
X0282560Y0229291D03*
X0281930Y0227559D03*
X0280355Y0227244D03*
X0280198Y0225354D03*
X0280040Y0225354D03*
X0282245Y0225354D03*
X0280040Y0229291D03*
X0281457Y0232913D03*
X0281772Y0233071D03*
X0281930Y0233071D03*
X0282087Y0233071D03*
X0272087Y0233543D03*
X0271615Y0233386D03*
X0271457Y0233386D03*
X0271930Y0231496D03*
X0270040Y0229764D03*
X0261772Y0227087D03*
X0251615Y0232819D03*
X0251457Y0232819D03*
X0242245Y0232886D03*
X0242245Y0229421D03*
X0242087Y0229421D03*
X0240198Y0228791D03*
X0239410Y0226902D03*
X0240985Y0224539D03*
X0241143Y0224539D03*
X0241300Y0224539D03*
X0241457Y0224539D03*
X0327383Y0195843D03*
X0328800Y0199031D03*
X0339272Y0197378D03*
X0348328Y0200331D03*
X0349272Y0197850D03*
X0281300Y0098654D03*
X0289568Y0093756D03*
X0289725Y0093756D03*
X0292875Y0093756D03*
X0300513Y0095831D03*
X0301300Y0095516D03*
X0302245Y0090319D03*
X0302875Y0088429D03*
X0302245Y0086697D03*
X0300670Y0088429D03*
X0292245Y0086197D03*
X0290198Y0086197D03*
X0282245Y0091803D03*
X0272402Y0088272D03*
X0272245Y0086697D03*
X0270198Y0086697D03*
X0262245Y0086697D03*
X0262245Y0088114D03*
X0262245Y0090004D03*
X0261772Y0092681D03*
X0261615Y0092681D03*
X0259568Y0091736D03*
X0259410Y0088114D03*
X0260198Y0086697D03*
X0251772Y0088587D03*
X0242245Y0091421D03*
X0242087Y0091421D03*
X0240198Y0090791D03*
X0239410Y0088902D03*
X0240985Y0086539D03*
X0241143Y0086539D03*
X0241300Y0086539D03*
X0241457Y0086539D03*
X0242245Y0094886D03*
X0269410Y0092051D03*
X0309253Y0086169D03*
X0309410Y0086169D03*
X0310828Y0086169D03*
X0310985Y0086169D03*
X0311143Y0086169D03*
X0311300Y0086169D03*
X0309883Y0088846D03*
X0318938Y0087114D03*
X0319883Y0086012D03*
X0320670Y0087587D03*
X0320670Y0090579D03*
X0320828Y0090579D03*
X0320985Y0093571D03*
X0320198Y0093571D03*
X0330198Y0088272D03*
X0330355Y0088272D03*
X0332245Y0088902D03*
D36*
X0322245Y0084358D03*
X0321143Y0087035D03*
X0318938Y0084358D03*
X0310985Y0090185D03*
X0313032Y0094437D03*
X0318938Y0093020D03*
X0323032Y0097744D03*
X0303032Y0096067D03*
X0293190Y0096354D03*
X0273190Y0088665D03*
X0272087Y0087406D03*
X0271143Y0084571D03*
X0269410Y0084571D03*
X0273190Y0084571D03*
X0262087Y0087406D03*
X0261143Y0084571D03*
X0259410Y0084571D03*
X0253190Y0084728D03*
X0253190Y0090713D03*
X0253032Y0090713D03*
X0250985Y0093075D03*
X0253190Y0096697D03*
X0259253Y0094177D03*
X0242717Y0097484D03*
X0239725Y0097484D03*
X0239725Y0084571D03*
X0327383Y0192890D03*
X0327855Y0192654D03*
X0337383Y0192772D03*
X0337855Y0192535D03*
X0348328Y0192417D03*
X0348800Y0192417D03*
X0349272Y0192417D03*
X0337855Y0202339D03*
X0329745Y0201512D03*
X0327855Y0201512D03*
X0348328Y0203402D03*
X0348800Y0203402D03*
X0349272Y0203402D03*
X0312954Y0225236D03*
X0309646Y0225236D03*
X0302954Y0225185D03*
X0289568Y0228386D03*
X0289410Y0228543D03*
X0289253Y0228701D03*
X0279253Y0229213D03*
X0272087Y0227165D03*
X0270513Y0227165D03*
X0269253Y0229685D03*
X0263190Y0229213D03*
X0263032Y0229213D03*
X0260985Y0231575D03*
X0263190Y0235197D03*
X0270670Y0235669D03*
X0273032Y0235669D03*
X0280670Y0235197D03*
X0283032Y0235197D03*
X0288938Y0235472D03*
X0272087Y0223858D03*
X0270513Y0223858D03*
X0263190Y0223228D03*
X0279725Y0222598D03*
X0282875Y0222598D03*
X0251457Y0235417D03*
X0251300Y0235417D03*
X0242717Y0235484D03*
X0239725Y0235484D03*
X0249410Y0231165D03*
X0239725Y0222571D03*
X0320355Y0235724D03*
X0322087Y0235724D03*
X0323190Y0228165D03*
X0322087Y0226906D03*
D37*
X0322875Y0228087D03*
X0320513Y0226039D03*
X0319253Y0231394D03*
X0319410Y0233441D03*
X0323032Y0233441D03*
X0310473Y0233504D03*
X0300473Y0229319D03*
X0293820Y0228622D03*
X0291300Y0231142D03*
X0283190Y0231654D03*
X0281615Y0230866D03*
X0280513Y0231339D03*
X0279883Y0229291D03*
X0281615Y0227717D03*
X0283190Y0226772D03*
X0282717Y0229291D03*
X0273190Y0232126D03*
X0271615Y0231339D03*
X0269883Y0229764D03*
X0261930Y0229291D03*
X0260828Y0227402D03*
X0261143Y0227244D03*
X0261457Y0227087D03*
X0260670Y0225197D03*
X0261930Y0231496D03*
X0260670Y0233071D03*
X0251930Y0232819D03*
X0251772Y0232819D03*
X0250828Y0231087D03*
X0250670Y0231087D03*
X0250985Y0230929D03*
X0251143Y0230929D03*
X0251300Y0230772D03*
X0251457Y0230772D03*
X0242560Y0229264D03*
X0243190Y0226744D03*
X0240355Y0225169D03*
X0239253Y0226744D03*
X0239725Y0228949D03*
X0239883Y0228949D03*
X0240513Y0233043D03*
X0241930Y0233043D03*
X0301024Y0222705D03*
X0309922Y0218622D03*
X0301576Y0217193D03*
X0300749Y0216917D03*
X0299646Y0215264D03*
X0300198Y0095988D03*
X0293032Y0093756D03*
X0289410Y0093756D03*
X0300513Y0088272D03*
X0301615Y0086854D03*
X0301772Y0086854D03*
X0301930Y0086854D03*
X0302087Y0086854D03*
X0308938Y0086169D03*
X0310355Y0087902D03*
X0310355Y0090736D03*
X0310198Y0090736D03*
X0310040Y0090736D03*
X0309883Y0090736D03*
X0309725Y0090736D03*
X0309568Y0090736D03*
X0309410Y0090736D03*
X0310513Y0090736D03*
X0301930Y0090476D03*
X0301772Y0090476D03*
X0292087Y0086354D03*
X0291930Y0086354D03*
X0291772Y0086354D03*
X0291615Y0086354D03*
X0289725Y0086354D03*
X0289568Y0086354D03*
X0289410Y0086354D03*
X0272875Y0088587D03*
X0270513Y0086539D03*
X0261615Y0087957D03*
X0260513Y0086539D03*
X0260355Y0090161D03*
X0262087Y0090161D03*
X0262087Y0092681D03*
X0261930Y0092681D03*
X0269253Y0091894D03*
X0251930Y0092996D03*
X0250670Y0094571D03*
X0251930Y0090791D03*
X0250828Y0088902D03*
X0251143Y0088744D03*
X0251457Y0088587D03*
X0250670Y0086697D03*
X0243190Y0088744D03*
X0242560Y0091264D03*
X0239883Y0090949D03*
X0239725Y0090949D03*
X0239253Y0088744D03*
X0240355Y0087169D03*
X0240513Y0095043D03*
X0241930Y0095043D03*
X0320828Y0087429D03*
X0321300Y0090421D03*
X0321457Y0090421D03*
X0329883Y0088429D03*
X0332560Y0088744D03*
X0332717Y0088744D03*
D38*
X0332875Y0088665D03*
X0329725Y0088508D03*
X0329568Y0088508D03*
X0321772Y0087823D03*
X0321615Y0087823D03*
X0321457Y0087665D03*
X0319568Y0089083D03*
X0319410Y0089083D03*
X0321615Y0090343D03*
X0321772Y0090343D03*
X0323662Y0097587D03*
X0311615Y0090657D03*
X0310670Y0090657D03*
X0309253Y0090657D03*
X0303032Y0092130D03*
X0300513Y0091972D03*
X0300513Y0093705D03*
X0293190Y0093835D03*
X0289253Y0093835D03*
X0282717Y0091685D03*
X0282717Y0084244D03*
X0282245Y0084244D03*
X0281772Y0084244D03*
X0281300Y0084244D03*
X0280828Y0084244D03*
X0280355Y0084244D03*
X0279883Y0084244D03*
X0270355Y0090555D03*
X0261930Y0090240D03*
X0260513Y0090240D03*
X0259253Y0088035D03*
X0252087Y0090713D03*
X0250985Y0088823D03*
X0250670Y0088980D03*
X0250513Y0088980D03*
X0250513Y0092445D03*
X0242875Y0091185D03*
X0242717Y0091185D03*
X0239568Y0091028D03*
X0240513Y0087091D03*
X0240670Y0095122D03*
X0240828Y0095122D03*
X0241772Y0095122D03*
X0303190Y0088193D03*
X0350808Y0192890D03*
X0350808Y0202929D03*
X0293662Y0228543D03*
X0289883Y0231063D03*
X0280670Y0227323D03*
X0279410Y0225433D03*
X0279253Y0225433D03*
X0272717Y0229685D03*
X0270513Y0231732D03*
X0262087Y0229213D03*
X0260985Y0227323D03*
X0260670Y0227480D03*
X0260513Y0227480D03*
X0260513Y0230945D03*
X0252087Y0232898D03*
X0250513Y0231165D03*
X0250355Y0231165D03*
X0251615Y0230535D03*
X0242875Y0229185D03*
X0242717Y0229185D03*
X0239568Y0229028D03*
X0240513Y0225091D03*
X0240670Y0233122D03*
X0240828Y0233122D03*
X0241772Y0233122D03*
X0319253Y0233520D03*
X0320355Y0230055D03*
X0323190Y0233520D03*
D39*
X0320985Y0223441D03*
X0261615Y0097484D03*
X0261457Y0097484D03*
X0310355Y0094280D03*
X0310513Y0094280D03*
D40*
X0311772Y0090106D03*
X0312087Y0089949D03*
X0311615Y0087587D03*
X0311457Y0087587D03*
X0311300Y0087587D03*
X0311143Y0087587D03*
X0310985Y0087587D03*
X0309725Y0087587D03*
X0309568Y0087587D03*
X0309410Y0087587D03*
X0309253Y0087744D03*
X0302087Y0092209D03*
X0301930Y0092209D03*
X0293032Y0092024D03*
X0292875Y0092024D03*
X0292717Y0092024D03*
X0292087Y0093441D03*
X0290355Y0093441D03*
X0292560Y0087929D03*
X0292717Y0087772D03*
X0272717Y0092209D03*
X0272560Y0092209D03*
X0269883Y0092209D03*
X0269725Y0092209D03*
X0270985Y0088272D03*
X0260513Y0088429D03*
X0252402Y0086854D03*
X0241143Y0090476D03*
X0240985Y0090476D03*
X0241300Y0091736D03*
X0252402Y0094728D03*
X0261300Y0094256D03*
X0261457Y0094256D03*
X0319095Y0090894D03*
X0319253Y0090894D03*
X0319410Y0090894D03*
X0319568Y0090894D03*
X0319725Y0087429D03*
X0319883Y0087429D03*
X0319253Y0087272D03*
X0321615Y0093886D03*
X0321772Y0093886D03*
X0321930Y0093886D03*
X0322087Y0093886D03*
X0331300Y0089217D03*
X0331457Y0089217D03*
X0331143Y0087957D03*
X0262402Y0225354D03*
X0269410Y0231811D03*
X0269568Y0231811D03*
X0269725Y0231811D03*
X0269883Y0231811D03*
X0262402Y0233228D03*
X0250985Y0232819D03*
X0250828Y0232819D03*
X0241300Y0229736D03*
X0241143Y0228476D03*
X0240985Y0228476D03*
X0279410Y0227244D03*
X0280355Y0229291D03*
X0282087Y0229291D03*
X0279883Y0231339D03*
X0279568Y0231339D03*
X0289410Y0232402D03*
X0289568Y0232402D03*
X0291615Y0232402D03*
X0319725Y0231709D03*
X0319883Y0231709D03*
X0320355Y0233126D03*
X0322087Y0233126D03*
X0322560Y0231709D03*
X0322717Y0231709D03*
X0320985Y0227772D03*
D41*
X0292245Y0228465D03*
X0319725Y0097035D03*
X0310198Y0094201D03*
X0261300Y0097563D03*
X0261143Y0097563D03*
D42*
X0261143Y0094177D03*
X0260828Y0092445D03*
X0260513Y0092287D03*
X0260355Y0092287D03*
X0260198Y0092130D03*
X0260198Y0088350D03*
X0260355Y0088350D03*
X0260040Y0088350D03*
X0259883Y0088350D03*
X0260670Y0088350D03*
X0260828Y0088350D03*
X0260985Y0088350D03*
X0261143Y0088350D03*
X0252717Y0088350D03*
X0252402Y0088508D03*
X0251143Y0090713D03*
X0250985Y0090713D03*
X0252717Y0093075D03*
X0243032Y0093075D03*
X0242875Y0093075D03*
X0242717Y0093075D03*
X0242560Y0093075D03*
X0242402Y0093075D03*
X0242245Y0093075D03*
X0242087Y0093075D03*
X0241930Y0093075D03*
X0241772Y0093075D03*
X0241615Y0093075D03*
X0241457Y0093075D03*
X0241300Y0093075D03*
X0241143Y0093075D03*
X0240985Y0093075D03*
X0240828Y0093075D03*
X0240670Y0093075D03*
X0240513Y0093075D03*
X0240355Y0093075D03*
X0240198Y0093075D03*
X0240040Y0093075D03*
X0239883Y0093075D03*
X0239725Y0093075D03*
X0239568Y0093075D03*
X0241457Y0091657D03*
X0241615Y0091657D03*
X0240828Y0090555D03*
X0240828Y0088980D03*
X0240985Y0088980D03*
X0241143Y0088980D03*
X0241300Y0088980D03*
X0241457Y0088980D03*
X0240670Y0088980D03*
X0240513Y0088980D03*
X0240355Y0088980D03*
X0240198Y0088980D03*
X0240040Y0088980D03*
X0239883Y0088980D03*
X0239725Y0088980D03*
X0269568Y0092130D03*
X0270040Y0092130D03*
X0270198Y0092130D03*
X0272402Y0092130D03*
X0272875Y0092130D03*
X0271300Y0088193D03*
X0271143Y0088193D03*
X0270828Y0088350D03*
X0270670Y0088350D03*
X0270513Y0088350D03*
X0280828Y0091331D03*
X0282717Y0090150D03*
X0290198Y0093520D03*
X0292245Y0093520D03*
X0292402Y0093520D03*
X0292560Y0091945D03*
X0293190Y0092102D03*
X0292875Y0087693D03*
X0301300Y0088665D03*
X0301457Y0088665D03*
X0301615Y0088665D03*
X0301772Y0088665D03*
X0301930Y0088665D03*
X0302087Y0088665D03*
X0302245Y0088665D03*
X0302245Y0092130D03*
X0302402Y0092130D03*
X0301772Y0092287D03*
X0301615Y0092287D03*
X0309095Y0087823D03*
X0310828Y0087665D03*
X0319095Y0087193D03*
X0320040Y0087508D03*
X0320198Y0087508D03*
X0320355Y0089083D03*
X0320513Y0089083D03*
X0319883Y0090815D03*
X0319725Y0090815D03*
X0322245Y0093965D03*
X0332717Y0090555D03*
X0332875Y0090555D03*
X0333032Y0090555D03*
X0333190Y0090555D03*
X0331615Y0089138D03*
X0330985Y0088035D03*
X0330828Y0088035D03*
X0330828Y0086618D03*
X0330985Y0086618D03*
X0331143Y0086618D03*
X0331300Y0086618D03*
X0331457Y0086618D03*
X0331615Y0086618D03*
X0331772Y0086618D03*
X0331930Y0086618D03*
X0332087Y0086618D03*
X0332245Y0086618D03*
X0332402Y0086618D03*
X0332560Y0086618D03*
X0332717Y0086618D03*
X0332875Y0086618D03*
X0330670Y0086618D03*
X0330513Y0086618D03*
X0330355Y0086618D03*
X0330198Y0086618D03*
X0330040Y0086618D03*
X0329883Y0086618D03*
X0329725Y0086618D03*
X0329568Y0086618D03*
X0347383Y0194189D03*
X0347855Y0196433D03*
X0350217Y0196433D03*
X0349745Y0199150D03*
X0339745Y0198677D03*
X0340217Y0195961D03*
X0337855Y0195961D03*
X0330217Y0196079D03*
X0327855Y0195961D03*
X0321300Y0227693D03*
X0321143Y0227693D03*
X0320828Y0227850D03*
X0320670Y0227850D03*
X0320513Y0227850D03*
X0320198Y0231630D03*
X0320040Y0231630D03*
X0319568Y0231630D03*
X0320198Y0233205D03*
X0322245Y0233205D03*
X0322402Y0233205D03*
X0322402Y0231630D03*
X0322875Y0231630D03*
X0291930Y0232480D03*
X0291772Y0232480D03*
X0291457Y0232323D03*
X0289725Y0232323D03*
X0289253Y0232480D03*
X0282245Y0229213D03*
X0282717Y0227008D03*
X0280040Y0227165D03*
X0279883Y0227165D03*
X0279410Y0231417D03*
X0273190Y0227638D03*
X0272560Y0227638D03*
X0272245Y0229685D03*
X0270355Y0229685D03*
X0262717Y0231575D03*
X0261143Y0229213D03*
X0260985Y0229213D03*
X0262402Y0227008D03*
X0262717Y0226850D03*
X0253032Y0230535D03*
X0252875Y0230535D03*
X0252717Y0230535D03*
X0252560Y0230535D03*
X0243032Y0231075D03*
X0242875Y0231075D03*
X0242717Y0231075D03*
X0242560Y0231075D03*
X0242402Y0231075D03*
X0242245Y0231075D03*
X0242087Y0231075D03*
X0241930Y0231075D03*
X0241772Y0231075D03*
X0241615Y0231075D03*
X0241457Y0231075D03*
X0241300Y0231075D03*
X0241143Y0231075D03*
X0240985Y0231075D03*
X0240828Y0231075D03*
X0240670Y0231075D03*
X0240513Y0231075D03*
X0240355Y0231075D03*
X0240198Y0231075D03*
X0240040Y0231075D03*
X0239883Y0231075D03*
X0239725Y0231075D03*
X0239568Y0231075D03*
X0241457Y0229657D03*
X0241615Y0229657D03*
X0240828Y0228555D03*
X0240828Y0226980D03*
X0240985Y0226980D03*
X0241143Y0226980D03*
X0241300Y0226980D03*
X0241457Y0226980D03*
X0240670Y0226980D03*
X0240513Y0226980D03*
X0240355Y0226980D03*
X0240198Y0226980D03*
X0240040Y0226980D03*
X0239883Y0226980D03*
X0239725Y0226980D03*
D43*
X0321143Y0223283D03*
X0323347Y0232417D03*
X0320985Y0098059D03*
X0310040Y0094122D03*
X0260985Y0097642D03*
X0260828Y0097642D03*
D44*
X0260040Y0097799D03*
X0273347Y0088665D03*
X0270828Y0085043D03*
X0260828Y0085043D03*
X0243347Y0085043D03*
X0239253Y0097012D03*
X0303347Y0095909D03*
X0309410Y0093807D03*
X0311772Y0095067D03*
X0321615Y0098374D03*
X0321772Y0098374D03*
X0329253Y0094650D03*
X0320040Y0084831D03*
X0320198Y0223126D03*
X0320355Y0223126D03*
X0322245Y0223126D03*
X0322402Y0223126D03*
X0322560Y0223126D03*
X0322717Y0223283D03*
X0322875Y0223283D03*
X0323032Y0223441D03*
X0323347Y0228165D03*
X0291300Y0227756D03*
X0291143Y0227756D03*
X0290985Y0227756D03*
X0281300Y0231575D03*
X0271300Y0232047D03*
X0269568Y0223386D03*
X0280828Y0222126D03*
X0280985Y0222126D03*
X0281143Y0222126D03*
X0281300Y0222126D03*
X0281457Y0222126D03*
X0281615Y0222126D03*
X0281772Y0222126D03*
X0250670Y0227701D03*
X0243347Y0223043D03*
X0239253Y0235012D03*
X0249410Y0234945D03*
X0249568Y0234945D03*
X0291300Y0235000D03*
D45*
X0290040Y0232244D03*
X0290198Y0232087D03*
X0292087Y0228307D03*
X0269253Y0223307D03*
X0321300Y0223205D03*
X0323347Y0223835D03*
X0328328Y0193244D03*
X0328800Y0193244D03*
X0329272Y0193244D03*
X0338328Y0193126D03*
X0338800Y0193126D03*
X0339272Y0193126D03*
X0320828Y0098138D03*
X0309883Y0094043D03*
X0260670Y0097720D03*
X0260513Y0097720D03*
X0260670Y0085280D03*
D46*
X0250828Y0085280D03*
X0260198Y0097720D03*
X0260355Y0097720D03*
X0299253Y0091421D03*
X0309568Y0093886D03*
X0320198Y0097823D03*
X0320355Y0097980D03*
X0320513Y0097980D03*
X0321615Y0223047D03*
X0321772Y0223047D03*
X0321930Y0223047D03*
X0322087Y0223047D03*
X0323190Y0223520D03*
X0319410Y0223520D03*
X0319253Y0223677D03*
X0291615Y0227835D03*
X0291457Y0227835D03*
X0269410Y0223307D03*
X0260828Y0223780D03*
X0250513Y0227780D03*
X0249253Y0234866D03*
D47*
X0250040Y0235102D03*
X0250198Y0235102D03*
X0243190Y0235169D03*
X0259253Y0230945D03*
X0260828Y0231890D03*
X0259253Y0227480D03*
X0269883Y0223543D03*
X0271143Y0227480D03*
X0271300Y0227480D03*
X0281143Y0231575D03*
X0280198Y0234882D03*
X0283347Y0234882D03*
X0290513Y0231535D03*
X0290670Y0227756D03*
X0282245Y0222283D03*
X0282087Y0222283D03*
X0280513Y0222283D03*
X0280355Y0222283D03*
X0273347Y0235354D03*
X0241930Y0225720D03*
X0241772Y0225720D03*
X0243190Y0222886D03*
X0320985Y0235409D03*
X0321457Y0235409D03*
X0322087Y0098217D03*
X0322245Y0098217D03*
X0312245Y0094909D03*
X0312087Y0094909D03*
X0309095Y0093650D03*
X0302087Y0094807D03*
X0299410Y0091343D03*
X0299253Y0087563D03*
X0269883Y0096854D03*
X0269725Y0096854D03*
X0259725Y0097799D03*
X0259253Y0097484D03*
X0250828Y0093390D03*
X0249253Y0092445D03*
X0249253Y0088980D03*
X0243190Y0084886D03*
X0241930Y0087720D03*
X0241772Y0087720D03*
X0243190Y0097169D03*
D48*
X0268150Y0089846D03*
X0274450Y0089846D03*
X0312717Y0089476D03*
D49*
X0274292Y0090083D03*
X0268308Y0090083D03*
X0278308Y0229685D03*
X0284292Y0229685D03*
D50*
X0284135Y0229528D03*
X0278465Y0229528D03*
X0318308Y0230055D03*
X0324292Y0230055D03*
X0274135Y0090240D03*
X0268465Y0090240D03*
D51*
X0268623Y0090398D03*
X0273977Y0090398D03*
X0278780Y0229370D03*
X0283820Y0229370D03*
X0318465Y0229898D03*
X0324135Y0229898D03*
D52*
X0283662Y0229291D03*
X0278938Y0229291D03*
X0273820Y0090476D03*
X0268780Y0090476D03*
X0318150Y0090264D03*
X0324450Y0090264D03*
D53*
X0303662Y0090634D03*
X0298938Y0090634D03*
X0273505Y0090634D03*
X0269095Y0090634D03*
X0318780Y0229661D03*
X0323820Y0229661D03*
D54*
X0263347Y0229213D03*
X0273347Y0094492D03*
X0253347Y0090713D03*
D55*
X0272717Y0095909D03*
X0272875Y0095909D03*
X0273032Y0095752D03*
X0273190Y0095752D03*
X0320828Y0223756D03*
D56*
X0321457Y0097508D03*
X0272560Y0095988D03*
X0272402Y0095988D03*
X0272245Y0095988D03*
X0270355Y0095988D03*
X0270198Y0095988D03*
X0270040Y0095988D03*
D57*
X0270513Y0096067D03*
X0270670Y0096067D03*
X0270828Y0096067D03*
X0270985Y0096067D03*
X0271143Y0096067D03*
X0271300Y0096067D03*
X0271457Y0096067D03*
X0271615Y0096067D03*
X0271772Y0096067D03*
X0271930Y0096067D03*
X0272087Y0096067D03*
X0321143Y0097429D03*
X0321300Y0097429D03*
X0320670Y0223913D03*
X0253347Y0228646D03*
D58*
X0291772Y0227913D03*
X0291930Y0228071D03*
X0320513Y0223126D03*
X0321457Y0223126D03*
X0320670Y0098059D03*
X0309725Y0093965D03*
X0270670Y0085201D03*
D59*
X0250828Y0090713D03*
X0250670Y0090713D03*
X0241300Y0090398D03*
X0241143Y0091815D03*
X0290513Y0093362D03*
X0291930Y0093362D03*
X0311930Y0090028D03*
X0319410Y0087350D03*
X0319568Y0087350D03*
X0320670Y0089083D03*
X0320828Y0089083D03*
X0331143Y0089295D03*
X0331300Y0087878D03*
X0204902Y0160000D03*
X0203485Y0159843D03*
X0203587Y0179370D03*
X0203587Y0179528D03*
X0205635Y0188268D03*
X0205635Y0188425D03*
X0201383Y0188425D03*
X0203615Y0199213D03*
X0203615Y0200787D03*
X0205662Y0201417D03*
X0205662Y0201575D03*
X0205662Y0201732D03*
X0212087Y0216795D03*
X0215394Y0216795D03*
X0205788Y0218843D03*
X0199961Y0218055D03*
X0193662Y0216795D03*
X0193981Y0226047D03*
X0197446Y0226047D03*
X0241143Y0229815D03*
X0241300Y0228398D03*
X0260670Y0229213D03*
X0260828Y0229213D03*
X0270513Y0229685D03*
X0272087Y0229685D03*
X0272717Y0227638D03*
X0272875Y0227638D03*
X0273032Y0227638D03*
X0279568Y0227165D03*
X0279725Y0227165D03*
X0279725Y0231417D03*
X0301576Y0225185D03*
X0311576Y0225236D03*
X0320513Y0233047D03*
X0321930Y0233047D03*
D60*
X0313229Y0216772D03*
X0243347Y0231154D03*
X0243347Y0093154D03*
X0308150Y0088531D03*
X0314450Y0088531D03*
D61*
X0312875Y0089398D03*
X0328150Y0089925D03*
X0328308Y0089925D03*
X0328465Y0089925D03*
X0328623Y0089925D03*
X0328780Y0089925D03*
X0328938Y0089925D03*
X0329095Y0089925D03*
X0333347Y0089925D03*
X0333505Y0089925D03*
X0333662Y0089925D03*
X0333820Y0089925D03*
X0333977Y0089925D03*
X0334135Y0089925D03*
X0334292Y0089925D03*
X0334450Y0089925D03*
D62*
X0279969Y0160929D03*
X0279969Y0165181D03*
X0282804Y0165181D03*
X0274064Y0167307D03*
X0274064Y0160929D03*
X0258473Y0161165D03*
X0258473Y0164945D03*
D63*
X0261426Y0165181D03*
X0261426Y0160929D03*
X0268985Y0167307D03*
D64*
X0271229Y0163528D03*
X0270993Y0163291D03*
X0270993Y0163055D03*
X0270993Y0162819D03*
X0271229Y0162583D03*
X0274064Y0162819D03*
X0274064Y0163055D03*
X0274064Y0163291D03*
X0274064Y0165181D03*
X0274064Y0165417D03*
X0274064Y0165654D03*
X0274064Y0165890D03*
X0274064Y0166126D03*
X0274064Y0166362D03*
X0274064Y0166598D03*
X0274064Y0166835D03*
X0274064Y0167071D03*
X0279969Y0164709D03*
X0279969Y0164472D03*
X0279969Y0164236D03*
X0279969Y0164000D03*
X0279969Y0163764D03*
X0279969Y0163528D03*
X0279969Y0163291D03*
X0279969Y0163055D03*
X0279969Y0162819D03*
X0279969Y0162583D03*
X0282804Y0162583D03*
X0282804Y0162819D03*
X0282804Y0163055D03*
X0282804Y0163291D03*
X0282804Y0163528D03*
X0282804Y0163764D03*
X0282804Y0164000D03*
X0282804Y0164236D03*
X0282804Y0164472D03*
X0268394Y0160929D03*
X0266269Y0162583D03*
X0266269Y0162819D03*
X0266269Y0163055D03*
X0266269Y0163291D03*
X0266269Y0163528D03*
X0263198Y0163528D03*
X0263198Y0163291D03*
X0263198Y0163055D03*
X0263198Y0162819D03*
X0261308Y0161402D03*
X0258473Y0161402D03*
X0258473Y0164709D03*
X0261308Y0164709D03*
X0260820Y0141654D03*
X0255032Y0141654D03*
X0255032Y0137244D03*
X0278182Y0141654D03*
X0284520Y0141654D03*
D65*
X0281741Y0160929D03*
X0282922Y0164709D03*
X0282922Y0164945D03*
X0279851Y0164945D03*
X0272292Y0165181D03*
X0268985Y0165181D03*
X0268985Y0164945D03*
X0268985Y0164709D03*
X0268985Y0164472D03*
X0268985Y0164236D03*
X0268985Y0164000D03*
X0268985Y0163764D03*
X0268985Y0163528D03*
X0268985Y0163291D03*
X0268985Y0163055D03*
X0268985Y0162819D03*
X0268985Y0162583D03*
X0268985Y0162346D03*
X0272292Y0160929D03*
X0261426Y0161165D03*
X0261426Y0164945D03*
X0268985Y0165417D03*
X0268985Y0165654D03*
X0268985Y0165890D03*
X0268985Y0166126D03*
X0268985Y0166362D03*
X0268985Y0166598D03*
X0268985Y0166835D03*
X0268985Y0167071D03*
D66*
X0264733Y0165417D03*
D67*
X0264851Y0165181D03*
X0261308Y0164472D03*
X0261072Y0164236D03*
X0261072Y0161874D03*
X0261308Y0161638D03*
X0258709Y0161874D03*
X0258709Y0164236D03*
X0268631Y0162110D03*
X0268394Y0161165D03*
D68*
X0258473Y0160929D03*
X0258473Y0165181D03*
D69*
X0259891Y0163764D03*
X0259891Y0162346D03*
X0273119Y0161165D03*
X0273119Y0164945D03*
X0280914Y0161165D03*
D70*
X0277017Y0163291D03*
X0264733Y0164945D03*
X0264733Y0161165D03*
D71*
X0259891Y0162110D03*
X0259891Y0164000D03*
X0272883Y0164472D03*
X0272883Y0164709D03*
X0272883Y0161402D03*
X0281150Y0161402D03*
X0281150Y0161638D03*
D72*
X0277017Y0162346D03*
X0277017Y0162583D03*
X0277017Y0162819D03*
X0277017Y0163055D03*
X0264733Y0161402D03*
X0264733Y0164709D03*
D73*
X0264733Y0164472D03*
X0264733Y0161638D03*
D74*
X0264733Y0160929D03*
X0263552Y0162346D03*
X0263316Y0162583D03*
X0263552Y0163764D03*
X0266150Y0163764D03*
X0266150Y0162346D03*
X0258591Y0161638D03*
X0258591Y0164472D03*
X0273946Y0163528D03*
X0273946Y0162583D03*
D75*
X0272765Y0161874D03*
X0272765Y0161638D03*
X0272765Y0164236D03*
X0264733Y0164236D03*
X0264733Y0164000D03*
X0264733Y0162110D03*
X0264733Y0161874D03*
X0281269Y0161874D03*
X0281269Y0162110D03*
D76*
X0281387Y0162346D03*
X0272646Y0162346D03*
X0272646Y0162110D03*
X0272646Y0163764D03*
X0272646Y0164000D03*
D77*
X0276898Y0162110D03*
X0259891Y0162583D03*
X0259891Y0163528D03*
D78*
X0259891Y0163291D03*
X0259891Y0162819D03*
D79*
X0260009Y0163055D03*
X0268513Y0161874D03*
X0268513Y0161638D03*
X0268513Y0161402D03*
D80*
X0264851Y0160693D03*
D81*
X0230001Y0104441D03*
X0230001Y0102709D03*
X0221064Y0099795D03*
X0213111Y0105425D03*
D82*
X0221064Y0099717D03*
X0214765Y0084362D03*
X0219725Y0083417D03*
X0219804Y0083496D03*
X0223898Y0081370D03*
D83*
X0218544Y0082157D03*
X0214056Y0078929D03*
X0221064Y0099638D03*
D84*
X0221064Y0099559D03*
X0214843Y0085307D03*
X0217520Y0081449D03*
X0214450Y0079244D03*
X0225709Y0083260D03*
X0225788Y0083339D03*
D85*
X0226576Y0084677D03*
X0226654Y0084835D03*
X0226733Y0084992D03*
X0216969Y0081213D03*
X0214765Y0079559D03*
X0221064Y0099480D03*
D86*
X0221064Y0099402D03*
X0227363Y0086803D03*
X0227284Y0086646D03*
X0227284Y0086567D03*
X0227284Y0086488D03*
X0214843Y0086409D03*
D87*
X0215276Y0080189D03*
X0221024Y0099323D03*
D88*
X0221064Y0099244D03*
X0215473Y0080504D03*
D89*
X0215709Y0080898D03*
X0221064Y0099165D03*
D90*
X0221064Y0099087D03*
D91*
X0221064Y0099008D03*
D92*
X0221064Y0098929D03*
D93*
X0221024Y0098850D03*
D94*
X0221064Y0098772D03*
D95*
X0221064Y0098693D03*
D96*
X0221024Y0098614D03*
D97*
X0221024Y0098535D03*
D98*
X0221064Y0098457D03*
D99*
X0221024Y0098378D03*
D100*
X0221024Y0098299D03*
D101*
X0221024Y0098220D03*
D102*
X0221024Y0098142D03*
D103*
X0221024Y0098063D03*
D104*
X0221064Y0097984D03*
D105*
X0221024Y0097906D03*
D106*
X0221024Y0097827D03*
D107*
X0221064Y0097748D03*
D108*
X0221024Y0097669D03*
D109*
X0221024Y0097591D03*
D110*
X0221024Y0097512D03*
D111*
X0221064Y0097433D03*
D112*
X0221064Y0097354D03*
D113*
X0221064Y0097276D03*
D114*
X0221064Y0097197D03*
D115*
X0221064Y0097118D03*
D116*
X0221064Y0097039D03*
D117*
X0221024Y0096961D03*
D118*
X0221064Y0096882D03*
D119*
X0221064Y0096803D03*
D120*
X0221064Y0096724D03*
D121*
X0221064Y0096646D03*
D122*
X0221064Y0096567D03*
D123*
X0221064Y0096488D03*
D124*
X0221064Y0096409D03*
D125*
X0221024Y0096331D03*
D126*
X0221024Y0096252D03*
D127*
X0221064Y0096173D03*
D128*
X0221064Y0096094D03*
D129*
X0221064Y0096016D03*
D130*
X0221024Y0095937D03*
D131*
X0221064Y0095858D03*
D132*
X0221064Y0095780D03*
D133*
X0221064Y0095701D03*
D134*
X0221024Y0095622D03*
D135*
X0221064Y0095543D03*
D136*
X0221024Y0095465D03*
D137*
X0221024Y0095386D03*
D138*
X0221064Y0095307D03*
D139*
X0221024Y0095228D03*
D140*
X0221024Y0095150D03*
D141*
X0221064Y0095071D03*
D142*
X0221024Y0094992D03*
D143*
X0221064Y0094913D03*
D144*
X0221024Y0094835D03*
D145*
X0221064Y0094756D03*
D146*
X0221064Y0094677D03*
X0221064Y0094598D03*
D147*
X0221024Y0094520D03*
D148*
X0221024Y0094441D03*
D149*
X0221064Y0094362D03*
X0221064Y0094283D03*
D150*
X0221064Y0094205D03*
D151*
X0221024Y0094126D03*
X0221024Y0094047D03*
D152*
X0221064Y0093969D03*
D153*
X0221024Y0093890D03*
D154*
X0221064Y0093811D03*
D155*
X0221024Y0093732D03*
X0221024Y0093654D03*
D156*
X0221064Y0093575D03*
D157*
X0221024Y0093496D03*
D158*
X0221064Y0093417D03*
X0221064Y0093339D03*
D159*
X0221024Y0093260D03*
D160*
X0221064Y0093181D03*
D161*
X0221024Y0093102D03*
X0221024Y0093024D03*
D162*
X0221064Y0092945D03*
X0221064Y0092866D03*
D163*
X0229213Y0092787D03*
X0229292Y0092709D03*
X0229371Y0092394D03*
X0229371Y0092315D03*
X0229371Y0092236D03*
X0229371Y0092157D03*
X0229371Y0087984D03*
X0229371Y0087906D03*
X0229371Y0087827D03*
X0229371Y0087748D03*
X0214646Y0083890D03*
X0213308Y0078535D03*
X0212914Y0087276D03*
X0222127Y0104008D03*
X0222127Y0104087D03*
D164*
X0229450Y0091685D03*
X0229450Y0091606D03*
X0229450Y0091528D03*
X0229450Y0091449D03*
X0229450Y0091370D03*
X0229450Y0091291D03*
X0229450Y0091213D03*
X0229450Y0091134D03*
X0229450Y0091055D03*
X0229450Y0090976D03*
X0229450Y0089165D03*
X0229450Y0089087D03*
X0229450Y0089008D03*
X0229450Y0088929D03*
X0229450Y0088850D03*
X0229450Y0088772D03*
X0229450Y0088693D03*
X0229450Y0088614D03*
X0229450Y0088535D03*
X0229450Y0088457D03*
X0214646Y0083969D03*
X0212835Y0087591D03*
X0212835Y0087669D03*
X0212835Y0087748D03*
X0212835Y0087827D03*
X0212835Y0092315D03*
X0212835Y0092394D03*
X0212835Y0092472D03*
X0212914Y0092787D03*
D165*
X0212875Y0092709D03*
X0212875Y0092630D03*
X0212875Y0092551D03*
X0212875Y0087512D03*
X0212875Y0087433D03*
X0212875Y0087354D03*
X0212954Y0087197D03*
X0229410Y0088063D03*
X0229410Y0088142D03*
X0229410Y0088220D03*
X0229410Y0088299D03*
X0229410Y0088378D03*
X0229410Y0091764D03*
X0229410Y0091843D03*
X0229410Y0091921D03*
X0229410Y0092000D03*
X0229410Y0092079D03*
X0229017Y0101803D03*
D166*
X0229017Y0101724D03*
X0229017Y0105425D03*
X0223702Y0102709D03*
X0222166Y0104165D03*
X0220631Y0102709D03*
X0229331Y0092630D03*
X0229331Y0092551D03*
X0229331Y0092472D03*
X0229331Y0087669D03*
X0229331Y0087591D03*
X0229331Y0087512D03*
X0229331Y0087433D03*
X0229253Y0087197D03*
X0223032Y0080819D03*
D167*
X0223190Y0080898D03*
X0214686Y0084047D03*
X0221221Y0086961D03*
X0221221Y0087039D03*
X0221221Y0087118D03*
X0229489Y0089244D03*
X0229489Y0089323D03*
X0229489Y0089402D03*
X0229489Y0089480D03*
X0229489Y0089559D03*
X0229489Y0089638D03*
X0229489Y0089717D03*
X0229489Y0089795D03*
X0229489Y0089874D03*
X0229489Y0089953D03*
X0229489Y0090031D03*
X0229489Y0090110D03*
X0229489Y0090189D03*
X0229489Y0090268D03*
X0229489Y0090346D03*
X0229489Y0090425D03*
X0229489Y0090504D03*
X0229489Y0090583D03*
X0229489Y0090661D03*
X0229489Y0090740D03*
X0229489Y0090819D03*
X0229489Y0090898D03*
X0212796Y0091843D03*
X0212796Y0091921D03*
X0212796Y0092000D03*
X0212796Y0092079D03*
X0212796Y0092157D03*
X0212796Y0092236D03*
X0212796Y0088299D03*
X0212796Y0088220D03*
X0212796Y0088142D03*
X0212796Y0088063D03*
X0212796Y0087984D03*
X0212796Y0087906D03*
D168*
X0212757Y0088378D03*
X0212757Y0088457D03*
X0212757Y0088535D03*
X0212757Y0088614D03*
X0212757Y0091449D03*
X0212757Y0091528D03*
X0212757Y0091606D03*
X0212757Y0091685D03*
X0212757Y0091764D03*
X0221182Y0086882D03*
X0221182Y0086803D03*
X0221182Y0086724D03*
X0221182Y0086646D03*
X0221103Y0086488D03*
X0221103Y0086409D03*
X0221103Y0086331D03*
X0221024Y0086094D03*
X0223308Y0080976D03*
X0213465Y0078614D03*
D169*
X0214686Y0084126D03*
X0212717Y0088693D03*
X0212717Y0088772D03*
X0212717Y0088850D03*
X0212717Y0088929D03*
X0212717Y0089008D03*
X0212717Y0089087D03*
X0212717Y0089165D03*
X0212717Y0089244D03*
X0212717Y0089323D03*
X0212717Y0089402D03*
X0212717Y0089480D03*
X0212717Y0089559D03*
X0212717Y0089638D03*
X0212717Y0089717D03*
X0212717Y0090425D03*
X0212717Y0090504D03*
X0212717Y0090583D03*
X0212717Y0090661D03*
X0212717Y0090740D03*
X0212717Y0090819D03*
X0212717Y0090898D03*
X0212717Y0090976D03*
X0212717Y0091055D03*
X0212717Y0091134D03*
X0212717Y0091213D03*
X0212717Y0091291D03*
X0212717Y0091370D03*
X0221143Y0086567D03*
X0221064Y0086252D03*
X0221064Y0086173D03*
X0220985Y0086016D03*
X0220985Y0085937D03*
X0220985Y0085858D03*
X0220906Y0085780D03*
X0220906Y0085701D03*
X0220906Y0085622D03*
X0220828Y0085465D03*
D170*
X0216969Y0089087D03*
X0216969Y0090898D03*
X0225394Y0090898D03*
X0225394Y0089087D03*
X0229843Y0102551D03*
X0229922Y0104520D03*
X0222166Y0104992D03*
X0213662Y0102551D03*
X0213190Y0101882D03*
X0213190Y0105228D03*
D171*
X0213229Y0105150D03*
X0213623Y0104598D03*
X0213229Y0101961D03*
X0222127Y0104835D03*
X0222127Y0104913D03*
X0228977Y0105583D03*
X0228977Y0101567D03*
X0225434Y0090819D03*
X0225434Y0090740D03*
X0225434Y0090661D03*
X0225434Y0090583D03*
X0225434Y0090504D03*
X0225434Y0090425D03*
X0225434Y0090346D03*
X0225434Y0090268D03*
X0225434Y0090189D03*
X0225434Y0090110D03*
X0225434Y0090031D03*
X0225434Y0089953D03*
X0225434Y0089874D03*
X0225434Y0089795D03*
X0225434Y0089717D03*
X0225434Y0089638D03*
X0225434Y0089559D03*
X0225434Y0089480D03*
X0225434Y0089402D03*
X0225434Y0089323D03*
X0225434Y0089244D03*
X0225434Y0089165D03*
X0222599Y0089165D03*
X0222599Y0089087D03*
X0222599Y0089244D03*
X0222599Y0089323D03*
X0222599Y0089402D03*
X0222599Y0089480D03*
X0222599Y0089559D03*
X0222599Y0089638D03*
X0222599Y0089717D03*
X0222599Y0089795D03*
X0222599Y0089874D03*
X0222599Y0089953D03*
X0222599Y0090031D03*
X0222599Y0090110D03*
X0222599Y0090189D03*
X0222599Y0090268D03*
X0222599Y0090346D03*
X0222599Y0090425D03*
X0222599Y0090504D03*
X0222599Y0090583D03*
X0222599Y0090661D03*
X0222599Y0090740D03*
X0222599Y0090819D03*
X0222599Y0090898D03*
X0219765Y0090898D03*
X0219765Y0089087D03*
X0216930Y0089165D03*
X0216930Y0089244D03*
X0216930Y0089323D03*
X0216930Y0089402D03*
X0216930Y0089480D03*
X0216930Y0089559D03*
X0216930Y0089638D03*
X0216930Y0089717D03*
X0216930Y0089795D03*
X0216930Y0089874D03*
X0216930Y0089953D03*
X0216930Y0090031D03*
X0216930Y0090110D03*
X0216930Y0090189D03*
X0216930Y0090268D03*
X0216930Y0090346D03*
X0216930Y0090425D03*
X0216930Y0090504D03*
X0216930Y0090583D03*
X0216930Y0090661D03*
X0216930Y0090740D03*
X0216930Y0090819D03*
X0214568Y0083732D03*
D172*
X0222717Y0080661D03*
X0219725Y0089165D03*
X0219725Y0089244D03*
X0219725Y0089323D03*
X0219725Y0089402D03*
X0219725Y0089480D03*
X0219725Y0089559D03*
X0219725Y0089638D03*
X0219725Y0089717D03*
X0219725Y0089795D03*
X0219725Y0089874D03*
X0219725Y0089953D03*
X0219725Y0090031D03*
X0219725Y0090110D03*
X0219725Y0090189D03*
X0219725Y0090268D03*
X0219725Y0090346D03*
X0219725Y0090425D03*
X0219725Y0090504D03*
X0219725Y0090583D03*
X0219725Y0090661D03*
X0219725Y0090740D03*
X0219725Y0090819D03*
X0222166Y0104756D03*
X0229843Y0104598D03*
X0213269Y0105071D03*
D173*
X0212678Y0090346D03*
X0212678Y0090268D03*
X0212678Y0090189D03*
X0212678Y0090110D03*
X0212678Y0090031D03*
X0212678Y0089953D03*
X0212678Y0089874D03*
X0212678Y0089795D03*
X0220867Y0085543D03*
X0220788Y0085386D03*
X0220788Y0085307D03*
X0220709Y0085228D03*
X0220709Y0085150D03*
X0220631Y0084992D03*
X0223465Y0081055D03*
D174*
X0229292Y0087276D03*
X0229292Y0087354D03*
X0223741Y0102551D03*
X0223741Y0102630D03*
X0222127Y0104362D03*
X0220591Y0102630D03*
X0220591Y0102551D03*
X0213387Y0102472D03*
X0213387Y0102394D03*
X0213387Y0104677D03*
X0213387Y0104756D03*
D175*
X0227402Y0087118D03*
X0227402Y0087039D03*
X0227402Y0086961D03*
X0227402Y0086882D03*
X0227324Y0086724D03*
X0214883Y0086488D03*
X0215040Y0079874D03*
D176*
X0214843Y0087039D03*
X0214843Y0087118D03*
D177*
X0214883Y0086961D03*
X0215198Y0080110D03*
D178*
X0215158Y0080031D03*
X0216418Y0081055D03*
X0214843Y0086882D03*
D179*
X0214883Y0086803D03*
X0214883Y0086724D03*
X0214883Y0086646D03*
X0215119Y0079953D03*
D180*
X0214843Y0086567D03*
D181*
X0214883Y0086331D03*
X0214883Y0086252D03*
X0227166Y0086252D03*
X0227166Y0086173D03*
X0227245Y0086331D03*
X0227245Y0086409D03*
X0214961Y0079795D03*
D182*
X0214883Y0086094D03*
X0214883Y0086173D03*
X0226930Y0085465D03*
X0227009Y0085622D03*
X0227009Y0085701D03*
X0227087Y0085858D03*
D183*
X0227048Y0085780D03*
X0227127Y0085937D03*
X0227127Y0086016D03*
X0227127Y0086094D03*
X0216733Y0081134D03*
X0214922Y0079717D03*
D184*
X0214843Y0079638D03*
X0214843Y0086016D03*
X0226891Y0085386D03*
X0226969Y0085543D03*
D185*
X0226851Y0085307D03*
X0226851Y0085228D03*
X0226772Y0085150D03*
X0226772Y0085071D03*
X0214883Y0085937D03*
D186*
X0214883Y0085858D03*
X0214883Y0085780D03*
X0226536Y0084598D03*
X0226615Y0084756D03*
X0226694Y0084913D03*
D187*
X0226497Y0084520D03*
X0226497Y0084441D03*
X0226418Y0084362D03*
X0214843Y0085701D03*
X0214686Y0079480D03*
D188*
X0214607Y0079402D03*
X0226182Y0083890D03*
X0226182Y0083969D03*
X0226261Y0084047D03*
X0214843Y0085543D03*
X0214843Y0085622D03*
D189*
X0214843Y0085465D03*
X0225946Y0083575D03*
X0226024Y0083654D03*
X0226103Y0083811D03*
X0214528Y0079323D03*
D190*
X0225828Y0083417D03*
X0225906Y0083496D03*
X0214883Y0085386D03*
D191*
X0214843Y0085228D03*
X0214843Y0085150D03*
X0225473Y0082945D03*
X0225552Y0083024D03*
X0228426Y0102315D03*
X0228426Y0102394D03*
X0228426Y0104835D03*
X0228426Y0104913D03*
D192*
X0220670Y0085071D03*
X0220591Y0084913D03*
X0220591Y0084835D03*
X0220513Y0084756D03*
X0220513Y0084677D03*
X0220434Y0084598D03*
X0223583Y0081134D03*
D193*
X0225237Y0082630D03*
X0225316Y0082709D03*
X0217914Y0081685D03*
X0214843Y0085071D03*
X0228347Y0105071D03*
X0228347Y0105150D03*
D194*
X0214804Y0084992D03*
X0218032Y0081764D03*
X0214253Y0079087D03*
X0225119Y0082472D03*
X0225198Y0082551D03*
D195*
X0225040Y0082394D03*
X0224961Y0082315D03*
X0224883Y0082236D03*
X0218269Y0081921D03*
X0214804Y0084913D03*
D196*
X0214843Y0084835D03*
X0218387Y0082000D03*
X0218465Y0082079D03*
X0214135Y0079008D03*
D197*
X0224725Y0082079D03*
X0224804Y0082157D03*
X0214804Y0084756D03*
D198*
X0214804Y0084677D03*
X0218662Y0082236D03*
X0218741Y0082315D03*
X0218820Y0082394D03*
X0224568Y0081921D03*
X0224646Y0082000D03*
D199*
X0219056Y0082630D03*
X0218977Y0082551D03*
X0218898Y0082472D03*
X0214804Y0084598D03*
D200*
X0214725Y0084205D03*
X0220237Y0084205D03*
X0220316Y0084283D03*
X0220316Y0084362D03*
X0220394Y0084441D03*
X0220394Y0084520D03*
X0223702Y0081213D03*
D201*
X0224292Y0081685D03*
X0214765Y0084520D03*
X0213898Y0078850D03*
D202*
X0219410Y0083024D03*
X0219489Y0083102D03*
X0224135Y0081528D03*
X0214765Y0084441D03*
D203*
X0217166Y0081291D03*
X0226300Y0084126D03*
X0226300Y0084205D03*
X0226379Y0084283D03*
D204*
X0223780Y0081291D03*
X0219922Y0083654D03*
X0219922Y0083732D03*
X0220001Y0083811D03*
X0219843Y0083575D03*
X0214725Y0084283D03*
D205*
X0220040Y0083890D03*
X0220119Y0083969D03*
X0220119Y0084047D03*
X0220198Y0084126D03*
X0213662Y0078693D03*
D206*
X0214607Y0083811D03*
X0222875Y0080740D03*
X0223702Y0102472D03*
X0222166Y0104441D03*
X0220631Y0102472D03*
X0227245Y0104598D03*
X0229017Y0105504D03*
X0213347Y0104913D03*
X0213347Y0104835D03*
X0213347Y0102315D03*
X0213347Y0102236D03*
D207*
X0217324Y0081370D03*
X0226064Y0083732D03*
D208*
X0212993Y0078457D03*
X0214568Y0083654D03*
X0222520Y0080583D03*
X0213150Y0101803D03*
X0222127Y0105071D03*
X0222127Y0105150D03*
X0222127Y0105228D03*
X0229961Y0102630D03*
D209*
X0228938Y0101488D03*
X0222166Y0105583D03*
X0214528Y0083575D03*
D210*
X0214489Y0083496D03*
X0219922Y0103024D03*
X0224331Y0102945D03*
X0224410Y0103220D03*
D211*
X0214410Y0083417D03*
D212*
X0213780Y0078772D03*
X0219528Y0083181D03*
X0219607Y0083260D03*
X0219686Y0083339D03*
X0224017Y0081449D03*
D213*
X0214371Y0083339D03*
D214*
X0214292Y0083260D03*
D215*
X0217639Y0081528D03*
X0225591Y0083102D03*
X0225670Y0083181D03*
X0228465Y0102472D03*
X0228465Y0104677D03*
X0228465Y0104756D03*
D216*
X0214292Y0083181D03*
D217*
X0219135Y0082709D03*
X0219213Y0082787D03*
X0219292Y0082866D03*
X0219371Y0082945D03*
X0224174Y0081606D03*
D218*
X0225355Y0082787D03*
X0225434Y0082866D03*
X0217796Y0081606D03*
X0214331Y0079165D03*
X0228387Y0102157D03*
X0228387Y0102236D03*
X0228387Y0104992D03*
D219*
X0224450Y0081843D03*
X0224371Y0081764D03*
D220*
X0218150Y0081843D03*
D221*
X0212875Y0081055D03*
D222*
X0215749Y0080976D03*
D223*
X0215670Y0080819D03*
D224*
X0215631Y0080740D03*
D225*
X0215591Y0080661D03*
D226*
X0215552Y0080583D03*
D227*
X0222363Y0080504D03*
X0230040Y0102787D03*
X0230040Y0104362D03*
X0228977Y0105661D03*
X0222127Y0105504D03*
X0222127Y0105425D03*
D228*
X0219961Y0102945D03*
X0222087Y0080425D03*
D229*
X0215434Y0080425D03*
D230*
X0221812Y0080346D03*
D231*
X0215394Y0080346D03*
D232*
X0215316Y0080268D03*
D233*
X0212816Y0101488D03*
X0222776Y0103929D03*
X0222934Y0103378D03*
X0228997Y0105740D03*
D234*
X0226950Y0105740D03*
X0225217Y0105661D03*
X0225139Y0105425D03*
X0225060Y0105228D03*
X0225060Y0105150D03*
X0225060Y0105071D03*
X0224981Y0104992D03*
X0224981Y0104913D03*
X0224981Y0104835D03*
X0224902Y0104677D03*
X0224902Y0104598D03*
X0224824Y0104441D03*
X0224824Y0104362D03*
X0224745Y0104165D03*
X0230217Y0103850D03*
X0230217Y0103299D03*
X0219272Y0105071D03*
X0219194Y0105228D03*
X0219115Y0105504D03*
X0219115Y0105583D03*
X0219036Y0105740D03*
X0217461Y0105740D03*
X0217461Y0105661D03*
X0217461Y0105583D03*
X0217461Y0105504D03*
X0217461Y0105425D03*
X0217461Y0105228D03*
X0217461Y0105150D03*
X0217461Y0105071D03*
X0217461Y0104992D03*
X0217461Y0104913D03*
X0217461Y0104835D03*
X0217461Y0104756D03*
X0217461Y0104677D03*
X0217461Y0104598D03*
X0217461Y0104520D03*
X0217461Y0104441D03*
X0217461Y0104362D03*
X0217461Y0104165D03*
X0217461Y0104087D03*
X0217461Y0104008D03*
X0217461Y0103929D03*
X0217461Y0103850D03*
X0217461Y0103772D03*
X0217461Y0103693D03*
X0217461Y0103614D03*
X0217461Y0103535D03*
X0217461Y0103457D03*
X0217461Y0103378D03*
X0217461Y0103299D03*
X0217461Y0103220D03*
X0217461Y0103024D03*
X0217461Y0102945D03*
X0217461Y0102866D03*
X0217461Y0102787D03*
X0217461Y0102709D03*
X0217461Y0102630D03*
X0217461Y0102551D03*
X0217461Y0102472D03*
X0217461Y0102394D03*
X0217461Y0102315D03*
X0217461Y0102236D03*
X0217461Y0102157D03*
X0217461Y0101961D03*
X0217461Y0101882D03*
X0217461Y0101803D03*
X0217461Y0101724D03*
X0217461Y0101646D03*
X0217461Y0101567D03*
X0217461Y0101488D03*
X0215769Y0101488D03*
X0215769Y0101567D03*
X0215769Y0101646D03*
X0215769Y0101724D03*
X0215769Y0101803D03*
X0215769Y0101882D03*
X0215769Y0101961D03*
X0215769Y0102157D03*
X0215769Y0102236D03*
X0215769Y0102315D03*
X0215769Y0102394D03*
X0215769Y0102472D03*
X0215769Y0102551D03*
X0215769Y0102630D03*
X0215769Y0102709D03*
X0215769Y0102787D03*
X0215769Y0102866D03*
X0215769Y0102945D03*
X0215769Y0103024D03*
X0215769Y0103220D03*
X0215769Y0103299D03*
X0215769Y0103378D03*
X0215769Y0103457D03*
X0215769Y0103535D03*
X0215769Y0103614D03*
X0215769Y0103693D03*
X0215769Y0103772D03*
X0215769Y0103850D03*
X0215769Y0103929D03*
X0215769Y0104008D03*
X0215769Y0104087D03*
X0215769Y0104165D03*
X0215769Y0104362D03*
X0215769Y0104441D03*
X0215769Y0104520D03*
X0215769Y0104598D03*
X0215769Y0104677D03*
X0215769Y0104756D03*
X0215769Y0104835D03*
X0215769Y0104913D03*
X0215769Y0104992D03*
X0215769Y0105071D03*
X0215769Y0105150D03*
X0215769Y0105228D03*
X0215769Y0105425D03*
X0215769Y0105504D03*
X0215769Y0105583D03*
X0215769Y0105661D03*
X0215769Y0105740D03*
X0214036Y0103850D03*
X0214036Y0103772D03*
X0214036Y0103299D03*
D235*
X0213997Y0103220D03*
X0214076Y0103378D03*
X0214076Y0103457D03*
X0214076Y0103535D03*
X0214076Y0103614D03*
X0214076Y0103693D03*
X0213997Y0103929D03*
X0213997Y0104008D03*
X0213997Y0104087D03*
X0213997Y0103024D03*
X0213918Y0102866D03*
X0213013Y0101646D03*
X0213013Y0105504D03*
X0220611Y0101567D03*
X0220611Y0101488D03*
X0223721Y0101488D03*
X0223721Y0101567D03*
X0226910Y0101567D03*
X0226910Y0101646D03*
X0226910Y0101724D03*
X0226910Y0101803D03*
X0226910Y0101488D03*
X0226910Y0101409D03*
X0226910Y0101331D03*
X0226910Y0101252D03*
X0226910Y0101173D03*
X0226910Y0101094D03*
X0226910Y0101016D03*
X0226910Y0100819D03*
X0226910Y0100740D03*
X0226910Y0100661D03*
X0226910Y0100583D03*
X0226910Y0100504D03*
X0226910Y0100425D03*
X0226910Y0100346D03*
X0226910Y0100268D03*
X0226910Y0100189D03*
X0226910Y0100110D03*
X0226910Y0100031D03*
X0226910Y0103378D03*
X0226910Y0103457D03*
X0226910Y0103535D03*
X0226910Y0103614D03*
X0226910Y0103693D03*
X0226910Y0103772D03*
X0226910Y0105425D03*
X0226910Y0105504D03*
X0226910Y0105583D03*
X0226910Y0105661D03*
X0225257Y0105740D03*
X0225178Y0105583D03*
X0225178Y0105504D03*
X0230178Y0104087D03*
X0230178Y0104008D03*
X0230178Y0103929D03*
X0230257Y0103772D03*
X0230257Y0103693D03*
X0230257Y0103614D03*
X0230257Y0103535D03*
X0230257Y0103457D03*
X0230257Y0103378D03*
X0230178Y0103220D03*
X0230178Y0103024D03*
D236*
X0222127Y0105661D03*
X0222127Y0105740D03*
D237*
X0212698Y0105740D03*
D238*
X0212934Y0105583D03*
X0212934Y0101567D03*
X0219548Y0104087D03*
X0219548Y0104165D03*
X0219469Y0104362D03*
X0219469Y0104441D03*
X0219469Y0104520D03*
X0219391Y0104598D03*
X0219391Y0104677D03*
X0219391Y0104756D03*
X0219312Y0104835D03*
X0219312Y0104913D03*
X0219312Y0104992D03*
X0219233Y0105150D03*
X0219154Y0105425D03*
X0219076Y0105661D03*
X0219627Y0103929D03*
X0219706Y0103693D03*
X0224548Y0103614D03*
X0224548Y0103535D03*
X0224627Y0103693D03*
X0224627Y0103772D03*
X0224627Y0103850D03*
X0224706Y0103929D03*
X0224706Y0104008D03*
X0224706Y0104087D03*
X0224863Y0104520D03*
X0224942Y0104756D03*
D239*
X0222816Y0103850D03*
X0222816Y0103772D03*
X0222816Y0103693D03*
X0222894Y0103614D03*
X0222894Y0103535D03*
X0222894Y0103457D03*
X0222973Y0103299D03*
X0222973Y0103220D03*
X0223052Y0103024D03*
X0223052Y0102945D03*
X0221359Y0103299D03*
X0221359Y0103378D03*
X0221359Y0103457D03*
X0221438Y0103614D03*
X0221438Y0103693D03*
X0221517Y0103850D03*
X0221517Y0103929D03*
X0221280Y0103024D03*
X0219863Y0103220D03*
X0212855Y0105661D03*
D240*
X0229017Y0105327D03*
X0287765Y0115890D03*
X0287765Y0116165D03*
X0287765Y0116283D03*
X0287765Y0116362D03*
X0287765Y0116638D03*
X0287765Y0116717D03*
X0287765Y0116835D03*
X0287765Y0117110D03*
D241*
X0230178Y0103122D03*
X0226910Y0100917D03*
X0213997Y0103122D03*
X0213918Y0104264D03*
X0226910Y0105327D03*
D242*
X0225139Y0105327D03*
X0219194Y0105327D03*
X0217461Y0105327D03*
X0217461Y0104264D03*
X0217461Y0103122D03*
X0217461Y0102059D03*
X0215769Y0102059D03*
X0215769Y0103122D03*
X0215769Y0104264D03*
X0215769Y0105327D03*
D243*
X0222127Y0105327D03*
D244*
X0213150Y0105327D03*
D245*
X0228288Y0105228D03*
X0228288Y0101961D03*
D246*
X0228977Y0101646D03*
X0222127Y0104520D03*
X0222127Y0104598D03*
X0222127Y0104677D03*
X0213308Y0104992D03*
X0213308Y0102157D03*
D247*
X0220611Y0102157D03*
X0220611Y0102236D03*
X0220611Y0102315D03*
X0223721Y0102315D03*
X0223721Y0102236D03*
X0223721Y0102157D03*
X0227146Y0102630D03*
X0227146Y0104520D03*
D248*
X0226989Y0104165D03*
X0226989Y0104087D03*
X0226989Y0103024D03*
X0226989Y0102945D03*
X0223721Y0101803D03*
X0223721Y0101724D03*
X0220611Y0101724D03*
X0220611Y0101803D03*
X0213839Y0102709D03*
X0213761Y0102630D03*
X0213839Y0104441D03*
X0213761Y0104520D03*
D249*
X0220611Y0101961D03*
X0220611Y0101882D03*
X0223721Y0101882D03*
X0223721Y0101961D03*
X0227068Y0102709D03*
X0227068Y0104441D03*
D250*
X0227028Y0104362D03*
X0227028Y0102866D03*
X0227028Y0102787D03*
D251*
X0226950Y0103220D03*
X0226950Y0103299D03*
X0226950Y0103850D03*
X0226950Y0103929D03*
X0226950Y0104008D03*
X0230139Y0104165D03*
X0230139Y0102945D03*
X0230139Y0102866D03*
X0223682Y0101646D03*
X0220650Y0101646D03*
X0213957Y0102945D03*
X0213879Y0102787D03*
X0213052Y0101724D03*
X0213957Y0104165D03*
X0213879Y0104362D03*
D252*
X0226950Y0103122D03*
X0230139Y0104264D03*
X0281918Y0116835D03*
D253*
X0227028Y0104264D03*
D254*
X0224784Y0104264D03*
X0283217Y0116165D03*
D255*
X0222127Y0104264D03*
D256*
X0219509Y0104264D03*
D257*
X0219587Y0104008D03*
X0219666Y0103850D03*
X0219666Y0103772D03*
X0219745Y0103614D03*
X0219745Y0103535D03*
X0219824Y0103457D03*
X0219824Y0103378D03*
X0219824Y0103299D03*
X0221241Y0102945D03*
X0221320Y0103220D03*
X0221398Y0103535D03*
X0221477Y0103772D03*
X0224509Y0103457D03*
X0224509Y0103378D03*
D258*
X0224450Y0103299D03*
X0224371Y0103024D03*
D259*
X0224410Y0103122D03*
X0219922Y0103122D03*
D260*
X0223013Y0103122D03*
X0281682Y0116717D03*
X0285225Y0116835D03*
D261*
X0221280Y0103122D03*
D262*
X0220572Y0102866D03*
X0220572Y0102787D03*
X0223761Y0102787D03*
X0223761Y0102866D03*
D263*
X0223761Y0102394D03*
X0220572Y0102394D03*
X0227186Y0102551D03*
D264*
X0228347Y0102059D03*
D265*
X0223721Y0102059D03*
X0220611Y0102059D03*
X0282036Y0117110D03*
X0284044Y0114945D03*
D266*
X0213269Y0102059D03*
D267*
X0228249Y0101882D03*
D268*
X0228957Y0101409D03*
D269*
X0212658Y0101409D03*
D270*
X0308308Y0088610D03*
X0314292Y0088610D03*
D271*
X0314135Y0088768D03*
X0308465Y0088768D03*
D272*
X0308623Y0088846D03*
X0313977Y0088846D03*
D273*
X0312560Y0089555D03*
D274*
X0312402Y0089634D03*
X0318150Y0230291D03*
X0324450Y0230291D03*
X0284450Y0229764D03*
X0278150Y0229764D03*
D275*
X0293347Y0088795D03*
X0308780Y0088925D03*
D276*
X0303977Y0090791D03*
X0298623Y0090791D03*
X0318623Y0090579D03*
X0323977Y0090579D03*
X0323505Y0229504D03*
X0319095Y0229504D03*
D277*
X0273820Y0228898D03*
X0268780Y0228898D03*
X0288150Y0090843D03*
X0294450Y0090843D03*
X0322875Y0091130D03*
D278*
X0322717Y0091209D03*
X0273977Y0228819D03*
X0268623Y0228819D03*
D279*
X0268465Y0228740D03*
X0274135Y0228740D03*
X0322560Y0091287D03*
D280*
X0322402Y0091366D03*
X0274292Y0228661D03*
X0268308Y0228661D03*
D281*
X0292560Y0231693D03*
X0303229Y0217272D03*
X0303347Y0088350D03*
D282*
X0336457Y0197437D03*
X0341143Y0197437D03*
D283*
X0341024Y0197437D03*
X0336576Y0197437D03*
X0326812Y0197083D03*
D284*
X0340926Y0197437D03*
D285*
X0340808Y0197437D03*
D286*
X0340670Y0197437D03*
X0336891Y0197437D03*
D287*
X0337009Y0197437D03*
X0340552Y0197437D03*
D288*
X0340454Y0197437D03*
D289*
X0340355Y0195665D03*
X0346457Y0197909D03*
X0346576Y0197909D03*
X0346694Y0197909D03*
X0346812Y0197909D03*
X0346891Y0197909D03*
X0347009Y0197909D03*
X0347127Y0197909D03*
X0350552Y0197909D03*
X0350670Y0197909D03*
X0351024Y0197909D03*
X0351143Y0197909D03*
X0331143Y0197083D03*
X0326457Y0197083D03*
D290*
X0338465Y0202161D03*
X0340355Y0201689D03*
D291*
X0340217Y0193362D03*
X0330217Y0193480D03*
D292*
X0340217Y0198618D03*
X0348328Y0194720D03*
X0348800Y0194720D03*
X0349272Y0194720D03*
X0349745Y0194720D03*
X0350217Y0199091D03*
X0300749Y0220362D03*
X0300473Y0222567D03*
X0302954Y0227803D03*
X0282717Y0099421D03*
X0279883Y0099421D03*
D293*
X0329883Y0193362D03*
X0330001Y0193362D03*
X0339883Y0193244D03*
X0340001Y0193244D03*
X0340080Y0193362D03*
D294*
X0337993Y0194661D03*
X0337993Y0195961D03*
X0338072Y0195961D03*
X0340080Y0195961D03*
X0347993Y0196433D03*
X0348072Y0196433D03*
X0347993Y0195134D03*
X0348072Y0194189D03*
X0350080Y0196433D03*
X0349607Y0199150D03*
X0349528Y0199150D03*
X0349410Y0199268D03*
X0349017Y0201630D03*
X0348662Y0201630D03*
X0347639Y0201630D03*
X0349883Y0201630D03*
X0329607Y0198795D03*
X0327717Y0195961D03*
X0282028Y0096055D03*
X0280493Y0096055D03*
X0280020Y0096055D03*
X0280572Y0093220D03*
X0280690Y0093220D03*
X0281910Y0093220D03*
X0282028Y0093220D03*
X0281635Y0092039D03*
X0279745Y0090150D03*
D295*
X0280020Y0091626D03*
X0282383Y0091744D03*
X0282501Y0091744D03*
X0282580Y0093516D03*
X0280572Y0094933D03*
X0280965Y0098594D03*
X0282107Y0099067D03*
X0327245Y0195783D03*
X0328583Y0198972D03*
X0330001Y0198854D03*
X0340080Y0198618D03*
X0348938Y0199563D03*
X0349017Y0199563D03*
X0350080Y0199091D03*
D296*
X0347245Y0198559D03*
X0340080Y0201984D03*
X0340001Y0202102D03*
X0339883Y0202102D03*
X0339607Y0202220D03*
X0339410Y0202339D03*
X0339135Y0202339D03*
X0339017Y0202339D03*
X0338938Y0202339D03*
X0338072Y0192654D03*
X0301989Y0212508D03*
X0300611Y0212508D03*
X0309509Y0235433D03*
X0280493Y0098299D03*
D297*
X0280217Y0096114D03*
X0280139Y0096114D03*
X0282107Y0096114D03*
X0282383Y0096114D03*
X0282501Y0096114D03*
X0281635Y0093161D03*
X0281517Y0093161D03*
X0281438Y0093161D03*
X0281162Y0093161D03*
X0281083Y0093161D03*
X0280965Y0093161D03*
X0281438Y0092098D03*
X0281517Y0092098D03*
X0280965Y0091272D03*
X0282107Y0090091D03*
X0282107Y0087374D03*
X0347520Y0194130D03*
X0347993Y0194130D03*
X0348190Y0196492D03*
X0348465Y0196492D03*
X0348583Y0196492D03*
X0348662Y0196492D03*
X0348938Y0196492D03*
X0349017Y0196492D03*
X0349135Y0196492D03*
X0349410Y0196492D03*
X0349528Y0196492D03*
X0349607Y0196492D03*
X0349883Y0196492D03*
X0350001Y0196492D03*
X0340001Y0196020D03*
X0339883Y0196020D03*
X0339607Y0196020D03*
X0339528Y0196020D03*
X0339410Y0196020D03*
X0339135Y0196020D03*
X0339017Y0196020D03*
X0338938Y0196020D03*
X0338662Y0196020D03*
X0338583Y0196020D03*
X0338465Y0196020D03*
X0338190Y0196020D03*
X0338938Y0198736D03*
X0339528Y0198618D03*
X0339607Y0198618D03*
X0347717Y0201689D03*
X0348465Y0201689D03*
X0348583Y0201689D03*
X0349135Y0201689D03*
X0349410Y0201689D03*
X0349528Y0201689D03*
X0349607Y0201689D03*
X0329528Y0198736D03*
X0329528Y0196020D03*
X0329607Y0196020D03*
X0329410Y0196020D03*
X0329135Y0196020D03*
X0329017Y0196020D03*
X0328938Y0196020D03*
X0328662Y0196020D03*
X0328583Y0196020D03*
X0328465Y0196020D03*
X0328190Y0196020D03*
X0328072Y0196020D03*
X0327993Y0196020D03*
X0327993Y0194720D03*
X0329883Y0196020D03*
X0330001Y0196020D03*
X0330080Y0196020D03*
D298*
X0329410Y0197437D03*
X0329135Y0197437D03*
X0329017Y0197437D03*
X0329883Y0198854D03*
X0338938Y0199799D03*
X0339135Y0199917D03*
X0339410Y0199917D03*
X0340001Y0198618D03*
X0339410Y0197319D03*
X0339017Y0197319D03*
X0338938Y0197319D03*
X0348190Y0198854D03*
X0348938Y0197791D03*
X0349017Y0197791D03*
X0349410Y0197791D03*
X0350001Y0199091D03*
X0348072Y0200390D03*
X0302816Y0216425D03*
X0301989Y0216976D03*
X0300335Y0215047D03*
X0300335Y0220441D03*
X0301989Y0222921D03*
X0301989Y0225244D03*
X0300611Y0225953D03*
X0302540Y0227606D03*
X0301162Y0231465D03*
X0300060Y0231031D03*
X0300335Y0232685D03*
X0301438Y0233945D03*
X0310335Y0230138D03*
X0311162Y0228878D03*
X0312265Y0231516D03*
X0311989Y0225177D03*
X0311713Y0222815D03*
X0310335Y0220492D03*
X0282028Y0094933D03*
X0280139Y0093398D03*
X0282107Y0091862D03*
X0281517Y0089854D03*
X0280965Y0089854D03*
X0280965Y0087138D03*
D299*
X0280690Y0091390D03*
X0280572Y0091390D03*
X0280493Y0093280D03*
X0282107Y0093280D03*
X0280493Y0094933D03*
X0280572Y0095996D03*
X0281910Y0095996D03*
X0282580Y0095996D03*
X0346457Y0193303D03*
X0347639Y0196374D03*
X0347717Y0196374D03*
X0351143Y0193303D03*
X0339883Y0198618D03*
X0339528Y0199917D03*
X0337717Y0195902D03*
X0337639Y0195902D03*
X0327639Y0195902D03*
X0346457Y0202516D03*
X0347520Y0201571D03*
X0348938Y0201571D03*
X0350001Y0201571D03*
X0351143Y0202516D03*
D300*
X0339745Y0193185D03*
X0329745Y0193303D03*
D301*
X0329745Y0196020D03*
X0329272Y0196020D03*
X0328800Y0196020D03*
X0328328Y0196020D03*
X0338328Y0196020D03*
X0338800Y0196020D03*
X0339272Y0196020D03*
X0339745Y0196020D03*
X0348328Y0196492D03*
X0348800Y0196492D03*
X0349272Y0196492D03*
X0349745Y0196492D03*
X0349745Y0201689D03*
X0349272Y0201689D03*
X0347855Y0201689D03*
X0282245Y0096114D03*
X0280355Y0096114D03*
X0280828Y0093161D03*
X0281300Y0093161D03*
X0281772Y0093161D03*
X0280355Y0090091D03*
X0279883Y0090209D03*
X0282717Y0087492D03*
D302*
X0339272Y0202339D03*
X0339745Y0202220D03*
X0311300Y0216693D03*
X0302127Y0212508D03*
X0300473Y0212508D03*
D303*
X0329528Y0193303D03*
X0329607Y0193303D03*
X0339528Y0193185D03*
X0339607Y0193185D03*
D304*
X0338072Y0194661D03*
X0337520Y0195843D03*
X0339528Y0197260D03*
X0339017Y0199858D03*
X0347993Y0200449D03*
X0349410Y0200449D03*
X0349528Y0200449D03*
X0350080Y0201512D03*
X0349883Y0199150D03*
X0349528Y0197732D03*
X0347520Y0196315D03*
X0348072Y0195134D03*
X0347245Y0194307D03*
X0329528Y0197378D03*
X0328938Y0197378D03*
X0327520Y0195843D03*
X0328072Y0194780D03*
X0312265Y0218622D03*
X0310335Y0218622D03*
X0302265Y0218571D03*
X0300335Y0218571D03*
X0302265Y0222980D03*
X0312816Y0228819D03*
X0311438Y0231299D03*
X0310335Y0233504D03*
X0302816Y0234004D03*
X0302265Y0234004D03*
X0299784Y0234004D03*
X0300611Y0231248D03*
X0300335Y0229319D03*
X0282383Y0093339D03*
X0282028Y0091921D03*
X0281910Y0091921D03*
X0280493Y0091449D03*
X0281083Y0089913D03*
X0281162Y0089913D03*
X0281438Y0089913D03*
X0281438Y0087197D03*
X0281517Y0087197D03*
X0281162Y0087197D03*
X0281083Y0087197D03*
X0280217Y0093339D03*
D305*
X0280572Y0098240D03*
X0282028Y0098240D03*
X0327245Y0193067D03*
X0328072Y0192713D03*
X0337245Y0192949D03*
X0337993Y0192594D03*
X0327993Y0198264D03*
X0327717Y0198264D03*
X0327639Y0198264D03*
X0327520Y0198264D03*
X0328190Y0201571D03*
X0328465Y0201571D03*
X0328583Y0201571D03*
X0328662Y0201571D03*
X0328938Y0201571D03*
X0329017Y0201571D03*
X0329135Y0201571D03*
X0329410Y0201571D03*
X0339528Y0202280D03*
X0311438Y0216634D03*
X0311162Y0216634D03*
X0302265Y0212567D03*
X0300335Y0212567D03*
X0299509Y0225244D03*
D306*
X0328190Y0193244D03*
X0328465Y0193244D03*
X0328583Y0193244D03*
X0328662Y0193244D03*
X0328938Y0193244D03*
X0329017Y0193244D03*
X0329135Y0193244D03*
X0329410Y0193244D03*
X0338190Y0193126D03*
X0338465Y0193126D03*
X0338583Y0193126D03*
X0338662Y0193126D03*
X0338938Y0193126D03*
X0339017Y0193126D03*
X0339135Y0193126D03*
X0339410Y0193126D03*
D307*
X0347639Y0194071D03*
X0347717Y0194071D03*
X0339410Y0198677D03*
X0339135Y0198677D03*
X0339017Y0198677D03*
X0347993Y0201748D03*
X0348072Y0201748D03*
X0348190Y0201748D03*
X0349607Y0200449D03*
X0329410Y0198677D03*
X0329135Y0198795D03*
X0329017Y0198795D03*
X0281162Y0091213D03*
X0281083Y0091213D03*
X0280217Y0090150D03*
X0280139Y0090150D03*
X0280020Y0090150D03*
X0282383Y0090150D03*
X0282501Y0090150D03*
X0282580Y0090150D03*
X0282580Y0087433D03*
X0282501Y0087433D03*
X0282383Y0087433D03*
D308*
X0282245Y0087433D03*
X0282245Y0090150D03*
X0281300Y0092157D03*
X0347855Y0194071D03*
X0339272Y0198677D03*
X0348328Y0201748D03*
D309*
X0350217Y0201453D03*
X0348328Y0198972D03*
X0347383Y0196256D03*
X0339272Y0199917D03*
X0337383Y0195783D03*
X0329272Y0197437D03*
X0300473Y0216858D03*
X0300198Y0218630D03*
X0301851Y0222921D03*
X0300473Y0224575D03*
X0300473Y0225953D03*
X0299922Y0227606D03*
X0302127Y0229260D03*
X0302127Y0232685D03*
X0302127Y0233945D03*
X0299646Y0233945D03*
X0312127Y0233445D03*
X0312127Y0230138D03*
X0309646Y0228878D03*
X0310473Y0225846D03*
X0310473Y0224626D03*
X0311576Y0222815D03*
X0310198Y0218563D03*
X0280355Y0091508D03*
D310*
X0280217Y0091567D03*
X0280139Y0091567D03*
X0280020Y0093457D03*
X0282501Y0093457D03*
X0279745Y0095937D03*
X0281083Y0098654D03*
X0281162Y0098654D03*
X0281438Y0098654D03*
X0281517Y0098654D03*
X0346576Y0193126D03*
X0351024Y0193126D03*
X0349135Y0197850D03*
X0348190Y0200449D03*
X0347245Y0201394D03*
X0346576Y0202693D03*
X0351024Y0202693D03*
X0339135Y0197378D03*
X0328938Y0199031D03*
X0328662Y0199031D03*
X0311438Y0222756D03*
X0299784Y0227665D03*
D311*
X0300749Y0229240D03*
X0299646Y0231051D03*
X0309646Y0231772D03*
X0310749Y0233425D03*
X0310473Y0235906D03*
X0312127Y0235906D03*
X0309922Y0222402D03*
X0312402Y0221024D03*
X0312678Y0221181D03*
X0302678Y0221130D03*
X0302402Y0220972D03*
X0302127Y0220854D03*
X0300198Y0222508D03*
X0310198Y0216220D03*
X0330217Y0198795D03*
X0338800Y0199268D03*
X0350217Y0194780D03*
D312*
X0338800Y0202280D03*
X0327383Y0198264D03*
D313*
X0328190Y0198795D03*
X0338072Y0198323D03*
X0338583Y0199031D03*
X0338662Y0199150D03*
X0346812Y0202929D03*
X0348583Y0199504D03*
X0346812Y0192890D03*
X0282580Y0099362D03*
X0280020Y0099362D03*
X0279745Y0091685D03*
X0279745Y0084244D03*
X0280020Y0084244D03*
X0280139Y0084244D03*
X0280217Y0084244D03*
X0280493Y0084244D03*
X0280572Y0084244D03*
X0280690Y0084244D03*
X0280965Y0084244D03*
X0281083Y0084244D03*
X0281162Y0084244D03*
X0281438Y0084244D03*
X0281517Y0084244D03*
X0281635Y0084244D03*
X0281910Y0084244D03*
X0282028Y0084244D03*
X0282107Y0084244D03*
X0282383Y0084244D03*
X0282501Y0084244D03*
X0282580Y0084244D03*
D314*
X0327245Y0198264D03*
X0338662Y0202280D03*
D315*
X0338583Y0202220D03*
D316*
X0338465Y0198854D03*
X0330080Y0198854D03*
X0282501Y0099303D03*
X0280139Y0099303D03*
D317*
X0279883Y0093575D03*
X0338328Y0198677D03*
X0348800Y0199504D03*
D318*
X0338328Y0202102D03*
D319*
X0338190Y0198559D03*
X0337245Y0195724D03*
X0328465Y0198913D03*
X0346694Y0202811D03*
X0348662Y0199504D03*
X0349135Y0199622D03*
X0348072Y0198677D03*
X0347245Y0196197D03*
X0346694Y0193008D03*
X0350355Y0201276D03*
X0282383Y0099244D03*
X0280217Y0099244D03*
X0281910Y0094874D03*
X0282580Y0091685D03*
D320*
X0338072Y0201925D03*
X0338190Y0202043D03*
D321*
X0337993Y0197909D03*
X0347639Y0198382D03*
X0347717Y0198382D03*
X0348465Y0199681D03*
X0347520Y0203224D03*
X0350080Y0203224D03*
X0350080Y0192594D03*
X0347520Y0192594D03*
X0280690Y0095287D03*
D322*
X0330080Y0193421D03*
X0337993Y0201807D03*
D323*
X0337717Y0202280D03*
X0337639Y0202280D03*
X0330001Y0201453D03*
X0329883Y0201453D03*
X0327717Y0201453D03*
X0327639Y0201453D03*
X0327520Y0192831D03*
X0327639Y0192713D03*
X0327717Y0192713D03*
X0337520Y0192713D03*
X0337639Y0192594D03*
X0337717Y0192594D03*
X0347993Y0192476D03*
X0348072Y0192476D03*
X0349528Y0192476D03*
X0349607Y0192476D03*
X0349607Y0203343D03*
X0349528Y0203343D03*
X0348072Y0203343D03*
X0347993Y0203343D03*
X0281517Y0095169D03*
X0281438Y0095169D03*
X0281162Y0095169D03*
X0281083Y0095169D03*
X0280965Y0095169D03*
D324*
X0280690Y0089323D03*
X0280572Y0089323D03*
X0280493Y0089323D03*
X0281635Y0089323D03*
X0281910Y0089323D03*
X0282028Y0089323D03*
X0282028Y0086606D03*
X0281910Y0086606D03*
X0281635Y0086606D03*
X0280690Y0086606D03*
X0280572Y0086606D03*
X0280493Y0086606D03*
X0280217Y0086606D03*
X0280139Y0086606D03*
X0280020Y0086606D03*
X0347245Y0192654D03*
X0350355Y0192654D03*
X0347993Y0198323D03*
X0337717Y0197850D03*
X0337639Y0197850D03*
X0337520Y0197850D03*
X0347245Y0203165D03*
X0350355Y0203165D03*
D325*
X0350001Y0203283D03*
X0349883Y0203283D03*
X0347717Y0203283D03*
X0347639Y0203283D03*
X0337520Y0202220D03*
X0337245Y0202102D03*
X0337245Y0197850D03*
X0330080Y0201394D03*
X0327520Y0201394D03*
X0327245Y0201276D03*
X0347520Y0198441D03*
X0347639Y0192535D03*
X0347717Y0192535D03*
X0349883Y0192535D03*
X0350001Y0192535D03*
X0281635Y0098063D03*
X0281635Y0095228D03*
X0279745Y0086606D03*
D326*
X0280828Y0095228D03*
X0281772Y0095228D03*
X0337383Y0202220D03*
D327*
X0337127Y0197437D03*
X0282855Y0089146D03*
D328*
X0330355Y0197083D03*
X0336812Y0197437D03*
D329*
X0336694Y0197437D03*
X0330552Y0197083D03*
X0327009Y0197083D03*
D330*
X0283643Y0092335D03*
X0278957Y0092335D03*
D331*
X0279076Y0092276D03*
X0283524Y0092276D03*
D332*
X0283426Y0092217D03*
D333*
X0283308Y0092157D03*
D334*
X0283170Y0092098D03*
X0279391Y0092098D03*
D335*
X0279509Y0092039D03*
X0283052Y0092039D03*
D336*
X0282954Y0091980D03*
D337*
X0282855Y0097709D03*
D338*
X0282717Y0093634D03*
X0279883Y0091626D03*
X0328328Y0198854D03*
D339*
X0329745Y0198795D03*
X0347383Y0201512D03*
X0349272Y0200331D03*
X0302127Y0216917D03*
X0300198Y0220500D03*
X0302127Y0222980D03*
X0301851Y0225185D03*
X0300749Y0226012D03*
X0311300Y0228819D03*
X0311851Y0225236D03*
X0302402Y0234004D03*
X0282717Y0095937D03*
X0282245Y0093339D03*
X0281300Y0089913D03*
X0281300Y0087197D03*
D340*
X0280355Y0099185D03*
X0282245Y0099185D03*
D341*
X0281910Y0098181D03*
X0280690Y0098181D03*
X0327993Y0192654D03*
X0348190Y0192417D03*
X0348465Y0192417D03*
X0348583Y0192417D03*
X0348662Y0192417D03*
X0348938Y0192417D03*
X0349017Y0192417D03*
X0349135Y0192417D03*
X0349410Y0192417D03*
X0329607Y0201512D03*
X0329528Y0201512D03*
X0328072Y0201512D03*
X0327993Y0201512D03*
X0348190Y0203402D03*
X0348465Y0203402D03*
X0348583Y0203402D03*
X0348662Y0203402D03*
X0348938Y0203402D03*
X0349017Y0203402D03*
X0349135Y0203402D03*
X0349410Y0203402D03*
X0312265Y0213386D03*
X0310335Y0213386D03*
X0309509Y0225236D03*
D342*
X0348800Y0201571D03*
X0349272Y0199327D03*
X0279883Y0095996D03*
X0280355Y0093280D03*
X0281772Y0091980D03*
D343*
X0281300Y0095169D03*
X0280828Y0098122D03*
X0281772Y0098122D03*
X0347855Y0192476D03*
X0349745Y0192476D03*
X0347383Y0198500D03*
X0347855Y0203343D03*
X0349745Y0203343D03*
X0330217Y0201335D03*
X0327383Y0201335D03*
D344*
X0329272Y0198736D03*
X0312678Y0216831D03*
X0311300Y0224272D03*
X0311300Y0226201D03*
X0301300Y0224220D03*
X0281300Y0091154D03*
D345*
X0281162Y0092217D03*
X0299784Y0216780D03*
X0312816Y0216831D03*
D346*
X0347383Y0203224D03*
X0350217Y0203224D03*
X0350217Y0192594D03*
X0347383Y0192594D03*
X0279883Y0086665D03*
D347*
X0279745Y0093634D03*
X0346891Y0192831D03*
X0348190Y0194720D03*
X0348465Y0194720D03*
X0348583Y0194720D03*
X0348662Y0194720D03*
X0348938Y0194720D03*
X0349017Y0194720D03*
X0349135Y0194720D03*
X0349410Y0194720D03*
X0349528Y0194720D03*
X0349607Y0194720D03*
X0349883Y0194720D03*
X0350001Y0194720D03*
X0350670Y0192831D03*
X0350670Y0202988D03*
X0346891Y0202988D03*
X0312816Y0212421D03*
X0300887Y0220362D03*
X0300611Y0222567D03*
X0300335Y0222567D03*
D348*
X0302265Y0220913D03*
X0302816Y0221189D03*
X0309784Y0222343D03*
X0312265Y0220965D03*
X0312816Y0221240D03*
X0312265Y0216280D03*
X0310335Y0216280D03*
X0347127Y0203106D03*
X0328072Y0198618D03*
X0347127Y0192713D03*
X0312265Y0235846D03*
X0279745Y0099421D03*
D349*
X0279627Y0091980D03*
D350*
X0279312Y0092157D03*
D351*
X0279194Y0092217D03*
D352*
X0288308Y0090764D03*
X0294292Y0090764D03*
X0273662Y0228976D03*
X0268938Y0228976D03*
D353*
X0269095Y0229055D03*
X0273505Y0229055D03*
X0288465Y0090685D03*
X0294135Y0090685D03*
D354*
X0326576Y0197083D03*
X0331024Y0197083D03*
D355*
X0330926Y0197083D03*
D356*
X0330808Y0197083D03*
D357*
X0330670Y0197083D03*
X0326891Y0197083D03*
X0309233Y0216004D03*
D358*
X0330454Y0197083D03*
D359*
X0327855Y0198264D03*
X0328328Y0201571D03*
X0328800Y0201571D03*
X0329272Y0201571D03*
X0310198Y0213327D03*
X0312954Y0235492D03*
D360*
X0327127Y0197083D03*
D361*
X0326694Y0197083D03*
D362*
X0350926Y0193008D03*
X0350926Y0202811D03*
D363*
X0350926Y0197909D03*
X0350454Y0197909D03*
D364*
X0350808Y0197909D03*
D365*
X0350080Y0194780D03*
X0350552Y0192772D03*
X0347009Y0192772D03*
X0347009Y0203047D03*
X0350552Y0203047D03*
X0312816Y0218543D03*
X0310887Y0220354D03*
X0312540Y0221181D03*
X0310060Y0222402D03*
X0312540Y0225157D03*
X0302540Y0225264D03*
X0300060Y0222508D03*
X0302540Y0221130D03*
X0302816Y0218650D03*
X0299509Y0227862D03*
X0301713Y0229240D03*
X0300887Y0231878D03*
X0301713Y0233531D03*
X0299509Y0235854D03*
X0310335Y0235906D03*
X0310611Y0235906D03*
X0311989Y0235906D03*
X0311713Y0233425D03*
X0311713Y0230945D03*
X0310887Y0229291D03*
D366*
X0350454Y0203106D03*
X0350454Y0192713D03*
D367*
X0350355Y0197024D03*
D368*
X0281446Y0118843D03*
X0281446Y0114157D03*
D369*
X0281446Y0114276D03*
X0281446Y0118724D03*
D370*
X0281446Y0118626D03*
D371*
X0281446Y0118508D03*
D372*
X0281446Y0118370D03*
X0281446Y0114591D03*
D373*
X0281446Y0114709D03*
X0281446Y0118252D03*
D374*
X0281446Y0118154D03*
D375*
X0285757Y0118055D03*
D376*
X0278316Y0118055D03*
D377*
X0287587Y0117917D03*
X0287587Y0115083D03*
D378*
X0284044Y0117917D03*
X0283099Y0116028D03*
D379*
X0281564Y0117917D03*
D380*
X0281328Y0116028D03*
X0281328Y0115555D03*
X0283690Y0116500D03*
X0283926Y0115555D03*
X0278611Y0115083D03*
X0278611Y0117917D03*
D381*
X0276013Y0117917D03*
D382*
X0275186Y0115417D03*
X0275186Y0115339D03*
X0287587Y0115220D03*
X0287587Y0117780D03*
D383*
X0285166Y0116717D03*
X0285166Y0116638D03*
X0285166Y0116362D03*
X0285166Y0116283D03*
X0285166Y0116165D03*
X0283985Y0117780D03*
D384*
X0282568Y0117228D03*
X0281505Y0117228D03*
X0281505Y0117307D03*
X0281505Y0117780D03*
X0281505Y0116638D03*
X0278906Y0116638D03*
X0278906Y0116717D03*
X0278906Y0116362D03*
X0278906Y0116283D03*
X0283985Y0115339D03*
X0285402Y0117228D03*
D385*
X0283867Y0117228D03*
X0283867Y0117110D03*
X0283749Y0116835D03*
X0283749Y0116717D03*
X0278670Y0117583D03*
X0278670Y0117701D03*
X0278670Y0117780D03*
X0278670Y0115417D03*
X0278670Y0115339D03*
X0278670Y0115220D03*
D386*
X0275894Y0117583D03*
X0275894Y0117701D03*
X0276013Y0117780D03*
D387*
X0287646Y0117701D03*
X0287646Y0117583D03*
X0287646Y0115417D03*
X0287646Y0115339D03*
D388*
X0285284Y0115890D03*
X0285284Y0117110D03*
X0283985Y0117701D03*
X0282686Y0115890D03*
X0281623Y0114945D03*
X0283985Y0115220D03*
D389*
X0283572Y0116362D03*
X0282627Y0115693D03*
X0281446Y0115220D03*
X0281446Y0117583D03*
X0281446Y0117701D03*
X0283926Y0117583D03*
X0285461Y0115693D03*
D390*
X0287706Y0115555D03*
X0287706Y0117445D03*
D391*
X0283926Y0117445D03*
X0281446Y0117445D03*
X0281446Y0116500D03*
D392*
X0283749Y0116972D03*
X0278670Y0117445D03*
X0278670Y0115555D03*
D393*
X0275835Y0115555D03*
X0275835Y0117445D03*
X0209993Y0197953D03*
D394*
X0287706Y0117307D03*
X0287706Y0117228D03*
X0287706Y0115772D03*
X0287706Y0115693D03*
D395*
X0283985Y0115417D03*
X0283749Y0115890D03*
X0283867Y0117307D03*
X0281387Y0116362D03*
X0281387Y0116283D03*
X0281387Y0115417D03*
X0281387Y0115339D03*
X0278670Y0114945D03*
D396*
X0278729Y0117307D03*
X0281328Y0116165D03*
X0281328Y0115890D03*
X0281328Y0115772D03*
X0281328Y0115693D03*
X0282627Y0117307D03*
X0283690Y0116638D03*
X0283808Y0115772D03*
X0283926Y0115693D03*
D397*
X0275835Y0115693D03*
X0275835Y0115772D03*
X0275835Y0117228D03*
X0275835Y0117307D03*
D398*
X0279497Y0117228D03*
X0279497Y0117110D03*
X0279497Y0116835D03*
X0279497Y0115890D03*
X0279497Y0115772D03*
X0279497Y0115693D03*
D399*
X0275776Y0115890D03*
X0275776Y0116165D03*
X0275776Y0116283D03*
X0275776Y0116362D03*
X0275776Y0116638D03*
X0275776Y0116717D03*
X0275776Y0116835D03*
X0275776Y0117110D03*
D400*
X0287765Y0116972D03*
X0287765Y0116500D03*
X0287765Y0116028D03*
D401*
X0285225Y0116028D03*
X0285225Y0116972D03*
D402*
X0282036Y0116972D03*
D403*
X0279497Y0116972D03*
X0279497Y0116028D03*
X0210965Y0159055D03*
X0210965Y0159213D03*
X0210965Y0159370D03*
X0210965Y0160630D03*
X0210965Y0160787D03*
X0210965Y0160945D03*
X0204194Y0161890D03*
X0204194Y0157953D03*
X0197580Y0159055D03*
X0197580Y0159213D03*
X0197580Y0160787D03*
X0197580Y0160945D03*
X0197367Y0178425D03*
X0197367Y0179685D03*
X0197367Y0179843D03*
X0197367Y0180315D03*
X0197367Y0180472D03*
X0197367Y0181260D03*
X0197367Y0181417D03*
X0200989Y0180472D03*
X0203509Y0181260D03*
X0209808Y0181260D03*
X0209808Y0181417D03*
X0209808Y0181102D03*
X0209808Y0180945D03*
X0209808Y0180787D03*
X0209808Y0179370D03*
X0209808Y0178425D03*
X0203509Y0188268D03*
X0197367Y0190000D03*
X0197367Y0190157D03*
X0197367Y0190315D03*
X0197367Y0190787D03*
X0197367Y0190945D03*
X0197367Y0191102D03*
X0200989Y0192047D03*
X0203509Y0191732D03*
X0206371Y0198110D03*
X0206371Y0198583D03*
X0206371Y0198740D03*
X0203536Y0201732D03*
X0197394Y0201102D03*
X0197394Y0200945D03*
X0197394Y0200787D03*
X0197394Y0200630D03*
X0197394Y0200472D03*
X0197394Y0200315D03*
X0197394Y0200157D03*
X0197394Y0200000D03*
X0197394Y0197953D03*
X0210623Y0201732D03*
X0212166Y0217110D03*
X0212166Y0219630D03*
X0200513Y0219630D03*
X0200513Y0217110D03*
X0193583Y0217110D03*
X0193583Y0219630D03*
X0195792Y0223843D03*
X0197052Y0224787D03*
X0194375Y0224787D03*
D404*
X0275776Y0116972D03*
X0275776Y0116500D03*
X0275776Y0116028D03*
D405*
X0285166Y0116500D03*
D406*
X0281505Y0115083D03*
X0278906Y0116500D03*
D407*
X0278965Y0116165D03*
X0282627Y0115772D03*
X0283454Y0116283D03*
X0285343Y0115772D03*
D408*
X0287528Y0114945D03*
X0275363Y0114945D03*
X0275245Y0115220D03*
D409*
X0284044Y0115083D03*
D410*
X0275245Y0115083D03*
D411*
X0281446Y0114827D03*
D412*
X0281446Y0114512D03*
D413*
X0281446Y0114394D03*
D414*
X0254450Y0231323D03*
X0254292Y0231323D03*
X0254135Y0231323D03*
X0253977Y0231323D03*
X0253820Y0231323D03*
X0253662Y0231323D03*
X0253505Y0231323D03*
X0249095Y0231323D03*
X0248938Y0231323D03*
X0248780Y0231323D03*
X0248623Y0231323D03*
X0248465Y0231323D03*
X0248308Y0231323D03*
X0248150Y0231323D03*
D415*
X0288150Y0232717D03*
X0294450Y0232717D03*
D416*
X0294292Y0232638D03*
X0288308Y0232638D03*
D417*
X0288465Y0232480D03*
X0294135Y0232480D03*
D418*
X0293977Y0232402D03*
X0288623Y0232402D03*
D419*
X0292875Y0231850D03*
D420*
X0292717Y0231772D03*
D421*
X0292402Y0231614D03*
D422*
X0288780Y0232323D03*
D423*
X0298544Y0224969D03*
X0304056Y0224969D03*
D424*
X0303918Y0224909D03*
X0298682Y0224909D03*
D425*
X0298820Y0224772D03*
X0303780Y0224772D03*
D426*
X0303643Y0224693D03*
X0298957Y0224693D03*
D427*
X0299095Y0224634D03*
X0303505Y0224634D03*
D428*
X0303367Y0224555D03*
D429*
X0303229Y0229732D03*
D430*
X0303091Y0214634D03*
D431*
X0302540Y0212705D03*
X0300060Y0212705D03*
X0311713Y0216496D03*
X0303091Y0218650D03*
X0303091Y0221130D03*
X0300335Y0225264D03*
X0300060Y0225264D03*
X0299784Y0225264D03*
X0309509Y0231772D03*
X0309784Y0235630D03*
X0313091Y0221181D03*
D432*
X0303091Y0225933D03*
D433*
X0303091Y0230894D03*
X0313091Y0231772D03*
D434*
X0303091Y0234831D03*
D435*
X0310198Y0235846D03*
X0312402Y0235846D03*
X0301851Y0220638D03*
X0301024Y0220362D03*
X0299646Y0212921D03*
X0302954Y0212921D03*
X0312954Y0212421D03*
D436*
X0311851Y0213602D03*
X0310749Y0213602D03*
X0310473Y0216358D03*
X0312127Y0216358D03*
X0302954Y0218630D03*
X0301576Y0220441D03*
X0302954Y0221110D03*
X0299646Y0222370D03*
X0309646Y0222421D03*
X0311576Y0220492D03*
X0311851Y0220610D03*
X0312954Y0221161D03*
X0310749Y0229429D03*
X0311851Y0230807D03*
X0312954Y0231791D03*
X0301851Y0233394D03*
X0300749Y0232016D03*
D437*
X0300749Y0234142D03*
X0301024Y0234142D03*
X0300473Y0234142D03*
X0300198Y0234142D03*
X0311300Y0231437D03*
X0311576Y0228681D03*
X0311851Y0228681D03*
X0312127Y0228681D03*
X0312402Y0228681D03*
X0310473Y0228681D03*
X0309922Y0228681D03*
X0301024Y0226150D03*
X0302678Y0223118D03*
X0302954Y0223118D03*
X0309646Y0220413D03*
X0312954Y0223169D03*
X0312954Y0216831D03*
X0312402Y0216831D03*
X0300198Y0216780D03*
X0299646Y0216780D03*
D438*
X0299646Y0218571D03*
X0299922Y0222429D03*
X0302678Y0225185D03*
X0312678Y0225236D03*
X0312127Y0220827D03*
X0311024Y0220276D03*
X0309646Y0218622D03*
X0312954Y0218622D03*
X0311576Y0213661D03*
X0311300Y0213661D03*
X0311024Y0213661D03*
X0301576Y0229319D03*
X0301300Y0229319D03*
X0301024Y0229319D03*
X0302954Y0230972D03*
X0311024Y0233504D03*
X0311300Y0233504D03*
X0311576Y0233504D03*
D439*
X0312127Y0231437D03*
X0310473Y0230059D03*
X0309922Y0231713D03*
X0302954Y0233866D03*
X0301576Y0222843D03*
X0310473Y0220413D03*
X0301851Y0217055D03*
X0302127Y0215126D03*
X0300198Y0215126D03*
D440*
X0309646Y0216142D03*
X0309922Y0216142D03*
X0310198Y0222480D03*
X0312402Y0225236D03*
X0302402Y0225185D03*
X0301851Y0229319D03*
X0311851Y0233504D03*
X0311851Y0235984D03*
X0311576Y0235984D03*
X0311300Y0235984D03*
X0311024Y0235984D03*
X0310749Y0235984D03*
X0302954Y0235933D03*
X0302678Y0235933D03*
X0302402Y0235933D03*
X0302127Y0235933D03*
X0301851Y0235933D03*
X0301576Y0235933D03*
X0301300Y0235933D03*
X0301024Y0235933D03*
X0300749Y0235933D03*
X0300473Y0235933D03*
X0300198Y0235933D03*
X0299922Y0235933D03*
X0299646Y0235933D03*
D441*
X0310060Y0235768D03*
X0312540Y0235768D03*
X0311989Y0220768D03*
X0301713Y0220559D03*
X0301162Y0220283D03*
X0299509Y0222370D03*
X0309509Y0216201D03*
X0311989Y0216358D03*
X0302816Y0212843D03*
X0299784Y0212843D03*
D442*
X0300060Y0216780D03*
X0299509Y0220362D03*
X0302816Y0223118D03*
X0301162Y0226150D03*
X0310060Y0228681D03*
X0310335Y0228681D03*
X0311713Y0228681D03*
X0311989Y0228681D03*
X0312265Y0228681D03*
X0311162Y0231437D03*
X0300887Y0234142D03*
X0300611Y0234142D03*
X0300335Y0234142D03*
X0300060Y0234142D03*
D443*
X0299509Y0230972D03*
X0311989Y0230748D03*
X0312816Y0225236D03*
X0310335Y0225236D03*
X0310060Y0225236D03*
X0309784Y0225236D03*
X0311713Y0220551D03*
X0311162Y0220276D03*
X0309509Y0218622D03*
X0310611Y0216417D03*
X0313091Y0218622D03*
X0302816Y0225185D03*
X0299509Y0218571D03*
D444*
X0300060Y0218650D03*
X0300611Y0216839D03*
X0301713Y0217114D03*
X0301713Y0215185D03*
X0301989Y0215185D03*
X0299784Y0215185D03*
X0310060Y0218543D03*
X0311162Y0222677D03*
X0301438Y0222783D03*
X0302816Y0227744D03*
X0309509Y0228898D03*
X0310611Y0230000D03*
X0300611Y0232547D03*
D445*
X0302816Y0230972D03*
X0300611Y0229319D03*
X0310611Y0233504D03*
X0310887Y0235984D03*
X0311162Y0235984D03*
X0311438Y0235984D03*
X0311713Y0235984D03*
X0302816Y0235933D03*
X0302540Y0235933D03*
X0302265Y0235933D03*
X0301989Y0235933D03*
X0301713Y0235933D03*
X0301438Y0235933D03*
X0301162Y0235933D03*
X0300887Y0235933D03*
X0300611Y0235933D03*
X0300335Y0235933D03*
X0300060Y0235933D03*
X0299784Y0235933D03*
X0310335Y0222480D03*
X0309784Y0218622D03*
X0309784Y0216142D03*
X0310060Y0216142D03*
X0301162Y0217193D03*
X0299784Y0218571D03*
D446*
X0302402Y0216720D03*
X0302678Y0216563D03*
X0302402Y0223059D03*
X0300749Y0224437D03*
X0302127Y0227469D03*
X0302127Y0231169D03*
X0300473Y0231169D03*
X0300198Y0231051D03*
X0299922Y0234083D03*
X0301300Y0234083D03*
X0302678Y0234083D03*
X0309646Y0227362D03*
X0310749Y0225984D03*
X0310749Y0224488D03*
X0312127Y0222953D03*
X0310198Y0220472D03*
X0312954Y0227362D03*
X0312678Y0228740D03*
D447*
X0310473Y0222539D03*
X0310749Y0220335D03*
X0312678Y0218563D03*
X0302678Y0218630D03*
X0301300Y0217252D03*
X0301024Y0217134D03*
X0299922Y0218630D03*
X0300749Y0222646D03*
X0312678Y0212500D03*
D448*
X0302540Y0216642D03*
X0309509Y0220276D03*
X0310060Y0220551D03*
X0312540Y0223031D03*
X0310887Y0224409D03*
X0311713Y0225236D03*
X0310887Y0226063D03*
X0310887Y0227441D03*
X0311162Y0227441D03*
X0311438Y0227441D03*
X0311713Y0227441D03*
X0311989Y0227441D03*
X0312265Y0227441D03*
X0312540Y0227441D03*
X0312816Y0227441D03*
X0310611Y0227441D03*
X0310335Y0227441D03*
X0310060Y0227441D03*
X0309784Y0227441D03*
X0310611Y0231575D03*
X0310887Y0231575D03*
X0301713Y0231248D03*
X0301713Y0227390D03*
X0301989Y0227390D03*
X0300887Y0227390D03*
X0300611Y0227390D03*
X0301713Y0225185D03*
X0300887Y0224358D03*
X0300060Y0220500D03*
D449*
X0301162Y0222705D03*
X0302265Y0225185D03*
X0312265Y0225236D03*
X0312540Y0218622D03*
X0302540Y0218571D03*
X0301438Y0217193D03*
X0301989Y0229319D03*
X0299784Y0230972D03*
X0311989Y0233504D03*
D450*
X0310335Y0231654D03*
X0312265Y0230118D03*
X0312540Y0228740D03*
X0311438Y0228740D03*
X0310611Y0228740D03*
X0309784Y0228740D03*
X0309509Y0227362D03*
X0302265Y0227469D03*
X0300335Y0227469D03*
X0300887Y0226091D03*
X0302540Y0223059D03*
X0312265Y0222953D03*
X0302265Y0216839D03*
X0301989Y0231169D03*
X0301438Y0231327D03*
X0300335Y0231169D03*
X0302265Y0232705D03*
X0302540Y0234083D03*
X0301162Y0234083D03*
D451*
X0302540Y0231110D03*
X0312540Y0231713D03*
X0301713Y0222843D03*
X0301438Y0215126D03*
X0300060Y0215126D03*
D452*
X0300198Y0212646D03*
X0302402Y0212646D03*
X0311024Y0216555D03*
X0311576Y0216555D03*
X0309646Y0235571D03*
D453*
X0310198Y0231713D03*
X0302402Y0231110D03*
X0301300Y0231386D03*
X0300198Y0227528D03*
X0302402Y0227528D03*
X0311851Y0222894D03*
D454*
X0311989Y0222894D03*
X0310611Y0224547D03*
X0310611Y0225925D03*
X0300611Y0224496D03*
X0300060Y0227528D03*
X0302265Y0231110D03*
X0310060Y0231713D03*
X0300335Y0216780D03*
X0299509Y0216780D03*
D455*
X0300473Y0218571D03*
X0302127Y0218571D03*
X0299922Y0220500D03*
X0301024Y0224358D03*
X0300749Y0227390D03*
X0300473Y0227390D03*
X0301576Y0227390D03*
X0301851Y0227390D03*
X0301851Y0231248D03*
X0301576Y0231248D03*
X0310473Y0231575D03*
X0310749Y0231575D03*
X0310749Y0227441D03*
X0311024Y0227441D03*
X0311300Y0227441D03*
X0311576Y0227441D03*
X0311851Y0227441D03*
X0312127Y0227441D03*
X0312402Y0227441D03*
X0312678Y0227441D03*
X0311024Y0226063D03*
X0310473Y0227441D03*
X0310198Y0227441D03*
X0309922Y0227441D03*
X0312402Y0223031D03*
X0309922Y0220551D03*
X0310473Y0218622D03*
X0312127Y0218622D03*
D456*
X0311989Y0218622D03*
X0310611Y0218622D03*
X0301989Y0218571D03*
X0300611Y0218571D03*
D457*
X0301989Y0220776D03*
X0299784Y0222429D03*
X0300887Y0229319D03*
X0301162Y0229319D03*
X0301438Y0229319D03*
X0310887Y0233504D03*
X0311162Y0233504D03*
X0311438Y0233504D03*
X0311438Y0213661D03*
X0311713Y0213661D03*
X0311162Y0213661D03*
X0310887Y0213661D03*
X0299509Y0213059D03*
D458*
X0310611Y0213524D03*
X0311989Y0213524D03*
X0301438Y0220362D03*
X0309509Y0222343D03*
X0311438Y0220413D03*
X0301989Y0233315D03*
D459*
X0301851Y0212429D03*
X0300749Y0212429D03*
X0309922Y0213189D03*
D460*
X0301713Y0212370D03*
X0301438Y0212370D03*
X0301162Y0212370D03*
X0300887Y0212370D03*
D461*
X0301024Y0212370D03*
X0301300Y0212370D03*
X0301576Y0212370D03*
D462*
X0312540Y0216752D03*
X0309784Y0220492D03*
X0312816Y0223091D03*
X0311162Y0224350D03*
X0311162Y0226122D03*
X0301438Y0227331D03*
X0301162Y0227331D03*
X0301162Y0224299D03*
X0299784Y0220441D03*
D463*
X0299646Y0220441D03*
X0311024Y0224350D03*
X0312678Y0223091D03*
X0310198Y0228602D03*
X0311024Y0231516D03*
X0301300Y0227331D03*
X0301024Y0227331D03*
X0301300Y0226228D03*
X0299922Y0216701D03*
D464*
X0300887Y0216976D03*
X0299509Y0215205D03*
X0312540Y0212618D03*
X0310611Y0222539D03*
X0300887Y0222646D03*
X0312816Y0231791D03*
D465*
X0309784Y0231713D03*
X0299509Y0233866D03*
X0310887Y0222618D03*
X0310611Y0220413D03*
X0300611Y0220362D03*
D466*
X0310749Y0222618D03*
X0299646Y0227803D03*
X0312402Y0212697D03*
D467*
X0299371Y0216445D03*
D468*
X0299233Y0216642D03*
D469*
X0299233Y0228965D03*
D470*
X0308544Y0223583D03*
X0314056Y0223583D03*
D471*
X0313918Y0223642D03*
X0308682Y0223642D03*
D472*
X0308820Y0223720D03*
X0313780Y0223720D03*
D473*
X0313643Y0223780D03*
X0308957Y0223780D03*
D474*
X0309095Y0223858D03*
X0313505Y0223858D03*
D475*
X0313367Y0223917D03*
D476*
X0313229Y0229705D03*
D477*
X0313091Y0214272D03*
D478*
X0313091Y0226339D03*
D479*
X0313091Y0235217D03*
D480*
X0312816Y0235571D03*
X0310887Y0216555D03*
D481*
X0310060Y0213248D03*
D482*
X0309784Y0213110D03*
D483*
X0309646Y0213051D03*
D484*
X0309509Y0213031D03*
D485*
X0309371Y0215945D03*
D486*
X0309233Y0228957D03*
D487*
X0265469Y0188803D02*
X0265666Y0188528D01*
X0265784Y0188173D01*
X0265784Y0187858D01*
X0265706Y0187504D01*
X0265509Y0187150D01*
X0265233Y0186835D01*
X0264918Y0186480D01*
X0264643Y0186165D01*
X0264524Y0185890D01*
X0264524Y0185614D01*
X0264603Y0185378D01*
X0264761Y0185181D01*
X0264997Y0185024D01*
X0265312Y0184945D01*
X0265627Y0184945D01*
X0265824Y0184984D01*
X0266020Y0185063D01*
X0266139Y0185142D01*
X0266257Y0185260D01*
X0266335Y0185417D01*
X0266375Y0185535D01*
X0266375Y0185654D01*
X0266335Y0185772D01*
X0266257Y0185890D01*
X0266099Y0186047D01*
X0265981Y0186087D01*
X0265824Y0186165D01*
X0265784Y0186205D01*
X0265863Y0186244D01*
X0265942Y0186244D01*
X0266099Y0186283D01*
X0266414Y0186283D01*
X0266650Y0186244D01*
X0267044Y0186087D01*
X0267202Y0185969D01*
X0267398Y0185850D01*
X0267517Y0185654D01*
X0267635Y0185417D01*
X0267713Y0185181D01*
X0267792Y0184472D01*
X0267792Y0179433D01*
X0267753Y0179433D01*
X0267674Y0179551D01*
X0267556Y0179669D01*
X0267438Y0179827D01*
X0267241Y0180024D01*
X0267044Y0180260D01*
X0266808Y0180496D01*
X0266611Y0180772D01*
X0266099Y0181283D01*
X0265902Y0181520D01*
X0265509Y0181835D01*
X0265312Y0181953D01*
X0265076Y0181992D01*
X0264328Y0181992D01*
X0263855Y0182071D01*
X0263422Y0182189D01*
X0263028Y0182346D01*
X0262635Y0182583D01*
X0262320Y0182858D01*
X0262005Y0183173D01*
X0261729Y0183528D01*
X0261335Y0184236D01*
X0261139Y0184945D01*
X0261099Y0185654D01*
X0261217Y0186283D01*
X0261414Y0186835D01*
X0261690Y0187307D01*
X0262005Y0187661D01*
X0262320Y0187819D01*
X0262320Y0187504D01*
X0262398Y0187268D01*
X0262517Y0187189D01*
X0262635Y0187150D01*
X0262910Y0187150D01*
X0263225Y0187307D01*
X0263343Y0187386D01*
X0263501Y0187504D01*
X0263619Y0187583D01*
X0263737Y0187701D01*
X0263816Y0187858D01*
X0263894Y0187976D01*
X0263934Y0188134D01*
X0263973Y0188252D01*
X0263934Y0188370D01*
X0263894Y0188449D01*
X0263855Y0188567D01*
X0263776Y0188685D01*
X0263619Y0188803D01*
X0263461Y0188882D01*
X0263265Y0188921D01*
X0263107Y0188961D01*
X0262989Y0188961D01*
X0262871Y0188921D01*
X0262753Y0188921D01*
X0262792Y0188961D01*
X0262950Y0189079D01*
X0263186Y0189197D01*
X0263501Y0189315D01*
X0263855Y0189433D01*
X0264249Y0189433D01*
X0264682Y0189354D01*
X0265115Y0189118D01*
X0265469Y0188803D01*
X0265520Y0188733D02*
X0263713Y0188733D01*
X0263902Y0188434D02*
X0265697Y0188434D01*
X0265784Y0188136D02*
X0263934Y0188136D01*
X0263805Y0187837D02*
X0265780Y0187837D01*
X0265713Y0187539D02*
X0263553Y0187539D01*
X0263092Y0187240D02*
X0265559Y0187240D01*
X0265327Y0186942D02*
X0261477Y0186942D01*
X0261346Y0186643D02*
X0265063Y0186643D01*
X0264799Y0186345D02*
X0261239Y0186345D01*
X0261173Y0186046D02*
X0264591Y0186046D01*
X0264524Y0185748D02*
X0261117Y0185748D01*
X0261111Y0185449D02*
X0264579Y0185449D01*
X0264806Y0185151D02*
X0261127Y0185151D01*
X0261164Y0184852D02*
X0267750Y0184852D01*
X0267783Y0184554D02*
X0261247Y0184554D01*
X0261330Y0184255D02*
X0267792Y0184255D01*
X0267792Y0183957D02*
X0261491Y0183957D01*
X0261657Y0183658D02*
X0267792Y0183658D01*
X0267792Y0183360D02*
X0261860Y0183360D01*
X0262117Y0183061D02*
X0267792Y0183061D01*
X0267792Y0182763D02*
X0262429Y0182763D01*
X0262832Y0182464D02*
X0267792Y0182464D01*
X0267792Y0182166D02*
X0263508Y0182166D01*
X0263068Y0180378D02*
X0261926Y0180378D01*
X0261847Y0180339D01*
X0261847Y0179236D01*
X0262517Y0179236D01*
X0262674Y0179197D01*
X0262831Y0179118D01*
X0262910Y0179000D01*
X0262950Y0178921D01*
X0262950Y0178764D01*
X0262989Y0178606D01*
X0262989Y0178291D01*
X0261926Y0178291D01*
X0261926Y0177268D01*
X0262989Y0177268D01*
X0262989Y0172701D01*
X0264485Y0172701D01*
X0264485Y0177268D01*
X0266020Y0177268D01*
X0265863Y0177386D01*
X0265233Y0178016D01*
X0265076Y0178134D01*
X0264957Y0178291D01*
X0264485Y0178291D01*
X0264485Y0179079D01*
X0264367Y0179394D01*
X0264249Y0179669D01*
X0264052Y0179906D01*
X0263776Y0180102D01*
X0263461Y0180260D01*
X0263068Y0180378D01*
X0263079Y0180374D02*
X0261919Y0180374D01*
X0261847Y0180076D02*
X0263813Y0180076D01*
X0264159Y0179777D02*
X0261847Y0179777D01*
X0261847Y0179479D02*
X0264330Y0179479D01*
X0264447Y0179180D02*
X0262707Y0179180D01*
X0262950Y0178882D02*
X0264485Y0178882D01*
X0264485Y0178583D02*
X0262989Y0178583D01*
X0261926Y0178285D02*
X0264962Y0178285D01*
X0265262Y0177986D02*
X0261926Y0177986D01*
X0261926Y0177688D02*
X0265561Y0177688D01*
X0265859Y0177389D02*
X0261926Y0177389D01*
X0261454Y0177389D02*
X0259957Y0177389D01*
X0259957Y0177091D02*
X0261454Y0177091D01*
X0261454Y0176792D02*
X0259957Y0176792D01*
X0259957Y0176494D02*
X0261454Y0176494D01*
X0261454Y0176195D02*
X0259957Y0176195D01*
X0259957Y0175897D02*
X0261454Y0175897D01*
X0261454Y0175598D02*
X0259957Y0175598D01*
X0259957Y0175300D02*
X0261454Y0175300D01*
X0261454Y0175001D02*
X0259940Y0175001D01*
X0259957Y0175142D02*
X0259879Y0174512D01*
X0259839Y0174276D01*
X0259603Y0173961D01*
X0259406Y0173843D01*
X0259209Y0173803D01*
X0258973Y0173764D01*
X0258658Y0173803D01*
X0258422Y0173843D01*
X0258225Y0173961D01*
X0258068Y0174118D01*
X0257950Y0174354D01*
X0257831Y0174630D01*
X0257792Y0174945D01*
X0257792Y0178291D01*
X0256257Y0178291D01*
X0256257Y0172701D01*
X0257713Y0172701D01*
X0257713Y0173488D01*
X0257753Y0173488D01*
X0257910Y0173252D01*
X0258068Y0173055D01*
X0258265Y0172898D01*
X0258501Y0172780D01*
X0258698Y0172701D01*
X0258934Y0172622D01*
X0259209Y0172583D01*
X0259446Y0172543D01*
X0259997Y0172583D01*
X0260430Y0172740D01*
X0260784Y0172937D01*
X0261060Y0173173D01*
X0261257Y0173528D01*
X0261375Y0173921D01*
X0261454Y0174354D01*
X0261454Y0178291D01*
X0259957Y0178291D01*
X0259957Y0175142D01*
X0259903Y0174703D02*
X0261454Y0174703D01*
X0261454Y0174404D02*
X0259861Y0174404D01*
X0259712Y0174106D02*
X0261408Y0174106D01*
X0261341Y0173807D02*
X0259230Y0173807D01*
X0258634Y0173807D02*
X0256257Y0173807D01*
X0256257Y0173509D02*
X0261246Y0173509D01*
X0261080Y0173210D02*
X0257944Y0173210D01*
X0257713Y0173210D02*
X0256257Y0173210D01*
X0256257Y0172912D02*
X0257713Y0172912D01*
X0258247Y0172912D02*
X0260739Y0172912D01*
X0260081Y0172613D02*
X0258996Y0172613D01*
X0258080Y0174106D02*
X0256257Y0174106D01*
X0256257Y0174404D02*
X0257928Y0174404D01*
X0257822Y0174703D02*
X0256257Y0174703D01*
X0256257Y0175001D02*
X0257792Y0175001D01*
X0257792Y0175300D02*
X0256257Y0175300D01*
X0256257Y0175598D02*
X0257792Y0175598D01*
X0257792Y0175897D02*
X0256257Y0175897D01*
X0256257Y0176195D02*
X0257792Y0176195D01*
X0257792Y0176494D02*
X0256257Y0176494D01*
X0256257Y0176792D02*
X0257792Y0176792D01*
X0257792Y0177091D02*
X0256257Y0177091D01*
X0256257Y0177389D02*
X0257792Y0177389D01*
X0257792Y0177688D02*
X0256257Y0177688D01*
X0256257Y0177986D02*
X0257792Y0177986D01*
X0257792Y0178285D02*
X0256257Y0178285D01*
X0255430Y0178285D02*
X0253973Y0178285D01*
X0253973Y0178291D02*
X0253973Y0177504D01*
X0253934Y0177504D01*
X0253776Y0177740D01*
X0253619Y0177898D01*
X0253422Y0178055D01*
X0253186Y0178213D01*
X0252713Y0178370D01*
X0252477Y0178409D01*
X0252241Y0178409D01*
X0251690Y0178370D01*
X0251257Y0178252D01*
X0250902Y0178055D01*
X0250627Y0177780D01*
X0250430Y0177465D01*
X0250312Y0177071D01*
X0250233Y0176638D01*
X0250194Y0176126D01*
X0250194Y0172701D01*
X0251729Y0172701D01*
X0251729Y0175850D01*
X0251769Y0176165D01*
X0251808Y0176441D01*
X0251847Y0176677D01*
X0251965Y0176874D01*
X0252083Y0177031D01*
X0252280Y0177150D01*
X0252477Y0177189D01*
X0252713Y0177228D01*
X0253028Y0177189D01*
X0253265Y0177150D01*
X0253461Y0177031D01*
X0253619Y0176835D01*
X0253737Y0176638D01*
X0253855Y0176362D01*
X0253894Y0176008D01*
X0253894Y0172701D01*
X0255430Y0172701D01*
X0255430Y0178291D01*
X0253973Y0178291D01*
X0253973Y0177986D02*
X0255430Y0177986D01*
X0255430Y0177688D02*
X0253973Y0177688D01*
X0253811Y0177688D02*
X0250570Y0177688D01*
X0250407Y0177389D02*
X0255430Y0177389D01*
X0255430Y0177091D02*
X0253362Y0177091D01*
X0253644Y0176792D02*
X0255430Y0176792D01*
X0255430Y0176494D02*
X0253799Y0176494D01*
X0253874Y0176195D02*
X0255430Y0176195D01*
X0255430Y0175897D02*
X0253894Y0175897D01*
X0253894Y0175598D02*
X0255430Y0175598D01*
X0255430Y0175300D02*
X0253894Y0175300D01*
X0253894Y0175001D02*
X0255430Y0175001D01*
X0255430Y0174703D02*
X0253894Y0174703D01*
X0253894Y0174404D02*
X0255430Y0174404D01*
X0255430Y0174106D02*
X0253894Y0174106D01*
X0253894Y0173807D02*
X0255430Y0173807D01*
X0255430Y0173509D02*
X0253894Y0173509D01*
X0253894Y0173210D02*
X0255430Y0173210D01*
X0255430Y0172912D02*
X0253894Y0172912D01*
X0251729Y0172912D02*
X0250194Y0172912D01*
X0250194Y0173210D02*
X0251729Y0173210D01*
X0251729Y0173509D02*
X0250194Y0173509D01*
X0250194Y0173807D02*
X0251729Y0173807D01*
X0251729Y0174106D02*
X0250194Y0174106D01*
X0250194Y0174404D02*
X0251729Y0174404D01*
X0251729Y0174703D02*
X0250194Y0174703D01*
X0250194Y0175001D02*
X0251729Y0175001D01*
X0251729Y0175300D02*
X0250194Y0175300D01*
X0250194Y0175598D02*
X0251729Y0175598D01*
X0251735Y0175897D02*
X0250194Y0175897D01*
X0250199Y0176195D02*
X0251773Y0176195D01*
X0251817Y0176494D02*
X0250222Y0176494D01*
X0250261Y0176792D02*
X0251916Y0176792D01*
X0252182Y0177091D02*
X0250318Y0177091D01*
X0250834Y0177986D02*
X0253508Y0177986D01*
X0252969Y0178285D02*
X0251378Y0178285D01*
X0259957Y0178285D02*
X0261454Y0178285D01*
X0261454Y0177986D02*
X0259957Y0177986D01*
X0259957Y0177688D02*
X0261454Y0177688D01*
X0262989Y0177091D02*
X0264485Y0177091D01*
X0264485Y0176792D02*
X0262989Y0176792D01*
X0262989Y0176494D02*
X0264485Y0176494D01*
X0264485Y0176195D02*
X0262989Y0176195D01*
X0262989Y0175897D02*
X0264485Y0175897D01*
X0264485Y0175598D02*
X0262989Y0175598D01*
X0262989Y0175300D02*
X0264485Y0175300D01*
X0264485Y0175001D02*
X0262989Y0175001D01*
X0262989Y0174703D02*
X0264485Y0174703D01*
X0264485Y0174404D02*
X0262989Y0174404D01*
X0262989Y0174106D02*
X0264485Y0174106D01*
X0264485Y0173807D02*
X0262989Y0173807D01*
X0262989Y0173509D02*
X0264485Y0173509D01*
X0264485Y0173210D02*
X0262989Y0173210D01*
X0262989Y0172912D02*
X0264485Y0172912D01*
X0265430Y0172701D02*
X0267280Y0172701D01*
X0268816Y0175181D01*
X0269406Y0174630D01*
X0269406Y0172701D01*
X0270942Y0172701D01*
X0270942Y0179551D01*
X0269406Y0180378D01*
X0269406Y0176283D01*
X0267477Y0178291D01*
X0265666Y0178291D01*
X0267753Y0176244D01*
X0265430Y0172701D01*
X0265568Y0172912D02*
X0267411Y0172912D01*
X0267596Y0173210D02*
X0265764Y0173210D01*
X0265960Y0173509D02*
X0267780Y0173509D01*
X0267965Y0173807D02*
X0266155Y0173807D01*
X0266351Y0174106D02*
X0268150Y0174106D01*
X0268335Y0174404D02*
X0266547Y0174404D01*
X0266742Y0174703D02*
X0268520Y0174703D01*
X0268704Y0175001D02*
X0266938Y0175001D01*
X0267134Y0175300D02*
X0270942Y0175300D01*
X0270942Y0175598D02*
X0267329Y0175598D01*
X0267525Y0175897D02*
X0270942Y0175897D01*
X0270942Y0176195D02*
X0267721Y0176195D01*
X0267498Y0176494D02*
X0269204Y0176494D01*
X0269406Y0176494D02*
X0270942Y0176494D01*
X0270942Y0176792D02*
X0269406Y0176792D01*
X0269406Y0177091D02*
X0270942Y0177091D01*
X0270942Y0177389D02*
X0269406Y0177389D01*
X0269406Y0177688D02*
X0270942Y0177688D01*
X0270942Y0177986D02*
X0269406Y0177986D01*
X0269406Y0178285D02*
X0270942Y0178285D01*
X0270942Y0178583D02*
X0269406Y0178583D01*
X0269406Y0178882D02*
X0270942Y0178882D01*
X0270942Y0179180D02*
X0269406Y0179180D01*
X0269406Y0179479D02*
X0270942Y0179479D01*
X0270521Y0179777D02*
X0269406Y0179777D01*
X0269406Y0180076D02*
X0269967Y0180076D01*
X0269413Y0180374D02*
X0269406Y0180374D01*
X0267792Y0180374D02*
X0266929Y0180374D01*
X0266681Y0180673D02*
X0267792Y0180673D01*
X0267792Y0180972D02*
X0266411Y0180972D01*
X0266113Y0181270D02*
X0267792Y0181270D01*
X0267792Y0181569D02*
X0265841Y0181569D01*
X0265455Y0181867D02*
X0267792Y0181867D01*
X0267792Y0180076D02*
X0267197Y0180076D01*
X0267475Y0179777D02*
X0267792Y0179777D01*
X0267792Y0179479D02*
X0267722Y0179479D01*
X0267483Y0178285D02*
X0265673Y0178285D01*
X0265977Y0177986D02*
X0267770Y0177986D01*
X0268057Y0177688D02*
X0266281Y0177688D01*
X0266585Y0177389D02*
X0268344Y0177389D01*
X0268631Y0177091D02*
X0266890Y0177091D01*
X0267194Y0176792D02*
X0268917Y0176792D01*
X0269008Y0175001D02*
X0270942Y0175001D01*
X0270942Y0174703D02*
X0269328Y0174703D01*
X0269406Y0174404D02*
X0270942Y0174404D01*
X0270942Y0174106D02*
X0269406Y0174106D01*
X0269406Y0173807D02*
X0270942Y0173807D01*
X0270942Y0173509D02*
X0269406Y0173509D01*
X0269406Y0173210D02*
X0270942Y0173210D01*
X0270942Y0172912D02*
X0269406Y0172912D01*
X0273580Y0172912D02*
X0275115Y0172912D01*
X0275115Y0172701D02*
X0275115Y0178016D01*
X0274918Y0178055D01*
X0274761Y0178094D01*
X0274564Y0178094D01*
X0274367Y0178134D01*
X0274209Y0178173D01*
X0273816Y0178252D01*
X0273658Y0178291D01*
X0273658Y0177228D01*
X0273501Y0177504D01*
X0273343Y0177701D01*
X0273146Y0177937D01*
X0272950Y0178094D01*
X0272674Y0178252D01*
X0272438Y0178331D01*
X0272162Y0178409D01*
X0271611Y0178409D01*
X0271572Y0178370D01*
X0271532Y0178370D01*
X0271532Y0176953D01*
X0271572Y0176953D01*
X0271650Y0176992D01*
X0272083Y0176992D01*
X0272477Y0176953D01*
X0272792Y0176874D01*
X0273068Y0176717D01*
X0273265Y0176480D01*
X0273422Y0176205D01*
X0273501Y0175929D01*
X0273580Y0175575D01*
X0273580Y0172701D01*
X0275115Y0172701D01*
X0275115Y0173210D02*
X0273580Y0173210D01*
X0273580Y0173509D02*
X0275115Y0173509D01*
X0275115Y0173807D02*
X0273580Y0173807D01*
X0273580Y0174106D02*
X0275115Y0174106D01*
X0275115Y0174404D02*
X0273580Y0174404D01*
X0273580Y0174703D02*
X0275115Y0174703D01*
X0275115Y0175001D02*
X0273580Y0175001D01*
X0273580Y0175300D02*
X0275115Y0175300D01*
X0275115Y0175598D02*
X0273574Y0175598D01*
X0273508Y0175897D02*
X0275115Y0175897D01*
X0275115Y0176195D02*
X0273425Y0176195D01*
X0273253Y0176494D02*
X0275115Y0176494D01*
X0275115Y0176792D02*
X0272935Y0176792D01*
X0273566Y0177389D02*
X0271532Y0177389D01*
X0271532Y0177091D02*
X0275115Y0177091D01*
X0275115Y0177389D02*
X0273658Y0177389D01*
X0273658Y0177688D02*
X0275115Y0177688D01*
X0275115Y0177986D02*
X0273658Y0177986D01*
X0273658Y0178285D02*
X0273684Y0178285D01*
X0273085Y0177986D02*
X0271532Y0177986D01*
X0271532Y0177688D02*
X0273354Y0177688D01*
X0272575Y0178285D02*
X0271532Y0178285D01*
X0276020Y0177268D02*
X0275981Y0177071D01*
X0275981Y0173646D01*
X0275942Y0173567D01*
X0275942Y0173213D01*
X0275902Y0173134D01*
X0275902Y0173055D01*
X0275863Y0172976D01*
X0275863Y0172858D01*
X0275824Y0172780D01*
X0275784Y0172740D01*
X0275784Y0172701D01*
X0277320Y0172701D01*
X0277320Y0172740D01*
X0277359Y0172780D01*
X0277359Y0172819D01*
X0277398Y0172858D01*
X0277398Y0172976D01*
X0277438Y0173016D01*
X0277438Y0173252D01*
X0277517Y0173134D01*
X0277635Y0173055D01*
X0277713Y0172976D01*
X0277831Y0172898D01*
X0277950Y0172858D01*
X0278068Y0172780D01*
X0278540Y0172622D01*
X0278658Y0172622D01*
X0278776Y0172583D01*
X0278934Y0172583D01*
X0279052Y0172543D01*
X0279485Y0172543D01*
X0279682Y0172583D01*
X0279879Y0172583D01*
X0280036Y0172622D01*
X0280233Y0172701D01*
X0280391Y0172780D01*
X0280509Y0172858D01*
X0280666Y0172937D01*
X0280784Y0173055D01*
X0280863Y0173173D01*
X0280981Y0173331D01*
X0281060Y0173449D01*
X0281099Y0173646D01*
X0281178Y0173803D01*
X0281178Y0174000D01*
X0281217Y0174197D01*
X0281139Y0174630D01*
X0281020Y0174984D01*
X0280863Y0175260D01*
X0280587Y0175496D01*
X0280312Y0175654D01*
X0279997Y0175772D01*
X0279682Y0175850D01*
X0279328Y0175890D01*
X0279013Y0175063D01*
X0279131Y0175024D01*
X0279209Y0174984D01*
X0279249Y0174945D01*
X0279406Y0174866D01*
X0279446Y0174827D01*
X0279524Y0174787D01*
X0279643Y0174551D01*
X0279643Y0174472D01*
X0279682Y0174394D01*
X0279682Y0174197D01*
X0279643Y0174079D01*
X0279643Y0174000D01*
X0279603Y0173921D01*
X0279564Y0173882D01*
X0279524Y0173803D01*
X0279446Y0173764D01*
X0279406Y0173724D01*
X0279249Y0173646D01*
X0279170Y0173646D01*
X0279091Y0173606D01*
X0279013Y0173606D01*
X0278934Y0173567D01*
X0278737Y0173567D01*
X0278540Y0173606D01*
X0278343Y0173606D01*
X0278186Y0173685D01*
X0278028Y0173724D01*
X0277910Y0173803D01*
X0277831Y0173882D01*
X0277753Y0174000D01*
X0277674Y0174079D01*
X0277595Y0174315D01*
X0277556Y0174394D01*
X0277517Y0174512D01*
X0277517Y0175417D01*
X0277595Y0175339D01*
X0277674Y0175339D01*
X0277831Y0175260D01*
X0277910Y0175260D01*
X0277989Y0175220D01*
X0278146Y0175220D01*
X0278343Y0176008D01*
X0278068Y0176087D01*
X0277831Y0176165D01*
X0277635Y0176283D01*
X0277517Y0176441D01*
X0277517Y0176874D01*
X0277635Y0177110D01*
X0277674Y0177150D01*
X0277713Y0177228D01*
X0277950Y0177346D01*
X0278028Y0177346D01*
X0278107Y0177386D01*
X0278816Y0177386D01*
X0279209Y0177189D01*
X0279367Y0177031D01*
X0279406Y0176953D01*
X0279446Y0176835D01*
X0279485Y0176756D01*
X0279485Y0176559D01*
X0281020Y0176559D01*
X0280942Y0177031D01*
X0280863Y0177268D01*
X0280745Y0177425D01*
X0280627Y0177622D01*
X0280509Y0177780D01*
X0280351Y0177898D01*
X0279957Y0178134D01*
X0279761Y0178213D01*
X0279564Y0178252D01*
X0279328Y0178331D01*
X0279091Y0178370D01*
X0278894Y0178409D01*
X0277989Y0178409D01*
X0277792Y0178370D01*
X0277556Y0178370D01*
X0277359Y0178331D01*
X0277162Y0178252D01*
X0276965Y0178213D01*
X0276769Y0178134D01*
X0276296Y0177780D01*
X0276178Y0177622D01*
X0276099Y0177465D01*
X0276020Y0177268D01*
X0276069Y0177389D02*
X0280772Y0177389D01*
X0280922Y0177091D02*
X0279308Y0177091D01*
X0279467Y0176792D02*
X0280982Y0176792D01*
X0281808Y0176559D02*
X0281690Y0176008D01*
X0281650Y0175417D01*
X0283186Y0175457D01*
X0283186Y0175811D01*
X0283225Y0176126D01*
X0283343Y0176441D01*
X0283461Y0176717D01*
X0283658Y0176953D01*
X0283894Y0177110D01*
X0284170Y0177228D01*
X0284524Y0177268D01*
X0284839Y0177228D01*
X0285154Y0177110D01*
X0285351Y0176953D01*
X0285548Y0176717D01*
X0285666Y0176441D01*
X0285784Y0176126D01*
X0285824Y0175811D01*
X0285824Y0175142D01*
X0285666Y0174512D01*
X0285548Y0174236D01*
X0285351Y0174039D01*
X0285115Y0173843D01*
X0284839Y0173764D01*
X0284485Y0173724D01*
X0284170Y0173764D01*
X0283855Y0173843D01*
X0283619Y0174039D01*
X0283461Y0174236D01*
X0283343Y0174512D01*
X0282005Y0173882D01*
X0282241Y0173449D01*
X0282595Y0173094D01*
X0283028Y0172780D01*
X0283501Y0172622D01*
X0284091Y0172543D01*
X0284800Y0172661D01*
X0285036Y0172780D01*
X0285430Y0173016D01*
X0285745Y0173409D01*
X0285784Y0173409D01*
X0285784Y0169394D01*
X0286139Y0169748D01*
X0286729Y0170220D01*
X0287083Y0170575D01*
X0287280Y0170732D01*
X0287280Y0178016D01*
X0287123Y0178055D01*
X0286926Y0178094D01*
X0286729Y0178094D01*
X0286572Y0178134D01*
X0286375Y0178173D01*
X0286217Y0178213D01*
X0285824Y0178291D01*
X0285824Y0177583D01*
X0285666Y0177780D01*
X0285509Y0177937D01*
X0285312Y0178094D01*
X0284918Y0178331D01*
X0284446Y0178409D01*
X0284170Y0178409D01*
X0283580Y0178370D01*
X0283028Y0178173D01*
X0282595Y0177898D01*
X0282241Y0177504D01*
X0281965Y0177071D01*
X0281808Y0176559D01*
X0281794Y0176494D02*
X0283366Y0176494D01*
X0283251Y0176195D02*
X0281730Y0176195D01*
X0281682Y0175897D02*
X0283197Y0175897D01*
X0283186Y0175598D02*
X0281662Y0175598D01*
X0281650Y0175417D02*
X0281690Y0174866D01*
X0281808Y0174354D01*
X0282005Y0173882D01*
X0283343Y0174512D01*
X0283225Y0174827D01*
X0283186Y0175142D01*
X0283186Y0175457D01*
X0281650Y0175417D01*
X0281659Y0175300D02*
X0283186Y0175300D01*
X0283203Y0175001D02*
X0281680Y0175001D01*
X0281727Y0174703D02*
X0283272Y0174703D01*
X0283389Y0174404D02*
X0283115Y0174404D01*
X0281796Y0174404D01*
X0281911Y0174106D02*
X0282480Y0174106D01*
X0283566Y0174106D01*
X0283996Y0173807D02*
X0282045Y0173807D01*
X0282208Y0173509D02*
X0287280Y0173509D01*
X0287280Y0173807D02*
X0284992Y0173807D01*
X0285418Y0174106D02*
X0287280Y0174106D01*
X0287280Y0174404D02*
X0285620Y0174404D01*
X0285714Y0174703D02*
X0287280Y0174703D01*
X0287280Y0175001D02*
X0285789Y0175001D01*
X0285824Y0175300D02*
X0287280Y0175300D01*
X0287280Y0175598D02*
X0285824Y0175598D01*
X0285813Y0175897D02*
X0287280Y0175897D01*
X0287280Y0176195D02*
X0285758Y0176195D01*
X0285643Y0176494D02*
X0287280Y0176494D01*
X0287280Y0176792D02*
X0285485Y0176792D01*
X0285179Y0177091D02*
X0287280Y0177091D01*
X0287280Y0177389D02*
X0282168Y0177389D01*
X0281978Y0177091D02*
X0283865Y0177091D01*
X0283525Y0176792D02*
X0281880Y0176792D01*
X0282407Y0177688D02*
X0285739Y0177688D01*
X0285824Y0177688D02*
X0287280Y0177688D01*
X0287280Y0177986D02*
X0285824Y0177986D01*
X0285824Y0178285D02*
X0285856Y0178285D01*
X0285447Y0177986D02*
X0282735Y0177986D01*
X0283341Y0178285D02*
X0284994Y0178285D01*
X0288146Y0177110D02*
X0288068Y0176638D01*
X0289524Y0176638D01*
X0289564Y0176835D01*
X0289643Y0177031D01*
X0289721Y0177150D01*
X0289839Y0177228D01*
X0289997Y0177307D01*
X0290194Y0177386D01*
X0290863Y0177386D01*
X0290981Y0177346D01*
X0291139Y0177307D01*
X0291257Y0177268D01*
X0291414Y0177031D01*
X0291414Y0176874D01*
X0291375Y0176717D01*
X0291257Y0176559D01*
X0291099Y0176441D01*
X0290863Y0176323D01*
X0290627Y0176244D01*
X0290312Y0176205D01*
X0289367Y0175969D01*
X0289013Y0175890D01*
X0288461Y0175575D01*
X0288225Y0175378D01*
X0288068Y0175142D01*
X0287950Y0174866D01*
X0287910Y0174512D01*
X0287989Y0174000D01*
X0288146Y0173567D01*
X0288383Y0173252D01*
X0288698Y0172976D01*
X0289091Y0172780D01*
X0289524Y0172661D01*
X0289997Y0172583D01*
X0290469Y0172543D01*
X0290942Y0172583D01*
X0291414Y0172661D01*
X0291847Y0172780D01*
X0292241Y0172976D01*
X0292556Y0173252D01*
X0292831Y0173606D01*
X0292989Y0174000D01*
X0293068Y0174512D01*
X0291611Y0174512D01*
X0291611Y0174276D01*
X0291532Y0174079D01*
X0291414Y0173921D01*
X0291099Y0173685D01*
X0290863Y0173646D01*
X0290666Y0173606D01*
X0290430Y0173567D01*
X0290272Y0173606D01*
X0290115Y0173606D01*
X0289957Y0173646D01*
X0289800Y0173724D01*
X0289643Y0173843D01*
X0289524Y0173961D01*
X0289446Y0174276D01*
X0289485Y0174433D01*
X0289564Y0174591D01*
X0289721Y0174709D01*
X0289918Y0174827D01*
X0290154Y0174906D01*
X0290784Y0175063D01*
X0291178Y0175142D01*
X0291532Y0175220D01*
X0291847Y0175339D01*
X0292123Y0175457D01*
X0292398Y0175614D01*
X0292635Y0175772D01*
X0292792Y0176008D01*
X0292910Y0176283D01*
X0292950Y0176638D01*
X0292910Y0177110D01*
X0292753Y0177504D01*
X0292477Y0177819D01*
X0292202Y0178055D01*
X0291808Y0178252D01*
X0291414Y0178331D01*
X0290981Y0178409D01*
X0290076Y0178409D01*
X0289643Y0178331D01*
X0289249Y0178213D01*
X0288894Y0178055D01*
X0288580Y0177819D01*
X0288343Y0177504D01*
X0288146Y0177110D01*
X0288143Y0177091D02*
X0289682Y0177091D01*
X0289555Y0176792D02*
X0288093Y0176792D01*
X0288286Y0177389D02*
X0292799Y0177389D01*
X0292912Y0177091D02*
X0291375Y0177091D01*
X0291394Y0176792D02*
X0292937Y0176792D01*
X0292934Y0176494D02*
X0291170Y0176494D01*
X0290274Y0176195D02*
X0292872Y0176195D01*
X0292718Y0175897D02*
X0289044Y0175897D01*
X0288503Y0175598D02*
X0292371Y0175598D01*
X0291744Y0175300D02*
X0288173Y0175300D01*
X0288008Y0175001D02*
X0290537Y0175001D01*
X0289713Y0174703D02*
X0287931Y0174703D01*
X0287927Y0174404D02*
X0289478Y0174404D01*
X0289488Y0174106D02*
X0287973Y0174106D01*
X0288059Y0173807D02*
X0289690Y0173807D01*
X0289814Y0172613D02*
X0291125Y0172613D01*
X0292112Y0172912D02*
X0288827Y0172912D01*
X0288430Y0173210D02*
X0292508Y0173210D01*
X0292756Y0173509D02*
X0288190Y0173509D01*
X0287280Y0173210D02*
X0285784Y0173210D01*
X0285585Y0173210D02*
X0282480Y0173210D01*
X0282847Y0172912D02*
X0285257Y0172912D01*
X0285784Y0172912D02*
X0287280Y0172912D01*
X0287280Y0172613D02*
X0285784Y0172613D01*
X0285784Y0172315D02*
X0287280Y0172315D01*
X0287280Y0172016D02*
X0285784Y0172016D01*
X0285784Y0171718D02*
X0287280Y0171718D01*
X0287280Y0171419D02*
X0285784Y0171419D01*
X0285784Y0171121D02*
X0287280Y0171121D01*
X0287280Y0170822D02*
X0285784Y0170822D01*
X0285784Y0170524D02*
X0287032Y0170524D01*
X0286734Y0170225D02*
X0285784Y0170225D01*
X0285784Y0169927D02*
X0286362Y0169927D01*
X0286019Y0169628D02*
X0285784Y0169628D01*
X0284511Y0172613D02*
X0283567Y0172613D01*
X0281072Y0173509D02*
X0275942Y0173509D01*
X0275941Y0173210D02*
X0277438Y0173210D01*
X0277466Y0173210D02*
X0280891Y0173210D01*
X0280616Y0172912D02*
X0277810Y0172912D01*
X0277398Y0172912D02*
X0275863Y0172912D01*
X0275981Y0173807D02*
X0277906Y0173807D01*
X0277665Y0174106D02*
X0275981Y0174106D01*
X0275981Y0174404D02*
X0277552Y0174404D01*
X0277517Y0174703D02*
X0275981Y0174703D01*
X0275981Y0175001D02*
X0277517Y0175001D01*
X0277517Y0175300D02*
X0275981Y0175300D01*
X0275981Y0175598D02*
X0278241Y0175598D01*
X0279217Y0175598D01*
X0280408Y0175598D01*
X0280816Y0175300D02*
X0279103Y0175300D01*
X0278166Y0175300D01*
X0277752Y0175300D01*
X0278146Y0175220D02*
X0278225Y0175181D01*
X0278304Y0175181D01*
X0278422Y0175142D01*
X0278580Y0175142D01*
X0278698Y0175102D01*
X0278855Y0175102D01*
X0278934Y0175063D01*
X0279013Y0175063D01*
X0279328Y0175890D01*
X0278619Y0175969D01*
X0278343Y0176008D01*
X0278146Y0175220D01*
X0278316Y0175897D02*
X0275981Y0175897D01*
X0275981Y0176195D02*
X0277782Y0176195D01*
X0277517Y0176494D02*
X0275981Y0176494D01*
X0275981Y0176792D02*
X0277517Y0176792D01*
X0277625Y0177091D02*
X0275985Y0177091D01*
X0276227Y0177688D02*
X0280577Y0177688D01*
X0280203Y0177986D02*
X0276572Y0177986D01*
X0277245Y0178285D02*
X0279465Y0178285D01*
X0279264Y0175897D02*
X0278316Y0175897D01*
X0279175Y0175001D02*
X0281011Y0175001D01*
X0281114Y0174703D02*
X0279567Y0174703D01*
X0279677Y0174404D02*
X0281180Y0174404D01*
X0281199Y0174106D02*
X0279652Y0174106D01*
X0279526Y0173807D02*
X0281178Y0173807D01*
X0280001Y0172613D02*
X0278685Y0172613D01*
X0288481Y0177688D02*
X0292592Y0177688D01*
X0292282Y0177986D02*
X0288803Y0177986D01*
X0289490Y0178285D02*
X0291643Y0178285D01*
X0291611Y0174404D02*
X0293051Y0174404D01*
X0293005Y0174106D02*
X0291543Y0174106D01*
X0291262Y0173807D02*
X0292912Y0173807D01*
X0267717Y0185151D02*
X0266148Y0185151D01*
X0266346Y0185449D02*
X0267619Y0185449D01*
X0267460Y0185748D02*
X0266343Y0185748D01*
X0266100Y0186046D02*
X0267098Y0186046D01*
X0265213Y0189031D02*
X0262886Y0189031D01*
X0263545Y0189330D02*
X0264727Y0189330D01*
X0262320Y0187539D02*
X0261896Y0187539D01*
X0261651Y0187240D02*
X0262440Y0187240D01*
D488*
X0261918Y0154205D03*
X0261918Y0153890D03*
X0261918Y0153575D03*
X0261918Y0153260D03*
X0261918Y0152945D03*
X0261918Y0152630D03*
X0261918Y0152315D03*
X0261918Y0152000D03*
X0261918Y0151685D03*
X0261918Y0151370D03*
X0261918Y0151055D03*
X0261918Y0150740D03*
X0261918Y0150425D03*
X0261918Y0150110D03*
X0261918Y0149795D03*
X0261918Y0149480D03*
X0261918Y0149165D03*
X0261918Y0148850D03*
X0266957Y0148850D03*
X0266957Y0148535D03*
X0267272Y0149480D03*
X0266957Y0152630D03*
X0266957Y0152945D03*
X0266957Y0153260D03*
X0266957Y0153575D03*
X0271367Y0153575D03*
X0271367Y0153890D03*
X0271367Y0153260D03*
X0271367Y0152945D03*
X0271367Y0152630D03*
X0271367Y0152315D03*
X0271367Y0149795D03*
X0271367Y0149480D03*
X0271367Y0149165D03*
X0271367Y0148850D03*
X0271367Y0148535D03*
X0271367Y0148220D03*
X0278926Y0150110D03*
X0278926Y0150425D03*
X0279241Y0149795D03*
X0282706Y0153260D03*
X0283020Y0153575D03*
X0282706Y0154205D03*
X0281131Y0156094D03*
X0285540Y0153260D03*
X0285540Y0152945D03*
X0285855Y0153575D03*
X0285855Y0152315D03*
X0289950Y0152315D03*
X0289950Y0152630D03*
X0289950Y0152945D03*
X0289950Y0153260D03*
X0289950Y0153575D03*
X0289950Y0153890D03*
X0294989Y0156094D03*
X0298139Y0152945D03*
X0298139Y0152630D03*
X0298454Y0152000D03*
X0298139Y0151370D03*
X0298139Y0151055D03*
X0298139Y0150740D03*
X0293099Y0150740D03*
X0293099Y0150425D03*
X0293099Y0150110D03*
X0293099Y0149795D03*
X0289950Y0149795D03*
X0289950Y0149480D03*
X0289950Y0149165D03*
X0289950Y0148850D03*
X0289950Y0148535D03*
X0288103Y0141378D03*
X0289481Y0139449D03*
X0274048Y0141378D03*
X0252154Y0148535D03*
X0249320Y0152630D03*
X0249320Y0152945D03*
X0249320Y0153260D03*
X0249320Y0153575D03*
X0252154Y0155465D03*
X0245225Y0153575D03*
X0245225Y0153260D03*
X0245225Y0152945D03*
X0245225Y0152630D03*
D489*
X0246013Y0151685D03*
X0246328Y0151370D03*
X0247272Y0155780D03*
X0279713Y0151055D03*
X0288847Y0156094D03*
X0293887Y0152630D03*
X0293572Y0151055D03*
X0297351Y0149795D03*
D490*
X0282391Y0152945D03*
X0281131Y0147906D03*
X0270107Y0156094D03*
X0253729Y0153260D03*
X0253414Y0153575D03*
X0253099Y0153890D03*
X0252784Y0154205D03*
X0252784Y0154520D03*
X0252469Y0154835D03*
X0253729Y0150425D03*
X0253414Y0150110D03*
X0253099Y0149795D03*
X0252784Y0149480D03*
X0252469Y0149165D03*
X0297509Y0153890D03*
D491*
X0262076Y0156094D03*
D492*
X0256406Y0156094D03*
X0280973Y0147591D03*
X0295146Y0147591D03*
D493*
X0283020Y0150425D03*
X0279556Y0153890D03*
X0252154Y0156094D03*
D494*
X0256406Y0155780D03*
X0256406Y0155465D03*
X0256406Y0155150D03*
X0256406Y0154835D03*
X0256406Y0154520D03*
X0256406Y0154205D03*
X0256406Y0153890D03*
X0256406Y0153575D03*
X0256406Y0153260D03*
X0256406Y0150425D03*
X0256406Y0150110D03*
X0256406Y0149795D03*
X0256406Y0149480D03*
X0256406Y0149165D03*
X0256406Y0148850D03*
X0256406Y0148535D03*
X0256406Y0148220D03*
X0251997Y0148220D03*
X0262076Y0148220D03*
X0262076Y0148535D03*
X0266800Y0148220D03*
X0279713Y0154205D03*
X0282863Y0153890D03*
X0285698Y0152630D03*
X0290107Y0148220D03*
X0298296Y0151685D03*
X0298296Y0152315D03*
X0247272Y0156094D03*
D495*
X0255461Y0152000D03*
X0255461Y0151685D03*
X0247587Y0150425D03*
X0247272Y0150740D03*
X0275304Y0151055D03*
X0280973Y0155780D03*
X0293887Y0152315D03*
X0293887Y0152000D03*
X0293887Y0151685D03*
X0295146Y0155780D03*
D496*
X0288690Y0155780D03*
X0281131Y0152315D03*
X0280816Y0152000D03*
X0280501Y0151685D03*
X0281131Y0148535D03*
X0294989Y0148220D03*
X0254989Y0150740D03*
X0254989Y0152945D03*
X0247430Y0155150D03*
D497*
X0255146Y0152630D03*
X0255146Y0151055D03*
X0269950Y0155780D03*
X0280973Y0155465D03*
X0275304Y0150740D03*
X0275304Y0150425D03*
X0275304Y0150110D03*
X0275304Y0149795D03*
X0283143Y0139449D03*
X0259166Y0142480D03*
D498*
X0261918Y0154835D03*
X0261918Y0155780D03*
D499*
X0252154Y0155780D03*
X0249320Y0152315D03*
X0256564Y0147906D03*
X0261918Y0147906D03*
X0266957Y0147906D03*
X0271367Y0147906D03*
X0283020Y0150110D03*
X0289950Y0147906D03*
X0293414Y0153890D03*
D500*
X0295146Y0155465D03*
X0288532Y0150425D03*
X0280973Y0155150D03*
X0247272Y0154835D03*
D501*
X0247430Y0149795D03*
X0269792Y0155465D03*
X0281131Y0154835D03*
X0281131Y0154520D03*
X0288375Y0155465D03*
X0288375Y0150740D03*
X0294989Y0148535D03*
X0281131Y0148850D03*
D502*
X0262076Y0155150D03*
X0262076Y0155465D03*
D503*
X0255304Y0152315D03*
X0255304Y0151370D03*
X0247430Y0155465D03*
X0275146Y0149480D03*
X0280186Y0151370D03*
X0281761Y0152630D03*
X0281131Y0148220D03*
X0289005Y0150110D03*
D504*
X0288217Y0151055D03*
X0288217Y0155150D03*
X0295146Y0155150D03*
X0269635Y0155150D03*
X0269635Y0150740D03*
X0247272Y0154205D03*
X0247272Y0154520D03*
D505*
X0245383Y0153890D03*
X0245383Y0152315D03*
X0245698Y0152000D03*
X0249162Y0153890D03*
X0252312Y0155150D03*
X0252312Y0148850D03*
X0267115Y0149165D03*
X0267430Y0149795D03*
X0267115Y0152315D03*
X0267115Y0153890D03*
X0279083Y0150740D03*
X0282863Y0149795D03*
X0286013Y0153890D03*
X0297981Y0153575D03*
X0297981Y0153260D03*
X0297981Y0150425D03*
X0297666Y0150110D03*
D506*
X0294989Y0148850D03*
X0288060Y0151370D03*
X0288060Y0154520D03*
X0288060Y0154835D03*
X0295304Y0154835D03*
X0281131Y0149480D03*
X0281131Y0149165D03*
X0269477Y0150110D03*
X0269477Y0150425D03*
X0269477Y0151055D03*
X0269477Y0151370D03*
X0269477Y0154835D03*
X0247115Y0149480D03*
X0247115Y0147906D03*
D507*
X0246957Y0148220D03*
X0269320Y0151685D03*
X0269320Y0152000D03*
X0269320Y0154205D03*
X0269320Y0154520D03*
X0287902Y0154205D03*
X0287902Y0152000D03*
X0287902Y0151685D03*
X0295146Y0149165D03*
X0295461Y0154520D03*
D508*
X0262076Y0154520D03*
D509*
X0247115Y0149165D03*
X0247115Y0148850D03*
X0247115Y0148535D03*
X0295304Y0149480D03*
X0295619Y0154205D03*
D510*
X0293414Y0153575D03*
D511*
X0293729Y0151370D03*
X0294989Y0147906D03*
X0248060Y0150110D03*
X0246800Y0151055D03*
D512*
X0252312Y0147906D03*
D513*
X0203587Y0176850D03*
X0203587Y0177008D03*
X0203587Y0177165D03*
X0203587Y0177323D03*
X0203587Y0177480D03*
X0203587Y0177638D03*
X0203587Y0177795D03*
X0203587Y0182205D03*
X0203587Y0182362D03*
X0203587Y0182520D03*
X0203587Y0182677D03*
X0203587Y0182835D03*
X0203587Y0182992D03*
X0203587Y0183150D03*
X0203587Y0187795D03*
X0203587Y0192205D03*
D514*
X0197839Y0189055D03*
X0210438Y0188898D03*
X0210438Y0191102D03*
X0209678Y0198740D03*
X0205898Y0199685D03*
X0205898Y0200157D03*
X0205898Y0200315D03*
X0201331Y0199843D03*
X0197867Y0199055D03*
X0197839Y0182047D03*
X0209335Y0182047D03*
X0209335Y0180472D03*
X0209335Y0180315D03*
X0209335Y0180157D03*
X0209335Y0180000D03*
X0209335Y0179843D03*
X0209335Y0179685D03*
X0207501Y0160787D03*
X0210493Y0158110D03*
X0198052Y0158110D03*
X0215473Y0217425D03*
X0212166Y0217583D03*
X0212166Y0217740D03*
X0212166Y0219000D03*
X0212166Y0219157D03*
X0215473Y0220575D03*
X0207603Y0225575D03*
X0199729Y0225575D03*
X0203820Y0219157D03*
X0203820Y0219000D03*
X0203977Y0218213D03*
X0190276Y0219000D03*
X0190276Y0219157D03*
D515*
X0203587Y0182047D03*
D516*
X0203587Y0181890D03*
X0203587Y0181732D03*
X0201225Y0179685D03*
X0197603Y0181890D03*
X0203587Y0187953D03*
X0197603Y0189370D03*
X0197603Y0191732D03*
X0197631Y0199370D03*
X0197631Y0201732D03*
X0203615Y0197953D03*
X0206135Y0199213D03*
X0206135Y0200787D03*
X0209442Y0200787D03*
X0209442Y0199213D03*
X0210202Y0191575D03*
X0210202Y0188425D03*
X0209572Y0181890D03*
X0197816Y0161417D03*
X0197816Y0158425D03*
X0210729Y0158425D03*
X0203741Y0217268D03*
X0203741Y0219472D03*
X0200591Y0219315D03*
X0200591Y0217425D03*
X0198072Y0219000D03*
X0198072Y0219157D03*
X0198072Y0219315D03*
X0198072Y0219472D03*
X0198072Y0219630D03*
X0193662Y0219472D03*
X0190513Y0219630D03*
X0199808Y0225732D03*
X0207682Y0225890D03*
X0215394Y0220732D03*
X0209095Y0219630D03*
X0209095Y0219472D03*
X0209095Y0219315D03*
X0209095Y0219157D03*
D517*
X0209725Y0218685D03*
X0209725Y0218528D03*
X0209725Y0218370D03*
X0209725Y0218213D03*
X0209725Y0218055D03*
X0209725Y0217898D03*
X0209725Y0217740D03*
X0209725Y0217583D03*
X0209725Y0217425D03*
X0209725Y0217268D03*
X0209725Y0217110D03*
X0211143Y0218055D03*
X0211143Y0218213D03*
X0211143Y0218370D03*
X0211143Y0218528D03*
X0211143Y0218685D03*
X0213190Y0218685D03*
X0213190Y0218528D03*
X0213190Y0218370D03*
X0213190Y0218213D03*
X0213190Y0218055D03*
X0216969Y0218370D03*
X0216969Y0218528D03*
X0217127Y0219000D03*
X0216969Y0219315D03*
X0216969Y0219472D03*
X0208469Y0222110D03*
X0208469Y0222268D03*
X0208469Y0222425D03*
X0208469Y0222583D03*
X0208469Y0222740D03*
X0208469Y0222898D03*
X0208469Y0224157D03*
X0208469Y0224315D03*
X0208469Y0224472D03*
X0208469Y0224630D03*
X0208469Y0224787D03*
X0208469Y0224945D03*
X0206265Y0224787D03*
X0206265Y0224630D03*
X0206265Y0224472D03*
X0206265Y0224315D03*
X0206422Y0222898D03*
X0206422Y0222740D03*
X0206265Y0222425D03*
X0206265Y0222268D03*
X0203745Y0222268D03*
X0203745Y0222425D03*
X0203745Y0222583D03*
X0203745Y0222740D03*
X0203745Y0222898D03*
X0203745Y0223055D03*
X0203745Y0223213D03*
X0203745Y0223370D03*
X0203745Y0223528D03*
X0203745Y0223685D03*
X0203745Y0223843D03*
X0203745Y0224000D03*
X0203745Y0224157D03*
X0203745Y0224315D03*
X0203745Y0224472D03*
X0203745Y0224630D03*
X0203745Y0224787D03*
X0203745Y0224945D03*
X0203745Y0225102D03*
X0201383Y0224315D03*
X0201383Y0224157D03*
X0201383Y0224000D03*
X0201383Y0223843D03*
X0201383Y0223685D03*
X0201383Y0223528D03*
X0201225Y0223370D03*
X0201225Y0223213D03*
X0201225Y0224630D03*
X0203745Y0222110D03*
X0204686Y0218843D03*
X0204843Y0218685D03*
X0204686Y0217898D03*
X0207048Y0218843D03*
X0201536Y0218528D03*
X0201536Y0218370D03*
X0201536Y0218213D03*
X0198229Y0218213D03*
X0198229Y0218370D03*
X0198229Y0218528D03*
X0198229Y0218685D03*
X0198229Y0218055D03*
X0198229Y0217898D03*
X0198229Y0219945D03*
X0198229Y0220102D03*
X0198229Y0220260D03*
X0198229Y0220417D03*
X0198229Y0220575D03*
X0197446Y0222110D03*
X0197446Y0222268D03*
X0197446Y0222425D03*
X0197446Y0222583D03*
X0197446Y0222740D03*
X0197446Y0222898D03*
X0197446Y0223055D03*
X0197446Y0223213D03*
X0197446Y0223370D03*
X0197446Y0223528D03*
X0197446Y0223685D03*
X0197446Y0223843D03*
X0197446Y0224000D03*
X0197446Y0225732D03*
X0195713Y0223370D03*
X0195713Y0223213D03*
X0193981Y0223213D03*
X0193981Y0223370D03*
X0193981Y0223528D03*
X0193981Y0223685D03*
X0193981Y0223843D03*
X0193981Y0224000D03*
X0193981Y0223055D03*
X0193981Y0222898D03*
X0193981Y0222740D03*
X0193981Y0222583D03*
X0193981Y0222425D03*
X0193981Y0222268D03*
X0193981Y0222110D03*
X0196024Y0221047D03*
X0196024Y0220890D03*
X0196024Y0220732D03*
X0196024Y0220575D03*
X0196024Y0219630D03*
X0196024Y0219472D03*
X0196024Y0219315D03*
X0196024Y0219157D03*
X0196024Y0219000D03*
X0196024Y0218843D03*
X0196024Y0218685D03*
X0196024Y0218528D03*
X0196024Y0218370D03*
X0196024Y0218213D03*
X0196024Y0218055D03*
X0196024Y0217898D03*
X0196024Y0217740D03*
X0196024Y0217583D03*
X0196024Y0217425D03*
X0196024Y0217268D03*
X0196024Y0217110D03*
X0194607Y0218055D03*
X0194765Y0218370D03*
X0194607Y0218685D03*
X0192560Y0218528D03*
X0192560Y0218370D03*
X0192560Y0218213D03*
X0191143Y0218528D03*
X0191143Y0218685D03*
X0189253Y0218685D03*
X0189253Y0218528D03*
X0189253Y0218370D03*
X0189253Y0218213D03*
X0189253Y0218055D03*
X0189253Y0217898D03*
X0189253Y0217740D03*
X0189253Y0217583D03*
X0189253Y0217425D03*
X0189253Y0217268D03*
X0193981Y0225732D03*
X0199835Y0200630D03*
X0199835Y0200472D03*
X0201883Y0200472D03*
X0201568Y0199055D03*
X0203615Y0201260D03*
X0205162Y0190472D03*
X0205477Y0189213D03*
X0207367Y0188583D03*
X0207367Y0188425D03*
X0207367Y0188268D03*
X0207367Y0190157D03*
X0207367Y0190315D03*
X0207367Y0190472D03*
X0207367Y0190630D03*
X0207367Y0190787D03*
X0201855Y0190472D03*
X0201540Y0189055D03*
X0199808Y0190315D03*
X0201068Y0181890D03*
X0199808Y0180630D03*
X0199650Y0180787D03*
X0199650Y0179213D03*
X0199650Y0179055D03*
X0203587Y0180315D03*
X0203587Y0180472D03*
X0205635Y0180315D03*
X0206107Y0181890D03*
X0207524Y0180787D03*
X0207682Y0180630D03*
X0207524Y0179213D03*
X0207524Y0179055D03*
X0208052Y0160945D03*
X0208682Y0160315D03*
X0204430Y0158740D03*
X0203957Y0161102D03*
X0200335Y0160787D03*
X0200335Y0159055D03*
D518*
X0197737Y0158583D03*
X0197737Y0161260D03*
X0210808Y0161260D03*
X0210808Y0161417D03*
X0210808Y0158583D03*
X0209650Y0178110D03*
X0209650Y0180630D03*
X0209650Y0181732D03*
X0205241Y0178268D03*
X0201934Y0178268D03*
X0201146Y0179843D03*
X0201146Y0180000D03*
X0197524Y0180000D03*
X0197524Y0181732D03*
X0197524Y0178110D03*
X0209965Y0188110D03*
X0210123Y0188268D03*
X0210123Y0191732D03*
X0209965Y0191890D03*
X0203509Y0191890D03*
X0197524Y0191575D03*
X0197524Y0189528D03*
X0197552Y0199528D03*
X0197552Y0199685D03*
X0197552Y0201575D03*
X0203536Y0201890D03*
X0206213Y0200945D03*
X0206213Y0199055D03*
X0206371Y0197953D03*
X0209363Y0199370D03*
X0209363Y0200630D03*
X0212166Y0217268D03*
X0212166Y0219472D03*
X0209174Y0219000D03*
X0206497Y0219000D03*
X0206497Y0219157D03*
X0206497Y0219315D03*
X0206497Y0219472D03*
X0206497Y0219630D03*
X0203662Y0217110D03*
X0200513Y0217268D03*
X0200513Y0219472D03*
X0199729Y0222110D03*
X0196894Y0224315D03*
X0194532Y0224315D03*
X0193583Y0217268D03*
X0215473Y0217110D03*
D519*
X0214607Y0219945D03*
X0215394Y0221047D03*
X0209725Y0219787D03*
X0208469Y0221953D03*
X0206265Y0221953D03*
X0205946Y0219787D03*
X0207206Y0219787D03*
X0207206Y0216953D03*
X0209725Y0216953D03*
X0199961Y0217898D03*
X0199961Y0218843D03*
X0198229Y0220732D03*
X0197446Y0221953D03*
X0196024Y0221205D03*
X0196024Y0219787D03*
X0196024Y0216953D03*
X0191143Y0216953D03*
X0189253Y0216953D03*
X0191143Y0219787D03*
X0193981Y0221953D03*
X0195713Y0223055D03*
X0197446Y0225890D03*
X0198863Y0224945D03*
X0199808Y0226047D03*
X0203745Y0221953D03*
X0201253Y0201732D03*
X0201568Y0201102D03*
X0201725Y0200787D03*
X0201568Y0198898D03*
X0203615Y0198898D03*
X0203615Y0201102D03*
X0199835Y0200945D03*
X0205950Y0191732D03*
X0205477Y0190945D03*
X0205320Y0190787D03*
X0203587Y0191102D03*
X0201698Y0190787D03*
X0201540Y0190945D03*
X0201540Y0188898D03*
X0201383Y0187953D03*
X0205635Y0187953D03*
X0205635Y0188898D03*
X0206107Y0181732D03*
X0205635Y0180630D03*
X0207524Y0180945D03*
X0207524Y0178898D03*
X0203587Y0180000D03*
X0203587Y0180157D03*
X0201383Y0180787D03*
X0201383Y0180945D03*
X0201068Y0181732D03*
X0199650Y0180945D03*
X0199650Y0178898D03*
X0206477Y0161732D03*
X0206477Y0160945D03*
X0204587Y0159213D03*
X0204587Y0159055D03*
X0203800Y0160630D03*
X0202225Y0157953D03*
X0208052Y0158898D03*
D520*
X0210887Y0158898D03*
X0210887Y0158740D03*
X0210887Y0161102D03*
X0197658Y0161102D03*
X0197658Y0158898D03*
X0197658Y0158740D03*
X0197446Y0178268D03*
X0197446Y0180157D03*
X0197446Y0181575D03*
X0201068Y0180315D03*
X0201068Y0180157D03*
X0202013Y0178425D03*
X0205162Y0178425D03*
X0203587Y0181417D03*
X0203587Y0181575D03*
X0209729Y0181575D03*
X0209729Y0178268D03*
X0209887Y0187953D03*
X0203587Y0188110D03*
X0201383Y0189528D03*
X0197446Y0189685D03*
X0197446Y0189843D03*
X0197446Y0191260D03*
X0197446Y0191417D03*
X0197473Y0199843D03*
X0197473Y0201260D03*
X0197473Y0201417D03*
X0201410Y0199528D03*
X0203615Y0198110D03*
X0206292Y0198898D03*
X0206292Y0201102D03*
X0209284Y0200472D03*
X0209284Y0200315D03*
X0209284Y0200157D03*
X0209284Y0200000D03*
X0209284Y0199843D03*
X0209284Y0199685D03*
X0209284Y0199528D03*
X0210702Y0201890D03*
X0203741Y0219630D03*
X0198072Y0219787D03*
X0196973Y0224472D03*
X0196973Y0224630D03*
X0195713Y0224000D03*
X0194454Y0224472D03*
X0194454Y0224630D03*
D521*
X0203662Y0216795D03*
X0214528Y0218055D03*
X0201331Y0201575D03*
X0201331Y0201417D03*
X0201489Y0201260D03*
X0201646Y0200945D03*
X0201489Y0198740D03*
X0201489Y0197953D03*
X0201146Y0191575D03*
X0201304Y0191417D03*
X0201461Y0191260D03*
X0201461Y0191102D03*
X0199729Y0190945D03*
X0201461Y0188740D03*
X0203509Y0188898D03*
X0205556Y0191102D03*
X0205713Y0191260D03*
X0205871Y0191575D03*
X0206028Y0181575D03*
X0205871Y0181260D03*
X0205713Y0180945D03*
X0205713Y0180787D03*
X0201304Y0181102D03*
X0201304Y0181260D03*
X0201146Y0181575D03*
X0202146Y0161890D03*
X0203721Y0160472D03*
X0204666Y0159370D03*
X0206398Y0160315D03*
X0206398Y0161102D03*
X0206398Y0161260D03*
X0206398Y0161417D03*
X0206398Y0161575D03*
X0206398Y0158268D03*
X0202146Y0158110D03*
X0200572Y0158898D03*
D522*
X0202225Y0158898D03*
X0202225Y0159055D03*
X0202225Y0159213D03*
X0202225Y0159370D03*
X0202225Y0159528D03*
X0202225Y0159685D03*
X0202225Y0159843D03*
X0202225Y0160000D03*
X0202225Y0160157D03*
X0202225Y0160315D03*
X0202225Y0160472D03*
X0202225Y0160630D03*
X0202225Y0160787D03*
X0202225Y0160945D03*
X0202225Y0161102D03*
X0202225Y0161260D03*
X0202225Y0161417D03*
X0202225Y0161575D03*
X0202225Y0161732D03*
X0203643Y0160315D03*
X0203643Y0160157D03*
X0204745Y0159528D03*
X0206320Y0159528D03*
X0206320Y0159685D03*
X0206320Y0159843D03*
X0206320Y0160000D03*
X0206320Y0160157D03*
X0206320Y0159370D03*
X0206320Y0159213D03*
X0206320Y0159055D03*
X0206320Y0158898D03*
X0206320Y0158740D03*
X0206320Y0158583D03*
X0206320Y0158425D03*
X0202225Y0158425D03*
X0202225Y0158268D03*
X0202225Y0158583D03*
X0202225Y0158740D03*
X0203587Y0179685D03*
X0203587Y0179843D03*
X0205792Y0181102D03*
X0205950Y0181417D03*
X0201225Y0181417D03*
X0201383Y0188110D03*
X0203587Y0190945D03*
X0205792Y0191417D03*
X0205635Y0188740D03*
X0205635Y0188583D03*
X0203615Y0199055D03*
X0203615Y0200945D03*
X0205662Y0201260D03*
X0205662Y0201890D03*
X0202954Y0217740D03*
X0198229Y0220890D03*
X0198863Y0223055D03*
X0198863Y0224787D03*
X0196024Y0220260D03*
D523*
X0197363Y0218843D03*
X0199883Y0218685D03*
X0199729Y0221795D03*
X0203662Y0219945D03*
X0208387Y0218843D03*
X0212166Y0219945D03*
X0214528Y0219787D03*
X0193583Y0219945D03*
X0201489Y0198583D03*
X0201489Y0198425D03*
X0201489Y0198268D03*
X0201489Y0198110D03*
X0203509Y0190787D03*
X0203509Y0189055D03*
X0201461Y0188583D03*
X0201461Y0188268D03*
X0205556Y0188110D03*
X0207446Y0181102D03*
X0199572Y0181102D03*
X0203564Y0160000D03*
X0204824Y0159843D03*
X0204824Y0159685D03*
D524*
X0204272Y0158110D03*
X0197501Y0159370D03*
X0197501Y0159528D03*
X0197501Y0159685D03*
X0197501Y0159843D03*
X0197501Y0160000D03*
X0197501Y0160157D03*
X0197501Y0160315D03*
X0197501Y0160472D03*
X0197501Y0160630D03*
X0211044Y0160472D03*
X0211044Y0160315D03*
X0211044Y0160157D03*
X0211044Y0160000D03*
X0211044Y0159843D03*
X0211044Y0159685D03*
X0211044Y0159528D03*
X0209887Y0178583D03*
X0209887Y0178740D03*
X0209887Y0178898D03*
X0209887Y0179055D03*
X0209887Y0179213D03*
X0205162Y0178740D03*
X0205162Y0178583D03*
X0203587Y0181102D03*
X0202013Y0178740D03*
X0202013Y0178583D03*
X0197288Y0178583D03*
X0197288Y0178740D03*
X0197288Y0178898D03*
X0197288Y0179055D03*
X0197288Y0179213D03*
X0197288Y0179370D03*
X0197288Y0179528D03*
X0197288Y0180630D03*
X0197288Y0180787D03*
X0197288Y0180945D03*
X0197288Y0181102D03*
X0197288Y0187953D03*
X0197288Y0188110D03*
X0197288Y0188740D03*
X0197288Y0190472D03*
X0197288Y0190630D03*
X0201383Y0189370D03*
X0203615Y0198268D03*
X0201568Y0199370D03*
X0201095Y0202047D03*
X0197316Y0198740D03*
X0197316Y0198583D03*
X0197316Y0198425D03*
X0197316Y0198268D03*
X0197316Y0198110D03*
X0206450Y0198268D03*
X0206450Y0198425D03*
X0210544Y0201575D03*
X0203583Y0216953D03*
X0197914Y0217740D03*
X0195713Y0223685D03*
X0194296Y0224945D03*
X0197131Y0224945D03*
X0199808Y0225890D03*
X0215394Y0220890D03*
D525*
X0216576Y0217898D03*
X0215473Y0216953D03*
X0200831Y0222898D03*
X0199729Y0221953D03*
X0200989Y0224945D03*
X0197209Y0225102D03*
X0197209Y0225260D03*
X0194217Y0225260D03*
X0194217Y0225102D03*
X0197835Y0217583D03*
X0197835Y0217425D03*
X0197835Y0217268D03*
X0203536Y0201575D03*
X0201961Y0200157D03*
X0203536Y0198425D03*
X0210308Y0201260D03*
X0210465Y0201417D03*
X0203509Y0191575D03*
X0205083Y0190157D03*
X0205083Y0190000D03*
X0205083Y0189843D03*
X0205241Y0189685D03*
X0205398Y0189528D03*
X0203509Y0188425D03*
X0201934Y0190157D03*
X0197209Y0188583D03*
X0197209Y0188425D03*
X0197209Y0188268D03*
X0203509Y0180945D03*
X0201776Y0179370D03*
X0201934Y0179055D03*
X0201934Y0178898D03*
X0205241Y0178898D03*
X0205241Y0179055D03*
X0205713Y0180000D03*
X0204194Y0161732D03*
X0200099Y0160315D03*
X0200099Y0160157D03*
X0200099Y0160000D03*
X0200099Y0159843D03*
X0200099Y0159685D03*
X0208288Y0159528D03*
X0208288Y0159370D03*
D526*
X0208209Y0159213D03*
X0204272Y0158268D03*
X0204115Y0161417D03*
X0204115Y0161575D03*
X0200178Y0160472D03*
X0200178Y0159528D03*
X0200178Y0159370D03*
X0201855Y0179213D03*
X0203587Y0180787D03*
X0205477Y0179685D03*
X0205320Y0179370D03*
X0205320Y0179213D03*
X0207367Y0187953D03*
X0207367Y0188110D03*
X0205477Y0189370D03*
X0201568Y0199213D03*
X0203615Y0201417D03*
X0197757Y0217110D03*
X0201379Y0218843D03*
X0203741Y0219787D03*
X0201068Y0223055D03*
X0197288Y0225417D03*
X0195713Y0223528D03*
X0194139Y0225417D03*
X0193662Y0219787D03*
X0193662Y0216953D03*
X0212087Y0219787D03*
X0216654Y0219945D03*
X0207839Y0226047D03*
D527*
X0206343Y0224945D03*
X0206343Y0224157D03*
X0206343Y0222583D03*
X0209646Y0218843D03*
X0211221Y0218843D03*
X0211221Y0217898D03*
X0212166Y0216953D03*
X0212954Y0217898D03*
X0213111Y0218843D03*
X0216733Y0218055D03*
X0216891Y0218213D03*
X0216891Y0219630D03*
X0216733Y0219787D03*
X0204607Y0217740D03*
X0201457Y0218055D03*
X0201300Y0217898D03*
X0201457Y0218685D03*
X0200513Y0219787D03*
X0198308Y0218843D03*
X0200513Y0216953D03*
X0194528Y0217898D03*
X0194528Y0218843D03*
X0192796Y0218843D03*
X0192639Y0218685D03*
X0192639Y0218055D03*
X0192796Y0217898D03*
X0194060Y0225575D03*
X0197367Y0225575D03*
X0201146Y0224787D03*
X0201304Y0224472D03*
X0201174Y0201890D03*
X0201961Y0200315D03*
X0203536Y0198583D03*
X0201146Y0191890D03*
X0201934Y0190315D03*
X0201461Y0189213D03*
X0203509Y0188583D03*
X0205083Y0190315D03*
X0206028Y0191890D03*
X0203509Y0191417D03*
X0203509Y0180630D03*
X0205398Y0179528D03*
X0205556Y0179843D03*
X0205713Y0180157D03*
X0207603Y0179370D03*
X0201304Y0180630D03*
X0199729Y0179370D03*
X0204036Y0161260D03*
X0206556Y0161890D03*
X0208131Y0159055D03*
X0206556Y0157953D03*
X0204351Y0158425D03*
X0204351Y0158583D03*
X0200257Y0159213D03*
X0200257Y0160630D03*
D528*
X0200414Y0160945D03*
X0203879Y0160945D03*
X0203879Y0160787D03*
X0204509Y0158898D03*
X0206398Y0158110D03*
X0208761Y0159685D03*
X0208761Y0159843D03*
X0208761Y0160000D03*
X0208761Y0160157D03*
X0205713Y0180472D03*
X0207446Y0188740D03*
X0207446Y0188898D03*
X0205556Y0189055D03*
X0205241Y0190630D03*
X0203509Y0191260D03*
X0201776Y0190630D03*
X0201146Y0191732D03*
X0199729Y0190787D03*
X0199729Y0190630D03*
X0199729Y0190472D03*
X0199887Y0190157D03*
X0203509Y0188740D03*
X0207446Y0190945D03*
X0203536Y0198740D03*
X0201804Y0200630D03*
X0199914Y0200315D03*
X0199914Y0200157D03*
X0199757Y0200787D03*
X0197678Y0216953D03*
X0194686Y0218213D03*
X0194686Y0218528D03*
X0196103Y0220417D03*
X0198942Y0222898D03*
X0202875Y0218843D03*
X0202875Y0218685D03*
X0207127Y0218685D03*
X0207127Y0218528D03*
X0207127Y0218370D03*
X0207127Y0218213D03*
X0207127Y0218055D03*
X0207127Y0217898D03*
X0207127Y0217740D03*
X0207127Y0217583D03*
X0207127Y0217425D03*
X0207127Y0217268D03*
X0207127Y0217110D03*
X0208544Y0219787D03*
X0206186Y0222110D03*
X0214686Y0217898D03*
X0217048Y0218685D03*
X0217048Y0218843D03*
X0217048Y0219157D03*
X0194060Y0225890D03*
X0189961Y0219787D03*
X0191221Y0218370D03*
X0191221Y0218213D03*
X0191221Y0218055D03*
X0191221Y0217898D03*
X0191221Y0217740D03*
X0191221Y0217583D03*
X0191221Y0217425D03*
X0191221Y0217268D03*
X0191221Y0217110D03*
X0189174Y0217110D03*
D529*
X0209993Y0198110D03*
X0209020Y0179528D03*
D530*
X0205320Y0177953D03*
X0201855Y0177953D03*
X0200910Y0179528D03*
X0197918Y0188898D03*
X0197918Y0192047D03*
X0201225Y0189843D03*
X0210517Y0189213D03*
X0210517Y0189055D03*
X0210517Y0190787D03*
X0210517Y0190945D03*
X0209757Y0198583D03*
X0205820Y0199843D03*
X0205820Y0200000D03*
X0197946Y0202047D03*
X0193662Y0217740D03*
X0193662Y0219000D03*
X0190198Y0218843D03*
X0199808Y0222425D03*
X0199808Y0225417D03*
X0207524Y0225417D03*
X0207524Y0223528D03*
X0207524Y0223370D03*
X0207524Y0223213D03*
X0207524Y0223055D03*
X0203898Y0218528D03*
X0203898Y0218370D03*
X0215552Y0217583D03*
X0215552Y0220417D03*
X0210414Y0161890D03*
X0207580Y0160630D03*
X0207580Y0160472D03*
X0198131Y0161890D03*
D531*
X0197894Y0161575D03*
X0197894Y0158268D03*
X0210650Y0158268D03*
X0210650Y0161575D03*
X0209493Y0177953D03*
X0205241Y0178110D03*
X0201934Y0178110D03*
X0197682Y0177953D03*
X0197682Y0189213D03*
X0197682Y0191890D03*
X0201304Y0189685D03*
X0203509Y0192047D03*
X0210280Y0191417D03*
X0210280Y0188583D03*
X0209520Y0199055D03*
X0209520Y0200945D03*
X0206056Y0200630D03*
X0206056Y0199370D03*
X0203536Y0202047D03*
X0201331Y0199685D03*
X0203820Y0217425D03*
X0203820Y0219315D03*
X0200670Y0219157D03*
X0200670Y0219000D03*
X0200670Y0217740D03*
X0200670Y0217583D03*
X0193583Y0217425D03*
X0193583Y0219315D03*
X0190434Y0219472D03*
X0212166Y0219315D03*
X0212166Y0217425D03*
D532*
X0204272Y0163150D03*
X0204272Y0162992D03*
X0204272Y0162835D03*
X0204272Y0162677D03*
X0204272Y0162520D03*
X0204272Y0162362D03*
X0204272Y0162205D03*
X0204272Y0157795D03*
X0204272Y0157638D03*
X0204272Y0157480D03*
X0204272Y0157323D03*
X0204272Y0157165D03*
X0204272Y0157008D03*
X0204272Y0156850D03*
D533*
X0198288Y0157953D03*
X0210257Y0162047D03*
X0210674Y0189528D03*
X0210674Y0189685D03*
X0210674Y0189843D03*
X0210674Y0190000D03*
X0210674Y0190157D03*
X0210674Y0190315D03*
X0210674Y0190472D03*
X0201225Y0190000D03*
X0201253Y0200000D03*
X0209914Y0198268D03*
X0199965Y0222740D03*
X0199965Y0225102D03*
X0203745Y0226047D03*
X0207367Y0224000D03*
D534*
X0202146Y0162047D03*
D535*
X0197973Y0161732D03*
X0210572Y0161732D03*
X0210359Y0188740D03*
X0210359Y0191260D03*
X0209599Y0198898D03*
X0209599Y0201102D03*
X0205977Y0200472D03*
X0205977Y0199528D03*
X0197788Y0199213D03*
X0197788Y0201890D03*
X0215394Y0217268D03*
X0204056Y0218055D03*
X0203898Y0217583D03*
X0199808Y0222268D03*
X0193662Y0219157D03*
X0193662Y0217583D03*
X0190355Y0219315D03*
X0207682Y0225732D03*
D536*
X0207446Y0225260D03*
X0207446Y0225102D03*
X0207446Y0223843D03*
X0207446Y0223685D03*
X0199887Y0222583D03*
X0199887Y0225260D03*
X0215631Y0220260D03*
X0215631Y0220102D03*
X0215631Y0217740D03*
X0209835Y0198425D03*
X0198024Y0198898D03*
X0210595Y0190630D03*
X0210595Y0189370D03*
X0210335Y0157953D03*
D537*
X0258891Y0139980D03*
X0265780Y0139154D03*
X0264954Y0143602D03*
X0276804Y0136673D03*
X0283143Y0139154D03*
X0283143Y0140256D03*
X0283143Y0140531D03*
X0282591Y0143602D03*
X0289206Y0143602D03*
D538*
X0288241Y0141083D03*
X0289068Y0139980D03*
X0289619Y0139154D03*
X0290446Y0138051D03*
X0277217Y0143602D03*
X0274186Y0138327D03*
X0258202Y0138327D03*
X0254068Y0143602D03*
D539*
X0255032Y0141083D03*
X0255032Y0140807D03*
X0255032Y0140531D03*
X0255032Y0140256D03*
X0255032Y0138051D03*
X0255032Y0137776D03*
X0255032Y0137500D03*
X0255032Y0136949D03*
X0255032Y0136673D03*
X0251174Y0140807D03*
X0251174Y0141083D03*
X0259166Y0143602D03*
X0278182Y0141083D03*
X0278182Y0140807D03*
X0278182Y0140531D03*
X0278182Y0140256D03*
X0278182Y0139980D03*
X0278182Y0139705D03*
X0278182Y0139154D03*
X0278182Y0138878D03*
X0278182Y0138602D03*
X0278182Y0138327D03*
X0284520Y0138327D03*
X0284520Y0138602D03*
X0284520Y0138878D03*
X0284520Y0141083D03*
D540*
X0282591Y0143307D03*
X0289206Y0143307D03*
X0264954Y0143307D03*
D541*
X0253792Y0143307D03*
X0276942Y0143307D03*
D542*
X0259166Y0143307D03*
D543*
X0265091Y0143012D03*
X0265091Y0142185D03*
X0276115Y0141909D03*
X0276115Y0138051D03*
X0282454Y0136949D03*
X0289068Y0136949D03*
X0289068Y0136673D03*
X0289068Y0137500D03*
X0289068Y0143012D03*
D544*
X0289206Y0142185D03*
X0282591Y0142185D03*
X0282591Y0141909D03*
X0282591Y0143012D03*
X0276253Y0142185D03*
X0276253Y0137776D03*
X0276253Y0137500D03*
X0282591Y0137500D03*
X0282591Y0137776D03*
X0282591Y0136673D03*
X0288930Y0137776D03*
X0265229Y0141909D03*
X0253103Y0141909D03*
X0253103Y0139980D03*
D545*
X0253517Y0138878D03*
X0259028Y0140256D03*
X0259304Y0142185D03*
X0253517Y0143012D03*
X0265643Y0140531D03*
X0265643Y0140256D03*
X0265643Y0139980D03*
X0265643Y0139705D03*
X0276666Y0136949D03*
X0283005Y0139705D03*
X0283005Y0139980D03*
X0276666Y0143012D03*
D546*
X0270328Y0137776D03*
X0259028Y0138051D03*
X0254068Y0138327D03*
X0259304Y0143012D03*
D547*
X0265091Y0142756D03*
X0282454Y0142756D03*
X0289068Y0142756D03*
X0289068Y0137244D03*
X0282454Y0137244D03*
D548*
X0276528Y0142756D03*
X0253379Y0142756D03*
D549*
X0259304Y0142756D03*
D550*
X0265091Y0142480D03*
X0282454Y0142480D03*
X0289068Y0142480D03*
D551*
X0276391Y0142480D03*
X0253241Y0142480D03*
X0253241Y0139449D03*
D552*
X0253241Y0139705D03*
X0253241Y0142185D03*
X0289068Y0141909D03*
D553*
X0273910Y0141083D03*
X0273635Y0140531D03*
X0273635Y0140256D03*
X0273635Y0139980D03*
X0273635Y0139705D03*
X0273635Y0139154D03*
X0273910Y0138878D03*
X0267020Y0138878D03*
X0267020Y0138602D03*
X0267020Y0138327D03*
X0267020Y0138051D03*
X0267020Y0137776D03*
X0267020Y0137500D03*
X0267020Y0136949D03*
X0267020Y0136673D03*
X0267020Y0141083D03*
X0260682Y0141083D03*
X0260682Y0141909D03*
X0257650Y0141083D03*
X0257650Y0139154D03*
X0257926Y0138878D03*
X0251312Y0140256D03*
X0251312Y0140531D03*
D554*
X0257788Y0140807D03*
X0257788Y0141909D03*
X0260544Y0140807D03*
X0258064Y0138602D03*
X0273772Y0140807D03*
X0274048Y0138602D03*
X0288379Y0140807D03*
X0288654Y0140531D03*
X0288930Y0140256D03*
X0289206Y0139705D03*
X0289757Y0138878D03*
X0290032Y0138602D03*
X0290308Y0138327D03*
D555*
X0287828Y0141654D03*
X0251450Y0141654D03*
D556*
X0274461Y0141654D03*
D557*
X0267020Y0141654D03*
X0267020Y0137244D03*
X0260406Y0136417D03*
X0257650Y0141654D03*
D558*
X0255032Y0141378D03*
X0260820Y0141378D03*
X0278182Y0141378D03*
X0278182Y0139449D03*
X0284520Y0141378D03*
D559*
X0273635Y0139449D03*
X0267020Y0141378D03*
X0257650Y0141378D03*
X0251312Y0141378D03*
D560*
X0259442Y0137776D03*
X0259442Y0137500D03*
X0270465Y0138051D03*
X0270465Y0138327D03*
X0270465Y0138602D03*
X0270465Y0138878D03*
X0283418Y0140807D03*
D561*
X0265918Y0140807D03*
X0258753Y0139705D03*
X0253792Y0138602D03*
D562*
X0253379Y0139154D03*
X0259166Y0140531D03*
X0282867Y0138051D03*
D563*
X0265643Y0139449D03*
D564*
X0258615Y0139449D03*
D565*
X0259993Y0136949D03*
X0270465Y0139154D03*
D566*
X0259304Y0139154D03*
D567*
X0276391Y0137244D03*
D568*
X0277080Y0136417D03*
X0259717Y0137244D03*
D569*
X0259993Y0136673D03*
D570*
X0282591Y0136417D03*
X0288930Y0136417D03*
D571*
X0267020Y0136417D03*
D572*
X0255032Y0136417D03*
D573*
X0203745Y0225417D03*
X0203745Y0225575D03*
X0203745Y0225732D03*
X0203745Y0225890D03*
D574*
X0203745Y0225260D03*
D575*
X0195713Y0224157D03*
D576*
X0268150Y0228583D03*
X0274450Y0228583D03*
D577*
X0273347Y0224724D03*
D578*
X0283347Y0224724D03*
D579*
X0204717Y0203150D03*
X0204717Y0196850D03*
D580*
X0204639Y0197008D03*
X0204639Y0202992D03*
D581*
X0204560Y0202835D03*
X0204560Y0197165D03*
D582*
X0204481Y0197323D03*
X0204481Y0202677D03*
D583*
X0204402Y0202520D03*
X0204402Y0197480D03*
D584*
X0204324Y0197638D03*
X0204324Y0202362D03*
D585*
X0204245Y0202205D03*
X0204245Y0197795D03*
D586*
X0208576Y0202047D03*
D587*
X0203036Y0193150D03*
X0203036Y0186850D03*
D588*
X0203115Y0187008D03*
X0203115Y0192992D03*
D589*
X0203272Y0192835D03*
X0203272Y0187165D03*
D590*
X0203351Y0187323D03*
X0203351Y0192677D03*
D591*
X0203430Y0192520D03*
X0203430Y0187480D03*
D592*
X0203509Y0187638D03*
X0203509Y0192362D03*
D593*
X0208076Y0192047D03*
M02*
