G75*
%MOIN*%
%OFA0B0*%
%FSLAX25Y25*%
%IPPOS*%
%LPD*%
%AMOC8*
5,1,8,0,0,1.08239X$1,22.5*
%
%ADD10C,0.13800*%
%ADD11C,0.03300*%
%ADD12R,0.05524X0.08674*%
%ADD13R,0.03162X0.06115*%
%ADD14C,0.08200*%
%ADD15R,0.04737X0.05131*%
%ADD16R,0.05131X0.04737*%
%ADD17R,0.09658X0.04146*%
%ADD18R,0.03300X0.05800*%
%ADD19C,0.00500*%
%ADD20C,0.01990*%
%ADD21R,0.03280X0.04068*%
%ADD22R,0.09461X0.04146*%
%ADD23R,0.04934X0.04737*%
%ADD24R,0.05524X0.02965*%
%ADD25R,0.03202X0.01784*%
%ADD26R,0.03005X0.01784*%
%ADD27R,0.06784X0.04146*%
%ADD28R,0.04146X0.06784*%
%ADD29R,0.05131X0.05131*%
%ADD30R,0.06509X0.01981*%
%ADD31R,0.06509X0.03162*%
%ADD32R,0.06509X0.02965*%
%ADD33C,0.03359*%
%ADD34C,0.00039*%
D10*
X0196300Y0085000D03*
X0346300Y0085000D03*
X0346300Y0235000D03*
X0196300Y0235000D03*
D11*
X0188800Y0077500D03*
X0353800Y0242500D03*
D12*
X0232324Y0239469D03*
X0210276Y0239469D03*
X0210276Y0080531D03*
X0232324Y0080531D03*
D13*
X0227206Y0095000D03*
X0223269Y0095000D03*
X0219331Y0095000D03*
X0215394Y0095000D03*
X0215394Y0225000D03*
X0219331Y0225000D03*
X0223269Y0225000D03*
X0227206Y0225000D03*
D14*
X0241300Y0240000D03*
X0251300Y0240000D03*
X0261300Y0240000D03*
X0271300Y0240000D03*
X0281300Y0240000D03*
X0291300Y0240000D03*
X0301300Y0240000D03*
X0311300Y0240000D03*
X0321300Y0240000D03*
X0191300Y0210000D03*
X0191300Y0200000D03*
X0191300Y0190000D03*
X0191300Y0180000D03*
X0191300Y0170000D03*
X0191300Y0160000D03*
X0241300Y0080000D03*
X0251300Y0080000D03*
X0261300Y0080000D03*
X0271300Y0080000D03*
X0281300Y0080000D03*
X0291300Y0080000D03*
X0301300Y0080000D03*
X0311300Y0080000D03*
X0321300Y0080000D03*
X0331300Y0080000D03*
D15*
X0276800Y0101654D03*
X0270800Y0101654D03*
X0264800Y0101654D03*
X0258800Y0101654D03*
X0258800Y0108346D03*
X0264800Y0108346D03*
X0270800Y0108346D03*
X0276800Y0108346D03*
X0241300Y0106654D03*
X0221300Y0106654D03*
X0221300Y0113346D03*
X0241300Y0113346D03*
X0324300Y0136654D03*
X0324300Y0143346D03*
X0324300Y0149654D03*
X0324300Y0156346D03*
X0248800Y0166654D03*
X0248800Y0173346D03*
X0223800Y0173346D03*
X0223800Y0166654D03*
X0326300Y0191654D03*
X0333800Y0191654D03*
X0341300Y0191654D03*
X0348800Y0191654D03*
X0348800Y0198346D03*
X0341300Y0198346D03*
X0333800Y0198346D03*
X0326300Y0198346D03*
D16*
X0249646Y0180000D03*
X0242954Y0180000D03*
X0244646Y0153000D03*
X0237954Y0153000D03*
X0237954Y0147000D03*
X0244646Y0147000D03*
X0244646Y0141000D03*
X0237954Y0141000D03*
X0237954Y0135000D03*
X0244646Y0135000D03*
X0244646Y0129000D03*
X0237954Y0129000D03*
X0202146Y0147500D03*
X0195454Y0147500D03*
X0195454Y0102500D03*
X0202146Y0102500D03*
X0330454Y0149500D03*
X0337146Y0149500D03*
D17*
G36*
X0229710Y0186303D02*
X0222882Y0179475D01*
X0219950Y0182407D01*
X0226778Y0189235D01*
X0229710Y0186303D01*
G37*
G36*
X0225535Y0190478D02*
X0218707Y0183650D01*
X0215775Y0186582D01*
X0222603Y0193410D01*
X0225535Y0190478D01*
G37*
D18*
X0227300Y0110000D03*
X0231300Y0110000D03*
X0235300Y0110000D03*
D19*
X0234050Y0109896D02*
X0228550Y0109896D01*
X0228550Y0109500D02*
X0228550Y0110500D01*
X0234050Y0110500D01*
X0234050Y0109500D01*
X0228550Y0109500D01*
X0228550Y0110394D02*
X0234050Y0110394D01*
D20*
X0324927Y0177920D02*
X0327673Y0177920D01*
X0327673Y0175174D01*
X0324927Y0175174D01*
X0324927Y0177920D01*
X0324927Y0177064D02*
X0327673Y0177064D01*
X0332427Y0177920D02*
X0335173Y0177920D01*
X0335173Y0175174D01*
X0332427Y0175174D01*
X0332427Y0177920D01*
X0332427Y0177064D02*
X0335173Y0177064D01*
X0339927Y0177920D02*
X0342673Y0177920D01*
X0342673Y0175174D01*
X0339927Y0175174D01*
X0339927Y0177920D01*
X0339927Y0177064D02*
X0342673Y0177064D01*
X0347427Y0177920D02*
X0350173Y0177920D01*
X0350173Y0175174D01*
X0347427Y0175174D01*
X0347427Y0177920D01*
X0347427Y0177064D02*
X0350173Y0177064D01*
X0350173Y0184826D02*
X0347427Y0184826D01*
X0350173Y0184826D02*
X0350173Y0182080D01*
X0347427Y0182080D01*
X0347427Y0184826D01*
X0347427Y0183970D02*
X0350173Y0183970D01*
X0342673Y0184826D02*
X0339927Y0184826D01*
X0342673Y0184826D02*
X0342673Y0182080D01*
X0339927Y0182080D01*
X0339927Y0184826D01*
X0339927Y0183970D02*
X0342673Y0183970D01*
X0335173Y0184826D02*
X0332427Y0184826D01*
X0335173Y0184826D02*
X0335173Y0182080D01*
X0332427Y0182080D01*
X0332427Y0184826D01*
X0332427Y0183970D02*
X0335173Y0183970D01*
X0327673Y0184826D02*
X0324927Y0184826D01*
X0327673Y0184826D02*
X0327673Y0182080D01*
X0324927Y0182080D01*
X0324927Y0184826D01*
X0324927Y0183970D02*
X0327673Y0183970D01*
D21*
X0245828Y0159000D03*
X0236772Y0159000D03*
D22*
X0335300Y0141413D03*
X0335300Y0130587D03*
D23*
X0329296Y0136000D03*
X0341304Y0136000D03*
D24*
X0241419Y0166260D03*
X0231181Y0166260D03*
X0231181Y0170000D03*
X0231181Y0173740D03*
X0241419Y0173740D03*
D25*
X0227706Y0133469D03*
D26*
X0227607Y0131500D03*
X0227607Y0129531D03*
X0230993Y0129531D03*
X0230993Y0131500D03*
X0230993Y0133469D03*
D27*
X0256969Y0131850D03*
X0256969Y0136181D03*
X0256969Y0140512D03*
X0256969Y0144843D03*
X0256969Y0149173D03*
X0256969Y0153504D03*
X0256969Y0157835D03*
X0256969Y0162165D03*
X0256969Y0166496D03*
X0256969Y0170827D03*
X0256969Y0175157D03*
X0256969Y0179488D03*
X0256969Y0183819D03*
X0256969Y0188150D03*
X0315631Y0188150D03*
X0315631Y0183819D03*
X0315631Y0179488D03*
X0315631Y0175157D03*
X0315631Y0170827D03*
X0315631Y0166496D03*
X0315631Y0162165D03*
X0315631Y0157835D03*
X0315631Y0153504D03*
X0315631Y0149173D03*
X0315631Y0144843D03*
X0315631Y0140512D03*
X0315631Y0136181D03*
X0315631Y0131850D03*
D28*
X0312284Y0120827D03*
X0307954Y0120827D03*
X0303623Y0120827D03*
X0299292Y0120827D03*
X0294961Y0120827D03*
X0290631Y0120827D03*
X0286300Y0120827D03*
X0281969Y0120827D03*
X0277639Y0120827D03*
X0273308Y0120827D03*
X0268977Y0120827D03*
X0264646Y0120827D03*
X0260316Y0120827D03*
X0260316Y0199173D03*
X0264646Y0199173D03*
X0268977Y0199173D03*
X0273308Y0199173D03*
X0277639Y0199173D03*
X0281969Y0199173D03*
X0286300Y0199173D03*
X0290631Y0199173D03*
X0294961Y0199173D03*
X0299292Y0199173D03*
X0303623Y0199173D03*
X0307954Y0199173D03*
X0312284Y0199173D03*
D29*
X0306576Y0188937D03*
X0298505Y0188937D03*
X0290434Y0188937D03*
X0282166Y0188937D03*
X0274095Y0188937D03*
X0266024Y0188937D03*
X0266024Y0180669D03*
X0274095Y0180669D03*
X0282166Y0180669D03*
X0290434Y0180669D03*
X0298505Y0180669D03*
X0306576Y0180669D03*
X0306576Y0172402D03*
X0298505Y0172402D03*
X0290434Y0172402D03*
X0282166Y0172402D03*
X0274095Y0172402D03*
X0266024Y0172402D03*
X0266024Y0164134D03*
X0274095Y0164134D03*
X0282166Y0164134D03*
X0290434Y0164134D03*
X0298505Y0164134D03*
X0306576Y0164134D03*
X0306576Y0155866D03*
X0298505Y0155866D03*
X0290434Y0155866D03*
X0282166Y0155866D03*
X0274095Y0155866D03*
X0266024Y0155866D03*
X0266024Y0147598D03*
X0274095Y0147598D03*
X0282166Y0147598D03*
X0282166Y0139331D03*
X0274095Y0139331D03*
X0266024Y0139331D03*
X0266024Y0131063D03*
X0274095Y0131063D03*
X0282166Y0131063D03*
X0290434Y0131063D03*
X0298505Y0131063D03*
X0306576Y0131063D03*
X0306576Y0139331D03*
X0298505Y0139331D03*
X0290434Y0139331D03*
X0290434Y0147598D03*
X0298505Y0147598D03*
X0306576Y0147598D03*
D30*
X0211300Y0131890D03*
X0211300Y0129921D03*
X0211300Y0127953D03*
X0211300Y0125984D03*
X0211300Y0124016D03*
X0211300Y0122047D03*
X0211300Y0120079D03*
X0211300Y0118110D03*
D31*
X0211300Y0112303D03*
X0211300Y0137697D03*
D32*
X0211300Y0134646D03*
X0211300Y0115354D03*
D33*
X0205611Y0113622D03*
X0205611Y0136378D03*
D34*
X0205316Y0139646D02*
X0204817Y0139726D01*
X0204349Y0139916D01*
X0203934Y0140205D01*
X0203594Y0140579D01*
X0203346Y0141019D01*
X0203202Y0141504D01*
X0203170Y0142008D01*
X0203202Y0142512D01*
X0203346Y0142997D01*
X0203594Y0143437D01*
X0203934Y0143811D01*
X0204349Y0144100D01*
X0204817Y0144289D01*
X0205316Y0144370D01*
X0210040Y0144370D01*
X0210482Y0144309D01*
X0210903Y0144163D01*
X0211288Y0143938D01*
X0211622Y0143642D01*
X0211891Y0143286D01*
X0212086Y0142885D01*
X0212199Y0142453D01*
X0212225Y0142008D01*
X0212199Y0141563D01*
X0212086Y0141131D01*
X0211891Y0140730D01*
X0211622Y0140374D01*
X0211288Y0140078D01*
X0210903Y0139853D01*
X0210482Y0139707D01*
X0210040Y0139646D01*
X0205316Y0139646D01*
X0205205Y0139664D02*
X0210170Y0139664D01*
X0210444Y0139701D02*
X0204971Y0139701D01*
X0204785Y0139739D02*
X0210576Y0139739D01*
X0210686Y0139777D02*
X0204691Y0139777D01*
X0204598Y0139815D02*
X0210795Y0139815D01*
X0210904Y0139853D02*
X0204504Y0139853D01*
X0204410Y0139891D02*
X0210969Y0139891D01*
X0211033Y0139929D02*
X0204330Y0139929D01*
X0204276Y0139967D02*
X0211098Y0139967D01*
X0211163Y0140004D02*
X0204221Y0140004D01*
X0204167Y0140042D02*
X0211227Y0140042D01*
X0211291Y0140080D02*
X0204113Y0140080D01*
X0204059Y0140118D02*
X0211334Y0140118D01*
X0211376Y0140156D02*
X0204004Y0140156D01*
X0203950Y0140194D02*
X0211419Y0140194D01*
X0211461Y0140232D02*
X0203910Y0140232D01*
X0203875Y0140270D02*
X0211504Y0140270D01*
X0211547Y0140308D02*
X0203841Y0140308D01*
X0203806Y0140345D02*
X0211589Y0140345D01*
X0211629Y0140383D02*
X0203772Y0140383D01*
X0203738Y0140421D02*
X0211657Y0140421D01*
X0211686Y0140459D02*
X0203703Y0140459D01*
X0203669Y0140497D02*
X0211715Y0140497D01*
X0211744Y0140535D02*
X0203634Y0140535D01*
X0203600Y0140573D02*
X0211772Y0140573D01*
X0211801Y0140611D02*
X0203577Y0140611D01*
X0203555Y0140648D02*
X0211830Y0140648D01*
X0211858Y0140686D02*
X0203534Y0140686D01*
X0203512Y0140724D02*
X0211887Y0140724D01*
X0211907Y0140762D02*
X0203491Y0140762D01*
X0203470Y0140800D02*
X0211925Y0140800D01*
X0211944Y0140838D02*
X0203448Y0140838D01*
X0203427Y0140876D02*
X0211962Y0140876D01*
X0211980Y0140914D02*
X0203406Y0140914D01*
X0203384Y0140952D02*
X0211999Y0140952D01*
X0212017Y0140989D02*
X0203363Y0140989D01*
X0203344Y0141027D02*
X0212036Y0141027D01*
X0212054Y0141065D02*
X0203333Y0141065D01*
X0203321Y0141103D02*
X0212072Y0141103D01*
X0212089Y0141141D02*
X0203310Y0141141D01*
X0203299Y0141179D02*
X0212099Y0141179D01*
X0212108Y0141217D02*
X0203288Y0141217D01*
X0203276Y0141255D02*
X0212118Y0141255D01*
X0212128Y0141292D02*
X0203265Y0141292D01*
X0203254Y0141330D02*
X0212138Y0141330D01*
X0212148Y0141368D02*
X0203243Y0141368D01*
X0203231Y0141406D02*
X0212158Y0141406D01*
X0212168Y0141444D02*
X0203220Y0141444D01*
X0203209Y0141482D02*
X0212178Y0141482D01*
X0212188Y0141520D02*
X0203201Y0141520D01*
X0203199Y0141558D02*
X0212197Y0141558D01*
X0212201Y0141595D02*
X0203197Y0141595D01*
X0203194Y0141633D02*
X0212203Y0141633D01*
X0212205Y0141671D02*
X0203192Y0141671D01*
X0203189Y0141709D02*
X0212207Y0141709D01*
X0212210Y0141747D02*
X0203187Y0141747D01*
X0203184Y0141785D02*
X0212212Y0141785D01*
X0212214Y0141823D02*
X0203182Y0141823D01*
X0203180Y0141861D02*
X0212216Y0141861D01*
X0212219Y0141899D02*
X0203177Y0141899D01*
X0203175Y0141936D02*
X0212221Y0141936D01*
X0212223Y0141974D02*
X0203172Y0141974D01*
X0203170Y0142012D02*
X0212225Y0142012D01*
X0212223Y0142050D02*
X0203173Y0142050D01*
X0203175Y0142088D02*
X0212220Y0142088D01*
X0212218Y0142126D02*
X0203178Y0142126D01*
X0203180Y0142164D02*
X0212216Y0142164D01*
X0212214Y0142202D02*
X0203183Y0142202D01*
X0203185Y0142239D02*
X0212211Y0142239D01*
X0212209Y0142277D02*
X0203187Y0142277D01*
X0203190Y0142315D02*
X0212207Y0142315D01*
X0212205Y0142353D02*
X0203192Y0142353D01*
X0203195Y0142391D02*
X0212202Y0142391D01*
X0212200Y0142429D02*
X0203197Y0142429D01*
X0203200Y0142467D02*
X0212195Y0142467D01*
X0212185Y0142505D02*
X0203202Y0142505D01*
X0203212Y0142543D02*
X0212175Y0142543D01*
X0212166Y0142580D02*
X0203223Y0142580D01*
X0203234Y0142618D02*
X0212156Y0142618D01*
X0212146Y0142656D02*
X0203245Y0142656D01*
X0203256Y0142694D02*
X0212136Y0142694D01*
X0212126Y0142732D02*
X0203268Y0142732D01*
X0203279Y0142770D02*
X0212116Y0142770D01*
X0212106Y0142808D02*
X0203290Y0142808D01*
X0203301Y0142846D02*
X0212096Y0142846D01*
X0212086Y0142883D02*
X0203313Y0142883D01*
X0203324Y0142921D02*
X0212068Y0142921D01*
X0212050Y0142959D02*
X0203335Y0142959D01*
X0203347Y0142997D02*
X0212031Y0142997D01*
X0212013Y0143035D02*
X0203368Y0143035D01*
X0203389Y0143073D02*
X0211995Y0143073D01*
X0211976Y0143111D02*
X0203411Y0143111D01*
X0203432Y0143149D02*
X0211958Y0143149D01*
X0211940Y0143187D02*
X0203453Y0143187D01*
X0203475Y0143224D02*
X0211921Y0143224D01*
X0211903Y0143262D02*
X0203496Y0143262D01*
X0203517Y0143300D02*
X0211880Y0143300D01*
X0211852Y0143338D02*
X0203539Y0143338D01*
X0203560Y0143376D02*
X0211823Y0143376D01*
X0211794Y0143414D02*
X0203581Y0143414D01*
X0203608Y0143452D02*
X0211766Y0143452D01*
X0211737Y0143490D02*
X0203642Y0143490D01*
X0203677Y0143527D02*
X0211708Y0143527D01*
X0211680Y0143565D02*
X0203711Y0143565D01*
X0203745Y0143603D02*
X0211651Y0143603D01*
X0211622Y0143641D02*
X0203780Y0143641D01*
X0203814Y0143679D02*
X0211580Y0143679D01*
X0211537Y0143717D02*
X0203849Y0143717D01*
X0203883Y0143755D02*
X0211494Y0143755D01*
X0211452Y0143793D02*
X0203918Y0143793D01*
X0203962Y0143830D02*
X0211409Y0143830D01*
X0211366Y0143868D02*
X0204017Y0143868D01*
X0204071Y0143906D02*
X0211324Y0143906D01*
X0211277Y0143944D02*
X0204125Y0143944D01*
X0204180Y0143982D02*
X0211213Y0143982D01*
X0211148Y0144020D02*
X0204234Y0144020D01*
X0204288Y0144058D02*
X0211083Y0144058D01*
X0211019Y0144096D02*
X0204342Y0144096D01*
X0204432Y0144134D02*
X0210954Y0144134D01*
X0210879Y0144171D02*
X0204525Y0144171D01*
X0204619Y0144209D02*
X0210770Y0144209D01*
X0210661Y0144247D02*
X0204712Y0144247D01*
X0204806Y0144285D02*
X0210551Y0144285D01*
X0210382Y0144323D02*
X0205024Y0144323D01*
X0205259Y0144361D02*
X0210107Y0144361D01*
X0194723Y0142535D02*
X0194784Y0142008D01*
X0194737Y0141545D01*
X0194600Y0141101D01*
X0194379Y0140692D01*
X0194083Y0140333D01*
X0193722Y0140040D01*
X0193311Y0139822D01*
X0192865Y0139689D01*
X0192402Y0139646D01*
X0190040Y0139646D01*
X0189581Y0139693D01*
X0189141Y0139828D01*
X0188735Y0140048D01*
X0188380Y0140342D01*
X0188089Y0140699D01*
X0187873Y0141107D01*
X0187741Y0141549D01*
X0187698Y0142008D01*
X0187754Y0142532D01*
X0187926Y0143030D01*
X0188205Y0143477D01*
X0188576Y0143851D01*
X0189020Y0144133D01*
X0189517Y0144309D01*
X0190040Y0144370D01*
X0192402Y0144370D01*
X0192930Y0144313D01*
X0193433Y0144139D01*
X0193883Y0143859D01*
X0194261Y0143485D01*
X0194545Y0143036D01*
X0194723Y0142535D01*
X0194720Y0142543D02*
X0187758Y0142543D01*
X0187752Y0142505D02*
X0194726Y0142505D01*
X0194731Y0142467D02*
X0187747Y0142467D01*
X0187743Y0142429D02*
X0194735Y0142429D01*
X0194739Y0142391D02*
X0187739Y0142391D01*
X0187735Y0142353D02*
X0194744Y0142353D01*
X0194748Y0142315D02*
X0187731Y0142315D01*
X0187727Y0142277D02*
X0194753Y0142277D01*
X0194757Y0142239D02*
X0187723Y0142239D01*
X0187719Y0142202D02*
X0194762Y0142202D01*
X0194766Y0142164D02*
X0187715Y0142164D01*
X0187710Y0142126D02*
X0194770Y0142126D01*
X0194775Y0142088D02*
X0187706Y0142088D01*
X0187702Y0142050D02*
X0194779Y0142050D01*
X0194784Y0142012D02*
X0187698Y0142012D01*
X0187701Y0141974D02*
X0194781Y0141974D01*
X0194777Y0141936D02*
X0187704Y0141936D01*
X0187708Y0141899D02*
X0194773Y0141899D01*
X0194769Y0141861D02*
X0187712Y0141861D01*
X0187715Y0141823D02*
X0194765Y0141823D01*
X0194761Y0141785D02*
X0187719Y0141785D01*
X0187722Y0141747D02*
X0194757Y0141747D01*
X0194754Y0141709D02*
X0187726Y0141709D01*
X0187729Y0141671D02*
X0194750Y0141671D01*
X0194746Y0141633D02*
X0187733Y0141633D01*
X0187737Y0141595D02*
X0194742Y0141595D01*
X0194738Y0141558D02*
X0187740Y0141558D01*
X0187750Y0141520D02*
X0194729Y0141520D01*
X0194717Y0141482D02*
X0187761Y0141482D01*
X0187772Y0141444D02*
X0194706Y0141444D01*
X0194694Y0141406D02*
X0187784Y0141406D01*
X0187795Y0141368D02*
X0194682Y0141368D01*
X0194671Y0141330D02*
X0187806Y0141330D01*
X0187818Y0141292D02*
X0194659Y0141292D01*
X0194647Y0141255D02*
X0187829Y0141255D01*
X0187840Y0141217D02*
X0194636Y0141217D01*
X0194624Y0141179D02*
X0187851Y0141179D01*
X0187863Y0141141D02*
X0194612Y0141141D01*
X0194601Y0141103D02*
X0187875Y0141103D01*
X0187895Y0141065D02*
X0194581Y0141065D01*
X0194560Y0141027D02*
X0187915Y0141027D01*
X0187935Y0140989D02*
X0194540Y0140989D01*
X0194519Y0140952D02*
X0187955Y0140952D01*
X0187975Y0140914D02*
X0194499Y0140914D01*
X0194478Y0140876D02*
X0187995Y0140876D01*
X0188015Y0140838D02*
X0194458Y0140838D01*
X0194437Y0140800D02*
X0188035Y0140800D01*
X0188055Y0140762D02*
X0194417Y0140762D01*
X0194397Y0140724D02*
X0188075Y0140724D01*
X0188099Y0140686D02*
X0194375Y0140686D01*
X0194343Y0140648D02*
X0188130Y0140648D01*
X0188161Y0140611D02*
X0194312Y0140611D01*
X0194281Y0140573D02*
X0188192Y0140573D01*
X0188222Y0140535D02*
X0194249Y0140535D01*
X0194218Y0140497D02*
X0188253Y0140497D01*
X0188284Y0140459D02*
X0194186Y0140459D01*
X0194155Y0140421D02*
X0188315Y0140421D01*
X0188346Y0140383D02*
X0194124Y0140383D01*
X0194092Y0140345D02*
X0188377Y0140345D01*
X0188421Y0140308D02*
X0194051Y0140308D01*
X0194004Y0140270D02*
X0188467Y0140270D01*
X0188512Y0140232D02*
X0193958Y0140232D01*
X0193911Y0140194D02*
X0188558Y0140194D01*
X0188604Y0140156D02*
X0193864Y0140156D01*
X0193818Y0140118D02*
X0188650Y0140118D01*
X0188695Y0140080D02*
X0193771Y0140080D01*
X0193725Y0140042D02*
X0188745Y0140042D01*
X0188815Y0140004D02*
X0193655Y0140004D01*
X0193583Y0139967D02*
X0188885Y0139967D01*
X0188955Y0139929D02*
X0193512Y0139929D01*
X0193440Y0139891D02*
X0189025Y0139891D01*
X0189095Y0139853D02*
X0193368Y0139853D01*
X0193286Y0139815D02*
X0189184Y0139815D01*
X0189307Y0139777D02*
X0193159Y0139777D01*
X0193033Y0139739D02*
X0189430Y0139739D01*
X0189553Y0139701D02*
X0192906Y0139701D01*
X0192592Y0139664D02*
X0189866Y0139664D01*
X0187771Y0142580D02*
X0194707Y0142580D01*
X0194693Y0142618D02*
X0187784Y0142618D01*
X0187797Y0142656D02*
X0194680Y0142656D01*
X0194666Y0142694D02*
X0187811Y0142694D01*
X0187824Y0142732D02*
X0194653Y0142732D01*
X0194639Y0142770D02*
X0187837Y0142770D01*
X0187850Y0142808D02*
X0194626Y0142808D01*
X0194613Y0142846D02*
X0187863Y0142846D01*
X0187876Y0142883D02*
X0194599Y0142883D01*
X0194586Y0142921D02*
X0187889Y0142921D01*
X0187902Y0142959D02*
X0194572Y0142959D01*
X0194559Y0142997D02*
X0187915Y0142997D01*
X0187930Y0143035D02*
X0194545Y0143035D01*
X0194522Y0143073D02*
X0187953Y0143073D01*
X0187977Y0143111D02*
X0194498Y0143111D01*
X0194474Y0143149D02*
X0188000Y0143149D01*
X0188024Y0143187D02*
X0194450Y0143187D01*
X0194426Y0143224D02*
X0188048Y0143224D01*
X0188071Y0143262D02*
X0194402Y0143262D01*
X0194378Y0143300D02*
X0188095Y0143300D01*
X0188118Y0143338D02*
X0194354Y0143338D01*
X0194330Y0143376D02*
X0188142Y0143376D01*
X0188166Y0143414D02*
X0194306Y0143414D01*
X0194282Y0143452D02*
X0188189Y0143452D01*
X0188217Y0143490D02*
X0194256Y0143490D01*
X0194217Y0143527D02*
X0188255Y0143527D01*
X0188293Y0143565D02*
X0194179Y0143565D01*
X0194141Y0143603D02*
X0188330Y0143603D01*
X0188368Y0143641D02*
X0194103Y0143641D01*
X0194065Y0143679D02*
X0188405Y0143679D01*
X0188443Y0143717D02*
X0194026Y0143717D01*
X0193988Y0143755D02*
X0188480Y0143755D01*
X0188518Y0143793D02*
X0193950Y0143793D01*
X0193912Y0143830D02*
X0188556Y0143830D01*
X0188603Y0143868D02*
X0193868Y0143868D01*
X0193807Y0143906D02*
X0188663Y0143906D01*
X0188723Y0143944D02*
X0193746Y0143944D01*
X0193685Y0143982D02*
X0188783Y0143982D01*
X0188842Y0144020D02*
X0193625Y0144020D01*
X0193564Y0144058D02*
X0188902Y0144058D01*
X0188962Y0144096D02*
X0193503Y0144096D01*
X0193442Y0144134D02*
X0189022Y0144134D01*
X0189129Y0144171D02*
X0193340Y0144171D01*
X0193230Y0144209D02*
X0189236Y0144209D01*
X0189343Y0144247D02*
X0193120Y0144247D01*
X0193011Y0144285D02*
X0189450Y0144285D01*
X0189637Y0144323D02*
X0192837Y0144323D01*
X0192488Y0144361D02*
X0189961Y0144361D01*
X0190040Y0110354D02*
X0189517Y0110293D01*
X0189020Y0110117D01*
X0188576Y0109835D01*
X0188205Y0109461D01*
X0187926Y0109014D01*
X0187754Y0108516D01*
X0187698Y0107992D01*
X0187741Y0107533D01*
X0187873Y0107091D01*
X0188089Y0106684D01*
X0188380Y0106326D01*
X0188735Y0106032D01*
X0189141Y0105813D01*
X0189581Y0105677D01*
X0190040Y0105630D01*
X0192402Y0105630D01*
X0192865Y0105674D01*
X0193311Y0105807D01*
X0193722Y0106024D01*
X0194083Y0106318D01*
X0194379Y0106676D01*
X0194600Y0107085D01*
X0194737Y0107530D01*
X0194784Y0107992D01*
X0194723Y0108520D01*
X0194545Y0109020D01*
X0194261Y0109469D01*
X0193883Y0109843D01*
X0193433Y0110124D01*
X0192930Y0110297D01*
X0192402Y0110354D01*
X0190040Y0110354D01*
X0189946Y0110343D02*
X0192504Y0110343D01*
X0192853Y0110305D02*
X0189622Y0110305D01*
X0189445Y0110268D02*
X0193016Y0110268D01*
X0193125Y0110230D02*
X0189338Y0110230D01*
X0189231Y0110192D02*
X0193235Y0110192D01*
X0193345Y0110154D02*
X0189124Y0110154D01*
X0189019Y0110116D02*
X0193445Y0110116D01*
X0193506Y0110078D02*
X0188959Y0110078D01*
X0188899Y0110040D02*
X0193566Y0110040D01*
X0193627Y0110002D02*
X0188840Y0110002D01*
X0188780Y0109965D02*
X0193688Y0109965D01*
X0193749Y0109927D02*
X0188720Y0109927D01*
X0188660Y0109889D02*
X0193810Y0109889D01*
X0193871Y0109851D02*
X0188601Y0109851D01*
X0188554Y0109813D02*
X0193914Y0109813D01*
X0193952Y0109775D02*
X0188516Y0109775D01*
X0188479Y0109737D02*
X0193990Y0109737D01*
X0194028Y0109699D02*
X0188441Y0109699D01*
X0188404Y0109661D02*
X0194066Y0109661D01*
X0194105Y0109624D02*
X0188366Y0109624D01*
X0188328Y0109586D02*
X0194143Y0109586D01*
X0194181Y0109548D02*
X0188291Y0109548D01*
X0188253Y0109510D02*
X0194219Y0109510D01*
X0194257Y0109472D02*
X0188216Y0109472D01*
X0188188Y0109434D02*
X0194283Y0109434D01*
X0194307Y0109396D02*
X0188164Y0109396D01*
X0188141Y0109358D02*
X0194331Y0109358D01*
X0194355Y0109321D02*
X0188117Y0109321D01*
X0188094Y0109283D02*
X0194379Y0109283D01*
X0194403Y0109245D02*
X0188070Y0109245D01*
X0188047Y0109207D02*
X0194427Y0109207D01*
X0194451Y0109169D02*
X0188023Y0109169D01*
X0187999Y0109131D02*
X0194475Y0109131D01*
X0194499Y0109093D02*
X0187976Y0109093D01*
X0187952Y0109055D02*
X0194523Y0109055D01*
X0194546Y0109017D02*
X0187929Y0109017D01*
X0187915Y0108980D02*
X0194560Y0108980D01*
X0194573Y0108942D02*
X0187901Y0108942D01*
X0187888Y0108904D02*
X0194586Y0108904D01*
X0194600Y0108866D02*
X0187875Y0108866D01*
X0187862Y0108828D02*
X0194613Y0108828D01*
X0194627Y0108790D02*
X0187849Y0108790D01*
X0187836Y0108752D02*
X0194640Y0108752D01*
X0194654Y0108714D02*
X0187823Y0108714D01*
X0187810Y0108677D02*
X0194667Y0108677D01*
X0194680Y0108639D02*
X0187797Y0108639D01*
X0187784Y0108601D02*
X0194694Y0108601D01*
X0194707Y0108563D02*
X0187771Y0108563D01*
X0187758Y0108525D02*
X0194721Y0108525D01*
X0194726Y0108487D02*
X0187751Y0108487D01*
X0187747Y0108449D02*
X0194731Y0108449D01*
X0194735Y0108411D02*
X0187743Y0108411D01*
X0187739Y0108374D02*
X0194740Y0108374D01*
X0194744Y0108336D02*
X0187735Y0108336D01*
X0187731Y0108298D02*
X0194749Y0108298D01*
X0194753Y0108260D02*
X0187727Y0108260D01*
X0187723Y0108222D02*
X0194757Y0108222D01*
X0194762Y0108184D02*
X0187718Y0108184D01*
X0187714Y0108146D02*
X0194766Y0108146D01*
X0194771Y0108108D02*
X0187710Y0108108D01*
X0187706Y0108070D02*
X0194775Y0108070D01*
X0194780Y0108033D02*
X0187702Y0108033D01*
X0187698Y0107995D02*
X0194784Y0107995D01*
X0194781Y0107957D02*
X0187701Y0107957D01*
X0187705Y0107919D02*
X0194777Y0107919D01*
X0194773Y0107881D02*
X0187708Y0107881D01*
X0187712Y0107843D02*
X0194769Y0107843D01*
X0194765Y0107805D02*
X0187715Y0107805D01*
X0187719Y0107767D02*
X0194761Y0107767D01*
X0194757Y0107730D02*
X0187722Y0107730D01*
X0187726Y0107692D02*
X0194753Y0107692D01*
X0194750Y0107654D02*
X0187730Y0107654D01*
X0187733Y0107616D02*
X0194746Y0107616D01*
X0194742Y0107578D02*
X0187737Y0107578D01*
X0187740Y0107540D02*
X0194738Y0107540D01*
X0194728Y0107502D02*
X0187750Y0107502D01*
X0187761Y0107464D02*
X0194717Y0107464D01*
X0194705Y0107426D02*
X0187773Y0107426D01*
X0187784Y0107389D02*
X0194693Y0107389D01*
X0194682Y0107351D02*
X0187795Y0107351D01*
X0187807Y0107313D02*
X0194670Y0107313D01*
X0194658Y0107275D02*
X0187818Y0107275D01*
X0187829Y0107237D02*
X0194647Y0107237D01*
X0194635Y0107199D02*
X0187841Y0107199D01*
X0187852Y0107161D02*
X0194623Y0107161D01*
X0194612Y0107123D02*
X0187863Y0107123D01*
X0187876Y0107086D02*
X0194600Y0107086D01*
X0194580Y0107048D02*
X0187896Y0107048D01*
X0187916Y0107010D02*
X0194559Y0107010D01*
X0194539Y0106972D02*
X0187936Y0106972D01*
X0187956Y0106934D02*
X0194518Y0106934D01*
X0194498Y0106896D02*
X0187976Y0106896D01*
X0187996Y0106858D02*
X0194477Y0106858D01*
X0194457Y0106820D02*
X0188016Y0106820D01*
X0188036Y0106782D02*
X0194437Y0106782D01*
X0194416Y0106745D02*
X0188056Y0106745D01*
X0188076Y0106707D02*
X0194396Y0106707D01*
X0194373Y0106669D02*
X0188101Y0106669D01*
X0188131Y0106631D02*
X0194342Y0106631D01*
X0194310Y0106593D02*
X0188162Y0106593D01*
X0188193Y0106555D02*
X0194279Y0106555D01*
X0194248Y0106517D02*
X0188224Y0106517D01*
X0188255Y0106479D02*
X0194216Y0106479D01*
X0194185Y0106442D02*
X0188286Y0106442D01*
X0188316Y0106404D02*
X0194154Y0106404D01*
X0194122Y0106366D02*
X0188347Y0106366D01*
X0188378Y0106328D02*
X0194091Y0106328D01*
X0194049Y0106290D02*
X0188423Y0106290D01*
X0188469Y0106252D02*
X0194002Y0106252D01*
X0193955Y0106214D02*
X0188515Y0106214D01*
X0188560Y0106176D02*
X0193909Y0106176D01*
X0193862Y0106139D02*
X0188606Y0106139D01*
X0188652Y0106101D02*
X0193816Y0106101D01*
X0193769Y0106063D02*
X0188698Y0106063D01*
X0188748Y0106025D02*
X0193723Y0106025D01*
X0193652Y0105987D02*
X0188818Y0105987D01*
X0188888Y0105949D02*
X0193580Y0105949D01*
X0193508Y0105911D02*
X0188958Y0105911D01*
X0189028Y0105873D02*
X0193437Y0105873D01*
X0193365Y0105835D02*
X0189099Y0105835D01*
X0189190Y0105798D02*
X0193280Y0105798D01*
X0193153Y0105760D02*
X0189313Y0105760D01*
X0189436Y0105722D02*
X0193027Y0105722D01*
X0192900Y0105684D02*
X0189559Y0105684D01*
X0189883Y0105646D02*
X0192573Y0105646D01*
X0203202Y0107488D02*
X0203170Y0107992D01*
X0203202Y0108496D01*
X0203346Y0108981D01*
X0203594Y0109421D01*
X0203934Y0109795D01*
X0204349Y0110084D01*
X0204817Y0110274D01*
X0205316Y0110354D01*
X0210040Y0110354D01*
X0210482Y0110293D01*
X0210903Y0110147D01*
X0211288Y0109922D01*
X0211622Y0109626D01*
X0211891Y0109270D01*
X0212086Y0108869D01*
X0212199Y0108437D01*
X0212225Y0107992D01*
X0212199Y0107547D01*
X0212086Y0107115D01*
X0211891Y0106714D01*
X0211622Y0106358D01*
X0211288Y0106062D01*
X0210903Y0105837D01*
X0210482Y0105691D01*
X0210040Y0105630D01*
X0205316Y0105630D01*
X0204817Y0105711D01*
X0204349Y0105900D01*
X0203934Y0106189D01*
X0203594Y0106563D01*
X0203346Y0107003D01*
X0203202Y0107488D01*
X0203202Y0107502D02*
X0212187Y0107502D01*
X0212177Y0107464D02*
X0203209Y0107464D01*
X0203221Y0107426D02*
X0212167Y0107426D01*
X0212157Y0107389D02*
X0203232Y0107389D01*
X0203243Y0107351D02*
X0212148Y0107351D01*
X0212138Y0107313D02*
X0203254Y0107313D01*
X0203266Y0107275D02*
X0212128Y0107275D01*
X0212118Y0107237D02*
X0203277Y0107237D01*
X0203288Y0107199D02*
X0212108Y0107199D01*
X0212098Y0107161D02*
X0203299Y0107161D01*
X0203311Y0107123D02*
X0212088Y0107123D01*
X0212072Y0107086D02*
X0203322Y0107086D01*
X0203333Y0107048D02*
X0212053Y0107048D01*
X0212035Y0107010D02*
X0203344Y0107010D01*
X0203364Y0106972D02*
X0212016Y0106972D01*
X0211998Y0106934D02*
X0203385Y0106934D01*
X0203407Y0106896D02*
X0211980Y0106896D01*
X0211961Y0106858D02*
X0203428Y0106858D01*
X0203449Y0106820D02*
X0211943Y0106820D01*
X0211924Y0106782D02*
X0203471Y0106782D01*
X0203492Y0106745D02*
X0211906Y0106745D01*
X0211886Y0106707D02*
X0203513Y0106707D01*
X0203535Y0106669D02*
X0211857Y0106669D01*
X0211828Y0106631D02*
X0203556Y0106631D01*
X0203577Y0106593D02*
X0211800Y0106593D01*
X0211771Y0106555D02*
X0203602Y0106555D01*
X0203636Y0106517D02*
X0211742Y0106517D01*
X0211714Y0106479D02*
X0203670Y0106479D01*
X0203705Y0106442D02*
X0211685Y0106442D01*
X0211656Y0106404D02*
X0203739Y0106404D01*
X0203774Y0106366D02*
X0211627Y0106366D01*
X0211587Y0106328D02*
X0203808Y0106328D01*
X0203842Y0106290D02*
X0211545Y0106290D01*
X0211502Y0106252D02*
X0203877Y0106252D01*
X0203911Y0106214D02*
X0211460Y0106214D01*
X0211417Y0106176D02*
X0203952Y0106176D01*
X0204007Y0106139D02*
X0211374Y0106139D01*
X0211332Y0106101D02*
X0204061Y0106101D01*
X0204115Y0106063D02*
X0211289Y0106063D01*
X0211224Y0106025D02*
X0204170Y0106025D01*
X0204224Y0105987D02*
X0211160Y0105987D01*
X0211095Y0105949D02*
X0204278Y0105949D01*
X0204333Y0105911D02*
X0211030Y0105911D01*
X0210966Y0105873D02*
X0204415Y0105873D01*
X0204508Y0105835D02*
X0210899Y0105835D01*
X0210790Y0105798D02*
X0204602Y0105798D01*
X0204695Y0105760D02*
X0210681Y0105760D01*
X0210571Y0105722D02*
X0204789Y0105722D01*
X0204981Y0105684D02*
X0210432Y0105684D01*
X0210157Y0105646D02*
X0205216Y0105646D01*
X0203199Y0107540D02*
X0212197Y0107540D01*
X0212201Y0107578D02*
X0203197Y0107578D01*
X0203194Y0107616D02*
X0212203Y0107616D01*
X0212205Y0107654D02*
X0203192Y0107654D01*
X0203189Y0107692D02*
X0212207Y0107692D01*
X0212210Y0107730D02*
X0203187Y0107730D01*
X0203185Y0107767D02*
X0212212Y0107767D01*
X0212214Y0107805D02*
X0203182Y0107805D01*
X0203180Y0107843D02*
X0212216Y0107843D01*
X0212219Y0107881D02*
X0203177Y0107881D01*
X0203175Y0107919D02*
X0212221Y0107919D01*
X0212223Y0107957D02*
X0203172Y0107957D01*
X0203170Y0107995D02*
X0212225Y0107995D01*
X0212223Y0108033D02*
X0203173Y0108033D01*
X0203175Y0108070D02*
X0212221Y0108070D01*
X0212218Y0108108D02*
X0203178Y0108108D01*
X0203180Y0108146D02*
X0212216Y0108146D01*
X0212214Y0108184D02*
X0203182Y0108184D01*
X0203185Y0108222D02*
X0212212Y0108222D01*
X0212209Y0108260D02*
X0203187Y0108260D01*
X0203190Y0108298D02*
X0212207Y0108298D01*
X0212205Y0108336D02*
X0203192Y0108336D01*
X0203195Y0108374D02*
X0212203Y0108374D01*
X0212200Y0108411D02*
X0203197Y0108411D01*
X0203199Y0108449D02*
X0212196Y0108449D01*
X0212186Y0108487D02*
X0203202Y0108487D01*
X0203211Y0108525D02*
X0212176Y0108525D01*
X0212166Y0108563D02*
X0203222Y0108563D01*
X0203233Y0108601D02*
X0212156Y0108601D01*
X0212146Y0108639D02*
X0203245Y0108639D01*
X0203256Y0108677D02*
X0212136Y0108677D01*
X0212126Y0108714D02*
X0203267Y0108714D01*
X0203278Y0108752D02*
X0212116Y0108752D01*
X0212107Y0108790D02*
X0203290Y0108790D01*
X0203301Y0108828D02*
X0212097Y0108828D01*
X0212087Y0108866D02*
X0203312Y0108866D01*
X0203323Y0108904D02*
X0212069Y0108904D01*
X0212051Y0108942D02*
X0203335Y0108942D01*
X0203346Y0108980D02*
X0212032Y0108980D01*
X0212014Y0109017D02*
X0203367Y0109017D01*
X0203388Y0109055D02*
X0211996Y0109055D01*
X0211977Y0109093D02*
X0203410Y0109093D01*
X0203431Y0109131D02*
X0211959Y0109131D01*
X0211940Y0109169D02*
X0203452Y0109169D01*
X0203474Y0109207D02*
X0211922Y0109207D01*
X0211904Y0109245D02*
X0203495Y0109245D01*
X0203516Y0109283D02*
X0211882Y0109283D01*
X0211853Y0109321D02*
X0203538Y0109321D01*
X0203559Y0109358D02*
X0211824Y0109358D01*
X0211796Y0109396D02*
X0203580Y0109396D01*
X0203606Y0109434D02*
X0211767Y0109434D01*
X0211738Y0109472D02*
X0203641Y0109472D01*
X0203675Y0109510D02*
X0211710Y0109510D01*
X0211681Y0109548D02*
X0203709Y0109548D01*
X0203744Y0109586D02*
X0211652Y0109586D01*
X0211624Y0109624D02*
X0203778Y0109624D01*
X0203813Y0109661D02*
X0211582Y0109661D01*
X0211539Y0109699D02*
X0203847Y0109699D01*
X0203882Y0109737D02*
X0211496Y0109737D01*
X0211454Y0109775D02*
X0203916Y0109775D01*
X0203960Y0109813D02*
X0211411Y0109813D01*
X0211368Y0109851D02*
X0204014Y0109851D01*
X0204068Y0109889D02*
X0211326Y0109889D01*
X0211280Y0109927D02*
X0204123Y0109927D01*
X0204177Y0109965D02*
X0211216Y0109965D01*
X0211151Y0110002D02*
X0204231Y0110002D01*
X0204286Y0110040D02*
X0211086Y0110040D01*
X0211022Y0110078D02*
X0204340Y0110078D01*
X0204427Y0110116D02*
X0210957Y0110116D01*
X0210885Y0110154D02*
X0204521Y0110154D01*
X0204615Y0110192D02*
X0210775Y0110192D01*
X0210666Y0110230D02*
X0204708Y0110230D01*
X0204802Y0110268D02*
X0210556Y0110268D01*
X0210394Y0110305D02*
X0205013Y0110305D01*
X0205248Y0110343D02*
X0210120Y0110343D01*
M02*
