G75*
%MOIN*%
%OFA0B0*%
%FSLAX25Y25*%
%IPPOS*%
%LPD*%
%AMOC8*
5,1,8,0,0,1.08239X$1,22.5*
%
%ADD10C,0.00800*%
%ADD11C,0.07400*%
%ADD12R,0.05000X0.02500*%
%ADD13R,0.01000X0.01600*%
%ADD14C,0.02500*%
%ADD15C,0.03937*%
%ADD16C,0.02400*%
%ADD17C,0.00600*%
%ADD18C,0.02000*%
D10*
X0194001Y0105000D02*
X0194018Y0105007D01*
X0194569Y0105376D01*
X0195039Y0105845D01*
X0195407Y0106397D01*
X0195661Y0107010D01*
X0195777Y0107592D01*
X0191641Y0107592D01*
X0191641Y0108392D01*
X0195777Y0108392D01*
X0195661Y0108975D01*
X0195407Y0109588D01*
X0195039Y0110139D01*
X0194569Y0110609D01*
X0194018Y0110977D01*
X0193405Y0111231D01*
X0192754Y0111361D01*
X0191641Y0111361D01*
X0191641Y0108392D01*
X0190841Y0108392D01*
X0190841Y0111361D01*
X0189728Y0111361D01*
X0189077Y0111231D01*
X0188464Y0110977D01*
X0187913Y0110609D01*
X0187700Y0110396D01*
X0187700Y0139604D01*
X0187913Y0139391D01*
X0188464Y0139023D01*
X0189077Y0138769D01*
X0189728Y0138639D01*
X0190841Y0138639D01*
X0190841Y0141608D01*
X0191641Y0141608D01*
X0191641Y0142408D01*
X0195777Y0142408D01*
X0195661Y0142990D01*
X0195407Y0143603D01*
X0195039Y0144155D01*
X0194569Y0144624D01*
X0194018Y0144993D01*
X0194001Y0145000D01*
X0203954Y0145000D01*
X0203937Y0144993D01*
X0203385Y0144624D01*
X0202916Y0144155D01*
X0202547Y0143603D01*
X0202293Y0142990D01*
X0202177Y0142408D01*
X0207298Y0142408D01*
X0207298Y0141608D01*
X0208098Y0141608D01*
X0208098Y0138639D01*
X0210195Y0138639D01*
X0210846Y0138769D01*
X0211300Y0138957D01*
X0211300Y0111043D01*
X0210846Y0111231D01*
X0210195Y0111361D01*
X0208098Y0111361D01*
X0208098Y0108392D01*
X0207298Y0108392D01*
X0207298Y0111361D01*
X0206573Y0111361D01*
X0207891Y0112678D01*
X0207891Y0114566D01*
X0206555Y0115902D01*
X0204667Y0115902D01*
X0203331Y0114566D01*
X0203331Y0112678D01*
X0204667Y0111343D01*
X0205110Y0111343D01*
X0204550Y0111231D01*
X0203937Y0110977D01*
X0203385Y0110609D01*
X0202916Y0110139D01*
X0202547Y0109588D01*
X0202293Y0108975D01*
X0202177Y0108392D01*
X0207298Y0108392D01*
X0207298Y0107592D01*
X0202177Y0107592D01*
X0202293Y0107010D01*
X0202547Y0106397D01*
X0202916Y0105845D01*
X0203385Y0105376D01*
X0203937Y0105007D01*
X0203954Y0105000D01*
X0194001Y0105000D01*
X0194521Y0105343D02*
X0203433Y0105343D01*
X0202717Y0106142D02*
X0195237Y0106142D01*
X0195632Y0106940D02*
X0202322Y0106940D01*
X0202206Y0108537D02*
X0195748Y0108537D01*
X0195511Y0109336D02*
X0202443Y0109336D01*
X0202913Y0110134D02*
X0195042Y0110134D01*
X0194084Y0110933D02*
X0203870Y0110933D01*
X0204278Y0111732D02*
X0187700Y0111732D01*
X0187700Y0112530D02*
X0203479Y0112530D01*
X0203331Y0113329D02*
X0187700Y0113329D01*
X0187700Y0114127D02*
X0203331Y0114127D01*
X0203691Y0114926D02*
X0187700Y0114926D01*
X0187700Y0115724D02*
X0204489Y0115724D01*
X0206733Y0115724D02*
X0211300Y0115724D01*
X0211300Y0114926D02*
X0207531Y0114926D01*
X0207891Y0114127D02*
X0211300Y0114127D01*
X0211300Y0113329D02*
X0207891Y0113329D01*
X0207743Y0112530D02*
X0211300Y0112530D01*
X0211300Y0111732D02*
X0206944Y0111732D01*
X0207298Y0110933D02*
X0208098Y0110933D01*
X0208098Y0110134D02*
X0207298Y0110134D01*
X0207298Y0109336D02*
X0208098Y0109336D01*
X0208098Y0108537D02*
X0207298Y0108537D01*
X0207298Y0107739D02*
X0191641Y0107739D01*
X0191641Y0108537D02*
X0190841Y0108537D01*
X0190841Y0109336D02*
X0191641Y0109336D01*
X0191641Y0110134D02*
X0190841Y0110134D01*
X0190841Y0110933D02*
X0191641Y0110933D01*
X0188398Y0110933D02*
X0187700Y0110933D01*
X0187700Y0116523D02*
X0211300Y0116523D01*
X0211300Y0117321D02*
X0187700Y0117321D01*
X0187700Y0118120D02*
X0211300Y0118120D01*
X0211300Y0118918D02*
X0187700Y0118918D01*
X0187700Y0119717D02*
X0211300Y0119717D01*
X0211300Y0120515D02*
X0187700Y0120515D01*
X0187700Y0121314D02*
X0211300Y0121314D01*
X0211300Y0122112D02*
X0187700Y0122112D01*
X0187700Y0122911D02*
X0211300Y0122911D01*
X0211300Y0123709D02*
X0187700Y0123709D01*
X0187700Y0124508D02*
X0211300Y0124508D01*
X0211300Y0125306D02*
X0187700Y0125306D01*
X0187700Y0126105D02*
X0211300Y0126105D01*
X0211300Y0126903D02*
X0187700Y0126903D01*
X0187700Y0127702D02*
X0211300Y0127702D01*
X0211300Y0128500D02*
X0187700Y0128500D01*
X0187700Y0129299D02*
X0211300Y0129299D01*
X0211300Y0130097D02*
X0187700Y0130097D01*
X0187700Y0130896D02*
X0211300Y0130896D01*
X0211300Y0131694D02*
X0187700Y0131694D01*
X0187700Y0132493D02*
X0211300Y0132493D01*
X0211300Y0133291D02*
X0187700Y0133291D01*
X0187700Y0134090D02*
X0211300Y0134090D01*
X0211300Y0134888D02*
X0207345Y0134888D01*
X0207891Y0135434D02*
X0207891Y0137322D01*
X0206573Y0138639D01*
X0207298Y0138639D01*
X0207298Y0141608D01*
X0202177Y0141608D01*
X0202293Y0141025D01*
X0202547Y0140412D01*
X0202916Y0139861D01*
X0203385Y0139391D01*
X0203937Y0139023D01*
X0204550Y0138769D01*
X0205110Y0138657D01*
X0204667Y0138657D01*
X0203331Y0137322D01*
X0203331Y0135434D01*
X0204667Y0134098D01*
X0206555Y0134098D01*
X0207891Y0135434D01*
X0207891Y0135687D02*
X0211300Y0135687D01*
X0211300Y0136485D02*
X0207891Y0136485D01*
X0207891Y0137284D02*
X0211300Y0137284D01*
X0211300Y0138082D02*
X0207130Y0138082D01*
X0207298Y0138881D02*
X0208098Y0138881D01*
X0208098Y0139679D02*
X0207298Y0139679D01*
X0207298Y0140478D02*
X0208098Y0140478D01*
X0208098Y0141276D02*
X0207298Y0141276D01*
X0207298Y0142075D02*
X0191641Y0142075D01*
X0191641Y0141608D02*
X0195777Y0141608D01*
X0195661Y0141025D01*
X0195407Y0140412D01*
X0195039Y0139861D01*
X0194569Y0139391D01*
X0194018Y0139023D01*
X0193405Y0138769D01*
X0192754Y0138639D01*
X0191641Y0138639D01*
X0191641Y0141608D01*
X0191641Y0141276D02*
X0190841Y0141276D01*
X0190841Y0140478D02*
X0191641Y0140478D01*
X0191641Y0139679D02*
X0190841Y0139679D01*
X0190841Y0138881D02*
X0191641Y0138881D01*
X0193675Y0138881D02*
X0204279Y0138881D01*
X0204092Y0138082D02*
X0187700Y0138082D01*
X0187700Y0137284D02*
X0203331Y0137284D01*
X0203331Y0136485D02*
X0187700Y0136485D01*
X0187700Y0135687D02*
X0203331Y0135687D01*
X0203877Y0134888D02*
X0187700Y0134888D01*
X0187700Y0138881D02*
X0188807Y0138881D01*
X0194857Y0139679D02*
X0203097Y0139679D01*
X0202520Y0140478D02*
X0195434Y0140478D01*
X0195711Y0141276D02*
X0202243Y0141276D01*
X0202270Y0142873D02*
X0195684Y0142873D01*
X0195361Y0143672D02*
X0202593Y0143672D01*
X0203231Y0144470D02*
X0194723Y0144470D01*
X0211116Y0138881D02*
X0211300Y0138881D01*
X0349196Y0209696D02*
X0349897Y0208996D01*
X0352699Y0211798D01*
X0353400Y0211097D01*
X0353400Y0209696D01*
X0352699Y0208996D01*
X0349897Y0208996D01*
X0349196Y0209696D02*
X0349196Y0211097D01*
X0349897Y0211798D01*
X0352699Y0211798D01*
X0353400Y0213600D02*
X0353400Y0216402D01*
X0353400Y0215001D02*
X0349196Y0215001D01*
X0350598Y0216402D01*
X0350598Y0218204D02*
X0353400Y0219605D01*
X0350598Y0221006D01*
D11*
X0321300Y0240000D03*
X0311300Y0240000D03*
X0301300Y0240000D03*
X0291300Y0240000D03*
X0281300Y0240000D03*
X0271300Y0240000D03*
X0261300Y0240000D03*
X0251300Y0240000D03*
X0241300Y0240000D03*
X0191300Y0210000D03*
X0191300Y0200000D03*
X0191300Y0190000D03*
X0191300Y0180000D03*
X0191300Y0170000D03*
X0191300Y0160000D03*
X0241300Y0080000D03*
X0251300Y0080000D03*
X0261300Y0080000D03*
X0271300Y0080000D03*
X0281300Y0080000D03*
X0291300Y0080000D03*
X0301300Y0080000D03*
X0311300Y0080000D03*
X0321300Y0080000D03*
X0331300Y0080000D03*
D12*
X0281300Y0106900D03*
X0281300Y0110100D03*
X0328800Y0183000D03*
X0328800Y0187000D03*
X0338800Y0187000D03*
X0338800Y0183000D03*
X0348800Y0183000D03*
X0348800Y0187000D03*
D13*
X0348800Y0185000D03*
X0338800Y0185000D03*
X0328800Y0185000D03*
D14*
X0188800Y0077500D03*
X0353800Y0242500D03*
D15*
X0205532Y0142008D02*
X0205532Y0142008D01*
X0209864Y0142008D01*
X0209864Y0142008D01*
X0205532Y0142008D01*
X0190060Y0142008D02*
X0190060Y0142008D01*
X0192422Y0142008D01*
X0192422Y0142008D01*
X0190060Y0142008D01*
X0190060Y0107992D02*
X0190060Y0107992D01*
X0192422Y0107992D01*
X0192422Y0107992D01*
X0190060Y0107992D01*
X0205532Y0107992D02*
X0205532Y0107992D01*
X0209864Y0107992D01*
X0209864Y0107992D01*
X0205532Y0107992D01*
D16*
X0216800Y0112500D03*
X0216800Y0116500D03*
X0223300Y0120000D03*
X0219800Y0126500D03*
X0216800Y0134646D03*
X0216800Y0138000D03*
X0233300Y0141000D03*
X0233300Y0147000D03*
X0228800Y0155000D03*
X0241300Y0163000D03*
X0261800Y0160000D03*
X0269800Y0160000D03*
X0278300Y0160000D03*
X0286300Y0160000D03*
X0294300Y0160000D03*
X0302800Y0160000D03*
X0310800Y0160000D03*
X0321300Y0165000D03*
X0321300Y0170000D03*
X0330300Y0173000D03*
X0337800Y0170500D03*
X0345315Y0169015D03*
X0351300Y0172500D03*
X0344851Y0164500D03*
X0344800Y0161000D03*
X0336800Y0154500D03*
X0332300Y0154500D03*
X0328300Y0154500D03*
X0320800Y0153000D03*
X0320800Y0146500D03*
X0328300Y0145000D03*
X0331300Y0145500D03*
X0335300Y0145500D03*
X0338800Y0145500D03*
X0342300Y0144500D03*
X0342300Y0141000D03*
X0328300Y0141500D03*
X0328800Y0131000D03*
X0325300Y0131000D03*
X0321300Y0131000D03*
X0321300Y0127500D03*
X0317800Y0127500D03*
X0314300Y0127500D03*
X0310800Y0127500D03*
X0302800Y0126500D03*
X0294300Y0126500D03*
X0286300Y0126500D03*
X0278300Y0126500D03*
X0269800Y0126500D03*
X0261800Y0126500D03*
X0256800Y0127500D03*
X0255300Y0123000D03*
X0255300Y0119500D03*
X0250300Y0120000D03*
X0246300Y0120000D03*
X0246300Y0115000D03*
X0250300Y0114500D03*
X0255300Y0114000D03*
X0251300Y0110000D03*
X0246300Y0110000D03*
X0252300Y0105000D03*
X0249300Y0097500D03*
X0246300Y0097500D03*
X0266300Y0095000D03*
X0266300Y0090000D03*
X0226300Y0100000D03*
X0218800Y0100500D03*
X0215300Y0100000D03*
X0190800Y0102500D03*
X0215300Y0089500D03*
X0281300Y0114000D03*
X0286300Y0115000D03*
X0287800Y0111500D03*
X0287800Y0108000D03*
X0303800Y0108000D03*
X0311300Y0110000D03*
X0311300Y0105000D03*
X0316300Y0105000D03*
X0316300Y0110000D03*
X0320300Y0110000D03*
X0321300Y0105000D03*
X0307954Y0101000D03*
X0306300Y0090000D03*
X0303800Y0114000D03*
X0311300Y0115000D03*
X0317800Y0119500D03*
X0317800Y0123000D03*
X0323800Y0123500D03*
X0323800Y0120000D03*
X0325300Y0127500D03*
X0328800Y0127500D03*
X0331800Y0126500D03*
X0335300Y0126500D03*
X0338800Y0126500D03*
X0342300Y0126500D03*
X0342300Y0130000D03*
X0310800Y0132000D03*
X0302800Y0135000D03*
X0310800Y0136500D03*
X0310800Y0140500D03*
X0310800Y0143500D03*
X0302800Y0143500D03*
X0294300Y0143500D03*
X0286300Y0143500D03*
X0278300Y0143500D03*
X0269800Y0143500D03*
X0261800Y0143500D03*
X0261800Y0149000D03*
X0261800Y0152000D03*
X0269800Y0151500D03*
X0278300Y0151500D03*
X0286300Y0151500D03*
X0294300Y0151500D03*
X0302800Y0151500D03*
X0310800Y0151500D03*
X0341300Y0149500D03*
X0294300Y0135000D03*
X0286300Y0135000D03*
X0278300Y0135000D03*
X0269800Y0135000D03*
X0261800Y0135500D03*
X0261800Y0132000D03*
X0251300Y0130000D03*
X0250300Y0125000D03*
X0246300Y0125000D03*
X0251800Y0149000D03*
X0252100Y0153500D03*
X0261800Y0167500D03*
X0261800Y0171000D03*
X0269800Y0168500D03*
X0278300Y0168500D03*
X0286300Y0168500D03*
X0294300Y0168500D03*
X0302800Y0168500D03*
X0310800Y0168500D03*
X0310800Y0176500D03*
X0310800Y0179500D03*
X0302800Y0176500D03*
X0294300Y0176500D03*
X0286300Y0176500D03*
X0278300Y0176500D03*
X0269800Y0176500D03*
X0261800Y0176500D03*
X0261800Y0185000D03*
X0269800Y0185000D03*
X0278300Y0185000D03*
X0286300Y0185000D03*
X0294300Y0185000D03*
X0302800Y0185000D03*
X0310800Y0184000D03*
X0310800Y0188000D03*
X0310800Y0192000D03*
X0314300Y0192000D03*
X0317800Y0192000D03*
X0321300Y0192000D03*
X0317300Y0197000D03*
X0317300Y0201000D03*
X0311300Y0205000D03*
X0306300Y0205000D03*
X0301300Y0205000D03*
X0291300Y0208500D03*
X0286300Y0205000D03*
X0281300Y0205000D03*
X0276300Y0205000D03*
X0271300Y0205000D03*
X0255800Y0201000D03*
X0255800Y0196500D03*
X0261300Y0193500D03*
X0269800Y0193500D03*
X0278300Y0193500D03*
X0286300Y0193500D03*
X0294300Y0193500D03*
X0302800Y0193500D03*
X0321300Y0188000D03*
X0321300Y0184500D03*
X0321300Y0180500D03*
X0321300Y0177000D03*
X0333800Y0204000D03*
X0341300Y0204000D03*
X0345315Y0204000D03*
X0348800Y0204000D03*
X0296300Y0212000D03*
X0276300Y0215000D03*
X0271300Y0215000D03*
X0256300Y0215000D03*
X0251300Y0215000D03*
X0241300Y0220000D03*
X0236300Y0220000D03*
X0227300Y0220000D03*
X0218800Y0218300D03*
X0226300Y0210000D03*
X0236300Y0210000D03*
X0241300Y0225000D03*
X0246300Y0227500D03*
X0246300Y0230500D03*
X0260316Y0227500D03*
X0276300Y0230000D03*
X0221300Y0232100D03*
X0216217Y0235083D03*
X0217800Y0192000D03*
X0215800Y0183500D03*
X0223800Y0178000D03*
X0227800Y0177000D03*
X0231300Y0180000D03*
X0236300Y0180000D03*
X0249300Y0184500D03*
X0250800Y0190000D03*
X0216300Y0175000D03*
X0216300Y0170000D03*
X0190800Y0148000D03*
X0331300Y0235000D03*
D17*
X0337500Y0234803D02*
X0322700Y0234803D01*
X0322700Y0235384D02*
X0324019Y0235931D01*
X0325369Y0237281D01*
X0326100Y0239045D01*
X0326100Y0240955D01*
X0325369Y0242719D01*
X0324588Y0243500D01*
X0343825Y0243500D01*
X0341315Y0242460D01*
X0338840Y0239985D01*
X0338840Y0239985D01*
X0337500Y0236750D01*
X0337500Y0233250D01*
X0338840Y0230015D01*
X0341315Y0227540D01*
X0344550Y0226200D01*
X0348050Y0226200D01*
X0351285Y0227540D01*
X0353760Y0230015D01*
X0354800Y0232525D01*
X0354800Y0220159D01*
X0354789Y0220180D01*
X0354627Y0220668D01*
X0354518Y0220723D01*
X0354464Y0220831D01*
X0353975Y0220994D01*
X0350713Y0222625D01*
X0349534Y0222232D01*
X0348978Y0221121D01*
X0349371Y0219942D01*
X0350046Y0219605D01*
X0349371Y0219267D01*
X0348978Y0218088D01*
X0349373Y0217299D01*
X0348575Y0216501D01*
X0347696Y0215622D01*
X0347696Y0214379D01*
X0348575Y0213501D01*
X0351900Y0213501D01*
X0351900Y0213298D01*
X0349276Y0213298D01*
X0348575Y0212597D01*
X0348086Y0212108D01*
X0347696Y0211719D01*
X0347696Y0209075D01*
X0348097Y0208674D01*
X0348575Y0208196D01*
X0348575Y0208196D01*
X0349225Y0207547D01*
X0349276Y0207496D01*
X0353321Y0207496D01*
X0354021Y0208196D01*
X0354800Y0208975D01*
X0354800Y0164480D01*
X0340200Y0179080D01*
X0340200Y0180650D01*
X0341756Y0180650D01*
X0342400Y0181294D01*
X0342400Y0184706D01*
X0342106Y0185000D01*
X0342400Y0185294D01*
X0342400Y0188706D01*
X0341756Y0189350D01*
X0340200Y0189350D01*
X0340200Y0200920D01*
X0340980Y0201700D01*
X0342253Y0201700D01*
X0342900Y0202347D01*
X0342900Y0183420D01*
X0343720Y0182600D01*
X0344720Y0181600D01*
X0345200Y0181600D01*
X0345200Y0181294D01*
X0345844Y0180650D01*
X0351756Y0180650D01*
X0352400Y0181294D01*
X0352400Y0184706D01*
X0352106Y0185000D01*
X0352400Y0185294D01*
X0352400Y0188706D01*
X0351756Y0189350D01*
X0350200Y0189350D01*
X0350200Y0202147D01*
X0351100Y0203047D01*
X0351100Y0204953D01*
X0349753Y0206300D01*
X0347847Y0206300D01*
X0347058Y0205510D01*
X0346268Y0206300D01*
X0344995Y0206300D01*
X0337895Y0213400D01*
X0298153Y0213400D01*
X0297253Y0214300D01*
X0295347Y0214300D01*
X0294000Y0212953D01*
X0294000Y0211047D01*
X0295147Y0209900D01*
X0293153Y0209900D01*
X0292253Y0210800D01*
X0290347Y0210800D01*
X0289000Y0209453D01*
X0289000Y0207547D01*
X0290347Y0206200D01*
X0292253Y0206200D01*
X0293153Y0207100D01*
X0333720Y0207100D01*
X0334520Y0206300D01*
X0332847Y0206300D01*
X0331500Y0204953D01*
X0331500Y0203680D01*
X0233400Y0203680D01*
X0233400Y0204278D02*
X0331500Y0204278D01*
X0331500Y0203680D02*
X0327400Y0199580D01*
X0327400Y0189350D01*
X0325844Y0189350D01*
X0325200Y0188706D01*
X0325200Y0185294D01*
X0325494Y0185000D01*
X0325200Y0184706D01*
X0325200Y0181294D01*
X0325844Y0180650D01*
X0329170Y0180650D01*
X0340815Y0169005D01*
X0340815Y0159535D01*
X0347350Y0153000D01*
X0347372Y0153000D01*
X0347951Y0152420D01*
X0347951Y0102431D01*
X0345220Y0099700D01*
X0340520Y0099700D01*
X0336220Y0095400D01*
X0315880Y0095400D01*
X0310254Y0101026D01*
X0310254Y0101953D01*
X0308906Y0103300D01*
X0307001Y0103300D01*
X0305654Y0101953D01*
X0305654Y0100047D01*
X0307001Y0098700D01*
X0308620Y0098700D01*
X0309720Y0097600D01*
X0269680Y0097600D01*
X0260880Y0106400D01*
X0254153Y0106400D01*
X0253253Y0107300D01*
X0251347Y0107300D01*
X0250000Y0105953D01*
X0250000Y0104047D01*
X0250647Y0103400D01*
X0230880Y0103400D01*
X0229700Y0104580D01*
X0229700Y0150580D01*
X0213900Y0166380D01*
X0213900Y0205120D01*
X0221880Y0213100D01*
X0222700Y0213920D01*
X0222700Y0230247D01*
X0223600Y0231147D01*
X0223600Y0233053D01*
X0222253Y0234400D01*
X0220347Y0234400D01*
X0219000Y0233053D01*
X0219000Y0231147D01*
X0219900Y0230247D01*
X0219900Y0220453D01*
X0219753Y0220600D01*
X0217847Y0220600D01*
X0216500Y0219253D01*
X0216500Y0217680D01*
X0209900Y0211080D01*
X0209900Y0164420D01*
X0210720Y0163600D01*
X0224900Y0149420D01*
X0224900Y0149370D01*
X0224170Y0150100D01*
X0195844Y0178426D01*
X0196100Y0179045D01*
X0196100Y0180955D01*
X0195369Y0182719D01*
X0194019Y0184069D01*
X0192255Y0184800D01*
X0190345Y0184800D01*
X0188581Y0184069D01*
X0187800Y0183288D01*
X0187800Y0186712D01*
X0188581Y0185931D01*
X0190345Y0185200D01*
X0192255Y0185200D01*
X0194019Y0185931D01*
X0195369Y0187281D01*
X0195916Y0188600D01*
X0201880Y0188600D01*
X0206880Y0193600D01*
X0207700Y0194420D01*
X0207700Y0224420D01*
X0216063Y0232783D01*
X0217169Y0232783D01*
X0218517Y0234131D01*
X0218517Y0236036D01*
X0217169Y0237383D01*
X0215264Y0237383D01*
X0213917Y0236036D01*
X0213917Y0234596D01*
X0204900Y0225580D01*
X0204900Y0195580D01*
X0200720Y0191400D01*
X0195916Y0191400D01*
X0195369Y0192719D01*
X0194019Y0194069D01*
X0192255Y0194800D01*
X0190345Y0194800D01*
X0188581Y0194069D01*
X0187800Y0193288D01*
X0187800Y0196712D01*
X0188581Y0195931D01*
X0190345Y0195200D01*
X0192255Y0195200D01*
X0194019Y0195931D01*
X0195369Y0197281D01*
X0196100Y0199045D01*
X0196100Y0200955D01*
X0195369Y0202719D01*
X0194019Y0204069D01*
X0192255Y0204800D01*
X0190345Y0204800D01*
X0188581Y0204069D01*
X0187800Y0203288D01*
X0187800Y0206712D01*
X0188581Y0205931D01*
X0190345Y0205200D01*
X0192255Y0205200D01*
X0194019Y0205931D01*
X0195369Y0207281D01*
X0196100Y0209045D01*
X0196100Y0210955D01*
X0195369Y0212719D01*
X0194019Y0214069D01*
X0192255Y0214800D01*
X0190345Y0214800D01*
X0188581Y0214069D01*
X0187800Y0213288D01*
X0187800Y0232525D01*
X0188840Y0230015D01*
X0191315Y0227540D01*
X0194550Y0226200D01*
X0198050Y0226200D01*
X0201285Y0227540D01*
X0203760Y0230015D01*
X0205100Y0233250D01*
X0205100Y0236750D01*
X0203760Y0239985D01*
X0201285Y0242460D01*
X0201285Y0242460D01*
X0198775Y0243500D01*
X0237729Y0243500D01*
X0237486Y0243257D01*
X0237024Y0242621D01*
X0236666Y0241919D01*
X0236423Y0241171D01*
X0236300Y0240394D01*
X0236300Y0240300D01*
X0241000Y0240300D01*
X0241000Y0239700D01*
X0241600Y0239700D01*
X0241600Y0240300D01*
X0246300Y0240300D01*
X0246300Y0240394D01*
X0246177Y0241171D01*
X0245934Y0241919D01*
X0245576Y0242621D01*
X0245114Y0243257D01*
X0244871Y0243500D01*
X0248012Y0243500D01*
X0247231Y0242719D01*
X0246500Y0240955D01*
X0246500Y0239045D01*
X0246756Y0238426D01*
X0245222Y0236892D01*
X0245576Y0237379D01*
X0245934Y0238081D01*
X0246177Y0238829D01*
X0246300Y0239606D01*
X0246300Y0239700D01*
X0241600Y0239700D01*
X0241600Y0235000D01*
X0241694Y0235000D01*
X0242471Y0235123D01*
X0243219Y0235366D01*
X0243921Y0235724D01*
X0244408Y0236078D01*
X0229200Y0220870D01*
X0229200Y0181153D01*
X0229000Y0180953D01*
X0229000Y0179047D01*
X0230347Y0177700D01*
X0232253Y0177700D01*
X0233600Y0179047D01*
X0233600Y0180953D01*
X0233400Y0181153D01*
X0233400Y0219130D01*
X0239000Y0224730D01*
X0239000Y0224047D01*
X0240347Y0222700D01*
X0242253Y0222700D01*
X0243153Y0223600D01*
X0286880Y0223600D01*
X0287700Y0224420D01*
X0292700Y0229420D01*
X0292700Y0235384D01*
X0294019Y0235931D01*
X0295369Y0237281D01*
X0296100Y0239045D01*
X0296100Y0240955D01*
X0295369Y0242719D01*
X0294588Y0243500D01*
X0298012Y0243500D01*
X0297231Y0242719D01*
X0296500Y0240955D01*
X0296500Y0239045D01*
X0297231Y0237281D01*
X0298581Y0235931D01*
X0300345Y0235200D01*
X0302255Y0235200D01*
X0304019Y0235931D01*
X0305369Y0237281D01*
X0306100Y0239045D01*
X0306100Y0240955D01*
X0305369Y0242719D01*
X0304588Y0243500D01*
X0308012Y0243500D01*
X0307231Y0242719D01*
X0306500Y0240955D01*
X0306500Y0239045D01*
X0307231Y0237281D01*
X0308581Y0235931D01*
X0310345Y0235200D01*
X0312255Y0235200D01*
X0314019Y0235931D01*
X0315369Y0237281D01*
X0316100Y0239045D01*
X0316100Y0240955D01*
X0315369Y0242719D01*
X0314588Y0243500D01*
X0318012Y0243500D01*
X0317231Y0242719D01*
X0316500Y0240955D01*
X0316500Y0239045D01*
X0317231Y0237281D01*
X0318581Y0235931D01*
X0319900Y0235384D01*
X0319900Y0225580D01*
X0315720Y0221400D01*
X0243153Y0221400D01*
X0242253Y0222300D01*
X0240347Y0222300D01*
X0239000Y0220953D01*
X0239000Y0219047D01*
X0240347Y0217700D01*
X0242253Y0217700D01*
X0243153Y0218600D01*
X0316880Y0218600D01*
X0317700Y0219420D01*
X0322700Y0224420D01*
X0322700Y0235384D01*
X0322740Y0235401D02*
X0337500Y0235401D01*
X0337500Y0236000D02*
X0324088Y0236000D01*
X0324686Y0236598D02*
X0337500Y0236598D01*
X0337685Y0237197D02*
X0325285Y0237197D01*
X0325582Y0237795D02*
X0337933Y0237795D01*
X0338181Y0238394D02*
X0325830Y0238394D01*
X0326078Y0238992D02*
X0338429Y0238992D01*
X0338676Y0239591D02*
X0326100Y0239591D01*
X0326100Y0240189D02*
X0339044Y0240189D01*
X0339643Y0240788D02*
X0326100Y0240788D01*
X0325921Y0241386D02*
X0340241Y0241386D01*
X0340840Y0241985D02*
X0325673Y0241985D01*
X0325425Y0242583D02*
X0341612Y0242583D01*
X0341315Y0242460D02*
X0341315Y0242460D01*
X0343057Y0243182D02*
X0324907Y0243182D01*
X0321300Y0240000D02*
X0321300Y0225000D01*
X0316300Y0220000D01*
X0241300Y0220000D01*
X0242917Y0221635D02*
X0315955Y0221635D01*
X0316554Y0222234D02*
X0242319Y0222234D01*
X0242385Y0222832D02*
X0317152Y0222832D01*
X0317751Y0223431D02*
X0242983Y0223431D01*
X0241300Y0225000D02*
X0286300Y0225000D01*
X0291300Y0230000D01*
X0291300Y0240000D01*
X0294686Y0236598D02*
X0297914Y0236598D01*
X0298512Y0236000D02*
X0294088Y0236000D01*
X0292740Y0235401D02*
X0299860Y0235401D01*
X0302740Y0235401D02*
X0309860Y0235401D01*
X0308512Y0236000D02*
X0304088Y0236000D01*
X0304686Y0236598D02*
X0307914Y0236598D01*
X0307315Y0237197D02*
X0305285Y0237197D01*
X0305582Y0237795D02*
X0307018Y0237795D01*
X0306770Y0238394D02*
X0305830Y0238394D01*
X0306078Y0238992D02*
X0306522Y0238992D01*
X0306500Y0239591D02*
X0306100Y0239591D01*
X0306100Y0240189D02*
X0306500Y0240189D01*
X0306500Y0240788D02*
X0306100Y0240788D01*
X0305921Y0241386D02*
X0306679Y0241386D01*
X0306927Y0241985D02*
X0305673Y0241985D01*
X0305425Y0242583D02*
X0307175Y0242583D01*
X0307693Y0243182D02*
X0304907Y0243182D01*
X0297693Y0243182D02*
X0294907Y0243182D01*
X0295425Y0242583D02*
X0297175Y0242583D01*
X0296927Y0241985D02*
X0295673Y0241985D01*
X0295921Y0241386D02*
X0296679Y0241386D01*
X0296500Y0240788D02*
X0296100Y0240788D01*
X0296100Y0240189D02*
X0296500Y0240189D01*
X0296500Y0239591D02*
X0296100Y0239591D01*
X0296078Y0238992D02*
X0296522Y0238992D01*
X0296770Y0238394D02*
X0295830Y0238394D01*
X0295582Y0237795D02*
X0297018Y0237795D01*
X0297315Y0237197D02*
X0295285Y0237197D01*
X0292700Y0234803D02*
X0319900Y0234803D01*
X0319900Y0234204D02*
X0292700Y0234204D01*
X0292700Y0233605D02*
X0319900Y0233605D01*
X0319900Y0233007D02*
X0292700Y0233007D01*
X0292700Y0232408D02*
X0319900Y0232408D01*
X0319900Y0231810D02*
X0292700Y0231810D01*
X0292700Y0231211D02*
X0319900Y0231211D01*
X0319900Y0230613D02*
X0292700Y0230613D01*
X0292700Y0230014D02*
X0319900Y0230014D01*
X0319900Y0229416D02*
X0292696Y0229416D01*
X0292097Y0228817D02*
X0319900Y0228817D01*
X0319900Y0228219D02*
X0291499Y0228219D01*
X0290900Y0227620D02*
X0319900Y0227620D01*
X0319900Y0227022D02*
X0290302Y0227022D01*
X0289703Y0226423D02*
X0319900Y0226423D01*
X0319900Y0225825D02*
X0289105Y0225825D01*
X0288506Y0225226D02*
X0319546Y0225226D01*
X0318948Y0224628D02*
X0287908Y0224628D01*
X0287309Y0224029D02*
X0318349Y0224029D01*
X0320514Y0222234D02*
X0349538Y0222234D01*
X0349235Y0221635D02*
X0319915Y0221635D01*
X0319317Y0221037D02*
X0349006Y0221037D01*
X0349206Y0220438D02*
X0318718Y0220438D01*
X0318120Y0219840D02*
X0349576Y0219840D01*
X0349362Y0219241D02*
X0317521Y0219241D01*
X0316923Y0218643D02*
X0349163Y0218643D01*
X0349000Y0218044D02*
X0242597Y0218044D01*
X0240003Y0218044D02*
X0233400Y0218044D01*
X0233400Y0217446D02*
X0349299Y0217446D01*
X0348922Y0216847D02*
X0233400Y0216847D01*
X0233400Y0216249D02*
X0348323Y0216249D01*
X0348575Y0216501D02*
X0348575Y0216501D01*
X0347724Y0215650D02*
X0233400Y0215650D01*
X0233400Y0215052D02*
X0347696Y0215052D01*
X0347696Y0214453D02*
X0233400Y0214453D01*
X0233400Y0213855D02*
X0294902Y0213855D01*
X0294303Y0213256D02*
X0233400Y0213256D01*
X0233400Y0212658D02*
X0294000Y0212658D01*
X0294000Y0212059D02*
X0233400Y0212059D01*
X0233400Y0211461D02*
X0294000Y0211461D01*
X0294185Y0210862D02*
X0233400Y0210862D01*
X0233400Y0210264D02*
X0289811Y0210264D01*
X0289212Y0209665D02*
X0233400Y0209665D01*
X0233400Y0209067D02*
X0289000Y0209067D01*
X0289000Y0208468D02*
X0233400Y0208468D01*
X0233400Y0207870D02*
X0289000Y0207870D01*
X0289276Y0207271D02*
X0233400Y0207271D01*
X0233400Y0206672D02*
X0289875Y0206672D01*
X0291300Y0208500D02*
X0334300Y0208500D01*
X0336800Y0206000D01*
X0336800Y0202500D01*
X0333800Y0199500D01*
X0333800Y0184500D01*
X0335300Y0183000D01*
X0338800Y0183000D01*
X0338800Y0178500D01*
X0354300Y0163000D01*
X0354300Y0100000D01*
X0347300Y0093000D01*
X0342800Y0093000D01*
X0339000Y0089200D01*
X0313312Y0089200D01*
X0310012Y0092500D01*
X0303800Y0092500D01*
X0291300Y0080000D01*
X0287891Y0083379D02*
X0286659Y0083379D01*
X0286880Y0083600D02*
X0288112Y0083600D01*
X0287231Y0082719D01*
X0286500Y0080955D01*
X0286500Y0079045D01*
X0287231Y0077281D01*
X0288012Y0076500D01*
X0284588Y0076500D01*
X0285369Y0077281D01*
X0286100Y0079045D01*
X0286100Y0080955D01*
X0285554Y0082274D01*
X0286880Y0083600D01*
X0287292Y0082781D02*
X0286061Y0082781D01*
X0285592Y0082182D02*
X0287008Y0082182D01*
X0286760Y0081584D02*
X0285840Y0081584D01*
X0286087Y0080985D02*
X0286513Y0080985D01*
X0286500Y0080387D02*
X0286100Y0080387D01*
X0286100Y0079788D02*
X0286500Y0079788D01*
X0286500Y0079190D02*
X0286100Y0079190D01*
X0285912Y0078591D02*
X0286688Y0078591D01*
X0286936Y0077993D02*
X0285664Y0077993D01*
X0285416Y0077394D02*
X0287184Y0077394D01*
X0287716Y0076796D02*
X0284884Y0076796D01*
X0281300Y0080000D02*
X0286300Y0085000D01*
X0294300Y0085000D01*
X0303000Y0093700D01*
X0310509Y0093700D01*
X0313809Y0090400D01*
X0338397Y0090400D01*
X0342197Y0094200D01*
X0346803Y0094200D01*
X0352951Y0100349D01*
X0352951Y0161379D01*
X0345315Y0169015D01*
X0343615Y0167462D02*
X0344277Y0166800D01*
X0343899Y0166800D01*
X0343615Y0166516D01*
X0343615Y0167462D01*
X0343615Y0167171D02*
X0343907Y0167171D01*
X0343671Y0166572D02*
X0343615Y0166572D01*
X0344851Y0164500D02*
X0351751Y0157600D01*
X0351751Y0100846D01*
X0346406Y0095500D01*
X0341800Y0095500D01*
X0337900Y0091600D01*
X0314306Y0091600D01*
X0310906Y0095000D01*
X0266300Y0095000D01*
X0264594Y0096546D02*
X0261733Y0096546D01*
X0261135Y0097145D02*
X0265192Y0097145D01*
X0265347Y0097300D02*
X0266020Y0097300D01*
X0259720Y0103600D01*
X0254153Y0103600D01*
X0253953Y0103400D01*
X0254880Y0103400D01*
X0255700Y0102580D01*
X0255700Y0102580D01*
X0264000Y0094280D01*
X0264000Y0095953D01*
X0265347Y0097300D01*
X0265577Y0097743D02*
X0260536Y0097743D01*
X0259938Y0098342D02*
X0264978Y0098342D01*
X0264380Y0098940D02*
X0259339Y0098940D01*
X0258741Y0099539D02*
X0263781Y0099539D01*
X0263183Y0100137D02*
X0258142Y0100137D01*
X0257544Y0100736D02*
X0262584Y0100736D01*
X0261986Y0101334D02*
X0256945Y0101334D01*
X0256347Y0101933D02*
X0261387Y0101933D01*
X0260789Y0102532D02*
X0255748Y0102532D01*
X0255150Y0103130D02*
X0260190Y0103130D01*
X0260300Y0105000D02*
X0252300Y0105000D01*
X0250000Y0104926D02*
X0229700Y0104926D01*
X0229700Y0105524D02*
X0250000Y0105524D01*
X0250170Y0106123D02*
X0229700Y0106123D01*
X0229700Y0106721D02*
X0250768Y0106721D01*
X0250000Y0104327D02*
X0229953Y0104327D01*
X0230551Y0103729D02*
X0250319Y0103729D01*
X0251300Y0100000D02*
X0261300Y0090000D01*
X0261300Y0080000D01*
X0264709Y0083379D02*
X0267891Y0083379D01*
X0267292Y0082781D02*
X0265308Y0082781D01*
X0265369Y0082719D02*
X0264019Y0084069D01*
X0262700Y0084616D01*
X0262700Y0090580D01*
X0252680Y0100600D01*
X0253720Y0100600D01*
X0264000Y0090320D01*
X0264000Y0089047D01*
X0265347Y0087700D01*
X0266620Y0087700D01*
X0269762Y0084558D01*
X0268581Y0084069D01*
X0267231Y0082719D01*
X0266500Y0080955D01*
X0266500Y0079045D01*
X0267231Y0077281D01*
X0268012Y0076500D01*
X0264588Y0076500D01*
X0265369Y0077281D01*
X0266100Y0079045D01*
X0266100Y0080955D01*
X0265369Y0082719D01*
X0265592Y0082182D02*
X0267008Y0082182D01*
X0266760Y0081584D02*
X0265840Y0081584D01*
X0266087Y0080985D02*
X0266513Y0080985D01*
X0266500Y0080387D02*
X0266100Y0080387D01*
X0266100Y0079788D02*
X0266500Y0079788D01*
X0266500Y0079190D02*
X0266100Y0079190D01*
X0265912Y0078591D02*
X0266688Y0078591D01*
X0266936Y0077993D02*
X0265664Y0077993D01*
X0265416Y0077394D02*
X0267184Y0077394D01*
X0267716Y0076796D02*
X0264884Y0076796D01*
X0258012Y0076500D02*
X0254588Y0076500D01*
X0255369Y0077281D01*
X0256100Y0079045D01*
X0256100Y0080955D01*
X0255369Y0082719D01*
X0254019Y0084069D01*
X0252255Y0084800D01*
X0250345Y0084800D01*
X0248581Y0084069D01*
X0247231Y0082719D01*
X0246500Y0080955D01*
X0246500Y0079045D01*
X0247231Y0077281D01*
X0248012Y0076500D01*
X0244871Y0076500D01*
X0245114Y0076743D01*
X0245576Y0077379D01*
X0245934Y0078081D01*
X0246177Y0078829D01*
X0246300Y0079606D01*
X0246300Y0079700D01*
X0241600Y0079700D01*
X0241600Y0080300D01*
X0241000Y0080300D01*
X0241000Y0085000D01*
X0240906Y0085000D01*
X0240129Y0084877D01*
X0239381Y0084634D01*
X0238679Y0084276D01*
X0238043Y0083814D01*
X0237486Y0083257D01*
X0237024Y0082621D01*
X0236666Y0081919D01*
X0236423Y0081171D01*
X0236300Y0080394D01*
X0236300Y0080300D01*
X0241000Y0080300D01*
X0241000Y0079700D01*
X0236300Y0079700D01*
X0236300Y0079606D01*
X0236423Y0078829D01*
X0236666Y0078081D01*
X0237024Y0077379D01*
X0237486Y0076743D01*
X0237729Y0076500D01*
X0198775Y0076500D01*
X0201285Y0077540D01*
X0203760Y0080015D01*
X0205100Y0083250D01*
X0205100Y0086750D01*
X0203760Y0089985D01*
X0201285Y0092460D01*
X0201285Y0092460D01*
X0198050Y0093800D01*
X0194550Y0093800D01*
X0191315Y0092460D01*
X0188840Y0089985D01*
X0188840Y0089985D01*
X0187800Y0087475D01*
X0187800Y0103500D01*
X0211921Y0103500D01*
X0212800Y0104379D01*
X0212800Y0105621D01*
X0212800Y0107064D01*
X0212931Y0107382D01*
X0212931Y0108602D01*
X0212800Y0108920D01*
X0212800Y0141080D01*
X0212931Y0141398D01*
X0212931Y0142618D01*
X0212800Y0142936D01*
X0212800Y0145621D01*
X0211921Y0146500D01*
X0187800Y0146500D01*
X0187800Y0156429D01*
X0188043Y0156186D01*
X0188679Y0155724D01*
X0189381Y0155366D01*
X0190129Y0155123D01*
X0190906Y0155000D01*
X0191000Y0155000D01*
X0191000Y0159700D01*
X0191600Y0159700D01*
X0191600Y0160300D01*
X0191000Y0160300D01*
X0191000Y0165000D01*
X0190906Y0165000D01*
X0190129Y0164877D01*
X0189381Y0164634D01*
X0188679Y0164276D01*
X0188043Y0163814D01*
X0187800Y0163571D01*
X0187800Y0166712D01*
X0188581Y0165931D01*
X0190345Y0165200D01*
X0192255Y0165200D01*
X0194019Y0165931D01*
X0195369Y0167281D01*
X0196100Y0169045D01*
X0196100Y0170955D01*
X0195369Y0172719D01*
X0194019Y0174069D01*
X0192255Y0174800D01*
X0190345Y0174800D01*
X0188581Y0174069D01*
X0187800Y0173288D01*
X0187800Y0176712D01*
X0188581Y0175931D01*
X0190345Y0175200D01*
X0192255Y0175200D01*
X0192874Y0175456D01*
X0221200Y0147130D01*
X0221200Y0121153D01*
X0221000Y0120953D01*
X0221000Y0119047D01*
X0221200Y0118847D01*
X0221200Y0105870D01*
X0218130Y0102800D01*
X0217847Y0102800D01*
X0216500Y0101453D01*
X0216500Y0099547D01*
X0217847Y0098200D01*
X0219753Y0098200D01*
X0221100Y0099547D01*
X0221100Y0099830D01*
X0224170Y0102900D01*
X0224900Y0103630D01*
X0224900Y0101853D01*
X0224000Y0100953D01*
X0224000Y0099047D01*
X0225347Y0097700D01*
X0227253Y0097700D01*
X0228153Y0098600D01*
X0250720Y0098600D01*
X0259900Y0089420D01*
X0259900Y0084616D01*
X0258581Y0084069D01*
X0257231Y0082719D01*
X0256500Y0080955D01*
X0256500Y0079045D01*
X0257231Y0077281D01*
X0258012Y0076500D01*
X0257716Y0076796D02*
X0254884Y0076796D01*
X0255416Y0077394D02*
X0257184Y0077394D01*
X0256936Y0077993D02*
X0255664Y0077993D01*
X0255912Y0078591D02*
X0256688Y0078591D01*
X0256500Y0079190D02*
X0256100Y0079190D01*
X0256100Y0079788D02*
X0256500Y0079788D01*
X0256500Y0080387D02*
X0256100Y0080387D01*
X0256087Y0080985D02*
X0256513Y0080985D01*
X0256760Y0081584D02*
X0255840Y0081584D01*
X0255592Y0082182D02*
X0257008Y0082182D01*
X0257292Y0082781D02*
X0255308Y0082781D01*
X0254709Y0083379D02*
X0257891Y0083379D01*
X0258489Y0083978D02*
X0254111Y0083978D01*
X0252795Y0084576D02*
X0259805Y0084576D01*
X0259900Y0085175D02*
X0205100Y0085175D01*
X0205100Y0085773D02*
X0259900Y0085773D01*
X0259900Y0086372D02*
X0205100Y0086372D01*
X0205009Y0086970D02*
X0259900Y0086970D01*
X0259900Y0087569D02*
X0204761Y0087569D01*
X0204513Y0088167D02*
X0259900Y0088167D01*
X0259900Y0088766D02*
X0204265Y0088766D01*
X0204017Y0089364D02*
X0259900Y0089364D01*
X0259357Y0089963D02*
X0203769Y0089963D01*
X0203760Y0089985D02*
X0203760Y0089985D01*
X0203184Y0090561D02*
X0258759Y0090561D01*
X0258160Y0091160D02*
X0202585Y0091160D01*
X0201987Y0091758D02*
X0257562Y0091758D01*
X0256963Y0092357D02*
X0201388Y0092357D01*
X0200090Y0092955D02*
X0256365Y0092955D01*
X0255766Y0093554D02*
X0198645Y0093554D01*
X0193955Y0093554D02*
X0187800Y0093554D01*
X0187800Y0094152D02*
X0255168Y0094152D01*
X0254569Y0094751D02*
X0187800Y0094751D01*
X0187800Y0095349D02*
X0253971Y0095349D01*
X0253372Y0095948D02*
X0187800Y0095948D01*
X0187800Y0096546D02*
X0252774Y0096546D01*
X0252175Y0097145D02*
X0187800Y0097145D01*
X0187800Y0097743D02*
X0225304Y0097743D01*
X0224705Y0098342D02*
X0219895Y0098342D01*
X0220493Y0098940D02*
X0224107Y0098940D01*
X0224000Y0099539D02*
X0221092Y0099539D01*
X0221407Y0100137D02*
X0224000Y0100137D01*
X0224000Y0100736D02*
X0222006Y0100736D01*
X0222604Y0101334D02*
X0224382Y0101334D01*
X0224900Y0101933D02*
X0223203Y0101933D01*
X0223801Y0102532D02*
X0224900Y0102532D01*
X0224900Y0103130D02*
X0224400Y0103130D01*
X0227700Y0102620D02*
X0227720Y0102600D01*
X0228900Y0101420D01*
X0228920Y0101400D01*
X0228153Y0101400D01*
X0227700Y0101853D01*
X0227700Y0102620D01*
X0227700Y0102532D02*
X0227789Y0102532D01*
X0227700Y0101933D02*
X0228387Y0101933D01*
X0228900Y0101420D02*
X0228900Y0101420D01*
X0230300Y0102000D02*
X0228300Y0104000D01*
X0228300Y0150000D01*
X0212500Y0165800D01*
X0212500Y0205700D01*
X0221300Y0214500D01*
X0221300Y0232100D01*
X0223047Y0233605D02*
X0241936Y0233605D01*
X0241337Y0233007D02*
X0223600Y0233007D01*
X0223600Y0232408D02*
X0240739Y0232408D01*
X0240140Y0231810D02*
X0223600Y0231810D01*
X0223600Y0231211D02*
X0239542Y0231211D01*
X0238943Y0230613D02*
X0223066Y0230613D01*
X0222700Y0230014D02*
X0238345Y0230014D01*
X0237746Y0229416D02*
X0222700Y0229416D01*
X0222700Y0228817D02*
X0237148Y0228817D01*
X0236549Y0228219D02*
X0222700Y0228219D01*
X0222700Y0227620D02*
X0235951Y0227620D01*
X0235352Y0227022D02*
X0222700Y0227022D01*
X0222700Y0226423D02*
X0234754Y0226423D01*
X0234155Y0225825D02*
X0222700Y0225825D01*
X0222700Y0225226D02*
X0233557Y0225226D01*
X0232958Y0224628D02*
X0222700Y0224628D01*
X0222700Y0224029D02*
X0232359Y0224029D01*
X0231761Y0223431D02*
X0222700Y0223431D01*
X0222700Y0222832D02*
X0231162Y0222832D01*
X0230564Y0222234D02*
X0222700Y0222234D01*
X0222700Y0221635D02*
X0229965Y0221635D01*
X0229367Y0221037D02*
X0222700Y0221037D01*
X0222700Y0220438D02*
X0229200Y0220438D01*
X0229200Y0219840D02*
X0222700Y0219840D01*
X0222700Y0219241D02*
X0229200Y0219241D01*
X0229200Y0218643D02*
X0222700Y0218643D01*
X0222700Y0218044D02*
X0229200Y0218044D01*
X0229200Y0217446D02*
X0222700Y0217446D01*
X0222700Y0216847D02*
X0229200Y0216847D01*
X0229200Y0216249D02*
X0222700Y0216249D01*
X0222700Y0215650D02*
X0229200Y0215650D01*
X0229200Y0215052D02*
X0222700Y0215052D01*
X0222700Y0214453D02*
X0229200Y0214453D01*
X0229200Y0213855D02*
X0222635Y0213855D01*
X0222036Y0213256D02*
X0229200Y0213256D01*
X0229200Y0212658D02*
X0221437Y0212658D01*
X0220839Y0212059D02*
X0229200Y0212059D01*
X0229200Y0211461D02*
X0220240Y0211461D01*
X0219642Y0210862D02*
X0229200Y0210862D01*
X0229200Y0210264D02*
X0219043Y0210264D01*
X0218445Y0209665D02*
X0229200Y0209665D01*
X0229200Y0209067D02*
X0217846Y0209067D01*
X0217248Y0208468D02*
X0229200Y0208468D01*
X0229200Y0207870D02*
X0216649Y0207870D01*
X0216051Y0207271D02*
X0229200Y0207271D01*
X0229200Y0206672D02*
X0215452Y0206672D01*
X0214854Y0206074D02*
X0229200Y0206074D01*
X0229200Y0205475D02*
X0214255Y0205475D01*
X0213900Y0204877D02*
X0229200Y0204877D01*
X0229200Y0204278D02*
X0213900Y0204278D01*
X0213900Y0203680D02*
X0229200Y0203680D01*
X0229200Y0203081D02*
X0213900Y0203081D01*
X0213900Y0202483D02*
X0229200Y0202483D01*
X0229200Y0201884D02*
X0213900Y0201884D01*
X0213900Y0201286D02*
X0229200Y0201286D01*
X0229200Y0200687D02*
X0213900Y0200687D01*
X0213900Y0200089D02*
X0229200Y0200089D01*
X0229200Y0199490D02*
X0213900Y0199490D01*
X0213900Y0198892D02*
X0229200Y0198892D01*
X0229200Y0198293D02*
X0213900Y0198293D01*
X0213900Y0197695D02*
X0229200Y0197695D01*
X0229200Y0197096D02*
X0213900Y0197096D01*
X0213900Y0196498D02*
X0229200Y0196498D01*
X0229200Y0195899D02*
X0213900Y0195899D01*
X0213900Y0195301D02*
X0229200Y0195301D01*
X0229200Y0194702D02*
X0213900Y0194702D01*
X0213900Y0194104D02*
X0229200Y0194104D01*
X0229200Y0193505D02*
X0213900Y0193505D01*
X0213900Y0192907D02*
X0229200Y0192907D01*
X0229200Y0192308D02*
X0213900Y0192308D01*
X0213900Y0191710D02*
X0229200Y0191710D01*
X0229200Y0191111D02*
X0213900Y0191111D01*
X0213900Y0190513D02*
X0229200Y0190513D01*
X0229200Y0189914D02*
X0213900Y0189914D01*
X0213900Y0189316D02*
X0229200Y0189316D01*
X0229200Y0188717D02*
X0213900Y0188717D01*
X0213900Y0188119D02*
X0229200Y0188119D01*
X0229200Y0187520D02*
X0213900Y0187520D01*
X0213900Y0186922D02*
X0229200Y0186922D01*
X0229200Y0186323D02*
X0213900Y0186323D01*
X0213900Y0185725D02*
X0229200Y0185725D01*
X0229200Y0185126D02*
X0213900Y0185126D01*
X0213900Y0184528D02*
X0229200Y0184528D01*
X0229200Y0183929D02*
X0213900Y0183929D01*
X0213900Y0183331D02*
X0229200Y0183331D01*
X0229200Y0182732D02*
X0213900Y0182732D01*
X0213900Y0182134D02*
X0229200Y0182134D01*
X0229200Y0181535D02*
X0213900Y0181535D01*
X0213900Y0180937D02*
X0229000Y0180937D01*
X0229000Y0180338D02*
X0213900Y0180338D01*
X0213900Y0179739D02*
X0229000Y0179739D01*
X0229000Y0179141D02*
X0213900Y0179141D01*
X0213900Y0178542D02*
X0229505Y0178542D01*
X0230103Y0177944D02*
X0213900Y0177944D01*
X0213900Y0177345D02*
X0332475Y0177345D01*
X0333073Y0176747D02*
X0217806Y0176747D01*
X0217253Y0177300D02*
X0218600Y0175953D01*
X0218600Y0174680D01*
X0234700Y0158580D01*
X0234700Y0154900D01*
X0250247Y0154900D01*
X0251147Y0155800D01*
X0253053Y0155800D01*
X0254400Y0154453D01*
X0254400Y0152547D01*
X0253053Y0151200D01*
X0251147Y0151200D01*
X0250247Y0152100D01*
X0234700Y0152100D01*
X0234700Y0148853D01*
X0235600Y0147953D01*
X0235600Y0146047D01*
X0234253Y0144700D01*
X0232347Y0144700D01*
X0231000Y0146047D01*
X0231000Y0147953D01*
X0231900Y0148853D01*
X0231900Y0157420D01*
X0216620Y0172700D01*
X0215347Y0172700D01*
X0214000Y0174047D01*
X0214000Y0175953D01*
X0215347Y0177300D01*
X0217253Y0177300D01*
X0218404Y0176148D02*
X0333672Y0176148D01*
X0334270Y0175550D02*
X0218600Y0175550D01*
X0218600Y0174951D02*
X0334869Y0174951D01*
X0335467Y0174353D02*
X0218927Y0174353D01*
X0219526Y0173754D02*
X0336066Y0173754D01*
X0336664Y0173156D02*
X0220124Y0173156D01*
X0220723Y0172557D02*
X0337263Y0172557D01*
X0337861Y0171959D02*
X0221321Y0171959D01*
X0221920Y0171360D02*
X0338460Y0171360D01*
X0339058Y0170762D02*
X0222518Y0170762D01*
X0223117Y0170163D02*
X0339657Y0170163D01*
X0340255Y0169565D02*
X0223715Y0169565D01*
X0224314Y0168966D02*
X0340815Y0168966D01*
X0340815Y0168368D02*
X0224912Y0168368D01*
X0225511Y0167769D02*
X0340815Y0167769D01*
X0340815Y0167171D02*
X0226109Y0167171D01*
X0226708Y0166572D02*
X0340815Y0166572D01*
X0340815Y0165974D02*
X0227306Y0165974D01*
X0227905Y0165375D02*
X0340815Y0165375D01*
X0340815Y0164777D02*
X0228503Y0164777D01*
X0229102Y0164178D02*
X0340815Y0164178D01*
X0340815Y0163580D02*
X0229700Y0163580D01*
X0230299Y0162981D02*
X0340815Y0162981D01*
X0340815Y0162383D02*
X0230897Y0162383D01*
X0231496Y0161784D02*
X0340815Y0161784D01*
X0340815Y0161186D02*
X0232094Y0161186D01*
X0232693Y0160587D02*
X0340815Y0160587D01*
X0340815Y0159989D02*
X0233291Y0159989D01*
X0233890Y0159390D02*
X0340960Y0159390D01*
X0341559Y0158792D02*
X0234488Y0158792D01*
X0234700Y0158193D02*
X0342157Y0158193D01*
X0342756Y0157595D02*
X0234700Y0157595D01*
X0234700Y0156996D02*
X0343354Y0156996D01*
X0343953Y0156398D02*
X0234700Y0156398D01*
X0234700Y0155799D02*
X0251146Y0155799D01*
X0250548Y0155201D02*
X0234700Y0155201D01*
X0233300Y0153500D02*
X0233300Y0158000D01*
X0216300Y0175000D01*
X0214000Y0174951D02*
X0213900Y0174951D01*
X0213900Y0174353D02*
X0214000Y0174353D01*
X0213900Y0173754D02*
X0214293Y0173754D01*
X0213900Y0173156D02*
X0214891Y0173156D01*
X0213900Y0172557D02*
X0216763Y0172557D01*
X0217361Y0171959D02*
X0213900Y0171959D01*
X0213900Y0171360D02*
X0217960Y0171360D01*
X0218558Y0170762D02*
X0213900Y0170762D01*
X0213900Y0170163D02*
X0219157Y0170163D01*
X0219755Y0169565D02*
X0213900Y0169565D01*
X0213900Y0168966D02*
X0220354Y0168966D01*
X0220952Y0168368D02*
X0213900Y0168368D01*
X0213900Y0167769D02*
X0221551Y0167769D01*
X0222149Y0167171D02*
X0213900Y0167171D01*
X0213900Y0166572D02*
X0222748Y0166572D01*
X0223346Y0165974D02*
X0214306Y0165974D01*
X0214905Y0165375D02*
X0223945Y0165375D01*
X0224543Y0164777D02*
X0215503Y0164777D01*
X0216102Y0164178D02*
X0225142Y0164178D01*
X0225740Y0163580D02*
X0216700Y0163580D01*
X0217299Y0162981D02*
X0226339Y0162981D01*
X0226937Y0162383D02*
X0217897Y0162383D01*
X0218496Y0161784D02*
X0227536Y0161784D01*
X0228134Y0161186D02*
X0219094Y0161186D01*
X0219693Y0160587D02*
X0228733Y0160587D01*
X0229331Y0159989D02*
X0220291Y0159989D01*
X0220890Y0159390D02*
X0229930Y0159390D01*
X0230529Y0158792D02*
X0221488Y0158792D01*
X0222087Y0158193D02*
X0231127Y0158193D01*
X0231726Y0157595D02*
X0222685Y0157595D01*
X0223284Y0156996D02*
X0231900Y0156996D01*
X0231900Y0156398D02*
X0223882Y0156398D01*
X0224481Y0155799D02*
X0231900Y0155799D01*
X0231900Y0155201D02*
X0225079Y0155201D01*
X0225678Y0154602D02*
X0231900Y0154602D01*
X0231900Y0154003D02*
X0226276Y0154003D01*
X0226875Y0153405D02*
X0231900Y0153405D01*
X0231900Y0152806D02*
X0227473Y0152806D01*
X0228072Y0152208D02*
X0231900Y0152208D01*
X0231900Y0151609D02*
X0228670Y0151609D01*
X0229269Y0151011D02*
X0231900Y0151011D01*
X0231900Y0150412D02*
X0229700Y0150412D01*
X0229700Y0149814D02*
X0231900Y0149814D01*
X0231900Y0149215D02*
X0229700Y0149215D01*
X0229700Y0148617D02*
X0231664Y0148617D01*
X0231066Y0148018D02*
X0229700Y0148018D01*
X0229700Y0147420D02*
X0231000Y0147420D01*
X0231000Y0146821D02*
X0229700Y0146821D01*
X0229700Y0146223D02*
X0231000Y0146223D01*
X0231423Y0145624D02*
X0229700Y0145624D01*
X0229700Y0145026D02*
X0232021Y0145026D01*
X0233300Y0147000D02*
X0233300Y0153500D01*
X0252100Y0153500D01*
X0254400Y0153405D02*
X0346945Y0153405D01*
X0346347Y0154003D02*
X0254400Y0154003D01*
X0254251Y0154602D02*
X0345748Y0154602D01*
X0345150Y0155201D02*
X0253652Y0155201D01*
X0253054Y0155799D02*
X0344551Y0155799D01*
X0347930Y0154400D02*
X0342215Y0160115D01*
X0342215Y0169585D01*
X0328800Y0183000D01*
X0329482Y0180338D02*
X0233600Y0180338D01*
X0233600Y0180937D02*
X0325558Y0180937D01*
X0325200Y0181535D02*
X0233400Y0181535D01*
X0233400Y0182134D02*
X0325200Y0182134D01*
X0325200Y0182732D02*
X0233400Y0182732D01*
X0233400Y0183331D02*
X0325200Y0183331D01*
X0325200Y0183929D02*
X0233400Y0183929D01*
X0233400Y0184528D02*
X0325200Y0184528D01*
X0325368Y0185126D02*
X0233400Y0185126D01*
X0233400Y0185725D02*
X0325200Y0185725D01*
X0325200Y0186323D02*
X0233400Y0186323D01*
X0233400Y0186922D02*
X0325200Y0186922D01*
X0325200Y0187520D02*
X0233400Y0187520D01*
X0233400Y0188119D02*
X0325200Y0188119D01*
X0325212Y0188717D02*
X0233400Y0188717D01*
X0233400Y0189316D02*
X0325810Y0189316D01*
X0327400Y0189914D02*
X0233400Y0189914D01*
X0233400Y0190513D02*
X0327400Y0190513D01*
X0327400Y0191111D02*
X0233400Y0191111D01*
X0233400Y0191710D02*
X0327400Y0191710D01*
X0327400Y0192308D02*
X0233400Y0192308D01*
X0233400Y0192907D02*
X0327400Y0192907D01*
X0327400Y0193505D02*
X0233400Y0193505D01*
X0233400Y0194104D02*
X0327400Y0194104D01*
X0327400Y0194702D02*
X0233400Y0194702D01*
X0233400Y0195301D02*
X0327400Y0195301D01*
X0327400Y0195899D02*
X0233400Y0195899D01*
X0233400Y0196498D02*
X0327400Y0196498D01*
X0327400Y0197096D02*
X0233400Y0197096D01*
X0233400Y0197695D02*
X0327400Y0197695D01*
X0327400Y0198293D02*
X0233400Y0198293D01*
X0233400Y0198892D02*
X0327400Y0198892D01*
X0327400Y0199490D02*
X0233400Y0199490D01*
X0233400Y0200089D02*
X0327909Y0200089D01*
X0328507Y0200687D02*
X0233400Y0200687D01*
X0233400Y0201286D02*
X0329106Y0201286D01*
X0329705Y0201884D02*
X0233400Y0201884D01*
X0233400Y0202483D02*
X0330303Y0202483D01*
X0330902Y0203081D02*
X0233400Y0203081D01*
X0233400Y0204877D02*
X0331500Y0204877D01*
X0332023Y0205475D02*
X0233400Y0205475D01*
X0233400Y0206074D02*
X0332621Y0206074D01*
X0334148Y0206672D02*
X0292725Y0206672D01*
X0292789Y0210264D02*
X0294784Y0210264D01*
X0296300Y0212000D02*
X0337315Y0212000D01*
X0345315Y0204000D01*
X0344300Y0202985D01*
X0344300Y0184000D01*
X0345300Y0183000D01*
X0348800Y0183000D01*
X0352400Y0182732D02*
X0354800Y0182732D01*
X0354800Y0182134D02*
X0352400Y0182134D01*
X0352400Y0181535D02*
X0354800Y0181535D01*
X0354800Y0180937D02*
X0352042Y0180937D01*
X0352400Y0183331D02*
X0354800Y0183331D01*
X0354800Y0183929D02*
X0352400Y0183929D01*
X0352400Y0184528D02*
X0354800Y0184528D01*
X0354800Y0185126D02*
X0352232Y0185126D01*
X0352400Y0185725D02*
X0354800Y0185725D01*
X0354800Y0186323D02*
X0352400Y0186323D01*
X0352400Y0186922D02*
X0354800Y0186922D01*
X0354800Y0187520D02*
X0352400Y0187520D01*
X0352400Y0188119D02*
X0354800Y0188119D01*
X0354800Y0188717D02*
X0352388Y0188717D01*
X0351790Y0189316D02*
X0354800Y0189316D01*
X0354800Y0189914D02*
X0350200Y0189914D01*
X0350200Y0190513D02*
X0354800Y0190513D01*
X0354800Y0191111D02*
X0350200Y0191111D01*
X0350200Y0191710D02*
X0354800Y0191710D01*
X0354800Y0192308D02*
X0350200Y0192308D01*
X0350200Y0192907D02*
X0354800Y0192907D01*
X0354800Y0193505D02*
X0350200Y0193505D01*
X0350200Y0194104D02*
X0354800Y0194104D01*
X0354800Y0194702D02*
X0350200Y0194702D01*
X0350200Y0195301D02*
X0354800Y0195301D01*
X0354800Y0195899D02*
X0350200Y0195899D01*
X0350200Y0196498D02*
X0354800Y0196498D01*
X0354800Y0197096D02*
X0350200Y0197096D01*
X0350200Y0197695D02*
X0354800Y0197695D01*
X0354800Y0198293D02*
X0350200Y0198293D01*
X0350200Y0198892D02*
X0354800Y0198892D01*
X0354800Y0199490D02*
X0350200Y0199490D01*
X0350200Y0200089D02*
X0354800Y0200089D01*
X0354800Y0200687D02*
X0350200Y0200687D01*
X0350200Y0201286D02*
X0354800Y0201286D01*
X0354800Y0201884D02*
X0350200Y0201884D01*
X0350536Y0202483D02*
X0354800Y0202483D01*
X0354800Y0203081D02*
X0351100Y0203081D01*
X0351100Y0203680D02*
X0354800Y0203680D01*
X0354800Y0204278D02*
X0351100Y0204278D01*
X0351100Y0204877D02*
X0354800Y0204877D01*
X0354800Y0205475D02*
X0350577Y0205475D01*
X0349979Y0206074D02*
X0354800Y0206074D01*
X0354800Y0206672D02*
X0344622Y0206672D01*
X0344024Y0207271D02*
X0354800Y0207271D01*
X0354800Y0207870D02*
X0353695Y0207870D01*
X0354293Y0208468D02*
X0354800Y0208468D01*
X0348902Y0207870D02*
X0343425Y0207870D01*
X0342827Y0208468D02*
X0348303Y0208468D01*
X0347705Y0209067D02*
X0342228Y0209067D01*
X0341630Y0209665D02*
X0347696Y0209665D01*
X0347696Y0210264D02*
X0341031Y0210264D01*
X0340433Y0210862D02*
X0347696Y0210862D01*
X0347696Y0211461D02*
X0339834Y0211461D01*
X0339236Y0212059D02*
X0348037Y0212059D01*
X0348575Y0212597D02*
X0348575Y0212597D01*
X0348635Y0212658D02*
X0338637Y0212658D01*
X0338039Y0213256D02*
X0349234Y0213256D01*
X0348221Y0213855D02*
X0297698Y0213855D01*
X0298153Y0210600D02*
X0297453Y0209900D01*
X0334880Y0209900D01*
X0338200Y0206580D01*
X0338200Y0202880D01*
X0339000Y0203680D01*
X0338200Y0203680D01*
X0338200Y0204278D02*
X0339000Y0204278D01*
X0339000Y0203680D02*
X0339000Y0204953D01*
X0340347Y0206300D01*
X0341035Y0206300D01*
X0336735Y0210600D01*
X0298153Y0210600D01*
X0297816Y0210264D02*
X0337072Y0210264D01*
X0337670Y0209665D02*
X0335115Y0209665D01*
X0335713Y0209067D02*
X0338269Y0209067D01*
X0338867Y0208468D02*
X0336312Y0208468D01*
X0336910Y0207870D02*
X0339466Y0207870D01*
X0340064Y0207271D02*
X0337509Y0207271D01*
X0338107Y0206672D02*
X0340663Y0206672D01*
X0340121Y0206074D02*
X0338200Y0206074D01*
X0338200Y0205475D02*
X0339523Y0205475D01*
X0339000Y0204877D02*
X0338200Y0204877D01*
X0338200Y0203081D02*
X0338402Y0203081D01*
X0338800Y0201500D02*
X0341300Y0204000D01*
X0342437Y0201884D02*
X0342900Y0201884D01*
X0342900Y0201286D02*
X0340566Y0201286D01*
X0340200Y0200687D02*
X0342900Y0200687D01*
X0342900Y0200089D02*
X0340200Y0200089D01*
X0340200Y0199490D02*
X0342900Y0199490D01*
X0342900Y0198892D02*
X0340200Y0198892D01*
X0340200Y0198293D02*
X0342900Y0198293D01*
X0342900Y0197695D02*
X0340200Y0197695D01*
X0340200Y0197096D02*
X0342900Y0197096D01*
X0342900Y0196498D02*
X0340200Y0196498D01*
X0340200Y0195899D02*
X0342900Y0195899D01*
X0342900Y0195301D02*
X0340200Y0195301D01*
X0340200Y0194702D02*
X0342900Y0194702D01*
X0342900Y0194104D02*
X0340200Y0194104D01*
X0340200Y0193505D02*
X0342900Y0193505D01*
X0342900Y0192907D02*
X0340200Y0192907D01*
X0340200Y0192308D02*
X0342900Y0192308D01*
X0342900Y0191710D02*
X0340200Y0191710D01*
X0340200Y0191111D02*
X0342900Y0191111D01*
X0342900Y0190513D02*
X0340200Y0190513D01*
X0340200Y0189914D02*
X0342900Y0189914D01*
X0342900Y0189316D02*
X0341790Y0189316D01*
X0342388Y0188717D02*
X0342900Y0188717D01*
X0342900Y0188119D02*
X0342400Y0188119D01*
X0342400Y0187520D02*
X0342900Y0187520D01*
X0342900Y0186922D02*
X0342400Y0186922D01*
X0342400Y0186323D02*
X0342900Y0186323D01*
X0342900Y0185725D02*
X0342400Y0185725D01*
X0342232Y0185126D02*
X0342900Y0185126D01*
X0342900Y0184528D02*
X0342400Y0184528D01*
X0342400Y0183929D02*
X0342900Y0183929D01*
X0342990Y0183331D02*
X0342400Y0183331D01*
X0342400Y0182732D02*
X0343588Y0182732D01*
X0344187Y0182134D02*
X0342400Y0182134D01*
X0342400Y0181535D02*
X0345200Y0181535D01*
X0345558Y0180937D02*
X0342042Y0180937D01*
X0340200Y0180338D02*
X0354800Y0180338D01*
X0354800Y0179739D02*
X0340200Y0179739D01*
X0340200Y0179141D02*
X0354800Y0179141D01*
X0354800Y0178542D02*
X0340737Y0178542D01*
X0341336Y0177944D02*
X0354800Y0177944D01*
X0354800Y0177345D02*
X0341934Y0177345D01*
X0342533Y0176747D02*
X0354800Y0176747D01*
X0354800Y0176148D02*
X0343131Y0176148D01*
X0343730Y0175550D02*
X0354800Y0175550D01*
X0354800Y0174951D02*
X0344328Y0174951D01*
X0344927Y0174353D02*
X0354800Y0174353D01*
X0354800Y0173754D02*
X0345526Y0173754D01*
X0346124Y0173156D02*
X0354800Y0173156D01*
X0354800Y0172557D02*
X0346723Y0172557D01*
X0347321Y0171959D02*
X0354800Y0171959D01*
X0354800Y0171360D02*
X0347920Y0171360D01*
X0348518Y0170762D02*
X0354800Y0170762D01*
X0354800Y0170163D02*
X0349117Y0170163D01*
X0349715Y0169565D02*
X0354800Y0169565D01*
X0354800Y0168966D02*
X0350314Y0168966D01*
X0350912Y0168368D02*
X0354800Y0168368D01*
X0354800Y0167769D02*
X0351511Y0167769D01*
X0352109Y0167171D02*
X0354800Y0167171D01*
X0354800Y0166572D02*
X0352708Y0166572D01*
X0353306Y0165974D02*
X0354800Y0165974D01*
X0354800Y0165375D02*
X0353905Y0165375D01*
X0354503Y0164777D02*
X0354800Y0164777D01*
X0351165Y0161186D02*
X0350146Y0161186D01*
X0350566Y0161784D02*
X0349547Y0161784D01*
X0349968Y0162383D02*
X0348949Y0162383D01*
X0349369Y0162981D02*
X0348350Y0162981D01*
X0348771Y0163580D02*
X0347752Y0163580D01*
X0348172Y0164178D02*
X0347153Y0164178D01*
X0347151Y0164180D02*
X0351551Y0159780D01*
X0351551Y0160799D01*
X0347151Y0165199D01*
X0347151Y0164180D01*
X0347151Y0164777D02*
X0347574Y0164777D01*
X0344800Y0161000D02*
X0350551Y0155249D01*
X0350551Y0101343D01*
X0345909Y0096700D01*
X0341303Y0096700D01*
X0337403Y0092800D01*
X0314803Y0092800D01*
X0311403Y0096200D01*
X0269100Y0096200D01*
X0260300Y0105000D01*
X0261157Y0106123D02*
X0277500Y0106123D01*
X0277500Y0106600D02*
X0277500Y0105479D01*
X0277589Y0105148D01*
X0277760Y0104852D01*
X0278002Y0104610D01*
X0278298Y0104439D01*
X0278629Y0104350D01*
X0281000Y0104350D01*
X0281000Y0106600D01*
X0281600Y0106600D01*
X0281600Y0107200D01*
X0285100Y0107200D01*
X0285100Y0108321D01*
X0285011Y0108652D01*
X0284900Y0108845D01*
X0284900Y0111806D01*
X0284256Y0112450D01*
X0283003Y0112450D01*
X0283600Y0113047D01*
X0283600Y0114953D01*
X0282253Y0116300D01*
X0280347Y0116300D01*
X0279000Y0114953D01*
X0279000Y0113047D01*
X0279597Y0112450D01*
X0278344Y0112450D01*
X0277700Y0111806D01*
X0277700Y0108845D01*
X0277589Y0108652D01*
X0277500Y0108321D01*
X0277500Y0107200D01*
X0281000Y0107200D01*
X0281000Y0106600D01*
X0277500Y0106600D01*
X0277500Y0107320D02*
X0229700Y0107320D01*
X0229700Y0107918D02*
X0277500Y0107918D01*
X0277552Y0108517D02*
X0229700Y0108517D01*
X0229700Y0109115D02*
X0277700Y0109115D01*
X0277700Y0109714D02*
X0229700Y0109714D01*
X0229700Y0110312D02*
X0277700Y0110312D01*
X0277700Y0110911D02*
X0229700Y0110911D01*
X0229700Y0111509D02*
X0277700Y0111509D01*
X0278002Y0112108D02*
X0229700Y0112108D01*
X0229700Y0112706D02*
X0279341Y0112706D01*
X0279000Y0113305D02*
X0229700Y0113305D01*
X0229700Y0113903D02*
X0279000Y0113903D01*
X0279000Y0114502D02*
X0229700Y0114502D01*
X0229700Y0115100D02*
X0279148Y0115100D01*
X0279746Y0115699D02*
X0229700Y0115699D01*
X0229700Y0116297D02*
X0280345Y0116297D01*
X0282255Y0116297D02*
X0347951Y0116297D01*
X0347951Y0115699D02*
X0282854Y0115699D01*
X0283452Y0115100D02*
X0347951Y0115100D01*
X0347951Y0114502D02*
X0283600Y0114502D01*
X0283600Y0113903D02*
X0347951Y0113903D01*
X0347951Y0113305D02*
X0283600Y0113305D01*
X0283259Y0112706D02*
X0347951Y0112706D01*
X0347951Y0112108D02*
X0284598Y0112108D01*
X0284900Y0111509D02*
X0347951Y0111509D01*
X0347951Y0110911D02*
X0284900Y0110911D01*
X0284900Y0110312D02*
X0347951Y0110312D01*
X0347951Y0109714D02*
X0284900Y0109714D01*
X0284900Y0109115D02*
X0347951Y0109115D01*
X0347951Y0108517D02*
X0285048Y0108517D01*
X0285100Y0107918D02*
X0347951Y0107918D01*
X0347951Y0107320D02*
X0285100Y0107320D01*
X0285100Y0106600D02*
X0281600Y0106600D01*
X0281600Y0104350D01*
X0283971Y0104350D01*
X0284302Y0104439D01*
X0284598Y0104610D01*
X0284840Y0104852D01*
X0285011Y0105148D01*
X0285100Y0105479D01*
X0285100Y0106600D01*
X0285100Y0106123D02*
X0347951Y0106123D01*
X0347951Y0106721D02*
X0281600Y0106721D01*
X0281600Y0106123D02*
X0281000Y0106123D01*
X0281000Y0106721D02*
X0253832Y0106721D01*
X0254300Y0102000D02*
X0230300Y0102000D01*
X0226300Y0100000D02*
X0226300Y0150000D01*
X0211300Y0165000D01*
X0211300Y0210500D01*
X0218800Y0218000D01*
X0218800Y0218300D01*
X0218780Y0216000D02*
X0219753Y0216000D01*
X0219900Y0216147D01*
X0219900Y0215080D01*
X0212700Y0207880D01*
X0212700Y0209920D01*
X0218780Y0216000D01*
X0218430Y0215650D02*
X0219900Y0215650D01*
X0219872Y0215052D02*
X0217832Y0215052D01*
X0217233Y0214453D02*
X0219273Y0214453D01*
X0218675Y0213855D02*
X0216635Y0213855D01*
X0216036Y0213256D02*
X0218076Y0213256D01*
X0217478Y0212658D02*
X0215437Y0212658D01*
X0214839Y0212059D02*
X0216879Y0212059D01*
X0216281Y0211461D02*
X0214240Y0211461D01*
X0213642Y0210862D02*
X0215682Y0210862D01*
X0215084Y0210264D02*
X0213043Y0210264D01*
X0212700Y0209665D02*
X0214485Y0209665D01*
X0213887Y0209067D02*
X0212700Y0209067D01*
X0212700Y0208468D02*
X0213288Y0208468D01*
X0209900Y0208468D02*
X0207700Y0208468D01*
X0207700Y0207870D02*
X0209900Y0207870D01*
X0209900Y0207271D02*
X0207700Y0207271D01*
X0207700Y0206672D02*
X0209900Y0206672D01*
X0209900Y0206074D02*
X0207700Y0206074D01*
X0207700Y0205475D02*
X0209900Y0205475D01*
X0209900Y0204877D02*
X0207700Y0204877D01*
X0207700Y0204278D02*
X0209900Y0204278D01*
X0209900Y0203680D02*
X0207700Y0203680D01*
X0207700Y0203081D02*
X0209900Y0203081D01*
X0209900Y0202483D02*
X0207700Y0202483D01*
X0207700Y0201884D02*
X0209900Y0201884D01*
X0209900Y0201286D02*
X0207700Y0201286D01*
X0207700Y0200687D02*
X0209900Y0200687D01*
X0209900Y0200089D02*
X0207700Y0200089D01*
X0207700Y0199490D02*
X0209900Y0199490D01*
X0209900Y0198892D02*
X0207700Y0198892D01*
X0207700Y0198293D02*
X0209900Y0198293D01*
X0209900Y0197695D02*
X0207700Y0197695D01*
X0207700Y0197096D02*
X0209900Y0197096D01*
X0209900Y0196498D02*
X0207700Y0196498D01*
X0207700Y0195899D02*
X0209900Y0195899D01*
X0209900Y0195301D02*
X0207700Y0195301D01*
X0207700Y0194702D02*
X0209900Y0194702D01*
X0209900Y0194104D02*
X0207384Y0194104D01*
X0206785Y0193505D02*
X0209900Y0193505D01*
X0209900Y0192907D02*
X0206187Y0192907D01*
X0205588Y0192308D02*
X0209900Y0192308D01*
X0209900Y0191710D02*
X0204990Y0191710D01*
X0204391Y0191111D02*
X0209900Y0191111D01*
X0209900Y0190513D02*
X0203793Y0190513D01*
X0203194Y0189914D02*
X0209900Y0189914D01*
X0209900Y0189316D02*
X0202596Y0189316D01*
X0201997Y0188717D02*
X0209900Y0188717D01*
X0209900Y0188119D02*
X0195716Y0188119D01*
X0195468Y0187520D02*
X0209900Y0187520D01*
X0209900Y0186922D02*
X0195010Y0186922D01*
X0194411Y0186323D02*
X0209900Y0186323D01*
X0209900Y0185725D02*
X0193521Y0185725D01*
X0192912Y0184528D02*
X0209900Y0184528D01*
X0209900Y0185126D02*
X0187800Y0185126D01*
X0187800Y0184528D02*
X0189688Y0184528D01*
X0189079Y0185725D02*
X0187800Y0185725D01*
X0187800Y0186323D02*
X0188189Y0186323D01*
X0188441Y0183929D02*
X0187800Y0183929D01*
X0187800Y0183331D02*
X0187842Y0183331D01*
X0194159Y0183929D02*
X0209900Y0183929D01*
X0209900Y0183331D02*
X0194758Y0183331D01*
X0195356Y0182732D02*
X0209900Y0182732D01*
X0209900Y0182134D02*
X0195612Y0182134D01*
X0195860Y0181535D02*
X0209900Y0181535D01*
X0209900Y0180937D02*
X0196100Y0180937D01*
X0196100Y0180338D02*
X0209900Y0180338D01*
X0209900Y0179739D02*
X0196100Y0179739D01*
X0196100Y0179141D02*
X0209900Y0179141D01*
X0209900Y0178542D02*
X0195892Y0178542D01*
X0196326Y0177944D02*
X0209900Y0177944D01*
X0209900Y0177345D02*
X0196924Y0177345D01*
X0197523Y0176747D02*
X0209900Y0176747D01*
X0209900Y0176148D02*
X0198121Y0176148D01*
X0198720Y0175550D02*
X0209900Y0175550D01*
X0209900Y0174951D02*
X0199318Y0174951D01*
X0199917Y0174353D02*
X0209900Y0174353D01*
X0209900Y0173754D02*
X0200515Y0173754D01*
X0201114Y0173156D02*
X0209900Y0173156D01*
X0209900Y0172557D02*
X0201712Y0172557D01*
X0202311Y0171959D02*
X0209900Y0171959D01*
X0209900Y0171360D02*
X0202910Y0171360D01*
X0203508Y0170762D02*
X0209900Y0170762D01*
X0209900Y0170163D02*
X0204107Y0170163D01*
X0204705Y0169565D02*
X0209900Y0169565D01*
X0209900Y0168966D02*
X0205304Y0168966D01*
X0205902Y0168368D02*
X0209900Y0168368D01*
X0209900Y0167769D02*
X0206501Y0167769D01*
X0207099Y0167171D02*
X0209900Y0167171D01*
X0209900Y0166572D02*
X0207698Y0166572D01*
X0208296Y0165974D02*
X0209900Y0165974D01*
X0209900Y0165375D02*
X0208895Y0165375D01*
X0209493Y0164777D02*
X0209900Y0164777D01*
X0210092Y0164178D02*
X0210142Y0164178D01*
X0210690Y0163580D02*
X0210740Y0163580D01*
X0211289Y0162981D02*
X0211339Y0162981D01*
X0211887Y0162383D02*
X0211937Y0162383D01*
X0212486Y0161784D02*
X0212536Y0161784D01*
X0213084Y0161186D02*
X0213134Y0161186D01*
X0213683Y0160587D02*
X0213733Y0160587D01*
X0214281Y0159989D02*
X0214331Y0159989D01*
X0214880Y0159390D02*
X0214930Y0159390D01*
X0215478Y0158792D02*
X0215529Y0158792D01*
X0216077Y0158193D02*
X0216127Y0158193D01*
X0216675Y0157595D02*
X0216726Y0157595D01*
X0217274Y0156996D02*
X0217324Y0156996D01*
X0217872Y0156398D02*
X0217923Y0156398D01*
X0218471Y0155799D02*
X0218521Y0155799D01*
X0219069Y0155201D02*
X0219120Y0155201D01*
X0219668Y0154602D02*
X0219718Y0154602D01*
X0220266Y0154003D02*
X0220317Y0154003D01*
X0220865Y0153405D02*
X0220915Y0153405D01*
X0221463Y0152806D02*
X0221514Y0152806D01*
X0222062Y0152208D02*
X0222112Y0152208D01*
X0222660Y0151609D02*
X0222711Y0151609D01*
X0223259Y0151011D02*
X0223309Y0151011D01*
X0223857Y0150412D02*
X0223908Y0150412D01*
X0224456Y0149814D02*
X0224506Y0149814D01*
X0220910Y0147420D02*
X0187800Y0147420D01*
X0187800Y0148018D02*
X0220312Y0148018D01*
X0219713Y0148617D02*
X0187800Y0148617D01*
X0187800Y0149215D02*
X0219115Y0149215D01*
X0218516Y0149814D02*
X0187800Y0149814D01*
X0187800Y0150412D02*
X0217918Y0150412D01*
X0217319Y0151011D02*
X0187800Y0151011D01*
X0187800Y0151609D02*
X0216721Y0151609D01*
X0216122Y0152208D02*
X0187800Y0152208D01*
X0187800Y0152806D02*
X0215524Y0152806D01*
X0214925Y0153405D02*
X0187800Y0153405D01*
X0187800Y0154003D02*
X0214327Y0154003D01*
X0213728Y0154602D02*
X0187800Y0154602D01*
X0187800Y0155201D02*
X0189891Y0155201D01*
X0191000Y0155201D02*
X0191600Y0155201D01*
X0191600Y0155000D02*
X0191694Y0155000D01*
X0192471Y0155123D01*
X0193219Y0155366D01*
X0193921Y0155724D01*
X0194557Y0156186D01*
X0195114Y0156743D01*
X0195576Y0157379D01*
X0195934Y0158081D01*
X0196177Y0158829D01*
X0196300Y0159606D01*
X0196300Y0159700D01*
X0191600Y0159700D01*
X0191600Y0155000D01*
X0191600Y0155799D02*
X0191000Y0155799D01*
X0191000Y0156398D02*
X0191600Y0156398D01*
X0191600Y0156996D02*
X0191000Y0156996D01*
X0191000Y0157595D02*
X0191600Y0157595D01*
X0191600Y0158193D02*
X0191000Y0158193D01*
X0191000Y0158792D02*
X0191600Y0158792D01*
X0191600Y0159390D02*
X0191000Y0159390D01*
X0191600Y0159989D02*
X0208342Y0159989D01*
X0208940Y0159390D02*
X0196266Y0159390D01*
X0196165Y0158792D02*
X0209539Y0158792D01*
X0210137Y0158193D02*
X0195970Y0158193D01*
X0195686Y0157595D02*
X0210736Y0157595D01*
X0211334Y0156996D02*
X0195298Y0156996D01*
X0194769Y0156398D02*
X0211933Y0156398D01*
X0212531Y0155799D02*
X0194024Y0155799D01*
X0192709Y0155201D02*
X0213130Y0155201D01*
X0207743Y0160587D02*
X0196269Y0160587D01*
X0196300Y0160394D02*
X0196177Y0161171D01*
X0195934Y0161919D01*
X0195576Y0162621D01*
X0195114Y0163257D01*
X0194557Y0163814D01*
X0193921Y0164276D01*
X0193219Y0164634D01*
X0192471Y0164877D01*
X0191694Y0165000D01*
X0191600Y0165000D01*
X0191600Y0160300D01*
X0196300Y0160300D01*
X0196300Y0160394D01*
X0196172Y0161186D02*
X0207145Y0161186D01*
X0206546Y0161784D02*
X0195978Y0161784D01*
X0195698Y0162383D02*
X0205947Y0162383D01*
X0205349Y0162981D02*
X0195314Y0162981D01*
X0194791Y0163580D02*
X0204750Y0163580D01*
X0204152Y0164178D02*
X0194056Y0164178D01*
X0192779Y0164777D02*
X0203553Y0164777D01*
X0202955Y0165375D02*
X0192678Y0165375D01*
X0191600Y0164777D02*
X0191000Y0164777D01*
X0191000Y0164178D02*
X0191600Y0164178D01*
X0191600Y0163580D02*
X0191000Y0163580D01*
X0191000Y0162981D02*
X0191600Y0162981D01*
X0191600Y0162383D02*
X0191000Y0162383D01*
X0191000Y0161784D02*
X0191600Y0161784D01*
X0191600Y0161186D02*
X0191000Y0161186D01*
X0191000Y0160587D02*
X0191600Y0160587D01*
X0189821Y0164777D02*
X0187800Y0164777D01*
X0187800Y0165375D02*
X0189922Y0165375D01*
X0188538Y0165974D02*
X0187800Y0165974D01*
X0187800Y0166572D02*
X0187940Y0166572D01*
X0187800Y0164178D02*
X0188544Y0164178D01*
X0187809Y0163580D02*
X0187800Y0163580D01*
X0194062Y0165974D02*
X0202356Y0165974D01*
X0201758Y0166572D02*
X0194660Y0166572D01*
X0195259Y0167171D02*
X0201159Y0167171D01*
X0200561Y0167769D02*
X0195571Y0167769D01*
X0195819Y0168368D02*
X0199962Y0168368D01*
X0199364Y0168966D02*
X0196067Y0168966D01*
X0196100Y0169565D02*
X0198765Y0169565D01*
X0198167Y0170163D02*
X0196100Y0170163D01*
X0196100Y0170762D02*
X0197568Y0170762D01*
X0196970Y0171360D02*
X0195932Y0171360D01*
X0195684Y0171959D02*
X0196371Y0171959D01*
X0195773Y0172557D02*
X0195436Y0172557D01*
X0195174Y0173156D02*
X0194932Y0173156D01*
X0194576Y0173754D02*
X0194334Y0173754D01*
X0193977Y0174353D02*
X0193334Y0174353D01*
X0193379Y0174951D02*
X0187800Y0174951D01*
X0187800Y0174353D02*
X0189266Y0174353D01*
X0188266Y0173754D02*
X0187800Y0173754D01*
X0187800Y0175550D02*
X0189500Y0175550D01*
X0188363Y0176148D02*
X0187800Y0176148D01*
X0213900Y0176148D02*
X0214196Y0176148D01*
X0214000Y0175550D02*
X0213900Y0175550D01*
X0213900Y0176747D02*
X0214794Y0176747D01*
X0232497Y0177944D02*
X0331876Y0177944D01*
X0331278Y0178542D02*
X0233095Y0178542D01*
X0233600Y0179141D02*
X0330679Y0179141D01*
X0330081Y0179739D02*
X0233600Y0179739D01*
X0206300Y0195000D02*
X0201300Y0190000D01*
X0191300Y0190000D01*
X0195787Y0191710D02*
X0201030Y0191710D01*
X0201628Y0192308D02*
X0195539Y0192308D01*
X0195181Y0192907D02*
X0202227Y0192907D01*
X0202825Y0193505D02*
X0194583Y0193505D01*
X0193936Y0194104D02*
X0203424Y0194104D01*
X0204022Y0194702D02*
X0192491Y0194702D01*
X0192498Y0195301D02*
X0204621Y0195301D01*
X0204900Y0195899D02*
X0193943Y0195899D01*
X0194586Y0196498D02*
X0204900Y0196498D01*
X0204900Y0197096D02*
X0195185Y0197096D01*
X0195541Y0197695D02*
X0204900Y0197695D01*
X0204900Y0198293D02*
X0195789Y0198293D01*
X0196036Y0198892D02*
X0204900Y0198892D01*
X0204900Y0199490D02*
X0196100Y0199490D01*
X0196100Y0200089D02*
X0204900Y0200089D01*
X0204900Y0200687D02*
X0196100Y0200687D01*
X0195963Y0201286D02*
X0204900Y0201286D01*
X0204900Y0201884D02*
X0195715Y0201884D01*
X0195467Y0202483D02*
X0204900Y0202483D01*
X0204900Y0203081D02*
X0195007Y0203081D01*
X0194408Y0203680D02*
X0204900Y0203680D01*
X0204900Y0204278D02*
X0193514Y0204278D01*
X0192920Y0205475D02*
X0204900Y0205475D01*
X0204900Y0204877D02*
X0187800Y0204877D01*
X0187800Y0205475D02*
X0189680Y0205475D01*
X0189086Y0204278D02*
X0187800Y0204278D01*
X0187800Y0203680D02*
X0188192Y0203680D01*
X0188438Y0206074D02*
X0187800Y0206074D01*
X0187800Y0206672D02*
X0187839Y0206672D01*
X0194162Y0206074D02*
X0204900Y0206074D01*
X0204900Y0206672D02*
X0194761Y0206672D01*
X0195359Y0207271D02*
X0204900Y0207271D01*
X0204900Y0207870D02*
X0195613Y0207870D01*
X0195861Y0208468D02*
X0204900Y0208468D01*
X0204900Y0209067D02*
X0196100Y0209067D01*
X0196100Y0209665D02*
X0204900Y0209665D01*
X0204900Y0210264D02*
X0196100Y0210264D01*
X0196100Y0210862D02*
X0204900Y0210862D01*
X0204900Y0211461D02*
X0195890Y0211461D01*
X0195643Y0212059D02*
X0204900Y0212059D01*
X0204900Y0212658D02*
X0195395Y0212658D01*
X0194832Y0213256D02*
X0204900Y0213256D01*
X0204900Y0213855D02*
X0194234Y0213855D01*
X0193092Y0214453D02*
X0204900Y0214453D01*
X0204900Y0215052D02*
X0187800Y0215052D01*
X0187800Y0215650D02*
X0204900Y0215650D01*
X0204900Y0216249D02*
X0187800Y0216249D01*
X0187800Y0216847D02*
X0204900Y0216847D01*
X0204900Y0217446D02*
X0187800Y0217446D01*
X0187800Y0218044D02*
X0204900Y0218044D01*
X0204900Y0218643D02*
X0187800Y0218643D01*
X0187800Y0219241D02*
X0204900Y0219241D01*
X0204900Y0219840D02*
X0187800Y0219840D01*
X0187800Y0220438D02*
X0204900Y0220438D01*
X0204900Y0221037D02*
X0187800Y0221037D01*
X0187800Y0221635D02*
X0204900Y0221635D01*
X0204900Y0222234D02*
X0187800Y0222234D01*
X0187800Y0222832D02*
X0204900Y0222832D01*
X0204900Y0223431D02*
X0187800Y0223431D01*
X0187800Y0224029D02*
X0204900Y0224029D01*
X0204900Y0224628D02*
X0187800Y0224628D01*
X0187800Y0225226D02*
X0204900Y0225226D01*
X0205145Y0225825D02*
X0187800Y0225825D01*
X0187800Y0226423D02*
X0194010Y0226423D01*
X0192565Y0227022D02*
X0187800Y0227022D01*
X0187800Y0227620D02*
X0191235Y0227620D01*
X0191315Y0227540D02*
X0191315Y0227540D01*
X0190636Y0228219D02*
X0187800Y0228219D01*
X0187800Y0228817D02*
X0190037Y0228817D01*
X0189439Y0229416D02*
X0187800Y0229416D01*
X0187800Y0230014D02*
X0188840Y0230014D01*
X0188840Y0230015D02*
X0188840Y0230015D01*
X0188592Y0230613D02*
X0187800Y0230613D01*
X0187800Y0231211D02*
X0188344Y0231211D01*
X0188096Y0231810D02*
X0187800Y0231810D01*
X0187800Y0232408D02*
X0187848Y0232408D01*
X0187800Y0237475D02*
X0187800Y0243500D01*
X0193825Y0243500D01*
X0191315Y0242460D01*
X0188840Y0239985D01*
X0188840Y0239985D01*
X0187800Y0237475D01*
X0187800Y0237795D02*
X0187933Y0237795D01*
X0187800Y0238394D02*
X0188181Y0238394D01*
X0188429Y0238992D02*
X0187800Y0238992D01*
X0187800Y0239591D02*
X0188676Y0239591D01*
X0189044Y0240189D02*
X0187800Y0240189D01*
X0187800Y0240788D02*
X0189643Y0240788D01*
X0190241Y0241386D02*
X0187800Y0241386D01*
X0187800Y0241985D02*
X0190840Y0241985D01*
X0191315Y0242460D02*
X0191315Y0242460D01*
X0191612Y0242583D02*
X0187800Y0242583D01*
X0187800Y0243182D02*
X0193057Y0243182D01*
X0199543Y0243182D02*
X0237431Y0243182D01*
X0237005Y0242583D02*
X0200988Y0242583D01*
X0201760Y0241985D02*
X0236700Y0241985D01*
X0236493Y0241386D02*
X0202359Y0241386D01*
X0202957Y0240788D02*
X0236362Y0240788D01*
X0236300Y0239700D02*
X0236300Y0239606D01*
X0236423Y0238829D01*
X0236666Y0238081D01*
X0237024Y0237379D01*
X0237486Y0236743D01*
X0238043Y0236186D01*
X0238679Y0235724D01*
X0239381Y0235366D01*
X0240129Y0235123D01*
X0240906Y0235000D01*
X0241000Y0235000D01*
X0241000Y0239700D01*
X0236300Y0239700D01*
X0236303Y0239591D02*
X0203924Y0239591D01*
X0203760Y0239985D02*
X0203760Y0239985D01*
X0203556Y0240189D02*
X0241000Y0240189D01*
X0241000Y0239591D02*
X0241600Y0239591D01*
X0241600Y0240189D02*
X0246500Y0240189D01*
X0246500Y0239591D02*
X0246297Y0239591D01*
X0246203Y0238992D02*
X0246522Y0238992D01*
X0246724Y0238394D02*
X0246035Y0238394D01*
X0246125Y0237795D02*
X0245788Y0237795D01*
X0245527Y0237197D02*
X0245444Y0237197D01*
X0244330Y0236000D02*
X0244300Y0236000D01*
X0243731Y0235401D02*
X0243287Y0235401D01*
X0243133Y0234803D02*
X0218517Y0234803D01*
X0218517Y0235401D02*
X0239313Y0235401D01*
X0238300Y0236000D02*
X0218517Y0236000D01*
X0217955Y0236598D02*
X0237631Y0236598D01*
X0237156Y0237197D02*
X0217356Y0237197D01*
X0215077Y0237197D02*
X0204915Y0237197D01*
X0205100Y0236598D02*
X0214478Y0236598D01*
X0213917Y0236000D02*
X0205100Y0236000D01*
X0205100Y0235401D02*
X0213917Y0235401D01*
X0213917Y0234803D02*
X0205100Y0234803D01*
X0205100Y0234204D02*
X0213524Y0234204D01*
X0212926Y0233605D02*
X0205100Y0233605D01*
X0205000Y0233007D02*
X0212327Y0233007D01*
X0211729Y0232408D02*
X0204752Y0232408D01*
X0204504Y0231810D02*
X0211130Y0231810D01*
X0210532Y0231211D02*
X0204256Y0231211D01*
X0204008Y0230613D02*
X0209933Y0230613D01*
X0209335Y0230014D02*
X0203760Y0230014D01*
X0203760Y0230015D02*
X0203760Y0230015D01*
X0203161Y0229416D02*
X0208736Y0229416D01*
X0208138Y0228817D02*
X0202562Y0228817D01*
X0201964Y0228219D02*
X0207539Y0228219D01*
X0206940Y0227620D02*
X0201365Y0227620D01*
X0201285Y0227540D02*
X0201285Y0227540D01*
X0200035Y0227022D02*
X0206342Y0227022D01*
X0205743Y0226423D02*
X0198590Y0226423D01*
X0206300Y0225000D02*
X0206300Y0195000D01*
X0190109Y0194702D02*
X0187800Y0194702D01*
X0187800Y0194104D02*
X0188664Y0194104D01*
X0188017Y0193505D02*
X0187800Y0193505D01*
X0187800Y0195301D02*
X0190102Y0195301D01*
X0188657Y0195899D02*
X0187800Y0195899D01*
X0187800Y0196498D02*
X0188014Y0196498D01*
X0207700Y0209067D02*
X0209900Y0209067D01*
X0209900Y0209665D02*
X0207700Y0209665D01*
X0207700Y0210264D02*
X0209900Y0210264D01*
X0209900Y0210862D02*
X0207700Y0210862D01*
X0207700Y0211461D02*
X0210281Y0211461D01*
X0210879Y0212059D02*
X0207700Y0212059D01*
X0207700Y0212658D02*
X0211478Y0212658D01*
X0212076Y0213256D02*
X0207700Y0213256D01*
X0207700Y0213855D02*
X0212675Y0213855D01*
X0213273Y0214453D02*
X0207700Y0214453D01*
X0207700Y0215052D02*
X0213872Y0215052D01*
X0214470Y0215650D02*
X0207700Y0215650D01*
X0207700Y0216249D02*
X0215069Y0216249D01*
X0215667Y0216847D02*
X0207700Y0216847D01*
X0207700Y0217446D02*
X0216266Y0217446D01*
X0216500Y0218044D02*
X0207700Y0218044D01*
X0207700Y0218643D02*
X0216500Y0218643D01*
X0216500Y0219241D02*
X0207700Y0219241D01*
X0207700Y0219840D02*
X0217087Y0219840D01*
X0217686Y0220438D02*
X0207700Y0220438D01*
X0207700Y0221037D02*
X0219900Y0221037D01*
X0219900Y0221635D02*
X0207700Y0221635D01*
X0207700Y0222234D02*
X0219900Y0222234D01*
X0219900Y0222832D02*
X0207700Y0222832D01*
X0207700Y0223431D02*
X0219900Y0223431D01*
X0219900Y0224029D02*
X0207700Y0224029D01*
X0207908Y0224628D02*
X0219900Y0224628D01*
X0219900Y0225226D02*
X0208506Y0225226D01*
X0209105Y0225825D02*
X0219900Y0225825D01*
X0219900Y0226423D02*
X0209703Y0226423D01*
X0210302Y0227022D02*
X0219900Y0227022D01*
X0219900Y0227620D02*
X0210900Y0227620D01*
X0211499Y0228219D02*
X0219900Y0228219D01*
X0219900Y0228817D02*
X0212097Y0228817D01*
X0212696Y0229416D02*
X0219900Y0229416D01*
X0219900Y0230014D02*
X0213294Y0230014D01*
X0213893Y0230613D02*
X0219534Y0230613D01*
X0219000Y0231211D02*
X0214491Y0231211D01*
X0215090Y0231810D02*
X0219000Y0231810D01*
X0219000Y0232408D02*
X0215688Y0232408D01*
X0217393Y0233007D02*
X0219000Y0233007D01*
X0219553Y0233605D02*
X0217991Y0233605D01*
X0218517Y0234204D02*
X0220151Y0234204D01*
X0222449Y0234204D02*
X0242534Y0234204D01*
X0241600Y0235401D02*
X0241000Y0235401D01*
X0241000Y0236000D02*
X0241600Y0236000D01*
X0241600Y0236598D02*
X0241000Y0236598D01*
X0241000Y0237197D02*
X0241600Y0237197D01*
X0241600Y0237795D02*
X0241000Y0237795D01*
X0241000Y0238394D02*
X0241600Y0238394D01*
X0241600Y0238992D02*
X0241000Y0238992D01*
X0236812Y0237795D02*
X0204667Y0237795D01*
X0204419Y0238394D02*
X0236565Y0238394D01*
X0236397Y0238992D02*
X0204171Y0238992D01*
X0216217Y0235083D02*
X0216300Y0235000D01*
X0206300Y0225000D01*
X0233511Y0219241D02*
X0239000Y0219241D01*
X0239000Y0219840D02*
X0234110Y0219840D01*
X0234708Y0220438D02*
X0239000Y0220438D01*
X0239084Y0221037D02*
X0235307Y0221037D01*
X0235905Y0221635D02*
X0239683Y0221635D01*
X0240281Y0222234D02*
X0236504Y0222234D01*
X0237102Y0222832D02*
X0240215Y0222832D01*
X0239616Y0223431D02*
X0237701Y0223431D01*
X0238299Y0224029D02*
X0239018Y0224029D01*
X0239000Y0224628D02*
X0238898Y0224628D01*
X0241570Y0227300D02*
X0244000Y0229730D01*
X0244000Y0229547D01*
X0244547Y0229000D01*
X0244000Y0228453D01*
X0244000Y0226547D01*
X0244147Y0226400D01*
X0243153Y0226400D01*
X0242253Y0227300D01*
X0241570Y0227300D01*
X0241890Y0227620D02*
X0244000Y0227620D01*
X0244000Y0227022D02*
X0242531Y0227022D01*
X0243129Y0226423D02*
X0244124Y0226423D01*
X0244000Y0228219D02*
X0242489Y0228219D01*
X0243087Y0228817D02*
X0244365Y0228817D01*
X0244131Y0229416D02*
X0243686Y0229416D01*
X0246300Y0230500D02*
X0262800Y0230500D01*
X0266300Y0227000D01*
X0279800Y0227000D01*
X0281300Y0228500D01*
X0281300Y0240000D01*
X0284686Y0236598D02*
X0287914Y0236598D01*
X0288512Y0236000D02*
X0284088Y0236000D01*
X0284019Y0235931D02*
X0282700Y0235384D01*
X0282700Y0227920D01*
X0281180Y0226400D01*
X0285720Y0226400D01*
X0289900Y0230580D01*
X0289900Y0235384D01*
X0288581Y0235931D01*
X0287231Y0237281D01*
X0286500Y0239045D01*
X0286500Y0240955D01*
X0287231Y0242719D01*
X0288012Y0243500D01*
X0284588Y0243500D01*
X0285369Y0242719D01*
X0286100Y0240955D01*
X0286100Y0239045D01*
X0285369Y0237281D01*
X0284019Y0235931D01*
X0282740Y0235401D02*
X0289860Y0235401D01*
X0289900Y0234803D02*
X0282700Y0234803D01*
X0282700Y0234204D02*
X0289900Y0234204D01*
X0289900Y0233605D02*
X0282700Y0233605D01*
X0282700Y0233007D02*
X0289900Y0233007D01*
X0289900Y0232408D02*
X0282700Y0232408D01*
X0282700Y0231810D02*
X0289900Y0231810D01*
X0289900Y0231211D02*
X0282700Y0231211D01*
X0282700Y0230613D02*
X0289900Y0230613D01*
X0289335Y0230014D02*
X0282700Y0230014D01*
X0282700Y0229416D02*
X0288736Y0229416D01*
X0288138Y0228817D02*
X0282700Y0228817D01*
X0282700Y0228219D02*
X0287539Y0228219D01*
X0286940Y0227620D02*
X0282400Y0227620D01*
X0281802Y0227022D02*
X0286342Y0227022D01*
X0285743Y0226423D02*
X0281203Y0226423D01*
X0279220Y0228400D02*
X0277953Y0228400D01*
X0278600Y0229047D01*
X0278600Y0230953D01*
X0277253Y0232300D01*
X0275347Y0232300D01*
X0274447Y0231400D01*
X0266880Y0231400D01*
X0262838Y0235442D01*
X0264019Y0235931D01*
X0265369Y0237281D01*
X0266100Y0239045D01*
X0266100Y0240955D01*
X0265369Y0242719D01*
X0264588Y0243500D01*
X0268012Y0243500D01*
X0267231Y0242719D01*
X0266500Y0240955D01*
X0266500Y0239045D01*
X0267231Y0237281D01*
X0268581Y0235931D01*
X0270345Y0235200D01*
X0272255Y0235200D01*
X0274019Y0235931D01*
X0275369Y0237281D01*
X0276100Y0239045D01*
X0276100Y0240955D01*
X0275369Y0242719D01*
X0274588Y0243500D01*
X0278012Y0243500D01*
X0277231Y0242719D01*
X0276500Y0240955D01*
X0276500Y0239045D01*
X0277231Y0237281D01*
X0278581Y0235931D01*
X0279900Y0235384D01*
X0279900Y0229080D01*
X0279220Y0228400D01*
X0279638Y0228817D02*
X0278370Y0228817D01*
X0278600Y0229416D02*
X0279900Y0229416D01*
X0279900Y0230014D02*
X0278600Y0230014D01*
X0278600Y0230613D02*
X0279900Y0230613D01*
X0279900Y0231211D02*
X0278341Y0231211D01*
X0277743Y0231810D02*
X0279900Y0231810D01*
X0279900Y0232408D02*
X0265871Y0232408D01*
X0266470Y0231810D02*
X0274857Y0231810D01*
X0276300Y0230000D02*
X0266300Y0230000D01*
X0261300Y0235000D01*
X0261300Y0240000D01*
X0264686Y0236598D02*
X0267914Y0236598D01*
X0268512Y0236000D02*
X0264088Y0236000D01*
X0263477Y0234803D02*
X0279900Y0234803D01*
X0279900Y0234204D02*
X0264076Y0234204D01*
X0264674Y0233605D02*
X0279900Y0233605D01*
X0279900Y0233007D02*
X0265273Y0233007D01*
X0262420Y0231900D02*
X0260720Y0233600D01*
X0259900Y0234420D01*
X0259900Y0235384D01*
X0258581Y0235931D01*
X0257231Y0237281D01*
X0256500Y0239045D01*
X0256500Y0240955D01*
X0257231Y0242719D01*
X0258012Y0243500D01*
X0254588Y0243500D01*
X0255369Y0242719D01*
X0256100Y0240955D01*
X0256100Y0239045D01*
X0255369Y0237281D01*
X0254019Y0235931D01*
X0252255Y0235200D01*
X0250345Y0235200D01*
X0249726Y0235456D01*
X0247070Y0232800D01*
X0247253Y0232800D01*
X0248153Y0231900D01*
X0262420Y0231900D01*
X0261912Y0232408D02*
X0247644Y0232408D01*
X0247277Y0233007D02*
X0261313Y0233007D01*
X0260715Y0233605D02*
X0247875Y0233605D01*
X0248474Y0234204D02*
X0260116Y0234204D01*
X0259900Y0234803D02*
X0249072Y0234803D01*
X0249671Y0235401D02*
X0249860Y0235401D01*
X0252740Y0235401D02*
X0259860Y0235401D01*
X0258512Y0236000D02*
X0254088Y0236000D01*
X0254686Y0236598D02*
X0257914Y0236598D01*
X0257315Y0237197D02*
X0255285Y0237197D01*
X0255582Y0237795D02*
X0257018Y0237795D01*
X0256770Y0238394D02*
X0255830Y0238394D01*
X0256078Y0238992D02*
X0256522Y0238992D01*
X0256500Y0239591D02*
X0256100Y0239591D01*
X0256100Y0240189D02*
X0256500Y0240189D01*
X0256500Y0240788D02*
X0256100Y0240788D01*
X0255921Y0241386D02*
X0256679Y0241386D01*
X0256927Y0241985D02*
X0255673Y0241985D01*
X0255425Y0242583D02*
X0257175Y0242583D01*
X0257693Y0243182D02*
X0254907Y0243182D01*
X0247693Y0243182D02*
X0245169Y0243182D01*
X0245595Y0242583D02*
X0247175Y0242583D01*
X0246927Y0241985D02*
X0245900Y0241985D01*
X0246107Y0241386D02*
X0246679Y0241386D01*
X0246500Y0240788D02*
X0246238Y0240788D01*
X0262879Y0235401D02*
X0269860Y0235401D01*
X0272740Y0235401D02*
X0279860Y0235401D01*
X0278512Y0236000D02*
X0274088Y0236000D01*
X0274686Y0236598D02*
X0277914Y0236598D01*
X0277315Y0237197D02*
X0275285Y0237197D01*
X0275582Y0237795D02*
X0277018Y0237795D01*
X0276770Y0238394D02*
X0275830Y0238394D01*
X0276078Y0238992D02*
X0276522Y0238992D01*
X0276500Y0239591D02*
X0276100Y0239591D01*
X0276100Y0240189D02*
X0276500Y0240189D01*
X0276500Y0240788D02*
X0276100Y0240788D01*
X0275921Y0241386D02*
X0276679Y0241386D01*
X0276927Y0241985D02*
X0275673Y0241985D01*
X0275425Y0242583D02*
X0277175Y0242583D01*
X0277693Y0243182D02*
X0274907Y0243182D01*
X0267693Y0243182D02*
X0264907Y0243182D01*
X0265425Y0242583D02*
X0267175Y0242583D01*
X0266927Y0241985D02*
X0265673Y0241985D01*
X0265921Y0241386D02*
X0266679Y0241386D01*
X0266500Y0240788D02*
X0266100Y0240788D01*
X0266100Y0240189D02*
X0266500Y0240189D01*
X0266500Y0239591D02*
X0266100Y0239591D01*
X0266078Y0238992D02*
X0266522Y0238992D01*
X0266770Y0238394D02*
X0265830Y0238394D01*
X0265582Y0237795D02*
X0267018Y0237795D01*
X0267315Y0237197D02*
X0265285Y0237197D01*
X0262220Y0229100D02*
X0264900Y0226420D01*
X0264920Y0226400D01*
X0262468Y0226400D01*
X0262616Y0226547D01*
X0262616Y0228453D01*
X0261968Y0229100D01*
X0262220Y0229100D01*
X0262251Y0228817D02*
X0262503Y0228817D01*
X0262616Y0228219D02*
X0263101Y0228219D01*
X0262616Y0227620D02*
X0263700Y0227620D01*
X0264298Y0227022D02*
X0262616Y0227022D01*
X0262492Y0226423D02*
X0264897Y0226423D01*
X0266880Y0228400D02*
X0266680Y0228600D01*
X0266880Y0228600D01*
X0274447Y0228600D01*
X0274647Y0228400D01*
X0266880Y0228400D01*
X0260316Y0227500D02*
X0246300Y0227500D01*
X0248053Y0229000D02*
X0248153Y0229100D01*
X0258663Y0229100D01*
X0258463Y0228900D01*
X0248153Y0228900D01*
X0248053Y0229000D01*
X0239405Y0218643D02*
X0233400Y0218643D01*
X0189508Y0214453D02*
X0187800Y0214453D01*
X0187800Y0213855D02*
X0188366Y0213855D01*
X0285285Y0237197D02*
X0287315Y0237197D01*
X0287018Y0237795D02*
X0285582Y0237795D01*
X0285830Y0238394D02*
X0286770Y0238394D01*
X0286522Y0238992D02*
X0286078Y0238992D01*
X0286100Y0239591D02*
X0286500Y0239591D01*
X0286500Y0240189D02*
X0286100Y0240189D01*
X0286100Y0240788D02*
X0286500Y0240788D01*
X0286679Y0241386D02*
X0285921Y0241386D01*
X0285673Y0241985D02*
X0286927Y0241985D01*
X0287175Y0242583D02*
X0285425Y0242583D01*
X0284907Y0243182D02*
X0287693Y0243182D01*
X0312740Y0235401D02*
X0319860Y0235401D01*
X0318512Y0236000D02*
X0314088Y0236000D01*
X0314686Y0236598D02*
X0317914Y0236598D01*
X0317315Y0237197D02*
X0315285Y0237197D01*
X0315582Y0237795D02*
X0317018Y0237795D01*
X0316770Y0238394D02*
X0315830Y0238394D01*
X0316078Y0238992D02*
X0316522Y0238992D01*
X0316500Y0239591D02*
X0316100Y0239591D01*
X0316100Y0240189D02*
X0316500Y0240189D01*
X0316500Y0240788D02*
X0316100Y0240788D01*
X0315921Y0241386D02*
X0316679Y0241386D01*
X0316927Y0241985D02*
X0315673Y0241985D01*
X0315425Y0242583D02*
X0317175Y0242583D01*
X0317693Y0243182D02*
X0314907Y0243182D01*
X0322700Y0234204D02*
X0337500Y0234204D01*
X0337500Y0233605D02*
X0322700Y0233605D01*
X0322700Y0233007D02*
X0337600Y0233007D01*
X0337848Y0232408D02*
X0322700Y0232408D01*
X0322700Y0231810D02*
X0338096Y0231810D01*
X0338344Y0231211D02*
X0322700Y0231211D01*
X0322700Y0230613D02*
X0338592Y0230613D01*
X0338840Y0230015D02*
X0338840Y0230015D01*
X0338840Y0230014D02*
X0322700Y0230014D01*
X0322700Y0229416D02*
X0339439Y0229416D01*
X0340038Y0228817D02*
X0322700Y0228817D01*
X0322700Y0228219D02*
X0340636Y0228219D01*
X0341235Y0227620D02*
X0322700Y0227620D01*
X0322700Y0227022D02*
X0342565Y0227022D01*
X0341315Y0227540D02*
X0341315Y0227540D01*
X0344010Y0226423D02*
X0322700Y0226423D01*
X0322700Y0225825D02*
X0354800Y0225825D01*
X0354800Y0226423D02*
X0348590Y0226423D01*
X0350035Y0227022D02*
X0354800Y0227022D01*
X0354800Y0227620D02*
X0351365Y0227620D01*
X0351285Y0227540D02*
X0351285Y0227540D01*
X0351964Y0228219D02*
X0354800Y0228219D01*
X0354800Y0228817D02*
X0352562Y0228817D01*
X0353161Y0229416D02*
X0354800Y0229416D01*
X0354800Y0230014D02*
X0353760Y0230014D01*
X0353760Y0230015D02*
X0353760Y0230015D01*
X0354008Y0230613D02*
X0354800Y0230613D01*
X0354800Y0231211D02*
X0354256Y0231211D01*
X0354504Y0231810D02*
X0354800Y0231810D01*
X0354800Y0232408D02*
X0354752Y0232408D01*
X0354800Y0237475D02*
X0353760Y0239985D01*
X0353595Y0240150D01*
X0354773Y0240150D01*
X0354800Y0240177D01*
X0354800Y0237475D01*
X0354800Y0237795D02*
X0354667Y0237795D01*
X0354800Y0238394D02*
X0354419Y0238394D01*
X0354171Y0238992D02*
X0354800Y0238992D01*
X0354800Y0239591D02*
X0353924Y0239591D01*
X0353760Y0239985D02*
X0353760Y0239985D01*
X0351450Y0242295D02*
X0351285Y0242460D01*
X0351285Y0242460D01*
X0348775Y0243500D01*
X0351477Y0243500D01*
X0351450Y0243473D01*
X0351450Y0242295D01*
X0351450Y0242583D02*
X0350988Y0242583D01*
X0351450Y0243182D02*
X0349543Y0243182D01*
X0354800Y0225226D02*
X0322700Y0225226D01*
X0322700Y0224628D02*
X0354800Y0224628D01*
X0354800Y0224029D02*
X0322309Y0224029D01*
X0321711Y0223431D02*
X0354800Y0223431D01*
X0354800Y0222832D02*
X0321112Y0222832D01*
X0351496Y0222234D02*
X0354800Y0222234D01*
X0354800Y0221635D02*
X0352693Y0221635D01*
X0353890Y0221037D02*
X0354800Y0221037D01*
X0354800Y0220438D02*
X0354703Y0220438D01*
X0354800Y0219051D02*
X0354800Y0217123D01*
X0354021Y0217902D01*
X0353349Y0217902D01*
X0353975Y0218215D01*
X0354464Y0218378D01*
X0354518Y0218487D01*
X0354627Y0218541D01*
X0354789Y0219029D01*
X0354800Y0219051D01*
X0354800Y0218643D02*
X0354660Y0218643D01*
X0354800Y0218044D02*
X0353633Y0218044D01*
X0354478Y0217446D02*
X0354800Y0217446D01*
X0352209Y0217332D02*
X0351999Y0217122D01*
X0351929Y0217192D01*
X0352209Y0217332D01*
X0354800Y0212878D02*
X0354270Y0212349D01*
X0354800Y0211819D01*
X0354800Y0212878D01*
X0354800Y0212658D02*
X0354579Y0212658D01*
X0354560Y0212059D02*
X0354800Y0212059D01*
X0347621Y0206074D02*
X0346494Y0206074D01*
X0348800Y0204000D02*
X0348800Y0187000D01*
X0347400Y0189350D02*
X0345844Y0189350D01*
X0345700Y0189206D01*
X0345700Y0201700D01*
X0346268Y0201700D01*
X0347058Y0202490D01*
X0347400Y0202147D01*
X0347400Y0189350D01*
X0347400Y0189914D02*
X0345700Y0189914D01*
X0345700Y0189316D02*
X0345810Y0189316D01*
X0345700Y0190513D02*
X0347400Y0190513D01*
X0347400Y0191111D02*
X0345700Y0191111D01*
X0345700Y0191710D02*
X0347400Y0191710D01*
X0347400Y0192308D02*
X0345700Y0192308D01*
X0345700Y0192907D02*
X0347400Y0192907D01*
X0347400Y0193505D02*
X0345700Y0193505D01*
X0345700Y0194104D02*
X0347400Y0194104D01*
X0347400Y0194702D02*
X0345700Y0194702D01*
X0345700Y0195301D02*
X0347400Y0195301D01*
X0347400Y0195899D02*
X0345700Y0195899D01*
X0345700Y0196498D02*
X0347400Y0196498D01*
X0347400Y0197096D02*
X0345700Y0197096D01*
X0345700Y0197695D02*
X0347400Y0197695D01*
X0347400Y0198293D02*
X0345700Y0198293D01*
X0345700Y0198892D02*
X0347400Y0198892D01*
X0347400Y0199490D02*
X0345700Y0199490D01*
X0345700Y0200089D02*
X0347400Y0200089D01*
X0347400Y0200687D02*
X0345700Y0200687D01*
X0345700Y0201286D02*
X0347400Y0201286D01*
X0347400Y0201884D02*
X0346452Y0201884D01*
X0347051Y0202483D02*
X0347064Y0202483D01*
X0338800Y0201500D02*
X0338800Y0187000D01*
X0337400Y0189350D02*
X0335844Y0189350D01*
X0335200Y0188706D01*
X0335200Y0185294D01*
X0335494Y0185000D01*
X0335387Y0184893D01*
X0335200Y0185080D01*
X0335200Y0198920D01*
X0337380Y0201100D01*
X0337400Y0201120D01*
X0337400Y0189350D01*
X0337400Y0189914D02*
X0335200Y0189914D01*
X0335200Y0189316D02*
X0335810Y0189316D01*
X0335212Y0188717D02*
X0335200Y0188717D01*
X0335200Y0188119D02*
X0335200Y0188119D01*
X0335200Y0187520D02*
X0335200Y0187520D01*
X0335200Y0186922D02*
X0335200Y0186922D01*
X0335200Y0186323D02*
X0335200Y0186323D01*
X0335200Y0185725D02*
X0335200Y0185725D01*
X0335200Y0185126D02*
X0335368Y0185126D01*
X0333220Y0183100D02*
X0334720Y0181600D01*
X0335200Y0181600D01*
X0335200Y0181294D01*
X0335844Y0180650D01*
X0337400Y0180650D01*
X0337400Y0177920D01*
X0338220Y0177100D01*
X0344184Y0171136D01*
X0343414Y0170366D01*
X0342795Y0170985D01*
X0332400Y0181380D01*
X0332400Y0184706D01*
X0332106Y0185000D01*
X0332400Y0185294D01*
X0332400Y0188706D01*
X0331756Y0189350D01*
X0330200Y0189350D01*
X0330200Y0198420D01*
X0333480Y0201700D01*
X0334020Y0201700D01*
X0332400Y0200080D01*
X0332400Y0198920D01*
X0332400Y0183920D01*
X0333220Y0183100D01*
X0332990Y0183331D02*
X0332400Y0183331D01*
X0332400Y0183929D02*
X0332400Y0183929D01*
X0332400Y0184528D02*
X0332400Y0184528D01*
X0332400Y0185126D02*
X0332232Y0185126D01*
X0332400Y0185725D02*
X0332400Y0185725D01*
X0332400Y0186323D02*
X0332400Y0186323D01*
X0332400Y0186922D02*
X0332400Y0186922D01*
X0332400Y0187520D02*
X0332400Y0187520D01*
X0332400Y0188119D02*
X0332400Y0188119D01*
X0332388Y0188717D02*
X0332400Y0188717D01*
X0332400Y0189316D02*
X0331790Y0189316D01*
X0332400Y0189914D02*
X0330200Y0189914D01*
X0330200Y0190513D02*
X0332400Y0190513D01*
X0332400Y0191111D02*
X0330200Y0191111D01*
X0330200Y0191710D02*
X0332400Y0191710D01*
X0332400Y0192308D02*
X0330200Y0192308D01*
X0330200Y0192907D02*
X0332400Y0192907D01*
X0332400Y0193505D02*
X0330200Y0193505D01*
X0330200Y0194104D02*
X0332400Y0194104D01*
X0332400Y0194702D02*
X0330200Y0194702D01*
X0330200Y0195301D02*
X0332400Y0195301D01*
X0332400Y0195899D02*
X0330200Y0195899D01*
X0330200Y0196498D02*
X0332400Y0196498D01*
X0332400Y0197096D02*
X0330200Y0197096D01*
X0330200Y0197695D02*
X0332400Y0197695D01*
X0332400Y0198293D02*
X0330200Y0198293D01*
X0330672Y0198892D02*
X0332400Y0198892D01*
X0332400Y0199490D02*
X0331270Y0199490D01*
X0331869Y0200089D02*
X0332409Y0200089D01*
X0332467Y0200687D02*
X0333007Y0200687D01*
X0333066Y0201286D02*
X0333606Y0201286D01*
X0333800Y0204000D02*
X0328800Y0199000D01*
X0328800Y0187000D01*
X0332400Y0182732D02*
X0333588Y0182732D01*
X0334187Y0182134D02*
X0332400Y0182134D01*
X0332400Y0181535D02*
X0335200Y0181535D01*
X0335558Y0180937D02*
X0332843Y0180937D01*
X0333442Y0180338D02*
X0337400Y0180338D01*
X0337400Y0179739D02*
X0334040Y0179739D01*
X0334639Y0179141D02*
X0337400Y0179141D01*
X0337400Y0178542D02*
X0335237Y0178542D01*
X0335836Y0177944D02*
X0337400Y0177944D01*
X0337975Y0177345D02*
X0336434Y0177345D01*
X0337033Y0176747D02*
X0338573Y0176747D01*
X0339172Y0176148D02*
X0337631Y0176148D01*
X0338230Y0175550D02*
X0339770Y0175550D01*
X0340369Y0174951D02*
X0338828Y0174951D01*
X0339427Y0174353D02*
X0340967Y0174353D01*
X0341566Y0173754D02*
X0340026Y0173754D01*
X0340624Y0173156D02*
X0342164Y0173156D01*
X0342763Y0172557D02*
X0341223Y0172557D01*
X0341821Y0171959D02*
X0343361Y0171959D01*
X0343960Y0171360D02*
X0342420Y0171360D01*
X0342795Y0170985D02*
X0342795Y0170985D01*
X0343018Y0170762D02*
X0343809Y0170762D01*
X0350744Y0160587D02*
X0351551Y0160587D01*
X0351551Y0159989D02*
X0351343Y0159989D01*
X0347951Y0154400D02*
X0349351Y0153000D01*
X0349351Y0101851D01*
X0345800Y0098300D01*
X0341100Y0098300D01*
X0336800Y0094000D01*
X0315300Y0094000D01*
X0308300Y0101000D01*
X0307954Y0101000D01*
X0309675Y0102532D02*
X0347951Y0102532D01*
X0347951Y0103130D02*
X0309076Y0103130D01*
X0310254Y0101933D02*
X0347453Y0101933D01*
X0346855Y0101334D02*
X0310254Y0101334D01*
X0310544Y0100736D02*
X0346256Y0100736D01*
X0345658Y0100137D02*
X0311142Y0100137D01*
X0311741Y0099539D02*
X0340359Y0099539D01*
X0339761Y0098940D02*
X0312339Y0098940D01*
X0312938Y0098342D02*
X0339162Y0098342D01*
X0338564Y0097743D02*
X0313536Y0097743D01*
X0314135Y0097145D02*
X0337965Y0097145D01*
X0337367Y0096546D02*
X0314733Y0096546D01*
X0315332Y0095948D02*
X0336768Y0095948D01*
X0349485Y0093206D02*
X0354800Y0098520D01*
X0354800Y0087475D01*
X0353760Y0089985D01*
X0351285Y0092460D01*
X0351285Y0092460D01*
X0349485Y0093206D01*
X0349834Y0093554D02*
X0354800Y0093554D01*
X0354800Y0094152D02*
X0350432Y0094152D01*
X0351031Y0094751D02*
X0354800Y0094751D01*
X0354800Y0095349D02*
X0351629Y0095349D01*
X0352228Y0095948D02*
X0354800Y0095948D01*
X0354800Y0096546D02*
X0352826Y0096546D01*
X0353425Y0097145D02*
X0354800Y0097145D01*
X0354800Y0097743D02*
X0354023Y0097743D01*
X0354622Y0098342D02*
X0354800Y0098342D01*
X0354800Y0092955D02*
X0350090Y0092955D01*
X0351388Y0092357D02*
X0354800Y0092357D01*
X0354800Y0091758D02*
X0351987Y0091758D01*
X0352585Y0091160D02*
X0354800Y0091160D01*
X0354800Y0090561D02*
X0353184Y0090561D01*
X0353760Y0089985D02*
X0353760Y0089985D01*
X0353769Y0089963D02*
X0354800Y0089963D01*
X0354800Y0089364D02*
X0354017Y0089364D01*
X0354265Y0088766D02*
X0354800Y0088766D01*
X0354800Y0088167D02*
X0354513Y0088167D01*
X0354761Y0087569D02*
X0354800Y0087569D01*
X0354800Y0082525D02*
X0354800Y0076500D01*
X0348775Y0076500D01*
X0351285Y0077540D01*
X0353760Y0080015D01*
X0354800Y0082525D01*
X0354800Y0082182D02*
X0354658Y0082182D01*
X0354800Y0081584D02*
X0354410Y0081584D01*
X0354162Y0080985D02*
X0354800Y0080985D01*
X0354800Y0080387D02*
X0353914Y0080387D01*
X0353760Y0080015D02*
X0353760Y0080015D01*
X0353533Y0079788D02*
X0354800Y0079788D01*
X0354800Y0079190D02*
X0352935Y0079190D01*
X0352336Y0078591D02*
X0354800Y0078591D01*
X0354800Y0077993D02*
X0351738Y0077993D01*
X0351285Y0077540D02*
X0351285Y0077540D01*
X0350933Y0077394D02*
X0354800Y0077394D01*
X0354800Y0076796D02*
X0349488Y0076796D01*
X0343825Y0076500D02*
X0334588Y0076500D01*
X0335369Y0077281D01*
X0336100Y0079045D01*
X0336100Y0080955D01*
X0335369Y0082719D01*
X0334019Y0084069D01*
X0332255Y0084800D01*
X0330345Y0084800D01*
X0328581Y0084069D01*
X0327231Y0082719D01*
X0326500Y0080955D01*
X0326500Y0079045D01*
X0327231Y0077281D01*
X0328012Y0076500D01*
X0324588Y0076500D01*
X0325369Y0077281D01*
X0326100Y0079045D01*
X0326100Y0080955D01*
X0325369Y0082719D01*
X0324019Y0084069D01*
X0322255Y0084800D01*
X0320345Y0084800D01*
X0318581Y0084069D01*
X0317231Y0082719D01*
X0316500Y0080955D01*
X0316500Y0079045D01*
X0317231Y0077281D01*
X0318012Y0076500D01*
X0314588Y0076500D01*
X0315369Y0077281D01*
X0316100Y0079045D01*
X0316100Y0080955D01*
X0315369Y0082719D01*
X0314019Y0084069D01*
X0312255Y0084800D01*
X0310345Y0084800D01*
X0308581Y0084069D01*
X0307231Y0082719D01*
X0306500Y0080955D01*
X0306500Y0079045D01*
X0307231Y0077281D01*
X0308012Y0076500D01*
X0304588Y0076500D01*
X0305369Y0077281D01*
X0306100Y0079045D01*
X0306100Y0080955D01*
X0305554Y0082274D01*
X0307700Y0084420D01*
X0307700Y0088147D01*
X0308600Y0089047D01*
X0308600Y0090953D01*
X0308453Y0091100D01*
X0309432Y0091100D01*
X0311912Y0088620D01*
X0312732Y0087800D01*
X0337935Y0087800D01*
X0337500Y0086750D01*
X0337500Y0083250D01*
X0338840Y0080015D01*
X0341315Y0077540D01*
X0343825Y0076500D01*
X0343112Y0076796D02*
X0334884Y0076796D01*
X0335416Y0077394D02*
X0341667Y0077394D01*
X0341315Y0077540D02*
X0341315Y0077540D01*
X0340862Y0077993D02*
X0335664Y0077993D01*
X0335912Y0078591D02*
X0340264Y0078591D01*
X0339665Y0079190D02*
X0336100Y0079190D01*
X0336100Y0079788D02*
X0339067Y0079788D01*
X0338840Y0080015D02*
X0338840Y0080015D01*
X0338686Y0080387D02*
X0336100Y0080387D01*
X0336087Y0080985D02*
X0338438Y0080985D01*
X0338190Y0081584D02*
X0335840Y0081584D01*
X0335592Y0082182D02*
X0337942Y0082182D01*
X0337694Y0082781D02*
X0335308Y0082781D01*
X0334709Y0083379D02*
X0337500Y0083379D01*
X0337500Y0083978D02*
X0334111Y0083978D01*
X0332795Y0084576D02*
X0337500Y0084576D01*
X0337500Y0085175D02*
X0307700Y0085175D01*
X0307700Y0085773D02*
X0337500Y0085773D01*
X0337500Y0086372D02*
X0307700Y0086372D01*
X0307700Y0086970D02*
X0337591Y0086970D01*
X0337839Y0087569D02*
X0307700Y0087569D01*
X0307720Y0088167D02*
X0312365Y0088167D01*
X0311766Y0088766D02*
X0308318Y0088766D01*
X0308600Y0089364D02*
X0311168Y0089364D01*
X0310569Y0089963D02*
X0308600Y0089963D01*
X0308600Y0090561D02*
X0309971Y0090561D01*
X0306300Y0090000D02*
X0306300Y0085000D01*
X0301300Y0080000D01*
X0297891Y0083379D02*
X0296659Y0083379D01*
X0296061Y0082781D02*
X0297292Y0082781D01*
X0297231Y0082719D02*
X0296500Y0080955D01*
X0296500Y0079045D01*
X0297231Y0077281D01*
X0298012Y0076500D01*
X0294588Y0076500D01*
X0295369Y0077281D01*
X0296100Y0079045D01*
X0296100Y0080955D01*
X0295554Y0082274D01*
X0304000Y0090720D01*
X0304000Y0089047D01*
X0304900Y0088147D01*
X0304900Y0085580D01*
X0303574Y0084254D01*
X0302255Y0084800D01*
X0300345Y0084800D01*
X0298581Y0084069D01*
X0297231Y0082719D01*
X0297008Y0082182D02*
X0295592Y0082182D01*
X0295840Y0081584D02*
X0296760Y0081584D01*
X0296513Y0080985D02*
X0296087Y0080985D01*
X0296100Y0080387D02*
X0296500Y0080387D01*
X0296500Y0079788D02*
X0296100Y0079788D01*
X0296100Y0079190D02*
X0296500Y0079190D01*
X0296688Y0078591D02*
X0295912Y0078591D01*
X0295664Y0077993D02*
X0296936Y0077993D01*
X0297184Y0077394D02*
X0295416Y0077394D01*
X0294884Y0076796D02*
X0297716Y0076796D01*
X0304884Y0076796D02*
X0307716Y0076796D01*
X0307184Y0077394D02*
X0305416Y0077394D01*
X0305664Y0077993D02*
X0306936Y0077993D01*
X0306688Y0078591D02*
X0305912Y0078591D01*
X0306100Y0079190D02*
X0306500Y0079190D01*
X0306500Y0079788D02*
X0306100Y0079788D01*
X0306100Y0080387D02*
X0306500Y0080387D01*
X0306513Y0080985D02*
X0306087Y0080985D01*
X0305840Y0081584D02*
X0306760Y0081584D01*
X0307008Y0082182D02*
X0305592Y0082182D01*
X0306061Y0082781D02*
X0307292Y0082781D01*
X0307891Y0083379D02*
X0306659Y0083379D01*
X0307258Y0083978D02*
X0308489Y0083978D01*
X0307700Y0084576D02*
X0309805Y0084576D01*
X0312795Y0084576D02*
X0319805Y0084576D01*
X0318489Y0083978D02*
X0314111Y0083978D01*
X0314709Y0083379D02*
X0317891Y0083379D01*
X0317292Y0082781D02*
X0315308Y0082781D01*
X0315592Y0082182D02*
X0317008Y0082182D01*
X0316760Y0081584D02*
X0315840Y0081584D01*
X0316087Y0080985D02*
X0316513Y0080985D01*
X0316500Y0080387D02*
X0316100Y0080387D01*
X0316100Y0079788D02*
X0316500Y0079788D01*
X0316500Y0079190D02*
X0316100Y0079190D01*
X0315912Y0078591D02*
X0316688Y0078591D01*
X0316936Y0077993D02*
X0315664Y0077993D01*
X0315416Y0077394D02*
X0317184Y0077394D01*
X0317716Y0076796D02*
X0314884Y0076796D01*
X0324884Y0076796D02*
X0327716Y0076796D01*
X0327184Y0077394D02*
X0325416Y0077394D01*
X0325664Y0077993D02*
X0326936Y0077993D01*
X0326688Y0078591D02*
X0325912Y0078591D01*
X0326100Y0079190D02*
X0326500Y0079190D01*
X0326500Y0079788D02*
X0326100Y0079788D01*
X0326100Y0080387D02*
X0326500Y0080387D01*
X0326513Y0080985D02*
X0326087Y0080985D01*
X0325840Y0081584D02*
X0326760Y0081584D01*
X0327008Y0082182D02*
X0325592Y0082182D01*
X0325308Y0082781D02*
X0327292Y0082781D01*
X0327891Y0083379D02*
X0324709Y0083379D01*
X0324111Y0083978D02*
X0328489Y0083978D01*
X0329805Y0084576D02*
X0322795Y0084576D01*
X0304900Y0085773D02*
X0299053Y0085773D01*
X0298455Y0085175D02*
X0304495Y0085175D01*
X0303896Y0084576D02*
X0302795Y0084576D01*
X0304900Y0086372D02*
X0299652Y0086372D01*
X0300250Y0086970D02*
X0304900Y0086970D01*
X0304900Y0087569D02*
X0300849Y0087569D01*
X0301447Y0088167D02*
X0304880Y0088167D01*
X0304282Y0088766D02*
X0302046Y0088766D01*
X0302644Y0089364D02*
X0304000Y0089364D01*
X0304000Y0089963D02*
X0303243Y0089963D01*
X0303841Y0090561D02*
X0304000Y0090561D01*
X0300920Y0093600D02*
X0293720Y0086400D01*
X0285720Y0086400D01*
X0284900Y0085580D01*
X0283574Y0084254D01*
X0282255Y0084800D01*
X0280345Y0084800D01*
X0278581Y0084069D01*
X0277231Y0082719D01*
X0276500Y0080955D01*
X0276500Y0079045D01*
X0277231Y0077281D01*
X0278012Y0076500D01*
X0274588Y0076500D01*
X0275369Y0077281D01*
X0276100Y0079045D01*
X0276100Y0080955D01*
X0275369Y0082719D01*
X0274019Y0084069D01*
X0272700Y0084616D01*
X0272700Y0085580D01*
X0271880Y0086400D01*
X0271880Y0086400D01*
X0268600Y0089680D01*
X0268600Y0090953D01*
X0267253Y0092300D01*
X0265980Y0092300D01*
X0265580Y0092700D01*
X0267253Y0092700D01*
X0268153Y0093600D01*
X0300920Y0093600D01*
X0300874Y0093554D02*
X0268107Y0093554D01*
X0267508Y0092955D02*
X0300275Y0092955D01*
X0299677Y0092357D02*
X0265923Y0092357D01*
X0267794Y0091758D02*
X0299078Y0091758D01*
X0298480Y0091160D02*
X0268393Y0091160D01*
X0268600Y0090561D02*
X0297881Y0090561D01*
X0297283Y0089963D02*
X0268600Y0089963D01*
X0268916Y0089364D02*
X0296684Y0089364D01*
X0296086Y0088766D02*
X0269514Y0088766D01*
X0270113Y0088167D02*
X0295487Y0088167D01*
X0294889Y0087569D02*
X0270711Y0087569D01*
X0271310Y0086970D02*
X0294290Y0086970D01*
X0297258Y0083978D02*
X0298489Y0083978D01*
X0297856Y0084576D02*
X0299805Y0084576D01*
X0285692Y0086372D02*
X0271908Y0086372D01*
X0272507Y0085773D02*
X0285093Y0085773D01*
X0284495Y0085175D02*
X0272700Y0085175D01*
X0272795Y0084576D02*
X0279805Y0084576D01*
X0278489Y0083978D02*
X0274111Y0083978D01*
X0274709Y0083379D02*
X0277891Y0083379D01*
X0277292Y0082781D02*
X0275308Y0082781D01*
X0275592Y0082182D02*
X0277008Y0082182D01*
X0276760Y0081584D02*
X0275840Y0081584D01*
X0276087Y0080985D02*
X0276513Y0080985D01*
X0276500Y0080387D02*
X0276100Y0080387D01*
X0276100Y0079788D02*
X0276500Y0079788D01*
X0276500Y0079190D02*
X0276100Y0079190D01*
X0275912Y0078591D02*
X0276688Y0078591D01*
X0276936Y0077993D02*
X0275664Y0077993D01*
X0275416Y0077394D02*
X0277184Y0077394D01*
X0277716Y0076796D02*
X0274884Y0076796D01*
X0271300Y0080000D02*
X0271300Y0085000D01*
X0266300Y0090000D01*
X0254300Y0102000D01*
X0254183Y0100137D02*
X0253142Y0100137D01*
X0253741Y0099539D02*
X0254781Y0099539D01*
X0254339Y0098940D02*
X0255380Y0098940D01*
X0254938Y0098342D02*
X0255978Y0098342D01*
X0255536Y0097743D02*
X0256577Y0097743D01*
X0256135Y0097145D02*
X0257175Y0097145D01*
X0256733Y0096546D02*
X0257774Y0096546D01*
X0257332Y0095948D02*
X0258372Y0095948D01*
X0257930Y0095349D02*
X0258971Y0095349D01*
X0258529Y0094751D02*
X0259569Y0094751D01*
X0259128Y0094152D02*
X0260168Y0094152D01*
X0259726Y0093554D02*
X0260766Y0093554D01*
X0260325Y0092955D02*
X0261365Y0092955D01*
X0260923Y0092357D02*
X0261963Y0092357D01*
X0261522Y0091758D02*
X0262562Y0091758D01*
X0262120Y0091160D02*
X0263160Y0091160D01*
X0262700Y0090561D02*
X0263759Y0090561D01*
X0264000Y0089963D02*
X0262700Y0089963D01*
X0262700Y0089364D02*
X0264000Y0089364D01*
X0264282Y0088766D02*
X0262700Y0088766D01*
X0262700Y0088167D02*
X0264880Y0088167D01*
X0266751Y0087569D02*
X0262700Y0087569D01*
X0262700Y0086970D02*
X0267350Y0086970D01*
X0267948Y0086372D02*
X0262700Y0086372D01*
X0262700Y0085773D02*
X0268547Y0085773D01*
X0269145Y0085175D02*
X0262700Y0085175D01*
X0262795Y0084576D02*
X0269744Y0084576D01*
X0268489Y0083978D02*
X0264111Y0083978D01*
X0249805Y0084576D02*
X0243332Y0084576D01*
X0243219Y0084634D02*
X0242471Y0084877D01*
X0241694Y0085000D01*
X0241600Y0085000D01*
X0241600Y0080300D01*
X0246300Y0080300D01*
X0246300Y0080394D01*
X0246177Y0081171D01*
X0245934Y0081919D01*
X0245576Y0082621D01*
X0245114Y0083257D01*
X0244557Y0083814D01*
X0243921Y0084276D01*
X0243219Y0084634D01*
X0244332Y0083978D02*
X0248489Y0083978D01*
X0247891Y0083379D02*
X0244992Y0083379D01*
X0245460Y0082781D02*
X0247292Y0082781D01*
X0247008Y0082182D02*
X0245800Y0082182D01*
X0246043Y0081584D02*
X0246760Y0081584D01*
X0246513Y0080985D02*
X0246206Y0080985D01*
X0246300Y0080387D02*
X0246500Y0080387D01*
X0246500Y0079788D02*
X0241600Y0079788D01*
X0241600Y0080387D02*
X0241000Y0080387D01*
X0241000Y0080985D02*
X0241600Y0080985D01*
X0241600Y0081584D02*
X0241000Y0081584D01*
X0241000Y0082182D02*
X0241600Y0082182D01*
X0241600Y0082781D02*
X0241000Y0082781D01*
X0241000Y0083379D02*
X0241600Y0083379D01*
X0241600Y0083978D02*
X0241000Y0083978D01*
X0241000Y0084576D02*
X0241600Y0084576D01*
X0239268Y0084576D02*
X0205100Y0084576D01*
X0205100Y0083978D02*
X0238268Y0083978D01*
X0237608Y0083379D02*
X0205100Y0083379D01*
X0204906Y0082781D02*
X0237140Y0082781D01*
X0236800Y0082182D02*
X0204658Y0082182D01*
X0204410Y0081584D02*
X0236557Y0081584D01*
X0236394Y0080985D02*
X0204162Y0080985D01*
X0203914Y0080387D02*
X0236300Y0080387D01*
X0236366Y0079190D02*
X0202935Y0079190D01*
X0203533Y0079788D02*
X0241000Y0079788D01*
X0237448Y0076796D02*
X0199488Y0076796D01*
X0200933Y0077394D02*
X0237016Y0077394D01*
X0236711Y0077993D02*
X0201738Y0077993D01*
X0201285Y0077540D02*
X0201285Y0077540D01*
X0202336Y0078591D02*
X0236500Y0078591D01*
X0245152Y0076796D02*
X0247716Y0076796D01*
X0247184Y0077394D02*
X0245584Y0077394D01*
X0245889Y0077993D02*
X0246936Y0077993D01*
X0246688Y0078591D02*
X0246100Y0078591D01*
X0246234Y0079190D02*
X0246500Y0079190D01*
X0262930Y0095349D02*
X0264000Y0095349D01*
X0264000Y0094751D02*
X0263529Y0094751D01*
X0264000Y0095948D02*
X0262332Y0095948D01*
X0266544Y0100736D02*
X0305654Y0100736D01*
X0305654Y0101334D02*
X0265945Y0101334D01*
X0265347Y0101933D02*
X0305654Y0101933D01*
X0306232Y0102532D02*
X0264748Y0102532D01*
X0264150Y0103130D02*
X0306831Y0103130D01*
X0305654Y0100137D02*
X0267142Y0100137D01*
X0267741Y0099539D02*
X0306162Y0099539D01*
X0306760Y0098940D02*
X0268339Y0098940D01*
X0268938Y0098342D02*
X0308978Y0098342D01*
X0309577Y0097743D02*
X0269536Y0097743D01*
X0263551Y0103729D02*
X0347951Y0103729D01*
X0347951Y0104327D02*
X0262953Y0104327D01*
X0262354Y0104926D02*
X0277717Y0104926D01*
X0277500Y0105524D02*
X0261756Y0105524D01*
X0251300Y0100000D02*
X0226300Y0100000D01*
X0227895Y0098342D02*
X0250978Y0098342D01*
X0251577Y0097743D02*
X0227296Y0097743D01*
X0217705Y0098342D02*
X0187800Y0098342D01*
X0187800Y0098940D02*
X0217107Y0098940D01*
X0216508Y0099539D02*
X0187800Y0099539D01*
X0187800Y0100137D02*
X0216500Y0100137D01*
X0216500Y0100736D02*
X0187800Y0100736D01*
X0187800Y0101334D02*
X0216500Y0101334D01*
X0216980Y0101933D02*
X0187800Y0101933D01*
X0187800Y0102532D02*
X0217579Y0102532D01*
X0218460Y0103130D02*
X0187800Y0103130D01*
X0187800Y0092955D02*
X0192510Y0092955D01*
X0191315Y0092460D02*
X0191315Y0092460D01*
X0191212Y0092357D02*
X0187800Y0092357D01*
X0187800Y0091758D02*
X0190613Y0091758D01*
X0190015Y0091160D02*
X0187800Y0091160D01*
X0187800Y0090561D02*
X0189416Y0090561D01*
X0188831Y0089963D02*
X0187800Y0089963D01*
X0187800Y0089364D02*
X0188583Y0089364D01*
X0188335Y0088766D02*
X0187800Y0088766D01*
X0187800Y0088167D02*
X0188087Y0088167D01*
X0187839Y0087569D02*
X0187800Y0087569D01*
X0187800Y0082525D02*
X0187800Y0079823D01*
X0187827Y0079850D01*
X0189005Y0079850D01*
X0188840Y0080015D01*
X0188840Y0080015D01*
X0187800Y0082525D01*
X0187800Y0082182D02*
X0187942Y0082182D01*
X0187800Y0081584D02*
X0188190Y0081584D01*
X0188438Y0080985D02*
X0187800Y0080985D01*
X0187800Y0080387D02*
X0188686Y0080387D01*
X0191150Y0077705D02*
X0191315Y0077540D01*
X0193825Y0076500D01*
X0191123Y0076500D01*
X0191150Y0076527D01*
X0191150Y0077705D01*
X0191315Y0077540D02*
X0191315Y0077540D01*
X0191150Y0077394D02*
X0191667Y0077394D01*
X0191150Y0076796D02*
X0193112Y0076796D01*
X0212150Y0103729D02*
X0219059Y0103729D01*
X0219657Y0104327D02*
X0212748Y0104327D01*
X0212800Y0104926D02*
X0220256Y0104926D01*
X0220854Y0105524D02*
X0212800Y0105524D01*
X0212800Y0106123D02*
X0221200Y0106123D01*
X0221200Y0106721D02*
X0212800Y0106721D01*
X0212906Y0107320D02*
X0221200Y0107320D01*
X0221200Y0107918D02*
X0212931Y0107918D01*
X0212931Y0108517D02*
X0221200Y0108517D01*
X0221200Y0109115D02*
X0212800Y0109115D01*
X0212800Y0109714D02*
X0221200Y0109714D01*
X0221200Y0110312D02*
X0212800Y0110312D01*
X0212800Y0110911D02*
X0221200Y0110911D01*
X0221200Y0111509D02*
X0212800Y0111509D01*
X0212800Y0112108D02*
X0221200Y0112108D01*
X0221200Y0112706D02*
X0212800Y0112706D01*
X0212800Y0113305D02*
X0221200Y0113305D01*
X0221200Y0113903D02*
X0212800Y0113903D01*
X0212800Y0114502D02*
X0215546Y0114502D01*
X0215847Y0114200D02*
X0217753Y0114200D01*
X0219100Y0115547D01*
X0219100Y0117453D01*
X0218900Y0117653D01*
X0218900Y0133493D01*
X0219100Y0133693D01*
X0219100Y0135598D01*
X0217753Y0136946D01*
X0215847Y0136946D01*
X0214500Y0135598D01*
X0214500Y0133693D01*
X0214700Y0133493D01*
X0214700Y0117653D01*
X0214500Y0117453D01*
X0214500Y0115547D01*
X0215847Y0114200D01*
X0214947Y0115100D02*
X0212800Y0115100D01*
X0212800Y0115699D02*
X0214500Y0115699D01*
X0214500Y0116297D02*
X0212800Y0116297D01*
X0212800Y0116896D02*
X0214500Y0116896D01*
X0214542Y0117494D02*
X0212800Y0117494D01*
X0212800Y0118093D02*
X0214700Y0118093D01*
X0214700Y0118691D02*
X0212800Y0118691D01*
X0212800Y0119290D02*
X0214700Y0119290D01*
X0214700Y0119888D02*
X0212800Y0119888D01*
X0212800Y0120487D02*
X0214700Y0120487D01*
X0214700Y0121085D02*
X0212800Y0121085D01*
X0212800Y0121684D02*
X0214700Y0121684D01*
X0214700Y0122282D02*
X0212800Y0122282D01*
X0212800Y0122881D02*
X0214700Y0122881D01*
X0214700Y0123479D02*
X0212800Y0123479D01*
X0212800Y0124078D02*
X0214700Y0124078D01*
X0214700Y0124676D02*
X0212800Y0124676D01*
X0212800Y0125275D02*
X0214700Y0125275D01*
X0214700Y0125873D02*
X0212800Y0125873D01*
X0212800Y0126472D02*
X0214700Y0126472D01*
X0214700Y0127070D02*
X0212800Y0127070D01*
X0212800Y0127669D02*
X0214700Y0127669D01*
X0214700Y0128268D02*
X0212800Y0128268D01*
X0212800Y0128866D02*
X0214700Y0128866D01*
X0214700Y0129465D02*
X0212800Y0129465D01*
X0212800Y0130063D02*
X0214700Y0130063D01*
X0214700Y0130662D02*
X0212800Y0130662D01*
X0212800Y0131260D02*
X0214700Y0131260D01*
X0214700Y0131859D02*
X0212800Y0131859D01*
X0212800Y0132457D02*
X0214700Y0132457D01*
X0214700Y0133056D02*
X0212800Y0133056D01*
X0212800Y0133654D02*
X0214539Y0133654D01*
X0214500Y0134253D02*
X0212800Y0134253D01*
X0212800Y0134851D02*
X0214500Y0134851D01*
X0214500Y0135450D02*
X0212800Y0135450D01*
X0212800Y0136048D02*
X0214950Y0136048D01*
X0215548Y0136647D02*
X0212800Y0136647D01*
X0212800Y0137245D02*
X0221200Y0137245D01*
X0221200Y0136647D02*
X0218052Y0136647D01*
X0218650Y0136048D02*
X0221200Y0136048D01*
X0221200Y0135450D02*
X0219100Y0135450D01*
X0219100Y0134851D02*
X0221200Y0134851D01*
X0221200Y0134253D02*
X0219100Y0134253D01*
X0219061Y0133654D02*
X0221200Y0133654D01*
X0221200Y0133056D02*
X0218900Y0133056D01*
X0218900Y0132457D02*
X0221200Y0132457D01*
X0221200Y0131859D02*
X0218900Y0131859D01*
X0218900Y0131260D02*
X0221200Y0131260D01*
X0221200Y0130662D02*
X0218900Y0130662D01*
X0218900Y0130063D02*
X0221200Y0130063D01*
X0221200Y0129465D02*
X0218900Y0129465D01*
X0218900Y0128866D02*
X0221200Y0128866D01*
X0221200Y0128268D02*
X0218900Y0128268D01*
X0218900Y0127669D02*
X0221200Y0127669D01*
X0221200Y0127070D02*
X0218900Y0127070D01*
X0218900Y0126472D02*
X0221200Y0126472D01*
X0221200Y0125873D02*
X0218900Y0125873D01*
X0218900Y0125275D02*
X0221200Y0125275D01*
X0221200Y0124676D02*
X0218900Y0124676D01*
X0218900Y0124078D02*
X0221200Y0124078D01*
X0221200Y0123479D02*
X0218900Y0123479D01*
X0218900Y0122881D02*
X0221200Y0122881D01*
X0221200Y0122282D02*
X0218900Y0122282D01*
X0218900Y0121684D02*
X0221200Y0121684D01*
X0221133Y0121085D02*
X0218900Y0121085D01*
X0218900Y0120487D02*
X0221000Y0120487D01*
X0221000Y0119888D02*
X0218900Y0119888D01*
X0218900Y0119290D02*
X0221000Y0119290D01*
X0221200Y0118691D02*
X0218900Y0118691D01*
X0218900Y0118093D02*
X0221200Y0118093D01*
X0221200Y0117494D02*
X0219058Y0117494D01*
X0219100Y0116896D02*
X0221200Y0116896D01*
X0221200Y0116297D02*
X0219100Y0116297D01*
X0219100Y0115699D02*
X0221200Y0115699D01*
X0221200Y0115100D02*
X0218653Y0115100D01*
X0218054Y0114502D02*
X0221200Y0114502D01*
X0229700Y0116896D02*
X0347951Y0116896D01*
X0347951Y0117494D02*
X0229700Y0117494D01*
X0229700Y0118093D02*
X0347951Y0118093D01*
X0347951Y0118691D02*
X0229700Y0118691D01*
X0229700Y0119290D02*
X0347951Y0119290D01*
X0347951Y0119888D02*
X0229700Y0119888D01*
X0229700Y0120487D02*
X0347951Y0120487D01*
X0347951Y0121085D02*
X0229700Y0121085D01*
X0229700Y0121684D02*
X0347951Y0121684D01*
X0347951Y0122282D02*
X0229700Y0122282D01*
X0229700Y0122881D02*
X0347951Y0122881D01*
X0347951Y0123479D02*
X0229700Y0123479D01*
X0229700Y0124078D02*
X0347951Y0124078D01*
X0347951Y0124676D02*
X0229700Y0124676D01*
X0229700Y0125275D02*
X0347951Y0125275D01*
X0347951Y0125873D02*
X0229700Y0125873D01*
X0229700Y0126472D02*
X0347951Y0126472D01*
X0347951Y0127070D02*
X0229700Y0127070D01*
X0229700Y0127669D02*
X0347951Y0127669D01*
X0347951Y0128268D02*
X0229700Y0128268D01*
X0229700Y0128866D02*
X0347951Y0128866D01*
X0347951Y0129465D02*
X0229700Y0129465D01*
X0229700Y0130063D02*
X0347951Y0130063D01*
X0347951Y0130662D02*
X0229700Y0130662D01*
X0229700Y0131260D02*
X0347951Y0131260D01*
X0347951Y0131859D02*
X0229700Y0131859D01*
X0229700Y0132457D02*
X0347951Y0132457D01*
X0347951Y0133056D02*
X0229700Y0133056D01*
X0229700Y0133654D02*
X0311681Y0133654D01*
X0311381Y0133954D02*
X0312025Y0133309D01*
X0319236Y0133309D01*
X0319880Y0133954D01*
X0319880Y0138408D01*
X0319236Y0139053D01*
X0312025Y0139053D01*
X0311381Y0138408D01*
X0311381Y0133954D01*
X0311381Y0134253D02*
X0229700Y0134253D01*
X0229700Y0134851D02*
X0311381Y0134851D01*
X0311381Y0135450D02*
X0229700Y0135450D01*
X0229700Y0136048D02*
X0311381Y0136048D01*
X0311381Y0136647D02*
X0229700Y0136647D01*
X0229700Y0137245D02*
X0311381Y0137245D01*
X0311381Y0137844D02*
X0229700Y0137844D01*
X0229700Y0138442D02*
X0311415Y0138442D01*
X0312013Y0139041D02*
X0229700Y0139041D01*
X0229700Y0139639D02*
X0347951Y0139639D01*
X0347951Y0139041D02*
X0319248Y0139041D01*
X0319846Y0138442D02*
X0347951Y0138442D01*
X0347951Y0137844D02*
X0319880Y0137844D01*
X0319880Y0137245D02*
X0347951Y0137245D01*
X0347951Y0136647D02*
X0319880Y0136647D01*
X0319880Y0136048D02*
X0347951Y0136048D01*
X0347951Y0135450D02*
X0319880Y0135450D01*
X0319880Y0134851D02*
X0347951Y0134851D01*
X0347951Y0134253D02*
X0319880Y0134253D01*
X0319581Y0133654D02*
X0347951Y0133654D01*
X0347951Y0140238D02*
X0229700Y0140238D01*
X0229700Y0140836D02*
X0347951Y0140836D01*
X0347951Y0141435D02*
X0229700Y0141435D01*
X0229700Y0142033D02*
X0347951Y0142033D01*
X0347951Y0142632D02*
X0229700Y0142632D01*
X0229700Y0143230D02*
X0347951Y0143230D01*
X0347951Y0143829D02*
X0229700Y0143829D01*
X0229700Y0144427D02*
X0347951Y0144427D01*
X0347951Y0145026D02*
X0234579Y0145026D01*
X0235177Y0145624D02*
X0347951Y0145624D01*
X0347951Y0146223D02*
X0235600Y0146223D01*
X0235600Y0146821D02*
X0347951Y0146821D01*
X0347951Y0147420D02*
X0235600Y0147420D01*
X0235534Y0148018D02*
X0347951Y0148018D01*
X0347951Y0148617D02*
X0234936Y0148617D01*
X0234700Y0149215D02*
X0347951Y0149215D01*
X0347951Y0149814D02*
X0234700Y0149814D01*
X0234700Y0150412D02*
X0347951Y0150412D01*
X0347951Y0151011D02*
X0234700Y0151011D01*
X0234700Y0151609D02*
X0250738Y0151609D01*
X0253462Y0151609D02*
X0347951Y0151609D01*
X0347951Y0152208D02*
X0254061Y0152208D01*
X0254400Y0152806D02*
X0347565Y0152806D01*
X0347930Y0154400D02*
X0347951Y0154400D01*
X0337400Y0190513D02*
X0335200Y0190513D01*
X0335200Y0191111D02*
X0337400Y0191111D01*
X0337400Y0191710D02*
X0335200Y0191710D01*
X0335200Y0192308D02*
X0337400Y0192308D01*
X0337400Y0192907D02*
X0335200Y0192907D01*
X0335200Y0193505D02*
X0337400Y0193505D01*
X0337400Y0194104D02*
X0335200Y0194104D01*
X0335200Y0194702D02*
X0337400Y0194702D01*
X0337400Y0195301D02*
X0335200Y0195301D01*
X0335200Y0195899D02*
X0337400Y0195899D01*
X0337400Y0196498D02*
X0335200Y0196498D01*
X0335200Y0197096D02*
X0337400Y0197096D01*
X0337400Y0197695D02*
X0335200Y0197695D01*
X0335200Y0198293D02*
X0337400Y0198293D01*
X0337400Y0198892D02*
X0335200Y0198892D01*
X0335770Y0199490D02*
X0337400Y0199490D01*
X0337400Y0200089D02*
X0336369Y0200089D01*
X0336967Y0200687D02*
X0337400Y0200687D01*
X0221200Y0146821D02*
X0187800Y0146821D01*
X0187800Y0155799D02*
X0188576Y0155799D01*
X0187831Y0156398D02*
X0187800Y0156398D01*
X0212198Y0146223D02*
X0221200Y0146223D01*
X0221200Y0145624D02*
X0212797Y0145624D01*
X0212800Y0145026D02*
X0221200Y0145026D01*
X0221200Y0144427D02*
X0212800Y0144427D01*
X0212800Y0143829D02*
X0221200Y0143829D01*
X0221200Y0143230D02*
X0212800Y0143230D01*
X0212926Y0142632D02*
X0221200Y0142632D01*
X0221200Y0142033D02*
X0212931Y0142033D01*
X0212931Y0141435D02*
X0221200Y0141435D01*
X0221200Y0140836D02*
X0212800Y0140836D01*
X0212800Y0140238D02*
X0221200Y0140238D01*
X0221200Y0139639D02*
X0212800Y0139639D01*
X0212800Y0139041D02*
X0221200Y0139041D01*
X0221200Y0138442D02*
X0212800Y0138442D01*
X0212800Y0137844D02*
X0221200Y0137844D01*
X0281300Y0114000D02*
X0281300Y0110100D01*
X0281000Y0105524D02*
X0281600Y0105524D01*
X0281600Y0104926D02*
X0281000Y0104926D01*
X0284883Y0104926D02*
X0347951Y0104926D01*
X0347951Y0105524D02*
X0285100Y0105524D01*
X0283896Y0084576D02*
X0282795Y0084576D01*
D18*
X0223300Y0105000D02*
X0223300Y0120000D01*
X0223300Y0148000D01*
X0191300Y0180000D01*
X0231300Y0180000D02*
X0231300Y0220000D01*
X0251300Y0240000D01*
X0216800Y0134646D02*
X0216800Y0116500D01*
X0223300Y0105000D02*
X0218800Y0100500D01*
M02*
