G75*
%MOIN*%
%OFA0B0*%
%FSLAX25Y25*%
%IPPOS*%
%LPD*%
%AMOC8*
5,1,8,0,0,1.08239X$1,22.5*
%
%ADD10C,0.13800*%
%ADD11C,0.08200*%
%ADD12R,0.05800X0.03300*%
%ADD13C,0.00500*%
%ADD14C,0.03300*%
%ADD15C,0.03359*%
D10*
X0196300Y0085000D03*
X0346300Y0085000D03*
X0346300Y0235000D03*
X0196300Y0235000D03*
D11*
X0241300Y0240000D03*
X0251300Y0240000D03*
X0261300Y0240000D03*
X0271300Y0240000D03*
X0281300Y0240000D03*
X0291300Y0240000D03*
X0301300Y0240000D03*
X0311300Y0240000D03*
X0321300Y0240000D03*
X0191300Y0210000D03*
X0191300Y0200000D03*
X0191300Y0190000D03*
X0191300Y0180000D03*
X0191300Y0170000D03*
X0191300Y0160000D03*
X0241300Y0080000D03*
X0251300Y0080000D03*
X0261300Y0080000D03*
X0271300Y0080000D03*
X0281300Y0080000D03*
X0291300Y0080000D03*
X0301300Y0080000D03*
X0311300Y0080000D03*
X0321300Y0080000D03*
X0331300Y0080000D03*
D12*
X0281300Y0106900D03*
X0281300Y0110100D03*
X0328800Y0183000D03*
X0328800Y0187000D03*
X0338800Y0187000D03*
X0338800Y0183000D03*
X0348800Y0183000D03*
X0348800Y0187000D03*
D13*
X0349300Y0185750D02*
X0348300Y0185750D01*
X0348300Y0184250D01*
X0349300Y0184250D01*
X0349300Y0185750D01*
X0349300Y0185670D02*
X0348300Y0185670D01*
X0348300Y0185171D02*
X0349300Y0185171D01*
X0349300Y0184672D02*
X0348300Y0184672D01*
X0339300Y0184672D02*
X0338300Y0184672D01*
X0338300Y0184250D02*
X0339300Y0184250D01*
X0339300Y0185750D01*
X0338300Y0185750D01*
X0338300Y0184250D01*
X0338300Y0185171D02*
X0339300Y0185171D01*
X0339300Y0185670D02*
X0338300Y0185670D01*
X0329300Y0185670D02*
X0328300Y0185670D01*
X0328300Y0185750D02*
X0329300Y0185750D01*
X0329300Y0184250D01*
X0328300Y0184250D01*
X0328300Y0185750D01*
X0328300Y0185171D02*
X0329300Y0185171D01*
X0329300Y0184672D02*
X0328300Y0184672D01*
D14*
X0188800Y0077500D03*
X0353800Y0242500D03*
D15*
X0205611Y0136378D03*
X0205611Y0113622D03*
M02*
