G04 EAGLE Gerber RS-274X export*
G75*
%MOMM*%
%FSLAX34Y34*%
%LPD*%
%INSoldermask Top*%
%IPPOS*%
%AMOC8*
5,1,8,0,0,1.08239X$1,22.5*%
G01*
%ADD10C,3.505200*%
%ADD11C,0.838200*%
%ADD12R,1.403200X2.203200*%
%ADD13R,0.803200X1.553200*%
%ADD14C,2.082800*%
%ADD15R,1.203200X1.303200*%
%ADD16R,4.200000X1.700000*%
%ADD17R,0.863600X1.473200*%
%ADD18C,0.505344*%
%ADD19R,0.833200X1.033200*%
%ADD20R,1.303200X1.203200*%
%ADD21R,1.403200X0.753200*%
%ADD22R,1.103200X1.053200*%
%ADD23R,1.723200X1.053200*%
%ADD24R,1.053200X1.723200*%
%ADD25R,1.303200X1.303200*%
%ADD26R,1.203200X0.503200*%
%ADD27R,1.203200X0.803200*%
%ADD28C,0.853200*%
%ADD29R,0.813200X0.453200*%
%ADD30R,0.763200X0.453200*%
%ADD31R,4.203200X1.703200*%
%ADD32R,1.473200X0.863600*%
%ADD33C,1.203200*%
%ADD34C,1.270000*%
%ADD35C,1.703200*%

G36*
X573822Y1138823D02*
X573822Y1138823D01*
X573866Y1138826D01*
X573888Y1138842D01*
X573914Y1138850D01*
X573943Y1138883D01*
X573978Y1138909D01*
X573988Y1138935D01*
X574006Y1138955D01*
X574013Y1138999D01*
X574028Y1139039D01*
X574023Y1139066D01*
X574027Y1139093D01*
X574009Y1139134D01*
X574000Y1139176D01*
X573974Y1139212D01*
X573970Y1139221D01*
X573965Y1139225D01*
X573956Y1139236D01*
X549956Y1163236D01*
X549918Y1163257D01*
X549885Y1163286D01*
X549858Y1163290D01*
X549834Y1163303D01*
X549790Y1163300D01*
X549747Y1163307D01*
X549722Y1163296D01*
X549694Y1163294D01*
X549659Y1163268D01*
X549619Y1163250D01*
X549604Y1163227D01*
X549582Y1163211D01*
X549566Y1163170D01*
X549542Y1163134D01*
X549535Y1163090D01*
X549532Y1163081D01*
X549533Y1163074D01*
X549531Y1163060D01*
X549531Y1139060D01*
X549536Y1139044D01*
X549533Y1139027D01*
X549555Y1138977D01*
X549570Y1138926D01*
X549583Y1138915D01*
X549590Y1138899D01*
X549635Y1138869D01*
X549675Y1138834D01*
X549692Y1138831D01*
X549707Y1138822D01*
X549780Y1138811D01*
X573780Y1138811D01*
X573822Y1138823D01*
G37*
G36*
X111542Y1138823D02*
X111542Y1138823D01*
X111586Y1138826D01*
X111608Y1138842D01*
X111634Y1138850D01*
X111663Y1138883D01*
X111698Y1138909D01*
X111708Y1138935D01*
X111726Y1138955D01*
X111733Y1138999D01*
X111748Y1139039D01*
X111743Y1139066D01*
X111747Y1139093D01*
X111729Y1139134D01*
X111720Y1139176D01*
X111694Y1139212D01*
X111690Y1139221D01*
X111685Y1139225D01*
X111676Y1139236D01*
X87676Y1163236D01*
X87638Y1163257D01*
X87605Y1163286D01*
X87578Y1163290D01*
X87554Y1163303D01*
X87510Y1163300D01*
X87467Y1163307D01*
X87442Y1163296D01*
X87414Y1163294D01*
X87379Y1163268D01*
X87339Y1163250D01*
X87324Y1163227D01*
X87302Y1163211D01*
X87286Y1163170D01*
X87262Y1163134D01*
X87255Y1163090D01*
X87252Y1163081D01*
X87253Y1163074D01*
X87251Y1163060D01*
X87251Y1139060D01*
X87256Y1139044D01*
X87253Y1139027D01*
X87275Y1138977D01*
X87290Y1138926D01*
X87303Y1138915D01*
X87310Y1138899D01*
X87355Y1138869D01*
X87395Y1138834D01*
X87412Y1138831D01*
X87427Y1138822D01*
X87500Y1138811D01*
X111500Y1138811D01*
X111542Y1138823D01*
G37*
G36*
X111542Y265063D02*
X111542Y265063D01*
X111586Y265066D01*
X111608Y265082D01*
X111634Y265090D01*
X111663Y265123D01*
X111698Y265149D01*
X111708Y265175D01*
X111726Y265195D01*
X111733Y265239D01*
X111748Y265279D01*
X111743Y265306D01*
X111747Y265333D01*
X111729Y265374D01*
X111720Y265416D01*
X111694Y265452D01*
X111690Y265461D01*
X111685Y265465D01*
X111676Y265476D01*
X87676Y289476D01*
X87638Y289497D01*
X87605Y289526D01*
X87578Y289530D01*
X87554Y289543D01*
X87510Y289540D01*
X87467Y289547D01*
X87442Y289536D01*
X87414Y289534D01*
X87379Y289508D01*
X87339Y289490D01*
X87324Y289467D01*
X87302Y289451D01*
X87286Y289410D01*
X87262Y289374D01*
X87255Y289330D01*
X87252Y289321D01*
X87253Y289314D01*
X87251Y289300D01*
X87251Y265300D01*
X87256Y265284D01*
X87253Y265267D01*
X87275Y265217D01*
X87290Y265166D01*
X87303Y265155D01*
X87310Y265139D01*
X87355Y265109D01*
X87395Y265074D01*
X87412Y265071D01*
X87427Y265062D01*
X87500Y265051D01*
X111500Y265051D01*
X111542Y265063D01*
G37*
G36*
X573822Y265063D02*
X573822Y265063D01*
X573866Y265066D01*
X573888Y265082D01*
X573914Y265090D01*
X573943Y265123D01*
X573978Y265149D01*
X573988Y265175D01*
X574006Y265195D01*
X574013Y265239D01*
X574028Y265279D01*
X574023Y265306D01*
X574027Y265333D01*
X574009Y265374D01*
X574000Y265416D01*
X573974Y265452D01*
X573970Y265461D01*
X573965Y265465D01*
X573956Y265476D01*
X549956Y289476D01*
X549918Y289497D01*
X549885Y289526D01*
X549858Y289530D01*
X549834Y289543D01*
X549790Y289540D01*
X549747Y289547D01*
X549722Y289536D01*
X549694Y289534D01*
X549659Y289508D01*
X549619Y289490D01*
X549604Y289467D01*
X549582Y289451D01*
X549566Y289410D01*
X549542Y289374D01*
X549535Y289330D01*
X549532Y289321D01*
X549533Y289314D01*
X549531Y289300D01*
X549531Y265300D01*
X549536Y265284D01*
X549533Y265267D01*
X549555Y265217D01*
X549570Y265166D01*
X549583Y265155D01*
X549590Y265139D01*
X549635Y265109D01*
X549675Y265074D01*
X549692Y265071D01*
X549707Y265062D01*
X549780Y265051D01*
X573780Y265051D01*
X573822Y265063D01*
G37*
G36*
X573822Y701943D02*
X573822Y701943D01*
X573866Y701946D01*
X573888Y701962D01*
X573914Y701970D01*
X573943Y702003D01*
X573978Y702029D01*
X573988Y702055D01*
X574006Y702075D01*
X574013Y702119D01*
X574028Y702159D01*
X574023Y702186D01*
X574027Y702213D01*
X574009Y702254D01*
X574000Y702296D01*
X573974Y702332D01*
X573970Y702341D01*
X573965Y702345D01*
X573956Y702356D01*
X549956Y726356D01*
X549918Y726377D01*
X549885Y726406D01*
X549858Y726410D01*
X549834Y726423D01*
X549790Y726420D01*
X549747Y726427D01*
X549722Y726416D01*
X549694Y726414D01*
X549659Y726388D01*
X549619Y726370D01*
X549604Y726347D01*
X549582Y726331D01*
X549566Y726290D01*
X549542Y726254D01*
X549535Y726210D01*
X549532Y726201D01*
X549533Y726194D01*
X549531Y726180D01*
X549531Y702180D01*
X549536Y702164D01*
X549533Y702147D01*
X549555Y702097D01*
X549570Y702046D01*
X549583Y702035D01*
X549590Y702019D01*
X549635Y701989D01*
X549675Y701954D01*
X549692Y701951D01*
X549707Y701942D01*
X549780Y701931D01*
X573780Y701931D01*
X573822Y701943D01*
G37*
G36*
X111542Y701943D02*
X111542Y701943D01*
X111586Y701946D01*
X111608Y701962D01*
X111634Y701970D01*
X111663Y702003D01*
X111698Y702029D01*
X111708Y702055D01*
X111726Y702075D01*
X111733Y702119D01*
X111748Y702159D01*
X111743Y702186D01*
X111747Y702213D01*
X111729Y702254D01*
X111720Y702296D01*
X111694Y702332D01*
X111690Y702341D01*
X111685Y702345D01*
X111676Y702356D01*
X87676Y726356D01*
X87638Y726377D01*
X87605Y726406D01*
X87578Y726410D01*
X87554Y726423D01*
X87510Y726420D01*
X87467Y726427D01*
X87442Y726416D01*
X87414Y726414D01*
X87379Y726388D01*
X87339Y726370D01*
X87324Y726347D01*
X87302Y726331D01*
X87286Y726290D01*
X87262Y726254D01*
X87255Y726210D01*
X87252Y726201D01*
X87253Y726194D01*
X87251Y726180D01*
X87251Y702180D01*
X87256Y702164D01*
X87253Y702147D01*
X87275Y702097D01*
X87290Y702046D01*
X87303Y702035D01*
X87310Y702019D01*
X87355Y701989D01*
X87395Y701954D01*
X87412Y701951D01*
X87427Y701942D01*
X87500Y701931D01*
X111500Y701931D01*
X111542Y701943D01*
G37*
G36*
X60304Y514634D02*
X60304Y514634D01*
X60307Y514631D01*
X61429Y514786D01*
X61434Y514791D01*
X61438Y514788D01*
X62509Y515159D01*
X62513Y515165D01*
X62518Y515163D01*
X63495Y515736D01*
X63498Y515742D01*
X63503Y515741D01*
X64350Y516494D01*
X64352Y516501D01*
X64357Y516501D01*
X65041Y517404D01*
X65041Y517411D01*
X65046Y517412D01*
X65541Y518431D01*
X65539Y518438D01*
X65544Y518440D01*
X65831Y519537D01*
X65829Y519541D01*
X65831Y519542D01*
X65829Y519544D01*
X65832Y519546D01*
X65899Y520677D01*
X65897Y520681D01*
X65899Y520683D01*
X65832Y521814D01*
X65827Y521819D01*
X65831Y521823D01*
X65544Y522920D01*
X65538Y522924D01*
X65541Y522929D01*
X65046Y523948D01*
X65040Y523951D01*
X65041Y523956D01*
X64357Y524859D01*
X64350Y524861D01*
X64350Y524866D01*
X63503Y525619D01*
X63496Y525619D01*
X63495Y525624D01*
X62518Y526197D01*
X62511Y526196D01*
X62509Y526201D01*
X61438Y526572D01*
X61432Y526569D01*
X61429Y526574D01*
X60307Y526729D01*
X60302Y526726D01*
X60300Y526729D01*
X48300Y526729D01*
X48295Y526726D01*
X48292Y526729D01*
X47025Y526524D01*
X47019Y526518D01*
X47015Y526521D01*
X45825Y526039D01*
X45821Y526032D01*
X45815Y526034D01*
X44762Y525300D01*
X44760Y525292D01*
X44754Y525293D01*
X43891Y524343D01*
X43890Y524334D01*
X43885Y524334D01*
X43255Y523215D01*
X43256Y523207D01*
X43250Y523205D01*
X42885Y521975D01*
X42888Y521967D01*
X42883Y521964D01*
X42801Y520683D01*
X42804Y520679D01*
X42801Y520677D01*
X42883Y519396D01*
X42889Y519390D01*
X42885Y519385D01*
X43250Y518155D01*
X43257Y518150D01*
X43255Y518145D01*
X43885Y517026D01*
X43892Y517023D01*
X43891Y517017D01*
X44754Y516067D01*
X44762Y516066D01*
X44762Y516060D01*
X45815Y515326D01*
X45823Y515326D01*
X45825Y515321D01*
X47015Y514839D01*
X47022Y514841D01*
X47025Y514836D01*
X48292Y514631D01*
X48297Y514634D01*
X48300Y514631D01*
X60300Y514631D01*
X60304Y514634D01*
G37*
G36*
X522584Y514634D02*
X522584Y514634D01*
X522587Y514631D01*
X523709Y514786D01*
X523714Y514791D01*
X523718Y514788D01*
X524789Y515159D01*
X524793Y515165D01*
X524798Y515163D01*
X525775Y515736D01*
X525778Y515742D01*
X525783Y515741D01*
X526630Y516494D01*
X526632Y516501D01*
X526637Y516501D01*
X527321Y517404D01*
X527321Y517411D01*
X527326Y517412D01*
X527821Y518431D01*
X527819Y518438D01*
X527824Y518440D01*
X528111Y519537D01*
X528109Y519541D01*
X528111Y519542D01*
X528109Y519544D01*
X528112Y519546D01*
X528179Y520677D01*
X528177Y520681D01*
X528179Y520683D01*
X528112Y521814D01*
X528107Y521819D01*
X528111Y521823D01*
X527824Y522920D01*
X527818Y522924D01*
X527821Y522929D01*
X527326Y523948D01*
X527320Y523951D01*
X527321Y523956D01*
X526637Y524859D01*
X526630Y524861D01*
X526630Y524866D01*
X525783Y525619D01*
X525776Y525619D01*
X525775Y525624D01*
X524798Y526197D01*
X524791Y526196D01*
X524789Y526201D01*
X523718Y526572D01*
X523712Y526569D01*
X523709Y526574D01*
X522587Y526729D01*
X522582Y526726D01*
X522580Y526729D01*
X510580Y526729D01*
X510575Y526726D01*
X510572Y526729D01*
X509305Y526524D01*
X509299Y526518D01*
X509295Y526521D01*
X508105Y526039D01*
X508101Y526032D01*
X508095Y526034D01*
X507042Y525300D01*
X507040Y525292D01*
X507034Y525293D01*
X506171Y524343D01*
X506170Y524334D01*
X506165Y524334D01*
X505535Y523215D01*
X505536Y523207D01*
X505530Y523205D01*
X505165Y521975D01*
X505168Y521967D01*
X505163Y521964D01*
X505081Y520683D01*
X505084Y520679D01*
X505081Y520677D01*
X505163Y519396D01*
X505169Y519390D01*
X505165Y519385D01*
X505530Y518155D01*
X505537Y518150D01*
X505535Y518145D01*
X506165Y517026D01*
X506172Y517023D01*
X506171Y517017D01*
X507034Y516067D01*
X507042Y516066D01*
X507042Y516060D01*
X508095Y515326D01*
X508103Y515326D01*
X508105Y515321D01*
X509295Y514839D01*
X509302Y514841D01*
X509305Y514836D01*
X510572Y514631D01*
X510577Y514634D01*
X510580Y514631D01*
X522580Y514631D01*
X522584Y514634D01*
G37*
G36*
X522584Y1037914D02*
X522584Y1037914D01*
X522587Y1037911D01*
X523709Y1038066D01*
X523714Y1038071D01*
X523718Y1038068D01*
X524789Y1038439D01*
X524793Y1038445D01*
X524798Y1038443D01*
X525775Y1039016D01*
X525778Y1039022D01*
X525783Y1039021D01*
X526630Y1039774D01*
X526632Y1039781D01*
X526637Y1039781D01*
X527321Y1040684D01*
X527321Y1040691D01*
X527326Y1040692D01*
X527821Y1041711D01*
X527819Y1041718D01*
X527824Y1041720D01*
X528111Y1042817D01*
X528109Y1042821D01*
X528111Y1042822D01*
X528109Y1042824D01*
X528112Y1042826D01*
X528179Y1043957D01*
X528177Y1043961D01*
X528179Y1043963D01*
X528112Y1045094D01*
X528107Y1045099D01*
X528111Y1045103D01*
X527824Y1046200D01*
X527818Y1046204D01*
X527821Y1046209D01*
X527326Y1047228D01*
X527320Y1047231D01*
X527321Y1047236D01*
X526637Y1048139D01*
X526630Y1048141D01*
X526630Y1048146D01*
X525783Y1048899D01*
X525776Y1048899D01*
X525775Y1048904D01*
X524798Y1049477D01*
X524791Y1049476D01*
X524789Y1049481D01*
X523718Y1049852D01*
X523712Y1049849D01*
X523709Y1049854D01*
X522587Y1050009D01*
X522582Y1050006D01*
X522580Y1050009D01*
X510580Y1050009D01*
X510575Y1050006D01*
X510572Y1050009D01*
X509305Y1049804D01*
X509299Y1049798D01*
X509295Y1049801D01*
X508105Y1049319D01*
X508101Y1049312D01*
X508095Y1049314D01*
X507042Y1048580D01*
X507040Y1048572D01*
X507034Y1048573D01*
X506171Y1047623D01*
X506170Y1047614D01*
X506165Y1047614D01*
X505535Y1046495D01*
X505536Y1046487D01*
X505530Y1046485D01*
X505165Y1045255D01*
X505168Y1045247D01*
X505163Y1045244D01*
X505081Y1043963D01*
X505084Y1043959D01*
X505081Y1043957D01*
X505163Y1042676D01*
X505169Y1042670D01*
X505165Y1042665D01*
X505530Y1041435D01*
X505537Y1041430D01*
X505535Y1041425D01*
X506165Y1040306D01*
X506172Y1040303D01*
X506171Y1040297D01*
X507034Y1039347D01*
X507042Y1039346D01*
X507042Y1039340D01*
X508095Y1038606D01*
X508103Y1038606D01*
X508105Y1038601D01*
X509295Y1038119D01*
X509302Y1038121D01*
X509305Y1038116D01*
X510572Y1037911D01*
X510577Y1037914D01*
X510580Y1037911D01*
X522580Y1037911D01*
X522584Y1037914D01*
G37*
G36*
X60304Y1037914D02*
X60304Y1037914D01*
X60307Y1037911D01*
X61429Y1038066D01*
X61434Y1038071D01*
X61438Y1038068D01*
X62509Y1038439D01*
X62513Y1038445D01*
X62518Y1038443D01*
X63495Y1039016D01*
X63498Y1039022D01*
X63503Y1039021D01*
X64350Y1039774D01*
X64352Y1039781D01*
X64357Y1039781D01*
X65041Y1040684D01*
X65041Y1040691D01*
X65046Y1040692D01*
X65541Y1041711D01*
X65539Y1041718D01*
X65544Y1041720D01*
X65831Y1042817D01*
X65829Y1042821D01*
X65831Y1042822D01*
X65829Y1042824D01*
X65832Y1042826D01*
X65899Y1043957D01*
X65897Y1043961D01*
X65899Y1043963D01*
X65832Y1045094D01*
X65827Y1045099D01*
X65831Y1045103D01*
X65544Y1046200D01*
X65538Y1046204D01*
X65541Y1046209D01*
X65046Y1047228D01*
X65040Y1047231D01*
X65041Y1047236D01*
X64357Y1048139D01*
X64350Y1048141D01*
X64350Y1048146D01*
X63503Y1048899D01*
X63496Y1048899D01*
X63495Y1048904D01*
X62518Y1049477D01*
X62511Y1049476D01*
X62509Y1049481D01*
X61438Y1049852D01*
X61432Y1049849D01*
X61429Y1049854D01*
X60307Y1050009D01*
X60302Y1050006D01*
X60300Y1050009D01*
X48300Y1050009D01*
X48295Y1050006D01*
X48292Y1050009D01*
X47025Y1049804D01*
X47019Y1049798D01*
X47015Y1049801D01*
X45825Y1049319D01*
X45821Y1049312D01*
X45815Y1049314D01*
X44762Y1048580D01*
X44760Y1048572D01*
X44754Y1048573D01*
X43891Y1047623D01*
X43890Y1047614D01*
X43885Y1047614D01*
X43255Y1046495D01*
X43256Y1046487D01*
X43250Y1046485D01*
X42885Y1045255D01*
X42888Y1045247D01*
X42883Y1045244D01*
X42801Y1043963D01*
X42804Y1043959D01*
X42801Y1043957D01*
X42883Y1042676D01*
X42889Y1042670D01*
X42885Y1042665D01*
X43250Y1041435D01*
X43257Y1041430D01*
X43255Y1041425D01*
X43885Y1040306D01*
X43892Y1040303D01*
X43891Y1040297D01*
X44754Y1039347D01*
X44762Y1039346D01*
X44762Y1039340D01*
X45815Y1038606D01*
X45823Y1038606D01*
X45825Y1038601D01*
X47015Y1038119D01*
X47022Y1038121D01*
X47025Y1038116D01*
X48292Y1037911D01*
X48297Y1037914D01*
X48300Y1037911D01*
X60300Y1037911D01*
X60304Y1037914D01*
G37*
G36*
X522584Y951514D02*
X522584Y951514D01*
X522587Y951511D01*
X523709Y951666D01*
X523714Y951671D01*
X523718Y951668D01*
X524789Y952039D01*
X524793Y952045D01*
X524798Y952043D01*
X525775Y952616D01*
X525778Y952622D01*
X525783Y952621D01*
X526630Y953374D01*
X526632Y953381D01*
X526637Y953381D01*
X527321Y954284D01*
X527321Y954291D01*
X527326Y954292D01*
X527821Y955311D01*
X527819Y955318D01*
X527824Y955320D01*
X528111Y956417D01*
X528109Y956421D01*
X528111Y956422D01*
X528109Y956424D01*
X528112Y956426D01*
X528179Y957557D01*
X528177Y957561D01*
X528179Y957563D01*
X528112Y958694D01*
X528107Y958699D01*
X528111Y958703D01*
X527824Y959800D01*
X527818Y959804D01*
X527821Y959809D01*
X527326Y960828D01*
X527320Y960831D01*
X527321Y960836D01*
X526637Y961739D01*
X526630Y961741D01*
X526630Y961746D01*
X525783Y962499D01*
X525776Y962499D01*
X525775Y962504D01*
X524798Y963077D01*
X524791Y963076D01*
X524789Y963081D01*
X523718Y963452D01*
X523712Y963449D01*
X523709Y963454D01*
X522587Y963609D01*
X522582Y963606D01*
X522580Y963609D01*
X510580Y963609D01*
X510575Y963606D01*
X510572Y963609D01*
X509305Y963404D01*
X509299Y963398D01*
X509295Y963401D01*
X508105Y962919D01*
X508101Y962912D01*
X508095Y962914D01*
X507042Y962180D01*
X507040Y962172D01*
X507034Y962173D01*
X506171Y961223D01*
X506170Y961214D01*
X506165Y961214D01*
X505535Y960095D01*
X505536Y960087D01*
X505530Y960085D01*
X505165Y958855D01*
X505168Y958847D01*
X505163Y958844D01*
X505081Y957563D01*
X505084Y957559D01*
X505081Y957557D01*
X505163Y956276D01*
X505169Y956270D01*
X505165Y956265D01*
X505530Y955035D01*
X505537Y955030D01*
X505535Y955025D01*
X506165Y953906D01*
X506172Y953903D01*
X506171Y953897D01*
X507034Y952947D01*
X507042Y952946D01*
X507042Y952940D01*
X508095Y952206D01*
X508103Y952206D01*
X508105Y952201D01*
X509295Y951719D01*
X509302Y951721D01*
X509305Y951716D01*
X510572Y951511D01*
X510577Y951514D01*
X510580Y951511D01*
X522580Y951511D01*
X522584Y951514D01*
G37*
G36*
X60304Y951514D02*
X60304Y951514D01*
X60307Y951511D01*
X61429Y951666D01*
X61434Y951671D01*
X61438Y951668D01*
X62509Y952039D01*
X62513Y952045D01*
X62518Y952043D01*
X63495Y952616D01*
X63498Y952622D01*
X63503Y952621D01*
X64350Y953374D01*
X64352Y953381D01*
X64357Y953381D01*
X65041Y954284D01*
X65041Y954291D01*
X65046Y954292D01*
X65541Y955311D01*
X65539Y955318D01*
X65544Y955320D01*
X65831Y956417D01*
X65829Y956421D01*
X65831Y956422D01*
X65829Y956424D01*
X65832Y956426D01*
X65899Y957557D01*
X65897Y957561D01*
X65899Y957563D01*
X65832Y958694D01*
X65827Y958699D01*
X65831Y958703D01*
X65544Y959800D01*
X65538Y959804D01*
X65541Y959809D01*
X65046Y960828D01*
X65040Y960831D01*
X65041Y960836D01*
X64357Y961739D01*
X64350Y961741D01*
X64350Y961746D01*
X63503Y962499D01*
X63496Y962499D01*
X63495Y962504D01*
X62518Y963077D01*
X62511Y963076D01*
X62509Y963081D01*
X61438Y963452D01*
X61432Y963449D01*
X61429Y963454D01*
X60307Y963609D01*
X60302Y963606D01*
X60300Y963609D01*
X48300Y963609D01*
X48295Y963606D01*
X48292Y963609D01*
X47025Y963404D01*
X47019Y963398D01*
X47015Y963401D01*
X45825Y962919D01*
X45821Y962912D01*
X45815Y962914D01*
X44762Y962180D01*
X44760Y962172D01*
X44754Y962173D01*
X43891Y961223D01*
X43890Y961214D01*
X43885Y961214D01*
X43255Y960095D01*
X43256Y960087D01*
X43250Y960085D01*
X42885Y958855D01*
X42888Y958847D01*
X42883Y958844D01*
X42801Y957563D01*
X42804Y957559D01*
X42801Y957557D01*
X42883Y956276D01*
X42889Y956270D01*
X42885Y956265D01*
X43250Y955035D01*
X43257Y955030D01*
X43255Y955025D01*
X43885Y953906D01*
X43892Y953903D01*
X43891Y953897D01*
X44754Y952947D01*
X44762Y952946D01*
X44762Y952940D01*
X45815Y952206D01*
X45823Y952206D01*
X45825Y952201D01*
X47015Y951719D01*
X47022Y951721D01*
X47025Y951716D01*
X48292Y951511D01*
X48297Y951514D01*
X48300Y951511D01*
X60300Y951511D01*
X60304Y951514D01*
G37*
G36*
X60304Y601034D02*
X60304Y601034D01*
X60307Y601031D01*
X61429Y601186D01*
X61434Y601191D01*
X61438Y601188D01*
X62509Y601559D01*
X62513Y601565D01*
X62518Y601563D01*
X63495Y602136D01*
X63498Y602142D01*
X63503Y602141D01*
X64350Y602894D01*
X64352Y602901D01*
X64357Y602901D01*
X65041Y603804D01*
X65041Y603811D01*
X65046Y603812D01*
X65541Y604831D01*
X65539Y604838D01*
X65544Y604840D01*
X65831Y605937D01*
X65829Y605941D01*
X65831Y605942D01*
X65829Y605944D01*
X65832Y605946D01*
X65899Y607077D01*
X65897Y607081D01*
X65899Y607083D01*
X65832Y608214D01*
X65827Y608219D01*
X65831Y608223D01*
X65544Y609320D01*
X65538Y609324D01*
X65541Y609329D01*
X65046Y610348D01*
X65040Y610351D01*
X65041Y610356D01*
X64357Y611259D01*
X64350Y611261D01*
X64350Y611266D01*
X63503Y612019D01*
X63496Y612019D01*
X63495Y612024D01*
X62518Y612597D01*
X62511Y612596D01*
X62509Y612601D01*
X61438Y612972D01*
X61432Y612969D01*
X61429Y612974D01*
X60307Y613129D01*
X60302Y613126D01*
X60300Y613129D01*
X48300Y613129D01*
X48295Y613126D01*
X48292Y613129D01*
X47025Y612924D01*
X47019Y612918D01*
X47015Y612921D01*
X45825Y612439D01*
X45821Y612432D01*
X45815Y612434D01*
X44762Y611700D01*
X44760Y611692D01*
X44754Y611693D01*
X43891Y610743D01*
X43890Y610734D01*
X43885Y610734D01*
X43255Y609615D01*
X43256Y609607D01*
X43250Y609605D01*
X42885Y608375D01*
X42888Y608367D01*
X42883Y608364D01*
X42801Y607083D01*
X42804Y607079D01*
X42801Y607077D01*
X42883Y605796D01*
X42889Y605790D01*
X42885Y605785D01*
X43250Y604555D01*
X43257Y604550D01*
X43255Y604545D01*
X43885Y603426D01*
X43892Y603423D01*
X43891Y603417D01*
X44754Y602467D01*
X44762Y602466D01*
X44762Y602460D01*
X45815Y601726D01*
X45823Y601726D01*
X45825Y601721D01*
X47015Y601239D01*
X47022Y601241D01*
X47025Y601236D01*
X48292Y601031D01*
X48297Y601034D01*
X48300Y601031D01*
X60300Y601031D01*
X60304Y601034D01*
G37*
G36*
X522584Y601034D02*
X522584Y601034D01*
X522587Y601031D01*
X523709Y601186D01*
X523714Y601191D01*
X523718Y601188D01*
X524789Y601559D01*
X524793Y601565D01*
X524798Y601563D01*
X525775Y602136D01*
X525778Y602142D01*
X525783Y602141D01*
X526630Y602894D01*
X526632Y602901D01*
X526637Y602901D01*
X527321Y603804D01*
X527321Y603811D01*
X527326Y603812D01*
X527821Y604831D01*
X527819Y604838D01*
X527824Y604840D01*
X528111Y605937D01*
X528109Y605941D01*
X528111Y605942D01*
X528109Y605944D01*
X528112Y605946D01*
X528179Y607077D01*
X528177Y607081D01*
X528179Y607083D01*
X528112Y608214D01*
X528107Y608219D01*
X528111Y608223D01*
X527824Y609320D01*
X527818Y609324D01*
X527821Y609329D01*
X527326Y610348D01*
X527320Y610351D01*
X527321Y610356D01*
X526637Y611259D01*
X526630Y611261D01*
X526630Y611266D01*
X525783Y612019D01*
X525776Y612019D01*
X525775Y612024D01*
X524798Y612597D01*
X524791Y612596D01*
X524789Y612601D01*
X523718Y612972D01*
X523712Y612969D01*
X523709Y612974D01*
X522587Y613129D01*
X522582Y613126D01*
X522580Y613129D01*
X510580Y613129D01*
X510575Y613126D01*
X510572Y613129D01*
X509305Y612924D01*
X509299Y612918D01*
X509295Y612921D01*
X508105Y612439D01*
X508101Y612432D01*
X508095Y612434D01*
X507042Y611700D01*
X507040Y611692D01*
X507034Y611693D01*
X506171Y610743D01*
X506170Y610734D01*
X506165Y610734D01*
X505535Y609615D01*
X505536Y609607D01*
X505530Y609605D01*
X505165Y608375D01*
X505168Y608367D01*
X505163Y608364D01*
X505081Y607083D01*
X505084Y607079D01*
X505081Y607077D01*
X505163Y605796D01*
X505169Y605790D01*
X505165Y605785D01*
X505530Y604555D01*
X505537Y604550D01*
X505535Y604545D01*
X506165Y603426D01*
X506172Y603423D01*
X506171Y603417D01*
X507034Y602467D01*
X507042Y602466D01*
X507042Y602460D01*
X508095Y601726D01*
X508103Y601726D01*
X508105Y601721D01*
X509295Y601239D01*
X509302Y601241D01*
X509305Y601236D01*
X510572Y601031D01*
X510577Y601034D01*
X510580Y601031D01*
X522580Y601031D01*
X522584Y601034D01*
G37*
G36*
X522584Y164154D02*
X522584Y164154D01*
X522587Y164151D01*
X523709Y164306D01*
X523714Y164311D01*
X523718Y164308D01*
X524789Y164679D01*
X524793Y164685D01*
X524798Y164683D01*
X525775Y165256D01*
X525778Y165262D01*
X525783Y165261D01*
X526630Y166014D01*
X526632Y166021D01*
X526637Y166021D01*
X527321Y166924D01*
X527321Y166931D01*
X527326Y166932D01*
X527821Y167951D01*
X527819Y167958D01*
X527824Y167960D01*
X528111Y169057D01*
X528109Y169061D01*
X528111Y169062D01*
X528109Y169064D01*
X528112Y169066D01*
X528179Y170197D01*
X528177Y170201D01*
X528179Y170203D01*
X528112Y171334D01*
X528107Y171339D01*
X528111Y171343D01*
X527824Y172440D01*
X527818Y172444D01*
X527821Y172449D01*
X527326Y173468D01*
X527320Y173471D01*
X527321Y173476D01*
X526637Y174379D01*
X526630Y174381D01*
X526630Y174386D01*
X525783Y175139D01*
X525776Y175139D01*
X525775Y175144D01*
X524798Y175717D01*
X524791Y175716D01*
X524789Y175721D01*
X523718Y176092D01*
X523712Y176089D01*
X523709Y176094D01*
X522587Y176249D01*
X522582Y176246D01*
X522580Y176249D01*
X510580Y176249D01*
X510575Y176246D01*
X510572Y176249D01*
X509305Y176044D01*
X509299Y176038D01*
X509295Y176041D01*
X508105Y175559D01*
X508101Y175552D01*
X508095Y175554D01*
X507042Y174820D01*
X507040Y174812D01*
X507034Y174813D01*
X506171Y173863D01*
X506170Y173854D01*
X506165Y173854D01*
X505535Y172735D01*
X505536Y172727D01*
X505530Y172725D01*
X505165Y171495D01*
X505168Y171487D01*
X505163Y171484D01*
X505081Y170203D01*
X505084Y170199D01*
X505081Y170197D01*
X505163Y168916D01*
X505169Y168910D01*
X505165Y168905D01*
X505530Y167675D01*
X505537Y167670D01*
X505535Y167665D01*
X506165Y166546D01*
X506172Y166543D01*
X506171Y166537D01*
X507034Y165587D01*
X507042Y165586D01*
X507042Y165580D01*
X508095Y164846D01*
X508103Y164846D01*
X508105Y164841D01*
X509295Y164359D01*
X509302Y164361D01*
X509305Y164356D01*
X510572Y164151D01*
X510577Y164154D01*
X510580Y164151D01*
X522580Y164151D01*
X522584Y164154D01*
G37*
G36*
X60304Y164154D02*
X60304Y164154D01*
X60307Y164151D01*
X61429Y164306D01*
X61434Y164311D01*
X61438Y164308D01*
X62509Y164679D01*
X62513Y164685D01*
X62518Y164683D01*
X63495Y165256D01*
X63498Y165262D01*
X63503Y165261D01*
X64350Y166014D01*
X64352Y166021D01*
X64357Y166021D01*
X65041Y166924D01*
X65041Y166931D01*
X65046Y166932D01*
X65541Y167951D01*
X65539Y167958D01*
X65544Y167960D01*
X65831Y169057D01*
X65829Y169061D01*
X65831Y169062D01*
X65829Y169064D01*
X65832Y169066D01*
X65899Y170197D01*
X65897Y170201D01*
X65899Y170203D01*
X65832Y171334D01*
X65827Y171339D01*
X65831Y171343D01*
X65544Y172440D01*
X65538Y172444D01*
X65541Y172449D01*
X65046Y173468D01*
X65040Y173471D01*
X65041Y173476D01*
X64357Y174379D01*
X64350Y174381D01*
X64350Y174386D01*
X63503Y175139D01*
X63496Y175139D01*
X63495Y175144D01*
X62518Y175717D01*
X62511Y175716D01*
X62509Y175721D01*
X61438Y176092D01*
X61432Y176089D01*
X61429Y176094D01*
X60307Y176249D01*
X60302Y176246D01*
X60300Y176249D01*
X48300Y176249D01*
X48295Y176246D01*
X48292Y176249D01*
X47025Y176044D01*
X47019Y176038D01*
X47015Y176041D01*
X45825Y175559D01*
X45821Y175552D01*
X45815Y175554D01*
X44762Y174820D01*
X44760Y174812D01*
X44754Y174813D01*
X43891Y173863D01*
X43890Y173854D01*
X43885Y173854D01*
X43255Y172735D01*
X43256Y172727D01*
X43250Y172725D01*
X42885Y171495D01*
X42888Y171487D01*
X42883Y171484D01*
X42801Y170203D01*
X42804Y170199D01*
X42801Y170197D01*
X42883Y168916D01*
X42889Y168910D01*
X42885Y168905D01*
X43250Y167675D01*
X43257Y167670D01*
X43255Y167665D01*
X43885Y166546D01*
X43892Y166543D01*
X43891Y166537D01*
X44754Y165587D01*
X44762Y165586D01*
X44762Y165580D01*
X45815Y164846D01*
X45823Y164846D01*
X45825Y164841D01*
X47015Y164359D01*
X47022Y164361D01*
X47025Y164356D01*
X48292Y164151D01*
X48297Y164154D01*
X48300Y164151D01*
X60300Y164151D01*
X60304Y164154D01*
G37*
G36*
X60304Y77754D02*
X60304Y77754D01*
X60307Y77751D01*
X61429Y77906D01*
X61434Y77911D01*
X61438Y77908D01*
X62509Y78279D01*
X62513Y78285D01*
X62518Y78283D01*
X63495Y78856D01*
X63498Y78862D01*
X63503Y78861D01*
X64350Y79614D01*
X64352Y79621D01*
X64357Y79621D01*
X65041Y80524D01*
X65041Y80531D01*
X65046Y80532D01*
X65541Y81551D01*
X65539Y81558D01*
X65544Y81560D01*
X65831Y82657D01*
X65829Y82661D01*
X65831Y82662D01*
X65829Y82664D01*
X65832Y82666D01*
X65899Y83797D01*
X65897Y83801D01*
X65899Y83803D01*
X65832Y84934D01*
X65827Y84939D01*
X65831Y84943D01*
X65544Y86040D01*
X65538Y86044D01*
X65541Y86049D01*
X65046Y87068D01*
X65040Y87071D01*
X65041Y87076D01*
X64357Y87979D01*
X64350Y87981D01*
X64350Y87986D01*
X63503Y88739D01*
X63496Y88739D01*
X63495Y88744D01*
X62518Y89317D01*
X62511Y89316D01*
X62509Y89321D01*
X61438Y89692D01*
X61432Y89689D01*
X61429Y89694D01*
X60307Y89849D01*
X60302Y89846D01*
X60300Y89849D01*
X48300Y89849D01*
X48295Y89846D01*
X48292Y89849D01*
X47025Y89644D01*
X47019Y89638D01*
X47015Y89641D01*
X45825Y89159D01*
X45821Y89152D01*
X45815Y89154D01*
X44762Y88420D01*
X44760Y88412D01*
X44754Y88413D01*
X43891Y87463D01*
X43890Y87454D01*
X43885Y87454D01*
X43255Y86335D01*
X43256Y86327D01*
X43250Y86325D01*
X42885Y85095D01*
X42888Y85087D01*
X42883Y85084D01*
X42801Y83803D01*
X42804Y83799D01*
X42801Y83797D01*
X42883Y82516D01*
X42889Y82510D01*
X42885Y82505D01*
X43250Y81275D01*
X43257Y81270D01*
X43255Y81265D01*
X43885Y80146D01*
X43892Y80143D01*
X43891Y80137D01*
X44754Y79187D01*
X44762Y79186D01*
X44762Y79180D01*
X45815Y78446D01*
X45823Y78446D01*
X45825Y78441D01*
X47015Y77959D01*
X47022Y77961D01*
X47025Y77956D01*
X48292Y77751D01*
X48297Y77754D01*
X48300Y77751D01*
X60300Y77751D01*
X60304Y77754D01*
G37*
G36*
X522584Y77754D02*
X522584Y77754D01*
X522587Y77751D01*
X523709Y77906D01*
X523714Y77911D01*
X523718Y77908D01*
X524789Y78279D01*
X524793Y78285D01*
X524798Y78283D01*
X525775Y78856D01*
X525778Y78862D01*
X525783Y78861D01*
X526630Y79614D01*
X526632Y79621D01*
X526637Y79621D01*
X527321Y80524D01*
X527321Y80531D01*
X527326Y80532D01*
X527821Y81551D01*
X527819Y81558D01*
X527824Y81560D01*
X528111Y82657D01*
X528109Y82661D01*
X528111Y82662D01*
X528109Y82664D01*
X528112Y82666D01*
X528179Y83797D01*
X528177Y83801D01*
X528179Y83803D01*
X528112Y84934D01*
X528107Y84939D01*
X528111Y84943D01*
X527824Y86040D01*
X527818Y86044D01*
X527821Y86049D01*
X527326Y87068D01*
X527320Y87071D01*
X527321Y87076D01*
X526637Y87979D01*
X526630Y87981D01*
X526630Y87986D01*
X525783Y88739D01*
X525776Y88739D01*
X525775Y88744D01*
X524798Y89317D01*
X524791Y89316D01*
X524789Y89321D01*
X523718Y89692D01*
X523712Y89689D01*
X523709Y89694D01*
X522587Y89849D01*
X522582Y89846D01*
X522580Y89849D01*
X510580Y89849D01*
X510575Y89846D01*
X510572Y89849D01*
X509305Y89644D01*
X509299Y89638D01*
X509295Y89641D01*
X508105Y89159D01*
X508101Y89152D01*
X508095Y89154D01*
X507042Y88420D01*
X507040Y88412D01*
X507034Y88413D01*
X506171Y87463D01*
X506170Y87454D01*
X506165Y87454D01*
X505535Y86335D01*
X505536Y86327D01*
X505530Y86325D01*
X505165Y85095D01*
X505168Y85087D01*
X505163Y85084D01*
X505081Y83803D01*
X505084Y83799D01*
X505081Y83797D01*
X505163Y82516D01*
X505169Y82510D01*
X505165Y82505D01*
X505530Y81275D01*
X505537Y81270D01*
X505535Y81265D01*
X506165Y80146D01*
X506172Y80143D01*
X506171Y80137D01*
X507034Y79187D01*
X507042Y79186D01*
X507042Y79180D01*
X508095Y78446D01*
X508103Y78446D01*
X508105Y78441D01*
X509295Y77959D01*
X509302Y77961D01*
X509305Y77956D01*
X510572Y77751D01*
X510577Y77754D01*
X510580Y77751D01*
X522580Y77751D01*
X522584Y77754D01*
G37*
G36*
X15503Y514633D02*
X15503Y514633D01*
X15505Y514631D01*
X16681Y514742D01*
X16686Y514747D01*
X16690Y514744D01*
X17822Y515082D01*
X17826Y515088D01*
X17831Y515086D01*
X18875Y515638D01*
X18878Y515645D01*
X18883Y515643D01*
X19799Y516389D01*
X19800Y516396D01*
X19806Y516396D01*
X20559Y517306D01*
X20559Y517313D01*
X20564Y517314D01*
X21125Y518353D01*
X21124Y518358D01*
X21128Y518360D01*
X21127Y518361D01*
X21129Y518362D01*
X21476Y519491D01*
X21476Y519492D01*
X21477Y519493D01*
X21474Y519497D01*
X21478Y519500D01*
X21599Y520675D01*
X21595Y520682D01*
X21599Y520686D01*
X21442Y522026D01*
X21437Y522032D01*
X21440Y522037D01*
X20989Y523308D01*
X20982Y523313D01*
X20984Y523318D01*
X20262Y524457D01*
X20254Y524460D01*
X20255Y524466D01*
X19297Y525416D01*
X19289Y525417D01*
X19288Y525423D01*
X18143Y526136D01*
X18135Y526135D01*
X18133Y526141D01*
X16857Y526581D01*
X16850Y526579D01*
X16847Y526583D01*
X15505Y526729D01*
X15502Y526727D01*
X15500Y526729D01*
X9500Y526729D01*
X9497Y526727D01*
X9494Y526729D01*
X8165Y526574D01*
X8159Y526568D01*
X8155Y526571D01*
X6894Y526124D01*
X6889Y526117D01*
X6884Y526119D01*
X5754Y525402D01*
X5751Y525395D01*
X5745Y525396D01*
X4803Y524446D01*
X4802Y524437D01*
X4796Y524437D01*
X4089Y523301D01*
X4090Y523293D01*
X4084Y523291D01*
X3648Y522026D01*
X3650Y522018D01*
X3645Y522016D01*
X3501Y520685D01*
X3505Y520679D01*
X3501Y520675D01*
X3611Y519509D01*
X3616Y519504D01*
X3613Y519500D01*
X3948Y518377D01*
X3954Y518373D01*
X3952Y518369D01*
X4500Y517333D01*
X4506Y517330D01*
X4505Y517325D01*
X5244Y516417D01*
X5251Y516415D01*
X5251Y516410D01*
X6153Y515663D01*
X6161Y515663D01*
X6161Y515658D01*
X7192Y515101D01*
X7199Y515102D01*
X7201Y515097D01*
X8320Y514753D01*
X8327Y514755D01*
X8330Y514751D01*
X9495Y514631D01*
X9498Y514633D01*
X9500Y514631D01*
X15500Y514631D01*
X15503Y514633D01*
G37*
G36*
X477783Y514633D02*
X477783Y514633D01*
X477785Y514631D01*
X478961Y514742D01*
X478966Y514747D01*
X478970Y514744D01*
X480102Y515082D01*
X480106Y515088D01*
X480111Y515086D01*
X481155Y515638D01*
X481158Y515645D01*
X481163Y515643D01*
X482079Y516389D01*
X482080Y516396D01*
X482086Y516396D01*
X482839Y517306D01*
X482839Y517313D01*
X482844Y517314D01*
X483405Y518353D01*
X483404Y518358D01*
X483408Y518360D01*
X483407Y518361D01*
X483409Y518362D01*
X483756Y519491D01*
X483756Y519492D01*
X483757Y519493D01*
X483754Y519497D01*
X483758Y519500D01*
X483879Y520675D01*
X483875Y520682D01*
X483879Y520686D01*
X483722Y522026D01*
X483717Y522032D01*
X483720Y522037D01*
X483269Y523308D01*
X483262Y523313D01*
X483264Y523318D01*
X482542Y524457D01*
X482534Y524460D01*
X482535Y524466D01*
X481577Y525416D01*
X481569Y525417D01*
X481568Y525423D01*
X480423Y526136D01*
X480415Y526135D01*
X480413Y526141D01*
X479137Y526581D01*
X479130Y526579D01*
X479127Y526583D01*
X477785Y526729D01*
X477782Y526727D01*
X477780Y526729D01*
X471780Y526729D01*
X471777Y526727D01*
X471774Y526729D01*
X470445Y526574D01*
X470439Y526568D01*
X470435Y526571D01*
X469174Y526124D01*
X469169Y526117D01*
X469164Y526119D01*
X468034Y525402D01*
X468031Y525395D01*
X468025Y525396D01*
X467083Y524446D01*
X467082Y524437D01*
X467076Y524437D01*
X466369Y523301D01*
X466370Y523293D01*
X466364Y523291D01*
X465928Y522026D01*
X465930Y522018D01*
X465925Y522016D01*
X465781Y520685D01*
X465785Y520679D01*
X465781Y520675D01*
X465891Y519509D01*
X465896Y519504D01*
X465893Y519500D01*
X466228Y518377D01*
X466234Y518373D01*
X466232Y518369D01*
X466780Y517333D01*
X466786Y517330D01*
X466785Y517325D01*
X467524Y516417D01*
X467531Y516415D01*
X467531Y516410D01*
X468433Y515663D01*
X468441Y515663D01*
X468441Y515658D01*
X469472Y515101D01*
X469479Y515102D01*
X469481Y515097D01*
X470600Y514753D01*
X470607Y514755D01*
X470610Y514751D01*
X471775Y514631D01*
X471778Y514633D01*
X471780Y514631D01*
X477780Y514631D01*
X477783Y514633D01*
G37*
G36*
X15503Y1037913D02*
X15503Y1037913D01*
X15505Y1037911D01*
X16681Y1038022D01*
X16686Y1038027D01*
X16690Y1038024D01*
X17822Y1038362D01*
X17826Y1038368D01*
X17831Y1038366D01*
X18875Y1038918D01*
X18878Y1038925D01*
X18883Y1038923D01*
X19799Y1039669D01*
X19800Y1039676D01*
X19806Y1039676D01*
X20559Y1040586D01*
X20559Y1040593D01*
X20564Y1040594D01*
X21125Y1041633D01*
X21124Y1041638D01*
X21128Y1041640D01*
X21127Y1041641D01*
X21129Y1041642D01*
X21476Y1042771D01*
X21476Y1042772D01*
X21477Y1042773D01*
X21474Y1042777D01*
X21478Y1042780D01*
X21599Y1043955D01*
X21595Y1043962D01*
X21599Y1043966D01*
X21442Y1045306D01*
X21437Y1045312D01*
X21440Y1045317D01*
X20989Y1046588D01*
X20982Y1046593D01*
X20984Y1046598D01*
X20262Y1047737D01*
X20254Y1047740D01*
X20255Y1047746D01*
X19297Y1048696D01*
X19289Y1048697D01*
X19288Y1048703D01*
X18143Y1049416D01*
X18135Y1049415D01*
X18133Y1049421D01*
X16857Y1049861D01*
X16850Y1049859D01*
X16847Y1049863D01*
X15505Y1050009D01*
X15502Y1050007D01*
X15500Y1050009D01*
X9500Y1050009D01*
X9497Y1050007D01*
X9494Y1050009D01*
X8165Y1049854D01*
X8159Y1049848D01*
X8155Y1049851D01*
X6894Y1049404D01*
X6889Y1049397D01*
X6884Y1049399D01*
X5754Y1048682D01*
X5751Y1048675D01*
X5745Y1048676D01*
X4803Y1047726D01*
X4802Y1047717D01*
X4796Y1047717D01*
X4089Y1046581D01*
X4090Y1046573D01*
X4084Y1046571D01*
X3648Y1045306D01*
X3650Y1045298D01*
X3645Y1045296D01*
X3501Y1043965D01*
X3505Y1043959D01*
X3501Y1043955D01*
X3611Y1042789D01*
X3616Y1042784D01*
X3613Y1042780D01*
X3948Y1041657D01*
X3954Y1041653D01*
X3952Y1041649D01*
X4500Y1040613D01*
X4506Y1040610D01*
X4505Y1040605D01*
X5244Y1039697D01*
X5251Y1039695D01*
X5251Y1039690D01*
X6153Y1038943D01*
X6161Y1038943D01*
X6161Y1038938D01*
X7192Y1038381D01*
X7199Y1038382D01*
X7201Y1038377D01*
X8320Y1038033D01*
X8327Y1038035D01*
X8330Y1038031D01*
X9495Y1037911D01*
X9498Y1037913D01*
X9500Y1037911D01*
X15500Y1037911D01*
X15503Y1037913D01*
G37*
G36*
X477783Y1037913D02*
X477783Y1037913D01*
X477785Y1037911D01*
X478961Y1038022D01*
X478966Y1038027D01*
X478970Y1038024D01*
X480102Y1038362D01*
X480106Y1038368D01*
X480111Y1038366D01*
X481155Y1038918D01*
X481158Y1038925D01*
X481163Y1038923D01*
X482079Y1039669D01*
X482080Y1039676D01*
X482086Y1039676D01*
X482839Y1040586D01*
X482839Y1040593D01*
X482844Y1040594D01*
X483405Y1041633D01*
X483404Y1041638D01*
X483408Y1041640D01*
X483407Y1041641D01*
X483409Y1041642D01*
X483756Y1042771D01*
X483756Y1042772D01*
X483757Y1042773D01*
X483754Y1042777D01*
X483758Y1042780D01*
X483879Y1043955D01*
X483875Y1043962D01*
X483879Y1043966D01*
X483722Y1045306D01*
X483717Y1045312D01*
X483720Y1045317D01*
X483269Y1046588D01*
X483262Y1046593D01*
X483264Y1046598D01*
X482542Y1047737D01*
X482534Y1047740D01*
X482535Y1047746D01*
X481577Y1048696D01*
X481569Y1048697D01*
X481568Y1048703D01*
X480423Y1049416D01*
X480415Y1049415D01*
X480413Y1049421D01*
X479137Y1049861D01*
X479130Y1049859D01*
X479127Y1049863D01*
X477785Y1050009D01*
X477782Y1050007D01*
X477780Y1050009D01*
X471780Y1050009D01*
X471777Y1050007D01*
X471774Y1050009D01*
X470445Y1049854D01*
X470439Y1049848D01*
X470435Y1049851D01*
X469174Y1049404D01*
X469169Y1049397D01*
X469164Y1049399D01*
X468034Y1048682D01*
X468031Y1048675D01*
X468025Y1048676D01*
X467083Y1047726D01*
X467082Y1047717D01*
X467076Y1047717D01*
X466369Y1046581D01*
X466370Y1046573D01*
X466364Y1046571D01*
X465928Y1045306D01*
X465930Y1045298D01*
X465925Y1045296D01*
X465781Y1043965D01*
X465785Y1043959D01*
X465781Y1043955D01*
X465891Y1042789D01*
X465896Y1042784D01*
X465893Y1042780D01*
X466228Y1041657D01*
X466234Y1041653D01*
X466232Y1041649D01*
X466780Y1040613D01*
X466786Y1040610D01*
X466785Y1040605D01*
X467524Y1039697D01*
X467531Y1039695D01*
X467531Y1039690D01*
X468433Y1038943D01*
X468441Y1038943D01*
X468441Y1038938D01*
X469472Y1038381D01*
X469479Y1038382D01*
X469481Y1038377D01*
X470600Y1038033D01*
X470607Y1038035D01*
X470610Y1038031D01*
X471775Y1037911D01*
X471778Y1037913D01*
X471780Y1037911D01*
X477780Y1037911D01*
X477783Y1037913D01*
G37*
G36*
X477783Y951513D02*
X477783Y951513D01*
X477785Y951511D01*
X478961Y951622D01*
X478966Y951627D01*
X478970Y951624D01*
X480102Y951962D01*
X480106Y951968D01*
X480111Y951966D01*
X481155Y952518D01*
X481158Y952525D01*
X481163Y952523D01*
X482079Y953269D01*
X482080Y953276D01*
X482086Y953276D01*
X482839Y954186D01*
X482839Y954193D01*
X482844Y954194D01*
X483405Y955233D01*
X483404Y955238D01*
X483408Y955240D01*
X483407Y955241D01*
X483409Y955242D01*
X483756Y956371D01*
X483756Y956372D01*
X483757Y956373D01*
X483754Y956377D01*
X483758Y956380D01*
X483879Y957555D01*
X483875Y957562D01*
X483879Y957566D01*
X483722Y958906D01*
X483717Y958912D01*
X483720Y958917D01*
X483269Y960188D01*
X483262Y960193D01*
X483264Y960198D01*
X482542Y961337D01*
X482534Y961340D01*
X482535Y961346D01*
X481577Y962296D01*
X481569Y962297D01*
X481568Y962303D01*
X480423Y963016D01*
X480415Y963015D01*
X480413Y963021D01*
X479137Y963461D01*
X479130Y963459D01*
X479127Y963463D01*
X477785Y963609D01*
X477782Y963607D01*
X477780Y963609D01*
X471780Y963609D01*
X471777Y963607D01*
X471774Y963609D01*
X470445Y963454D01*
X470439Y963448D01*
X470435Y963451D01*
X469174Y963004D01*
X469169Y962997D01*
X469164Y962999D01*
X468034Y962282D01*
X468031Y962275D01*
X468025Y962276D01*
X467083Y961326D01*
X467082Y961317D01*
X467076Y961317D01*
X466369Y960181D01*
X466370Y960173D01*
X466364Y960171D01*
X465928Y958906D01*
X465930Y958898D01*
X465925Y958896D01*
X465781Y957565D01*
X465785Y957559D01*
X465781Y957555D01*
X465891Y956389D01*
X465896Y956384D01*
X465893Y956380D01*
X466228Y955257D01*
X466234Y955253D01*
X466232Y955249D01*
X466780Y954213D01*
X466786Y954210D01*
X466785Y954205D01*
X467524Y953297D01*
X467531Y953295D01*
X467531Y953290D01*
X468433Y952543D01*
X468441Y952543D01*
X468441Y952538D01*
X469472Y951981D01*
X469479Y951982D01*
X469481Y951977D01*
X470600Y951633D01*
X470607Y951635D01*
X470610Y951631D01*
X471775Y951511D01*
X471778Y951513D01*
X471780Y951511D01*
X477780Y951511D01*
X477783Y951513D01*
G37*
G36*
X15503Y951513D02*
X15503Y951513D01*
X15505Y951511D01*
X16681Y951622D01*
X16686Y951627D01*
X16690Y951624D01*
X17822Y951962D01*
X17826Y951968D01*
X17831Y951966D01*
X18875Y952518D01*
X18878Y952525D01*
X18883Y952523D01*
X19799Y953269D01*
X19800Y953276D01*
X19806Y953276D01*
X20559Y954186D01*
X20559Y954193D01*
X20564Y954194D01*
X21125Y955233D01*
X21124Y955238D01*
X21128Y955240D01*
X21127Y955241D01*
X21129Y955242D01*
X21476Y956371D01*
X21476Y956372D01*
X21477Y956373D01*
X21474Y956377D01*
X21478Y956380D01*
X21599Y957555D01*
X21595Y957562D01*
X21599Y957566D01*
X21442Y958906D01*
X21437Y958912D01*
X21440Y958917D01*
X20989Y960188D01*
X20982Y960193D01*
X20984Y960198D01*
X20262Y961337D01*
X20254Y961340D01*
X20255Y961346D01*
X19297Y962296D01*
X19289Y962297D01*
X19288Y962303D01*
X18143Y963016D01*
X18135Y963015D01*
X18133Y963021D01*
X16857Y963461D01*
X16850Y963459D01*
X16847Y963463D01*
X15505Y963609D01*
X15502Y963607D01*
X15500Y963609D01*
X9500Y963609D01*
X9497Y963607D01*
X9494Y963609D01*
X8165Y963454D01*
X8159Y963448D01*
X8155Y963451D01*
X6894Y963004D01*
X6889Y962997D01*
X6884Y962999D01*
X5754Y962282D01*
X5751Y962275D01*
X5745Y962276D01*
X4803Y961326D01*
X4802Y961317D01*
X4796Y961317D01*
X4089Y960181D01*
X4090Y960173D01*
X4084Y960171D01*
X3648Y958906D01*
X3650Y958898D01*
X3645Y958896D01*
X3501Y957565D01*
X3505Y957559D01*
X3501Y957555D01*
X3611Y956389D01*
X3616Y956384D01*
X3613Y956380D01*
X3948Y955257D01*
X3954Y955253D01*
X3952Y955249D01*
X4500Y954213D01*
X4506Y954210D01*
X4505Y954205D01*
X5244Y953297D01*
X5251Y953295D01*
X5251Y953290D01*
X6153Y952543D01*
X6161Y952543D01*
X6161Y952538D01*
X7192Y951981D01*
X7199Y951982D01*
X7201Y951977D01*
X8320Y951633D01*
X8327Y951635D01*
X8330Y951631D01*
X9495Y951511D01*
X9498Y951513D01*
X9500Y951511D01*
X15500Y951511D01*
X15503Y951513D01*
G37*
G36*
X15503Y601033D02*
X15503Y601033D01*
X15505Y601031D01*
X16681Y601142D01*
X16686Y601147D01*
X16690Y601144D01*
X17822Y601482D01*
X17826Y601488D01*
X17831Y601486D01*
X18875Y602038D01*
X18878Y602045D01*
X18883Y602043D01*
X19799Y602789D01*
X19800Y602796D01*
X19806Y602796D01*
X20559Y603706D01*
X20559Y603713D01*
X20564Y603714D01*
X21125Y604753D01*
X21124Y604758D01*
X21128Y604760D01*
X21127Y604761D01*
X21129Y604762D01*
X21476Y605891D01*
X21476Y605892D01*
X21477Y605893D01*
X21474Y605897D01*
X21478Y605900D01*
X21599Y607075D01*
X21595Y607082D01*
X21599Y607086D01*
X21442Y608426D01*
X21437Y608432D01*
X21440Y608437D01*
X20989Y609708D01*
X20982Y609713D01*
X20984Y609718D01*
X20262Y610857D01*
X20254Y610860D01*
X20255Y610866D01*
X19297Y611816D01*
X19289Y611817D01*
X19288Y611823D01*
X18143Y612536D01*
X18135Y612535D01*
X18133Y612541D01*
X16857Y612981D01*
X16850Y612979D01*
X16847Y612983D01*
X15505Y613129D01*
X15502Y613127D01*
X15500Y613129D01*
X9500Y613129D01*
X9497Y613127D01*
X9494Y613129D01*
X8165Y612974D01*
X8159Y612968D01*
X8155Y612971D01*
X6894Y612524D01*
X6889Y612517D01*
X6884Y612519D01*
X5754Y611802D01*
X5751Y611795D01*
X5745Y611796D01*
X4803Y610846D01*
X4802Y610837D01*
X4796Y610837D01*
X4089Y609701D01*
X4090Y609693D01*
X4084Y609691D01*
X3648Y608426D01*
X3650Y608418D01*
X3645Y608416D01*
X3501Y607085D01*
X3505Y607079D01*
X3501Y607075D01*
X3611Y605909D01*
X3616Y605904D01*
X3613Y605900D01*
X3948Y604777D01*
X3954Y604773D01*
X3952Y604769D01*
X4500Y603733D01*
X4506Y603730D01*
X4505Y603725D01*
X5244Y602817D01*
X5251Y602815D01*
X5251Y602810D01*
X6153Y602063D01*
X6161Y602063D01*
X6161Y602058D01*
X7192Y601501D01*
X7199Y601502D01*
X7201Y601497D01*
X8320Y601153D01*
X8327Y601155D01*
X8330Y601151D01*
X9495Y601031D01*
X9498Y601033D01*
X9500Y601031D01*
X15500Y601031D01*
X15503Y601033D01*
G37*
G36*
X477783Y601033D02*
X477783Y601033D01*
X477785Y601031D01*
X478961Y601142D01*
X478966Y601147D01*
X478970Y601144D01*
X480102Y601482D01*
X480106Y601488D01*
X480111Y601486D01*
X481155Y602038D01*
X481158Y602045D01*
X481163Y602043D01*
X482079Y602789D01*
X482080Y602796D01*
X482086Y602796D01*
X482839Y603706D01*
X482839Y603713D01*
X482844Y603714D01*
X483405Y604753D01*
X483404Y604758D01*
X483408Y604760D01*
X483407Y604761D01*
X483409Y604762D01*
X483756Y605891D01*
X483756Y605892D01*
X483757Y605893D01*
X483754Y605897D01*
X483758Y605900D01*
X483879Y607075D01*
X483875Y607082D01*
X483879Y607086D01*
X483722Y608426D01*
X483717Y608432D01*
X483720Y608437D01*
X483269Y609708D01*
X483262Y609713D01*
X483264Y609718D01*
X482542Y610857D01*
X482534Y610860D01*
X482535Y610866D01*
X481577Y611816D01*
X481569Y611817D01*
X481568Y611823D01*
X480423Y612536D01*
X480415Y612535D01*
X480413Y612541D01*
X479137Y612981D01*
X479130Y612979D01*
X479127Y612983D01*
X477785Y613129D01*
X477782Y613127D01*
X477780Y613129D01*
X471780Y613129D01*
X471777Y613127D01*
X471774Y613129D01*
X470445Y612974D01*
X470439Y612968D01*
X470435Y612971D01*
X469174Y612524D01*
X469169Y612517D01*
X469164Y612519D01*
X468034Y611802D01*
X468031Y611795D01*
X468025Y611796D01*
X467083Y610846D01*
X467082Y610837D01*
X467076Y610837D01*
X466369Y609701D01*
X466370Y609693D01*
X466364Y609691D01*
X465928Y608426D01*
X465930Y608418D01*
X465925Y608416D01*
X465781Y607085D01*
X465785Y607079D01*
X465781Y607075D01*
X465891Y605909D01*
X465896Y605904D01*
X465893Y605900D01*
X466228Y604777D01*
X466234Y604773D01*
X466232Y604769D01*
X466780Y603733D01*
X466786Y603730D01*
X466785Y603725D01*
X467524Y602817D01*
X467531Y602815D01*
X467531Y602810D01*
X468433Y602063D01*
X468441Y602063D01*
X468441Y602058D01*
X469472Y601501D01*
X469479Y601502D01*
X469481Y601497D01*
X470600Y601153D01*
X470607Y601155D01*
X470610Y601151D01*
X471775Y601031D01*
X471778Y601033D01*
X471780Y601031D01*
X477780Y601031D01*
X477783Y601033D01*
G37*
G36*
X477783Y164153D02*
X477783Y164153D01*
X477785Y164151D01*
X478961Y164262D01*
X478966Y164267D01*
X478970Y164264D01*
X480102Y164602D01*
X480106Y164608D01*
X480111Y164606D01*
X481155Y165158D01*
X481158Y165165D01*
X481163Y165163D01*
X482079Y165909D01*
X482080Y165916D01*
X482086Y165916D01*
X482839Y166826D01*
X482839Y166833D01*
X482844Y166834D01*
X483405Y167873D01*
X483404Y167878D01*
X483408Y167880D01*
X483407Y167881D01*
X483409Y167882D01*
X483756Y169011D01*
X483756Y169012D01*
X483757Y169013D01*
X483754Y169017D01*
X483758Y169020D01*
X483879Y170195D01*
X483875Y170202D01*
X483879Y170206D01*
X483722Y171546D01*
X483717Y171552D01*
X483720Y171557D01*
X483269Y172828D01*
X483262Y172833D01*
X483264Y172838D01*
X482542Y173977D01*
X482534Y173980D01*
X482535Y173986D01*
X481577Y174936D01*
X481569Y174937D01*
X481568Y174943D01*
X480423Y175656D01*
X480415Y175655D01*
X480413Y175661D01*
X479137Y176101D01*
X479130Y176099D01*
X479127Y176103D01*
X477785Y176249D01*
X477782Y176247D01*
X477780Y176249D01*
X471780Y176249D01*
X471777Y176247D01*
X471774Y176249D01*
X470445Y176094D01*
X470439Y176088D01*
X470435Y176091D01*
X469174Y175644D01*
X469169Y175637D01*
X469164Y175639D01*
X468034Y174922D01*
X468031Y174915D01*
X468025Y174916D01*
X467083Y173966D01*
X467082Y173957D01*
X467076Y173957D01*
X466369Y172821D01*
X466370Y172813D01*
X466364Y172811D01*
X465928Y171546D01*
X465930Y171538D01*
X465925Y171536D01*
X465781Y170205D01*
X465785Y170199D01*
X465781Y170195D01*
X465891Y169029D01*
X465896Y169024D01*
X465893Y169020D01*
X466228Y167897D01*
X466234Y167893D01*
X466232Y167889D01*
X466780Y166853D01*
X466786Y166850D01*
X466785Y166845D01*
X467524Y165937D01*
X467531Y165935D01*
X467531Y165930D01*
X468433Y165183D01*
X468441Y165183D01*
X468441Y165178D01*
X469472Y164621D01*
X469479Y164622D01*
X469481Y164617D01*
X470600Y164273D01*
X470607Y164275D01*
X470610Y164271D01*
X471775Y164151D01*
X471778Y164153D01*
X471780Y164151D01*
X477780Y164151D01*
X477783Y164153D01*
G37*
G36*
X15503Y164153D02*
X15503Y164153D01*
X15505Y164151D01*
X16681Y164262D01*
X16686Y164267D01*
X16690Y164264D01*
X17822Y164602D01*
X17826Y164608D01*
X17831Y164606D01*
X18875Y165158D01*
X18878Y165165D01*
X18883Y165163D01*
X19799Y165909D01*
X19800Y165916D01*
X19806Y165916D01*
X20559Y166826D01*
X20559Y166833D01*
X20564Y166834D01*
X21125Y167873D01*
X21124Y167878D01*
X21128Y167880D01*
X21127Y167881D01*
X21129Y167882D01*
X21476Y169011D01*
X21476Y169012D01*
X21477Y169013D01*
X21474Y169017D01*
X21478Y169020D01*
X21599Y170195D01*
X21595Y170202D01*
X21599Y170206D01*
X21442Y171546D01*
X21437Y171552D01*
X21440Y171557D01*
X20989Y172828D01*
X20982Y172833D01*
X20984Y172838D01*
X20262Y173977D01*
X20254Y173980D01*
X20255Y173986D01*
X19297Y174936D01*
X19289Y174937D01*
X19288Y174943D01*
X18143Y175656D01*
X18135Y175655D01*
X18133Y175661D01*
X16857Y176101D01*
X16850Y176099D01*
X16847Y176103D01*
X15505Y176249D01*
X15502Y176247D01*
X15500Y176249D01*
X9500Y176249D01*
X9497Y176247D01*
X9494Y176249D01*
X8165Y176094D01*
X8159Y176088D01*
X8155Y176091D01*
X6894Y175644D01*
X6889Y175637D01*
X6884Y175639D01*
X5754Y174922D01*
X5751Y174915D01*
X5745Y174916D01*
X4803Y173966D01*
X4802Y173957D01*
X4796Y173957D01*
X4089Y172821D01*
X4090Y172813D01*
X4084Y172811D01*
X3648Y171546D01*
X3650Y171538D01*
X3645Y171536D01*
X3501Y170205D01*
X3505Y170199D01*
X3501Y170195D01*
X3611Y169029D01*
X3616Y169024D01*
X3613Y169020D01*
X3948Y167897D01*
X3954Y167893D01*
X3952Y167889D01*
X4500Y166853D01*
X4506Y166850D01*
X4505Y166845D01*
X5244Y165937D01*
X5251Y165935D01*
X5251Y165930D01*
X6153Y165183D01*
X6161Y165183D01*
X6161Y165178D01*
X7192Y164621D01*
X7199Y164622D01*
X7201Y164617D01*
X8320Y164273D01*
X8327Y164275D01*
X8330Y164271D01*
X9495Y164151D01*
X9498Y164153D01*
X9500Y164151D01*
X15500Y164151D01*
X15503Y164153D01*
G37*
G36*
X15503Y77753D02*
X15503Y77753D01*
X15505Y77751D01*
X16681Y77862D01*
X16686Y77867D01*
X16690Y77864D01*
X17822Y78202D01*
X17826Y78208D01*
X17831Y78206D01*
X18875Y78758D01*
X18878Y78765D01*
X18883Y78763D01*
X19799Y79509D01*
X19800Y79516D01*
X19806Y79516D01*
X20559Y80426D01*
X20559Y80433D01*
X20564Y80434D01*
X21125Y81473D01*
X21124Y81478D01*
X21128Y81480D01*
X21127Y81481D01*
X21129Y81482D01*
X21476Y82611D01*
X21476Y82612D01*
X21477Y82613D01*
X21474Y82617D01*
X21478Y82620D01*
X21599Y83795D01*
X21595Y83802D01*
X21599Y83806D01*
X21442Y85146D01*
X21437Y85152D01*
X21440Y85157D01*
X20989Y86428D01*
X20982Y86433D01*
X20984Y86438D01*
X20262Y87577D01*
X20254Y87580D01*
X20255Y87586D01*
X19297Y88536D01*
X19289Y88537D01*
X19288Y88543D01*
X18143Y89256D01*
X18135Y89255D01*
X18133Y89261D01*
X16857Y89701D01*
X16850Y89699D01*
X16847Y89703D01*
X15505Y89849D01*
X15502Y89847D01*
X15500Y89849D01*
X9500Y89849D01*
X9497Y89847D01*
X9494Y89849D01*
X8165Y89694D01*
X8159Y89688D01*
X8155Y89691D01*
X6894Y89244D01*
X6889Y89237D01*
X6884Y89239D01*
X5754Y88522D01*
X5751Y88515D01*
X5745Y88516D01*
X4803Y87566D01*
X4802Y87557D01*
X4796Y87557D01*
X4089Y86421D01*
X4090Y86413D01*
X4084Y86411D01*
X3648Y85146D01*
X3650Y85138D01*
X3645Y85136D01*
X3501Y83805D01*
X3505Y83799D01*
X3501Y83795D01*
X3611Y82629D01*
X3616Y82624D01*
X3613Y82620D01*
X3948Y81497D01*
X3954Y81493D01*
X3952Y81489D01*
X4500Y80453D01*
X4506Y80450D01*
X4505Y80445D01*
X5244Y79537D01*
X5251Y79535D01*
X5251Y79530D01*
X6153Y78783D01*
X6161Y78783D01*
X6161Y78778D01*
X7192Y78221D01*
X7199Y78222D01*
X7201Y78217D01*
X8320Y77873D01*
X8327Y77875D01*
X8330Y77871D01*
X9495Y77751D01*
X9498Y77753D01*
X9500Y77751D01*
X15500Y77751D01*
X15503Y77753D01*
G37*
G36*
X477783Y77753D02*
X477783Y77753D01*
X477785Y77751D01*
X478961Y77862D01*
X478966Y77867D01*
X478970Y77864D01*
X480102Y78202D01*
X480106Y78208D01*
X480111Y78206D01*
X481155Y78758D01*
X481158Y78765D01*
X481163Y78763D01*
X482079Y79509D01*
X482080Y79516D01*
X482086Y79516D01*
X482839Y80426D01*
X482839Y80433D01*
X482844Y80434D01*
X483405Y81473D01*
X483404Y81478D01*
X483408Y81480D01*
X483407Y81481D01*
X483409Y81482D01*
X483756Y82611D01*
X483756Y82612D01*
X483757Y82613D01*
X483754Y82617D01*
X483758Y82620D01*
X483879Y83795D01*
X483875Y83802D01*
X483879Y83806D01*
X483722Y85146D01*
X483717Y85152D01*
X483720Y85157D01*
X483269Y86428D01*
X483262Y86433D01*
X483264Y86438D01*
X482542Y87577D01*
X482534Y87580D01*
X482535Y87586D01*
X481577Y88536D01*
X481569Y88537D01*
X481568Y88543D01*
X480423Y89256D01*
X480415Y89255D01*
X480413Y89261D01*
X479137Y89701D01*
X479130Y89699D01*
X479127Y89703D01*
X477785Y89849D01*
X477782Y89847D01*
X477780Y89849D01*
X471780Y89849D01*
X471777Y89847D01*
X471774Y89849D01*
X470445Y89694D01*
X470439Y89688D01*
X470435Y89691D01*
X469174Y89244D01*
X469169Y89237D01*
X469164Y89239D01*
X468034Y88522D01*
X468031Y88515D01*
X468025Y88516D01*
X467083Y87566D01*
X467082Y87557D01*
X467076Y87557D01*
X466369Y86421D01*
X466370Y86413D01*
X466364Y86411D01*
X465928Y85146D01*
X465930Y85138D01*
X465925Y85136D01*
X465781Y83805D01*
X465785Y83799D01*
X465781Y83795D01*
X465891Y82629D01*
X465896Y82624D01*
X465893Y82620D01*
X466228Y81497D01*
X466234Y81493D01*
X466232Y81489D01*
X466780Y80453D01*
X466786Y80450D01*
X466785Y80445D01*
X467524Y79537D01*
X467531Y79535D01*
X467531Y79530D01*
X468433Y78783D01*
X468441Y78783D01*
X468441Y78778D01*
X469472Y78221D01*
X469479Y78222D01*
X469481Y78217D01*
X470600Y77873D01*
X470607Y77875D01*
X470610Y77871D01*
X471775Y77751D01*
X471778Y77753D01*
X471780Y77751D01*
X477780Y77751D01*
X477783Y77753D01*
G37*
G36*
X331535Y73672D02*
X331535Y73672D01*
X331601Y73674D01*
X331644Y73692D01*
X331691Y73700D01*
X331748Y73734D01*
X331808Y73759D01*
X331843Y73790D01*
X331884Y73815D01*
X331926Y73866D01*
X331974Y73910D01*
X331996Y73952D01*
X332025Y73989D01*
X332046Y74051D01*
X332077Y74110D01*
X332085Y74164D01*
X332097Y74201D01*
X332096Y74241D01*
X332104Y74295D01*
X332104Y78105D01*
X332093Y78170D01*
X332091Y78236D01*
X332073Y78279D01*
X332065Y78326D01*
X332031Y78383D01*
X332006Y78443D01*
X331975Y78478D01*
X331950Y78519D01*
X331899Y78561D01*
X331855Y78609D01*
X331813Y78631D01*
X331776Y78660D01*
X331714Y78681D01*
X331655Y78712D01*
X331601Y78720D01*
X331564Y78732D01*
X331524Y78731D01*
X331470Y78739D01*
X328930Y78739D01*
X328865Y78728D01*
X328799Y78726D01*
X328756Y78708D01*
X328709Y78700D01*
X328652Y78666D01*
X328592Y78641D01*
X328557Y78610D01*
X328516Y78585D01*
X328475Y78534D01*
X328426Y78490D01*
X328404Y78448D01*
X328375Y78411D01*
X328354Y78349D01*
X328323Y78290D01*
X328315Y78236D01*
X328303Y78199D01*
X328303Y78195D01*
X328303Y78194D01*
X328304Y78159D01*
X328296Y78105D01*
X328296Y74295D01*
X328307Y74230D01*
X328309Y74164D01*
X328327Y74121D01*
X328335Y74074D01*
X328369Y74017D01*
X328394Y73957D01*
X328425Y73922D01*
X328450Y73881D01*
X328501Y73840D01*
X328545Y73791D01*
X328587Y73769D01*
X328624Y73740D01*
X328686Y73719D01*
X328745Y73688D01*
X328799Y73680D01*
X328836Y73668D01*
X328876Y73669D01*
X328930Y73661D01*
X331470Y73661D01*
X331535Y73672D01*
G37*
G36*
X793815Y947432D02*
X793815Y947432D01*
X793881Y947434D01*
X793924Y947452D01*
X793971Y947460D01*
X794028Y947494D01*
X794088Y947519D01*
X794123Y947550D01*
X794164Y947575D01*
X794206Y947626D01*
X794254Y947670D01*
X794276Y947712D01*
X794305Y947749D01*
X794326Y947811D01*
X794357Y947870D01*
X794365Y947924D01*
X794377Y947961D01*
X794376Y948001D01*
X794384Y948055D01*
X794384Y951865D01*
X794373Y951930D01*
X794371Y951996D01*
X794353Y952039D01*
X794345Y952086D01*
X794311Y952143D01*
X794286Y952203D01*
X794255Y952238D01*
X794230Y952279D01*
X794179Y952321D01*
X794135Y952369D01*
X794093Y952391D01*
X794056Y952420D01*
X793994Y952441D01*
X793935Y952472D01*
X793881Y952480D01*
X793844Y952492D01*
X793804Y952491D01*
X793750Y952499D01*
X791210Y952499D01*
X791145Y952488D01*
X791079Y952486D01*
X791036Y952468D01*
X790989Y952460D01*
X790932Y952426D01*
X790872Y952401D01*
X790837Y952370D01*
X790796Y952345D01*
X790755Y952294D01*
X790706Y952250D01*
X790684Y952208D01*
X790655Y952171D01*
X790634Y952109D01*
X790603Y952050D01*
X790595Y951996D01*
X790583Y951959D01*
X790583Y951955D01*
X790583Y951954D01*
X790584Y951919D01*
X790576Y951865D01*
X790576Y948055D01*
X790587Y947990D01*
X790589Y947924D01*
X790607Y947881D01*
X790615Y947834D01*
X790649Y947777D01*
X790674Y947717D01*
X790705Y947682D01*
X790730Y947641D01*
X790781Y947600D01*
X790825Y947551D01*
X790867Y947529D01*
X790904Y947500D01*
X790966Y947479D01*
X791025Y947448D01*
X791079Y947440D01*
X791116Y947428D01*
X791156Y947429D01*
X791210Y947421D01*
X793750Y947421D01*
X793815Y947432D01*
G37*
G36*
X331535Y947432D02*
X331535Y947432D01*
X331601Y947434D01*
X331644Y947452D01*
X331691Y947460D01*
X331748Y947494D01*
X331808Y947519D01*
X331843Y947550D01*
X331884Y947575D01*
X331926Y947626D01*
X331974Y947670D01*
X331996Y947712D01*
X332025Y947749D01*
X332046Y947811D01*
X332077Y947870D01*
X332085Y947924D01*
X332097Y947961D01*
X332096Y948001D01*
X332104Y948055D01*
X332104Y951865D01*
X332093Y951930D01*
X332091Y951996D01*
X332073Y952039D01*
X332065Y952086D01*
X332031Y952143D01*
X332006Y952203D01*
X331975Y952238D01*
X331950Y952279D01*
X331899Y952321D01*
X331855Y952369D01*
X331813Y952391D01*
X331776Y952420D01*
X331714Y952441D01*
X331655Y952472D01*
X331601Y952480D01*
X331564Y952492D01*
X331524Y952491D01*
X331470Y952499D01*
X328930Y952499D01*
X328865Y952488D01*
X328799Y952486D01*
X328756Y952468D01*
X328709Y952460D01*
X328652Y952426D01*
X328592Y952401D01*
X328557Y952370D01*
X328516Y952345D01*
X328475Y952294D01*
X328426Y952250D01*
X328404Y952208D01*
X328375Y952171D01*
X328354Y952109D01*
X328323Y952050D01*
X328315Y951996D01*
X328303Y951959D01*
X328303Y951955D01*
X328303Y951954D01*
X328304Y951919D01*
X328296Y951865D01*
X328296Y948055D01*
X328307Y947990D01*
X328309Y947924D01*
X328327Y947881D01*
X328335Y947834D01*
X328369Y947777D01*
X328394Y947717D01*
X328425Y947682D01*
X328450Y947641D01*
X328501Y947600D01*
X328545Y947551D01*
X328587Y947529D01*
X328624Y947500D01*
X328686Y947479D01*
X328745Y947448D01*
X328799Y947440D01*
X328836Y947428D01*
X328876Y947429D01*
X328930Y947421D01*
X331470Y947421D01*
X331535Y947432D01*
G37*
G36*
X793815Y510552D02*
X793815Y510552D01*
X793881Y510554D01*
X793924Y510572D01*
X793971Y510580D01*
X794028Y510614D01*
X794088Y510639D01*
X794123Y510670D01*
X794164Y510695D01*
X794206Y510746D01*
X794254Y510790D01*
X794276Y510832D01*
X794305Y510869D01*
X794326Y510931D01*
X794357Y510990D01*
X794365Y511044D01*
X794377Y511081D01*
X794376Y511121D01*
X794384Y511175D01*
X794384Y514985D01*
X794373Y515050D01*
X794371Y515116D01*
X794353Y515159D01*
X794345Y515206D01*
X794311Y515263D01*
X794286Y515323D01*
X794255Y515358D01*
X794230Y515399D01*
X794179Y515441D01*
X794135Y515489D01*
X794093Y515511D01*
X794056Y515540D01*
X793994Y515561D01*
X793935Y515592D01*
X793881Y515600D01*
X793844Y515612D01*
X793804Y515611D01*
X793750Y515619D01*
X791210Y515619D01*
X791145Y515608D01*
X791079Y515606D01*
X791036Y515588D01*
X790989Y515580D01*
X790932Y515546D01*
X790872Y515521D01*
X790837Y515490D01*
X790796Y515465D01*
X790755Y515414D01*
X790706Y515370D01*
X790684Y515328D01*
X790655Y515291D01*
X790634Y515229D01*
X790603Y515170D01*
X790595Y515116D01*
X790583Y515079D01*
X790583Y515075D01*
X790583Y515074D01*
X790584Y515039D01*
X790576Y514985D01*
X790576Y511175D01*
X790587Y511110D01*
X790589Y511044D01*
X790607Y511001D01*
X790615Y510954D01*
X790649Y510897D01*
X790674Y510837D01*
X790705Y510802D01*
X790730Y510761D01*
X790781Y510720D01*
X790825Y510671D01*
X790867Y510649D01*
X790904Y510620D01*
X790966Y510599D01*
X791025Y510568D01*
X791079Y510560D01*
X791116Y510548D01*
X791156Y510549D01*
X791210Y510541D01*
X793750Y510541D01*
X793815Y510552D01*
G37*
G36*
X331535Y510552D02*
X331535Y510552D01*
X331601Y510554D01*
X331644Y510572D01*
X331691Y510580D01*
X331748Y510614D01*
X331808Y510639D01*
X331843Y510670D01*
X331884Y510695D01*
X331926Y510746D01*
X331974Y510790D01*
X331996Y510832D01*
X332025Y510869D01*
X332046Y510931D01*
X332077Y510990D01*
X332085Y511044D01*
X332097Y511081D01*
X332096Y511121D01*
X332104Y511175D01*
X332104Y514985D01*
X332093Y515050D01*
X332091Y515116D01*
X332073Y515159D01*
X332065Y515206D01*
X332031Y515263D01*
X332006Y515323D01*
X331975Y515358D01*
X331950Y515399D01*
X331899Y515441D01*
X331855Y515489D01*
X331813Y515511D01*
X331776Y515540D01*
X331714Y515561D01*
X331655Y515592D01*
X331601Y515600D01*
X331564Y515612D01*
X331524Y515611D01*
X331470Y515619D01*
X328930Y515619D01*
X328865Y515608D01*
X328799Y515606D01*
X328756Y515588D01*
X328709Y515580D01*
X328652Y515546D01*
X328592Y515521D01*
X328557Y515490D01*
X328516Y515465D01*
X328475Y515414D01*
X328426Y515370D01*
X328404Y515328D01*
X328375Y515291D01*
X328354Y515229D01*
X328323Y515170D01*
X328315Y515116D01*
X328303Y515079D01*
X328303Y515075D01*
X328303Y515074D01*
X328304Y515039D01*
X328296Y514985D01*
X328296Y511175D01*
X328307Y511110D01*
X328309Y511044D01*
X328327Y511001D01*
X328335Y510954D01*
X328369Y510897D01*
X328394Y510837D01*
X328425Y510802D01*
X328450Y510761D01*
X328501Y510720D01*
X328545Y510671D01*
X328587Y510649D01*
X328624Y510620D01*
X328686Y510599D01*
X328745Y510568D01*
X328799Y510560D01*
X328836Y510548D01*
X328876Y510549D01*
X328930Y510541D01*
X331470Y510541D01*
X331535Y510552D01*
G37*
G36*
X793815Y73672D02*
X793815Y73672D01*
X793881Y73674D01*
X793924Y73692D01*
X793971Y73700D01*
X794028Y73734D01*
X794088Y73759D01*
X794123Y73790D01*
X794164Y73815D01*
X794206Y73866D01*
X794254Y73910D01*
X794276Y73952D01*
X794305Y73989D01*
X794326Y74051D01*
X794357Y74110D01*
X794365Y74164D01*
X794377Y74201D01*
X794376Y74241D01*
X794384Y74295D01*
X794384Y78105D01*
X794373Y78170D01*
X794371Y78236D01*
X794353Y78279D01*
X794345Y78326D01*
X794311Y78383D01*
X794286Y78443D01*
X794255Y78478D01*
X794230Y78519D01*
X794179Y78561D01*
X794135Y78609D01*
X794093Y78631D01*
X794056Y78660D01*
X793994Y78681D01*
X793935Y78712D01*
X793881Y78720D01*
X793844Y78732D01*
X793804Y78731D01*
X793750Y78739D01*
X791210Y78739D01*
X791145Y78728D01*
X791079Y78726D01*
X791036Y78708D01*
X790989Y78700D01*
X790932Y78666D01*
X790872Y78641D01*
X790837Y78610D01*
X790796Y78585D01*
X790755Y78534D01*
X790706Y78490D01*
X790684Y78448D01*
X790655Y78411D01*
X790634Y78349D01*
X790603Y78290D01*
X790595Y78236D01*
X790583Y78199D01*
X790583Y78195D01*
X790583Y78194D01*
X790584Y78159D01*
X790576Y78105D01*
X790576Y74295D01*
X790587Y74230D01*
X790589Y74164D01*
X790607Y74121D01*
X790615Y74074D01*
X790649Y74017D01*
X790674Y73957D01*
X790705Y73922D01*
X790730Y73881D01*
X790781Y73840D01*
X790825Y73791D01*
X790867Y73769D01*
X790904Y73740D01*
X790966Y73719D01*
X791025Y73688D01*
X791079Y73680D01*
X791116Y73668D01*
X791156Y73669D01*
X791210Y73661D01*
X793750Y73661D01*
X793815Y73672D01*
G37*
G36*
X121350Y960767D02*
X121350Y960767D01*
X121416Y960769D01*
X121459Y960787D01*
X121506Y960795D01*
X121563Y960829D01*
X121623Y960854D01*
X121658Y960885D01*
X121699Y960910D01*
X121741Y960961D01*
X121789Y961005D01*
X121811Y961047D01*
X121840Y961084D01*
X121861Y961146D01*
X121892Y961205D01*
X121900Y961259D01*
X121912Y961296D01*
X121911Y961336D01*
X121919Y961390D01*
X121919Y963930D01*
X121908Y963995D01*
X121906Y964061D01*
X121888Y964104D01*
X121880Y964151D01*
X121846Y964208D01*
X121821Y964268D01*
X121790Y964303D01*
X121765Y964344D01*
X121714Y964386D01*
X121670Y964434D01*
X121628Y964456D01*
X121591Y964485D01*
X121529Y964506D01*
X121470Y964537D01*
X121416Y964545D01*
X121379Y964557D01*
X121339Y964556D01*
X121285Y964564D01*
X117475Y964564D01*
X117410Y964553D01*
X117344Y964551D01*
X117301Y964533D01*
X117254Y964525D01*
X117197Y964491D01*
X117137Y964466D01*
X117102Y964435D01*
X117061Y964410D01*
X117020Y964359D01*
X116971Y964315D01*
X116949Y964273D01*
X116920Y964236D01*
X116899Y964174D01*
X116868Y964115D01*
X116860Y964061D01*
X116848Y964024D01*
X116848Y964021D01*
X116849Y963984D01*
X116841Y963930D01*
X116841Y961390D01*
X116852Y961325D01*
X116854Y961259D01*
X116872Y961216D01*
X116880Y961169D01*
X116914Y961112D01*
X116939Y961052D01*
X116970Y961017D01*
X116995Y960976D01*
X117046Y960935D01*
X117090Y960886D01*
X117132Y960864D01*
X117169Y960835D01*
X117231Y960814D01*
X117290Y960783D01*
X117344Y960775D01*
X117381Y960763D01*
X117421Y960764D01*
X117475Y960756D01*
X121285Y960756D01*
X121350Y960767D01*
G37*
G36*
X111190Y960767D02*
X111190Y960767D01*
X111256Y960769D01*
X111299Y960787D01*
X111346Y960795D01*
X111403Y960829D01*
X111463Y960854D01*
X111498Y960885D01*
X111539Y960910D01*
X111581Y960961D01*
X111629Y961005D01*
X111651Y961047D01*
X111680Y961084D01*
X111701Y961146D01*
X111732Y961205D01*
X111740Y961259D01*
X111752Y961296D01*
X111751Y961336D01*
X111759Y961390D01*
X111759Y963930D01*
X111748Y963995D01*
X111746Y964061D01*
X111728Y964104D01*
X111720Y964151D01*
X111686Y964208D01*
X111661Y964268D01*
X111630Y964303D01*
X111605Y964344D01*
X111554Y964386D01*
X111510Y964434D01*
X111468Y964456D01*
X111431Y964485D01*
X111369Y964506D01*
X111310Y964537D01*
X111256Y964545D01*
X111219Y964557D01*
X111179Y964556D01*
X111125Y964564D01*
X107315Y964564D01*
X107250Y964553D01*
X107184Y964551D01*
X107141Y964533D01*
X107094Y964525D01*
X107037Y964491D01*
X106977Y964466D01*
X106942Y964435D01*
X106901Y964410D01*
X106860Y964359D01*
X106811Y964315D01*
X106789Y964273D01*
X106760Y964236D01*
X106739Y964174D01*
X106708Y964115D01*
X106700Y964061D01*
X106688Y964024D01*
X106688Y964021D01*
X106689Y963984D01*
X106681Y963930D01*
X106681Y961390D01*
X106692Y961325D01*
X106694Y961259D01*
X106712Y961216D01*
X106720Y961169D01*
X106754Y961112D01*
X106779Y961052D01*
X106810Y961017D01*
X106835Y960976D01*
X106886Y960935D01*
X106930Y960886D01*
X106972Y960864D01*
X107009Y960835D01*
X107071Y960814D01*
X107130Y960783D01*
X107184Y960775D01*
X107221Y960763D01*
X107261Y960764D01*
X107315Y960756D01*
X111125Y960756D01*
X111190Y960767D01*
G37*
G36*
X111190Y87007D02*
X111190Y87007D01*
X111256Y87009D01*
X111299Y87027D01*
X111346Y87035D01*
X111403Y87069D01*
X111463Y87094D01*
X111498Y87125D01*
X111539Y87150D01*
X111581Y87201D01*
X111629Y87245D01*
X111651Y87287D01*
X111680Y87324D01*
X111701Y87386D01*
X111732Y87445D01*
X111740Y87499D01*
X111752Y87536D01*
X111751Y87576D01*
X111759Y87630D01*
X111759Y90170D01*
X111748Y90235D01*
X111746Y90301D01*
X111728Y90344D01*
X111720Y90391D01*
X111686Y90448D01*
X111661Y90508D01*
X111630Y90543D01*
X111605Y90584D01*
X111554Y90626D01*
X111510Y90674D01*
X111468Y90696D01*
X111431Y90725D01*
X111369Y90746D01*
X111310Y90777D01*
X111256Y90785D01*
X111219Y90797D01*
X111179Y90796D01*
X111125Y90804D01*
X107315Y90804D01*
X107250Y90793D01*
X107184Y90791D01*
X107141Y90773D01*
X107094Y90765D01*
X107037Y90731D01*
X106977Y90706D01*
X106942Y90675D01*
X106901Y90650D01*
X106860Y90599D01*
X106811Y90555D01*
X106789Y90513D01*
X106760Y90476D01*
X106739Y90414D01*
X106708Y90355D01*
X106700Y90301D01*
X106688Y90264D01*
X106688Y90261D01*
X106689Y90224D01*
X106681Y90170D01*
X106681Y87630D01*
X106692Y87565D01*
X106694Y87499D01*
X106712Y87456D01*
X106720Y87409D01*
X106754Y87352D01*
X106779Y87292D01*
X106810Y87257D01*
X106835Y87216D01*
X106886Y87175D01*
X106930Y87126D01*
X106972Y87104D01*
X107009Y87075D01*
X107071Y87054D01*
X107130Y87023D01*
X107184Y87015D01*
X107221Y87003D01*
X107261Y87004D01*
X107315Y86996D01*
X111125Y86996D01*
X111190Y87007D01*
G37*
G36*
X573470Y87007D02*
X573470Y87007D01*
X573536Y87009D01*
X573579Y87027D01*
X573626Y87035D01*
X573683Y87069D01*
X573743Y87094D01*
X573778Y87125D01*
X573819Y87150D01*
X573861Y87201D01*
X573909Y87245D01*
X573931Y87287D01*
X573960Y87324D01*
X573981Y87386D01*
X574012Y87445D01*
X574020Y87499D01*
X574032Y87536D01*
X574031Y87576D01*
X574039Y87630D01*
X574039Y90170D01*
X574028Y90235D01*
X574026Y90301D01*
X574008Y90344D01*
X574000Y90391D01*
X573966Y90448D01*
X573941Y90508D01*
X573910Y90543D01*
X573885Y90584D01*
X573834Y90626D01*
X573790Y90674D01*
X573748Y90696D01*
X573711Y90725D01*
X573649Y90746D01*
X573590Y90777D01*
X573536Y90785D01*
X573499Y90797D01*
X573459Y90796D01*
X573405Y90804D01*
X569595Y90804D01*
X569530Y90793D01*
X569464Y90791D01*
X569421Y90773D01*
X569374Y90765D01*
X569317Y90731D01*
X569257Y90706D01*
X569222Y90675D01*
X569181Y90650D01*
X569140Y90599D01*
X569091Y90555D01*
X569069Y90513D01*
X569040Y90476D01*
X569019Y90414D01*
X568988Y90355D01*
X568980Y90301D01*
X568968Y90264D01*
X568968Y90261D01*
X568969Y90224D01*
X568961Y90170D01*
X568961Y87630D01*
X568972Y87565D01*
X568974Y87499D01*
X568992Y87456D01*
X569000Y87409D01*
X569034Y87352D01*
X569059Y87292D01*
X569090Y87257D01*
X569115Y87216D01*
X569166Y87175D01*
X569210Y87126D01*
X569252Y87104D01*
X569289Y87075D01*
X569351Y87054D01*
X569410Y87023D01*
X569464Y87015D01*
X569501Y87003D01*
X569541Y87004D01*
X569595Y86996D01*
X573405Y86996D01*
X573470Y87007D01*
G37*
G36*
X583630Y87007D02*
X583630Y87007D01*
X583696Y87009D01*
X583739Y87027D01*
X583786Y87035D01*
X583843Y87069D01*
X583903Y87094D01*
X583938Y87125D01*
X583979Y87150D01*
X584021Y87201D01*
X584069Y87245D01*
X584091Y87287D01*
X584120Y87324D01*
X584141Y87386D01*
X584172Y87445D01*
X584180Y87499D01*
X584192Y87536D01*
X584191Y87576D01*
X584199Y87630D01*
X584199Y90170D01*
X584188Y90235D01*
X584186Y90301D01*
X584168Y90344D01*
X584160Y90391D01*
X584126Y90448D01*
X584101Y90508D01*
X584070Y90543D01*
X584045Y90584D01*
X583994Y90626D01*
X583950Y90674D01*
X583908Y90696D01*
X583871Y90725D01*
X583809Y90746D01*
X583750Y90777D01*
X583696Y90785D01*
X583659Y90797D01*
X583619Y90796D01*
X583565Y90804D01*
X579755Y90804D01*
X579690Y90793D01*
X579624Y90791D01*
X579581Y90773D01*
X579534Y90765D01*
X579477Y90731D01*
X579417Y90706D01*
X579382Y90675D01*
X579341Y90650D01*
X579300Y90599D01*
X579251Y90555D01*
X579229Y90513D01*
X579200Y90476D01*
X579179Y90414D01*
X579148Y90355D01*
X579140Y90301D01*
X579128Y90264D01*
X579128Y90261D01*
X579129Y90224D01*
X579121Y90170D01*
X579121Y87630D01*
X579132Y87565D01*
X579134Y87499D01*
X579152Y87456D01*
X579160Y87409D01*
X579194Y87352D01*
X579219Y87292D01*
X579250Y87257D01*
X579275Y87216D01*
X579326Y87175D01*
X579370Y87126D01*
X579412Y87104D01*
X579449Y87075D01*
X579511Y87054D01*
X579570Y87023D01*
X579624Y87015D01*
X579661Y87003D01*
X579701Y87004D01*
X579755Y86996D01*
X583565Y86996D01*
X583630Y87007D01*
G37*
G36*
X583630Y523887D02*
X583630Y523887D01*
X583696Y523889D01*
X583739Y523907D01*
X583786Y523915D01*
X583843Y523949D01*
X583903Y523974D01*
X583938Y524005D01*
X583979Y524030D01*
X584021Y524081D01*
X584069Y524125D01*
X584091Y524167D01*
X584120Y524204D01*
X584141Y524266D01*
X584172Y524325D01*
X584180Y524379D01*
X584192Y524416D01*
X584191Y524456D01*
X584199Y524510D01*
X584199Y527050D01*
X584188Y527115D01*
X584186Y527181D01*
X584168Y527224D01*
X584160Y527271D01*
X584126Y527328D01*
X584101Y527388D01*
X584070Y527423D01*
X584045Y527464D01*
X583994Y527506D01*
X583950Y527554D01*
X583908Y527576D01*
X583871Y527605D01*
X583809Y527626D01*
X583750Y527657D01*
X583696Y527665D01*
X583659Y527677D01*
X583619Y527676D01*
X583565Y527684D01*
X579755Y527684D01*
X579690Y527673D01*
X579624Y527671D01*
X579581Y527653D01*
X579534Y527645D01*
X579477Y527611D01*
X579417Y527586D01*
X579382Y527555D01*
X579341Y527530D01*
X579300Y527479D01*
X579251Y527435D01*
X579229Y527393D01*
X579200Y527356D01*
X579179Y527294D01*
X579148Y527235D01*
X579140Y527181D01*
X579128Y527144D01*
X579128Y527141D01*
X579129Y527104D01*
X579121Y527050D01*
X579121Y524510D01*
X579132Y524445D01*
X579134Y524379D01*
X579152Y524336D01*
X579160Y524289D01*
X579194Y524232D01*
X579219Y524172D01*
X579250Y524137D01*
X579275Y524096D01*
X579326Y524055D01*
X579370Y524006D01*
X579412Y523984D01*
X579449Y523955D01*
X579511Y523934D01*
X579570Y523903D01*
X579624Y523895D01*
X579661Y523883D01*
X579701Y523884D01*
X579755Y523876D01*
X583565Y523876D01*
X583630Y523887D01*
G37*
G36*
X111190Y523887D02*
X111190Y523887D01*
X111256Y523889D01*
X111299Y523907D01*
X111346Y523915D01*
X111403Y523949D01*
X111463Y523974D01*
X111498Y524005D01*
X111539Y524030D01*
X111581Y524081D01*
X111629Y524125D01*
X111651Y524167D01*
X111680Y524204D01*
X111701Y524266D01*
X111732Y524325D01*
X111740Y524379D01*
X111752Y524416D01*
X111751Y524456D01*
X111759Y524510D01*
X111759Y527050D01*
X111748Y527115D01*
X111746Y527181D01*
X111728Y527224D01*
X111720Y527271D01*
X111686Y527328D01*
X111661Y527388D01*
X111630Y527423D01*
X111605Y527464D01*
X111554Y527506D01*
X111510Y527554D01*
X111468Y527576D01*
X111431Y527605D01*
X111369Y527626D01*
X111310Y527657D01*
X111256Y527665D01*
X111219Y527677D01*
X111179Y527676D01*
X111125Y527684D01*
X107315Y527684D01*
X107250Y527673D01*
X107184Y527671D01*
X107141Y527653D01*
X107094Y527645D01*
X107037Y527611D01*
X106977Y527586D01*
X106942Y527555D01*
X106901Y527530D01*
X106860Y527479D01*
X106811Y527435D01*
X106789Y527393D01*
X106760Y527356D01*
X106739Y527294D01*
X106708Y527235D01*
X106700Y527181D01*
X106688Y527144D01*
X106688Y527141D01*
X106689Y527104D01*
X106681Y527050D01*
X106681Y524510D01*
X106692Y524445D01*
X106694Y524379D01*
X106712Y524336D01*
X106720Y524289D01*
X106754Y524232D01*
X106779Y524172D01*
X106810Y524137D01*
X106835Y524096D01*
X106886Y524055D01*
X106930Y524006D01*
X106972Y523984D01*
X107009Y523955D01*
X107071Y523934D01*
X107130Y523903D01*
X107184Y523895D01*
X107221Y523883D01*
X107261Y523884D01*
X107315Y523876D01*
X111125Y523876D01*
X111190Y523887D01*
G37*
G36*
X573470Y960767D02*
X573470Y960767D01*
X573536Y960769D01*
X573579Y960787D01*
X573626Y960795D01*
X573683Y960829D01*
X573743Y960854D01*
X573778Y960885D01*
X573819Y960910D01*
X573861Y960961D01*
X573909Y961005D01*
X573931Y961047D01*
X573960Y961084D01*
X573981Y961146D01*
X574012Y961205D01*
X574020Y961259D01*
X574032Y961296D01*
X574031Y961336D01*
X574039Y961390D01*
X574039Y963930D01*
X574028Y963995D01*
X574026Y964061D01*
X574008Y964104D01*
X574000Y964151D01*
X573966Y964208D01*
X573941Y964268D01*
X573910Y964303D01*
X573885Y964344D01*
X573834Y964386D01*
X573790Y964434D01*
X573748Y964456D01*
X573711Y964485D01*
X573649Y964506D01*
X573590Y964537D01*
X573536Y964545D01*
X573499Y964557D01*
X573459Y964556D01*
X573405Y964564D01*
X569595Y964564D01*
X569530Y964553D01*
X569464Y964551D01*
X569421Y964533D01*
X569374Y964525D01*
X569317Y964491D01*
X569257Y964466D01*
X569222Y964435D01*
X569181Y964410D01*
X569140Y964359D01*
X569091Y964315D01*
X569069Y964273D01*
X569040Y964236D01*
X569019Y964174D01*
X568988Y964115D01*
X568980Y964061D01*
X568968Y964024D01*
X568968Y964021D01*
X568969Y963984D01*
X568961Y963930D01*
X568961Y961390D01*
X568972Y961325D01*
X568974Y961259D01*
X568992Y961216D01*
X569000Y961169D01*
X569034Y961112D01*
X569059Y961052D01*
X569090Y961017D01*
X569115Y960976D01*
X569166Y960935D01*
X569210Y960886D01*
X569252Y960864D01*
X569289Y960835D01*
X569351Y960814D01*
X569410Y960783D01*
X569464Y960775D01*
X569501Y960763D01*
X569541Y960764D01*
X569595Y960756D01*
X573405Y960756D01*
X573470Y960767D01*
G37*
G36*
X583630Y960767D02*
X583630Y960767D01*
X583696Y960769D01*
X583739Y960787D01*
X583786Y960795D01*
X583843Y960829D01*
X583903Y960854D01*
X583938Y960885D01*
X583979Y960910D01*
X584021Y960961D01*
X584069Y961005D01*
X584091Y961047D01*
X584120Y961084D01*
X584141Y961146D01*
X584172Y961205D01*
X584180Y961259D01*
X584192Y961296D01*
X584191Y961336D01*
X584199Y961390D01*
X584199Y963930D01*
X584188Y963995D01*
X584186Y964061D01*
X584168Y964104D01*
X584160Y964151D01*
X584126Y964208D01*
X584101Y964268D01*
X584070Y964303D01*
X584045Y964344D01*
X583994Y964386D01*
X583950Y964434D01*
X583908Y964456D01*
X583871Y964485D01*
X583809Y964506D01*
X583750Y964537D01*
X583696Y964545D01*
X583659Y964557D01*
X583619Y964556D01*
X583565Y964564D01*
X579755Y964564D01*
X579690Y964553D01*
X579624Y964551D01*
X579581Y964533D01*
X579534Y964525D01*
X579477Y964491D01*
X579417Y964466D01*
X579382Y964435D01*
X579341Y964410D01*
X579300Y964359D01*
X579251Y964315D01*
X579229Y964273D01*
X579200Y964236D01*
X579179Y964174D01*
X579148Y964115D01*
X579140Y964061D01*
X579128Y964024D01*
X579128Y964021D01*
X579129Y963984D01*
X579121Y963930D01*
X579121Y961390D01*
X579132Y961325D01*
X579134Y961259D01*
X579152Y961216D01*
X579160Y961169D01*
X579194Y961112D01*
X579219Y961052D01*
X579250Y961017D01*
X579275Y960976D01*
X579326Y960935D01*
X579370Y960886D01*
X579412Y960864D01*
X579449Y960835D01*
X579511Y960814D01*
X579570Y960783D01*
X579624Y960775D01*
X579661Y960763D01*
X579701Y960764D01*
X579755Y960756D01*
X583565Y960756D01*
X583630Y960767D01*
G37*
G36*
X121350Y523887D02*
X121350Y523887D01*
X121416Y523889D01*
X121459Y523907D01*
X121506Y523915D01*
X121563Y523949D01*
X121623Y523974D01*
X121658Y524005D01*
X121699Y524030D01*
X121741Y524081D01*
X121789Y524125D01*
X121811Y524167D01*
X121840Y524204D01*
X121861Y524266D01*
X121892Y524325D01*
X121900Y524379D01*
X121912Y524416D01*
X121911Y524456D01*
X121919Y524510D01*
X121919Y527050D01*
X121908Y527115D01*
X121906Y527181D01*
X121888Y527224D01*
X121880Y527271D01*
X121846Y527328D01*
X121821Y527388D01*
X121790Y527423D01*
X121765Y527464D01*
X121714Y527506D01*
X121670Y527554D01*
X121628Y527576D01*
X121591Y527605D01*
X121529Y527626D01*
X121470Y527657D01*
X121416Y527665D01*
X121379Y527677D01*
X121339Y527676D01*
X121285Y527684D01*
X117475Y527684D01*
X117410Y527673D01*
X117344Y527671D01*
X117301Y527653D01*
X117254Y527645D01*
X117197Y527611D01*
X117137Y527586D01*
X117102Y527555D01*
X117061Y527530D01*
X117020Y527479D01*
X116971Y527435D01*
X116949Y527393D01*
X116920Y527356D01*
X116899Y527294D01*
X116868Y527235D01*
X116860Y527181D01*
X116848Y527144D01*
X116848Y527141D01*
X116849Y527104D01*
X116841Y527050D01*
X116841Y524510D01*
X116852Y524445D01*
X116854Y524379D01*
X116872Y524336D01*
X116880Y524289D01*
X116914Y524232D01*
X116939Y524172D01*
X116970Y524137D01*
X116995Y524096D01*
X117046Y524055D01*
X117090Y524006D01*
X117132Y523984D01*
X117169Y523955D01*
X117231Y523934D01*
X117290Y523903D01*
X117344Y523895D01*
X117381Y523883D01*
X117421Y523884D01*
X117475Y523876D01*
X121285Y523876D01*
X121350Y523887D01*
G37*
G36*
X573470Y523887D02*
X573470Y523887D01*
X573536Y523889D01*
X573579Y523907D01*
X573626Y523915D01*
X573683Y523949D01*
X573743Y523974D01*
X573778Y524005D01*
X573819Y524030D01*
X573861Y524081D01*
X573909Y524125D01*
X573931Y524167D01*
X573960Y524204D01*
X573981Y524266D01*
X574012Y524325D01*
X574020Y524379D01*
X574032Y524416D01*
X574031Y524456D01*
X574039Y524510D01*
X574039Y527050D01*
X574028Y527115D01*
X574026Y527181D01*
X574008Y527224D01*
X574000Y527271D01*
X573966Y527328D01*
X573941Y527388D01*
X573910Y527423D01*
X573885Y527464D01*
X573834Y527506D01*
X573790Y527554D01*
X573748Y527576D01*
X573711Y527605D01*
X573649Y527626D01*
X573590Y527657D01*
X573536Y527665D01*
X573499Y527677D01*
X573459Y527676D01*
X573405Y527684D01*
X569595Y527684D01*
X569530Y527673D01*
X569464Y527671D01*
X569421Y527653D01*
X569374Y527645D01*
X569317Y527611D01*
X569257Y527586D01*
X569222Y527555D01*
X569181Y527530D01*
X569140Y527479D01*
X569091Y527435D01*
X569069Y527393D01*
X569040Y527356D01*
X569019Y527294D01*
X568988Y527235D01*
X568980Y527181D01*
X568968Y527144D01*
X568968Y527141D01*
X568969Y527104D01*
X568961Y527050D01*
X568961Y524510D01*
X568972Y524445D01*
X568974Y524379D01*
X568992Y524336D01*
X569000Y524289D01*
X569034Y524232D01*
X569059Y524172D01*
X569090Y524137D01*
X569115Y524096D01*
X569166Y524055D01*
X569210Y524006D01*
X569252Y523984D01*
X569289Y523955D01*
X569351Y523934D01*
X569410Y523903D01*
X569464Y523895D01*
X569501Y523883D01*
X569541Y523884D01*
X569595Y523876D01*
X573405Y523876D01*
X573470Y523887D01*
G37*
G36*
X121350Y87007D02*
X121350Y87007D01*
X121416Y87009D01*
X121459Y87027D01*
X121506Y87035D01*
X121563Y87069D01*
X121623Y87094D01*
X121658Y87125D01*
X121699Y87150D01*
X121741Y87201D01*
X121789Y87245D01*
X121811Y87287D01*
X121840Y87324D01*
X121861Y87386D01*
X121892Y87445D01*
X121900Y87499D01*
X121912Y87536D01*
X121911Y87576D01*
X121919Y87630D01*
X121919Y90170D01*
X121908Y90235D01*
X121906Y90301D01*
X121888Y90344D01*
X121880Y90391D01*
X121846Y90448D01*
X121821Y90508D01*
X121790Y90543D01*
X121765Y90584D01*
X121714Y90626D01*
X121670Y90674D01*
X121628Y90696D01*
X121591Y90725D01*
X121529Y90746D01*
X121470Y90777D01*
X121416Y90785D01*
X121379Y90797D01*
X121339Y90796D01*
X121285Y90804D01*
X117475Y90804D01*
X117410Y90793D01*
X117344Y90791D01*
X117301Y90773D01*
X117254Y90765D01*
X117197Y90731D01*
X117137Y90706D01*
X117102Y90675D01*
X117061Y90650D01*
X117020Y90599D01*
X116971Y90555D01*
X116949Y90513D01*
X116920Y90476D01*
X116899Y90414D01*
X116868Y90355D01*
X116860Y90301D01*
X116848Y90264D01*
X116848Y90261D01*
X116849Y90224D01*
X116841Y90170D01*
X116841Y87630D01*
X116852Y87565D01*
X116854Y87499D01*
X116872Y87456D01*
X116880Y87409D01*
X116914Y87352D01*
X116939Y87292D01*
X116970Y87257D01*
X116995Y87216D01*
X117046Y87175D01*
X117090Y87126D01*
X117132Y87104D01*
X117169Y87075D01*
X117231Y87054D01*
X117290Y87023D01*
X117344Y87015D01*
X117381Y87003D01*
X117421Y87004D01*
X117475Y86996D01*
X121285Y86996D01*
X121350Y87007D01*
G37*
D10*
X25400Y25400D03*
X25400Y406400D03*
D11*
X425450Y425450D03*
X6350Y6350D03*
D12*
X60900Y14050D03*
X116900Y14050D03*
D13*
X73900Y50800D03*
X83900Y50800D03*
X93900Y50800D03*
X103900Y50800D03*
D14*
X139700Y12700D03*
X165100Y12700D03*
X190500Y12700D03*
X215900Y12700D03*
D12*
X116900Y417750D03*
X60900Y417750D03*
D13*
X103900Y381000D03*
X93900Y381000D03*
X83900Y381000D03*
X73900Y381000D03*
D15*
X184150Y84700D03*
X184150Y67700D03*
X199390Y84700D03*
X199390Y67700D03*
X110490Y176140D03*
X110490Y159140D03*
D16*
X108300Y310600D03*
D15*
X139700Y80400D03*
X139700Y97400D03*
X88900Y80400D03*
X88900Y97400D03*
D17*
X103886Y88900D03*
X114300Y88900D03*
X124714Y88900D03*
D18*
X371160Y299520D02*
X378140Y299520D01*
X378140Y292540D01*
X371160Y292540D01*
X371160Y299520D01*
X371160Y297340D02*
X378140Y297340D01*
X378140Y317060D02*
X371160Y317060D01*
X378140Y317060D02*
X378140Y310080D01*
X371160Y310080D01*
X371160Y317060D01*
X371160Y314880D02*
X378140Y314880D01*
D19*
X128200Y213360D03*
X151200Y213360D03*
D15*
X109220Y194700D03*
X109220Y211700D03*
X374650Y334400D03*
X374650Y351400D03*
X214630Y84700D03*
X214630Y67700D03*
X229870Y84700D03*
X229870Y67700D03*
D10*
X406400Y25400D03*
X406400Y406400D03*
D20*
X143900Y266700D03*
X160900Y266700D03*
D15*
X158750Y249800D03*
X158750Y232800D03*
D18*
X352110Y299520D02*
X359090Y299520D01*
X359090Y292540D01*
X352110Y292540D01*
X352110Y299520D01*
X352110Y297340D02*
X359090Y297340D01*
X359090Y317060D02*
X352110Y317060D01*
X359090Y317060D02*
X359090Y310080D01*
X352110Y310080D01*
X352110Y317060D01*
X352110Y314880D02*
X359090Y314880D01*
D15*
X355600Y334400D03*
X355600Y351400D03*
D21*
X113999Y250800D03*
X113999Y241300D03*
X113999Y231800D03*
X140001Y231800D03*
X140001Y250800D03*
D15*
X95250Y232800D03*
X95250Y249800D03*
D20*
X131200Y137160D03*
X148200Y137160D03*
X131200Y152400D03*
X148200Y152400D03*
D18*
X390210Y299520D02*
X397190Y299520D01*
X397190Y292540D01*
X390210Y292540D01*
X390210Y299520D01*
X390210Y297340D02*
X397190Y297340D01*
X397190Y317060D02*
X390210Y317060D01*
X397190Y317060D02*
X397190Y310080D01*
X390210Y310080D01*
X390210Y317060D01*
X390210Y314880D02*
X397190Y314880D01*
D15*
X393700Y334400D03*
X393700Y351400D03*
D18*
X409260Y299520D02*
X416240Y299520D01*
X416240Y292540D01*
X409260Y292540D01*
X409260Y299520D01*
X409260Y297340D02*
X416240Y297340D01*
X416240Y317060D02*
X409260Y317060D01*
X416240Y317060D02*
X416240Y310080D01*
X409260Y310080D01*
X409260Y317060D01*
X409260Y314880D02*
X416240Y314880D01*
D15*
X412750Y334400D03*
X412750Y351400D03*
X350520Y223910D03*
X350520Y240910D03*
X350520Y189620D03*
X350520Y206620D03*
D20*
X131200Y167640D03*
X148200Y167640D03*
D22*
X350520Y155490D03*
X350520Y167090D03*
D23*
X328500Y144400D03*
X328500Y155400D03*
X328500Y166400D03*
X328500Y177400D03*
X328500Y188400D03*
X328500Y199400D03*
X328500Y210400D03*
X328500Y221400D03*
X328500Y232400D03*
X328500Y243400D03*
X328500Y254400D03*
X328500Y265400D03*
X328500Y276400D03*
X328500Y287400D03*
D24*
X320000Y315400D03*
X309000Y315400D03*
X298000Y315400D03*
X287000Y315400D03*
X276000Y315400D03*
X265000Y315400D03*
X254000Y315400D03*
X243000Y315400D03*
X232000Y315400D03*
X221000Y315400D03*
X210000Y315400D03*
X199000Y315400D03*
X188000Y315400D03*
D23*
X179500Y287400D03*
X179500Y276400D03*
X179500Y265400D03*
X179500Y254400D03*
X179500Y243400D03*
X179500Y232400D03*
X179500Y221400D03*
X179500Y210400D03*
X179500Y199400D03*
X179500Y188400D03*
X179500Y177400D03*
X179500Y166400D03*
X179500Y155400D03*
X179500Y144400D03*
D24*
X188000Y116400D03*
X199000Y116400D03*
X210000Y116400D03*
X221000Y116400D03*
X232000Y116400D03*
X243000Y116400D03*
X254000Y116400D03*
X265000Y116400D03*
X276000Y116400D03*
X287000Y116400D03*
X298000Y116400D03*
X309000Y116400D03*
X320000Y116400D03*
D25*
X264500Y205400D03*
X264500Y184400D03*
X264500Y163400D03*
X264500Y142400D03*
X285000Y205400D03*
X285000Y184400D03*
X285000Y163400D03*
X285000Y142400D03*
X305500Y205400D03*
X305500Y184400D03*
X305500Y163400D03*
X305500Y142400D03*
X202500Y205400D03*
X202500Y184400D03*
X202500Y163400D03*
X202500Y142400D03*
X223000Y205400D03*
X223000Y184400D03*
X223000Y163400D03*
X223000Y142400D03*
X243500Y205400D03*
X243500Y184400D03*
X243500Y163400D03*
X243500Y142400D03*
X243500Y226400D03*
X243500Y247400D03*
X243500Y268400D03*
X243500Y289400D03*
X223000Y226400D03*
X223000Y247400D03*
X223000Y268400D03*
X223000Y289400D03*
X202500Y226400D03*
X202500Y247400D03*
X202500Y268400D03*
X202500Y289400D03*
X305500Y226400D03*
X305500Y247400D03*
X305500Y268400D03*
X305500Y289400D03*
X285000Y226400D03*
X285000Y247400D03*
X285000Y268400D03*
X285000Y289400D03*
X264500Y226400D03*
X264500Y247400D03*
X264500Y268400D03*
X264500Y289400D03*
D20*
X23250Y69850D03*
X40250Y69850D03*
X23250Y184150D03*
X40250Y184150D03*
D26*
X60100Y119500D03*
X60100Y124500D03*
D27*
X60100Y94750D03*
X60100Y102500D03*
D26*
X60100Y109500D03*
X60100Y114500D03*
X60100Y134500D03*
X60100Y129500D03*
D27*
X60100Y159250D03*
X60100Y151500D03*
D26*
X60100Y144500D03*
X60100Y139500D03*
D28*
X49050Y155900D03*
X49050Y98100D03*
D14*
X342900Y419100D03*
X317500Y419100D03*
X292100Y419100D03*
X266700Y419100D03*
X241300Y419100D03*
X215900Y419100D03*
X190500Y419100D03*
X165100Y419100D03*
X139700Y419100D03*
X241300Y12700D03*
X266700Y12700D03*
X292100Y12700D03*
X317500Y12700D03*
X342900Y12700D03*
X368300Y12700D03*
X12700Y342900D03*
X12700Y317500D03*
X12700Y292100D03*
X12700Y266700D03*
X12700Y241300D03*
X12700Y215900D03*
D15*
X297180Y84700D03*
X297180Y67700D03*
X266700Y84700D03*
X266700Y67700D03*
X281940Y84700D03*
X281940Y67700D03*
X312420Y84700D03*
X312420Y67700D03*
X204470Y347100D03*
X204470Y364100D03*
X189230Y347100D03*
X189230Y364100D03*
D20*
X148200Y198120D03*
X131200Y198120D03*
X131200Y182880D03*
X148200Y182880D03*
D15*
X264160Y347100D03*
X264160Y364100D03*
X279400Y347100D03*
X279400Y364100D03*
D29*
X105170Y135810D03*
D30*
X104920Y130810D03*
X104920Y125810D03*
X113520Y125810D03*
X113520Y130810D03*
X113520Y135810D03*
D31*
X410210Y219710D03*
X410210Y194310D03*
X410210Y168910D03*
D32*
X330200Y70993D03*
X330200Y81407D03*
D31*
X410210Y125730D03*
X410210Y100330D03*
X410210Y74930D03*
D10*
X487680Y25400D03*
X487680Y406400D03*
D11*
X887730Y425450D03*
X468630Y6350D03*
D12*
X523180Y14050D03*
X579180Y14050D03*
D13*
X536180Y50800D03*
X546180Y50800D03*
X556180Y50800D03*
X566180Y50800D03*
D14*
X601980Y12700D03*
X627380Y12700D03*
X652780Y12700D03*
X678180Y12700D03*
D12*
X579180Y417750D03*
X523180Y417750D03*
D13*
X566180Y381000D03*
X556180Y381000D03*
X546180Y381000D03*
X536180Y381000D03*
D15*
X646430Y84700D03*
X646430Y67700D03*
X661670Y84700D03*
X661670Y67700D03*
X572770Y176140D03*
X572770Y159140D03*
D16*
X570580Y310600D03*
D15*
X601980Y80400D03*
X601980Y97400D03*
X551180Y80400D03*
X551180Y97400D03*
D17*
X566166Y88900D03*
X576580Y88900D03*
X586994Y88900D03*
D18*
X833440Y299520D02*
X840420Y299520D01*
X840420Y292540D01*
X833440Y292540D01*
X833440Y299520D01*
X833440Y297340D02*
X840420Y297340D01*
X840420Y317060D02*
X833440Y317060D01*
X840420Y317060D02*
X840420Y310080D01*
X833440Y310080D01*
X833440Y317060D01*
X833440Y314880D02*
X840420Y314880D01*
D19*
X590480Y213360D03*
X613480Y213360D03*
D15*
X571500Y194700D03*
X571500Y211700D03*
X836930Y334400D03*
X836930Y351400D03*
X676910Y84700D03*
X676910Y67700D03*
X692150Y84700D03*
X692150Y67700D03*
D10*
X868680Y25400D03*
X868680Y406400D03*
D20*
X606180Y266700D03*
X623180Y266700D03*
D15*
X621030Y249800D03*
X621030Y232800D03*
D18*
X814390Y299520D02*
X821370Y299520D01*
X821370Y292540D01*
X814390Y292540D01*
X814390Y299520D01*
X814390Y297340D02*
X821370Y297340D01*
X821370Y317060D02*
X814390Y317060D01*
X821370Y317060D02*
X821370Y310080D01*
X814390Y310080D01*
X814390Y317060D01*
X814390Y314880D02*
X821370Y314880D01*
D15*
X817880Y334400D03*
X817880Y351400D03*
D21*
X576279Y250800D03*
X576279Y241300D03*
X576279Y231800D03*
X602281Y231800D03*
X602281Y250800D03*
D15*
X557530Y232800D03*
X557530Y249800D03*
D20*
X593480Y137160D03*
X610480Y137160D03*
X593480Y152400D03*
X610480Y152400D03*
D18*
X852490Y299520D02*
X859470Y299520D01*
X859470Y292540D01*
X852490Y292540D01*
X852490Y299520D01*
X852490Y297340D02*
X859470Y297340D01*
X859470Y317060D02*
X852490Y317060D01*
X859470Y317060D02*
X859470Y310080D01*
X852490Y310080D01*
X852490Y317060D01*
X852490Y314880D02*
X859470Y314880D01*
D15*
X855980Y334400D03*
X855980Y351400D03*
D18*
X871540Y299520D02*
X878520Y299520D01*
X878520Y292540D01*
X871540Y292540D01*
X871540Y299520D01*
X871540Y297340D02*
X878520Y297340D01*
X878520Y317060D02*
X871540Y317060D01*
X878520Y317060D02*
X878520Y310080D01*
X871540Y310080D01*
X871540Y317060D01*
X871540Y314880D02*
X878520Y314880D01*
D15*
X875030Y334400D03*
X875030Y351400D03*
X812800Y223910D03*
X812800Y240910D03*
X812800Y189620D03*
X812800Y206620D03*
D20*
X593480Y167640D03*
X610480Y167640D03*
D22*
X812800Y155490D03*
X812800Y167090D03*
D23*
X790780Y144400D03*
X790780Y155400D03*
X790780Y166400D03*
X790780Y177400D03*
X790780Y188400D03*
X790780Y199400D03*
X790780Y210400D03*
X790780Y221400D03*
X790780Y232400D03*
X790780Y243400D03*
X790780Y254400D03*
X790780Y265400D03*
X790780Y276400D03*
X790780Y287400D03*
D24*
X782280Y315400D03*
X771280Y315400D03*
X760280Y315400D03*
X749280Y315400D03*
X738280Y315400D03*
X727280Y315400D03*
X716280Y315400D03*
X705280Y315400D03*
X694280Y315400D03*
X683280Y315400D03*
X672280Y315400D03*
X661280Y315400D03*
X650280Y315400D03*
D23*
X641780Y287400D03*
X641780Y276400D03*
X641780Y265400D03*
X641780Y254400D03*
X641780Y243400D03*
X641780Y232400D03*
X641780Y221400D03*
X641780Y210400D03*
X641780Y199400D03*
X641780Y188400D03*
X641780Y177400D03*
X641780Y166400D03*
X641780Y155400D03*
X641780Y144400D03*
D24*
X650280Y116400D03*
X661280Y116400D03*
X672280Y116400D03*
X683280Y116400D03*
X694280Y116400D03*
X705280Y116400D03*
X716280Y116400D03*
X727280Y116400D03*
X738280Y116400D03*
X749280Y116400D03*
X760280Y116400D03*
X771280Y116400D03*
X782280Y116400D03*
D25*
X726780Y205400D03*
X726780Y184400D03*
X726780Y163400D03*
X726780Y142400D03*
X747280Y205400D03*
X747280Y184400D03*
X747280Y163400D03*
X747280Y142400D03*
X767780Y205400D03*
X767780Y184400D03*
X767780Y163400D03*
X767780Y142400D03*
X664780Y205400D03*
X664780Y184400D03*
X664780Y163400D03*
X664780Y142400D03*
X685280Y205400D03*
X685280Y184400D03*
X685280Y163400D03*
X685280Y142400D03*
X705780Y205400D03*
X705780Y184400D03*
X705780Y163400D03*
X705780Y142400D03*
X705780Y226400D03*
X705780Y247400D03*
X705780Y268400D03*
X705780Y289400D03*
X685280Y226400D03*
X685280Y247400D03*
X685280Y268400D03*
X685280Y289400D03*
X664780Y226400D03*
X664780Y247400D03*
X664780Y268400D03*
X664780Y289400D03*
X767780Y226400D03*
X767780Y247400D03*
X767780Y268400D03*
X767780Y289400D03*
X747280Y226400D03*
X747280Y247400D03*
X747280Y268400D03*
X747280Y289400D03*
X726780Y226400D03*
X726780Y247400D03*
X726780Y268400D03*
X726780Y289400D03*
D20*
X485530Y69850D03*
X502530Y69850D03*
X485530Y184150D03*
X502530Y184150D03*
D26*
X522380Y119500D03*
X522380Y124500D03*
D27*
X522380Y94750D03*
X522380Y102500D03*
D26*
X522380Y109500D03*
X522380Y114500D03*
X522380Y134500D03*
X522380Y129500D03*
D27*
X522380Y159250D03*
X522380Y151500D03*
D26*
X522380Y144500D03*
X522380Y139500D03*
D28*
X511330Y155900D03*
X511330Y98100D03*
D14*
X805180Y419100D03*
X779780Y419100D03*
X754380Y419100D03*
X728980Y419100D03*
X703580Y419100D03*
X678180Y419100D03*
X652780Y419100D03*
X627380Y419100D03*
X601980Y419100D03*
X703580Y12700D03*
X728980Y12700D03*
X754380Y12700D03*
X779780Y12700D03*
X805180Y12700D03*
X830580Y12700D03*
X474980Y342900D03*
X474980Y317500D03*
X474980Y292100D03*
X474980Y266700D03*
X474980Y241300D03*
X474980Y215900D03*
D15*
X759460Y84700D03*
X759460Y67700D03*
X728980Y84700D03*
X728980Y67700D03*
X744220Y84700D03*
X744220Y67700D03*
X774700Y84700D03*
X774700Y67700D03*
X666750Y347100D03*
X666750Y364100D03*
X651510Y347100D03*
X651510Y364100D03*
D20*
X610480Y198120D03*
X593480Y198120D03*
X593480Y182880D03*
X610480Y182880D03*
D15*
X726440Y347100D03*
X726440Y364100D03*
X741680Y347100D03*
X741680Y364100D03*
D29*
X567450Y135810D03*
D30*
X567200Y130810D03*
X567200Y125810D03*
X575800Y125810D03*
X575800Y130810D03*
X575800Y135810D03*
D31*
X872490Y219710D03*
X872490Y194310D03*
X872490Y168910D03*
D32*
X792480Y70993D03*
X792480Y81407D03*
D31*
X872490Y125730D03*
X872490Y100330D03*
X872490Y74930D03*
D10*
X25400Y462280D03*
X25400Y843280D03*
D11*
X425450Y862330D03*
X6350Y443230D03*
D12*
X60900Y450930D03*
X116900Y450930D03*
D13*
X73900Y487680D03*
X83900Y487680D03*
X93900Y487680D03*
X103900Y487680D03*
D14*
X139700Y449580D03*
X165100Y449580D03*
X190500Y449580D03*
X215900Y449580D03*
D12*
X116900Y854630D03*
X60900Y854630D03*
D13*
X103900Y817880D03*
X93900Y817880D03*
X83900Y817880D03*
X73900Y817880D03*
D15*
X184150Y521580D03*
X184150Y504580D03*
X199390Y521580D03*
X199390Y504580D03*
X110490Y613020D03*
X110490Y596020D03*
D16*
X108300Y747480D03*
D15*
X139700Y517280D03*
X139700Y534280D03*
X88900Y517280D03*
X88900Y534280D03*
D17*
X103886Y525780D03*
X114300Y525780D03*
X124714Y525780D03*
D18*
X371160Y736400D02*
X378140Y736400D01*
X378140Y729420D01*
X371160Y729420D01*
X371160Y736400D01*
X371160Y734220D02*
X378140Y734220D01*
X378140Y753940D02*
X371160Y753940D01*
X378140Y753940D02*
X378140Y746960D01*
X371160Y746960D01*
X371160Y753940D01*
X371160Y751760D02*
X378140Y751760D01*
D19*
X128200Y650240D03*
X151200Y650240D03*
D15*
X109220Y631580D03*
X109220Y648580D03*
X374650Y771280D03*
X374650Y788280D03*
X214630Y521580D03*
X214630Y504580D03*
X229870Y521580D03*
X229870Y504580D03*
D10*
X406400Y462280D03*
X406400Y843280D03*
D20*
X143900Y703580D03*
X160900Y703580D03*
D15*
X158750Y686680D03*
X158750Y669680D03*
D18*
X352110Y736400D02*
X359090Y736400D01*
X359090Y729420D01*
X352110Y729420D01*
X352110Y736400D01*
X352110Y734220D02*
X359090Y734220D01*
X359090Y753940D02*
X352110Y753940D01*
X359090Y753940D02*
X359090Y746960D01*
X352110Y746960D01*
X352110Y753940D01*
X352110Y751760D02*
X359090Y751760D01*
D15*
X355600Y771280D03*
X355600Y788280D03*
D21*
X113999Y687680D03*
X113999Y678180D03*
X113999Y668680D03*
X140001Y668680D03*
X140001Y687680D03*
D15*
X95250Y669680D03*
X95250Y686680D03*
D20*
X131200Y574040D03*
X148200Y574040D03*
X131200Y589280D03*
X148200Y589280D03*
D18*
X390210Y736400D02*
X397190Y736400D01*
X397190Y729420D01*
X390210Y729420D01*
X390210Y736400D01*
X390210Y734220D02*
X397190Y734220D01*
X397190Y753940D02*
X390210Y753940D01*
X397190Y753940D02*
X397190Y746960D01*
X390210Y746960D01*
X390210Y753940D01*
X390210Y751760D02*
X397190Y751760D01*
D15*
X393700Y771280D03*
X393700Y788280D03*
D18*
X409260Y736400D02*
X416240Y736400D01*
X416240Y729420D01*
X409260Y729420D01*
X409260Y736400D01*
X409260Y734220D02*
X416240Y734220D01*
X416240Y753940D02*
X409260Y753940D01*
X416240Y753940D02*
X416240Y746960D01*
X409260Y746960D01*
X409260Y753940D01*
X409260Y751760D02*
X416240Y751760D01*
D15*
X412750Y771280D03*
X412750Y788280D03*
X350520Y660790D03*
X350520Y677790D03*
X350520Y626500D03*
X350520Y643500D03*
D20*
X131200Y604520D03*
X148200Y604520D03*
D22*
X350520Y592370D03*
X350520Y603970D03*
D23*
X328500Y581280D03*
X328500Y592280D03*
X328500Y603280D03*
X328500Y614280D03*
X328500Y625280D03*
X328500Y636280D03*
X328500Y647280D03*
X328500Y658280D03*
X328500Y669280D03*
X328500Y680280D03*
X328500Y691280D03*
X328500Y702280D03*
X328500Y713280D03*
X328500Y724280D03*
D24*
X320000Y752280D03*
X309000Y752280D03*
X298000Y752280D03*
X287000Y752280D03*
X276000Y752280D03*
X265000Y752280D03*
X254000Y752280D03*
X243000Y752280D03*
X232000Y752280D03*
X221000Y752280D03*
X210000Y752280D03*
X199000Y752280D03*
X188000Y752280D03*
D23*
X179500Y724280D03*
X179500Y713280D03*
X179500Y702280D03*
X179500Y691280D03*
X179500Y680280D03*
X179500Y669280D03*
X179500Y658280D03*
X179500Y647280D03*
X179500Y636280D03*
X179500Y625280D03*
X179500Y614280D03*
X179500Y603280D03*
X179500Y592280D03*
X179500Y581280D03*
D24*
X188000Y553280D03*
X199000Y553280D03*
X210000Y553280D03*
X221000Y553280D03*
X232000Y553280D03*
X243000Y553280D03*
X254000Y553280D03*
X265000Y553280D03*
X276000Y553280D03*
X287000Y553280D03*
X298000Y553280D03*
X309000Y553280D03*
X320000Y553280D03*
D25*
X264500Y642280D03*
X264500Y621280D03*
X264500Y600280D03*
X264500Y579280D03*
X285000Y642280D03*
X285000Y621280D03*
X285000Y600280D03*
X285000Y579280D03*
X305500Y642280D03*
X305500Y621280D03*
X305500Y600280D03*
X305500Y579280D03*
X202500Y642280D03*
X202500Y621280D03*
X202500Y600280D03*
X202500Y579280D03*
X223000Y642280D03*
X223000Y621280D03*
X223000Y600280D03*
X223000Y579280D03*
X243500Y642280D03*
X243500Y621280D03*
X243500Y600280D03*
X243500Y579280D03*
X243500Y663280D03*
X243500Y684280D03*
X243500Y705280D03*
X243500Y726280D03*
X223000Y663280D03*
X223000Y684280D03*
X223000Y705280D03*
X223000Y726280D03*
X202500Y663280D03*
X202500Y684280D03*
X202500Y705280D03*
X202500Y726280D03*
X305500Y663280D03*
X305500Y684280D03*
X305500Y705280D03*
X305500Y726280D03*
X285000Y663280D03*
X285000Y684280D03*
X285000Y705280D03*
X285000Y726280D03*
X264500Y663280D03*
X264500Y684280D03*
X264500Y705280D03*
X264500Y726280D03*
D20*
X23250Y506730D03*
X40250Y506730D03*
X23250Y621030D03*
X40250Y621030D03*
D26*
X60100Y556380D03*
X60100Y561380D03*
D27*
X60100Y531630D03*
X60100Y539380D03*
D26*
X60100Y546380D03*
X60100Y551380D03*
X60100Y571380D03*
X60100Y566380D03*
D27*
X60100Y596130D03*
X60100Y588380D03*
D26*
X60100Y581380D03*
X60100Y576380D03*
D28*
X49050Y592780D03*
X49050Y534980D03*
D14*
X342900Y855980D03*
X317500Y855980D03*
X292100Y855980D03*
X266700Y855980D03*
X241300Y855980D03*
X215900Y855980D03*
X190500Y855980D03*
X165100Y855980D03*
X139700Y855980D03*
X241300Y449580D03*
X266700Y449580D03*
X292100Y449580D03*
X317500Y449580D03*
X342900Y449580D03*
X368300Y449580D03*
X12700Y779780D03*
X12700Y754380D03*
X12700Y728980D03*
X12700Y703580D03*
X12700Y678180D03*
X12700Y652780D03*
D15*
X297180Y521580D03*
X297180Y504580D03*
X266700Y521580D03*
X266700Y504580D03*
X281940Y521580D03*
X281940Y504580D03*
X312420Y521580D03*
X312420Y504580D03*
X204470Y783980D03*
X204470Y800980D03*
X189230Y783980D03*
X189230Y800980D03*
D20*
X148200Y635000D03*
X131200Y635000D03*
X131200Y619760D03*
X148200Y619760D03*
D15*
X264160Y783980D03*
X264160Y800980D03*
X279400Y783980D03*
X279400Y800980D03*
D29*
X105170Y572690D03*
D30*
X104920Y567690D03*
X104920Y562690D03*
X113520Y562690D03*
X113520Y567690D03*
X113520Y572690D03*
D31*
X410210Y656590D03*
X410210Y631190D03*
X410210Y605790D03*
D32*
X330200Y507873D03*
X330200Y518287D03*
D31*
X410210Y562610D03*
X410210Y537210D03*
X410210Y511810D03*
D10*
X487680Y462280D03*
X487680Y843280D03*
D11*
X887730Y862330D03*
X468630Y443230D03*
D12*
X523180Y450930D03*
X579180Y450930D03*
D13*
X536180Y487680D03*
X546180Y487680D03*
X556180Y487680D03*
X566180Y487680D03*
D14*
X601980Y449580D03*
X627380Y449580D03*
X652780Y449580D03*
X678180Y449580D03*
D12*
X579180Y854630D03*
X523180Y854630D03*
D13*
X566180Y817880D03*
X556180Y817880D03*
X546180Y817880D03*
X536180Y817880D03*
D15*
X646430Y521580D03*
X646430Y504580D03*
X661670Y521580D03*
X661670Y504580D03*
X572770Y613020D03*
X572770Y596020D03*
D16*
X570580Y747480D03*
D15*
X601980Y517280D03*
X601980Y534280D03*
X551180Y517280D03*
X551180Y534280D03*
D17*
X566166Y525780D03*
X576580Y525780D03*
X586994Y525780D03*
D18*
X833440Y736400D02*
X840420Y736400D01*
X840420Y729420D01*
X833440Y729420D01*
X833440Y736400D01*
X833440Y734220D02*
X840420Y734220D01*
X840420Y753940D02*
X833440Y753940D01*
X840420Y753940D02*
X840420Y746960D01*
X833440Y746960D01*
X833440Y753940D01*
X833440Y751760D02*
X840420Y751760D01*
D19*
X590480Y650240D03*
X613480Y650240D03*
D15*
X571500Y631580D03*
X571500Y648580D03*
X836930Y771280D03*
X836930Y788280D03*
X676910Y521580D03*
X676910Y504580D03*
X692150Y521580D03*
X692150Y504580D03*
D10*
X868680Y462280D03*
X868680Y843280D03*
D20*
X606180Y703580D03*
X623180Y703580D03*
D15*
X621030Y686680D03*
X621030Y669680D03*
D18*
X814390Y736400D02*
X821370Y736400D01*
X821370Y729420D01*
X814390Y729420D01*
X814390Y736400D01*
X814390Y734220D02*
X821370Y734220D01*
X821370Y753940D02*
X814390Y753940D01*
X821370Y753940D02*
X821370Y746960D01*
X814390Y746960D01*
X814390Y753940D01*
X814390Y751760D02*
X821370Y751760D01*
D15*
X817880Y771280D03*
X817880Y788280D03*
D21*
X576279Y687680D03*
X576279Y678180D03*
X576279Y668680D03*
X602281Y668680D03*
X602281Y687680D03*
D15*
X557530Y669680D03*
X557530Y686680D03*
D20*
X593480Y574040D03*
X610480Y574040D03*
X593480Y589280D03*
X610480Y589280D03*
D18*
X852490Y736400D02*
X859470Y736400D01*
X859470Y729420D01*
X852490Y729420D01*
X852490Y736400D01*
X852490Y734220D02*
X859470Y734220D01*
X859470Y753940D02*
X852490Y753940D01*
X859470Y753940D02*
X859470Y746960D01*
X852490Y746960D01*
X852490Y753940D01*
X852490Y751760D02*
X859470Y751760D01*
D15*
X855980Y771280D03*
X855980Y788280D03*
D18*
X871540Y736400D02*
X878520Y736400D01*
X878520Y729420D01*
X871540Y729420D01*
X871540Y736400D01*
X871540Y734220D02*
X878520Y734220D01*
X878520Y753940D02*
X871540Y753940D01*
X878520Y753940D02*
X878520Y746960D01*
X871540Y746960D01*
X871540Y753940D01*
X871540Y751760D02*
X878520Y751760D01*
D15*
X875030Y771280D03*
X875030Y788280D03*
X812800Y660790D03*
X812800Y677790D03*
X812800Y626500D03*
X812800Y643500D03*
D20*
X593480Y604520D03*
X610480Y604520D03*
D22*
X812800Y592370D03*
X812800Y603970D03*
D23*
X790780Y581280D03*
X790780Y592280D03*
X790780Y603280D03*
X790780Y614280D03*
X790780Y625280D03*
X790780Y636280D03*
X790780Y647280D03*
X790780Y658280D03*
X790780Y669280D03*
X790780Y680280D03*
X790780Y691280D03*
X790780Y702280D03*
X790780Y713280D03*
X790780Y724280D03*
D24*
X782280Y752280D03*
X771280Y752280D03*
X760280Y752280D03*
X749280Y752280D03*
X738280Y752280D03*
X727280Y752280D03*
X716280Y752280D03*
X705280Y752280D03*
X694280Y752280D03*
X683280Y752280D03*
X672280Y752280D03*
X661280Y752280D03*
X650280Y752280D03*
D23*
X641780Y724280D03*
X641780Y713280D03*
X641780Y702280D03*
X641780Y691280D03*
X641780Y680280D03*
X641780Y669280D03*
X641780Y658280D03*
X641780Y647280D03*
X641780Y636280D03*
X641780Y625280D03*
X641780Y614280D03*
X641780Y603280D03*
X641780Y592280D03*
X641780Y581280D03*
D24*
X650280Y553280D03*
X661280Y553280D03*
X672280Y553280D03*
X683280Y553280D03*
X694280Y553280D03*
X705280Y553280D03*
X716280Y553280D03*
X727280Y553280D03*
X738280Y553280D03*
X749280Y553280D03*
X760280Y553280D03*
X771280Y553280D03*
X782280Y553280D03*
D25*
X726780Y642280D03*
X726780Y621280D03*
X726780Y600280D03*
X726780Y579280D03*
X747280Y642280D03*
X747280Y621280D03*
X747280Y600280D03*
X747280Y579280D03*
X767780Y642280D03*
X767780Y621280D03*
X767780Y600280D03*
X767780Y579280D03*
X664780Y642280D03*
X664780Y621280D03*
X664780Y600280D03*
X664780Y579280D03*
X685280Y642280D03*
X685280Y621280D03*
X685280Y600280D03*
X685280Y579280D03*
X705780Y642280D03*
X705780Y621280D03*
X705780Y600280D03*
X705780Y579280D03*
X705780Y663280D03*
X705780Y684280D03*
X705780Y705280D03*
X705780Y726280D03*
X685280Y663280D03*
X685280Y684280D03*
X685280Y705280D03*
X685280Y726280D03*
X664780Y663280D03*
X664780Y684280D03*
X664780Y705280D03*
X664780Y726280D03*
X767780Y663280D03*
X767780Y684280D03*
X767780Y705280D03*
X767780Y726280D03*
X747280Y663280D03*
X747280Y684280D03*
X747280Y705280D03*
X747280Y726280D03*
X726780Y663280D03*
X726780Y684280D03*
X726780Y705280D03*
X726780Y726280D03*
D20*
X485530Y506730D03*
X502530Y506730D03*
X485530Y621030D03*
X502530Y621030D03*
D26*
X522380Y556380D03*
X522380Y561380D03*
D27*
X522380Y531630D03*
X522380Y539380D03*
D26*
X522380Y546380D03*
X522380Y551380D03*
X522380Y571380D03*
X522380Y566380D03*
D27*
X522380Y596130D03*
X522380Y588380D03*
D26*
X522380Y581380D03*
X522380Y576380D03*
D28*
X511330Y592780D03*
X511330Y534980D03*
D14*
X805180Y855980D03*
X779780Y855980D03*
X754380Y855980D03*
X728980Y855980D03*
X703580Y855980D03*
X678180Y855980D03*
X652780Y855980D03*
X627380Y855980D03*
X601980Y855980D03*
X703580Y449580D03*
X728980Y449580D03*
X754380Y449580D03*
X779780Y449580D03*
X805180Y449580D03*
X830580Y449580D03*
X474980Y779780D03*
X474980Y754380D03*
X474980Y728980D03*
X474980Y703580D03*
X474980Y678180D03*
X474980Y652780D03*
D15*
X759460Y521580D03*
X759460Y504580D03*
X728980Y521580D03*
X728980Y504580D03*
X744220Y521580D03*
X744220Y504580D03*
X774700Y521580D03*
X774700Y504580D03*
X666750Y783980D03*
X666750Y800980D03*
X651510Y783980D03*
X651510Y800980D03*
D20*
X610480Y635000D03*
X593480Y635000D03*
X593480Y619760D03*
X610480Y619760D03*
D15*
X726440Y783980D03*
X726440Y800980D03*
X741680Y783980D03*
X741680Y800980D03*
D29*
X567450Y572690D03*
D30*
X567200Y567690D03*
X567200Y562690D03*
X575800Y562690D03*
X575800Y567690D03*
X575800Y572690D03*
D31*
X872490Y656590D03*
X872490Y631190D03*
X872490Y605790D03*
D32*
X792480Y507873D03*
X792480Y518287D03*
D31*
X872490Y562610D03*
X872490Y537210D03*
X872490Y511810D03*
D10*
X25400Y899160D03*
X25400Y1280160D03*
D11*
X425450Y1299210D03*
X6350Y880110D03*
D12*
X60900Y887810D03*
X116900Y887810D03*
D13*
X73900Y924560D03*
X83900Y924560D03*
X93900Y924560D03*
X103900Y924560D03*
D14*
X139700Y886460D03*
X165100Y886460D03*
X190500Y886460D03*
X215900Y886460D03*
D12*
X116900Y1291510D03*
X60900Y1291510D03*
D13*
X103900Y1254760D03*
X93900Y1254760D03*
X83900Y1254760D03*
X73900Y1254760D03*
D15*
X184150Y958460D03*
X184150Y941460D03*
X199390Y958460D03*
X199390Y941460D03*
X110490Y1049900D03*
X110490Y1032900D03*
D16*
X108300Y1184360D03*
D15*
X139700Y954160D03*
X139700Y971160D03*
X88900Y954160D03*
X88900Y971160D03*
D17*
X103886Y962660D03*
X114300Y962660D03*
X124714Y962660D03*
D18*
X371160Y1173280D02*
X378140Y1173280D01*
X378140Y1166300D01*
X371160Y1166300D01*
X371160Y1173280D01*
X371160Y1171100D02*
X378140Y1171100D01*
X378140Y1190820D02*
X371160Y1190820D01*
X378140Y1190820D02*
X378140Y1183840D01*
X371160Y1183840D01*
X371160Y1190820D01*
X371160Y1188640D02*
X378140Y1188640D01*
D19*
X128200Y1087120D03*
X151200Y1087120D03*
D15*
X109220Y1068460D03*
X109220Y1085460D03*
X374650Y1208160D03*
X374650Y1225160D03*
X214630Y958460D03*
X214630Y941460D03*
X229870Y958460D03*
X229870Y941460D03*
D10*
X406400Y899160D03*
X406400Y1280160D03*
D20*
X143900Y1140460D03*
X160900Y1140460D03*
D15*
X158750Y1123560D03*
X158750Y1106560D03*
D18*
X352110Y1173280D02*
X359090Y1173280D01*
X359090Y1166300D01*
X352110Y1166300D01*
X352110Y1173280D01*
X352110Y1171100D02*
X359090Y1171100D01*
X359090Y1190820D02*
X352110Y1190820D01*
X359090Y1190820D02*
X359090Y1183840D01*
X352110Y1183840D01*
X352110Y1190820D01*
X352110Y1188640D02*
X359090Y1188640D01*
D15*
X355600Y1208160D03*
X355600Y1225160D03*
D21*
X113999Y1124560D03*
X113999Y1115060D03*
X113999Y1105560D03*
X140001Y1105560D03*
X140001Y1124560D03*
D15*
X95250Y1106560D03*
X95250Y1123560D03*
D20*
X131200Y1010920D03*
X148200Y1010920D03*
X131200Y1026160D03*
X148200Y1026160D03*
D18*
X390210Y1173280D02*
X397190Y1173280D01*
X397190Y1166300D01*
X390210Y1166300D01*
X390210Y1173280D01*
X390210Y1171100D02*
X397190Y1171100D01*
X397190Y1190820D02*
X390210Y1190820D01*
X397190Y1190820D02*
X397190Y1183840D01*
X390210Y1183840D01*
X390210Y1190820D01*
X390210Y1188640D02*
X397190Y1188640D01*
D15*
X393700Y1208160D03*
X393700Y1225160D03*
D18*
X409260Y1173280D02*
X416240Y1173280D01*
X416240Y1166300D01*
X409260Y1166300D01*
X409260Y1173280D01*
X409260Y1171100D02*
X416240Y1171100D01*
X416240Y1190820D02*
X409260Y1190820D01*
X416240Y1190820D02*
X416240Y1183840D01*
X409260Y1183840D01*
X409260Y1190820D01*
X409260Y1188640D02*
X416240Y1188640D01*
D15*
X412750Y1208160D03*
X412750Y1225160D03*
X350520Y1097670D03*
X350520Y1114670D03*
X350520Y1063380D03*
X350520Y1080380D03*
D20*
X131200Y1041400D03*
X148200Y1041400D03*
D22*
X350520Y1029250D03*
X350520Y1040850D03*
D23*
X328500Y1018160D03*
X328500Y1029160D03*
X328500Y1040160D03*
X328500Y1051160D03*
X328500Y1062160D03*
X328500Y1073160D03*
X328500Y1084160D03*
X328500Y1095160D03*
X328500Y1106160D03*
X328500Y1117160D03*
X328500Y1128160D03*
X328500Y1139160D03*
X328500Y1150160D03*
X328500Y1161160D03*
D24*
X320000Y1189160D03*
X309000Y1189160D03*
X298000Y1189160D03*
X287000Y1189160D03*
X276000Y1189160D03*
X265000Y1189160D03*
X254000Y1189160D03*
X243000Y1189160D03*
X232000Y1189160D03*
X221000Y1189160D03*
X210000Y1189160D03*
X199000Y1189160D03*
X188000Y1189160D03*
D23*
X179500Y1161160D03*
X179500Y1150160D03*
X179500Y1139160D03*
X179500Y1128160D03*
X179500Y1117160D03*
X179500Y1106160D03*
X179500Y1095160D03*
X179500Y1084160D03*
X179500Y1073160D03*
X179500Y1062160D03*
X179500Y1051160D03*
X179500Y1040160D03*
X179500Y1029160D03*
X179500Y1018160D03*
D24*
X188000Y990160D03*
X199000Y990160D03*
X210000Y990160D03*
X221000Y990160D03*
X232000Y990160D03*
X243000Y990160D03*
X254000Y990160D03*
X265000Y990160D03*
X276000Y990160D03*
X287000Y990160D03*
X298000Y990160D03*
X309000Y990160D03*
X320000Y990160D03*
D25*
X264500Y1079160D03*
X264500Y1058160D03*
X264500Y1037160D03*
X264500Y1016160D03*
X285000Y1079160D03*
X285000Y1058160D03*
X285000Y1037160D03*
X285000Y1016160D03*
X305500Y1079160D03*
X305500Y1058160D03*
X305500Y1037160D03*
X305500Y1016160D03*
X202500Y1079160D03*
X202500Y1058160D03*
X202500Y1037160D03*
X202500Y1016160D03*
X223000Y1079160D03*
X223000Y1058160D03*
X223000Y1037160D03*
X223000Y1016160D03*
X243500Y1079160D03*
X243500Y1058160D03*
X243500Y1037160D03*
X243500Y1016160D03*
X243500Y1100160D03*
X243500Y1121160D03*
X243500Y1142160D03*
X243500Y1163160D03*
X223000Y1100160D03*
X223000Y1121160D03*
X223000Y1142160D03*
X223000Y1163160D03*
X202500Y1100160D03*
X202500Y1121160D03*
X202500Y1142160D03*
X202500Y1163160D03*
X305500Y1100160D03*
X305500Y1121160D03*
X305500Y1142160D03*
X305500Y1163160D03*
X285000Y1100160D03*
X285000Y1121160D03*
X285000Y1142160D03*
X285000Y1163160D03*
X264500Y1100160D03*
X264500Y1121160D03*
X264500Y1142160D03*
X264500Y1163160D03*
D20*
X23250Y943610D03*
X40250Y943610D03*
X23250Y1057910D03*
X40250Y1057910D03*
D26*
X60100Y993260D03*
X60100Y998260D03*
D27*
X60100Y968510D03*
X60100Y976260D03*
D26*
X60100Y983260D03*
X60100Y988260D03*
X60100Y1008260D03*
X60100Y1003260D03*
D27*
X60100Y1033010D03*
X60100Y1025260D03*
D26*
X60100Y1018260D03*
X60100Y1013260D03*
D28*
X49050Y1029660D03*
X49050Y971860D03*
D14*
X342900Y1292860D03*
X317500Y1292860D03*
X292100Y1292860D03*
X266700Y1292860D03*
X241300Y1292860D03*
X215900Y1292860D03*
X190500Y1292860D03*
X165100Y1292860D03*
X139700Y1292860D03*
X241300Y886460D03*
X266700Y886460D03*
X292100Y886460D03*
X317500Y886460D03*
X342900Y886460D03*
X368300Y886460D03*
X12700Y1216660D03*
X12700Y1191260D03*
X12700Y1165860D03*
X12700Y1140460D03*
X12700Y1115060D03*
X12700Y1089660D03*
D15*
X297180Y958460D03*
X297180Y941460D03*
X266700Y958460D03*
X266700Y941460D03*
X281940Y958460D03*
X281940Y941460D03*
X312420Y958460D03*
X312420Y941460D03*
X204470Y1220860D03*
X204470Y1237860D03*
X189230Y1220860D03*
X189230Y1237860D03*
D20*
X148200Y1071880D03*
X131200Y1071880D03*
X131200Y1056640D03*
X148200Y1056640D03*
D15*
X264160Y1220860D03*
X264160Y1237860D03*
X279400Y1220860D03*
X279400Y1237860D03*
D29*
X105170Y1009570D03*
D30*
X104920Y1004570D03*
X104920Y999570D03*
X113520Y999570D03*
X113520Y1004570D03*
X113520Y1009570D03*
D31*
X410210Y1093470D03*
X410210Y1068070D03*
X410210Y1042670D03*
D32*
X330200Y944753D03*
X330200Y955167D03*
D31*
X410210Y999490D03*
X410210Y974090D03*
X410210Y948690D03*
D10*
X487680Y899160D03*
X487680Y1280160D03*
D11*
X887730Y1299210D03*
X468630Y880110D03*
D12*
X523180Y887810D03*
X579180Y887810D03*
D13*
X536180Y924560D03*
X546180Y924560D03*
X556180Y924560D03*
X566180Y924560D03*
D14*
X601980Y886460D03*
X627380Y886460D03*
X652780Y886460D03*
X678180Y886460D03*
D12*
X579180Y1291510D03*
X523180Y1291510D03*
D13*
X566180Y1254760D03*
X556180Y1254760D03*
X546180Y1254760D03*
X536180Y1254760D03*
D15*
X646430Y958460D03*
X646430Y941460D03*
X661670Y958460D03*
X661670Y941460D03*
X572770Y1049900D03*
X572770Y1032900D03*
D16*
X570580Y1184360D03*
D15*
X601980Y954160D03*
X601980Y971160D03*
X551180Y954160D03*
X551180Y971160D03*
D17*
X566166Y962660D03*
X576580Y962660D03*
X586994Y962660D03*
D18*
X833440Y1173280D02*
X840420Y1173280D01*
X840420Y1166300D01*
X833440Y1166300D01*
X833440Y1173280D01*
X833440Y1171100D02*
X840420Y1171100D01*
X840420Y1190820D02*
X833440Y1190820D01*
X840420Y1190820D02*
X840420Y1183840D01*
X833440Y1183840D01*
X833440Y1190820D01*
X833440Y1188640D02*
X840420Y1188640D01*
D19*
X590480Y1087120D03*
X613480Y1087120D03*
D15*
X571500Y1068460D03*
X571500Y1085460D03*
X836930Y1208160D03*
X836930Y1225160D03*
X676910Y958460D03*
X676910Y941460D03*
X692150Y958460D03*
X692150Y941460D03*
D10*
X868680Y899160D03*
X868680Y1280160D03*
D20*
X606180Y1140460D03*
X623180Y1140460D03*
D15*
X621030Y1123560D03*
X621030Y1106560D03*
D18*
X814390Y1173280D02*
X821370Y1173280D01*
X821370Y1166300D01*
X814390Y1166300D01*
X814390Y1173280D01*
X814390Y1171100D02*
X821370Y1171100D01*
X821370Y1190820D02*
X814390Y1190820D01*
X821370Y1190820D02*
X821370Y1183840D01*
X814390Y1183840D01*
X814390Y1190820D01*
X814390Y1188640D02*
X821370Y1188640D01*
D15*
X817880Y1208160D03*
X817880Y1225160D03*
D21*
X576279Y1124560D03*
X576279Y1115060D03*
X576279Y1105560D03*
X602281Y1105560D03*
X602281Y1124560D03*
D15*
X557530Y1106560D03*
X557530Y1123560D03*
D20*
X593480Y1010920D03*
X610480Y1010920D03*
X593480Y1026160D03*
X610480Y1026160D03*
D18*
X852490Y1173280D02*
X859470Y1173280D01*
X859470Y1166300D01*
X852490Y1166300D01*
X852490Y1173280D01*
X852490Y1171100D02*
X859470Y1171100D01*
X859470Y1190820D02*
X852490Y1190820D01*
X859470Y1190820D02*
X859470Y1183840D01*
X852490Y1183840D01*
X852490Y1190820D01*
X852490Y1188640D02*
X859470Y1188640D01*
D15*
X855980Y1208160D03*
X855980Y1225160D03*
D18*
X871540Y1173280D02*
X878520Y1173280D01*
X878520Y1166300D01*
X871540Y1166300D01*
X871540Y1173280D01*
X871540Y1171100D02*
X878520Y1171100D01*
X878520Y1190820D02*
X871540Y1190820D01*
X878520Y1190820D02*
X878520Y1183840D01*
X871540Y1183840D01*
X871540Y1190820D01*
X871540Y1188640D02*
X878520Y1188640D01*
D15*
X875030Y1208160D03*
X875030Y1225160D03*
X812800Y1097670D03*
X812800Y1114670D03*
X812800Y1063380D03*
X812800Y1080380D03*
D20*
X593480Y1041400D03*
X610480Y1041400D03*
D22*
X812800Y1029250D03*
X812800Y1040850D03*
D23*
X790780Y1018160D03*
X790780Y1029160D03*
X790780Y1040160D03*
X790780Y1051160D03*
X790780Y1062160D03*
X790780Y1073160D03*
X790780Y1084160D03*
X790780Y1095160D03*
X790780Y1106160D03*
X790780Y1117160D03*
X790780Y1128160D03*
X790780Y1139160D03*
X790780Y1150160D03*
X790780Y1161160D03*
D24*
X782280Y1189160D03*
X771280Y1189160D03*
X760280Y1189160D03*
X749280Y1189160D03*
X738280Y1189160D03*
X727280Y1189160D03*
X716280Y1189160D03*
X705280Y1189160D03*
X694280Y1189160D03*
X683280Y1189160D03*
X672280Y1189160D03*
X661280Y1189160D03*
X650280Y1189160D03*
D23*
X641780Y1161160D03*
X641780Y1150160D03*
X641780Y1139160D03*
X641780Y1128160D03*
X641780Y1117160D03*
X641780Y1106160D03*
X641780Y1095160D03*
X641780Y1084160D03*
X641780Y1073160D03*
X641780Y1062160D03*
X641780Y1051160D03*
X641780Y1040160D03*
X641780Y1029160D03*
X641780Y1018160D03*
D24*
X650280Y990160D03*
X661280Y990160D03*
X672280Y990160D03*
X683280Y990160D03*
X694280Y990160D03*
X705280Y990160D03*
X716280Y990160D03*
X727280Y990160D03*
X738280Y990160D03*
X749280Y990160D03*
X760280Y990160D03*
X771280Y990160D03*
X782280Y990160D03*
D25*
X726780Y1079160D03*
X726780Y1058160D03*
X726780Y1037160D03*
X726780Y1016160D03*
X747280Y1079160D03*
X747280Y1058160D03*
X747280Y1037160D03*
X747280Y1016160D03*
X767780Y1079160D03*
X767780Y1058160D03*
X767780Y1037160D03*
X767780Y1016160D03*
X664780Y1079160D03*
X664780Y1058160D03*
X664780Y1037160D03*
X664780Y1016160D03*
X685280Y1079160D03*
X685280Y1058160D03*
X685280Y1037160D03*
X685280Y1016160D03*
X705780Y1079160D03*
X705780Y1058160D03*
X705780Y1037160D03*
X705780Y1016160D03*
X705780Y1100160D03*
X705780Y1121160D03*
X705780Y1142160D03*
X705780Y1163160D03*
X685280Y1100160D03*
X685280Y1121160D03*
X685280Y1142160D03*
X685280Y1163160D03*
X664780Y1100160D03*
X664780Y1121160D03*
X664780Y1142160D03*
X664780Y1163160D03*
X767780Y1100160D03*
X767780Y1121160D03*
X767780Y1142160D03*
X767780Y1163160D03*
X747280Y1100160D03*
X747280Y1121160D03*
X747280Y1142160D03*
X747280Y1163160D03*
X726780Y1100160D03*
X726780Y1121160D03*
X726780Y1142160D03*
X726780Y1163160D03*
D20*
X485530Y943610D03*
X502530Y943610D03*
X485530Y1057910D03*
X502530Y1057910D03*
D26*
X522380Y993260D03*
X522380Y998260D03*
D27*
X522380Y968510D03*
X522380Y976260D03*
D26*
X522380Y983260D03*
X522380Y988260D03*
X522380Y1008260D03*
X522380Y1003260D03*
D27*
X522380Y1033010D03*
X522380Y1025260D03*
D26*
X522380Y1018260D03*
X522380Y1013260D03*
D28*
X511330Y1029660D03*
X511330Y971860D03*
D14*
X805180Y1292860D03*
X779780Y1292860D03*
X754380Y1292860D03*
X728980Y1292860D03*
X703580Y1292860D03*
X678180Y1292860D03*
X652780Y1292860D03*
X627380Y1292860D03*
X601980Y1292860D03*
X703580Y886460D03*
X728980Y886460D03*
X754380Y886460D03*
X779780Y886460D03*
X805180Y886460D03*
X830580Y886460D03*
X474980Y1216660D03*
X474980Y1191260D03*
X474980Y1165860D03*
X474980Y1140460D03*
X474980Y1115060D03*
X474980Y1089660D03*
D15*
X759460Y958460D03*
X759460Y941460D03*
X728980Y958460D03*
X728980Y941460D03*
X744220Y958460D03*
X744220Y941460D03*
X774700Y958460D03*
X774700Y941460D03*
X666750Y1220860D03*
X666750Y1237860D03*
X651510Y1220860D03*
X651510Y1237860D03*
D20*
X610480Y1071880D03*
X593480Y1071880D03*
X593480Y1056640D03*
X610480Y1056640D03*
D15*
X726440Y1220860D03*
X726440Y1237860D03*
X741680Y1220860D03*
X741680Y1237860D03*
D29*
X567450Y1009570D03*
D30*
X567200Y1004570D03*
X567200Y999570D03*
X575800Y999570D03*
X575800Y1004570D03*
X575800Y1009570D03*
D31*
X872490Y1093470D03*
X872490Y1068070D03*
X872490Y1042670D03*
D32*
X792480Y944753D03*
X792480Y955167D03*
D31*
X872490Y999490D03*
X872490Y974090D03*
X872490Y948690D03*
D33*
X93980Y1326515D03*
X875665Y1326515D03*
D34*
X84925Y-20955D02*
X84928Y-20733D01*
X84936Y-20511D01*
X84950Y-20289D01*
X84969Y-20067D01*
X84993Y-19847D01*
X85023Y-19626D01*
X85058Y-19407D01*
X85099Y-19188D01*
X85145Y-18971D01*
X85196Y-18755D01*
X85253Y-18540D01*
X85315Y-18326D01*
X85382Y-18115D01*
X85454Y-17904D01*
X85532Y-17696D01*
X85614Y-17490D01*
X85702Y-17286D01*
X85794Y-17083D01*
X85892Y-16884D01*
X85994Y-16687D01*
X86101Y-16492D01*
X86213Y-16300D01*
X86330Y-16111D01*
X86451Y-15924D01*
X86577Y-15741D01*
X86707Y-15561D01*
X86842Y-15384D01*
X86980Y-15211D01*
X87123Y-15041D01*
X87271Y-14874D01*
X87422Y-14711D01*
X87577Y-14552D01*
X87736Y-14397D01*
X87899Y-14246D01*
X88066Y-14098D01*
X88236Y-13955D01*
X88409Y-13817D01*
X88586Y-13682D01*
X88766Y-13552D01*
X88949Y-13426D01*
X89136Y-13305D01*
X89325Y-13188D01*
X89517Y-13076D01*
X89712Y-12969D01*
X89909Y-12867D01*
X90108Y-12769D01*
X90311Y-12677D01*
X90515Y-12589D01*
X90721Y-12507D01*
X90929Y-12429D01*
X91140Y-12357D01*
X91351Y-12290D01*
X91565Y-12228D01*
X91780Y-12171D01*
X91996Y-12120D01*
X92213Y-12074D01*
X92432Y-12033D01*
X92651Y-11998D01*
X92872Y-11968D01*
X93092Y-11944D01*
X93314Y-11925D01*
X93536Y-11911D01*
X93758Y-11903D01*
X93980Y-11900D01*
X94202Y-11903D01*
X94424Y-11911D01*
X94646Y-11925D01*
X94868Y-11944D01*
X95088Y-11968D01*
X95309Y-11998D01*
X95528Y-12033D01*
X95747Y-12074D01*
X95964Y-12120D01*
X96180Y-12171D01*
X96395Y-12228D01*
X96609Y-12290D01*
X96820Y-12357D01*
X97031Y-12429D01*
X97239Y-12507D01*
X97445Y-12589D01*
X97649Y-12677D01*
X97852Y-12769D01*
X98051Y-12867D01*
X98248Y-12969D01*
X98443Y-13076D01*
X98635Y-13188D01*
X98824Y-13305D01*
X99011Y-13426D01*
X99194Y-13552D01*
X99374Y-13682D01*
X99551Y-13817D01*
X99724Y-13955D01*
X99894Y-14098D01*
X100061Y-14246D01*
X100224Y-14397D01*
X100383Y-14552D01*
X100538Y-14711D01*
X100689Y-14874D01*
X100837Y-15041D01*
X100980Y-15211D01*
X101118Y-15384D01*
X101253Y-15561D01*
X101383Y-15741D01*
X101509Y-15924D01*
X101630Y-16111D01*
X101747Y-16300D01*
X101859Y-16492D01*
X101966Y-16687D01*
X102068Y-16884D01*
X102166Y-17083D01*
X102258Y-17286D01*
X102346Y-17490D01*
X102428Y-17696D01*
X102506Y-17904D01*
X102578Y-18115D01*
X102645Y-18326D01*
X102707Y-18540D01*
X102764Y-18755D01*
X102815Y-18971D01*
X102861Y-19188D01*
X102902Y-19407D01*
X102937Y-19626D01*
X102967Y-19847D01*
X102991Y-20067D01*
X103010Y-20289D01*
X103024Y-20511D01*
X103032Y-20733D01*
X103035Y-20955D01*
X103032Y-21177D01*
X103024Y-21399D01*
X103010Y-21621D01*
X102991Y-21843D01*
X102967Y-22063D01*
X102937Y-22284D01*
X102902Y-22503D01*
X102861Y-22722D01*
X102815Y-22939D01*
X102764Y-23155D01*
X102707Y-23370D01*
X102645Y-23584D01*
X102578Y-23795D01*
X102506Y-24006D01*
X102428Y-24214D01*
X102346Y-24420D01*
X102258Y-24624D01*
X102166Y-24827D01*
X102068Y-25026D01*
X101966Y-25223D01*
X101859Y-25418D01*
X101747Y-25610D01*
X101630Y-25799D01*
X101509Y-25986D01*
X101383Y-26169D01*
X101253Y-26349D01*
X101118Y-26526D01*
X100980Y-26699D01*
X100837Y-26869D01*
X100689Y-27036D01*
X100538Y-27199D01*
X100383Y-27358D01*
X100224Y-27513D01*
X100061Y-27664D01*
X99894Y-27812D01*
X99724Y-27955D01*
X99551Y-28093D01*
X99374Y-28228D01*
X99194Y-28358D01*
X99011Y-28484D01*
X98824Y-28605D01*
X98635Y-28722D01*
X98443Y-28834D01*
X98248Y-28941D01*
X98051Y-29043D01*
X97852Y-29141D01*
X97649Y-29233D01*
X97445Y-29321D01*
X97239Y-29403D01*
X97031Y-29481D01*
X96820Y-29553D01*
X96609Y-29620D01*
X96395Y-29682D01*
X96180Y-29739D01*
X95964Y-29790D01*
X95747Y-29836D01*
X95528Y-29877D01*
X95309Y-29912D01*
X95088Y-29942D01*
X94868Y-29966D01*
X94646Y-29985D01*
X94424Y-29999D01*
X94202Y-30007D01*
X93980Y-30010D01*
X93758Y-30007D01*
X93536Y-29999D01*
X93314Y-29985D01*
X93092Y-29966D01*
X92872Y-29942D01*
X92651Y-29912D01*
X92432Y-29877D01*
X92213Y-29836D01*
X91996Y-29790D01*
X91780Y-29739D01*
X91565Y-29682D01*
X91351Y-29620D01*
X91140Y-29553D01*
X90929Y-29481D01*
X90721Y-29403D01*
X90515Y-29321D01*
X90311Y-29233D01*
X90108Y-29141D01*
X89909Y-29043D01*
X89712Y-28941D01*
X89517Y-28834D01*
X89325Y-28722D01*
X89136Y-28605D01*
X88949Y-28484D01*
X88766Y-28358D01*
X88586Y-28228D01*
X88409Y-28093D01*
X88236Y-27955D01*
X88066Y-27812D01*
X87899Y-27664D01*
X87736Y-27513D01*
X87577Y-27358D01*
X87422Y-27199D01*
X87271Y-27036D01*
X87123Y-26869D01*
X86980Y-26699D01*
X86842Y-26526D01*
X86707Y-26349D01*
X86577Y-26169D01*
X86451Y-25986D01*
X86330Y-25799D01*
X86213Y-25610D01*
X86101Y-25418D01*
X85994Y-25223D01*
X85892Y-25026D01*
X85794Y-24827D01*
X85702Y-24624D01*
X85614Y-24420D01*
X85532Y-24214D01*
X85454Y-24006D01*
X85382Y-23795D01*
X85315Y-23584D01*
X85253Y-23370D01*
X85196Y-23155D01*
X85145Y-22939D01*
X85099Y-22722D01*
X85058Y-22503D01*
X85023Y-22284D01*
X84993Y-22063D01*
X84969Y-21843D01*
X84950Y-21621D01*
X84936Y-21399D01*
X84928Y-21177D01*
X84925Y-20955D01*
D35*
X93980Y-20955D03*
M02*
