G04 EAGLE Gerber RS-274X export*
G75*
%MOMM*%
%FSLAX34Y34*%
%LPD*%
%INSolderpaste Top*%
%IPPOS*%
%AMOC8*
5,1,8,0,0,1.08239X$1,22.5*%
G01*
%ADD10R,1.200000X2.000000*%
%ADD11R,0.600000X1.350000*%
%ADD12R,1.000000X1.100000*%
%ADD13R,4.200000X1.700000*%
%ADD14C,0.300000*%
%ADD15R,0.630000X0.830000*%
%ADD16R,1.100000X1.000000*%
%ADD17R,1.200000X0.550000*%
%ADD18R,0.900000X0.850000*%
%ADD19R,1.520000X0.850000*%
%ADD20R,0.850000X1.520000*%
%ADD21R,0.900000X0.900000*%
%ADD22R,1.000000X0.300000*%
%ADD23R,1.000000X0.600000*%
%ADD24R,0.610000X0.250000*%
%ADD25R,0.560000X0.250000*%

G36*
X573822Y1138823D02*
X573822Y1138823D01*
X573866Y1138826D01*
X573888Y1138842D01*
X573914Y1138850D01*
X573943Y1138883D01*
X573978Y1138909D01*
X573988Y1138935D01*
X574006Y1138955D01*
X574013Y1138999D01*
X574028Y1139039D01*
X574023Y1139066D01*
X574027Y1139093D01*
X574009Y1139134D01*
X574000Y1139176D01*
X573974Y1139212D01*
X573970Y1139221D01*
X573965Y1139225D01*
X573956Y1139236D01*
X549956Y1163236D01*
X549918Y1163257D01*
X549885Y1163286D01*
X549858Y1163290D01*
X549834Y1163303D01*
X549790Y1163300D01*
X549747Y1163307D01*
X549722Y1163296D01*
X549694Y1163294D01*
X549659Y1163268D01*
X549619Y1163250D01*
X549604Y1163227D01*
X549582Y1163211D01*
X549566Y1163170D01*
X549542Y1163134D01*
X549535Y1163090D01*
X549532Y1163081D01*
X549533Y1163074D01*
X549531Y1163060D01*
X549531Y1139060D01*
X549536Y1139044D01*
X549533Y1139027D01*
X549555Y1138977D01*
X549570Y1138926D01*
X549583Y1138915D01*
X549590Y1138899D01*
X549635Y1138869D01*
X549675Y1138834D01*
X549692Y1138831D01*
X549707Y1138822D01*
X549780Y1138811D01*
X573780Y1138811D01*
X573822Y1138823D01*
G37*
G36*
X111542Y1138823D02*
X111542Y1138823D01*
X111586Y1138826D01*
X111608Y1138842D01*
X111634Y1138850D01*
X111663Y1138883D01*
X111698Y1138909D01*
X111708Y1138935D01*
X111726Y1138955D01*
X111733Y1138999D01*
X111748Y1139039D01*
X111743Y1139066D01*
X111747Y1139093D01*
X111729Y1139134D01*
X111720Y1139176D01*
X111694Y1139212D01*
X111690Y1139221D01*
X111685Y1139225D01*
X111676Y1139236D01*
X87676Y1163236D01*
X87638Y1163257D01*
X87605Y1163286D01*
X87578Y1163290D01*
X87554Y1163303D01*
X87510Y1163300D01*
X87467Y1163307D01*
X87442Y1163296D01*
X87414Y1163294D01*
X87379Y1163268D01*
X87339Y1163250D01*
X87324Y1163227D01*
X87302Y1163211D01*
X87286Y1163170D01*
X87262Y1163134D01*
X87255Y1163090D01*
X87252Y1163081D01*
X87253Y1163074D01*
X87251Y1163060D01*
X87251Y1139060D01*
X87256Y1139044D01*
X87253Y1139027D01*
X87275Y1138977D01*
X87290Y1138926D01*
X87303Y1138915D01*
X87310Y1138899D01*
X87355Y1138869D01*
X87395Y1138834D01*
X87412Y1138831D01*
X87427Y1138822D01*
X87500Y1138811D01*
X111500Y1138811D01*
X111542Y1138823D01*
G37*
G36*
X573822Y701943D02*
X573822Y701943D01*
X573866Y701946D01*
X573888Y701962D01*
X573914Y701970D01*
X573943Y702003D01*
X573978Y702029D01*
X573988Y702055D01*
X574006Y702075D01*
X574013Y702119D01*
X574028Y702159D01*
X574023Y702186D01*
X574027Y702213D01*
X574009Y702254D01*
X574000Y702296D01*
X573974Y702332D01*
X573970Y702341D01*
X573965Y702345D01*
X573956Y702356D01*
X549956Y726356D01*
X549918Y726377D01*
X549885Y726406D01*
X549858Y726410D01*
X549834Y726423D01*
X549790Y726420D01*
X549747Y726427D01*
X549722Y726416D01*
X549694Y726414D01*
X549659Y726388D01*
X549619Y726370D01*
X549604Y726347D01*
X549582Y726331D01*
X549566Y726290D01*
X549542Y726254D01*
X549535Y726210D01*
X549532Y726201D01*
X549533Y726194D01*
X549531Y726180D01*
X549531Y702180D01*
X549536Y702164D01*
X549533Y702147D01*
X549555Y702097D01*
X549570Y702046D01*
X549583Y702035D01*
X549590Y702019D01*
X549635Y701989D01*
X549675Y701954D01*
X549692Y701951D01*
X549707Y701942D01*
X549780Y701931D01*
X573780Y701931D01*
X573822Y701943D01*
G37*
G36*
X111542Y701943D02*
X111542Y701943D01*
X111586Y701946D01*
X111608Y701962D01*
X111634Y701970D01*
X111663Y702003D01*
X111698Y702029D01*
X111708Y702055D01*
X111726Y702075D01*
X111733Y702119D01*
X111748Y702159D01*
X111743Y702186D01*
X111747Y702213D01*
X111729Y702254D01*
X111720Y702296D01*
X111694Y702332D01*
X111690Y702341D01*
X111685Y702345D01*
X111676Y702356D01*
X87676Y726356D01*
X87638Y726377D01*
X87605Y726406D01*
X87578Y726410D01*
X87554Y726423D01*
X87510Y726420D01*
X87467Y726427D01*
X87442Y726416D01*
X87414Y726414D01*
X87379Y726388D01*
X87339Y726370D01*
X87324Y726347D01*
X87302Y726331D01*
X87286Y726290D01*
X87262Y726254D01*
X87255Y726210D01*
X87252Y726201D01*
X87253Y726194D01*
X87251Y726180D01*
X87251Y702180D01*
X87256Y702164D01*
X87253Y702147D01*
X87275Y702097D01*
X87290Y702046D01*
X87303Y702035D01*
X87310Y702019D01*
X87355Y701989D01*
X87395Y701954D01*
X87412Y701951D01*
X87427Y701942D01*
X87500Y701931D01*
X111500Y701931D01*
X111542Y701943D01*
G37*
G36*
X573822Y265063D02*
X573822Y265063D01*
X573866Y265066D01*
X573888Y265082D01*
X573914Y265090D01*
X573943Y265123D01*
X573978Y265149D01*
X573988Y265175D01*
X574006Y265195D01*
X574013Y265239D01*
X574028Y265279D01*
X574023Y265306D01*
X574027Y265333D01*
X574009Y265374D01*
X574000Y265416D01*
X573974Y265452D01*
X573970Y265461D01*
X573965Y265465D01*
X573956Y265476D01*
X549956Y289476D01*
X549918Y289497D01*
X549885Y289526D01*
X549858Y289530D01*
X549834Y289543D01*
X549790Y289540D01*
X549747Y289547D01*
X549722Y289536D01*
X549694Y289534D01*
X549659Y289508D01*
X549619Y289490D01*
X549604Y289467D01*
X549582Y289451D01*
X549566Y289410D01*
X549542Y289374D01*
X549535Y289330D01*
X549532Y289321D01*
X549533Y289314D01*
X549531Y289300D01*
X549531Y265300D01*
X549536Y265284D01*
X549533Y265267D01*
X549555Y265217D01*
X549570Y265166D01*
X549583Y265155D01*
X549590Y265139D01*
X549635Y265109D01*
X549675Y265074D01*
X549692Y265071D01*
X549707Y265062D01*
X549780Y265051D01*
X573780Y265051D01*
X573822Y265063D01*
G37*
G36*
X111542Y265063D02*
X111542Y265063D01*
X111586Y265066D01*
X111608Y265082D01*
X111634Y265090D01*
X111663Y265123D01*
X111698Y265149D01*
X111708Y265175D01*
X111726Y265195D01*
X111733Y265239D01*
X111748Y265279D01*
X111743Y265306D01*
X111747Y265333D01*
X111729Y265374D01*
X111720Y265416D01*
X111694Y265452D01*
X111690Y265461D01*
X111685Y265465D01*
X111676Y265476D01*
X87676Y289476D01*
X87638Y289497D01*
X87605Y289526D01*
X87578Y289530D01*
X87554Y289543D01*
X87510Y289540D01*
X87467Y289547D01*
X87442Y289536D01*
X87414Y289534D01*
X87379Y289508D01*
X87339Y289490D01*
X87324Y289467D01*
X87302Y289451D01*
X87286Y289410D01*
X87262Y289374D01*
X87255Y289330D01*
X87252Y289321D01*
X87253Y289314D01*
X87251Y289300D01*
X87251Y265300D01*
X87256Y265284D01*
X87253Y265267D01*
X87275Y265217D01*
X87290Y265166D01*
X87303Y265155D01*
X87310Y265139D01*
X87355Y265109D01*
X87395Y265074D01*
X87412Y265071D01*
X87427Y265062D01*
X87500Y265051D01*
X111500Y265051D01*
X111542Y265063D01*
G37*
G36*
X522585Y952514D02*
X522585Y952514D01*
X522588Y952511D01*
X523683Y952691D01*
X523689Y952697D01*
X523694Y952694D01*
X524722Y953113D01*
X524726Y953120D01*
X524731Y953118D01*
X525640Y953756D01*
X525643Y953763D01*
X525648Y953763D01*
X526392Y954586D01*
X526393Y954594D01*
X526399Y954595D01*
X526941Y955563D01*
X526940Y955572D01*
X526946Y955574D01*
X527259Y956638D01*
X527256Y956646D01*
X527261Y956649D01*
X527329Y957757D01*
X527325Y957764D01*
X527329Y957767D01*
X527159Y958875D01*
X527153Y958881D01*
X527156Y958886D01*
X526744Y959928D01*
X526737Y959932D01*
X526739Y959937D01*
X526105Y960862D01*
X526097Y960864D01*
X526098Y960870D01*
X525275Y961630D01*
X525266Y961631D01*
X525266Y961637D01*
X524294Y962194D01*
X524286Y962193D01*
X524284Y962199D01*
X523212Y962526D01*
X523204Y962523D01*
X523201Y962528D01*
X522084Y962609D01*
X522081Y962608D01*
X522080Y962609D01*
X510080Y962609D01*
X510077Y962607D01*
X510070Y962607D01*
X510069Y962608D01*
X509125Y962389D01*
X509119Y962383D01*
X509114Y962385D01*
X508242Y961962D01*
X508239Y961954D01*
X508233Y961956D01*
X507477Y961349D01*
X507475Y961341D01*
X507469Y961341D01*
X506868Y960581D01*
X506868Y960572D01*
X506862Y960571D01*
X506444Y959696D01*
X506446Y959688D01*
X506441Y959686D01*
X506229Y958740D01*
X506232Y958733D01*
X506227Y958729D01*
X506231Y957760D01*
X506231Y957759D01*
X506250Y956691D01*
X506255Y956684D01*
X506251Y956680D01*
X506507Y955643D01*
X506514Y955638D01*
X506511Y955632D01*
X506992Y954678D01*
X506999Y954675D01*
X506998Y954669D01*
X507679Y953846D01*
X507687Y953844D01*
X507687Y953838D01*
X508534Y953187D01*
X508542Y953187D01*
X508543Y953181D01*
X509514Y952734D01*
X509522Y952736D01*
X509524Y952731D01*
X510570Y952512D01*
X510577Y952515D01*
X510580Y952511D01*
X522580Y952511D01*
X522585Y952514D01*
G37*
G36*
X60305Y952514D02*
X60305Y952514D01*
X60308Y952511D01*
X61403Y952691D01*
X61409Y952697D01*
X61414Y952694D01*
X62442Y953113D01*
X62446Y953120D01*
X62451Y953118D01*
X63360Y953756D01*
X63363Y953763D01*
X63368Y953763D01*
X64112Y954586D01*
X64113Y954594D01*
X64119Y954595D01*
X64661Y955563D01*
X64660Y955572D01*
X64666Y955574D01*
X64979Y956638D01*
X64976Y956646D01*
X64981Y956649D01*
X65049Y957757D01*
X65045Y957764D01*
X65049Y957767D01*
X64879Y958875D01*
X64873Y958881D01*
X64876Y958886D01*
X64464Y959928D01*
X64457Y959932D01*
X64459Y959937D01*
X63825Y960862D01*
X63817Y960864D01*
X63818Y960870D01*
X62995Y961630D01*
X62986Y961631D01*
X62986Y961637D01*
X62014Y962194D01*
X62006Y962193D01*
X62004Y962199D01*
X60932Y962526D01*
X60924Y962523D01*
X60921Y962528D01*
X59804Y962609D01*
X59801Y962608D01*
X59800Y962609D01*
X47800Y962609D01*
X47797Y962607D01*
X47790Y962607D01*
X47789Y962608D01*
X46845Y962389D01*
X46839Y962383D01*
X46834Y962385D01*
X45962Y961962D01*
X45959Y961954D01*
X45953Y961956D01*
X45197Y961349D01*
X45195Y961341D01*
X45189Y961341D01*
X44588Y960581D01*
X44588Y960572D01*
X44582Y960571D01*
X44164Y959696D01*
X44166Y959688D01*
X44161Y959686D01*
X43949Y958740D01*
X43952Y958733D01*
X43947Y958729D01*
X43951Y957760D01*
X43951Y957759D01*
X43970Y956691D01*
X43975Y956684D01*
X43971Y956680D01*
X44227Y955643D01*
X44234Y955638D01*
X44231Y955632D01*
X44712Y954678D01*
X44719Y954675D01*
X44718Y954669D01*
X45399Y953846D01*
X45407Y953844D01*
X45407Y953838D01*
X46254Y953187D01*
X46262Y953187D01*
X46263Y953181D01*
X47234Y952734D01*
X47242Y952736D01*
X47244Y952731D01*
X48290Y952512D01*
X48297Y952515D01*
X48300Y952511D01*
X60300Y952511D01*
X60305Y952514D01*
G37*
G36*
X522585Y515634D02*
X522585Y515634D01*
X522588Y515631D01*
X523683Y515811D01*
X523689Y515817D01*
X523694Y515814D01*
X524722Y516233D01*
X524726Y516240D01*
X524731Y516238D01*
X525640Y516876D01*
X525643Y516883D01*
X525648Y516883D01*
X526392Y517706D01*
X526393Y517714D01*
X526399Y517715D01*
X526941Y518683D01*
X526940Y518692D01*
X526946Y518694D01*
X527259Y519758D01*
X527256Y519766D01*
X527261Y519769D01*
X527329Y520877D01*
X527325Y520884D01*
X527329Y520887D01*
X527159Y521995D01*
X527153Y522001D01*
X527156Y522006D01*
X526744Y523048D01*
X526737Y523052D01*
X526739Y523057D01*
X526105Y523982D01*
X526097Y523984D01*
X526098Y523990D01*
X525275Y524750D01*
X525266Y524751D01*
X525266Y524757D01*
X524294Y525314D01*
X524286Y525313D01*
X524284Y525319D01*
X523212Y525646D01*
X523204Y525643D01*
X523201Y525648D01*
X522084Y525729D01*
X522081Y525728D01*
X522080Y525729D01*
X510080Y525729D01*
X510077Y525727D01*
X510070Y525727D01*
X510069Y525728D01*
X509125Y525509D01*
X509119Y525503D01*
X509114Y525505D01*
X508242Y525082D01*
X508239Y525074D01*
X508233Y525076D01*
X507477Y524469D01*
X507475Y524461D01*
X507469Y524461D01*
X506868Y523701D01*
X506868Y523692D01*
X506862Y523691D01*
X506444Y522816D01*
X506446Y522808D01*
X506441Y522806D01*
X506229Y521860D01*
X506232Y521853D01*
X506227Y521849D01*
X506231Y520880D01*
X506231Y520879D01*
X506250Y519811D01*
X506255Y519804D01*
X506251Y519800D01*
X506507Y518763D01*
X506514Y518758D01*
X506511Y518752D01*
X506992Y517798D01*
X506999Y517795D01*
X506998Y517789D01*
X507679Y516966D01*
X507687Y516964D01*
X507687Y516958D01*
X508534Y516307D01*
X508542Y516307D01*
X508543Y516301D01*
X509514Y515854D01*
X509522Y515856D01*
X509524Y515851D01*
X510570Y515632D01*
X510577Y515635D01*
X510580Y515631D01*
X522580Y515631D01*
X522585Y515634D01*
G37*
G36*
X60305Y515634D02*
X60305Y515634D01*
X60308Y515631D01*
X61403Y515811D01*
X61409Y515817D01*
X61414Y515814D01*
X62442Y516233D01*
X62446Y516240D01*
X62451Y516238D01*
X63360Y516876D01*
X63363Y516883D01*
X63368Y516883D01*
X64112Y517706D01*
X64113Y517714D01*
X64119Y517715D01*
X64661Y518683D01*
X64660Y518692D01*
X64666Y518694D01*
X64979Y519758D01*
X64976Y519766D01*
X64981Y519769D01*
X65049Y520877D01*
X65045Y520884D01*
X65049Y520887D01*
X64879Y521995D01*
X64873Y522001D01*
X64876Y522006D01*
X64464Y523048D01*
X64457Y523052D01*
X64459Y523057D01*
X63825Y523982D01*
X63817Y523984D01*
X63818Y523990D01*
X62995Y524750D01*
X62986Y524751D01*
X62986Y524757D01*
X62014Y525314D01*
X62006Y525313D01*
X62004Y525319D01*
X60932Y525646D01*
X60924Y525643D01*
X60921Y525648D01*
X59804Y525729D01*
X59801Y525728D01*
X59800Y525729D01*
X47800Y525729D01*
X47797Y525727D01*
X47790Y525727D01*
X47789Y525728D01*
X46845Y525509D01*
X46839Y525503D01*
X46834Y525505D01*
X45962Y525082D01*
X45959Y525074D01*
X45953Y525076D01*
X45197Y524469D01*
X45195Y524461D01*
X45189Y524461D01*
X44588Y523701D01*
X44588Y523692D01*
X44582Y523691D01*
X44164Y522816D01*
X44166Y522808D01*
X44161Y522806D01*
X43949Y521860D01*
X43952Y521853D01*
X43947Y521849D01*
X43951Y520880D01*
X43951Y520879D01*
X43970Y519811D01*
X43975Y519804D01*
X43971Y519800D01*
X44227Y518763D01*
X44234Y518758D01*
X44231Y518752D01*
X44712Y517798D01*
X44719Y517795D01*
X44718Y517789D01*
X45399Y516966D01*
X45407Y516964D01*
X45407Y516958D01*
X46254Y516307D01*
X46262Y516307D01*
X46263Y516301D01*
X47234Y515854D01*
X47242Y515856D01*
X47244Y515851D01*
X48290Y515632D01*
X48297Y515635D01*
X48300Y515631D01*
X60300Y515631D01*
X60305Y515634D01*
G37*
G36*
X522585Y78754D02*
X522585Y78754D01*
X522588Y78751D01*
X523683Y78931D01*
X523689Y78937D01*
X523694Y78934D01*
X524722Y79353D01*
X524726Y79360D01*
X524731Y79358D01*
X525640Y79996D01*
X525643Y80003D01*
X525648Y80003D01*
X526392Y80826D01*
X526393Y80834D01*
X526399Y80835D01*
X526941Y81803D01*
X526940Y81812D01*
X526946Y81814D01*
X527259Y82878D01*
X527256Y82886D01*
X527261Y82889D01*
X527329Y83997D01*
X527325Y84004D01*
X527329Y84007D01*
X527159Y85115D01*
X527153Y85121D01*
X527156Y85126D01*
X526744Y86168D01*
X526737Y86172D01*
X526739Y86177D01*
X526105Y87102D01*
X526097Y87104D01*
X526098Y87110D01*
X525275Y87870D01*
X525266Y87871D01*
X525266Y87877D01*
X524294Y88434D01*
X524286Y88433D01*
X524284Y88439D01*
X523212Y88766D01*
X523204Y88763D01*
X523201Y88768D01*
X522084Y88849D01*
X522081Y88848D01*
X522080Y88849D01*
X510080Y88849D01*
X510077Y88847D01*
X510070Y88847D01*
X510069Y88848D01*
X509125Y88629D01*
X509119Y88623D01*
X509114Y88625D01*
X508242Y88202D01*
X508239Y88194D01*
X508233Y88196D01*
X507477Y87589D01*
X507475Y87581D01*
X507469Y87581D01*
X506868Y86821D01*
X506868Y86812D01*
X506862Y86811D01*
X506444Y85936D01*
X506446Y85928D01*
X506441Y85926D01*
X506229Y84980D01*
X506232Y84973D01*
X506227Y84969D01*
X506231Y84000D01*
X506231Y83999D01*
X506250Y82931D01*
X506255Y82924D01*
X506251Y82920D01*
X506507Y81883D01*
X506514Y81878D01*
X506511Y81872D01*
X506992Y80918D01*
X506999Y80915D01*
X506998Y80909D01*
X507679Y80086D01*
X507687Y80084D01*
X507687Y80078D01*
X508534Y79427D01*
X508542Y79427D01*
X508543Y79421D01*
X509514Y78974D01*
X509522Y78976D01*
X509524Y78971D01*
X510570Y78752D01*
X510577Y78755D01*
X510580Y78751D01*
X522580Y78751D01*
X522585Y78754D01*
G37*
G36*
X60305Y78754D02*
X60305Y78754D01*
X60308Y78751D01*
X61403Y78931D01*
X61409Y78937D01*
X61414Y78934D01*
X62442Y79353D01*
X62446Y79360D01*
X62451Y79358D01*
X63360Y79996D01*
X63363Y80003D01*
X63368Y80003D01*
X64112Y80826D01*
X64113Y80834D01*
X64119Y80835D01*
X64661Y81803D01*
X64660Y81812D01*
X64666Y81814D01*
X64979Y82878D01*
X64976Y82886D01*
X64981Y82889D01*
X65049Y83997D01*
X65045Y84004D01*
X65049Y84007D01*
X64879Y85115D01*
X64873Y85121D01*
X64876Y85126D01*
X64464Y86168D01*
X64457Y86172D01*
X64459Y86177D01*
X63825Y87102D01*
X63817Y87104D01*
X63818Y87110D01*
X62995Y87870D01*
X62986Y87871D01*
X62986Y87877D01*
X62014Y88434D01*
X62006Y88433D01*
X62004Y88439D01*
X60932Y88766D01*
X60924Y88763D01*
X60921Y88768D01*
X59804Y88849D01*
X59801Y88848D01*
X59800Y88849D01*
X47800Y88849D01*
X47797Y88847D01*
X47790Y88847D01*
X47789Y88848D01*
X46845Y88629D01*
X46839Y88623D01*
X46834Y88625D01*
X45962Y88202D01*
X45959Y88194D01*
X45953Y88196D01*
X45197Y87589D01*
X45195Y87581D01*
X45189Y87581D01*
X44588Y86821D01*
X44588Y86812D01*
X44582Y86811D01*
X44164Y85936D01*
X44166Y85928D01*
X44161Y85926D01*
X43949Y84980D01*
X43952Y84973D01*
X43947Y84969D01*
X43951Y84000D01*
X43951Y83999D01*
X43970Y82931D01*
X43975Y82924D01*
X43971Y82920D01*
X44227Y81883D01*
X44234Y81878D01*
X44231Y81872D01*
X44712Y80918D01*
X44719Y80915D01*
X44718Y80909D01*
X45399Y80086D01*
X45407Y80084D01*
X45407Y80078D01*
X46254Y79427D01*
X46262Y79427D01*
X46263Y79421D01*
X47234Y78974D01*
X47242Y78976D01*
X47244Y78971D01*
X48290Y78752D01*
X48297Y78755D01*
X48300Y78751D01*
X60300Y78751D01*
X60305Y78754D01*
G37*
G36*
X60305Y1038915D02*
X60305Y1038915D01*
X60308Y1038911D01*
X61414Y1039104D01*
X61419Y1039109D01*
X61419Y1039110D01*
X61424Y1039107D01*
X62459Y1039540D01*
X62463Y1039547D01*
X62468Y1039545D01*
X63381Y1040198D01*
X63383Y1040206D01*
X63389Y1040205D01*
X64133Y1041044D01*
X64134Y1041053D01*
X64139Y1041053D01*
X64678Y1042037D01*
X64677Y1042045D01*
X64678Y1042046D01*
X64682Y1042047D01*
X64683Y1042049D01*
X64865Y1042690D01*
X64989Y1043126D01*
X64987Y1043131D01*
X64989Y1043133D01*
X64987Y1043135D01*
X64991Y1043137D01*
X65049Y1044257D01*
X65046Y1044262D01*
X65049Y1044266D01*
X64931Y1045311D01*
X64925Y1045317D01*
X64929Y1045322D01*
X64581Y1046316D01*
X64574Y1046320D01*
X64576Y1046325D01*
X64016Y1047217D01*
X64009Y1047220D01*
X64009Y1047225D01*
X63265Y1047969D01*
X63257Y1047971D01*
X63257Y1047976D01*
X62365Y1048536D01*
X62357Y1048536D01*
X62356Y1048541D01*
X61362Y1048889D01*
X61354Y1048886D01*
X61351Y1048891D01*
X60306Y1049009D01*
X60302Y1049007D01*
X60300Y1049009D01*
X48300Y1049009D01*
X48297Y1049007D01*
X48294Y1049007D01*
X48292Y1049009D01*
X47296Y1048851D01*
X47290Y1048845D01*
X47285Y1048848D01*
X46349Y1048473D01*
X46345Y1048466D01*
X46339Y1048468D01*
X45510Y1047894D01*
X45507Y1047886D01*
X45502Y1047887D01*
X44821Y1047143D01*
X44820Y1047134D01*
X44814Y1047134D01*
X44316Y1046257D01*
X44317Y1046249D01*
X44312Y1046246D01*
X44124Y1045622D01*
X44021Y1045281D01*
X44022Y1045278D01*
X44021Y1045277D01*
X44024Y1045273D01*
X44019Y1045270D01*
X43951Y1044263D01*
X43952Y1044261D01*
X43951Y1044260D01*
X43960Y1043179D01*
X43965Y1043172D01*
X43961Y1043168D01*
X44211Y1042116D01*
X44217Y1042111D01*
X44214Y1042106D01*
X44691Y1041136D01*
X44699Y1041133D01*
X44697Y1041127D01*
X45378Y1040288D01*
X45386Y1040286D01*
X45386Y1040280D01*
X46237Y1039614D01*
X46245Y1039613D01*
X46246Y1039608D01*
X47223Y1039147D01*
X47231Y1039149D01*
X47234Y1039144D01*
X48289Y1038912D01*
X48297Y1038915D01*
X48300Y1038911D01*
X60300Y1038911D01*
X60305Y1038915D01*
G37*
G36*
X522585Y1038915D02*
X522585Y1038915D01*
X522588Y1038911D01*
X523694Y1039104D01*
X523699Y1039109D01*
X523699Y1039110D01*
X523704Y1039107D01*
X524739Y1039540D01*
X524743Y1039547D01*
X524748Y1039545D01*
X525661Y1040198D01*
X525663Y1040206D01*
X525669Y1040205D01*
X526413Y1041044D01*
X526414Y1041053D01*
X526419Y1041053D01*
X526958Y1042037D01*
X526957Y1042045D01*
X526958Y1042046D01*
X526962Y1042047D01*
X526963Y1042049D01*
X527145Y1042690D01*
X527269Y1043126D01*
X527267Y1043131D01*
X527269Y1043133D01*
X527267Y1043135D01*
X527271Y1043137D01*
X527329Y1044257D01*
X527326Y1044262D01*
X527329Y1044266D01*
X527211Y1045311D01*
X527205Y1045317D01*
X527209Y1045322D01*
X526861Y1046316D01*
X526854Y1046320D01*
X526856Y1046325D01*
X526296Y1047217D01*
X526289Y1047220D01*
X526289Y1047225D01*
X525545Y1047969D01*
X525537Y1047971D01*
X525537Y1047976D01*
X524645Y1048536D01*
X524637Y1048536D01*
X524636Y1048541D01*
X523642Y1048889D01*
X523634Y1048886D01*
X523631Y1048891D01*
X522586Y1049009D01*
X522582Y1049007D01*
X522580Y1049009D01*
X510580Y1049009D01*
X510577Y1049007D01*
X510574Y1049007D01*
X510572Y1049009D01*
X509576Y1048851D01*
X509570Y1048845D01*
X509565Y1048848D01*
X508629Y1048473D01*
X508625Y1048466D01*
X508619Y1048468D01*
X507790Y1047894D01*
X507787Y1047886D01*
X507782Y1047887D01*
X507101Y1047143D01*
X507100Y1047134D01*
X507094Y1047134D01*
X506596Y1046257D01*
X506597Y1046249D01*
X506592Y1046246D01*
X506404Y1045622D01*
X506301Y1045281D01*
X506302Y1045278D01*
X506301Y1045277D01*
X506304Y1045273D01*
X506299Y1045270D01*
X506231Y1044263D01*
X506232Y1044261D01*
X506231Y1044260D01*
X506240Y1043179D01*
X506245Y1043172D01*
X506241Y1043168D01*
X506491Y1042116D01*
X506497Y1042111D01*
X506494Y1042106D01*
X506971Y1041136D01*
X506979Y1041133D01*
X506977Y1041127D01*
X507658Y1040288D01*
X507666Y1040286D01*
X507666Y1040280D01*
X508517Y1039614D01*
X508525Y1039613D01*
X508526Y1039608D01*
X509503Y1039147D01*
X509511Y1039149D01*
X509514Y1039144D01*
X510569Y1038912D01*
X510577Y1038915D01*
X510580Y1038911D01*
X522580Y1038911D01*
X522585Y1038915D01*
G37*
G36*
X522585Y602035D02*
X522585Y602035D01*
X522588Y602031D01*
X523694Y602224D01*
X523699Y602229D01*
X523699Y602230D01*
X523704Y602227D01*
X524739Y602660D01*
X524743Y602667D01*
X524748Y602665D01*
X525661Y603318D01*
X525663Y603326D01*
X525669Y603325D01*
X526413Y604164D01*
X526414Y604173D01*
X526419Y604173D01*
X526958Y605157D01*
X526957Y605165D01*
X526958Y605166D01*
X526962Y605167D01*
X526963Y605169D01*
X527145Y605810D01*
X527269Y606246D01*
X527267Y606251D01*
X527269Y606253D01*
X527267Y606255D01*
X527271Y606257D01*
X527329Y607377D01*
X527326Y607382D01*
X527329Y607386D01*
X527211Y608431D01*
X527205Y608437D01*
X527209Y608442D01*
X526861Y609436D01*
X526854Y609440D01*
X526856Y609445D01*
X526296Y610337D01*
X526289Y610340D01*
X526289Y610345D01*
X525545Y611089D01*
X525537Y611091D01*
X525537Y611096D01*
X524645Y611656D01*
X524637Y611656D01*
X524636Y611661D01*
X523642Y612009D01*
X523634Y612006D01*
X523631Y612011D01*
X522586Y612129D01*
X522582Y612127D01*
X522580Y612129D01*
X510580Y612129D01*
X510577Y612127D01*
X510574Y612127D01*
X510572Y612129D01*
X509576Y611971D01*
X509570Y611965D01*
X509565Y611968D01*
X508629Y611593D01*
X508625Y611586D01*
X508619Y611588D01*
X507790Y611014D01*
X507787Y611006D01*
X507782Y611007D01*
X507101Y610263D01*
X507100Y610254D01*
X507094Y610254D01*
X506596Y609377D01*
X506597Y609369D01*
X506592Y609366D01*
X506404Y608742D01*
X506301Y608401D01*
X506302Y608398D01*
X506301Y608397D01*
X506304Y608393D01*
X506299Y608390D01*
X506231Y607383D01*
X506232Y607381D01*
X506231Y607380D01*
X506240Y606299D01*
X506245Y606292D01*
X506241Y606288D01*
X506491Y605236D01*
X506497Y605231D01*
X506494Y605226D01*
X506971Y604256D01*
X506979Y604253D01*
X506977Y604247D01*
X507658Y603408D01*
X507666Y603406D01*
X507666Y603400D01*
X508517Y602734D01*
X508525Y602733D01*
X508526Y602728D01*
X509503Y602267D01*
X509511Y602269D01*
X509514Y602264D01*
X510569Y602032D01*
X510577Y602035D01*
X510580Y602031D01*
X522580Y602031D01*
X522585Y602035D01*
G37*
G36*
X60305Y602035D02*
X60305Y602035D01*
X60308Y602031D01*
X61414Y602224D01*
X61419Y602229D01*
X61419Y602230D01*
X61424Y602227D01*
X62459Y602660D01*
X62463Y602667D01*
X62468Y602665D01*
X63381Y603318D01*
X63383Y603326D01*
X63389Y603325D01*
X64133Y604164D01*
X64134Y604173D01*
X64139Y604173D01*
X64678Y605157D01*
X64677Y605165D01*
X64678Y605166D01*
X64682Y605167D01*
X64683Y605169D01*
X64865Y605810D01*
X64989Y606246D01*
X64987Y606251D01*
X64989Y606253D01*
X64987Y606255D01*
X64991Y606257D01*
X65049Y607377D01*
X65046Y607382D01*
X65049Y607386D01*
X64931Y608431D01*
X64925Y608437D01*
X64929Y608442D01*
X64581Y609436D01*
X64574Y609440D01*
X64576Y609445D01*
X64016Y610337D01*
X64009Y610340D01*
X64009Y610345D01*
X63265Y611089D01*
X63257Y611091D01*
X63257Y611096D01*
X62365Y611656D01*
X62357Y611656D01*
X62356Y611661D01*
X61362Y612009D01*
X61354Y612006D01*
X61351Y612011D01*
X60306Y612129D01*
X60302Y612127D01*
X60300Y612129D01*
X48300Y612129D01*
X48297Y612127D01*
X48294Y612127D01*
X48292Y612129D01*
X47296Y611971D01*
X47290Y611965D01*
X47285Y611968D01*
X46349Y611593D01*
X46345Y611586D01*
X46339Y611588D01*
X45510Y611014D01*
X45507Y611006D01*
X45502Y611007D01*
X44821Y610263D01*
X44820Y610254D01*
X44814Y610254D01*
X44316Y609377D01*
X44317Y609369D01*
X44312Y609366D01*
X44124Y608742D01*
X44021Y608401D01*
X44022Y608398D01*
X44021Y608397D01*
X44024Y608393D01*
X44019Y608390D01*
X43951Y607383D01*
X43952Y607381D01*
X43951Y607380D01*
X43960Y606299D01*
X43965Y606292D01*
X43961Y606288D01*
X44211Y605236D01*
X44217Y605231D01*
X44214Y605226D01*
X44691Y604256D01*
X44699Y604253D01*
X44697Y604247D01*
X45378Y603408D01*
X45386Y603406D01*
X45386Y603400D01*
X46237Y602734D01*
X46245Y602733D01*
X46246Y602728D01*
X47223Y602267D01*
X47231Y602269D01*
X47234Y602264D01*
X48289Y602032D01*
X48297Y602035D01*
X48300Y602031D01*
X60300Y602031D01*
X60305Y602035D01*
G37*
G36*
X522585Y165155D02*
X522585Y165155D01*
X522588Y165151D01*
X523694Y165344D01*
X523699Y165349D01*
X523699Y165350D01*
X523704Y165347D01*
X524739Y165780D01*
X524743Y165787D01*
X524748Y165785D01*
X525661Y166438D01*
X525663Y166446D01*
X525669Y166445D01*
X526413Y167284D01*
X526414Y167293D01*
X526419Y167293D01*
X526958Y168277D01*
X526957Y168285D01*
X526958Y168286D01*
X526962Y168287D01*
X526963Y168289D01*
X527145Y168930D01*
X527269Y169366D01*
X527267Y169371D01*
X527269Y169373D01*
X527267Y169375D01*
X527271Y169377D01*
X527329Y170497D01*
X527326Y170502D01*
X527329Y170506D01*
X527211Y171551D01*
X527205Y171557D01*
X527209Y171562D01*
X526861Y172556D01*
X526854Y172560D01*
X526856Y172565D01*
X526296Y173457D01*
X526289Y173460D01*
X526289Y173465D01*
X525545Y174209D01*
X525537Y174211D01*
X525537Y174216D01*
X524645Y174776D01*
X524637Y174776D01*
X524636Y174781D01*
X523642Y175129D01*
X523634Y175126D01*
X523631Y175131D01*
X522586Y175249D01*
X522582Y175247D01*
X522580Y175249D01*
X510580Y175249D01*
X510577Y175247D01*
X510574Y175247D01*
X510572Y175249D01*
X509576Y175091D01*
X509570Y175085D01*
X509565Y175088D01*
X508629Y174713D01*
X508625Y174706D01*
X508619Y174708D01*
X507790Y174134D01*
X507787Y174126D01*
X507782Y174127D01*
X507101Y173383D01*
X507100Y173374D01*
X507094Y173374D01*
X506596Y172497D01*
X506597Y172489D01*
X506592Y172486D01*
X506404Y171862D01*
X506301Y171521D01*
X506302Y171518D01*
X506301Y171517D01*
X506304Y171513D01*
X506299Y171510D01*
X506231Y170503D01*
X506232Y170501D01*
X506231Y170500D01*
X506240Y169419D01*
X506245Y169412D01*
X506241Y169408D01*
X506491Y168356D01*
X506497Y168351D01*
X506494Y168346D01*
X506971Y167376D01*
X506979Y167373D01*
X506977Y167367D01*
X507658Y166528D01*
X507666Y166526D01*
X507666Y166520D01*
X508517Y165854D01*
X508525Y165853D01*
X508526Y165848D01*
X509503Y165387D01*
X509511Y165389D01*
X509514Y165384D01*
X510569Y165152D01*
X510577Y165155D01*
X510580Y165151D01*
X522580Y165151D01*
X522585Y165155D01*
G37*
G36*
X60305Y165155D02*
X60305Y165155D01*
X60308Y165151D01*
X61414Y165344D01*
X61419Y165349D01*
X61419Y165350D01*
X61424Y165347D01*
X62459Y165780D01*
X62463Y165787D01*
X62468Y165785D01*
X63381Y166438D01*
X63383Y166446D01*
X63389Y166445D01*
X64133Y167284D01*
X64134Y167293D01*
X64139Y167293D01*
X64678Y168277D01*
X64677Y168285D01*
X64678Y168286D01*
X64682Y168287D01*
X64683Y168289D01*
X64865Y168930D01*
X64989Y169366D01*
X64987Y169371D01*
X64989Y169373D01*
X64987Y169375D01*
X64991Y169377D01*
X65049Y170497D01*
X65046Y170502D01*
X65049Y170506D01*
X64931Y171551D01*
X64925Y171557D01*
X64929Y171562D01*
X64581Y172556D01*
X64574Y172560D01*
X64576Y172565D01*
X64016Y173457D01*
X64009Y173460D01*
X64009Y173465D01*
X63265Y174209D01*
X63257Y174211D01*
X63257Y174216D01*
X62365Y174776D01*
X62357Y174776D01*
X62356Y174781D01*
X61362Y175129D01*
X61354Y175126D01*
X61351Y175131D01*
X60306Y175249D01*
X60302Y175247D01*
X60300Y175249D01*
X48300Y175249D01*
X48297Y175247D01*
X48294Y175247D01*
X48292Y175249D01*
X47296Y175091D01*
X47290Y175085D01*
X47285Y175088D01*
X46349Y174713D01*
X46345Y174706D01*
X46339Y174708D01*
X45510Y174134D01*
X45507Y174126D01*
X45502Y174127D01*
X44821Y173383D01*
X44820Y173374D01*
X44814Y173374D01*
X44316Y172497D01*
X44317Y172489D01*
X44312Y172486D01*
X44124Y171862D01*
X44021Y171521D01*
X44022Y171518D01*
X44021Y171517D01*
X44024Y171513D01*
X44019Y171510D01*
X43951Y170503D01*
X43952Y170501D01*
X43951Y170500D01*
X43960Y169419D01*
X43965Y169412D01*
X43961Y169408D01*
X44211Y168356D01*
X44217Y168351D01*
X44214Y168346D01*
X44691Y167376D01*
X44699Y167373D01*
X44697Y167367D01*
X45378Y166528D01*
X45386Y166526D01*
X45386Y166520D01*
X46237Y165854D01*
X46245Y165853D01*
X46246Y165848D01*
X47223Y165387D01*
X47231Y165389D01*
X47234Y165384D01*
X48289Y165152D01*
X48297Y165155D01*
X48300Y165151D01*
X60300Y165151D01*
X60305Y165155D01*
G37*
G36*
X477784Y952514D02*
X477784Y952514D01*
X477786Y952511D01*
X478919Y952661D01*
X478925Y952667D01*
X478930Y952664D01*
X480000Y953062D01*
X480004Y953069D01*
X480010Y953067D01*
X480965Y953694D01*
X480968Y953702D01*
X480973Y953701D01*
X481765Y954524D01*
X481766Y954532D01*
X481772Y954533D01*
X482361Y955512D01*
X482360Y955520D01*
X482365Y955522D01*
X482721Y956607D01*
X482719Y956615D01*
X482723Y956618D01*
X482829Y957755D01*
X482824Y957764D01*
X482828Y957769D01*
X482621Y958906D01*
X482615Y958912D01*
X482618Y958917D01*
X482163Y959979D01*
X482156Y959983D01*
X482158Y959989D01*
X481478Y960924D01*
X481470Y960926D01*
X481471Y960932D01*
X480600Y961692D01*
X480592Y961692D01*
X480591Y961698D01*
X479572Y962245D01*
X479564Y962244D01*
X479562Y962249D01*
X478448Y962556D01*
X478440Y962553D01*
X478437Y962558D01*
X477282Y962609D01*
X477281Y962608D01*
X477280Y962609D01*
X471280Y962609D01*
X471277Y962607D01*
X471272Y962607D01*
X471271Y962608D01*
X470190Y962396D01*
X470185Y962390D01*
X470180Y962393D01*
X469174Y961946D01*
X469170Y961939D01*
X469164Y961941D01*
X468283Y961281D01*
X468280Y961273D01*
X468275Y961273D01*
X467562Y960434D01*
X467562Y960426D01*
X467556Y960425D01*
X467048Y959448D01*
X467049Y959440D01*
X467044Y959438D01*
X466766Y958373D01*
X466769Y958365D01*
X466765Y958362D01*
X466731Y957262D01*
X466735Y957256D01*
X466731Y957253D01*
X466886Y956178D01*
X466892Y956172D01*
X466889Y956167D01*
X467279Y955153D01*
X467286Y955149D01*
X467285Y955143D01*
X467891Y954241D01*
X467899Y954239D01*
X467898Y954233D01*
X468690Y953489D01*
X468698Y953488D01*
X468698Y953482D01*
X469636Y952933D01*
X469644Y952934D01*
X469646Y952928D01*
X470682Y952601D01*
X470690Y952604D01*
X470693Y952599D01*
X471776Y952511D01*
X471779Y952513D01*
X471780Y952511D01*
X477780Y952511D01*
X477784Y952514D01*
G37*
G36*
X15504Y952514D02*
X15504Y952514D01*
X15506Y952511D01*
X16639Y952661D01*
X16645Y952667D01*
X16650Y952664D01*
X17720Y953062D01*
X17724Y953069D01*
X17730Y953067D01*
X18685Y953694D01*
X18688Y953702D01*
X18693Y953701D01*
X19485Y954524D01*
X19486Y954532D01*
X19492Y954533D01*
X20081Y955512D01*
X20080Y955520D01*
X20085Y955522D01*
X20441Y956607D01*
X20439Y956615D01*
X20443Y956618D01*
X20549Y957755D01*
X20544Y957764D01*
X20548Y957769D01*
X20341Y958906D01*
X20335Y958912D01*
X20338Y958917D01*
X19883Y959979D01*
X19876Y959983D01*
X19878Y959989D01*
X19198Y960924D01*
X19190Y960926D01*
X19191Y960932D01*
X18320Y961692D01*
X18312Y961692D01*
X18311Y961698D01*
X17292Y962245D01*
X17284Y962244D01*
X17282Y962249D01*
X16168Y962556D01*
X16160Y962553D01*
X16157Y962558D01*
X15002Y962609D01*
X15001Y962608D01*
X15000Y962609D01*
X9000Y962609D01*
X8997Y962607D01*
X8992Y962607D01*
X8991Y962608D01*
X7910Y962396D01*
X7905Y962390D01*
X7900Y962393D01*
X6894Y961946D01*
X6890Y961939D01*
X6884Y961941D01*
X6003Y961281D01*
X6000Y961273D01*
X5995Y961273D01*
X5282Y960434D01*
X5282Y960426D01*
X5276Y960425D01*
X4768Y959448D01*
X4769Y959440D01*
X4764Y959438D01*
X4486Y958373D01*
X4489Y958365D01*
X4485Y958362D01*
X4451Y957262D01*
X4455Y957256D01*
X4451Y957253D01*
X4606Y956178D01*
X4612Y956172D01*
X4609Y956167D01*
X4999Y955153D01*
X5006Y955149D01*
X5005Y955143D01*
X5611Y954241D01*
X5619Y954239D01*
X5618Y954233D01*
X6410Y953489D01*
X6418Y953488D01*
X6418Y953482D01*
X7356Y952933D01*
X7364Y952934D01*
X7366Y952928D01*
X8402Y952601D01*
X8410Y952604D01*
X8413Y952599D01*
X9496Y952511D01*
X9499Y952513D01*
X9500Y952511D01*
X15500Y952511D01*
X15504Y952514D01*
G37*
G36*
X477784Y515634D02*
X477784Y515634D01*
X477786Y515631D01*
X478919Y515781D01*
X478925Y515787D01*
X478930Y515784D01*
X480000Y516182D01*
X480004Y516189D01*
X480010Y516187D01*
X480965Y516814D01*
X480968Y516822D01*
X480973Y516821D01*
X481765Y517644D01*
X481766Y517652D01*
X481772Y517653D01*
X482361Y518632D01*
X482360Y518640D01*
X482365Y518642D01*
X482721Y519727D01*
X482719Y519735D01*
X482723Y519738D01*
X482829Y520875D01*
X482824Y520884D01*
X482828Y520889D01*
X482621Y522026D01*
X482615Y522032D01*
X482618Y522037D01*
X482163Y523099D01*
X482156Y523103D01*
X482158Y523109D01*
X481478Y524044D01*
X481470Y524046D01*
X481471Y524052D01*
X480600Y524812D01*
X480592Y524812D01*
X480591Y524818D01*
X479572Y525365D01*
X479564Y525364D01*
X479562Y525369D01*
X478448Y525676D01*
X478440Y525673D01*
X478437Y525678D01*
X477282Y525729D01*
X477281Y525728D01*
X477280Y525729D01*
X471280Y525729D01*
X471277Y525727D01*
X471272Y525727D01*
X471271Y525728D01*
X470190Y525516D01*
X470185Y525510D01*
X470180Y525513D01*
X469174Y525066D01*
X469170Y525059D01*
X469164Y525061D01*
X468283Y524401D01*
X468280Y524393D01*
X468275Y524393D01*
X467562Y523554D01*
X467562Y523546D01*
X467556Y523545D01*
X467048Y522568D01*
X467049Y522560D01*
X467044Y522558D01*
X466766Y521493D01*
X466769Y521485D01*
X466765Y521482D01*
X466731Y520382D01*
X466735Y520376D01*
X466731Y520373D01*
X466886Y519298D01*
X466892Y519292D01*
X466889Y519287D01*
X467279Y518273D01*
X467286Y518269D01*
X467285Y518263D01*
X467891Y517361D01*
X467899Y517359D01*
X467898Y517353D01*
X468690Y516609D01*
X468698Y516608D01*
X468698Y516602D01*
X469636Y516053D01*
X469644Y516054D01*
X469646Y516048D01*
X470682Y515721D01*
X470690Y515724D01*
X470693Y515719D01*
X471776Y515631D01*
X471779Y515633D01*
X471780Y515631D01*
X477780Y515631D01*
X477784Y515634D01*
G37*
G36*
X15504Y515634D02*
X15504Y515634D01*
X15506Y515631D01*
X16639Y515781D01*
X16645Y515787D01*
X16650Y515784D01*
X17720Y516182D01*
X17724Y516189D01*
X17730Y516187D01*
X18685Y516814D01*
X18688Y516822D01*
X18693Y516821D01*
X19485Y517644D01*
X19486Y517652D01*
X19492Y517653D01*
X20081Y518632D01*
X20080Y518640D01*
X20085Y518642D01*
X20441Y519727D01*
X20439Y519735D01*
X20443Y519738D01*
X20549Y520875D01*
X20544Y520884D01*
X20548Y520889D01*
X20341Y522026D01*
X20335Y522032D01*
X20338Y522037D01*
X19883Y523099D01*
X19876Y523103D01*
X19878Y523109D01*
X19198Y524044D01*
X19190Y524046D01*
X19191Y524052D01*
X18320Y524812D01*
X18312Y524812D01*
X18311Y524818D01*
X17292Y525365D01*
X17284Y525364D01*
X17282Y525369D01*
X16168Y525676D01*
X16160Y525673D01*
X16157Y525678D01*
X15002Y525729D01*
X15001Y525728D01*
X15000Y525729D01*
X9000Y525729D01*
X8997Y525727D01*
X8992Y525727D01*
X8991Y525728D01*
X7910Y525516D01*
X7905Y525510D01*
X7900Y525513D01*
X6894Y525066D01*
X6890Y525059D01*
X6884Y525061D01*
X6003Y524401D01*
X6000Y524393D01*
X5995Y524393D01*
X5282Y523554D01*
X5282Y523546D01*
X5276Y523545D01*
X4768Y522568D01*
X4769Y522560D01*
X4764Y522558D01*
X4486Y521493D01*
X4489Y521485D01*
X4485Y521482D01*
X4451Y520382D01*
X4455Y520376D01*
X4451Y520373D01*
X4606Y519298D01*
X4612Y519292D01*
X4609Y519287D01*
X4999Y518273D01*
X5006Y518269D01*
X5005Y518263D01*
X5611Y517361D01*
X5619Y517359D01*
X5618Y517353D01*
X6410Y516609D01*
X6418Y516608D01*
X6418Y516602D01*
X7356Y516053D01*
X7364Y516054D01*
X7366Y516048D01*
X8402Y515721D01*
X8410Y515724D01*
X8413Y515719D01*
X9496Y515631D01*
X9499Y515633D01*
X9500Y515631D01*
X15500Y515631D01*
X15504Y515634D01*
G37*
G36*
X15504Y78754D02*
X15504Y78754D01*
X15506Y78751D01*
X16639Y78901D01*
X16645Y78907D01*
X16650Y78904D01*
X17720Y79302D01*
X17724Y79309D01*
X17730Y79307D01*
X18685Y79934D01*
X18688Y79942D01*
X18693Y79941D01*
X19485Y80764D01*
X19486Y80772D01*
X19492Y80773D01*
X20081Y81752D01*
X20080Y81760D01*
X20085Y81762D01*
X20441Y82847D01*
X20439Y82855D01*
X20443Y82858D01*
X20549Y83995D01*
X20544Y84004D01*
X20548Y84009D01*
X20341Y85146D01*
X20335Y85152D01*
X20338Y85157D01*
X19883Y86219D01*
X19876Y86223D01*
X19878Y86229D01*
X19198Y87164D01*
X19190Y87166D01*
X19191Y87172D01*
X18320Y87932D01*
X18312Y87932D01*
X18311Y87938D01*
X17292Y88485D01*
X17284Y88484D01*
X17282Y88489D01*
X16168Y88796D01*
X16160Y88793D01*
X16157Y88798D01*
X15002Y88849D01*
X15001Y88848D01*
X15000Y88849D01*
X9000Y88849D01*
X8997Y88847D01*
X8992Y88847D01*
X8991Y88848D01*
X7910Y88636D01*
X7905Y88630D01*
X7900Y88633D01*
X6894Y88186D01*
X6890Y88179D01*
X6884Y88181D01*
X6003Y87521D01*
X6000Y87513D01*
X5995Y87513D01*
X5282Y86674D01*
X5282Y86666D01*
X5276Y86665D01*
X4768Y85688D01*
X4769Y85680D01*
X4764Y85678D01*
X4486Y84613D01*
X4489Y84605D01*
X4485Y84602D01*
X4451Y83502D01*
X4455Y83496D01*
X4451Y83493D01*
X4606Y82418D01*
X4612Y82412D01*
X4609Y82407D01*
X4999Y81393D01*
X5006Y81389D01*
X5005Y81383D01*
X5611Y80481D01*
X5619Y80479D01*
X5618Y80473D01*
X6410Y79729D01*
X6418Y79728D01*
X6418Y79722D01*
X7356Y79173D01*
X7364Y79174D01*
X7366Y79168D01*
X8402Y78841D01*
X8410Y78844D01*
X8413Y78839D01*
X9496Y78751D01*
X9499Y78753D01*
X9500Y78751D01*
X15500Y78751D01*
X15504Y78754D01*
G37*
G36*
X477784Y78754D02*
X477784Y78754D01*
X477786Y78751D01*
X478919Y78901D01*
X478925Y78907D01*
X478930Y78904D01*
X480000Y79302D01*
X480004Y79309D01*
X480010Y79307D01*
X480965Y79934D01*
X480968Y79942D01*
X480973Y79941D01*
X481765Y80764D01*
X481766Y80772D01*
X481772Y80773D01*
X482361Y81752D01*
X482360Y81760D01*
X482365Y81762D01*
X482721Y82847D01*
X482719Y82855D01*
X482723Y82858D01*
X482829Y83995D01*
X482824Y84004D01*
X482828Y84009D01*
X482621Y85146D01*
X482615Y85152D01*
X482618Y85157D01*
X482163Y86219D01*
X482156Y86223D01*
X482158Y86229D01*
X481478Y87164D01*
X481470Y87166D01*
X481471Y87172D01*
X480600Y87932D01*
X480592Y87932D01*
X480591Y87938D01*
X479572Y88485D01*
X479564Y88484D01*
X479562Y88489D01*
X478448Y88796D01*
X478440Y88793D01*
X478437Y88798D01*
X477282Y88849D01*
X477281Y88848D01*
X477280Y88849D01*
X471280Y88849D01*
X471277Y88847D01*
X471272Y88847D01*
X471271Y88848D01*
X470190Y88636D01*
X470185Y88630D01*
X470180Y88633D01*
X469174Y88186D01*
X469170Y88179D01*
X469164Y88181D01*
X468283Y87521D01*
X468280Y87513D01*
X468275Y87513D01*
X467562Y86674D01*
X467562Y86666D01*
X467556Y86665D01*
X467048Y85688D01*
X467049Y85680D01*
X467044Y85678D01*
X466766Y84613D01*
X466769Y84605D01*
X466765Y84602D01*
X466731Y83502D01*
X466735Y83496D01*
X466731Y83493D01*
X466886Y82418D01*
X466892Y82412D01*
X466889Y82407D01*
X467279Y81393D01*
X467286Y81389D01*
X467285Y81383D01*
X467891Y80481D01*
X467899Y80479D01*
X467898Y80473D01*
X468690Y79729D01*
X468698Y79728D01*
X468698Y79722D01*
X469636Y79173D01*
X469644Y79174D01*
X469646Y79168D01*
X470682Y78841D01*
X470690Y78844D01*
X470693Y78839D01*
X471776Y78751D01*
X471779Y78753D01*
X471780Y78751D01*
X477780Y78751D01*
X477784Y78754D01*
G37*
G36*
X477783Y1038913D02*
X477783Y1038913D01*
X477785Y1038911D01*
X478877Y1039012D01*
X478883Y1039017D01*
X478888Y1039014D01*
X479931Y1039355D01*
X479936Y1039362D01*
X479941Y1039360D01*
X480882Y1039924D01*
X480885Y1039932D01*
X480891Y1039931D01*
X481683Y1040691D01*
X481684Y1040699D01*
X481690Y1040700D01*
X482293Y1041617D01*
X482292Y1041625D01*
X482298Y1041627D01*
X482681Y1042655D01*
X482679Y1042663D01*
X482684Y1042666D01*
X482829Y1043754D01*
X482825Y1043761D01*
X482829Y1043765D01*
X482723Y1044902D01*
X482718Y1044908D01*
X482721Y1044913D01*
X482365Y1045998D01*
X482358Y1046003D01*
X482361Y1046008D01*
X481772Y1046987D01*
X481764Y1046990D01*
X481765Y1046996D01*
X480973Y1047819D01*
X480965Y1047820D01*
X480965Y1047826D01*
X480010Y1048453D01*
X480002Y1048452D01*
X480000Y1048458D01*
X478930Y1048856D01*
X478922Y1048854D01*
X478919Y1048859D01*
X477786Y1049009D01*
X477783Y1049007D01*
X477782Y1049007D01*
X477780Y1049009D01*
X471780Y1049009D01*
X471777Y1049007D01*
X471775Y1049007D01*
X471774Y1049009D01*
X470641Y1048859D01*
X470635Y1048853D01*
X470630Y1048856D01*
X469560Y1048458D01*
X469556Y1048451D01*
X469550Y1048453D01*
X468595Y1047826D01*
X468592Y1047818D01*
X468587Y1047819D01*
X467795Y1046996D01*
X467794Y1046988D01*
X467788Y1046987D01*
X467199Y1046008D01*
X467200Y1046000D01*
X467195Y1045998D01*
X466839Y1044913D01*
X466842Y1044905D01*
X466837Y1044902D01*
X466731Y1043765D01*
X466735Y1043758D01*
X466731Y1043754D01*
X466876Y1042666D01*
X466882Y1042660D01*
X466879Y1042655D01*
X467263Y1041627D01*
X467269Y1041622D01*
X467268Y1041617D01*
X467870Y1040700D01*
X467878Y1040697D01*
X467877Y1040691D01*
X468669Y1039931D01*
X468677Y1039930D01*
X468678Y1039924D01*
X469619Y1039360D01*
X469627Y1039361D01*
X469629Y1039355D01*
X470672Y1039014D01*
X470680Y1039016D01*
X470683Y1039012D01*
X471776Y1038911D01*
X471778Y1038913D01*
X471780Y1038911D01*
X477780Y1038911D01*
X477783Y1038913D01*
G37*
G36*
X15503Y1038913D02*
X15503Y1038913D01*
X15505Y1038911D01*
X16597Y1039012D01*
X16603Y1039017D01*
X16608Y1039014D01*
X17651Y1039355D01*
X17656Y1039362D01*
X17661Y1039360D01*
X18602Y1039924D01*
X18605Y1039932D01*
X18611Y1039931D01*
X19403Y1040691D01*
X19404Y1040699D01*
X19410Y1040700D01*
X20013Y1041617D01*
X20012Y1041625D01*
X20018Y1041627D01*
X20401Y1042655D01*
X20399Y1042663D01*
X20404Y1042666D01*
X20549Y1043754D01*
X20545Y1043761D01*
X20549Y1043765D01*
X20443Y1044902D01*
X20438Y1044908D01*
X20441Y1044913D01*
X20085Y1045998D01*
X20078Y1046003D01*
X20081Y1046008D01*
X19492Y1046987D01*
X19484Y1046990D01*
X19485Y1046996D01*
X18693Y1047819D01*
X18685Y1047820D01*
X18685Y1047826D01*
X17730Y1048453D01*
X17722Y1048452D01*
X17720Y1048458D01*
X16650Y1048856D01*
X16642Y1048854D01*
X16639Y1048859D01*
X15506Y1049009D01*
X15503Y1049007D01*
X15502Y1049007D01*
X15500Y1049009D01*
X9500Y1049009D01*
X9497Y1049007D01*
X9495Y1049007D01*
X9494Y1049009D01*
X8361Y1048859D01*
X8355Y1048853D01*
X8350Y1048856D01*
X7280Y1048458D01*
X7276Y1048451D01*
X7270Y1048453D01*
X6315Y1047826D01*
X6312Y1047818D01*
X6307Y1047819D01*
X5515Y1046996D01*
X5514Y1046988D01*
X5508Y1046987D01*
X4919Y1046008D01*
X4920Y1046000D01*
X4915Y1045998D01*
X4559Y1044913D01*
X4562Y1044905D01*
X4557Y1044902D01*
X4451Y1043765D01*
X4455Y1043758D01*
X4451Y1043754D01*
X4596Y1042666D01*
X4602Y1042660D01*
X4599Y1042655D01*
X4983Y1041627D01*
X4989Y1041622D01*
X4988Y1041617D01*
X5590Y1040700D01*
X5598Y1040697D01*
X5597Y1040691D01*
X6389Y1039931D01*
X6397Y1039930D01*
X6398Y1039924D01*
X7339Y1039360D01*
X7347Y1039361D01*
X7349Y1039355D01*
X8392Y1039014D01*
X8400Y1039016D01*
X8403Y1039012D01*
X9496Y1038911D01*
X9498Y1038913D01*
X9500Y1038911D01*
X15500Y1038911D01*
X15503Y1038913D01*
G37*
G36*
X477783Y602033D02*
X477783Y602033D01*
X477785Y602031D01*
X478877Y602132D01*
X478883Y602137D01*
X478888Y602134D01*
X479931Y602475D01*
X479936Y602482D01*
X479941Y602480D01*
X480882Y603044D01*
X480885Y603052D01*
X480891Y603051D01*
X481683Y603811D01*
X481684Y603819D01*
X481690Y603820D01*
X482293Y604737D01*
X482292Y604745D01*
X482298Y604747D01*
X482681Y605775D01*
X482679Y605783D01*
X482684Y605786D01*
X482829Y606874D01*
X482825Y606881D01*
X482829Y606885D01*
X482723Y608022D01*
X482718Y608028D01*
X482721Y608033D01*
X482365Y609118D01*
X482358Y609123D01*
X482361Y609128D01*
X481772Y610107D01*
X481764Y610110D01*
X481765Y610116D01*
X480973Y610939D01*
X480965Y610940D01*
X480965Y610946D01*
X480010Y611573D01*
X480002Y611572D01*
X480000Y611578D01*
X478930Y611976D01*
X478922Y611974D01*
X478919Y611979D01*
X477786Y612129D01*
X477783Y612127D01*
X477782Y612127D01*
X477780Y612129D01*
X471780Y612129D01*
X471777Y612127D01*
X471775Y612127D01*
X471774Y612129D01*
X470641Y611979D01*
X470635Y611973D01*
X470630Y611976D01*
X469560Y611578D01*
X469556Y611571D01*
X469550Y611573D01*
X468595Y610946D01*
X468592Y610938D01*
X468587Y610939D01*
X467795Y610116D01*
X467794Y610108D01*
X467788Y610107D01*
X467199Y609128D01*
X467200Y609120D01*
X467195Y609118D01*
X466839Y608033D01*
X466842Y608025D01*
X466837Y608022D01*
X466731Y606885D01*
X466735Y606878D01*
X466731Y606874D01*
X466876Y605786D01*
X466882Y605780D01*
X466879Y605775D01*
X467263Y604747D01*
X467269Y604742D01*
X467268Y604737D01*
X467870Y603820D01*
X467878Y603817D01*
X467877Y603811D01*
X468669Y603051D01*
X468677Y603050D01*
X468678Y603044D01*
X469619Y602480D01*
X469627Y602481D01*
X469629Y602475D01*
X470672Y602134D01*
X470680Y602136D01*
X470683Y602132D01*
X471776Y602031D01*
X471778Y602033D01*
X471780Y602031D01*
X477780Y602031D01*
X477783Y602033D01*
G37*
G36*
X15503Y602033D02*
X15503Y602033D01*
X15505Y602031D01*
X16597Y602132D01*
X16603Y602137D01*
X16608Y602134D01*
X17651Y602475D01*
X17656Y602482D01*
X17661Y602480D01*
X18602Y603044D01*
X18605Y603052D01*
X18611Y603051D01*
X19403Y603811D01*
X19404Y603819D01*
X19410Y603820D01*
X20013Y604737D01*
X20012Y604745D01*
X20018Y604747D01*
X20401Y605775D01*
X20399Y605783D01*
X20404Y605786D01*
X20549Y606874D01*
X20545Y606881D01*
X20549Y606885D01*
X20443Y608022D01*
X20438Y608028D01*
X20441Y608033D01*
X20085Y609118D01*
X20078Y609123D01*
X20081Y609128D01*
X19492Y610107D01*
X19484Y610110D01*
X19485Y610116D01*
X18693Y610939D01*
X18685Y610940D01*
X18685Y610946D01*
X17730Y611573D01*
X17722Y611572D01*
X17720Y611578D01*
X16650Y611976D01*
X16642Y611974D01*
X16639Y611979D01*
X15506Y612129D01*
X15503Y612127D01*
X15502Y612127D01*
X15500Y612129D01*
X9500Y612129D01*
X9497Y612127D01*
X9495Y612127D01*
X9494Y612129D01*
X8361Y611979D01*
X8355Y611973D01*
X8350Y611976D01*
X7280Y611578D01*
X7276Y611571D01*
X7270Y611573D01*
X6315Y610946D01*
X6312Y610938D01*
X6307Y610939D01*
X5515Y610116D01*
X5514Y610108D01*
X5508Y610107D01*
X4919Y609128D01*
X4920Y609120D01*
X4915Y609118D01*
X4559Y608033D01*
X4562Y608025D01*
X4557Y608022D01*
X4451Y606885D01*
X4455Y606878D01*
X4451Y606874D01*
X4596Y605786D01*
X4602Y605780D01*
X4599Y605775D01*
X4983Y604747D01*
X4989Y604742D01*
X4988Y604737D01*
X5590Y603820D01*
X5598Y603817D01*
X5597Y603811D01*
X6389Y603051D01*
X6397Y603050D01*
X6398Y603044D01*
X7339Y602480D01*
X7347Y602481D01*
X7349Y602475D01*
X8392Y602134D01*
X8400Y602136D01*
X8403Y602132D01*
X9496Y602031D01*
X9498Y602033D01*
X9500Y602031D01*
X15500Y602031D01*
X15503Y602033D01*
G37*
G36*
X477783Y165153D02*
X477783Y165153D01*
X477785Y165151D01*
X478877Y165252D01*
X478883Y165257D01*
X478888Y165254D01*
X479931Y165595D01*
X479936Y165602D01*
X479941Y165600D01*
X480882Y166164D01*
X480885Y166172D01*
X480891Y166171D01*
X481683Y166931D01*
X481684Y166939D01*
X481690Y166940D01*
X482293Y167857D01*
X482292Y167865D01*
X482298Y167867D01*
X482681Y168895D01*
X482679Y168903D01*
X482684Y168906D01*
X482829Y169994D01*
X482825Y170001D01*
X482829Y170005D01*
X482723Y171142D01*
X482718Y171148D01*
X482721Y171153D01*
X482365Y172238D01*
X482358Y172243D01*
X482361Y172248D01*
X481772Y173227D01*
X481764Y173230D01*
X481765Y173236D01*
X480973Y174059D01*
X480965Y174060D01*
X480965Y174066D01*
X480010Y174693D01*
X480002Y174692D01*
X480000Y174698D01*
X478930Y175096D01*
X478922Y175094D01*
X478919Y175099D01*
X477786Y175249D01*
X477783Y175247D01*
X477782Y175247D01*
X477780Y175249D01*
X471780Y175249D01*
X471777Y175247D01*
X471775Y175247D01*
X471774Y175249D01*
X470641Y175099D01*
X470635Y175093D01*
X470630Y175096D01*
X469560Y174698D01*
X469556Y174691D01*
X469550Y174693D01*
X468595Y174066D01*
X468592Y174058D01*
X468587Y174059D01*
X467795Y173236D01*
X467794Y173228D01*
X467788Y173227D01*
X467199Y172248D01*
X467200Y172240D01*
X467195Y172238D01*
X466839Y171153D01*
X466842Y171145D01*
X466837Y171142D01*
X466731Y170005D01*
X466735Y169998D01*
X466731Y169994D01*
X466876Y168906D01*
X466882Y168900D01*
X466879Y168895D01*
X467263Y167867D01*
X467269Y167862D01*
X467268Y167857D01*
X467870Y166940D01*
X467878Y166937D01*
X467877Y166931D01*
X468669Y166171D01*
X468677Y166170D01*
X468678Y166164D01*
X469619Y165600D01*
X469627Y165601D01*
X469629Y165595D01*
X470672Y165254D01*
X470680Y165256D01*
X470683Y165252D01*
X471776Y165151D01*
X471778Y165153D01*
X471780Y165151D01*
X477780Y165151D01*
X477783Y165153D01*
G37*
G36*
X15503Y165153D02*
X15503Y165153D01*
X15505Y165151D01*
X16597Y165252D01*
X16603Y165257D01*
X16608Y165254D01*
X17651Y165595D01*
X17656Y165602D01*
X17661Y165600D01*
X18602Y166164D01*
X18605Y166172D01*
X18611Y166171D01*
X19403Y166931D01*
X19404Y166939D01*
X19410Y166940D01*
X20013Y167857D01*
X20012Y167865D01*
X20018Y167867D01*
X20401Y168895D01*
X20399Y168903D01*
X20404Y168906D01*
X20549Y169994D01*
X20545Y170001D01*
X20549Y170005D01*
X20443Y171142D01*
X20438Y171148D01*
X20441Y171153D01*
X20085Y172238D01*
X20078Y172243D01*
X20081Y172248D01*
X19492Y173227D01*
X19484Y173230D01*
X19485Y173236D01*
X18693Y174059D01*
X18685Y174060D01*
X18685Y174066D01*
X17730Y174693D01*
X17722Y174692D01*
X17720Y174698D01*
X16650Y175096D01*
X16642Y175094D01*
X16639Y175099D01*
X15506Y175249D01*
X15503Y175247D01*
X15502Y175247D01*
X15500Y175249D01*
X9500Y175249D01*
X9497Y175247D01*
X9495Y175247D01*
X9494Y175249D01*
X8361Y175099D01*
X8355Y175093D01*
X8350Y175096D01*
X7280Y174698D01*
X7276Y174691D01*
X7270Y174693D01*
X6315Y174066D01*
X6312Y174058D01*
X6307Y174059D01*
X5515Y173236D01*
X5514Y173228D01*
X5508Y173227D01*
X4919Y172248D01*
X4920Y172240D01*
X4915Y172238D01*
X4559Y171153D01*
X4562Y171145D01*
X4557Y171142D01*
X4451Y170005D01*
X4455Y169998D01*
X4451Y169994D01*
X4596Y168906D01*
X4602Y168900D01*
X4599Y168895D01*
X4983Y167867D01*
X4989Y167862D01*
X4988Y167857D01*
X5590Y166940D01*
X5598Y166937D01*
X5597Y166931D01*
X6389Y166171D01*
X6397Y166170D01*
X6398Y166164D01*
X7339Y165600D01*
X7347Y165601D01*
X7349Y165595D01*
X8392Y165254D01*
X8400Y165256D01*
X8403Y165252D01*
X9496Y165151D01*
X9498Y165153D01*
X9500Y165151D01*
X15500Y165151D01*
X15503Y165153D01*
G37*
D10*
X60900Y14050D03*
X116900Y14050D03*
D11*
X73900Y50800D03*
X83900Y50800D03*
X93900Y50800D03*
X103900Y50800D03*
D10*
X116900Y417750D03*
X60900Y417750D03*
D11*
X103900Y381000D03*
X93900Y381000D03*
X83900Y381000D03*
X73900Y381000D03*
D12*
X184150Y84700D03*
X184150Y67700D03*
X199390Y84700D03*
X199390Y67700D03*
X110490Y176140D03*
X110490Y159140D03*
D13*
X108300Y310600D03*
D12*
X139700Y80400D03*
X139700Y97400D03*
X88900Y80400D03*
X88900Y97400D03*
D14*
X371150Y299530D02*
X378150Y299530D01*
X378150Y292530D01*
X371150Y292530D01*
X371150Y299530D01*
X371150Y295380D02*
X378150Y295380D01*
X378150Y298230D02*
X371150Y298230D01*
X371150Y317070D02*
X378150Y317070D01*
X378150Y310070D01*
X371150Y310070D01*
X371150Y317070D01*
X371150Y312920D02*
X378150Y312920D01*
X378150Y315770D02*
X371150Y315770D01*
D15*
X128200Y213360D03*
X151200Y213360D03*
D12*
X109220Y194700D03*
X109220Y211700D03*
X374650Y334400D03*
X374650Y351400D03*
X214630Y84700D03*
X214630Y67700D03*
X229870Y84700D03*
X229870Y67700D03*
D16*
X143900Y266700D03*
X160900Y266700D03*
D12*
X158750Y249800D03*
X158750Y232800D03*
D14*
X352100Y299530D02*
X359100Y299530D01*
X359100Y292530D01*
X352100Y292530D01*
X352100Y299530D01*
X352100Y295380D02*
X359100Y295380D01*
X359100Y298230D02*
X352100Y298230D01*
X352100Y317070D02*
X359100Y317070D01*
X359100Y310070D01*
X352100Y310070D01*
X352100Y317070D01*
X352100Y312920D02*
X359100Y312920D01*
X359100Y315770D02*
X352100Y315770D01*
D12*
X355600Y334400D03*
X355600Y351400D03*
D17*
X113999Y250800D03*
X113999Y241300D03*
X113999Y231800D03*
X140001Y231800D03*
X140001Y250800D03*
D12*
X95250Y232800D03*
X95250Y249800D03*
D16*
X131200Y137160D03*
X148200Y137160D03*
X131200Y152400D03*
X148200Y152400D03*
D14*
X390200Y299530D02*
X397200Y299530D01*
X397200Y292530D01*
X390200Y292530D01*
X390200Y299530D01*
X390200Y295380D02*
X397200Y295380D01*
X397200Y298230D02*
X390200Y298230D01*
X390200Y317070D02*
X397200Y317070D01*
X397200Y310070D01*
X390200Y310070D01*
X390200Y317070D01*
X390200Y312920D02*
X397200Y312920D01*
X397200Y315770D02*
X390200Y315770D01*
D12*
X393700Y334400D03*
X393700Y351400D03*
D14*
X409250Y299530D02*
X416250Y299530D01*
X416250Y292530D01*
X409250Y292530D01*
X409250Y299530D01*
X409250Y295380D02*
X416250Y295380D01*
X416250Y298230D02*
X409250Y298230D01*
X409250Y317070D02*
X416250Y317070D01*
X416250Y310070D01*
X409250Y310070D01*
X409250Y317070D01*
X409250Y312920D02*
X416250Y312920D01*
X416250Y315770D02*
X409250Y315770D01*
D12*
X412750Y334400D03*
X412750Y351400D03*
X350520Y223910D03*
X350520Y240910D03*
X350520Y189620D03*
X350520Y206620D03*
D16*
X131200Y167640D03*
X148200Y167640D03*
D18*
X350520Y155490D03*
X350520Y167090D03*
D19*
X328500Y144400D03*
X328500Y155400D03*
X328500Y166400D03*
X328500Y177400D03*
X328500Y188400D03*
X328500Y199400D03*
X328500Y210400D03*
X328500Y221400D03*
X328500Y232400D03*
X328500Y243400D03*
X328500Y254400D03*
X328500Y265400D03*
X328500Y276400D03*
X328500Y287400D03*
D20*
X320000Y315400D03*
X309000Y315400D03*
X298000Y315400D03*
X287000Y315400D03*
X276000Y315400D03*
X265000Y315400D03*
X254000Y315400D03*
X243000Y315400D03*
X232000Y315400D03*
X221000Y315400D03*
X210000Y315400D03*
X199000Y315400D03*
X188000Y315400D03*
D19*
X179500Y287400D03*
X179500Y276400D03*
X179500Y265400D03*
X179500Y254400D03*
X179500Y243400D03*
X179500Y232400D03*
X179500Y221400D03*
X179500Y210400D03*
X179500Y199400D03*
X179500Y188400D03*
X179500Y177400D03*
X179500Y166400D03*
X179500Y155400D03*
X179500Y144400D03*
D20*
X188000Y116400D03*
X199000Y116400D03*
X210000Y116400D03*
X221000Y116400D03*
X232000Y116400D03*
X243000Y116400D03*
X254000Y116400D03*
X265000Y116400D03*
X276000Y116400D03*
X287000Y116400D03*
X298000Y116400D03*
X309000Y116400D03*
X320000Y116400D03*
D21*
X243500Y205400D03*
X243500Y184400D03*
X243500Y163400D03*
X243500Y142400D03*
X223000Y205400D03*
X223000Y184400D03*
X223000Y163400D03*
X223000Y142400D03*
X202500Y205400D03*
X202500Y184400D03*
X202500Y163400D03*
X202500Y142400D03*
X305500Y205400D03*
X305500Y184400D03*
X305500Y163400D03*
X305500Y142400D03*
X285000Y205400D03*
X285000Y184400D03*
X285000Y163400D03*
X285000Y142400D03*
X264500Y205400D03*
X264500Y184400D03*
X264500Y163400D03*
X264500Y142400D03*
X243500Y289400D03*
X243500Y268400D03*
X243500Y247400D03*
X243500Y226400D03*
X223000Y289400D03*
X223000Y268400D03*
X223000Y247400D03*
X223000Y226400D03*
X202500Y289400D03*
X202500Y268400D03*
X202500Y247400D03*
X202500Y226400D03*
X305500Y289400D03*
X305500Y268400D03*
X305500Y247400D03*
X305500Y226400D03*
X285000Y289400D03*
X285000Y268400D03*
X285000Y247400D03*
X285000Y226400D03*
X264500Y289400D03*
X264500Y268400D03*
X264500Y247400D03*
X264500Y226400D03*
D16*
X23250Y69850D03*
X40250Y69850D03*
X23250Y184150D03*
X40250Y184150D03*
D22*
X60100Y119500D03*
X60100Y124500D03*
D23*
X60100Y94750D03*
X60100Y102500D03*
D22*
X60100Y109500D03*
X60100Y114500D03*
X60100Y134500D03*
X60100Y129500D03*
D23*
X60100Y159250D03*
X60100Y151500D03*
D22*
X60100Y144500D03*
X60100Y139500D03*
D12*
X297180Y84700D03*
X297180Y67700D03*
X266700Y84700D03*
X266700Y67700D03*
X281940Y84700D03*
X281940Y67700D03*
X312420Y84700D03*
X312420Y67700D03*
X204470Y347100D03*
X204470Y364100D03*
X189230Y347100D03*
X189230Y364100D03*
D16*
X148200Y198120D03*
X131200Y198120D03*
X131200Y182880D03*
X148200Y182880D03*
D12*
X264160Y347100D03*
X264160Y364100D03*
X279400Y347100D03*
X279400Y364100D03*
D24*
X105170Y135810D03*
D25*
X104920Y130810D03*
X104920Y125810D03*
X113520Y125810D03*
X113520Y130810D03*
X113520Y135810D03*
D10*
X523180Y14050D03*
X579180Y14050D03*
D11*
X536180Y50800D03*
X546180Y50800D03*
X556180Y50800D03*
X566180Y50800D03*
D10*
X579180Y417750D03*
X523180Y417750D03*
D11*
X566180Y381000D03*
X556180Y381000D03*
X546180Y381000D03*
X536180Y381000D03*
D12*
X646430Y84700D03*
X646430Y67700D03*
X661670Y84700D03*
X661670Y67700D03*
X572770Y176140D03*
X572770Y159140D03*
D13*
X570580Y310600D03*
D12*
X601980Y80400D03*
X601980Y97400D03*
X551180Y80400D03*
X551180Y97400D03*
D14*
X833430Y299530D02*
X840430Y299530D01*
X840430Y292530D01*
X833430Y292530D01*
X833430Y299530D01*
X833430Y295380D02*
X840430Y295380D01*
X840430Y298230D02*
X833430Y298230D01*
X833430Y317070D02*
X840430Y317070D01*
X840430Y310070D01*
X833430Y310070D01*
X833430Y317070D01*
X833430Y312920D02*
X840430Y312920D01*
X840430Y315770D02*
X833430Y315770D01*
D15*
X590480Y213360D03*
X613480Y213360D03*
D12*
X571500Y194700D03*
X571500Y211700D03*
X836930Y334400D03*
X836930Y351400D03*
X676910Y84700D03*
X676910Y67700D03*
X692150Y84700D03*
X692150Y67700D03*
D16*
X606180Y266700D03*
X623180Y266700D03*
D12*
X621030Y249800D03*
X621030Y232800D03*
D14*
X814380Y299530D02*
X821380Y299530D01*
X821380Y292530D01*
X814380Y292530D01*
X814380Y299530D01*
X814380Y295380D02*
X821380Y295380D01*
X821380Y298230D02*
X814380Y298230D01*
X814380Y317070D02*
X821380Y317070D01*
X821380Y310070D01*
X814380Y310070D01*
X814380Y317070D01*
X814380Y312920D02*
X821380Y312920D01*
X821380Y315770D02*
X814380Y315770D01*
D12*
X817880Y334400D03*
X817880Y351400D03*
D17*
X576279Y250800D03*
X576279Y241300D03*
X576279Y231800D03*
X602281Y231800D03*
X602281Y250800D03*
D12*
X557530Y232800D03*
X557530Y249800D03*
D16*
X593480Y137160D03*
X610480Y137160D03*
X593480Y152400D03*
X610480Y152400D03*
D14*
X852480Y299530D02*
X859480Y299530D01*
X859480Y292530D01*
X852480Y292530D01*
X852480Y299530D01*
X852480Y295380D02*
X859480Y295380D01*
X859480Y298230D02*
X852480Y298230D01*
X852480Y317070D02*
X859480Y317070D01*
X859480Y310070D01*
X852480Y310070D01*
X852480Y317070D01*
X852480Y312920D02*
X859480Y312920D01*
X859480Y315770D02*
X852480Y315770D01*
D12*
X855980Y334400D03*
X855980Y351400D03*
D14*
X871530Y299530D02*
X878530Y299530D01*
X878530Y292530D01*
X871530Y292530D01*
X871530Y299530D01*
X871530Y295380D02*
X878530Y295380D01*
X878530Y298230D02*
X871530Y298230D01*
X871530Y317070D02*
X878530Y317070D01*
X878530Y310070D01*
X871530Y310070D01*
X871530Y317070D01*
X871530Y312920D02*
X878530Y312920D01*
X878530Y315770D02*
X871530Y315770D01*
D12*
X875030Y334400D03*
X875030Y351400D03*
X812800Y223910D03*
X812800Y240910D03*
X812800Y189620D03*
X812800Y206620D03*
D16*
X593480Y167640D03*
X610480Y167640D03*
D18*
X812800Y155490D03*
X812800Y167090D03*
D19*
X790780Y144400D03*
X790780Y155400D03*
X790780Y166400D03*
X790780Y177400D03*
X790780Y188400D03*
X790780Y199400D03*
X790780Y210400D03*
X790780Y221400D03*
X790780Y232400D03*
X790780Y243400D03*
X790780Y254400D03*
X790780Y265400D03*
X790780Y276400D03*
X790780Y287400D03*
D20*
X782280Y315400D03*
X771280Y315400D03*
X760280Y315400D03*
X749280Y315400D03*
X738280Y315400D03*
X727280Y315400D03*
X716280Y315400D03*
X705280Y315400D03*
X694280Y315400D03*
X683280Y315400D03*
X672280Y315400D03*
X661280Y315400D03*
X650280Y315400D03*
D19*
X641780Y287400D03*
X641780Y276400D03*
X641780Y265400D03*
X641780Y254400D03*
X641780Y243400D03*
X641780Y232400D03*
X641780Y221400D03*
X641780Y210400D03*
X641780Y199400D03*
X641780Y188400D03*
X641780Y177400D03*
X641780Y166400D03*
X641780Y155400D03*
X641780Y144400D03*
D20*
X650280Y116400D03*
X661280Y116400D03*
X672280Y116400D03*
X683280Y116400D03*
X694280Y116400D03*
X705280Y116400D03*
X716280Y116400D03*
X727280Y116400D03*
X738280Y116400D03*
X749280Y116400D03*
X760280Y116400D03*
X771280Y116400D03*
X782280Y116400D03*
D21*
X705780Y205400D03*
X705780Y184400D03*
X705780Y163400D03*
X705780Y142400D03*
X685280Y205400D03*
X685280Y184400D03*
X685280Y163400D03*
X685280Y142400D03*
X664780Y205400D03*
X664780Y184400D03*
X664780Y163400D03*
X664780Y142400D03*
X767780Y205400D03*
X767780Y184400D03*
X767780Y163400D03*
X767780Y142400D03*
X747280Y205400D03*
X747280Y184400D03*
X747280Y163400D03*
X747280Y142400D03*
X726780Y205400D03*
X726780Y184400D03*
X726780Y163400D03*
X726780Y142400D03*
X705780Y289400D03*
X705780Y268400D03*
X705780Y247400D03*
X705780Y226400D03*
X685280Y289400D03*
X685280Y268400D03*
X685280Y247400D03*
X685280Y226400D03*
X664780Y289400D03*
X664780Y268400D03*
X664780Y247400D03*
X664780Y226400D03*
X767780Y289400D03*
X767780Y268400D03*
X767780Y247400D03*
X767780Y226400D03*
X747280Y289400D03*
X747280Y268400D03*
X747280Y247400D03*
X747280Y226400D03*
X726780Y289400D03*
X726780Y268400D03*
X726780Y247400D03*
X726780Y226400D03*
D16*
X485530Y69850D03*
X502530Y69850D03*
X485530Y184150D03*
X502530Y184150D03*
D22*
X522380Y119500D03*
X522380Y124500D03*
D23*
X522380Y94750D03*
X522380Y102500D03*
D22*
X522380Y109500D03*
X522380Y114500D03*
X522380Y134500D03*
X522380Y129500D03*
D23*
X522380Y159250D03*
X522380Y151500D03*
D22*
X522380Y144500D03*
X522380Y139500D03*
D12*
X759460Y84700D03*
X759460Y67700D03*
X728980Y84700D03*
X728980Y67700D03*
X744220Y84700D03*
X744220Y67700D03*
X774700Y84700D03*
X774700Y67700D03*
X666750Y347100D03*
X666750Y364100D03*
X651510Y347100D03*
X651510Y364100D03*
D16*
X610480Y198120D03*
X593480Y198120D03*
X593480Y182880D03*
X610480Y182880D03*
D12*
X726440Y347100D03*
X726440Y364100D03*
X741680Y347100D03*
X741680Y364100D03*
D24*
X567450Y135810D03*
D25*
X567200Y130810D03*
X567200Y125810D03*
X575800Y125810D03*
X575800Y130810D03*
X575800Y135810D03*
D10*
X60900Y450930D03*
X116900Y450930D03*
D11*
X73900Y487680D03*
X83900Y487680D03*
X93900Y487680D03*
X103900Y487680D03*
D10*
X116900Y854630D03*
X60900Y854630D03*
D11*
X103900Y817880D03*
X93900Y817880D03*
X83900Y817880D03*
X73900Y817880D03*
D12*
X184150Y521580D03*
X184150Y504580D03*
X199390Y521580D03*
X199390Y504580D03*
X110490Y613020D03*
X110490Y596020D03*
D13*
X108300Y747480D03*
D12*
X139700Y517280D03*
X139700Y534280D03*
X88900Y517280D03*
X88900Y534280D03*
D14*
X371150Y736410D02*
X378150Y736410D01*
X378150Y729410D01*
X371150Y729410D01*
X371150Y736410D01*
X371150Y732260D02*
X378150Y732260D01*
X378150Y735110D02*
X371150Y735110D01*
X371150Y753950D02*
X378150Y753950D01*
X378150Y746950D01*
X371150Y746950D01*
X371150Y753950D01*
X371150Y749800D02*
X378150Y749800D01*
X378150Y752650D02*
X371150Y752650D01*
D15*
X128200Y650240D03*
X151200Y650240D03*
D12*
X109220Y631580D03*
X109220Y648580D03*
X374650Y771280D03*
X374650Y788280D03*
X214630Y521580D03*
X214630Y504580D03*
X229870Y521580D03*
X229870Y504580D03*
D16*
X143900Y703580D03*
X160900Y703580D03*
D12*
X158750Y686680D03*
X158750Y669680D03*
D14*
X352100Y736410D02*
X359100Y736410D01*
X359100Y729410D01*
X352100Y729410D01*
X352100Y736410D01*
X352100Y732260D02*
X359100Y732260D01*
X359100Y735110D02*
X352100Y735110D01*
X352100Y753950D02*
X359100Y753950D01*
X359100Y746950D01*
X352100Y746950D01*
X352100Y753950D01*
X352100Y749800D02*
X359100Y749800D01*
X359100Y752650D02*
X352100Y752650D01*
D12*
X355600Y771280D03*
X355600Y788280D03*
D17*
X113999Y687680D03*
X113999Y678180D03*
X113999Y668680D03*
X140001Y668680D03*
X140001Y687680D03*
D12*
X95250Y669680D03*
X95250Y686680D03*
D16*
X131200Y574040D03*
X148200Y574040D03*
X131200Y589280D03*
X148200Y589280D03*
D14*
X390200Y736410D02*
X397200Y736410D01*
X397200Y729410D01*
X390200Y729410D01*
X390200Y736410D01*
X390200Y732260D02*
X397200Y732260D01*
X397200Y735110D02*
X390200Y735110D01*
X390200Y753950D02*
X397200Y753950D01*
X397200Y746950D01*
X390200Y746950D01*
X390200Y753950D01*
X390200Y749800D02*
X397200Y749800D01*
X397200Y752650D02*
X390200Y752650D01*
D12*
X393700Y771280D03*
X393700Y788280D03*
D14*
X409250Y736410D02*
X416250Y736410D01*
X416250Y729410D01*
X409250Y729410D01*
X409250Y736410D01*
X409250Y732260D02*
X416250Y732260D01*
X416250Y735110D02*
X409250Y735110D01*
X409250Y753950D02*
X416250Y753950D01*
X416250Y746950D01*
X409250Y746950D01*
X409250Y753950D01*
X409250Y749800D02*
X416250Y749800D01*
X416250Y752650D02*
X409250Y752650D01*
D12*
X412750Y771280D03*
X412750Y788280D03*
X350520Y660790D03*
X350520Y677790D03*
X350520Y626500D03*
X350520Y643500D03*
D16*
X131200Y604520D03*
X148200Y604520D03*
D18*
X350520Y592370D03*
X350520Y603970D03*
D19*
X328500Y581280D03*
X328500Y592280D03*
X328500Y603280D03*
X328500Y614280D03*
X328500Y625280D03*
X328500Y636280D03*
X328500Y647280D03*
X328500Y658280D03*
X328500Y669280D03*
X328500Y680280D03*
X328500Y691280D03*
X328500Y702280D03*
X328500Y713280D03*
X328500Y724280D03*
D20*
X320000Y752280D03*
X309000Y752280D03*
X298000Y752280D03*
X287000Y752280D03*
X276000Y752280D03*
X265000Y752280D03*
X254000Y752280D03*
X243000Y752280D03*
X232000Y752280D03*
X221000Y752280D03*
X210000Y752280D03*
X199000Y752280D03*
X188000Y752280D03*
D19*
X179500Y724280D03*
X179500Y713280D03*
X179500Y702280D03*
X179500Y691280D03*
X179500Y680280D03*
X179500Y669280D03*
X179500Y658280D03*
X179500Y647280D03*
X179500Y636280D03*
X179500Y625280D03*
X179500Y614280D03*
X179500Y603280D03*
X179500Y592280D03*
X179500Y581280D03*
D20*
X188000Y553280D03*
X199000Y553280D03*
X210000Y553280D03*
X221000Y553280D03*
X232000Y553280D03*
X243000Y553280D03*
X254000Y553280D03*
X265000Y553280D03*
X276000Y553280D03*
X287000Y553280D03*
X298000Y553280D03*
X309000Y553280D03*
X320000Y553280D03*
D21*
X243500Y642280D03*
X243500Y621280D03*
X243500Y600280D03*
X243500Y579280D03*
X223000Y642280D03*
X223000Y621280D03*
X223000Y600280D03*
X223000Y579280D03*
X202500Y642280D03*
X202500Y621280D03*
X202500Y600280D03*
X202500Y579280D03*
X305500Y642280D03*
X305500Y621280D03*
X305500Y600280D03*
X305500Y579280D03*
X285000Y642280D03*
X285000Y621280D03*
X285000Y600280D03*
X285000Y579280D03*
X264500Y642280D03*
X264500Y621280D03*
X264500Y600280D03*
X264500Y579280D03*
X243500Y726280D03*
X243500Y705280D03*
X243500Y684280D03*
X243500Y663280D03*
X223000Y726280D03*
X223000Y705280D03*
X223000Y684280D03*
X223000Y663280D03*
X202500Y726280D03*
X202500Y705280D03*
X202500Y684280D03*
X202500Y663280D03*
X305500Y726280D03*
X305500Y705280D03*
X305500Y684280D03*
X305500Y663280D03*
X285000Y726280D03*
X285000Y705280D03*
X285000Y684280D03*
X285000Y663280D03*
X264500Y726280D03*
X264500Y705280D03*
X264500Y684280D03*
X264500Y663280D03*
D16*
X23250Y506730D03*
X40250Y506730D03*
X23250Y621030D03*
X40250Y621030D03*
D22*
X60100Y556380D03*
X60100Y561380D03*
D23*
X60100Y531630D03*
X60100Y539380D03*
D22*
X60100Y546380D03*
X60100Y551380D03*
X60100Y571380D03*
X60100Y566380D03*
D23*
X60100Y596130D03*
X60100Y588380D03*
D22*
X60100Y581380D03*
X60100Y576380D03*
D12*
X297180Y521580D03*
X297180Y504580D03*
X266700Y521580D03*
X266700Y504580D03*
X281940Y521580D03*
X281940Y504580D03*
X312420Y521580D03*
X312420Y504580D03*
X204470Y783980D03*
X204470Y800980D03*
X189230Y783980D03*
X189230Y800980D03*
D16*
X148200Y635000D03*
X131200Y635000D03*
X131200Y619760D03*
X148200Y619760D03*
D12*
X264160Y783980D03*
X264160Y800980D03*
X279400Y783980D03*
X279400Y800980D03*
D24*
X105170Y572690D03*
D25*
X104920Y567690D03*
X104920Y562690D03*
X113520Y562690D03*
X113520Y567690D03*
X113520Y572690D03*
D10*
X523180Y450930D03*
X579180Y450930D03*
D11*
X536180Y487680D03*
X546180Y487680D03*
X556180Y487680D03*
X566180Y487680D03*
D10*
X579180Y854630D03*
X523180Y854630D03*
D11*
X566180Y817880D03*
X556180Y817880D03*
X546180Y817880D03*
X536180Y817880D03*
D12*
X646430Y521580D03*
X646430Y504580D03*
X661670Y521580D03*
X661670Y504580D03*
X572770Y613020D03*
X572770Y596020D03*
D13*
X570580Y747480D03*
D12*
X601980Y517280D03*
X601980Y534280D03*
X551180Y517280D03*
X551180Y534280D03*
D14*
X833430Y736410D02*
X840430Y736410D01*
X840430Y729410D01*
X833430Y729410D01*
X833430Y736410D01*
X833430Y732260D02*
X840430Y732260D01*
X840430Y735110D02*
X833430Y735110D01*
X833430Y753950D02*
X840430Y753950D01*
X840430Y746950D01*
X833430Y746950D01*
X833430Y753950D01*
X833430Y749800D02*
X840430Y749800D01*
X840430Y752650D02*
X833430Y752650D01*
D15*
X590480Y650240D03*
X613480Y650240D03*
D12*
X571500Y631580D03*
X571500Y648580D03*
X836930Y771280D03*
X836930Y788280D03*
X676910Y521580D03*
X676910Y504580D03*
X692150Y521580D03*
X692150Y504580D03*
D16*
X606180Y703580D03*
X623180Y703580D03*
D12*
X621030Y686680D03*
X621030Y669680D03*
D14*
X814380Y736410D02*
X821380Y736410D01*
X821380Y729410D01*
X814380Y729410D01*
X814380Y736410D01*
X814380Y732260D02*
X821380Y732260D01*
X821380Y735110D02*
X814380Y735110D01*
X814380Y753950D02*
X821380Y753950D01*
X821380Y746950D01*
X814380Y746950D01*
X814380Y753950D01*
X814380Y749800D02*
X821380Y749800D01*
X821380Y752650D02*
X814380Y752650D01*
D12*
X817880Y771280D03*
X817880Y788280D03*
D17*
X576279Y687680D03*
X576279Y678180D03*
X576279Y668680D03*
X602281Y668680D03*
X602281Y687680D03*
D12*
X557530Y669680D03*
X557530Y686680D03*
D16*
X593480Y574040D03*
X610480Y574040D03*
X593480Y589280D03*
X610480Y589280D03*
D14*
X852480Y736410D02*
X859480Y736410D01*
X859480Y729410D01*
X852480Y729410D01*
X852480Y736410D01*
X852480Y732260D02*
X859480Y732260D01*
X859480Y735110D02*
X852480Y735110D01*
X852480Y753950D02*
X859480Y753950D01*
X859480Y746950D01*
X852480Y746950D01*
X852480Y753950D01*
X852480Y749800D02*
X859480Y749800D01*
X859480Y752650D02*
X852480Y752650D01*
D12*
X855980Y771280D03*
X855980Y788280D03*
D14*
X871530Y736410D02*
X878530Y736410D01*
X878530Y729410D01*
X871530Y729410D01*
X871530Y736410D01*
X871530Y732260D02*
X878530Y732260D01*
X878530Y735110D02*
X871530Y735110D01*
X871530Y753950D02*
X878530Y753950D01*
X878530Y746950D01*
X871530Y746950D01*
X871530Y753950D01*
X871530Y749800D02*
X878530Y749800D01*
X878530Y752650D02*
X871530Y752650D01*
D12*
X875030Y771280D03*
X875030Y788280D03*
X812800Y660790D03*
X812800Y677790D03*
X812800Y626500D03*
X812800Y643500D03*
D16*
X593480Y604520D03*
X610480Y604520D03*
D18*
X812800Y592370D03*
X812800Y603970D03*
D19*
X790780Y581280D03*
X790780Y592280D03*
X790780Y603280D03*
X790780Y614280D03*
X790780Y625280D03*
X790780Y636280D03*
X790780Y647280D03*
X790780Y658280D03*
X790780Y669280D03*
X790780Y680280D03*
X790780Y691280D03*
X790780Y702280D03*
X790780Y713280D03*
X790780Y724280D03*
D20*
X782280Y752280D03*
X771280Y752280D03*
X760280Y752280D03*
X749280Y752280D03*
X738280Y752280D03*
X727280Y752280D03*
X716280Y752280D03*
X705280Y752280D03*
X694280Y752280D03*
X683280Y752280D03*
X672280Y752280D03*
X661280Y752280D03*
X650280Y752280D03*
D19*
X641780Y724280D03*
X641780Y713280D03*
X641780Y702280D03*
X641780Y691280D03*
X641780Y680280D03*
X641780Y669280D03*
X641780Y658280D03*
X641780Y647280D03*
X641780Y636280D03*
X641780Y625280D03*
X641780Y614280D03*
X641780Y603280D03*
X641780Y592280D03*
X641780Y581280D03*
D20*
X650280Y553280D03*
X661280Y553280D03*
X672280Y553280D03*
X683280Y553280D03*
X694280Y553280D03*
X705280Y553280D03*
X716280Y553280D03*
X727280Y553280D03*
X738280Y553280D03*
X749280Y553280D03*
X760280Y553280D03*
X771280Y553280D03*
X782280Y553280D03*
D21*
X705780Y642280D03*
X705780Y621280D03*
X705780Y600280D03*
X705780Y579280D03*
X685280Y642280D03*
X685280Y621280D03*
X685280Y600280D03*
X685280Y579280D03*
X664780Y642280D03*
X664780Y621280D03*
X664780Y600280D03*
X664780Y579280D03*
X767780Y642280D03*
X767780Y621280D03*
X767780Y600280D03*
X767780Y579280D03*
X747280Y642280D03*
X747280Y621280D03*
X747280Y600280D03*
X747280Y579280D03*
X726780Y642280D03*
X726780Y621280D03*
X726780Y600280D03*
X726780Y579280D03*
X705780Y726280D03*
X705780Y705280D03*
X705780Y684280D03*
X705780Y663280D03*
X685280Y726280D03*
X685280Y705280D03*
X685280Y684280D03*
X685280Y663280D03*
X664780Y726280D03*
X664780Y705280D03*
X664780Y684280D03*
X664780Y663280D03*
X767780Y726280D03*
X767780Y705280D03*
X767780Y684280D03*
X767780Y663280D03*
X747280Y726280D03*
X747280Y705280D03*
X747280Y684280D03*
X747280Y663280D03*
X726780Y726280D03*
X726780Y705280D03*
X726780Y684280D03*
X726780Y663280D03*
D16*
X485530Y506730D03*
X502530Y506730D03*
X485530Y621030D03*
X502530Y621030D03*
D22*
X522380Y556380D03*
X522380Y561380D03*
D23*
X522380Y531630D03*
X522380Y539380D03*
D22*
X522380Y546380D03*
X522380Y551380D03*
X522380Y571380D03*
X522380Y566380D03*
D23*
X522380Y596130D03*
X522380Y588380D03*
D22*
X522380Y581380D03*
X522380Y576380D03*
D12*
X759460Y521580D03*
X759460Y504580D03*
X728980Y521580D03*
X728980Y504580D03*
X744220Y521580D03*
X744220Y504580D03*
X774700Y521580D03*
X774700Y504580D03*
X666750Y783980D03*
X666750Y800980D03*
X651510Y783980D03*
X651510Y800980D03*
D16*
X610480Y635000D03*
X593480Y635000D03*
X593480Y619760D03*
X610480Y619760D03*
D12*
X726440Y783980D03*
X726440Y800980D03*
X741680Y783980D03*
X741680Y800980D03*
D24*
X567450Y572690D03*
D25*
X567200Y567690D03*
X567200Y562690D03*
X575800Y562690D03*
X575800Y567690D03*
X575800Y572690D03*
D10*
X60900Y887810D03*
X116900Y887810D03*
D11*
X73900Y924560D03*
X83900Y924560D03*
X93900Y924560D03*
X103900Y924560D03*
D10*
X116900Y1291510D03*
X60900Y1291510D03*
D11*
X103900Y1254760D03*
X93900Y1254760D03*
X83900Y1254760D03*
X73900Y1254760D03*
D12*
X184150Y958460D03*
X184150Y941460D03*
X199390Y958460D03*
X199390Y941460D03*
X110490Y1049900D03*
X110490Y1032900D03*
D13*
X108300Y1184360D03*
D12*
X139700Y954160D03*
X139700Y971160D03*
X88900Y954160D03*
X88900Y971160D03*
D14*
X371150Y1173290D02*
X378150Y1173290D01*
X378150Y1166290D01*
X371150Y1166290D01*
X371150Y1173290D01*
X371150Y1169140D02*
X378150Y1169140D01*
X378150Y1171990D02*
X371150Y1171990D01*
X371150Y1190830D02*
X378150Y1190830D01*
X378150Y1183830D01*
X371150Y1183830D01*
X371150Y1190830D01*
X371150Y1186680D02*
X378150Y1186680D01*
X378150Y1189530D02*
X371150Y1189530D01*
D15*
X128200Y1087120D03*
X151200Y1087120D03*
D12*
X109220Y1068460D03*
X109220Y1085460D03*
X374650Y1208160D03*
X374650Y1225160D03*
X214630Y958460D03*
X214630Y941460D03*
X229870Y958460D03*
X229870Y941460D03*
D16*
X143900Y1140460D03*
X160900Y1140460D03*
D12*
X158750Y1123560D03*
X158750Y1106560D03*
D14*
X352100Y1173290D02*
X359100Y1173290D01*
X359100Y1166290D01*
X352100Y1166290D01*
X352100Y1173290D01*
X352100Y1169140D02*
X359100Y1169140D01*
X359100Y1171990D02*
X352100Y1171990D01*
X352100Y1190830D02*
X359100Y1190830D01*
X359100Y1183830D01*
X352100Y1183830D01*
X352100Y1190830D01*
X352100Y1186680D02*
X359100Y1186680D01*
X359100Y1189530D02*
X352100Y1189530D01*
D12*
X355600Y1208160D03*
X355600Y1225160D03*
D17*
X113999Y1124560D03*
X113999Y1115060D03*
X113999Y1105560D03*
X140001Y1105560D03*
X140001Y1124560D03*
D12*
X95250Y1106560D03*
X95250Y1123560D03*
D16*
X131200Y1010920D03*
X148200Y1010920D03*
X131200Y1026160D03*
X148200Y1026160D03*
D14*
X390200Y1173290D02*
X397200Y1173290D01*
X397200Y1166290D01*
X390200Y1166290D01*
X390200Y1173290D01*
X390200Y1169140D02*
X397200Y1169140D01*
X397200Y1171990D02*
X390200Y1171990D01*
X390200Y1190830D02*
X397200Y1190830D01*
X397200Y1183830D01*
X390200Y1183830D01*
X390200Y1190830D01*
X390200Y1186680D02*
X397200Y1186680D01*
X397200Y1189530D02*
X390200Y1189530D01*
D12*
X393700Y1208160D03*
X393700Y1225160D03*
D14*
X409250Y1173290D02*
X416250Y1173290D01*
X416250Y1166290D01*
X409250Y1166290D01*
X409250Y1173290D01*
X409250Y1169140D02*
X416250Y1169140D01*
X416250Y1171990D02*
X409250Y1171990D01*
X409250Y1190830D02*
X416250Y1190830D01*
X416250Y1183830D01*
X409250Y1183830D01*
X409250Y1190830D01*
X409250Y1186680D02*
X416250Y1186680D01*
X416250Y1189530D02*
X409250Y1189530D01*
D12*
X412750Y1208160D03*
X412750Y1225160D03*
X350520Y1097670D03*
X350520Y1114670D03*
X350520Y1063380D03*
X350520Y1080380D03*
D16*
X131200Y1041400D03*
X148200Y1041400D03*
D18*
X350520Y1029250D03*
X350520Y1040850D03*
D19*
X328500Y1018160D03*
X328500Y1029160D03*
X328500Y1040160D03*
X328500Y1051160D03*
X328500Y1062160D03*
X328500Y1073160D03*
X328500Y1084160D03*
X328500Y1095160D03*
X328500Y1106160D03*
X328500Y1117160D03*
X328500Y1128160D03*
X328500Y1139160D03*
X328500Y1150160D03*
X328500Y1161160D03*
D20*
X320000Y1189160D03*
X309000Y1189160D03*
X298000Y1189160D03*
X287000Y1189160D03*
X276000Y1189160D03*
X265000Y1189160D03*
X254000Y1189160D03*
X243000Y1189160D03*
X232000Y1189160D03*
X221000Y1189160D03*
X210000Y1189160D03*
X199000Y1189160D03*
X188000Y1189160D03*
D19*
X179500Y1161160D03*
X179500Y1150160D03*
X179500Y1139160D03*
X179500Y1128160D03*
X179500Y1117160D03*
X179500Y1106160D03*
X179500Y1095160D03*
X179500Y1084160D03*
X179500Y1073160D03*
X179500Y1062160D03*
X179500Y1051160D03*
X179500Y1040160D03*
X179500Y1029160D03*
X179500Y1018160D03*
D20*
X188000Y990160D03*
X199000Y990160D03*
X210000Y990160D03*
X221000Y990160D03*
X232000Y990160D03*
X243000Y990160D03*
X254000Y990160D03*
X265000Y990160D03*
X276000Y990160D03*
X287000Y990160D03*
X298000Y990160D03*
X309000Y990160D03*
X320000Y990160D03*
D21*
X243500Y1079160D03*
X243500Y1058160D03*
X243500Y1037160D03*
X243500Y1016160D03*
X223000Y1079160D03*
X223000Y1058160D03*
X223000Y1037160D03*
X223000Y1016160D03*
X202500Y1079160D03*
X202500Y1058160D03*
X202500Y1037160D03*
X202500Y1016160D03*
X305500Y1079160D03*
X305500Y1058160D03*
X305500Y1037160D03*
X305500Y1016160D03*
X285000Y1079160D03*
X285000Y1058160D03*
X285000Y1037160D03*
X285000Y1016160D03*
X264500Y1079160D03*
X264500Y1058160D03*
X264500Y1037160D03*
X264500Y1016160D03*
X243500Y1163160D03*
X243500Y1142160D03*
X243500Y1121160D03*
X243500Y1100160D03*
X223000Y1163160D03*
X223000Y1142160D03*
X223000Y1121160D03*
X223000Y1100160D03*
X202500Y1163160D03*
X202500Y1142160D03*
X202500Y1121160D03*
X202500Y1100160D03*
X305500Y1163160D03*
X305500Y1142160D03*
X305500Y1121160D03*
X305500Y1100160D03*
X285000Y1163160D03*
X285000Y1142160D03*
X285000Y1121160D03*
X285000Y1100160D03*
X264500Y1163160D03*
X264500Y1142160D03*
X264500Y1121160D03*
X264500Y1100160D03*
D16*
X23250Y943610D03*
X40250Y943610D03*
X23250Y1057910D03*
X40250Y1057910D03*
D22*
X60100Y993260D03*
X60100Y998260D03*
D23*
X60100Y968510D03*
X60100Y976260D03*
D22*
X60100Y983260D03*
X60100Y988260D03*
X60100Y1008260D03*
X60100Y1003260D03*
D23*
X60100Y1033010D03*
X60100Y1025260D03*
D22*
X60100Y1018260D03*
X60100Y1013260D03*
D12*
X297180Y958460D03*
X297180Y941460D03*
X266700Y958460D03*
X266700Y941460D03*
X281940Y958460D03*
X281940Y941460D03*
X312420Y958460D03*
X312420Y941460D03*
X204470Y1220860D03*
X204470Y1237860D03*
X189230Y1220860D03*
X189230Y1237860D03*
D16*
X148200Y1071880D03*
X131200Y1071880D03*
X131200Y1056640D03*
X148200Y1056640D03*
D12*
X264160Y1220860D03*
X264160Y1237860D03*
X279400Y1220860D03*
X279400Y1237860D03*
D24*
X105170Y1009570D03*
D25*
X104920Y1004570D03*
X104920Y999570D03*
X113520Y999570D03*
X113520Y1004570D03*
X113520Y1009570D03*
D10*
X523180Y887810D03*
X579180Y887810D03*
D11*
X536180Y924560D03*
X546180Y924560D03*
X556180Y924560D03*
X566180Y924560D03*
D10*
X579180Y1291510D03*
X523180Y1291510D03*
D11*
X566180Y1254760D03*
X556180Y1254760D03*
X546180Y1254760D03*
X536180Y1254760D03*
D12*
X646430Y958460D03*
X646430Y941460D03*
X661670Y958460D03*
X661670Y941460D03*
X572770Y1049900D03*
X572770Y1032900D03*
D13*
X570580Y1184360D03*
D12*
X601980Y954160D03*
X601980Y971160D03*
X551180Y954160D03*
X551180Y971160D03*
D14*
X833430Y1173290D02*
X840430Y1173290D01*
X840430Y1166290D01*
X833430Y1166290D01*
X833430Y1173290D01*
X833430Y1169140D02*
X840430Y1169140D01*
X840430Y1171990D02*
X833430Y1171990D01*
X833430Y1190830D02*
X840430Y1190830D01*
X840430Y1183830D01*
X833430Y1183830D01*
X833430Y1190830D01*
X833430Y1186680D02*
X840430Y1186680D01*
X840430Y1189530D02*
X833430Y1189530D01*
D15*
X590480Y1087120D03*
X613480Y1087120D03*
D12*
X571500Y1068460D03*
X571500Y1085460D03*
X836930Y1208160D03*
X836930Y1225160D03*
X676910Y958460D03*
X676910Y941460D03*
X692150Y958460D03*
X692150Y941460D03*
D16*
X606180Y1140460D03*
X623180Y1140460D03*
D12*
X621030Y1123560D03*
X621030Y1106560D03*
D14*
X814380Y1173290D02*
X821380Y1173290D01*
X821380Y1166290D01*
X814380Y1166290D01*
X814380Y1173290D01*
X814380Y1169140D02*
X821380Y1169140D01*
X821380Y1171990D02*
X814380Y1171990D01*
X814380Y1190830D02*
X821380Y1190830D01*
X821380Y1183830D01*
X814380Y1183830D01*
X814380Y1190830D01*
X814380Y1186680D02*
X821380Y1186680D01*
X821380Y1189530D02*
X814380Y1189530D01*
D12*
X817880Y1208160D03*
X817880Y1225160D03*
D17*
X576279Y1124560D03*
X576279Y1115060D03*
X576279Y1105560D03*
X602281Y1105560D03*
X602281Y1124560D03*
D12*
X557530Y1106560D03*
X557530Y1123560D03*
D16*
X593480Y1010920D03*
X610480Y1010920D03*
X593480Y1026160D03*
X610480Y1026160D03*
D14*
X852480Y1173290D02*
X859480Y1173290D01*
X859480Y1166290D01*
X852480Y1166290D01*
X852480Y1173290D01*
X852480Y1169140D02*
X859480Y1169140D01*
X859480Y1171990D02*
X852480Y1171990D01*
X852480Y1190830D02*
X859480Y1190830D01*
X859480Y1183830D01*
X852480Y1183830D01*
X852480Y1190830D01*
X852480Y1186680D02*
X859480Y1186680D01*
X859480Y1189530D02*
X852480Y1189530D01*
D12*
X855980Y1208160D03*
X855980Y1225160D03*
D14*
X871530Y1173290D02*
X878530Y1173290D01*
X878530Y1166290D01*
X871530Y1166290D01*
X871530Y1173290D01*
X871530Y1169140D02*
X878530Y1169140D01*
X878530Y1171990D02*
X871530Y1171990D01*
X871530Y1190830D02*
X878530Y1190830D01*
X878530Y1183830D01*
X871530Y1183830D01*
X871530Y1190830D01*
X871530Y1186680D02*
X878530Y1186680D01*
X878530Y1189530D02*
X871530Y1189530D01*
D12*
X875030Y1208160D03*
X875030Y1225160D03*
X812800Y1097670D03*
X812800Y1114670D03*
X812800Y1063380D03*
X812800Y1080380D03*
D16*
X593480Y1041400D03*
X610480Y1041400D03*
D18*
X812800Y1029250D03*
X812800Y1040850D03*
D19*
X790780Y1018160D03*
X790780Y1029160D03*
X790780Y1040160D03*
X790780Y1051160D03*
X790780Y1062160D03*
X790780Y1073160D03*
X790780Y1084160D03*
X790780Y1095160D03*
X790780Y1106160D03*
X790780Y1117160D03*
X790780Y1128160D03*
X790780Y1139160D03*
X790780Y1150160D03*
X790780Y1161160D03*
D20*
X782280Y1189160D03*
X771280Y1189160D03*
X760280Y1189160D03*
X749280Y1189160D03*
X738280Y1189160D03*
X727280Y1189160D03*
X716280Y1189160D03*
X705280Y1189160D03*
X694280Y1189160D03*
X683280Y1189160D03*
X672280Y1189160D03*
X661280Y1189160D03*
X650280Y1189160D03*
D19*
X641780Y1161160D03*
X641780Y1150160D03*
X641780Y1139160D03*
X641780Y1128160D03*
X641780Y1117160D03*
X641780Y1106160D03*
X641780Y1095160D03*
X641780Y1084160D03*
X641780Y1073160D03*
X641780Y1062160D03*
X641780Y1051160D03*
X641780Y1040160D03*
X641780Y1029160D03*
X641780Y1018160D03*
D20*
X650280Y990160D03*
X661280Y990160D03*
X672280Y990160D03*
X683280Y990160D03*
X694280Y990160D03*
X705280Y990160D03*
X716280Y990160D03*
X727280Y990160D03*
X738280Y990160D03*
X749280Y990160D03*
X760280Y990160D03*
X771280Y990160D03*
X782280Y990160D03*
D21*
X705780Y1079160D03*
X705780Y1058160D03*
X705780Y1037160D03*
X705780Y1016160D03*
X685280Y1079160D03*
X685280Y1058160D03*
X685280Y1037160D03*
X685280Y1016160D03*
X664780Y1079160D03*
X664780Y1058160D03*
X664780Y1037160D03*
X664780Y1016160D03*
X767780Y1079160D03*
X767780Y1058160D03*
X767780Y1037160D03*
X767780Y1016160D03*
X747280Y1079160D03*
X747280Y1058160D03*
X747280Y1037160D03*
X747280Y1016160D03*
X726780Y1079160D03*
X726780Y1058160D03*
X726780Y1037160D03*
X726780Y1016160D03*
X705780Y1163160D03*
X705780Y1142160D03*
X705780Y1121160D03*
X705780Y1100160D03*
X685280Y1163160D03*
X685280Y1142160D03*
X685280Y1121160D03*
X685280Y1100160D03*
X664780Y1163160D03*
X664780Y1142160D03*
X664780Y1121160D03*
X664780Y1100160D03*
X767780Y1163160D03*
X767780Y1142160D03*
X767780Y1121160D03*
X767780Y1100160D03*
X747280Y1163160D03*
X747280Y1142160D03*
X747280Y1121160D03*
X747280Y1100160D03*
X726780Y1163160D03*
X726780Y1142160D03*
X726780Y1121160D03*
X726780Y1100160D03*
D16*
X485530Y943610D03*
X502530Y943610D03*
X485530Y1057910D03*
X502530Y1057910D03*
D22*
X522380Y993260D03*
X522380Y998260D03*
D23*
X522380Y968510D03*
X522380Y976260D03*
D22*
X522380Y983260D03*
X522380Y988260D03*
X522380Y1008260D03*
X522380Y1003260D03*
D23*
X522380Y1033010D03*
X522380Y1025260D03*
D22*
X522380Y1018260D03*
X522380Y1013260D03*
D12*
X759460Y958460D03*
X759460Y941460D03*
X728980Y958460D03*
X728980Y941460D03*
X744220Y958460D03*
X744220Y941460D03*
X774700Y958460D03*
X774700Y941460D03*
X666750Y1220860D03*
X666750Y1237860D03*
X651510Y1220860D03*
X651510Y1237860D03*
D16*
X610480Y1071880D03*
X593480Y1071880D03*
X593480Y1056640D03*
X610480Y1056640D03*
D12*
X726440Y1220860D03*
X726440Y1237860D03*
X741680Y1220860D03*
X741680Y1237860D03*
D24*
X567450Y1009570D03*
D25*
X567200Y1004570D03*
X567200Y999570D03*
X575800Y999570D03*
X575800Y1004570D03*
X575800Y1009570D03*
M02*
