G75*
%MOIN*%
%OFA0B0*%
%FSLAX25Y25*%
%IPPOS*%
%LPD*%
%AMOC8*
5,1,8,0,0,1.08239X$1,22.5*
%
%ADD10R,0.04724X0.07874*%
%ADD11R,0.02362X0.05315*%
%ADD12R,0.03937X0.04331*%
%ADD13R,0.08858X0.03346*%
%ADD14C,0.01181*%
%ADD15R,0.02480X0.03268*%
%ADD16R,0.08661X0.03346*%
%ADD17R,0.04134X0.03937*%
%ADD18R,0.04331X0.03937*%
%ADD19R,0.04724X0.02165*%
%ADD20R,0.03543X0.03346*%
%ADD21R,0.02402X0.00984*%
%ADD22R,0.02205X0.00984*%
%ADD23R,0.05984X0.03346*%
%ADD24R,0.03346X0.05984*%
%ADD25R,0.03543X0.03543*%
%ADD26R,0.05709X0.01181*%
%ADD27R,0.05709X0.02362*%
%ADD28R,0.05709X0.02165*%
%ADD29C,0.00039*%
D10*
X0067318Y0034031D03*
X0089365Y0034031D03*
X0249318Y0034031D03*
X0271365Y0034031D03*
X0431318Y0034031D03*
X0453365Y0034031D03*
X0453365Y0192969D03*
X0431318Y0192969D03*
X0431318Y0206031D03*
X0453365Y0206031D03*
X0271365Y0206031D03*
X0249318Y0206031D03*
X0249318Y0192969D03*
X0271365Y0192969D03*
X0089365Y0192969D03*
X0067318Y0192969D03*
X0067318Y0206031D03*
X0089365Y0206031D03*
X0089365Y0364969D03*
X0067318Y0364969D03*
X0249318Y0364969D03*
X0271365Y0364969D03*
X0431318Y0364969D03*
X0453365Y0364969D03*
D11*
X0448247Y0350500D03*
X0444310Y0350500D03*
X0440373Y0350500D03*
X0436436Y0350500D03*
X0266247Y0350500D03*
X0262310Y0350500D03*
X0258373Y0350500D03*
X0254436Y0350500D03*
X0084247Y0350500D03*
X0080310Y0350500D03*
X0076373Y0350500D03*
X0072436Y0350500D03*
X0072436Y0220500D03*
X0076373Y0220500D03*
X0080310Y0220500D03*
X0084247Y0220500D03*
X0084247Y0178500D03*
X0080310Y0178500D03*
X0076373Y0178500D03*
X0072436Y0178500D03*
X0254436Y0178500D03*
X0258373Y0178500D03*
X0262310Y0178500D03*
X0266247Y0178500D03*
X0266247Y0220500D03*
X0262310Y0220500D03*
X0258373Y0220500D03*
X0254436Y0220500D03*
X0436436Y0220500D03*
X0440373Y0220500D03*
X0444310Y0220500D03*
X0448247Y0220500D03*
X0448247Y0178500D03*
X0444310Y0178500D03*
X0440373Y0178500D03*
X0436436Y0178500D03*
X0436436Y0048500D03*
X0440373Y0048500D03*
X0444310Y0048500D03*
X0448247Y0048500D03*
X0266247Y0048500D03*
X0262310Y0048500D03*
X0258373Y0048500D03*
X0254436Y0048500D03*
X0084247Y0048500D03*
X0080310Y0048500D03*
X0076373Y0048500D03*
X0072436Y0048500D03*
D12*
X0078342Y0060154D03*
X0078342Y0066846D03*
X0098342Y0066846D03*
X0098342Y0060154D03*
X0115842Y0061846D03*
X0121842Y0061846D03*
X0127842Y0061846D03*
X0133842Y0061846D03*
X0133842Y0055154D03*
X0127842Y0055154D03*
X0121842Y0055154D03*
X0115842Y0055154D03*
X0148342Y0055154D03*
X0154342Y0055154D03*
X0160342Y0055154D03*
X0166342Y0055154D03*
X0166342Y0061846D03*
X0160342Y0061846D03*
X0154342Y0061846D03*
X0148342Y0061846D03*
X0086842Y0091154D03*
X0086842Y0097846D03*
X0086342Y0105154D03*
X0086342Y0111846D03*
X0080842Y0120154D03*
X0080842Y0126846D03*
X0105842Y0126846D03*
X0105842Y0120154D03*
X0117842Y0165154D03*
X0123842Y0165154D03*
X0123842Y0171846D03*
X0117842Y0171846D03*
X0147342Y0171846D03*
X0153342Y0171846D03*
X0153342Y0165154D03*
X0147342Y0165154D03*
X0183342Y0151846D03*
X0190842Y0151846D03*
X0198342Y0151846D03*
X0205842Y0151846D03*
X0205842Y0145154D03*
X0198342Y0145154D03*
X0190842Y0145154D03*
X0183342Y0145154D03*
X0181342Y0109846D03*
X0181342Y0103154D03*
X0260342Y0066846D03*
X0260342Y0060154D03*
X0280342Y0060154D03*
X0280342Y0066846D03*
X0297842Y0061846D03*
X0303842Y0061846D03*
X0309842Y0061846D03*
X0315842Y0061846D03*
X0315842Y0055154D03*
X0309842Y0055154D03*
X0303842Y0055154D03*
X0297842Y0055154D03*
X0330342Y0055154D03*
X0336342Y0055154D03*
X0342342Y0055154D03*
X0348342Y0055154D03*
X0348342Y0061846D03*
X0342342Y0061846D03*
X0336342Y0061846D03*
X0330342Y0061846D03*
X0268842Y0091154D03*
X0268842Y0097846D03*
X0268342Y0105154D03*
X0268342Y0111846D03*
X0262842Y0120154D03*
X0262842Y0126846D03*
X0287842Y0126846D03*
X0287842Y0120154D03*
X0299842Y0165154D03*
X0305842Y0165154D03*
X0305842Y0171846D03*
X0299842Y0171846D03*
X0329342Y0171846D03*
X0335342Y0171846D03*
X0335342Y0165154D03*
X0329342Y0165154D03*
X0365342Y0151846D03*
X0365342Y0145154D03*
X0372842Y0145154D03*
X0380342Y0145154D03*
X0387842Y0145154D03*
X0387842Y0151846D03*
X0380342Y0151846D03*
X0372842Y0151846D03*
X0363342Y0109846D03*
X0363342Y0103154D03*
X0444842Y0120154D03*
X0444842Y0126846D03*
X0450342Y0111846D03*
X0450342Y0105154D03*
X0450842Y0097846D03*
X0450842Y0091154D03*
X0442342Y0066846D03*
X0442342Y0060154D03*
X0462342Y0060154D03*
X0462342Y0066846D03*
X0479842Y0061846D03*
X0485842Y0061846D03*
X0491842Y0061846D03*
X0497842Y0061846D03*
X0497842Y0055154D03*
X0491842Y0055154D03*
X0485842Y0055154D03*
X0479842Y0055154D03*
X0512342Y0055154D03*
X0518342Y0055154D03*
X0524342Y0055154D03*
X0530342Y0055154D03*
X0530342Y0061846D03*
X0524342Y0061846D03*
X0518342Y0061846D03*
X0512342Y0061846D03*
X0545342Y0103154D03*
X0545342Y0109846D03*
X0547342Y0145154D03*
X0554842Y0145154D03*
X0562342Y0145154D03*
X0569842Y0145154D03*
X0569842Y0151846D03*
X0562342Y0151846D03*
X0554842Y0151846D03*
X0547342Y0151846D03*
X0517342Y0165154D03*
X0511342Y0165154D03*
X0511342Y0171846D03*
X0517342Y0171846D03*
X0487842Y0171846D03*
X0481842Y0171846D03*
X0481842Y0165154D03*
X0487842Y0165154D03*
X0469842Y0126846D03*
X0469842Y0120154D03*
X0479842Y0227154D03*
X0485842Y0227154D03*
X0491842Y0227154D03*
X0497842Y0227154D03*
X0497842Y0233846D03*
X0491842Y0233846D03*
X0485842Y0233846D03*
X0479842Y0233846D03*
X0462342Y0232154D03*
X0462342Y0238846D03*
X0442342Y0238846D03*
X0442342Y0232154D03*
X0450842Y0263154D03*
X0450842Y0269846D03*
X0450342Y0277154D03*
X0450342Y0283846D03*
X0444842Y0292154D03*
X0444842Y0298846D03*
X0469842Y0298846D03*
X0469842Y0292154D03*
X0545342Y0281846D03*
X0545342Y0275154D03*
X0547342Y0317154D03*
X0554842Y0317154D03*
X0562342Y0317154D03*
X0569842Y0317154D03*
X0569842Y0323846D03*
X0562342Y0323846D03*
X0554842Y0323846D03*
X0547342Y0323846D03*
X0517342Y0337154D03*
X0511342Y0337154D03*
X0511342Y0343846D03*
X0517342Y0343846D03*
X0487842Y0343846D03*
X0481842Y0343846D03*
X0481842Y0337154D03*
X0487842Y0337154D03*
X0387842Y0323846D03*
X0380342Y0323846D03*
X0372842Y0323846D03*
X0372842Y0317154D03*
X0380342Y0317154D03*
X0387842Y0317154D03*
X0365342Y0317154D03*
X0365342Y0323846D03*
X0335342Y0337154D03*
X0329342Y0337154D03*
X0329342Y0343846D03*
X0335342Y0343846D03*
X0305842Y0343846D03*
X0299842Y0343846D03*
X0299842Y0337154D03*
X0305842Y0337154D03*
X0287842Y0298846D03*
X0287842Y0292154D03*
X0268342Y0283846D03*
X0268342Y0277154D03*
X0268842Y0269846D03*
X0268842Y0263154D03*
X0260342Y0238846D03*
X0260342Y0232154D03*
X0280342Y0232154D03*
X0280342Y0238846D03*
X0297842Y0233846D03*
X0303842Y0233846D03*
X0309842Y0233846D03*
X0315842Y0233846D03*
X0315842Y0227154D03*
X0309842Y0227154D03*
X0303842Y0227154D03*
X0297842Y0227154D03*
X0330342Y0227154D03*
X0336342Y0227154D03*
X0342342Y0227154D03*
X0348342Y0227154D03*
X0348342Y0233846D03*
X0342342Y0233846D03*
X0336342Y0233846D03*
X0330342Y0233846D03*
X0363342Y0275154D03*
X0363342Y0281846D03*
X0262842Y0292154D03*
X0262842Y0298846D03*
X0205842Y0317154D03*
X0198342Y0317154D03*
X0190842Y0317154D03*
X0183342Y0317154D03*
X0183342Y0323846D03*
X0190842Y0323846D03*
X0198342Y0323846D03*
X0205842Y0323846D03*
X0153342Y0337154D03*
X0147342Y0337154D03*
X0147342Y0343846D03*
X0153342Y0343846D03*
X0123842Y0343846D03*
X0117842Y0343846D03*
X0117842Y0337154D03*
X0123842Y0337154D03*
X0105842Y0298846D03*
X0105842Y0292154D03*
X0086342Y0283846D03*
X0086342Y0277154D03*
X0086842Y0269846D03*
X0086842Y0263154D03*
X0078342Y0238846D03*
X0078342Y0232154D03*
X0098342Y0232154D03*
X0098342Y0238846D03*
X0115842Y0233846D03*
X0121842Y0233846D03*
X0127842Y0233846D03*
X0133842Y0233846D03*
X0133842Y0227154D03*
X0127842Y0227154D03*
X0121842Y0227154D03*
X0115842Y0227154D03*
X0148342Y0227154D03*
X0154342Y0227154D03*
X0160342Y0227154D03*
X0166342Y0227154D03*
X0166342Y0233846D03*
X0160342Y0233846D03*
X0154342Y0233846D03*
X0148342Y0233846D03*
X0181342Y0275154D03*
X0181342Y0281846D03*
X0080842Y0292154D03*
X0080842Y0298846D03*
X0512342Y0233846D03*
X0518342Y0233846D03*
X0524342Y0233846D03*
X0530342Y0233846D03*
X0530342Y0227154D03*
X0524342Y0227154D03*
X0518342Y0227154D03*
X0512342Y0227154D03*
D13*
G36*
X0450186Y0311803D02*
X0443924Y0305541D01*
X0441558Y0307907D01*
X0447820Y0314169D01*
X0450186Y0311803D01*
G37*
G36*
X0446010Y0315978D02*
X0439748Y0309716D01*
X0437382Y0312082D01*
X0443644Y0318344D01*
X0446010Y0315978D01*
G37*
G36*
X0268186Y0311803D02*
X0261924Y0305541D01*
X0259558Y0307907D01*
X0265820Y0314169D01*
X0268186Y0311803D01*
G37*
G36*
X0264010Y0315978D02*
X0257748Y0309716D01*
X0255382Y0312082D01*
X0261644Y0318344D01*
X0264010Y0315978D01*
G37*
G36*
X0086186Y0311803D02*
X0079924Y0305541D01*
X0077558Y0307907D01*
X0083820Y0314169D01*
X0086186Y0311803D01*
G37*
G36*
X0082010Y0315978D02*
X0075748Y0309716D01*
X0073382Y0312082D01*
X0079644Y0318344D01*
X0082010Y0315978D01*
G37*
G36*
X0082010Y0143978D02*
X0075748Y0137716D01*
X0073382Y0140082D01*
X0079644Y0146344D01*
X0082010Y0143978D01*
G37*
G36*
X0086186Y0139803D02*
X0079924Y0133541D01*
X0077558Y0135907D01*
X0083820Y0142169D01*
X0086186Y0139803D01*
G37*
G36*
X0264010Y0143978D02*
X0257748Y0137716D01*
X0255382Y0140082D01*
X0261644Y0146344D01*
X0264010Y0143978D01*
G37*
G36*
X0268186Y0139803D02*
X0261924Y0133541D01*
X0259558Y0135907D01*
X0265820Y0142169D01*
X0268186Y0139803D01*
G37*
G36*
X0446010Y0143978D02*
X0439748Y0137716D01*
X0437382Y0140082D01*
X0443644Y0146344D01*
X0446010Y0143978D01*
G37*
G36*
X0450186Y0139803D02*
X0443924Y0133541D01*
X0441558Y0135907D01*
X0447820Y0142169D01*
X0450186Y0139803D01*
G37*
D14*
X0389220Y0138331D02*
X0386464Y0138331D01*
X0389220Y0138331D02*
X0389220Y0135575D01*
X0386464Y0135575D01*
X0386464Y0138331D01*
X0386464Y0136697D02*
X0389220Y0136697D01*
X0389220Y0137819D02*
X0386464Y0137819D01*
X0381720Y0138331D02*
X0378964Y0138331D01*
X0381720Y0138331D02*
X0381720Y0135575D01*
X0378964Y0135575D01*
X0378964Y0138331D01*
X0378964Y0136697D02*
X0381720Y0136697D01*
X0381720Y0137819D02*
X0378964Y0137819D01*
X0374220Y0138331D02*
X0371464Y0138331D01*
X0374220Y0138331D02*
X0374220Y0135575D01*
X0371464Y0135575D01*
X0371464Y0138331D01*
X0371464Y0136697D02*
X0374220Y0136697D01*
X0374220Y0137819D02*
X0371464Y0137819D01*
X0366720Y0138331D02*
X0363964Y0138331D01*
X0366720Y0138331D02*
X0366720Y0135575D01*
X0363964Y0135575D01*
X0363964Y0138331D01*
X0363964Y0136697D02*
X0366720Y0136697D01*
X0366720Y0137819D02*
X0363964Y0137819D01*
X0363964Y0131425D02*
X0366720Y0131425D01*
X0366720Y0128669D01*
X0363964Y0128669D01*
X0363964Y0131425D01*
X0363964Y0129791D02*
X0366720Y0129791D01*
X0366720Y0130913D02*
X0363964Y0130913D01*
X0371464Y0131425D02*
X0374220Y0131425D01*
X0374220Y0128669D01*
X0371464Y0128669D01*
X0371464Y0131425D01*
X0371464Y0129791D02*
X0374220Y0129791D01*
X0374220Y0130913D02*
X0371464Y0130913D01*
X0378964Y0131425D02*
X0381720Y0131425D01*
X0381720Y0128669D01*
X0378964Y0128669D01*
X0378964Y0131425D01*
X0378964Y0129791D02*
X0381720Y0129791D01*
X0381720Y0130913D02*
X0378964Y0130913D01*
X0386464Y0131425D02*
X0389220Y0131425D01*
X0389220Y0128669D01*
X0386464Y0128669D01*
X0386464Y0131425D01*
X0386464Y0129791D02*
X0389220Y0129791D01*
X0389220Y0130913D02*
X0386464Y0130913D01*
X0545964Y0131425D02*
X0548720Y0131425D01*
X0548720Y0128669D01*
X0545964Y0128669D01*
X0545964Y0131425D01*
X0545964Y0129791D02*
X0548720Y0129791D01*
X0548720Y0130913D02*
X0545964Y0130913D01*
X0545964Y0138331D02*
X0548720Y0138331D01*
X0548720Y0135575D01*
X0545964Y0135575D01*
X0545964Y0138331D01*
X0545964Y0136697D02*
X0548720Y0136697D01*
X0548720Y0137819D02*
X0545964Y0137819D01*
X0553464Y0138331D02*
X0556220Y0138331D01*
X0556220Y0135575D01*
X0553464Y0135575D01*
X0553464Y0138331D01*
X0553464Y0136697D02*
X0556220Y0136697D01*
X0556220Y0137819D02*
X0553464Y0137819D01*
X0560964Y0138331D02*
X0563720Y0138331D01*
X0563720Y0135575D01*
X0560964Y0135575D01*
X0560964Y0138331D01*
X0560964Y0136697D02*
X0563720Y0136697D01*
X0563720Y0137819D02*
X0560964Y0137819D01*
X0568464Y0138331D02*
X0571220Y0138331D01*
X0571220Y0135575D01*
X0568464Y0135575D01*
X0568464Y0138331D01*
X0568464Y0136697D02*
X0571220Y0136697D01*
X0571220Y0137819D02*
X0568464Y0137819D01*
X0568464Y0131425D02*
X0571220Y0131425D01*
X0571220Y0128669D01*
X0568464Y0128669D01*
X0568464Y0131425D01*
X0568464Y0129791D02*
X0571220Y0129791D01*
X0571220Y0130913D02*
X0568464Y0130913D01*
X0563720Y0131425D02*
X0560964Y0131425D01*
X0563720Y0131425D02*
X0563720Y0128669D01*
X0560964Y0128669D01*
X0560964Y0131425D01*
X0560964Y0129791D02*
X0563720Y0129791D01*
X0563720Y0130913D02*
X0560964Y0130913D01*
X0556220Y0131425D02*
X0553464Y0131425D01*
X0556220Y0131425D02*
X0556220Y0128669D01*
X0553464Y0128669D01*
X0553464Y0131425D01*
X0553464Y0129791D02*
X0556220Y0129791D01*
X0556220Y0130913D02*
X0553464Y0130913D01*
X0553464Y0303425D02*
X0556220Y0303425D01*
X0556220Y0300669D01*
X0553464Y0300669D01*
X0553464Y0303425D01*
X0553464Y0301791D02*
X0556220Y0301791D01*
X0556220Y0302913D02*
X0553464Y0302913D01*
X0548720Y0303425D02*
X0545964Y0303425D01*
X0548720Y0303425D02*
X0548720Y0300669D01*
X0545964Y0300669D01*
X0545964Y0303425D01*
X0545964Y0301791D02*
X0548720Y0301791D01*
X0548720Y0302913D02*
X0545964Y0302913D01*
X0545964Y0310331D02*
X0548720Y0310331D01*
X0548720Y0307575D01*
X0545964Y0307575D01*
X0545964Y0310331D01*
X0545964Y0308697D02*
X0548720Y0308697D01*
X0548720Y0309819D02*
X0545964Y0309819D01*
X0553464Y0310331D02*
X0556220Y0310331D01*
X0556220Y0307575D01*
X0553464Y0307575D01*
X0553464Y0310331D01*
X0553464Y0308697D02*
X0556220Y0308697D01*
X0556220Y0309819D02*
X0553464Y0309819D01*
X0560964Y0310331D02*
X0563720Y0310331D01*
X0563720Y0307575D01*
X0560964Y0307575D01*
X0560964Y0310331D01*
X0560964Y0308697D02*
X0563720Y0308697D01*
X0563720Y0309819D02*
X0560964Y0309819D01*
X0568464Y0310331D02*
X0571220Y0310331D01*
X0571220Y0307575D01*
X0568464Y0307575D01*
X0568464Y0310331D01*
X0568464Y0308697D02*
X0571220Y0308697D01*
X0571220Y0309819D02*
X0568464Y0309819D01*
X0568464Y0303425D02*
X0571220Y0303425D01*
X0571220Y0300669D01*
X0568464Y0300669D01*
X0568464Y0303425D01*
X0568464Y0301791D02*
X0571220Y0301791D01*
X0571220Y0302913D02*
X0568464Y0302913D01*
X0563720Y0303425D02*
X0560964Y0303425D01*
X0563720Y0303425D02*
X0563720Y0300669D01*
X0560964Y0300669D01*
X0560964Y0303425D01*
X0560964Y0301791D02*
X0563720Y0301791D01*
X0563720Y0302913D02*
X0560964Y0302913D01*
X0389220Y0303425D02*
X0386464Y0303425D01*
X0389220Y0303425D02*
X0389220Y0300669D01*
X0386464Y0300669D01*
X0386464Y0303425D01*
X0386464Y0301791D02*
X0389220Y0301791D01*
X0389220Y0302913D02*
X0386464Y0302913D01*
X0381720Y0303425D02*
X0378964Y0303425D01*
X0381720Y0303425D02*
X0381720Y0300669D01*
X0378964Y0300669D01*
X0378964Y0303425D01*
X0378964Y0301791D02*
X0381720Y0301791D01*
X0381720Y0302913D02*
X0378964Y0302913D01*
X0374220Y0303425D02*
X0371464Y0303425D01*
X0374220Y0303425D02*
X0374220Y0300669D01*
X0371464Y0300669D01*
X0371464Y0303425D01*
X0371464Y0301791D02*
X0374220Y0301791D01*
X0374220Y0302913D02*
X0371464Y0302913D01*
X0366720Y0303425D02*
X0363964Y0303425D01*
X0366720Y0303425D02*
X0366720Y0300669D01*
X0363964Y0300669D01*
X0363964Y0303425D01*
X0363964Y0301791D02*
X0366720Y0301791D01*
X0366720Y0302913D02*
X0363964Y0302913D01*
X0363964Y0310331D02*
X0366720Y0310331D01*
X0366720Y0307575D01*
X0363964Y0307575D01*
X0363964Y0310331D01*
X0363964Y0308697D02*
X0366720Y0308697D01*
X0366720Y0309819D02*
X0363964Y0309819D01*
X0371464Y0310331D02*
X0374220Y0310331D01*
X0374220Y0307575D01*
X0371464Y0307575D01*
X0371464Y0310331D01*
X0371464Y0308697D02*
X0374220Y0308697D01*
X0374220Y0309819D02*
X0371464Y0309819D01*
X0378964Y0310331D02*
X0381720Y0310331D01*
X0381720Y0307575D01*
X0378964Y0307575D01*
X0378964Y0310331D01*
X0378964Y0308697D02*
X0381720Y0308697D01*
X0381720Y0309819D02*
X0378964Y0309819D01*
X0386464Y0310331D02*
X0389220Y0310331D01*
X0389220Y0307575D01*
X0386464Y0307575D01*
X0386464Y0310331D01*
X0386464Y0308697D02*
X0389220Y0308697D01*
X0389220Y0309819D02*
X0386464Y0309819D01*
X0207220Y0310331D02*
X0204464Y0310331D01*
X0207220Y0310331D02*
X0207220Y0307575D01*
X0204464Y0307575D01*
X0204464Y0310331D01*
X0204464Y0308697D02*
X0207220Y0308697D01*
X0207220Y0309819D02*
X0204464Y0309819D01*
X0199720Y0310331D02*
X0196964Y0310331D01*
X0199720Y0310331D02*
X0199720Y0307575D01*
X0196964Y0307575D01*
X0196964Y0310331D01*
X0196964Y0308697D02*
X0199720Y0308697D01*
X0199720Y0309819D02*
X0196964Y0309819D01*
X0192220Y0310331D02*
X0189464Y0310331D01*
X0192220Y0310331D02*
X0192220Y0307575D01*
X0189464Y0307575D01*
X0189464Y0310331D01*
X0189464Y0308697D02*
X0192220Y0308697D01*
X0192220Y0309819D02*
X0189464Y0309819D01*
X0184720Y0310331D02*
X0181964Y0310331D01*
X0184720Y0310331D02*
X0184720Y0307575D01*
X0181964Y0307575D01*
X0181964Y0310331D01*
X0181964Y0308697D02*
X0184720Y0308697D01*
X0184720Y0309819D02*
X0181964Y0309819D01*
X0181964Y0303425D02*
X0184720Y0303425D01*
X0184720Y0300669D01*
X0181964Y0300669D01*
X0181964Y0303425D01*
X0181964Y0301791D02*
X0184720Y0301791D01*
X0184720Y0302913D02*
X0181964Y0302913D01*
X0189464Y0303425D02*
X0192220Y0303425D01*
X0192220Y0300669D01*
X0189464Y0300669D01*
X0189464Y0303425D01*
X0189464Y0301791D02*
X0192220Y0301791D01*
X0192220Y0302913D02*
X0189464Y0302913D01*
X0196964Y0303425D02*
X0199720Y0303425D01*
X0199720Y0300669D01*
X0196964Y0300669D01*
X0196964Y0303425D01*
X0196964Y0301791D02*
X0199720Y0301791D01*
X0199720Y0302913D02*
X0196964Y0302913D01*
X0204464Y0303425D02*
X0207220Y0303425D01*
X0207220Y0300669D01*
X0204464Y0300669D01*
X0204464Y0303425D01*
X0204464Y0301791D02*
X0207220Y0301791D01*
X0207220Y0302913D02*
X0204464Y0302913D01*
X0204464Y0138331D02*
X0207220Y0138331D01*
X0207220Y0135575D01*
X0204464Y0135575D01*
X0204464Y0138331D01*
X0204464Y0136697D02*
X0207220Y0136697D01*
X0207220Y0137819D02*
X0204464Y0137819D01*
X0199720Y0138331D02*
X0196964Y0138331D01*
X0199720Y0138331D02*
X0199720Y0135575D01*
X0196964Y0135575D01*
X0196964Y0138331D01*
X0196964Y0136697D02*
X0199720Y0136697D01*
X0199720Y0137819D02*
X0196964Y0137819D01*
X0192220Y0138331D02*
X0189464Y0138331D01*
X0192220Y0138331D02*
X0192220Y0135575D01*
X0189464Y0135575D01*
X0189464Y0138331D01*
X0189464Y0136697D02*
X0192220Y0136697D01*
X0192220Y0137819D02*
X0189464Y0137819D01*
X0184720Y0138331D02*
X0181964Y0138331D01*
X0184720Y0138331D02*
X0184720Y0135575D01*
X0181964Y0135575D01*
X0181964Y0138331D01*
X0181964Y0136697D02*
X0184720Y0136697D01*
X0184720Y0137819D02*
X0181964Y0137819D01*
X0181964Y0131425D02*
X0184720Y0131425D01*
X0184720Y0128669D01*
X0181964Y0128669D01*
X0181964Y0131425D01*
X0181964Y0129791D02*
X0184720Y0129791D01*
X0184720Y0130913D02*
X0181964Y0130913D01*
X0189464Y0131425D02*
X0192220Y0131425D01*
X0192220Y0128669D01*
X0189464Y0128669D01*
X0189464Y0131425D01*
X0189464Y0129791D02*
X0192220Y0129791D01*
X0192220Y0130913D02*
X0189464Y0130913D01*
X0196964Y0131425D02*
X0199720Y0131425D01*
X0199720Y0128669D01*
X0196964Y0128669D01*
X0196964Y0131425D01*
X0196964Y0129791D02*
X0199720Y0129791D01*
X0199720Y0130913D02*
X0196964Y0130913D01*
X0204464Y0131425D02*
X0207220Y0131425D01*
X0207220Y0128669D01*
X0204464Y0128669D01*
X0204464Y0131425D01*
X0204464Y0129791D02*
X0207220Y0129791D01*
X0207220Y0130913D02*
X0204464Y0130913D01*
D15*
X0275814Y0112500D03*
X0284869Y0112500D03*
X0457814Y0112500D03*
X0466869Y0112500D03*
X0466869Y0284500D03*
X0457814Y0284500D03*
X0284869Y0284500D03*
X0275814Y0284500D03*
X0102869Y0284500D03*
X0093814Y0284500D03*
X0093814Y0112500D03*
X0102869Y0112500D03*
D16*
X0192342Y0094913D03*
X0192342Y0084087D03*
X0374342Y0084087D03*
X0374342Y0094913D03*
X0556342Y0094913D03*
X0556342Y0084087D03*
X0556342Y0256087D03*
X0556342Y0266913D03*
X0374342Y0266913D03*
X0374342Y0256087D03*
X0192342Y0256087D03*
X0192342Y0266913D03*
D17*
X0198346Y0261500D03*
X0186338Y0261500D03*
X0368338Y0261500D03*
X0380346Y0261500D03*
X0550338Y0261500D03*
X0562346Y0261500D03*
X0562346Y0089500D03*
X0550338Y0089500D03*
X0380346Y0089500D03*
X0368338Y0089500D03*
X0198346Y0089500D03*
X0186338Y0089500D03*
D18*
X0187495Y0103000D03*
X0194188Y0103000D03*
X0234495Y0101000D03*
X0241188Y0101000D03*
X0276995Y0100500D03*
X0276995Y0094500D03*
X0283688Y0094500D03*
X0283688Y0100500D03*
X0283688Y0106500D03*
X0276995Y0106500D03*
X0276995Y0088500D03*
X0276995Y0082500D03*
X0283688Y0082500D03*
X0283688Y0088500D03*
X0241188Y0056000D03*
X0234495Y0056000D03*
X0101688Y0082500D03*
X0101688Y0088500D03*
X0094995Y0088500D03*
X0094995Y0082500D03*
X0094995Y0094500D03*
X0094995Y0100500D03*
X0101688Y0100500D03*
X0101688Y0094500D03*
X0101688Y0106500D03*
X0094995Y0106500D03*
X0059188Y0101000D03*
X0052495Y0101000D03*
X0099995Y0133500D03*
X0106688Y0133500D03*
X0059188Y0056000D03*
X0052495Y0056000D03*
X0281995Y0133500D03*
X0288688Y0133500D03*
X0369495Y0103000D03*
X0376188Y0103000D03*
X0416495Y0101000D03*
X0423188Y0101000D03*
X0458995Y0100500D03*
X0458995Y0094500D03*
X0465688Y0094500D03*
X0465688Y0100500D03*
X0465688Y0106500D03*
X0458995Y0106500D03*
X0458995Y0088500D03*
X0458995Y0082500D03*
X0465688Y0082500D03*
X0465688Y0088500D03*
X0423188Y0056000D03*
X0416495Y0056000D03*
X0551495Y0103000D03*
X0558188Y0103000D03*
X0470688Y0133500D03*
X0463995Y0133500D03*
X0423188Y0228000D03*
X0416495Y0228000D03*
X0458995Y0254500D03*
X0458995Y0260500D03*
X0458995Y0266500D03*
X0465688Y0266500D03*
X0465688Y0260500D03*
X0465688Y0254500D03*
X0465688Y0272500D03*
X0465688Y0278500D03*
X0458995Y0278500D03*
X0458995Y0272500D03*
X0423188Y0273000D03*
X0416495Y0273000D03*
X0376188Y0275000D03*
X0369495Y0275000D03*
X0283688Y0272500D03*
X0283688Y0278500D03*
X0276995Y0278500D03*
X0276995Y0272500D03*
X0276995Y0266500D03*
X0276995Y0260500D03*
X0276995Y0254500D03*
X0283688Y0254500D03*
X0283688Y0260500D03*
X0283688Y0266500D03*
X0241188Y0273000D03*
X0234495Y0273000D03*
X0194188Y0275000D03*
X0187495Y0275000D03*
X0234495Y0228000D03*
X0241188Y0228000D03*
X0281995Y0305500D03*
X0288688Y0305500D03*
X0463995Y0305500D03*
X0470688Y0305500D03*
X0551495Y0275000D03*
X0558188Y0275000D03*
X0106688Y0305500D03*
X0099995Y0305500D03*
X0101688Y0278500D03*
X0101688Y0272500D03*
X0094995Y0272500D03*
X0094995Y0278500D03*
X0094995Y0266500D03*
X0094995Y0260500D03*
X0094995Y0254500D03*
X0101688Y0254500D03*
X0101688Y0260500D03*
X0101688Y0266500D03*
X0059188Y0273000D03*
X0052495Y0273000D03*
X0052495Y0228000D03*
X0059188Y0228000D03*
D19*
X0088223Y0291760D03*
X0088223Y0295500D03*
X0088223Y0299240D03*
X0098460Y0299240D03*
X0098460Y0291760D03*
X0270223Y0291760D03*
X0270223Y0295500D03*
X0270223Y0299240D03*
X0280460Y0299240D03*
X0280460Y0291760D03*
X0452223Y0291760D03*
X0452223Y0295500D03*
X0452223Y0299240D03*
X0462460Y0299240D03*
X0462460Y0291760D03*
X0462460Y0127240D03*
X0452223Y0127240D03*
X0452223Y0123500D03*
X0452223Y0119760D03*
X0462460Y0119760D03*
X0280460Y0119760D03*
X0270223Y0119760D03*
X0270223Y0123500D03*
X0270223Y0127240D03*
X0280460Y0127240D03*
X0098460Y0127240D03*
X0098460Y0119760D03*
X0088223Y0119760D03*
X0088223Y0123500D03*
X0088223Y0127240D03*
D20*
X0181342Y0094283D03*
X0181342Y0089717D03*
X0363342Y0089717D03*
X0363342Y0094283D03*
X0545342Y0094283D03*
X0545342Y0089717D03*
X0545342Y0261717D03*
X0545342Y0266283D03*
X0363342Y0266283D03*
X0363342Y0261717D03*
X0181342Y0261717D03*
X0181342Y0266283D03*
D21*
X0266747Y0253969D03*
X0084747Y0253969D03*
X0084747Y0081969D03*
X0266747Y0081969D03*
X0448747Y0081969D03*
X0448747Y0253969D03*
D22*
X0448649Y0252000D03*
X0448649Y0250031D03*
X0452035Y0250031D03*
X0452035Y0252000D03*
X0452035Y0253969D03*
X0270035Y0253969D03*
X0270035Y0252000D03*
X0270035Y0250031D03*
X0266649Y0250031D03*
X0266649Y0252000D03*
X0088035Y0252000D03*
X0088035Y0253969D03*
X0084649Y0252000D03*
X0084649Y0250031D03*
X0088035Y0250031D03*
X0088035Y0081969D03*
X0088035Y0080000D03*
X0088035Y0078031D03*
X0084649Y0078031D03*
X0084649Y0080000D03*
X0266649Y0080000D03*
X0266649Y0078031D03*
X0270035Y0078031D03*
X0270035Y0080000D03*
X0270035Y0081969D03*
X0448649Y0080000D03*
X0448649Y0078031D03*
X0452035Y0078031D03*
X0452035Y0080000D03*
X0452035Y0081969D03*
D23*
X0478011Y0085350D03*
X0478011Y0089681D03*
X0478011Y0094012D03*
X0478011Y0098343D03*
X0478011Y0102673D03*
X0478011Y0107004D03*
X0478011Y0111335D03*
X0478011Y0115665D03*
X0478011Y0119996D03*
X0478011Y0124327D03*
X0478011Y0128657D03*
X0478011Y0132988D03*
X0478011Y0137319D03*
X0478011Y0141650D03*
X0536673Y0141650D03*
X0536673Y0137319D03*
X0536673Y0132988D03*
X0536673Y0128657D03*
X0536673Y0124327D03*
X0536673Y0119996D03*
X0536673Y0115665D03*
X0536673Y0111335D03*
X0536673Y0107004D03*
X0536673Y0102673D03*
X0536673Y0098343D03*
X0536673Y0094012D03*
X0536673Y0089681D03*
X0536673Y0085350D03*
X0354673Y0085350D03*
X0354673Y0089681D03*
X0354673Y0094012D03*
X0354673Y0098343D03*
X0354673Y0102673D03*
X0354673Y0107004D03*
X0354673Y0111335D03*
X0354673Y0115665D03*
X0354673Y0119996D03*
X0354673Y0124327D03*
X0354673Y0128657D03*
X0354673Y0132988D03*
X0354673Y0137319D03*
X0354673Y0141650D03*
X0296011Y0141650D03*
X0296011Y0137319D03*
X0296011Y0132988D03*
X0296011Y0128657D03*
X0296011Y0124327D03*
X0296011Y0119996D03*
X0296011Y0115665D03*
X0296011Y0111335D03*
X0296011Y0107004D03*
X0296011Y0102673D03*
X0296011Y0098343D03*
X0296011Y0094012D03*
X0296011Y0089681D03*
X0296011Y0085350D03*
X0172673Y0085350D03*
X0172673Y0089681D03*
X0172673Y0094012D03*
X0172673Y0098343D03*
X0172673Y0102673D03*
X0172673Y0107004D03*
X0172673Y0111335D03*
X0172673Y0115665D03*
X0172673Y0119996D03*
X0172673Y0124327D03*
X0172673Y0128657D03*
X0172673Y0132988D03*
X0172673Y0137319D03*
X0172673Y0141650D03*
X0114011Y0141650D03*
X0114011Y0137319D03*
X0114011Y0132988D03*
X0114011Y0128657D03*
X0114011Y0124327D03*
X0114011Y0119996D03*
X0114011Y0115665D03*
X0114011Y0111335D03*
X0114011Y0107004D03*
X0114011Y0102673D03*
X0114011Y0098343D03*
X0114011Y0094012D03*
X0114011Y0089681D03*
X0114011Y0085350D03*
X0114011Y0257350D03*
X0114011Y0261681D03*
X0114011Y0266012D03*
X0114011Y0270343D03*
X0114011Y0274673D03*
X0114011Y0279004D03*
X0114011Y0283335D03*
X0114011Y0287665D03*
X0114011Y0291996D03*
X0114011Y0296327D03*
X0114011Y0300657D03*
X0114011Y0304988D03*
X0114011Y0309319D03*
X0114011Y0313650D03*
X0172673Y0313650D03*
X0172673Y0309319D03*
X0172673Y0304988D03*
X0172673Y0300657D03*
X0172673Y0296327D03*
X0172673Y0291996D03*
X0172673Y0287665D03*
X0172673Y0283335D03*
X0172673Y0279004D03*
X0172673Y0274673D03*
X0172673Y0270343D03*
X0172673Y0266012D03*
X0172673Y0261681D03*
X0172673Y0257350D03*
X0296011Y0257350D03*
X0296011Y0261681D03*
X0296011Y0266012D03*
X0296011Y0270343D03*
X0296011Y0274673D03*
X0296011Y0279004D03*
X0296011Y0283335D03*
X0296011Y0287665D03*
X0296011Y0291996D03*
X0296011Y0296327D03*
X0296011Y0300657D03*
X0296011Y0304988D03*
X0296011Y0309319D03*
X0296011Y0313650D03*
X0354673Y0313650D03*
X0354673Y0309319D03*
X0354673Y0304988D03*
X0354673Y0300657D03*
X0354673Y0296327D03*
X0354673Y0291996D03*
X0354673Y0287665D03*
X0354673Y0283335D03*
X0354673Y0279004D03*
X0354673Y0274673D03*
X0354673Y0270343D03*
X0354673Y0266012D03*
X0354673Y0261681D03*
X0354673Y0257350D03*
X0478011Y0257350D03*
X0478011Y0261681D03*
X0478011Y0266012D03*
X0478011Y0270343D03*
X0478011Y0274673D03*
X0478011Y0279004D03*
X0478011Y0283335D03*
X0478011Y0287665D03*
X0478011Y0291996D03*
X0478011Y0296327D03*
X0478011Y0300657D03*
X0478011Y0304988D03*
X0478011Y0309319D03*
X0478011Y0313650D03*
X0536673Y0313650D03*
X0536673Y0309319D03*
X0536673Y0304988D03*
X0536673Y0300657D03*
X0536673Y0296327D03*
X0536673Y0291996D03*
X0536673Y0287665D03*
X0536673Y0283335D03*
X0536673Y0279004D03*
X0536673Y0274673D03*
X0536673Y0270343D03*
X0536673Y0266012D03*
X0536673Y0261681D03*
X0536673Y0257350D03*
D24*
X0533326Y0246327D03*
X0528995Y0246327D03*
X0524665Y0246327D03*
X0520334Y0246327D03*
X0516003Y0246327D03*
X0511673Y0246327D03*
X0507342Y0246327D03*
X0503011Y0246327D03*
X0498680Y0246327D03*
X0494350Y0246327D03*
X0490019Y0246327D03*
X0485688Y0246327D03*
X0481358Y0246327D03*
X0351326Y0246327D03*
X0346995Y0246327D03*
X0342665Y0246327D03*
X0338334Y0246327D03*
X0334003Y0246327D03*
X0329673Y0246327D03*
X0325342Y0246327D03*
X0321011Y0246327D03*
X0316680Y0246327D03*
X0312350Y0246327D03*
X0308019Y0246327D03*
X0303688Y0246327D03*
X0299358Y0246327D03*
X0169326Y0246327D03*
X0164995Y0246327D03*
X0160665Y0246327D03*
X0156334Y0246327D03*
X0152003Y0246327D03*
X0147673Y0246327D03*
X0143342Y0246327D03*
X0139011Y0246327D03*
X0134680Y0246327D03*
X0130350Y0246327D03*
X0126019Y0246327D03*
X0121688Y0246327D03*
X0117358Y0246327D03*
X0117358Y0324673D03*
X0121688Y0324673D03*
X0126019Y0324673D03*
X0130350Y0324673D03*
X0134680Y0324673D03*
X0139011Y0324673D03*
X0143342Y0324673D03*
X0147673Y0324673D03*
X0152003Y0324673D03*
X0156334Y0324673D03*
X0160665Y0324673D03*
X0164995Y0324673D03*
X0169326Y0324673D03*
X0299358Y0324673D03*
X0303688Y0324673D03*
X0308019Y0324673D03*
X0312350Y0324673D03*
X0316680Y0324673D03*
X0321011Y0324673D03*
X0325342Y0324673D03*
X0329673Y0324673D03*
X0334003Y0324673D03*
X0338334Y0324673D03*
X0342665Y0324673D03*
X0346995Y0324673D03*
X0351326Y0324673D03*
X0481358Y0324673D03*
X0485688Y0324673D03*
X0490019Y0324673D03*
X0494350Y0324673D03*
X0498680Y0324673D03*
X0503011Y0324673D03*
X0507342Y0324673D03*
X0511673Y0324673D03*
X0516003Y0324673D03*
X0520334Y0324673D03*
X0524665Y0324673D03*
X0528995Y0324673D03*
X0533326Y0324673D03*
X0533326Y0152673D03*
X0528995Y0152673D03*
X0524665Y0152673D03*
X0520334Y0152673D03*
X0516003Y0152673D03*
X0511673Y0152673D03*
X0507342Y0152673D03*
X0503011Y0152673D03*
X0498680Y0152673D03*
X0494350Y0152673D03*
X0490019Y0152673D03*
X0485688Y0152673D03*
X0481358Y0152673D03*
X0481358Y0074327D03*
X0485688Y0074327D03*
X0490019Y0074327D03*
X0494350Y0074327D03*
X0498680Y0074327D03*
X0503011Y0074327D03*
X0507342Y0074327D03*
X0511673Y0074327D03*
X0516003Y0074327D03*
X0520334Y0074327D03*
X0524665Y0074327D03*
X0528995Y0074327D03*
X0533326Y0074327D03*
X0351326Y0074327D03*
X0346995Y0074327D03*
X0342665Y0074327D03*
X0338334Y0074327D03*
X0334003Y0074327D03*
X0329673Y0074327D03*
X0325342Y0074327D03*
X0321011Y0074327D03*
X0316680Y0074327D03*
X0312350Y0074327D03*
X0308019Y0074327D03*
X0303688Y0074327D03*
X0299358Y0074327D03*
X0299358Y0152673D03*
X0303688Y0152673D03*
X0308019Y0152673D03*
X0312350Y0152673D03*
X0316680Y0152673D03*
X0321011Y0152673D03*
X0325342Y0152673D03*
X0329673Y0152673D03*
X0334003Y0152673D03*
X0338334Y0152673D03*
X0342665Y0152673D03*
X0346995Y0152673D03*
X0351326Y0152673D03*
X0169326Y0152673D03*
X0164995Y0152673D03*
X0160665Y0152673D03*
X0156334Y0152673D03*
X0152003Y0152673D03*
X0147673Y0152673D03*
X0143342Y0152673D03*
X0139011Y0152673D03*
X0134680Y0152673D03*
X0130350Y0152673D03*
X0126019Y0152673D03*
X0121688Y0152673D03*
X0117358Y0152673D03*
X0117358Y0074327D03*
X0121688Y0074327D03*
X0126019Y0074327D03*
X0130350Y0074327D03*
X0134680Y0074327D03*
X0139011Y0074327D03*
X0143342Y0074327D03*
X0147673Y0074327D03*
X0152003Y0074327D03*
X0156334Y0074327D03*
X0160665Y0074327D03*
X0164995Y0074327D03*
X0169326Y0074327D03*
D25*
X0163617Y0084563D03*
X0155547Y0084563D03*
X0147476Y0084563D03*
X0139208Y0084563D03*
X0131137Y0084563D03*
X0123066Y0084563D03*
X0123066Y0092831D03*
X0131137Y0092831D03*
X0139208Y0092831D03*
X0147476Y0092831D03*
X0155547Y0092831D03*
X0163617Y0092831D03*
X0163617Y0101098D03*
X0155547Y0101098D03*
X0147476Y0101098D03*
X0139208Y0101098D03*
X0131137Y0101098D03*
X0123066Y0101098D03*
X0123066Y0109366D03*
X0131137Y0109366D03*
X0139208Y0109366D03*
X0147476Y0109366D03*
X0155547Y0109366D03*
X0163617Y0109366D03*
X0163617Y0117634D03*
X0155547Y0117634D03*
X0147476Y0117634D03*
X0139208Y0117634D03*
X0131137Y0117634D03*
X0123066Y0117634D03*
X0123066Y0125902D03*
X0131137Y0125902D03*
X0139208Y0125902D03*
X0147476Y0125902D03*
X0155547Y0125902D03*
X0163617Y0125902D03*
X0163617Y0134169D03*
X0155547Y0134169D03*
X0147476Y0134169D03*
X0139208Y0134169D03*
X0131137Y0134169D03*
X0123066Y0134169D03*
X0123066Y0142437D03*
X0131137Y0142437D03*
X0139208Y0142437D03*
X0147476Y0142437D03*
X0155547Y0142437D03*
X0163617Y0142437D03*
X0305066Y0142437D03*
X0313137Y0142437D03*
X0321208Y0142437D03*
X0329476Y0142437D03*
X0337547Y0142437D03*
X0345617Y0142437D03*
X0345617Y0134169D03*
X0337547Y0134169D03*
X0329476Y0134169D03*
X0321208Y0134169D03*
X0313137Y0134169D03*
X0305066Y0134169D03*
X0305066Y0125902D03*
X0313137Y0125902D03*
X0321208Y0125902D03*
X0329476Y0125902D03*
X0337547Y0125902D03*
X0345617Y0125902D03*
X0345617Y0117634D03*
X0337547Y0117634D03*
X0329476Y0117634D03*
X0321208Y0117634D03*
X0313137Y0117634D03*
X0305066Y0117634D03*
X0305066Y0109366D03*
X0313137Y0109366D03*
X0321208Y0109366D03*
X0329476Y0109366D03*
X0337547Y0109366D03*
X0345617Y0109366D03*
X0345617Y0101098D03*
X0337547Y0101098D03*
X0329476Y0101098D03*
X0321208Y0101098D03*
X0313137Y0101098D03*
X0305066Y0101098D03*
X0305066Y0092831D03*
X0313137Y0092831D03*
X0321208Y0092831D03*
X0329476Y0092831D03*
X0337547Y0092831D03*
X0345617Y0092831D03*
X0345617Y0084563D03*
X0337547Y0084563D03*
X0329476Y0084563D03*
X0321208Y0084563D03*
X0313137Y0084563D03*
X0305066Y0084563D03*
X0487066Y0084563D03*
X0495137Y0084563D03*
X0503208Y0084563D03*
X0511476Y0084563D03*
X0519547Y0084563D03*
X0527617Y0084563D03*
X0527617Y0092831D03*
X0519547Y0092831D03*
X0511476Y0092831D03*
X0503208Y0092831D03*
X0495137Y0092831D03*
X0487066Y0092831D03*
X0487066Y0101098D03*
X0495137Y0101098D03*
X0503208Y0101098D03*
X0511476Y0101098D03*
X0519547Y0101098D03*
X0527617Y0101098D03*
X0527617Y0109366D03*
X0519547Y0109366D03*
X0511476Y0109366D03*
X0511476Y0117634D03*
X0519547Y0117634D03*
X0527617Y0117634D03*
X0527617Y0125902D03*
X0519547Y0125902D03*
X0511476Y0125902D03*
X0511476Y0134169D03*
X0519547Y0134169D03*
X0527617Y0134169D03*
X0527617Y0142437D03*
X0519547Y0142437D03*
X0511476Y0142437D03*
X0503208Y0142437D03*
X0495137Y0142437D03*
X0487066Y0142437D03*
X0487066Y0134169D03*
X0495137Y0134169D03*
X0503208Y0134169D03*
X0503208Y0125902D03*
X0495137Y0125902D03*
X0487066Y0125902D03*
X0487066Y0117634D03*
X0495137Y0117634D03*
X0503208Y0117634D03*
X0503208Y0109366D03*
X0495137Y0109366D03*
X0487066Y0109366D03*
X0487066Y0256563D03*
X0495137Y0256563D03*
X0503208Y0256563D03*
X0511476Y0256563D03*
X0519547Y0256563D03*
X0527617Y0256563D03*
X0527617Y0264831D03*
X0519547Y0264831D03*
X0511476Y0264831D03*
X0511476Y0273098D03*
X0519547Y0273098D03*
X0527617Y0273098D03*
X0527617Y0281366D03*
X0519547Y0281366D03*
X0511476Y0281366D03*
X0511476Y0289634D03*
X0519547Y0289634D03*
X0527617Y0289634D03*
X0527617Y0297902D03*
X0519547Y0297902D03*
X0511476Y0297902D03*
X0511476Y0306169D03*
X0519547Y0306169D03*
X0527617Y0306169D03*
X0527617Y0314437D03*
X0519547Y0314437D03*
X0511476Y0314437D03*
X0503208Y0314437D03*
X0495137Y0314437D03*
X0487066Y0314437D03*
X0487066Y0306169D03*
X0495137Y0306169D03*
X0503208Y0306169D03*
X0503208Y0297902D03*
X0495137Y0297902D03*
X0487066Y0297902D03*
X0487066Y0289634D03*
X0495137Y0289634D03*
X0503208Y0289634D03*
X0503208Y0281366D03*
X0495137Y0281366D03*
X0487066Y0281366D03*
X0487066Y0273098D03*
X0495137Y0273098D03*
X0503208Y0273098D03*
X0503208Y0264831D03*
X0495137Y0264831D03*
X0487066Y0264831D03*
X0345617Y0264831D03*
X0337547Y0264831D03*
X0329476Y0264831D03*
X0321208Y0264831D03*
X0313137Y0264831D03*
X0305066Y0264831D03*
X0305066Y0273098D03*
X0313137Y0273098D03*
X0321208Y0273098D03*
X0329476Y0273098D03*
X0337547Y0273098D03*
X0345617Y0273098D03*
X0345617Y0281366D03*
X0337547Y0281366D03*
X0329476Y0281366D03*
X0321208Y0281366D03*
X0313137Y0281366D03*
X0305066Y0281366D03*
X0305066Y0289634D03*
X0313137Y0289634D03*
X0321208Y0289634D03*
X0329476Y0289634D03*
X0337547Y0289634D03*
X0345617Y0289634D03*
X0345617Y0297902D03*
X0337547Y0297902D03*
X0329476Y0297902D03*
X0321208Y0297902D03*
X0313137Y0297902D03*
X0305066Y0297902D03*
X0305066Y0306169D03*
X0313137Y0306169D03*
X0321208Y0306169D03*
X0329476Y0306169D03*
X0337547Y0306169D03*
X0345617Y0306169D03*
X0345617Y0314437D03*
X0337547Y0314437D03*
X0329476Y0314437D03*
X0321208Y0314437D03*
X0313137Y0314437D03*
X0305066Y0314437D03*
X0305066Y0256563D03*
X0313137Y0256563D03*
X0321208Y0256563D03*
X0329476Y0256563D03*
X0337547Y0256563D03*
X0345617Y0256563D03*
X0163617Y0256563D03*
X0155547Y0256563D03*
X0147476Y0256563D03*
X0139208Y0256563D03*
X0131137Y0256563D03*
X0123066Y0256563D03*
X0123066Y0264831D03*
X0131137Y0264831D03*
X0139208Y0264831D03*
X0147476Y0264831D03*
X0155547Y0264831D03*
X0163617Y0264831D03*
X0163617Y0273098D03*
X0155547Y0273098D03*
X0147476Y0273098D03*
X0139208Y0273098D03*
X0131137Y0273098D03*
X0123066Y0273098D03*
X0123066Y0281366D03*
X0131137Y0281366D03*
X0139208Y0281366D03*
X0147476Y0281366D03*
X0155547Y0281366D03*
X0163617Y0281366D03*
X0163617Y0289634D03*
X0155547Y0289634D03*
X0147476Y0289634D03*
X0139208Y0289634D03*
X0131137Y0289634D03*
X0123066Y0289634D03*
X0123066Y0297902D03*
X0131137Y0297902D03*
X0139208Y0297902D03*
X0147476Y0297902D03*
X0155547Y0297902D03*
X0163617Y0297902D03*
X0163617Y0306169D03*
X0155547Y0306169D03*
X0147476Y0306169D03*
X0139208Y0306169D03*
X0131137Y0306169D03*
X0123066Y0306169D03*
X0123066Y0314437D03*
X0131137Y0314437D03*
X0139208Y0314437D03*
X0147476Y0314437D03*
X0155547Y0314437D03*
X0163617Y0314437D03*
D26*
X0250342Y0257390D03*
X0250342Y0255421D03*
X0250342Y0253453D03*
X0250342Y0251484D03*
X0250342Y0249516D03*
X0250342Y0247547D03*
X0250342Y0245579D03*
X0250342Y0243610D03*
X0432342Y0243610D03*
X0432342Y0245579D03*
X0432342Y0247547D03*
X0432342Y0249516D03*
X0432342Y0251484D03*
X0432342Y0253453D03*
X0432342Y0255421D03*
X0432342Y0257390D03*
X0432342Y0085390D03*
X0432342Y0083421D03*
X0432342Y0081453D03*
X0432342Y0079484D03*
X0432342Y0077516D03*
X0432342Y0075547D03*
X0432342Y0073579D03*
X0432342Y0071610D03*
X0250342Y0071610D03*
X0250342Y0073579D03*
X0250342Y0075547D03*
X0250342Y0077516D03*
X0250342Y0079484D03*
X0250342Y0081453D03*
X0250342Y0083421D03*
X0250342Y0085390D03*
X0068342Y0085390D03*
X0068342Y0083421D03*
X0068342Y0081453D03*
X0068342Y0079484D03*
X0068342Y0077516D03*
X0068342Y0075547D03*
X0068342Y0073579D03*
X0068342Y0071610D03*
X0068342Y0243610D03*
X0068342Y0245579D03*
X0068342Y0247547D03*
X0068342Y0249516D03*
X0068342Y0251484D03*
X0068342Y0253453D03*
X0068342Y0255421D03*
X0068342Y0257390D03*
D27*
X0068342Y0263197D03*
X0068342Y0237803D03*
X0250342Y0237803D03*
X0250342Y0263197D03*
X0432342Y0263197D03*
X0432342Y0237803D03*
X0432342Y0091197D03*
X0432342Y0065803D03*
X0250342Y0065803D03*
X0250342Y0091197D03*
X0068342Y0091197D03*
X0068342Y0065803D03*
D28*
X0068342Y0068854D03*
X0068342Y0088146D03*
X0250342Y0088146D03*
X0250342Y0068854D03*
X0432342Y0068854D03*
X0432342Y0088146D03*
X0432342Y0240854D03*
X0432342Y0260146D03*
X0250342Y0260146D03*
X0250342Y0240854D03*
X0068342Y0240854D03*
X0068342Y0260146D03*
D29*
X0067524Y0265207D02*
X0067082Y0265146D01*
X0062358Y0265146D01*
X0061859Y0265226D01*
X0061390Y0265416D01*
X0060976Y0265705D01*
X0060636Y0266079D01*
X0060388Y0266519D01*
X0060244Y0267004D01*
X0060212Y0267508D01*
X0060244Y0268012D01*
X0060388Y0268497D01*
X0060636Y0268937D01*
X0060976Y0269311D01*
X0061390Y0269600D01*
X0061859Y0269789D01*
X0062358Y0269870D01*
X0067082Y0269870D01*
X0067524Y0269809D01*
X0067945Y0269663D01*
X0068330Y0269438D01*
X0068664Y0269142D01*
X0068933Y0268786D01*
X0069128Y0268385D01*
X0069241Y0267953D01*
X0069267Y0267508D01*
X0069241Y0267063D01*
X0069128Y0266631D01*
X0068933Y0266230D01*
X0068664Y0265874D01*
X0068330Y0265578D01*
X0067945Y0265353D01*
X0067524Y0265207D01*
X0067565Y0265221D02*
X0061892Y0265221D01*
X0061779Y0265259D02*
X0067674Y0265259D01*
X0067784Y0265297D02*
X0061685Y0265297D01*
X0061591Y0265334D02*
X0067893Y0265334D01*
X0067979Y0265372D02*
X0061498Y0265372D01*
X0061404Y0265410D02*
X0068044Y0265410D01*
X0068108Y0265448D02*
X0061344Y0265448D01*
X0061290Y0265486D02*
X0068173Y0265486D01*
X0068238Y0265524D02*
X0061235Y0265524D01*
X0061181Y0265562D02*
X0068302Y0265562D01*
X0068355Y0265600D02*
X0061127Y0265600D01*
X0061072Y0265638D02*
X0068397Y0265638D01*
X0068440Y0265675D02*
X0061018Y0265675D01*
X0060968Y0265713D02*
X0068483Y0265713D01*
X0068525Y0265751D02*
X0060934Y0265751D01*
X0060899Y0265789D02*
X0068568Y0265789D01*
X0068610Y0265827D02*
X0060865Y0265827D01*
X0060831Y0265865D02*
X0068653Y0265865D01*
X0068685Y0265903D02*
X0060796Y0265903D01*
X0060762Y0265941D02*
X0068714Y0265941D01*
X0068743Y0265978D02*
X0060727Y0265978D01*
X0060693Y0266016D02*
X0068771Y0266016D01*
X0068800Y0266054D02*
X0060659Y0266054D01*
X0060629Y0266092D02*
X0068829Y0266092D01*
X0068857Y0266130D02*
X0060607Y0266130D01*
X0060586Y0266168D02*
X0068886Y0266168D01*
X0068915Y0266206D02*
X0060565Y0266206D01*
X0060543Y0266244D02*
X0068940Y0266244D01*
X0068958Y0266282D02*
X0060522Y0266282D01*
X0060501Y0266319D02*
X0068977Y0266319D01*
X0068995Y0266357D02*
X0060479Y0266357D01*
X0060458Y0266395D02*
X0069013Y0266395D01*
X0069032Y0266433D02*
X0060437Y0266433D01*
X0060415Y0266471D02*
X0069050Y0266471D01*
X0069069Y0266509D02*
X0060394Y0266509D01*
X0060380Y0266547D02*
X0069087Y0266547D01*
X0069105Y0266585D02*
X0060369Y0266585D01*
X0060357Y0266622D02*
X0069124Y0266622D01*
X0069135Y0266660D02*
X0060346Y0266660D01*
X0060335Y0266698D02*
X0069145Y0266698D01*
X0069155Y0266736D02*
X0060324Y0266736D01*
X0060312Y0266774D02*
X0069165Y0266774D01*
X0069175Y0266812D02*
X0060301Y0266812D01*
X0060290Y0266850D02*
X0069185Y0266850D01*
X0069195Y0266888D02*
X0060279Y0266888D01*
X0060267Y0266926D02*
X0069205Y0266926D01*
X0069215Y0266963D02*
X0060256Y0266963D01*
X0060245Y0267001D02*
X0069225Y0267001D01*
X0069234Y0267039D02*
X0060242Y0267039D01*
X0060240Y0267077D02*
X0069241Y0267077D01*
X0069244Y0267115D02*
X0060237Y0267115D01*
X0060235Y0267153D02*
X0069246Y0267153D01*
X0069248Y0267191D02*
X0060232Y0267191D01*
X0060230Y0267229D02*
X0069250Y0267229D01*
X0069253Y0267266D02*
X0060227Y0267266D01*
X0060225Y0267304D02*
X0069255Y0267304D01*
X0069257Y0267342D02*
X0060223Y0267342D01*
X0060220Y0267380D02*
X0069259Y0267380D01*
X0069262Y0267418D02*
X0060218Y0267418D01*
X0060215Y0267456D02*
X0069264Y0267456D01*
X0069266Y0267494D02*
X0060213Y0267494D01*
X0060213Y0267532D02*
X0069266Y0267532D01*
X0069263Y0267570D02*
X0060216Y0267570D01*
X0060218Y0267607D02*
X0069261Y0267607D01*
X0069259Y0267645D02*
X0060221Y0267645D01*
X0060223Y0267683D02*
X0069257Y0267683D01*
X0069254Y0267721D02*
X0060226Y0267721D01*
X0060228Y0267759D02*
X0069252Y0267759D01*
X0069250Y0267797D02*
X0060230Y0267797D01*
X0060233Y0267835D02*
X0069248Y0267835D01*
X0069245Y0267873D02*
X0060235Y0267873D01*
X0060238Y0267910D02*
X0069243Y0267910D01*
X0069241Y0267948D02*
X0060240Y0267948D01*
X0060243Y0267986D02*
X0069232Y0267986D01*
X0069222Y0268024D02*
X0060248Y0268024D01*
X0060259Y0268062D02*
X0069212Y0268062D01*
X0069202Y0268100D02*
X0060270Y0268100D01*
X0060282Y0268138D02*
X0069192Y0268138D01*
X0069182Y0268176D02*
X0060293Y0268176D01*
X0060304Y0268213D02*
X0069173Y0268213D01*
X0069163Y0268251D02*
X0060315Y0268251D01*
X0060327Y0268289D02*
X0069153Y0268289D01*
X0069143Y0268327D02*
X0060338Y0268327D01*
X0060349Y0268365D02*
X0069133Y0268365D01*
X0069119Y0268403D02*
X0060360Y0268403D01*
X0060372Y0268441D02*
X0069101Y0268441D01*
X0069082Y0268479D02*
X0060383Y0268479D01*
X0060399Y0268517D02*
X0069064Y0268517D01*
X0069045Y0268554D02*
X0060421Y0268554D01*
X0060442Y0268592D02*
X0069027Y0268592D01*
X0069009Y0268630D02*
X0060463Y0268630D01*
X0060485Y0268668D02*
X0068990Y0268668D01*
X0068972Y0268706D02*
X0060506Y0268706D01*
X0060527Y0268744D02*
X0068953Y0268744D01*
X0068935Y0268782D02*
X0060549Y0268782D01*
X0060570Y0268820D02*
X0068908Y0268820D01*
X0068879Y0268857D02*
X0060591Y0268857D01*
X0060613Y0268895D02*
X0068850Y0268895D01*
X0068821Y0268933D02*
X0060634Y0268933D01*
X0060667Y0268971D02*
X0068793Y0268971D01*
X0068764Y0269009D02*
X0060702Y0269009D01*
X0060736Y0269047D02*
X0068735Y0269047D01*
X0068707Y0269085D02*
X0060771Y0269085D01*
X0060805Y0269123D02*
X0068678Y0269123D01*
X0068642Y0269161D02*
X0060839Y0269161D01*
X0060874Y0269198D02*
X0068600Y0269198D01*
X0068557Y0269236D02*
X0060908Y0269236D01*
X0060943Y0269274D02*
X0068514Y0269274D01*
X0068472Y0269312D02*
X0060978Y0269312D01*
X0061032Y0269350D02*
X0068429Y0269350D01*
X0068386Y0269388D02*
X0061086Y0269388D01*
X0061141Y0269426D02*
X0068344Y0269426D01*
X0068286Y0269464D02*
X0061195Y0269464D01*
X0061249Y0269501D02*
X0068221Y0269501D01*
X0068157Y0269539D02*
X0061303Y0269539D01*
X0061358Y0269577D02*
X0068092Y0269577D01*
X0068027Y0269615D02*
X0061428Y0269615D01*
X0061521Y0269653D02*
X0067963Y0269653D01*
X0067865Y0269691D02*
X0061615Y0269691D01*
X0061709Y0269729D02*
X0067756Y0269729D01*
X0067646Y0269767D02*
X0061802Y0269767D01*
X0061952Y0269805D02*
X0067537Y0269805D01*
X0067283Y0269842D02*
X0062186Y0269842D01*
X0062127Y0265183D02*
X0067352Y0265183D01*
X0051779Y0267045D02*
X0051642Y0266601D01*
X0051421Y0266192D01*
X0051124Y0265833D01*
X0050764Y0265540D01*
X0050353Y0265322D01*
X0049907Y0265189D01*
X0049444Y0265146D01*
X0047082Y0265146D01*
X0046623Y0265193D01*
X0046183Y0265328D01*
X0045777Y0265548D01*
X0045421Y0265842D01*
X0045130Y0266199D01*
X0044915Y0266607D01*
X0044783Y0267049D01*
X0044739Y0267508D01*
X0044796Y0268032D01*
X0044968Y0268530D01*
X0045247Y0268977D01*
X0045617Y0269351D01*
X0046062Y0269633D01*
X0046559Y0269809D01*
X0047082Y0269870D01*
X0049444Y0269870D01*
X0049972Y0269813D01*
X0050474Y0269639D01*
X0050925Y0269359D01*
X0051302Y0268985D01*
X0051587Y0268536D01*
X0051764Y0268035D01*
X0051826Y0267508D01*
X0051779Y0267045D01*
X0051777Y0267039D02*
X0044786Y0267039D01*
X0044780Y0267077D02*
X0051782Y0267077D01*
X0051786Y0267115D02*
X0044776Y0267115D01*
X0044773Y0267153D02*
X0051790Y0267153D01*
X0051793Y0267191D02*
X0044769Y0267191D01*
X0044766Y0267229D02*
X0051797Y0267229D01*
X0051801Y0267266D02*
X0044762Y0267266D01*
X0044759Y0267304D02*
X0051805Y0267304D01*
X0051809Y0267342D02*
X0044755Y0267342D01*
X0044752Y0267380D02*
X0051813Y0267380D01*
X0051817Y0267418D02*
X0044748Y0267418D01*
X0044744Y0267456D02*
X0051821Y0267456D01*
X0051825Y0267494D02*
X0044741Y0267494D01*
X0044742Y0267532D02*
X0051823Y0267532D01*
X0051819Y0267570D02*
X0044746Y0267570D01*
X0044750Y0267607D02*
X0051814Y0267607D01*
X0051810Y0267645D02*
X0044754Y0267645D01*
X0044758Y0267683D02*
X0051806Y0267683D01*
X0051801Y0267721D02*
X0044763Y0267721D01*
X0044767Y0267759D02*
X0051797Y0267759D01*
X0051792Y0267797D02*
X0044771Y0267797D01*
X0044775Y0267835D02*
X0051788Y0267835D01*
X0051783Y0267873D02*
X0044779Y0267873D01*
X0044783Y0267910D02*
X0051779Y0267910D01*
X0051775Y0267948D02*
X0044787Y0267948D01*
X0044791Y0267986D02*
X0051770Y0267986D01*
X0051766Y0268024D02*
X0044795Y0268024D01*
X0044807Y0268062D02*
X0051755Y0268062D01*
X0051742Y0268100D02*
X0044820Y0268100D01*
X0044833Y0268138D02*
X0051728Y0268138D01*
X0051715Y0268176D02*
X0044846Y0268176D01*
X0044859Y0268213D02*
X0051701Y0268213D01*
X0051688Y0268251D02*
X0044872Y0268251D01*
X0044885Y0268289D02*
X0051674Y0268289D01*
X0051661Y0268327D02*
X0044898Y0268327D01*
X0044911Y0268365D02*
X0051648Y0268365D01*
X0051634Y0268403D02*
X0044924Y0268403D01*
X0044937Y0268441D02*
X0051621Y0268441D01*
X0051607Y0268479D02*
X0044951Y0268479D01*
X0044964Y0268517D02*
X0051594Y0268517D01*
X0051575Y0268554D02*
X0044984Y0268554D01*
X0045007Y0268592D02*
X0051551Y0268592D01*
X0051527Y0268630D02*
X0045031Y0268630D01*
X0045054Y0268668D02*
X0051503Y0268668D01*
X0051479Y0268706D02*
X0045078Y0268706D01*
X0045102Y0268744D02*
X0051455Y0268744D01*
X0051431Y0268782D02*
X0045125Y0268782D01*
X0045149Y0268820D02*
X0051407Y0268820D01*
X0051383Y0268857D02*
X0045172Y0268857D01*
X0045196Y0268895D02*
X0051359Y0268895D01*
X0051335Y0268933D02*
X0045219Y0268933D01*
X0045243Y0268971D02*
X0051311Y0268971D01*
X0051278Y0269009D02*
X0045279Y0269009D01*
X0045316Y0269047D02*
X0051240Y0269047D01*
X0051201Y0269085D02*
X0045354Y0269085D01*
X0045391Y0269123D02*
X0051163Y0269123D01*
X0051125Y0269161D02*
X0045429Y0269161D01*
X0045466Y0269198D02*
X0051087Y0269198D01*
X0051049Y0269236D02*
X0045504Y0269236D01*
X0045541Y0269274D02*
X0051011Y0269274D01*
X0050972Y0269312D02*
X0045579Y0269312D01*
X0045617Y0269350D02*
X0050934Y0269350D01*
X0050879Y0269388D02*
X0045676Y0269388D01*
X0045736Y0269426D02*
X0050818Y0269426D01*
X0050757Y0269464D02*
X0045795Y0269464D01*
X0045855Y0269501D02*
X0050696Y0269501D01*
X0050635Y0269539D02*
X0045915Y0269539D01*
X0045975Y0269577D02*
X0050574Y0269577D01*
X0050513Y0269615D02*
X0046034Y0269615D01*
X0046119Y0269653D02*
X0050435Y0269653D01*
X0050325Y0269691D02*
X0046226Y0269691D01*
X0046333Y0269729D02*
X0050216Y0269729D01*
X0050106Y0269767D02*
X0046440Y0269767D01*
X0046546Y0269805D02*
X0049996Y0269805D01*
X0049699Y0269842D02*
X0046845Y0269842D01*
X0044797Y0267001D02*
X0051765Y0267001D01*
X0051753Y0266963D02*
X0044808Y0266963D01*
X0044820Y0266926D02*
X0051742Y0266926D01*
X0051730Y0266888D02*
X0044831Y0266888D01*
X0044842Y0266850D02*
X0051718Y0266850D01*
X0051707Y0266812D02*
X0044854Y0266812D01*
X0044865Y0266774D02*
X0051695Y0266774D01*
X0051683Y0266736D02*
X0044876Y0266736D01*
X0044887Y0266698D02*
X0051672Y0266698D01*
X0051660Y0266660D02*
X0044899Y0266660D01*
X0044910Y0266622D02*
X0051648Y0266622D01*
X0051633Y0266585D02*
X0044927Y0266585D01*
X0044947Y0266547D02*
X0051612Y0266547D01*
X0051592Y0266509D02*
X0044967Y0266509D01*
X0044987Y0266471D02*
X0051572Y0266471D01*
X0051551Y0266433D02*
X0045007Y0266433D01*
X0045027Y0266395D02*
X0051531Y0266395D01*
X0051510Y0266357D02*
X0045047Y0266357D01*
X0045067Y0266319D02*
X0051490Y0266319D01*
X0051469Y0266282D02*
X0045087Y0266282D01*
X0045107Y0266244D02*
X0051449Y0266244D01*
X0051428Y0266206D02*
X0045127Y0266206D01*
X0045156Y0266168D02*
X0051401Y0266168D01*
X0051370Y0266130D02*
X0045187Y0266130D01*
X0045218Y0266092D02*
X0051338Y0266092D01*
X0051307Y0266054D02*
X0045248Y0266054D01*
X0045279Y0266016D02*
X0051276Y0266016D01*
X0051244Y0265978D02*
X0045310Y0265978D01*
X0045341Y0265941D02*
X0051213Y0265941D01*
X0051182Y0265903D02*
X0045372Y0265903D01*
X0045403Y0265865D02*
X0051150Y0265865D01*
X0051116Y0265827D02*
X0045439Y0265827D01*
X0045485Y0265789D02*
X0051070Y0265789D01*
X0051023Y0265751D02*
X0045531Y0265751D01*
X0045576Y0265713D02*
X0050977Y0265713D01*
X0050930Y0265675D02*
X0045622Y0265675D01*
X0045668Y0265638D02*
X0050884Y0265638D01*
X0050837Y0265600D02*
X0045714Y0265600D01*
X0045760Y0265562D02*
X0050791Y0265562D01*
X0050733Y0265524D02*
X0045821Y0265524D01*
X0045891Y0265486D02*
X0050662Y0265486D01*
X0050590Y0265448D02*
X0045961Y0265448D01*
X0046031Y0265410D02*
X0050519Y0265410D01*
X0050447Y0265372D02*
X0046101Y0265372D01*
X0046171Y0265334D02*
X0050375Y0265334D01*
X0050266Y0265297D02*
X0046286Y0265297D01*
X0046409Y0265259D02*
X0050139Y0265259D01*
X0050013Y0265221D02*
X0046532Y0265221D01*
X0046719Y0265183D02*
X0049840Y0265183D01*
X0049444Y0235854D02*
X0047082Y0235854D01*
X0046559Y0235793D01*
X0046062Y0235617D01*
X0045617Y0235335D01*
X0045247Y0234961D01*
X0044968Y0234514D01*
X0044796Y0234016D01*
X0044739Y0233492D01*
X0044783Y0233033D01*
X0044915Y0232591D01*
X0045130Y0232184D01*
X0045421Y0231826D01*
X0045777Y0231532D01*
X0046183Y0231313D01*
X0046623Y0231177D01*
X0047082Y0231130D01*
X0049444Y0231130D01*
X0049907Y0231174D01*
X0050353Y0231307D01*
X0050764Y0231524D01*
X0051124Y0231818D01*
X0051421Y0232176D01*
X0051642Y0232585D01*
X0051779Y0233030D01*
X0051826Y0233492D01*
X0051764Y0234020D01*
X0051587Y0234520D01*
X0051302Y0234969D01*
X0050925Y0235343D01*
X0050474Y0235624D01*
X0049972Y0235797D01*
X0049444Y0235854D01*
X0049716Y0235825D02*
X0046830Y0235825D01*
X0046541Y0235787D02*
X0050001Y0235787D01*
X0050111Y0235749D02*
X0046435Y0235749D01*
X0046328Y0235711D02*
X0050221Y0235711D01*
X0050330Y0235673D02*
X0046221Y0235673D01*
X0046114Y0235635D02*
X0050440Y0235635D01*
X0050516Y0235598D02*
X0046032Y0235598D01*
X0045972Y0235560D02*
X0050577Y0235560D01*
X0050638Y0235522D02*
X0045912Y0235522D01*
X0045852Y0235484D02*
X0050699Y0235484D01*
X0050760Y0235446D02*
X0045793Y0235446D01*
X0045733Y0235408D02*
X0050820Y0235408D01*
X0050881Y0235370D02*
X0045673Y0235370D01*
X0045615Y0235332D02*
X0050936Y0235332D01*
X0050974Y0235295D02*
X0045577Y0235295D01*
X0045540Y0235257D02*
X0051012Y0235257D01*
X0051050Y0235219D02*
X0045502Y0235219D01*
X0045465Y0235181D02*
X0051089Y0235181D01*
X0051127Y0235143D02*
X0045427Y0235143D01*
X0045390Y0235105D02*
X0051165Y0235105D01*
X0051203Y0235067D02*
X0045352Y0235067D01*
X0045314Y0235029D02*
X0051241Y0235029D01*
X0051280Y0234991D02*
X0045277Y0234991D01*
X0045242Y0234954D02*
X0051312Y0234954D01*
X0051336Y0234916D02*
X0045218Y0234916D01*
X0045195Y0234878D02*
X0051360Y0234878D01*
X0051384Y0234840D02*
X0045171Y0234840D01*
X0045148Y0234802D02*
X0051408Y0234802D01*
X0051432Y0234764D02*
X0045124Y0234764D01*
X0045100Y0234726D02*
X0051456Y0234726D01*
X0051480Y0234688D02*
X0045077Y0234688D01*
X0045053Y0234651D02*
X0051504Y0234651D01*
X0051528Y0234613D02*
X0045030Y0234613D01*
X0045006Y0234575D02*
X0051552Y0234575D01*
X0051576Y0234537D02*
X0044983Y0234537D01*
X0044963Y0234499D02*
X0051594Y0234499D01*
X0051608Y0234461D02*
X0044950Y0234461D01*
X0044937Y0234423D02*
X0051621Y0234423D01*
X0051635Y0234385D02*
X0044924Y0234385D01*
X0044911Y0234348D02*
X0051648Y0234348D01*
X0051662Y0234310D02*
X0044898Y0234310D01*
X0044885Y0234272D02*
X0051675Y0234272D01*
X0051688Y0234234D02*
X0044872Y0234234D01*
X0044858Y0234196D02*
X0051702Y0234196D01*
X0051715Y0234158D02*
X0044845Y0234158D01*
X0044832Y0234120D02*
X0051729Y0234120D01*
X0051742Y0234082D02*
X0044819Y0234082D01*
X0044806Y0234044D02*
X0051756Y0234044D01*
X0051766Y0234007D02*
X0044795Y0234007D01*
X0044791Y0233969D02*
X0051770Y0233969D01*
X0051775Y0233931D02*
X0044787Y0233931D01*
X0044783Y0233893D02*
X0051779Y0233893D01*
X0051784Y0233855D02*
X0044779Y0233855D01*
X0044775Y0233817D02*
X0051788Y0233817D01*
X0051792Y0233779D02*
X0044771Y0233779D01*
X0044766Y0233741D02*
X0051797Y0233741D01*
X0051801Y0233704D02*
X0044762Y0233704D01*
X0044758Y0233666D02*
X0051806Y0233666D01*
X0051810Y0233628D02*
X0044754Y0233628D01*
X0044750Y0233590D02*
X0051815Y0233590D01*
X0051819Y0233552D02*
X0044746Y0233552D01*
X0044742Y0233514D02*
X0051823Y0233514D01*
X0051824Y0233476D02*
X0044741Y0233476D01*
X0044745Y0233438D02*
X0051821Y0233438D01*
X0051817Y0233400D02*
X0044748Y0233400D01*
X0044752Y0233363D02*
X0051813Y0233363D01*
X0051809Y0233325D02*
X0044755Y0233325D01*
X0044759Y0233287D02*
X0051805Y0233287D01*
X0051801Y0233249D02*
X0044762Y0233249D01*
X0044766Y0233211D02*
X0051797Y0233211D01*
X0051793Y0233173D02*
X0044770Y0233173D01*
X0044773Y0233135D02*
X0051789Y0233135D01*
X0051786Y0233097D02*
X0044777Y0233097D01*
X0044780Y0233060D02*
X0051782Y0233060D01*
X0051776Y0233022D02*
X0044786Y0233022D01*
X0044797Y0232984D02*
X0051764Y0232984D01*
X0051753Y0232946D02*
X0044809Y0232946D01*
X0044820Y0232908D02*
X0051741Y0232908D01*
X0051729Y0232870D02*
X0044831Y0232870D01*
X0044843Y0232832D02*
X0051718Y0232832D01*
X0051706Y0232794D02*
X0044854Y0232794D01*
X0044865Y0232756D02*
X0051695Y0232756D01*
X0051683Y0232719D02*
X0044877Y0232719D01*
X0044888Y0232681D02*
X0051671Y0232681D01*
X0051660Y0232643D02*
X0044899Y0232643D01*
X0044911Y0232605D02*
X0051648Y0232605D01*
X0051632Y0232567D02*
X0044927Y0232567D01*
X0044948Y0232529D02*
X0051612Y0232529D01*
X0051591Y0232491D02*
X0044968Y0232491D01*
X0044988Y0232453D02*
X0051571Y0232453D01*
X0051550Y0232416D02*
X0045008Y0232416D01*
X0045028Y0232378D02*
X0051530Y0232378D01*
X0051509Y0232340D02*
X0045048Y0232340D01*
X0045068Y0232302D02*
X0051489Y0232302D01*
X0051468Y0232264D02*
X0045088Y0232264D01*
X0045108Y0232226D02*
X0051448Y0232226D01*
X0051427Y0232188D02*
X0045128Y0232188D01*
X0045157Y0232150D02*
X0051400Y0232150D01*
X0051368Y0232113D02*
X0045188Y0232113D01*
X0045219Y0232075D02*
X0051337Y0232075D01*
X0051306Y0232037D02*
X0045250Y0232037D01*
X0045281Y0231999D02*
X0051274Y0231999D01*
X0051243Y0231961D02*
X0045312Y0231961D01*
X0045342Y0231923D02*
X0051212Y0231923D01*
X0051180Y0231885D02*
X0045373Y0231885D01*
X0045404Y0231847D02*
X0051149Y0231847D01*
X0051114Y0231809D02*
X0045441Y0231809D01*
X0045487Y0231772D02*
X0051068Y0231772D01*
X0051021Y0231734D02*
X0045533Y0231734D01*
X0045579Y0231696D02*
X0050975Y0231696D01*
X0050928Y0231658D02*
X0045624Y0231658D01*
X0045670Y0231620D02*
X0050881Y0231620D01*
X0050835Y0231582D02*
X0045716Y0231582D01*
X0045762Y0231544D02*
X0050788Y0231544D01*
X0050730Y0231506D02*
X0045824Y0231506D01*
X0045894Y0231469D02*
X0050658Y0231469D01*
X0050587Y0231431D02*
X0045964Y0231431D01*
X0046034Y0231393D02*
X0050515Y0231393D01*
X0050444Y0231355D02*
X0046104Y0231355D01*
X0046175Y0231317D02*
X0050372Y0231317D01*
X0050260Y0231279D02*
X0046292Y0231279D01*
X0046415Y0231241D02*
X0050134Y0231241D01*
X0050007Y0231203D02*
X0046538Y0231203D01*
X0046736Y0231165D02*
X0049821Y0231165D01*
X0060244Y0232988D02*
X0060212Y0233492D01*
X0060244Y0233996D01*
X0060388Y0234481D01*
X0060636Y0234921D01*
X0060976Y0235295D01*
X0061390Y0235584D01*
X0061859Y0235774D01*
X0062358Y0235854D01*
X0067082Y0235854D01*
X0067524Y0235793D01*
X0067945Y0235647D01*
X0068330Y0235422D01*
X0068664Y0235126D01*
X0068933Y0234770D01*
X0069128Y0234369D01*
X0069241Y0233937D01*
X0069267Y0233492D01*
X0069241Y0233047D01*
X0069128Y0232615D01*
X0068933Y0232214D01*
X0068664Y0231858D01*
X0068330Y0231562D01*
X0067945Y0231337D01*
X0067524Y0231191D01*
X0067082Y0231130D01*
X0062358Y0231130D01*
X0061859Y0231211D01*
X0061390Y0231400D01*
X0060976Y0231689D01*
X0060636Y0232063D01*
X0060388Y0232503D01*
X0060244Y0232988D01*
X0060246Y0232984D02*
X0069224Y0232984D01*
X0069234Y0233022D02*
X0060242Y0233022D01*
X0060240Y0233060D02*
X0069241Y0233060D01*
X0069244Y0233097D02*
X0060237Y0233097D01*
X0060235Y0233135D02*
X0069246Y0233135D01*
X0069248Y0233173D02*
X0060232Y0233173D01*
X0060230Y0233211D02*
X0069250Y0233211D01*
X0069253Y0233249D02*
X0060228Y0233249D01*
X0060225Y0233287D02*
X0069255Y0233287D01*
X0069257Y0233325D02*
X0060223Y0233325D01*
X0060220Y0233363D02*
X0069259Y0233363D01*
X0069262Y0233400D02*
X0060218Y0233400D01*
X0060215Y0233438D02*
X0069264Y0233438D01*
X0069266Y0233476D02*
X0060213Y0233476D01*
X0060213Y0233514D02*
X0069266Y0233514D01*
X0069263Y0233552D02*
X0060216Y0233552D01*
X0060218Y0233590D02*
X0069261Y0233590D01*
X0069259Y0233628D02*
X0060221Y0233628D01*
X0060223Y0233666D02*
X0069257Y0233666D01*
X0069254Y0233704D02*
X0060225Y0233704D01*
X0060228Y0233741D02*
X0069252Y0233741D01*
X0069250Y0233779D02*
X0060230Y0233779D01*
X0060233Y0233817D02*
X0069248Y0233817D01*
X0069245Y0233855D02*
X0060235Y0233855D01*
X0060238Y0233893D02*
X0069243Y0233893D01*
X0069241Y0233931D02*
X0060240Y0233931D01*
X0060243Y0233969D02*
X0069232Y0233969D01*
X0069223Y0234007D02*
X0060247Y0234007D01*
X0060259Y0234044D02*
X0069213Y0234044D01*
X0069203Y0234082D02*
X0060270Y0234082D01*
X0060281Y0234120D02*
X0069193Y0234120D01*
X0069183Y0234158D02*
X0060292Y0234158D01*
X0060304Y0234196D02*
X0069173Y0234196D01*
X0069163Y0234234D02*
X0060315Y0234234D01*
X0060326Y0234272D02*
X0069153Y0234272D01*
X0069143Y0234310D02*
X0060337Y0234310D01*
X0060349Y0234348D02*
X0069133Y0234348D01*
X0069120Y0234385D02*
X0060360Y0234385D01*
X0060371Y0234423D02*
X0069101Y0234423D01*
X0069083Y0234461D02*
X0060382Y0234461D01*
X0060398Y0234499D02*
X0069065Y0234499D01*
X0069046Y0234537D02*
X0060420Y0234537D01*
X0060441Y0234575D02*
X0069028Y0234575D01*
X0069010Y0234613D02*
X0060462Y0234613D01*
X0060484Y0234651D02*
X0068991Y0234651D01*
X0068973Y0234688D02*
X0060505Y0234688D01*
X0060526Y0234726D02*
X0068954Y0234726D01*
X0068936Y0234764D02*
X0060548Y0234764D01*
X0060569Y0234802D02*
X0068909Y0234802D01*
X0068880Y0234840D02*
X0060590Y0234840D01*
X0060612Y0234878D02*
X0068852Y0234878D01*
X0068823Y0234916D02*
X0060633Y0234916D01*
X0060666Y0234954D02*
X0068794Y0234954D01*
X0068765Y0234991D02*
X0060700Y0234991D01*
X0060735Y0235029D02*
X0068737Y0235029D01*
X0068708Y0235067D02*
X0060769Y0235067D01*
X0060803Y0235105D02*
X0068679Y0235105D01*
X0068644Y0235143D02*
X0060838Y0235143D01*
X0060872Y0235181D02*
X0068602Y0235181D01*
X0068559Y0235219D02*
X0060907Y0235219D01*
X0060941Y0235257D02*
X0068516Y0235257D01*
X0068474Y0235295D02*
X0060975Y0235295D01*
X0061029Y0235332D02*
X0068431Y0235332D01*
X0068388Y0235370D02*
X0061084Y0235370D01*
X0061138Y0235408D02*
X0068346Y0235408D01*
X0068289Y0235446D02*
X0061192Y0235446D01*
X0061247Y0235484D02*
X0068224Y0235484D01*
X0068160Y0235522D02*
X0061301Y0235522D01*
X0061355Y0235560D02*
X0068095Y0235560D01*
X0068030Y0235598D02*
X0061424Y0235598D01*
X0061517Y0235635D02*
X0067966Y0235635D01*
X0067870Y0235673D02*
X0061611Y0235673D01*
X0061704Y0235711D02*
X0067761Y0235711D01*
X0067652Y0235749D02*
X0061798Y0235749D01*
X0061941Y0235787D02*
X0067542Y0235787D01*
X0067295Y0235825D02*
X0062175Y0235825D01*
X0060257Y0232946D02*
X0069214Y0232946D01*
X0069204Y0232908D02*
X0060268Y0232908D01*
X0060279Y0232870D02*
X0069194Y0232870D01*
X0069185Y0232832D02*
X0060291Y0232832D01*
X0060302Y0232794D02*
X0069175Y0232794D01*
X0069165Y0232756D02*
X0060313Y0232756D01*
X0060324Y0232719D02*
X0069155Y0232719D01*
X0069145Y0232681D02*
X0060335Y0232681D01*
X0060347Y0232643D02*
X0069135Y0232643D01*
X0069123Y0232605D02*
X0060358Y0232605D01*
X0060369Y0232567D02*
X0069104Y0232567D01*
X0069086Y0232529D02*
X0060380Y0232529D01*
X0060395Y0232491D02*
X0069068Y0232491D01*
X0069049Y0232453D02*
X0060416Y0232453D01*
X0060438Y0232416D02*
X0069031Y0232416D01*
X0069012Y0232378D02*
X0060459Y0232378D01*
X0060480Y0232340D02*
X0068994Y0232340D01*
X0068976Y0232302D02*
X0060502Y0232302D01*
X0060523Y0232264D02*
X0068957Y0232264D01*
X0068939Y0232226D02*
X0060544Y0232226D01*
X0060566Y0232188D02*
X0068914Y0232188D01*
X0068885Y0232150D02*
X0060587Y0232150D01*
X0060608Y0232113D02*
X0068856Y0232113D01*
X0068827Y0232075D02*
X0060630Y0232075D01*
X0060660Y0232037D02*
X0068799Y0232037D01*
X0068770Y0231999D02*
X0060695Y0231999D01*
X0060729Y0231961D02*
X0068741Y0231961D01*
X0068713Y0231923D02*
X0060763Y0231923D01*
X0060798Y0231885D02*
X0068684Y0231885D01*
X0068651Y0231847D02*
X0060832Y0231847D01*
X0060867Y0231809D02*
X0068609Y0231809D01*
X0068566Y0231772D02*
X0060901Y0231772D01*
X0060935Y0231734D02*
X0068523Y0231734D01*
X0068481Y0231696D02*
X0060970Y0231696D01*
X0061021Y0231658D02*
X0068438Y0231658D01*
X0068395Y0231620D02*
X0061075Y0231620D01*
X0061129Y0231582D02*
X0068353Y0231582D01*
X0068299Y0231544D02*
X0061184Y0231544D01*
X0061238Y0231506D02*
X0068235Y0231506D01*
X0068170Y0231469D02*
X0061292Y0231469D01*
X0061347Y0231431D02*
X0068105Y0231431D01*
X0068041Y0231393D02*
X0061408Y0231393D01*
X0061502Y0231355D02*
X0067976Y0231355D01*
X0067888Y0231317D02*
X0061596Y0231317D01*
X0061689Y0231279D02*
X0067779Y0231279D01*
X0067669Y0231241D02*
X0061783Y0231241D01*
X0061903Y0231203D02*
X0067560Y0231203D01*
X0067340Y0231165D02*
X0062137Y0231165D01*
X0226739Y0233492D02*
X0226796Y0234016D01*
X0226968Y0234514D01*
X0227247Y0234961D01*
X0227617Y0235335D01*
X0228062Y0235617D01*
X0228559Y0235793D01*
X0229082Y0235854D01*
X0231444Y0235854D01*
X0231972Y0235797D01*
X0232474Y0235624D01*
X0232925Y0235343D01*
X0233302Y0234969D01*
X0233587Y0234520D01*
X0233764Y0234020D01*
X0233826Y0233492D01*
X0233779Y0233030D01*
X0233642Y0232585D01*
X0233421Y0232176D01*
X0233124Y0231818D01*
X0232764Y0231524D01*
X0232353Y0231307D01*
X0231907Y0231174D01*
X0231444Y0231130D01*
X0229082Y0231130D01*
X0228623Y0231177D01*
X0228183Y0231313D01*
X0227777Y0231532D01*
X0227421Y0231826D01*
X0227130Y0232184D01*
X0226915Y0232591D01*
X0226783Y0233033D01*
X0226739Y0233492D01*
X0226741Y0233476D02*
X0233824Y0233476D01*
X0233821Y0233438D02*
X0226745Y0233438D01*
X0226748Y0233400D02*
X0233817Y0233400D01*
X0233813Y0233363D02*
X0226752Y0233363D01*
X0226755Y0233325D02*
X0233809Y0233325D01*
X0233805Y0233287D02*
X0226759Y0233287D01*
X0226762Y0233249D02*
X0233801Y0233249D01*
X0233797Y0233211D02*
X0226766Y0233211D01*
X0226770Y0233173D02*
X0233793Y0233173D01*
X0233789Y0233135D02*
X0226773Y0233135D01*
X0226777Y0233097D02*
X0233786Y0233097D01*
X0233782Y0233060D02*
X0226780Y0233060D01*
X0226786Y0233022D02*
X0233776Y0233022D01*
X0233764Y0232984D02*
X0226797Y0232984D01*
X0226809Y0232946D02*
X0233753Y0232946D01*
X0233741Y0232908D02*
X0226820Y0232908D01*
X0226831Y0232870D02*
X0233729Y0232870D01*
X0233718Y0232832D02*
X0226843Y0232832D01*
X0226854Y0232794D02*
X0233706Y0232794D01*
X0233695Y0232756D02*
X0226865Y0232756D01*
X0226877Y0232719D02*
X0233683Y0232719D01*
X0233671Y0232681D02*
X0226888Y0232681D01*
X0226899Y0232643D02*
X0233660Y0232643D01*
X0233648Y0232605D02*
X0226911Y0232605D01*
X0226927Y0232567D02*
X0233632Y0232567D01*
X0233612Y0232529D02*
X0226948Y0232529D01*
X0226968Y0232491D02*
X0233591Y0232491D01*
X0233571Y0232453D02*
X0226988Y0232453D01*
X0227008Y0232416D02*
X0233550Y0232416D01*
X0233530Y0232378D02*
X0227028Y0232378D01*
X0227048Y0232340D02*
X0233509Y0232340D01*
X0233489Y0232302D02*
X0227068Y0232302D01*
X0227088Y0232264D02*
X0233468Y0232264D01*
X0233448Y0232226D02*
X0227108Y0232226D01*
X0227128Y0232188D02*
X0233427Y0232188D01*
X0233400Y0232150D02*
X0227157Y0232150D01*
X0227188Y0232113D02*
X0233368Y0232113D01*
X0233337Y0232075D02*
X0227219Y0232075D01*
X0227250Y0232037D02*
X0233306Y0232037D01*
X0233274Y0231999D02*
X0227281Y0231999D01*
X0227312Y0231961D02*
X0233243Y0231961D01*
X0233212Y0231923D02*
X0227342Y0231923D01*
X0227373Y0231885D02*
X0233180Y0231885D01*
X0233149Y0231847D02*
X0227404Y0231847D01*
X0227441Y0231809D02*
X0233114Y0231809D01*
X0233068Y0231772D02*
X0227487Y0231772D01*
X0227533Y0231734D02*
X0233021Y0231734D01*
X0232975Y0231696D02*
X0227579Y0231696D01*
X0227624Y0231658D02*
X0232928Y0231658D01*
X0232881Y0231620D02*
X0227670Y0231620D01*
X0227716Y0231582D02*
X0232835Y0231582D01*
X0232788Y0231544D02*
X0227762Y0231544D01*
X0227824Y0231506D02*
X0232730Y0231506D01*
X0232658Y0231469D02*
X0227894Y0231469D01*
X0227964Y0231431D02*
X0232587Y0231431D01*
X0232515Y0231393D02*
X0228034Y0231393D01*
X0228104Y0231355D02*
X0232444Y0231355D01*
X0232372Y0231317D02*
X0228175Y0231317D01*
X0228292Y0231279D02*
X0232260Y0231279D01*
X0232134Y0231241D02*
X0228415Y0231241D01*
X0228538Y0231203D02*
X0232007Y0231203D01*
X0231821Y0231165D02*
X0228736Y0231165D01*
X0226742Y0233514D02*
X0233823Y0233514D01*
X0233819Y0233552D02*
X0226746Y0233552D01*
X0226750Y0233590D02*
X0233815Y0233590D01*
X0233810Y0233628D02*
X0226754Y0233628D01*
X0226758Y0233666D02*
X0233806Y0233666D01*
X0233801Y0233704D02*
X0226762Y0233704D01*
X0226766Y0233741D02*
X0233797Y0233741D01*
X0233792Y0233779D02*
X0226771Y0233779D01*
X0226775Y0233817D02*
X0233788Y0233817D01*
X0233784Y0233855D02*
X0226779Y0233855D01*
X0226783Y0233893D02*
X0233779Y0233893D01*
X0233775Y0233931D02*
X0226787Y0233931D01*
X0226791Y0233969D02*
X0233770Y0233969D01*
X0233766Y0234007D02*
X0226795Y0234007D01*
X0226806Y0234044D02*
X0233756Y0234044D01*
X0233742Y0234082D02*
X0226819Y0234082D01*
X0226832Y0234120D02*
X0233729Y0234120D01*
X0233715Y0234158D02*
X0226845Y0234158D01*
X0226858Y0234196D02*
X0233702Y0234196D01*
X0233688Y0234234D02*
X0226872Y0234234D01*
X0226885Y0234272D02*
X0233675Y0234272D01*
X0233662Y0234310D02*
X0226898Y0234310D01*
X0226911Y0234348D02*
X0233648Y0234348D01*
X0233635Y0234385D02*
X0226924Y0234385D01*
X0226937Y0234423D02*
X0233621Y0234423D01*
X0233608Y0234461D02*
X0226950Y0234461D01*
X0226963Y0234499D02*
X0233594Y0234499D01*
X0233576Y0234537D02*
X0226983Y0234537D01*
X0227006Y0234575D02*
X0233552Y0234575D01*
X0233528Y0234613D02*
X0227030Y0234613D01*
X0227053Y0234651D02*
X0233504Y0234651D01*
X0233480Y0234688D02*
X0227077Y0234688D01*
X0227100Y0234726D02*
X0233456Y0234726D01*
X0233432Y0234764D02*
X0227124Y0234764D01*
X0227148Y0234802D02*
X0233408Y0234802D01*
X0233384Y0234840D02*
X0227171Y0234840D01*
X0227195Y0234878D02*
X0233360Y0234878D01*
X0233336Y0234916D02*
X0227218Y0234916D01*
X0227242Y0234954D02*
X0233312Y0234954D01*
X0233280Y0234991D02*
X0227277Y0234991D01*
X0227314Y0235029D02*
X0233241Y0235029D01*
X0233203Y0235067D02*
X0227352Y0235067D01*
X0227390Y0235105D02*
X0233165Y0235105D01*
X0233127Y0235143D02*
X0227427Y0235143D01*
X0227465Y0235181D02*
X0233089Y0235181D01*
X0233050Y0235219D02*
X0227502Y0235219D01*
X0227540Y0235257D02*
X0233012Y0235257D01*
X0232974Y0235295D02*
X0227577Y0235295D01*
X0227615Y0235332D02*
X0232936Y0235332D01*
X0232881Y0235370D02*
X0227673Y0235370D01*
X0227733Y0235408D02*
X0232820Y0235408D01*
X0232760Y0235446D02*
X0227793Y0235446D01*
X0227852Y0235484D02*
X0232699Y0235484D01*
X0232638Y0235522D02*
X0227912Y0235522D01*
X0227972Y0235560D02*
X0232577Y0235560D01*
X0232516Y0235598D02*
X0228032Y0235598D01*
X0228114Y0235635D02*
X0232440Y0235635D01*
X0232330Y0235673D02*
X0228221Y0235673D01*
X0228328Y0235711D02*
X0232221Y0235711D01*
X0232111Y0235749D02*
X0228435Y0235749D01*
X0228541Y0235787D02*
X0232001Y0235787D01*
X0231716Y0235825D02*
X0228830Y0235825D01*
X0242244Y0233996D02*
X0242388Y0234481D01*
X0242636Y0234921D01*
X0242976Y0235295D01*
X0243390Y0235584D01*
X0243859Y0235774D01*
X0244358Y0235854D01*
X0249082Y0235854D01*
X0249524Y0235793D01*
X0249945Y0235647D01*
X0250330Y0235422D01*
X0250664Y0235126D01*
X0250933Y0234770D01*
X0251128Y0234369D01*
X0251241Y0233937D01*
X0251267Y0233492D01*
X0251241Y0233047D01*
X0251128Y0232615D01*
X0250933Y0232214D01*
X0250664Y0231858D01*
X0250330Y0231562D01*
X0249945Y0231337D01*
X0249524Y0231191D01*
X0249082Y0231130D01*
X0244358Y0231130D01*
X0243859Y0231211D01*
X0243390Y0231400D01*
X0242976Y0231689D01*
X0242636Y0232063D01*
X0242388Y0232503D01*
X0242244Y0232988D01*
X0242212Y0233492D01*
X0242244Y0233996D01*
X0242247Y0234007D02*
X0251223Y0234007D01*
X0251213Y0234044D02*
X0242259Y0234044D01*
X0242270Y0234082D02*
X0251203Y0234082D01*
X0251193Y0234120D02*
X0242281Y0234120D01*
X0242292Y0234158D02*
X0251183Y0234158D01*
X0251173Y0234196D02*
X0242304Y0234196D01*
X0242315Y0234234D02*
X0251163Y0234234D01*
X0251153Y0234272D02*
X0242326Y0234272D01*
X0242337Y0234310D02*
X0251143Y0234310D01*
X0251133Y0234348D02*
X0242349Y0234348D01*
X0242360Y0234385D02*
X0251120Y0234385D01*
X0251101Y0234423D02*
X0242371Y0234423D01*
X0242382Y0234461D02*
X0251083Y0234461D01*
X0251065Y0234499D02*
X0242398Y0234499D01*
X0242420Y0234537D02*
X0251046Y0234537D01*
X0251028Y0234575D02*
X0242441Y0234575D01*
X0242462Y0234613D02*
X0251010Y0234613D01*
X0250991Y0234651D02*
X0242484Y0234651D01*
X0242505Y0234688D02*
X0250973Y0234688D01*
X0250954Y0234726D02*
X0242526Y0234726D01*
X0242548Y0234764D02*
X0250936Y0234764D01*
X0250909Y0234802D02*
X0242569Y0234802D01*
X0242590Y0234840D02*
X0250880Y0234840D01*
X0250852Y0234878D02*
X0242612Y0234878D01*
X0242633Y0234916D02*
X0250823Y0234916D01*
X0250794Y0234954D02*
X0242666Y0234954D01*
X0242700Y0234991D02*
X0250765Y0234991D01*
X0250737Y0235029D02*
X0242735Y0235029D01*
X0242769Y0235067D02*
X0250708Y0235067D01*
X0250679Y0235105D02*
X0242803Y0235105D01*
X0242838Y0235143D02*
X0250644Y0235143D01*
X0250602Y0235181D02*
X0242872Y0235181D01*
X0242907Y0235219D02*
X0250559Y0235219D01*
X0250516Y0235257D02*
X0242941Y0235257D01*
X0242975Y0235295D02*
X0250474Y0235295D01*
X0250431Y0235332D02*
X0243029Y0235332D01*
X0243084Y0235370D02*
X0250388Y0235370D01*
X0250346Y0235408D02*
X0243138Y0235408D01*
X0243192Y0235446D02*
X0250289Y0235446D01*
X0250224Y0235484D02*
X0243247Y0235484D01*
X0243301Y0235522D02*
X0250160Y0235522D01*
X0250095Y0235560D02*
X0243355Y0235560D01*
X0243424Y0235598D02*
X0250030Y0235598D01*
X0249966Y0235635D02*
X0243517Y0235635D01*
X0243611Y0235673D02*
X0249870Y0235673D01*
X0249761Y0235711D02*
X0243704Y0235711D01*
X0243798Y0235749D02*
X0249652Y0235749D01*
X0249542Y0235787D02*
X0243941Y0235787D01*
X0244175Y0235825D02*
X0249295Y0235825D01*
X0251232Y0233969D02*
X0242243Y0233969D01*
X0242240Y0233931D02*
X0251241Y0233931D01*
X0251243Y0233893D02*
X0242238Y0233893D01*
X0242235Y0233855D02*
X0251245Y0233855D01*
X0251248Y0233817D02*
X0242233Y0233817D01*
X0242230Y0233779D02*
X0251250Y0233779D01*
X0251252Y0233741D02*
X0242228Y0233741D01*
X0242225Y0233704D02*
X0251254Y0233704D01*
X0251257Y0233666D02*
X0242223Y0233666D01*
X0242221Y0233628D02*
X0251259Y0233628D01*
X0251261Y0233590D02*
X0242218Y0233590D01*
X0242216Y0233552D02*
X0251263Y0233552D01*
X0251266Y0233514D02*
X0242213Y0233514D01*
X0242213Y0233476D02*
X0251266Y0233476D01*
X0251264Y0233438D02*
X0242215Y0233438D01*
X0242218Y0233400D02*
X0251262Y0233400D01*
X0251259Y0233363D02*
X0242220Y0233363D01*
X0242223Y0233325D02*
X0251257Y0233325D01*
X0251255Y0233287D02*
X0242225Y0233287D01*
X0242228Y0233249D02*
X0251253Y0233249D01*
X0251250Y0233211D02*
X0242230Y0233211D01*
X0242232Y0233173D02*
X0251248Y0233173D01*
X0251246Y0233135D02*
X0242235Y0233135D01*
X0242237Y0233097D02*
X0251244Y0233097D01*
X0251241Y0233060D02*
X0242240Y0233060D01*
X0242242Y0233022D02*
X0251234Y0233022D01*
X0251224Y0232984D02*
X0242246Y0232984D01*
X0242257Y0232946D02*
X0251214Y0232946D01*
X0251204Y0232908D02*
X0242268Y0232908D01*
X0242279Y0232870D02*
X0251194Y0232870D01*
X0251185Y0232832D02*
X0242291Y0232832D01*
X0242302Y0232794D02*
X0251175Y0232794D01*
X0251165Y0232756D02*
X0242313Y0232756D01*
X0242324Y0232719D02*
X0251155Y0232719D01*
X0251145Y0232681D02*
X0242335Y0232681D01*
X0242347Y0232643D02*
X0251135Y0232643D01*
X0251123Y0232605D02*
X0242358Y0232605D01*
X0242369Y0232567D02*
X0251104Y0232567D01*
X0251086Y0232529D02*
X0242380Y0232529D01*
X0242395Y0232491D02*
X0251068Y0232491D01*
X0251049Y0232453D02*
X0242416Y0232453D01*
X0242438Y0232416D02*
X0251031Y0232416D01*
X0251012Y0232378D02*
X0242459Y0232378D01*
X0242480Y0232340D02*
X0250994Y0232340D01*
X0250976Y0232302D02*
X0242502Y0232302D01*
X0242523Y0232264D02*
X0250957Y0232264D01*
X0250939Y0232226D02*
X0242544Y0232226D01*
X0242566Y0232188D02*
X0250914Y0232188D01*
X0250885Y0232150D02*
X0242587Y0232150D01*
X0242608Y0232113D02*
X0250856Y0232113D01*
X0250827Y0232075D02*
X0242630Y0232075D01*
X0242660Y0232037D02*
X0250799Y0232037D01*
X0250770Y0231999D02*
X0242695Y0231999D01*
X0242729Y0231961D02*
X0250741Y0231961D01*
X0250713Y0231923D02*
X0242763Y0231923D01*
X0242798Y0231885D02*
X0250684Y0231885D01*
X0250651Y0231847D02*
X0242832Y0231847D01*
X0242867Y0231809D02*
X0250609Y0231809D01*
X0250566Y0231772D02*
X0242901Y0231772D01*
X0242935Y0231734D02*
X0250523Y0231734D01*
X0250481Y0231696D02*
X0242970Y0231696D01*
X0243021Y0231658D02*
X0250438Y0231658D01*
X0250395Y0231620D02*
X0243075Y0231620D01*
X0243129Y0231582D02*
X0250353Y0231582D01*
X0250299Y0231544D02*
X0243184Y0231544D01*
X0243238Y0231506D02*
X0250235Y0231506D01*
X0250170Y0231469D02*
X0243292Y0231469D01*
X0243347Y0231431D02*
X0250105Y0231431D01*
X0250041Y0231393D02*
X0243408Y0231393D01*
X0243502Y0231355D02*
X0249976Y0231355D01*
X0249888Y0231317D02*
X0243596Y0231317D01*
X0243689Y0231279D02*
X0249779Y0231279D01*
X0249669Y0231241D02*
X0243783Y0231241D01*
X0243903Y0231203D02*
X0249560Y0231203D01*
X0249340Y0231165D02*
X0244137Y0231165D01*
X0244358Y0265146D02*
X0243859Y0265226D01*
X0243390Y0265416D01*
X0242976Y0265705D01*
X0242636Y0266079D01*
X0242388Y0266519D01*
X0242244Y0267004D01*
X0242212Y0267508D01*
X0242244Y0268012D01*
X0242388Y0268497D01*
X0242636Y0268937D01*
X0242976Y0269311D01*
X0243390Y0269600D01*
X0243859Y0269789D01*
X0244358Y0269870D01*
X0249082Y0269870D01*
X0249524Y0269809D01*
X0249945Y0269663D01*
X0250330Y0269438D01*
X0250664Y0269142D01*
X0250933Y0268786D01*
X0251128Y0268385D01*
X0251241Y0267953D01*
X0251267Y0267508D01*
X0251241Y0267063D01*
X0251128Y0266631D01*
X0250933Y0266230D01*
X0250664Y0265874D01*
X0250330Y0265578D01*
X0249945Y0265353D01*
X0249524Y0265207D01*
X0249082Y0265146D01*
X0244358Y0265146D01*
X0244127Y0265183D02*
X0249352Y0265183D01*
X0249565Y0265221D02*
X0243892Y0265221D01*
X0243779Y0265259D02*
X0249674Y0265259D01*
X0249784Y0265297D02*
X0243685Y0265297D01*
X0243591Y0265334D02*
X0249893Y0265334D01*
X0249979Y0265372D02*
X0243498Y0265372D01*
X0243404Y0265410D02*
X0250044Y0265410D01*
X0250108Y0265448D02*
X0243344Y0265448D01*
X0243290Y0265486D02*
X0250173Y0265486D01*
X0250238Y0265524D02*
X0243235Y0265524D01*
X0243181Y0265562D02*
X0250302Y0265562D01*
X0250355Y0265600D02*
X0243127Y0265600D01*
X0243072Y0265638D02*
X0250397Y0265638D01*
X0250440Y0265675D02*
X0243018Y0265675D01*
X0242968Y0265713D02*
X0250483Y0265713D01*
X0250525Y0265751D02*
X0242934Y0265751D01*
X0242899Y0265789D02*
X0250568Y0265789D01*
X0250610Y0265827D02*
X0242865Y0265827D01*
X0242831Y0265865D02*
X0250653Y0265865D01*
X0250685Y0265903D02*
X0242796Y0265903D01*
X0242762Y0265941D02*
X0250714Y0265941D01*
X0250743Y0265978D02*
X0242727Y0265978D01*
X0242693Y0266016D02*
X0250771Y0266016D01*
X0250800Y0266054D02*
X0242659Y0266054D01*
X0242629Y0266092D02*
X0250829Y0266092D01*
X0250857Y0266130D02*
X0242607Y0266130D01*
X0242586Y0266168D02*
X0250886Y0266168D01*
X0250915Y0266206D02*
X0242565Y0266206D01*
X0242543Y0266244D02*
X0250940Y0266244D01*
X0250958Y0266282D02*
X0242522Y0266282D01*
X0242501Y0266319D02*
X0250977Y0266319D01*
X0250995Y0266357D02*
X0242479Y0266357D01*
X0242458Y0266395D02*
X0251013Y0266395D01*
X0251032Y0266433D02*
X0242437Y0266433D01*
X0242415Y0266471D02*
X0251050Y0266471D01*
X0251069Y0266509D02*
X0242394Y0266509D01*
X0242380Y0266547D02*
X0251087Y0266547D01*
X0251105Y0266585D02*
X0242369Y0266585D01*
X0242357Y0266622D02*
X0251124Y0266622D01*
X0251135Y0266660D02*
X0242346Y0266660D01*
X0242335Y0266698D02*
X0251145Y0266698D01*
X0251155Y0266736D02*
X0242324Y0266736D01*
X0242312Y0266774D02*
X0251165Y0266774D01*
X0251175Y0266812D02*
X0242301Y0266812D01*
X0242290Y0266850D02*
X0251185Y0266850D01*
X0251195Y0266888D02*
X0242279Y0266888D01*
X0242267Y0266926D02*
X0251205Y0266926D01*
X0251215Y0266963D02*
X0242256Y0266963D01*
X0242245Y0267001D02*
X0251225Y0267001D01*
X0251234Y0267039D02*
X0242242Y0267039D01*
X0242240Y0267077D02*
X0251241Y0267077D01*
X0251244Y0267115D02*
X0242237Y0267115D01*
X0242235Y0267153D02*
X0251246Y0267153D01*
X0251248Y0267191D02*
X0242232Y0267191D01*
X0242230Y0267229D02*
X0251250Y0267229D01*
X0251253Y0267266D02*
X0242227Y0267266D01*
X0242225Y0267304D02*
X0251255Y0267304D01*
X0251257Y0267342D02*
X0242223Y0267342D01*
X0242220Y0267380D02*
X0251259Y0267380D01*
X0251262Y0267418D02*
X0242218Y0267418D01*
X0242215Y0267456D02*
X0251264Y0267456D01*
X0251266Y0267494D02*
X0242213Y0267494D01*
X0242213Y0267532D02*
X0251266Y0267532D01*
X0251263Y0267570D02*
X0242216Y0267570D01*
X0242218Y0267607D02*
X0251261Y0267607D01*
X0251259Y0267645D02*
X0242221Y0267645D01*
X0242223Y0267683D02*
X0251257Y0267683D01*
X0251254Y0267721D02*
X0242226Y0267721D01*
X0242228Y0267759D02*
X0251252Y0267759D01*
X0251250Y0267797D02*
X0242230Y0267797D01*
X0242233Y0267835D02*
X0251248Y0267835D01*
X0251245Y0267873D02*
X0242235Y0267873D01*
X0242238Y0267910D02*
X0251243Y0267910D01*
X0251241Y0267948D02*
X0242240Y0267948D01*
X0242243Y0267986D02*
X0251232Y0267986D01*
X0251222Y0268024D02*
X0242248Y0268024D01*
X0242259Y0268062D02*
X0251212Y0268062D01*
X0251202Y0268100D02*
X0242270Y0268100D01*
X0242282Y0268138D02*
X0251192Y0268138D01*
X0251182Y0268176D02*
X0242293Y0268176D01*
X0242304Y0268213D02*
X0251173Y0268213D01*
X0251163Y0268251D02*
X0242315Y0268251D01*
X0242327Y0268289D02*
X0251153Y0268289D01*
X0251143Y0268327D02*
X0242338Y0268327D01*
X0242349Y0268365D02*
X0251133Y0268365D01*
X0251119Y0268403D02*
X0242360Y0268403D01*
X0242372Y0268441D02*
X0251101Y0268441D01*
X0251082Y0268479D02*
X0242383Y0268479D01*
X0242399Y0268517D02*
X0251064Y0268517D01*
X0251045Y0268554D02*
X0242421Y0268554D01*
X0242442Y0268592D02*
X0251027Y0268592D01*
X0251009Y0268630D02*
X0242463Y0268630D01*
X0242485Y0268668D02*
X0250990Y0268668D01*
X0250972Y0268706D02*
X0242506Y0268706D01*
X0242527Y0268744D02*
X0250953Y0268744D01*
X0250935Y0268782D02*
X0242549Y0268782D01*
X0242570Y0268820D02*
X0250908Y0268820D01*
X0250879Y0268857D02*
X0242591Y0268857D01*
X0242613Y0268895D02*
X0250850Y0268895D01*
X0250821Y0268933D02*
X0242634Y0268933D01*
X0242667Y0268971D02*
X0250793Y0268971D01*
X0250764Y0269009D02*
X0242702Y0269009D01*
X0242736Y0269047D02*
X0250735Y0269047D01*
X0250707Y0269085D02*
X0242771Y0269085D01*
X0242805Y0269123D02*
X0250678Y0269123D01*
X0250642Y0269161D02*
X0242839Y0269161D01*
X0242874Y0269198D02*
X0250600Y0269198D01*
X0250557Y0269236D02*
X0242908Y0269236D01*
X0242943Y0269274D02*
X0250514Y0269274D01*
X0250472Y0269312D02*
X0242978Y0269312D01*
X0243032Y0269350D02*
X0250429Y0269350D01*
X0250386Y0269388D02*
X0243086Y0269388D01*
X0243141Y0269426D02*
X0250344Y0269426D01*
X0250286Y0269464D02*
X0243195Y0269464D01*
X0243249Y0269501D02*
X0250221Y0269501D01*
X0250157Y0269539D02*
X0243303Y0269539D01*
X0243358Y0269577D02*
X0250092Y0269577D01*
X0250027Y0269615D02*
X0243428Y0269615D01*
X0243521Y0269653D02*
X0249963Y0269653D01*
X0249865Y0269691D02*
X0243615Y0269691D01*
X0243709Y0269729D02*
X0249756Y0269729D01*
X0249646Y0269767D02*
X0243802Y0269767D01*
X0243952Y0269805D02*
X0249537Y0269805D01*
X0249283Y0269842D02*
X0244186Y0269842D01*
X0233764Y0268035D02*
X0233826Y0267508D01*
X0233779Y0267045D01*
X0233642Y0266601D01*
X0233421Y0266192D01*
X0233124Y0265833D01*
X0232764Y0265540D01*
X0232353Y0265322D01*
X0231907Y0265189D01*
X0231444Y0265146D01*
X0229082Y0265146D01*
X0228623Y0265193D01*
X0228183Y0265328D01*
X0227777Y0265548D01*
X0227421Y0265842D01*
X0227130Y0266199D01*
X0226915Y0266607D01*
X0226783Y0267049D01*
X0226739Y0267508D01*
X0226796Y0268032D01*
X0226968Y0268530D01*
X0227247Y0268977D01*
X0227617Y0269351D01*
X0228062Y0269633D01*
X0228559Y0269809D01*
X0229082Y0269870D01*
X0231444Y0269870D01*
X0231972Y0269813D01*
X0232474Y0269639D01*
X0232925Y0269359D01*
X0233302Y0268985D01*
X0233587Y0268536D01*
X0233764Y0268035D01*
X0233766Y0268024D02*
X0226795Y0268024D01*
X0226791Y0267986D02*
X0233770Y0267986D01*
X0233775Y0267948D02*
X0226787Y0267948D01*
X0226783Y0267910D02*
X0233779Y0267910D01*
X0233783Y0267873D02*
X0226779Y0267873D01*
X0226775Y0267835D02*
X0233788Y0267835D01*
X0233792Y0267797D02*
X0226771Y0267797D01*
X0226767Y0267759D02*
X0233797Y0267759D01*
X0233801Y0267721D02*
X0226763Y0267721D01*
X0226758Y0267683D02*
X0233806Y0267683D01*
X0233810Y0267645D02*
X0226754Y0267645D01*
X0226750Y0267607D02*
X0233814Y0267607D01*
X0233819Y0267570D02*
X0226746Y0267570D01*
X0226742Y0267532D02*
X0233823Y0267532D01*
X0233825Y0267494D02*
X0226741Y0267494D01*
X0226744Y0267456D02*
X0233821Y0267456D01*
X0233817Y0267418D02*
X0226748Y0267418D01*
X0226752Y0267380D02*
X0233813Y0267380D01*
X0233809Y0267342D02*
X0226755Y0267342D01*
X0226759Y0267304D02*
X0233805Y0267304D01*
X0233801Y0267266D02*
X0226762Y0267266D01*
X0226766Y0267229D02*
X0233797Y0267229D01*
X0233793Y0267191D02*
X0226769Y0267191D01*
X0226773Y0267153D02*
X0233790Y0267153D01*
X0233786Y0267115D02*
X0226776Y0267115D01*
X0226780Y0267077D02*
X0233782Y0267077D01*
X0233777Y0267039D02*
X0226786Y0267039D01*
X0226797Y0267001D02*
X0233765Y0267001D01*
X0233753Y0266963D02*
X0226808Y0266963D01*
X0226820Y0266926D02*
X0233742Y0266926D01*
X0233730Y0266888D02*
X0226831Y0266888D01*
X0226842Y0266850D02*
X0233718Y0266850D01*
X0233707Y0266812D02*
X0226854Y0266812D01*
X0226865Y0266774D02*
X0233695Y0266774D01*
X0233683Y0266736D02*
X0226876Y0266736D01*
X0226887Y0266698D02*
X0233672Y0266698D01*
X0233660Y0266660D02*
X0226899Y0266660D01*
X0226910Y0266622D02*
X0233648Y0266622D01*
X0233633Y0266585D02*
X0226927Y0266585D01*
X0226947Y0266547D02*
X0233612Y0266547D01*
X0233592Y0266509D02*
X0226967Y0266509D01*
X0226987Y0266471D02*
X0233572Y0266471D01*
X0233551Y0266433D02*
X0227007Y0266433D01*
X0227027Y0266395D02*
X0233531Y0266395D01*
X0233510Y0266357D02*
X0227047Y0266357D01*
X0227067Y0266319D02*
X0233490Y0266319D01*
X0233469Y0266282D02*
X0227087Y0266282D01*
X0227107Y0266244D02*
X0233449Y0266244D01*
X0233428Y0266206D02*
X0227127Y0266206D01*
X0227156Y0266168D02*
X0233401Y0266168D01*
X0233370Y0266130D02*
X0227187Y0266130D01*
X0227218Y0266092D02*
X0233338Y0266092D01*
X0233307Y0266054D02*
X0227248Y0266054D01*
X0227279Y0266016D02*
X0233276Y0266016D01*
X0233244Y0265978D02*
X0227310Y0265978D01*
X0227341Y0265941D02*
X0233213Y0265941D01*
X0233182Y0265903D02*
X0227372Y0265903D01*
X0227403Y0265865D02*
X0233150Y0265865D01*
X0233116Y0265827D02*
X0227439Y0265827D01*
X0227485Y0265789D02*
X0233070Y0265789D01*
X0233023Y0265751D02*
X0227531Y0265751D01*
X0227576Y0265713D02*
X0232977Y0265713D01*
X0232930Y0265675D02*
X0227622Y0265675D01*
X0227668Y0265638D02*
X0232884Y0265638D01*
X0232837Y0265600D02*
X0227714Y0265600D01*
X0227760Y0265562D02*
X0232791Y0265562D01*
X0232733Y0265524D02*
X0227821Y0265524D01*
X0227891Y0265486D02*
X0232662Y0265486D01*
X0232590Y0265448D02*
X0227961Y0265448D01*
X0228031Y0265410D02*
X0232519Y0265410D01*
X0232447Y0265372D02*
X0228101Y0265372D01*
X0228171Y0265334D02*
X0232375Y0265334D01*
X0232266Y0265297D02*
X0228286Y0265297D01*
X0228409Y0265259D02*
X0232139Y0265259D01*
X0232013Y0265221D02*
X0228532Y0265221D01*
X0228719Y0265183D02*
X0231840Y0265183D01*
X0233755Y0268062D02*
X0226807Y0268062D01*
X0226820Y0268100D02*
X0233742Y0268100D01*
X0233728Y0268138D02*
X0226833Y0268138D01*
X0226846Y0268176D02*
X0233715Y0268176D01*
X0233701Y0268213D02*
X0226859Y0268213D01*
X0226872Y0268251D02*
X0233688Y0268251D01*
X0233674Y0268289D02*
X0226885Y0268289D01*
X0226898Y0268327D02*
X0233661Y0268327D01*
X0233648Y0268365D02*
X0226911Y0268365D01*
X0226924Y0268403D02*
X0233634Y0268403D01*
X0233621Y0268441D02*
X0226937Y0268441D01*
X0226951Y0268479D02*
X0233607Y0268479D01*
X0233594Y0268517D02*
X0226964Y0268517D01*
X0226984Y0268554D02*
X0233575Y0268554D01*
X0233551Y0268592D02*
X0227007Y0268592D01*
X0227031Y0268630D02*
X0233527Y0268630D01*
X0233503Y0268668D02*
X0227054Y0268668D01*
X0227078Y0268706D02*
X0233479Y0268706D01*
X0233455Y0268744D02*
X0227102Y0268744D01*
X0227125Y0268782D02*
X0233431Y0268782D01*
X0233407Y0268820D02*
X0227149Y0268820D01*
X0227172Y0268857D02*
X0233383Y0268857D01*
X0233359Y0268895D02*
X0227196Y0268895D01*
X0227219Y0268933D02*
X0233335Y0268933D01*
X0233311Y0268971D02*
X0227243Y0268971D01*
X0227279Y0269009D02*
X0233278Y0269009D01*
X0233240Y0269047D02*
X0227316Y0269047D01*
X0227354Y0269085D02*
X0233201Y0269085D01*
X0233163Y0269123D02*
X0227391Y0269123D01*
X0227429Y0269161D02*
X0233125Y0269161D01*
X0233087Y0269198D02*
X0227466Y0269198D01*
X0227504Y0269236D02*
X0233049Y0269236D01*
X0233011Y0269274D02*
X0227541Y0269274D01*
X0227579Y0269312D02*
X0232972Y0269312D01*
X0232934Y0269350D02*
X0227617Y0269350D01*
X0227676Y0269388D02*
X0232879Y0269388D01*
X0232818Y0269426D02*
X0227736Y0269426D01*
X0227795Y0269464D02*
X0232757Y0269464D01*
X0232696Y0269501D02*
X0227855Y0269501D01*
X0227915Y0269539D02*
X0232635Y0269539D01*
X0232574Y0269577D02*
X0227975Y0269577D01*
X0228034Y0269615D02*
X0232513Y0269615D01*
X0232435Y0269653D02*
X0228119Y0269653D01*
X0228226Y0269691D02*
X0232325Y0269691D01*
X0232216Y0269729D02*
X0228333Y0269729D01*
X0228440Y0269767D02*
X0232106Y0269767D01*
X0231996Y0269805D02*
X0228546Y0269805D01*
X0228845Y0269842D02*
X0231699Y0269842D01*
X0408739Y0267508D02*
X0408796Y0268032D01*
X0408968Y0268530D01*
X0409247Y0268977D01*
X0409617Y0269351D01*
X0410062Y0269633D01*
X0410559Y0269809D01*
X0411082Y0269870D01*
X0413444Y0269870D01*
X0413972Y0269813D01*
X0414474Y0269639D01*
X0414925Y0269359D01*
X0415302Y0268985D01*
X0415587Y0268536D01*
X0415764Y0268035D01*
X0415826Y0267508D01*
X0415779Y0267045D01*
X0415642Y0266601D01*
X0415421Y0266192D01*
X0415124Y0265833D01*
X0414764Y0265540D01*
X0414353Y0265322D01*
X0413907Y0265189D01*
X0413444Y0265146D01*
X0411082Y0265146D01*
X0410623Y0265193D01*
X0410183Y0265328D01*
X0409777Y0265548D01*
X0409421Y0265842D01*
X0409130Y0266199D01*
X0408915Y0266607D01*
X0408783Y0267049D01*
X0408739Y0267508D01*
X0408741Y0267494D02*
X0415825Y0267494D01*
X0415823Y0267532D02*
X0408742Y0267532D01*
X0408746Y0267570D02*
X0415819Y0267570D01*
X0415814Y0267607D02*
X0408750Y0267607D01*
X0408754Y0267645D02*
X0415810Y0267645D01*
X0415806Y0267683D02*
X0408758Y0267683D01*
X0408763Y0267721D02*
X0415801Y0267721D01*
X0415797Y0267759D02*
X0408767Y0267759D01*
X0408771Y0267797D02*
X0415792Y0267797D01*
X0415788Y0267835D02*
X0408775Y0267835D01*
X0408779Y0267873D02*
X0415783Y0267873D01*
X0415779Y0267910D02*
X0408783Y0267910D01*
X0408787Y0267948D02*
X0415775Y0267948D01*
X0415770Y0267986D02*
X0408791Y0267986D01*
X0408795Y0268024D02*
X0415766Y0268024D01*
X0415755Y0268062D02*
X0408807Y0268062D01*
X0408820Y0268100D02*
X0415742Y0268100D01*
X0415728Y0268138D02*
X0408833Y0268138D01*
X0408846Y0268176D02*
X0415715Y0268176D01*
X0415701Y0268213D02*
X0408859Y0268213D01*
X0408872Y0268251D02*
X0415688Y0268251D01*
X0415674Y0268289D02*
X0408885Y0268289D01*
X0408898Y0268327D02*
X0415661Y0268327D01*
X0415648Y0268365D02*
X0408911Y0268365D01*
X0408924Y0268403D02*
X0415634Y0268403D01*
X0415621Y0268441D02*
X0408937Y0268441D01*
X0408951Y0268479D02*
X0415607Y0268479D01*
X0415594Y0268517D02*
X0408964Y0268517D01*
X0408984Y0268554D02*
X0415575Y0268554D01*
X0415551Y0268592D02*
X0409007Y0268592D01*
X0409031Y0268630D02*
X0415527Y0268630D01*
X0415503Y0268668D02*
X0409054Y0268668D01*
X0409078Y0268706D02*
X0415479Y0268706D01*
X0415455Y0268744D02*
X0409102Y0268744D01*
X0409125Y0268782D02*
X0415431Y0268782D01*
X0415407Y0268820D02*
X0409149Y0268820D01*
X0409172Y0268857D02*
X0415383Y0268857D01*
X0415359Y0268895D02*
X0409196Y0268895D01*
X0409219Y0268933D02*
X0415335Y0268933D01*
X0415311Y0268971D02*
X0409243Y0268971D01*
X0409279Y0269009D02*
X0415278Y0269009D01*
X0415240Y0269047D02*
X0409316Y0269047D01*
X0409354Y0269085D02*
X0415201Y0269085D01*
X0415163Y0269123D02*
X0409391Y0269123D01*
X0409429Y0269161D02*
X0415125Y0269161D01*
X0415087Y0269198D02*
X0409466Y0269198D01*
X0409504Y0269236D02*
X0415049Y0269236D01*
X0415011Y0269274D02*
X0409541Y0269274D01*
X0409579Y0269312D02*
X0414972Y0269312D01*
X0414934Y0269350D02*
X0409617Y0269350D01*
X0409676Y0269388D02*
X0414879Y0269388D01*
X0414818Y0269426D02*
X0409736Y0269426D01*
X0409795Y0269464D02*
X0414757Y0269464D01*
X0414696Y0269501D02*
X0409855Y0269501D01*
X0409915Y0269539D02*
X0414635Y0269539D01*
X0414574Y0269577D02*
X0409975Y0269577D01*
X0410034Y0269615D02*
X0414513Y0269615D01*
X0414435Y0269653D02*
X0410119Y0269653D01*
X0410226Y0269691D02*
X0414325Y0269691D01*
X0414216Y0269729D02*
X0410333Y0269729D01*
X0410440Y0269767D02*
X0414106Y0269767D01*
X0413996Y0269805D02*
X0410546Y0269805D01*
X0410845Y0269842D02*
X0413699Y0269842D01*
X0415821Y0267456D02*
X0408744Y0267456D01*
X0408748Y0267418D02*
X0415817Y0267418D01*
X0415813Y0267380D02*
X0408752Y0267380D01*
X0408755Y0267342D02*
X0415809Y0267342D01*
X0415805Y0267304D02*
X0408759Y0267304D01*
X0408762Y0267266D02*
X0415801Y0267266D01*
X0415797Y0267229D02*
X0408766Y0267229D01*
X0408769Y0267191D02*
X0415793Y0267191D01*
X0415790Y0267153D02*
X0408773Y0267153D01*
X0408776Y0267115D02*
X0415786Y0267115D01*
X0415782Y0267077D02*
X0408780Y0267077D01*
X0408786Y0267039D02*
X0415777Y0267039D01*
X0415765Y0267001D02*
X0408797Y0267001D01*
X0408808Y0266963D02*
X0415753Y0266963D01*
X0415742Y0266926D02*
X0408820Y0266926D01*
X0408831Y0266888D02*
X0415730Y0266888D01*
X0415718Y0266850D02*
X0408842Y0266850D01*
X0408854Y0266812D02*
X0415707Y0266812D01*
X0415695Y0266774D02*
X0408865Y0266774D01*
X0408876Y0266736D02*
X0415683Y0266736D01*
X0415672Y0266698D02*
X0408887Y0266698D01*
X0408899Y0266660D02*
X0415660Y0266660D01*
X0415648Y0266622D02*
X0408910Y0266622D01*
X0408927Y0266585D02*
X0415633Y0266585D01*
X0415612Y0266547D02*
X0408947Y0266547D01*
X0408967Y0266509D02*
X0415592Y0266509D01*
X0415572Y0266471D02*
X0408987Y0266471D01*
X0409007Y0266433D02*
X0415551Y0266433D01*
X0415531Y0266395D02*
X0409027Y0266395D01*
X0409047Y0266357D02*
X0415510Y0266357D01*
X0415490Y0266319D02*
X0409067Y0266319D01*
X0409087Y0266282D02*
X0415469Y0266282D01*
X0415449Y0266244D02*
X0409107Y0266244D01*
X0409127Y0266206D02*
X0415428Y0266206D01*
X0415401Y0266168D02*
X0409156Y0266168D01*
X0409187Y0266130D02*
X0415370Y0266130D01*
X0415338Y0266092D02*
X0409218Y0266092D01*
X0409248Y0266054D02*
X0415307Y0266054D01*
X0415276Y0266016D02*
X0409279Y0266016D01*
X0409310Y0265978D02*
X0415244Y0265978D01*
X0415213Y0265941D02*
X0409341Y0265941D01*
X0409372Y0265903D02*
X0415182Y0265903D01*
X0415150Y0265865D02*
X0409403Y0265865D01*
X0409439Y0265827D02*
X0415116Y0265827D01*
X0415070Y0265789D02*
X0409485Y0265789D01*
X0409531Y0265751D02*
X0415023Y0265751D01*
X0414977Y0265713D02*
X0409576Y0265713D01*
X0409622Y0265675D02*
X0414930Y0265675D01*
X0414884Y0265638D02*
X0409668Y0265638D01*
X0409714Y0265600D02*
X0414837Y0265600D01*
X0414791Y0265562D02*
X0409760Y0265562D01*
X0409821Y0265524D02*
X0414733Y0265524D01*
X0414662Y0265486D02*
X0409891Y0265486D01*
X0409961Y0265448D02*
X0414590Y0265448D01*
X0414519Y0265410D02*
X0410031Y0265410D01*
X0410101Y0265372D02*
X0414447Y0265372D01*
X0414375Y0265334D02*
X0410171Y0265334D01*
X0410286Y0265297D02*
X0414266Y0265297D01*
X0414139Y0265259D02*
X0410409Y0265259D01*
X0410532Y0265221D02*
X0414013Y0265221D01*
X0413840Y0265183D02*
X0410719Y0265183D01*
X0424244Y0267004D02*
X0424388Y0266519D01*
X0424636Y0266079D01*
X0424976Y0265705D01*
X0425390Y0265416D01*
X0425859Y0265226D01*
X0426358Y0265146D01*
X0431082Y0265146D01*
X0431524Y0265207D01*
X0431945Y0265353D01*
X0432330Y0265578D01*
X0432664Y0265874D01*
X0432933Y0266230D01*
X0433128Y0266631D01*
X0433241Y0267063D01*
X0433267Y0267508D01*
X0433241Y0267953D01*
X0433128Y0268385D01*
X0432933Y0268786D01*
X0432664Y0269142D01*
X0432330Y0269438D01*
X0431945Y0269663D01*
X0431524Y0269809D01*
X0431082Y0269870D01*
X0426358Y0269870D01*
X0425859Y0269789D01*
X0425390Y0269600D01*
X0424976Y0269311D01*
X0424636Y0268937D01*
X0424388Y0268497D01*
X0424244Y0268012D01*
X0424212Y0267508D01*
X0424244Y0267004D01*
X0424245Y0267001D02*
X0433225Y0267001D01*
X0433215Y0266963D02*
X0424256Y0266963D01*
X0424267Y0266926D02*
X0433205Y0266926D01*
X0433195Y0266888D02*
X0424279Y0266888D01*
X0424290Y0266850D02*
X0433185Y0266850D01*
X0433175Y0266812D02*
X0424301Y0266812D01*
X0424312Y0266774D02*
X0433165Y0266774D01*
X0433155Y0266736D02*
X0424324Y0266736D01*
X0424335Y0266698D02*
X0433145Y0266698D01*
X0433135Y0266660D02*
X0424346Y0266660D01*
X0424357Y0266622D02*
X0433124Y0266622D01*
X0433105Y0266585D02*
X0424369Y0266585D01*
X0424380Y0266547D02*
X0433087Y0266547D01*
X0433069Y0266509D02*
X0424394Y0266509D01*
X0424415Y0266471D02*
X0433050Y0266471D01*
X0433032Y0266433D02*
X0424437Y0266433D01*
X0424458Y0266395D02*
X0433013Y0266395D01*
X0432995Y0266357D02*
X0424479Y0266357D01*
X0424501Y0266319D02*
X0432977Y0266319D01*
X0432958Y0266282D02*
X0424522Y0266282D01*
X0424543Y0266244D02*
X0432940Y0266244D01*
X0432915Y0266206D02*
X0424565Y0266206D01*
X0424586Y0266168D02*
X0432886Y0266168D01*
X0432857Y0266130D02*
X0424607Y0266130D01*
X0424629Y0266092D02*
X0432829Y0266092D01*
X0432800Y0266054D02*
X0424659Y0266054D01*
X0424693Y0266016D02*
X0432771Y0266016D01*
X0432743Y0265978D02*
X0424727Y0265978D01*
X0424762Y0265941D02*
X0432714Y0265941D01*
X0432685Y0265903D02*
X0424796Y0265903D01*
X0424831Y0265865D02*
X0432653Y0265865D01*
X0432610Y0265827D02*
X0424865Y0265827D01*
X0424899Y0265789D02*
X0432568Y0265789D01*
X0432525Y0265751D02*
X0424934Y0265751D01*
X0424968Y0265713D02*
X0432483Y0265713D01*
X0432440Y0265675D02*
X0425018Y0265675D01*
X0425072Y0265638D02*
X0432397Y0265638D01*
X0432355Y0265600D02*
X0425127Y0265600D01*
X0425181Y0265562D02*
X0432302Y0265562D01*
X0432238Y0265524D02*
X0425235Y0265524D01*
X0425290Y0265486D02*
X0432173Y0265486D01*
X0432108Y0265448D02*
X0425344Y0265448D01*
X0425404Y0265410D02*
X0432044Y0265410D01*
X0431979Y0265372D02*
X0425498Y0265372D01*
X0425591Y0265334D02*
X0431893Y0265334D01*
X0431784Y0265297D02*
X0425685Y0265297D01*
X0425779Y0265259D02*
X0431674Y0265259D01*
X0431565Y0265221D02*
X0425892Y0265221D01*
X0426127Y0265183D02*
X0431352Y0265183D01*
X0433234Y0267039D02*
X0424242Y0267039D01*
X0424240Y0267077D02*
X0433241Y0267077D01*
X0433244Y0267115D02*
X0424237Y0267115D01*
X0424235Y0267153D02*
X0433246Y0267153D01*
X0433248Y0267191D02*
X0424232Y0267191D01*
X0424230Y0267229D02*
X0433250Y0267229D01*
X0433253Y0267266D02*
X0424227Y0267266D01*
X0424225Y0267304D02*
X0433255Y0267304D01*
X0433257Y0267342D02*
X0424223Y0267342D01*
X0424220Y0267380D02*
X0433259Y0267380D01*
X0433262Y0267418D02*
X0424218Y0267418D01*
X0424215Y0267456D02*
X0433264Y0267456D01*
X0433266Y0267494D02*
X0424213Y0267494D01*
X0424213Y0267532D02*
X0433266Y0267532D01*
X0433263Y0267570D02*
X0424216Y0267570D01*
X0424218Y0267607D02*
X0433261Y0267607D01*
X0433259Y0267645D02*
X0424221Y0267645D01*
X0424223Y0267683D02*
X0433257Y0267683D01*
X0433254Y0267721D02*
X0424226Y0267721D01*
X0424228Y0267759D02*
X0433252Y0267759D01*
X0433250Y0267797D02*
X0424230Y0267797D01*
X0424233Y0267835D02*
X0433248Y0267835D01*
X0433245Y0267873D02*
X0424235Y0267873D01*
X0424238Y0267910D02*
X0433243Y0267910D01*
X0433241Y0267948D02*
X0424240Y0267948D01*
X0424243Y0267986D02*
X0433232Y0267986D01*
X0433222Y0268024D02*
X0424248Y0268024D01*
X0424259Y0268062D02*
X0433212Y0268062D01*
X0433202Y0268100D02*
X0424270Y0268100D01*
X0424282Y0268138D02*
X0433192Y0268138D01*
X0433182Y0268176D02*
X0424293Y0268176D01*
X0424304Y0268213D02*
X0433173Y0268213D01*
X0433163Y0268251D02*
X0424315Y0268251D01*
X0424327Y0268289D02*
X0433153Y0268289D01*
X0433143Y0268327D02*
X0424338Y0268327D01*
X0424349Y0268365D02*
X0433133Y0268365D01*
X0433119Y0268403D02*
X0424360Y0268403D01*
X0424372Y0268441D02*
X0433101Y0268441D01*
X0433082Y0268479D02*
X0424383Y0268479D01*
X0424399Y0268517D02*
X0433064Y0268517D01*
X0433045Y0268554D02*
X0424421Y0268554D01*
X0424442Y0268592D02*
X0433027Y0268592D01*
X0433009Y0268630D02*
X0424463Y0268630D01*
X0424485Y0268668D02*
X0432990Y0268668D01*
X0432972Y0268706D02*
X0424506Y0268706D01*
X0424527Y0268744D02*
X0432953Y0268744D01*
X0432935Y0268782D02*
X0424549Y0268782D01*
X0424570Y0268820D02*
X0432908Y0268820D01*
X0432879Y0268857D02*
X0424591Y0268857D01*
X0424613Y0268895D02*
X0432850Y0268895D01*
X0432821Y0268933D02*
X0424634Y0268933D01*
X0424667Y0268971D02*
X0432793Y0268971D01*
X0432764Y0269009D02*
X0424702Y0269009D01*
X0424736Y0269047D02*
X0432735Y0269047D01*
X0432707Y0269085D02*
X0424771Y0269085D01*
X0424805Y0269123D02*
X0432678Y0269123D01*
X0432642Y0269161D02*
X0424839Y0269161D01*
X0424874Y0269198D02*
X0432600Y0269198D01*
X0432557Y0269236D02*
X0424908Y0269236D01*
X0424943Y0269274D02*
X0432514Y0269274D01*
X0432472Y0269312D02*
X0424978Y0269312D01*
X0425032Y0269350D02*
X0432429Y0269350D01*
X0432386Y0269388D02*
X0425086Y0269388D01*
X0425141Y0269426D02*
X0432344Y0269426D01*
X0432286Y0269464D02*
X0425195Y0269464D01*
X0425249Y0269501D02*
X0432221Y0269501D01*
X0432157Y0269539D02*
X0425303Y0269539D01*
X0425358Y0269577D02*
X0432092Y0269577D01*
X0432027Y0269615D02*
X0425428Y0269615D01*
X0425521Y0269653D02*
X0431963Y0269653D01*
X0431865Y0269691D02*
X0425615Y0269691D01*
X0425709Y0269729D02*
X0431756Y0269729D01*
X0431646Y0269767D02*
X0425802Y0269767D01*
X0425952Y0269805D02*
X0431537Y0269805D01*
X0431283Y0269842D02*
X0426186Y0269842D01*
X0426358Y0235854D02*
X0425859Y0235774D01*
X0425390Y0235584D01*
X0424976Y0235295D01*
X0424636Y0234921D01*
X0424388Y0234481D01*
X0424244Y0233996D01*
X0424212Y0233492D01*
X0424244Y0232988D01*
X0424388Y0232503D01*
X0424636Y0232063D01*
X0424976Y0231689D01*
X0425390Y0231400D01*
X0425859Y0231211D01*
X0426358Y0231130D01*
X0431082Y0231130D01*
X0431524Y0231191D01*
X0431945Y0231337D01*
X0432330Y0231562D01*
X0432664Y0231858D01*
X0432933Y0232214D01*
X0433128Y0232615D01*
X0433241Y0233047D01*
X0433267Y0233492D01*
X0433241Y0233937D01*
X0433128Y0234369D01*
X0432933Y0234770D01*
X0432664Y0235126D01*
X0432330Y0235422D01*
X0431945Y0235647D01*
X0431524Y0235793D01*
X0431082Y0235854D01*
X0426358Y0235854D01*
X0426175Y0235825D02*
X0431295Y0235825D01*
X0431542Y0235787D02*
X0425941Y0235787D01*
X0425798Y0235749D02*
X0431652Y0235749D01*
X0431761Y0235711D02*
X0425704Y0235711D01*
X0425611Y0235673D02*
X0431870Y0235673D01*
X0431966Y0235635D02*
X0425517Y0235635D01*
X0425424Y0235598D02*
X0432030Y0235598D01*
X0432095Y0235560D02*
X0425355Y0235560D01*
X0425301Y0235522D02*
X0432160Y0235522D01*
X0432224Y0235484D02*
X0425247Y0235484D01*
X0425192Y0235446D02*
X0432289Y0235446D01*
X0432346Y0235408D02*
X0425138Y0235408D01*
X0425084Y0235370D02*
X0432388Y0235370D01*
X0432431Y0235332D02*
X0425029Y0235332D01*
X0424975Y0235295D02*
X0432474Y0235295D01*
X0432516Y0235257D02*
X0424941Y0235257D01*
X0424907Y0235219D02*
X0432559Y0235219D01*
X0432602Y0235181D02*
X0424872Y0235181D01*
X0424838Y0235143D02*
X0432644Y0235143D01*
X0432679Y0235105D02*
X0424803Y0235105D01*
X0424769Y0235067D02*
X0432708Y0235067D01*
X0432737Y0235029D02*
X0424735Y0235029D01*
X0424700Y0234991D02*
X0432765Y0234991D01*
X0432794Y0234954D02*
X0424666Y0234954D01*
X0424633Y0234916D02*
X0432823Y0234916D01*
X0432852Y0234878D02*
X0424612Y0234878D01*
X0424590Y0234840D02*
X0432880Y0234840D01*
X0432909Y0234802D02*
X0424569Y0234802D01*
X0424548Y0234764D02*
X0432936Y0234764D01*
X0432954Y0234726D02*
X0424526Y0234726D01*
X0424505Y0234688D02*
X0432973Y0234688D01*
X0432991Y0234651D02*
X0424484Y0234651D01*
X0424462Y0234613D02*
X0433010Y0234613D01*
X0433028Y0234575D02*
X0424441Y0234575D01*
X0424420Y0234537D02*
X0433046Y0234537D01*
X0433065Y0234499D02*
X0424398Y0234499D01*
X0424382Y0234461D02*
X0433083Y0234461D01*
X0433101Y0234423D02*
X0424371Y0234423D01*
X0424360Y0234385D02*
X0433120Y0234385D01*
X0433133Y0234348D02*
X0424349Y0234348D01*
X0424337Y0234310D02*
X0433143Y0234310D01*
X0433153Y0234272D02*
X0424326Y0234272D01*
X0424315Y0234234D02*
X0433163Y0234234D01*
X0433173Y0234196D02*
X0424304Y0234196D01*
X0424292Y0234158D02*
X0433183Y0234158D01*
X0433193Y0234120D02*
X0424281Y0234120D01*
X0424270Y0234082D02*
X0433203Y0234082D01*
X0433213Y0234044D02*
X0424259Y0234044D01*
X0424247Y0234007D02*
X0433223Y0234007D01*
X0433232Y0233969D02*
X0424243Y0233969D01*
X0424240Y0233931D02*
X0433241Y0233931D01*
X0433243Y0233893D02*
X0424238Y0233893D01*
X0424235Y0233855D02*
X0433245Y0233855D01*
X0433248Y0233817D02*
X0424233Y0233817D01*
X0424230Y0233779D02*
X0433250Y0233779D01*
X0433252Y0233741D02*
X0424228Y0233741D01*
X0424225Y0233704D02*
X0433254Y0233704D01*
X0433257Y0233666D02*
X0424223Y0233666D01*
X0424221Y0233628D02*
X0433259Y0233628D01*
X0433261Y0233590D02*
X0424218Y0233590D01*
X0424216Y0233552D02*
X0433263Y0233552D01*
X0433266Y0233514D02*
X0424213Y0233514D01*
X0424213Y0233476D02*
X0433266Y0233476D01*
X0433264Y0233438D02*
X0424215Y0233438D01*
X0424218Y0233400D02*
X0433262Y0233400D01*
X0433259Y0233363D02*
X0424220Y0233363D01*
X0424223Y0233325D02*
X0433257Y0233325D01*
X0433255Y0233287D02*
X0424225Y0233287D01*
X0424228Y0233249D02*
X0433253Y0233249D01*
X0433250Y0233211D02*
X0424230Y0233211D01*
X0424232Y0233173D02*
X0433248Y0233173D01*
X0433246Y0233135D02*
X0424235Y0233135D01*
X0424237Y0233097D02*
X0433244Y0233097D01*
X0433241Y0233060D02*
X0424240Y0233060D01*
X0424242Y0233022D02*
X0433234Y0233022D01*
X0433224Y0232984D02*
X0424246Y0232984D01*
X0424257Y0232946D02*
X0433214Y0232946D01*
X0433204Y0232908D02*
X0424268Y0232908D01*
X0424279Y0232870D02*
X0433194Y0232870D01*
X0433185Y0232832D02*
X0424291Y0232832D01*
X0424302Y0232794D02*
X0433175Y0232794D01*
X0433165Y0232756D02*
X0424313Y0232756D01*
X0424324Y0232719D02*
X0433155Y0232719D01*
X0433145Y0232681D02*
X0424335Y0232681D01*
X0424347Y0232643D02*
X0433135Y0232643D01*
X0433123Y0232605D02*
X0424358Y0232605D01*
X0424369Y0232567D02*
X0433104Y0232567D01*
X0433086Y0232529D02*
X0424380Y0232529D01*
X0424395Y0232491D02*
X0433068Y0232491D01*
X0433049Y0232453D02*
X0424416Y0232453D01*
X0424438Y0232416D02*
X0433031Y0232416D01*
X0433012Y0232378D02*
X0424459Y0232378D01*
X0424480Y0232340D02*
X0432994Y0232340D01*
X0432976Y0232302D02*
X0424502Y0232302D01*
X0424523Y0232264D02*
X0432957Y0232264D01*
X0432939Y0232226D02*
X0424544Y0232226D01*
X0424566Y0232188D02*
X0432914Y0232188D01*
X0432885Y0232150D02*
X0424587Y0232150D01*
X0424608Y0232113D02*
X0432856Y0232113D01*
X0432827Y0232075D02*
X0424630Y0232075D01*
X0424660Y0232037D02*
X0432799Y0232037D01*
X0432770Y0231999D02*
X0424695Y0231999D01*
X0424729Y0231961D02*
X0432741Y0231961D01*
X0432713Y0231923D02*
X0424763Y0231923D01*
X0424798Y0231885D02*
X0432684Y0231885D01*
X0432651Y0231847D02*
X0424832Y0231847D01*
X0424867Y0231809D02*
X0432609Y0231809D01*
X0432566Y0231772D02*
X0424901Y0231772D01*
X0424935Y0231734D02*
X0432523Y0231734D01*
X0432481Y0231696D02*
X0424970Y0231696D01*
X0425021Y0231658D02*
X0432438Y0231658D01*
X0432395Y0231620D02*
X0425075Y0231620D01*
X0425129Y0231582D02*
X0432353Y0231582D01*
X0432299Y0231544D02*
X0425184Y0231544D01*
X0425238Y0231506D02*
X0432235Y0231506D01*
X0432170Y0231469D02*
X0425292Y0231469D01*
X0425347Y0231431D02*
X0432105Y0231431D01*
X0432041Y0231393D02*
X0425408Y0231393D01*
X0425502Y0231355D02*
X0431976Y0231355D01*
X0431888Y0231317D02*
X0425596Y0231317D01*
X0425689Y0231279D02*
X0431779Y0231279D01*
X0431669Y0231241D02*
X0425783Y0231241D01*
X0425903Y0231203D02*
X0431560Y0231203D01*
X0431340Y0231165D02*
X0426137Y0231165D01*
X0415779Y0233030D02*
X0415642Y0232585D01*
X0415421Y0232176D01*
X0415124Y0231818D01*
X0414764Y0231524D01*
X0414353Y0231307D01*
X0413907Y0231174D01*
X0413444Y0231130D01*
X0411082Y0231130D01*
X0410623Y0231177D01*
X0410183Y0231313D01*
X0409777Y0231532D01*
X0409421Y0231826D01*
X0409130Y0232184D01*
X0408915Y0232591D01*
X0408783Y0233033D01*
X0408739Y0233492D01*
X0408796Y0234016D01*
X0408968Y0234514D01*
X0409247Y0234961D01*
X0409617Y0235335D01*
X0410062Y0235617D01*
X0410559Y0235793D01*
X0411082Y0235854D01*
X0413444Y0235854D01*
X0413972Y0235797D01*
X0414474Y0235624D01*
X0414925Y0235343D01*
X0415302Y0234969D01*
X0415587Y0234520D01*
X0415764Y0234020D01*
X0415826Y0233492D01*
X0415779Y0233030D01*
X0415776Y0233022D02*
X0408786Y0233022D01*
X0408780Y0233060D02*
X0415782Y0233060D01*
X0415786Y0233097D02*
X0408777Y0233097D01*
X0408773Y0233135D02*
X0415789Y0233135D01*
X0415793Y0233173D02*
X0408770Y0233173D01*
X0408766Y0233211D02*
X0415797Y0233211D01*
X0415801Y0233249D02*
X0408762Y0233249D01*
X0408759Y0233287D02*
X0415805Y0233287D01*
X0415809Y0233325D02*
X0408755Y0233325D01*
X0408752Y0233363D02*
X0415813Y0233363D01*
X0415817Y0233400D02*
X0408748Y0233400D01*
X0408745Y0233438D02*
X0415821Y0233438D01*
X0415824Y0233476D02*
X0408741Y0233476D01*
X0408742Y0233514D02*
X0415823Y0233514D01*
X0415819Y0233552D02*
X0408746Y0233552D01*
X0408750Y0233590D02*
X0415815Y0233590D01*
X0415810Y0233628D02*
X0408754Y0233628D01*
X0408758Y0233666D02*
X0415806Y0233666D01*
X0415801Y0233704D02*
X0408762Y0233704D01*
X0408766Y0233741D02*
X0415797Y0233741D01*
X0415792Y0233779D02*
X0408771Y0233779D01*
X0408775Y0233817D02*
X0415788Y0233817D01*
X0415784Y0233855D02*
X0408779Y0233855D01*
X0408783Y0233893D02*
X0415779Y0233893D01*
X0415775Y0233931D02*
X0408787Y0233931D01*
X0408791Y0233969D02*
X0415770Y0233969D01*
X0415766Y0234007D02*
X0408795Y0234007D01*
X0408806Y0234044D02*
X0415756Y0234044D01*
X0415742Y0234082D02*
X0408819Y0234082D01*
X0408832Y0234120D02*
X0415729Y0234120D01*
X0415715Y0234158D02*
X0408845Y0234158D01*
X0408858Y0234196D02*
X0415702Y0234196D01*
X0415688Y0234234D02*
X0408872Y0234234D01*
X0408885Y0234272D02*
X0415675Y0234272D01*
X0415662Y0234310D02*
X0408898Y0234310D01*
X0408911Y0234348D02*
X0415648Y0234348D01*
X0415635Y0234385D02*
X0408924Y0234385D01*
X0408937Y0234423D02*
X0415621Y0234423D01*
X0415608Y0234461D02*
X0408950Y0234461D01*
X0408963Y0234499D02*
X0415594Y0234499D01*
X0415576Y0234537D02*
X0408983Y0234537D01*
X0409006Y0234575D02*
X0415552Y0234575D01*
X0415528Y0234613D02*
X0409030Y0234613D01*
X0409053Y0234651D02*
X0415504Y0234651D01*
X0415480Y0234688D02*
X0409077Y0234688D01*
X0409100Y0234726D02*
X0415456Y0234726D01*
X0415432Y0234764D02*
X0409124Y0234764D01*
X0409148Y0234802D02*
X0415408Y0234802D01*
X0415384Y0234840D02*
X0409171Y0234840D01*
X0409195Y0234878D02*
X0415360Y0234878D01*
X0415336Y0234916D02*
X0409218Y0234916D01*
X0409242Y0234954D02*
X0415312Y0234954D01*
X0415280Y0234991D02*
X0409277Y0234991D01*
X0409314Y0235029D02*
X0415241Y0235029D01*
X0415203Y0235067D02*
X0409352Y0235067D01*
X0409390Y0235105D02*
X0415165Y0235105D01*
X0415127Y0235143D02*
X0409427Y0235143D01*
X0409465Y0235181D02*
X0415089Y0235181D01*
X0415050Y0235219D02*
X0409502Y0235219D01*
X0409540Y0235257D02*
X0415012Y0235257D01*
X0414974Y0235295D02*
X0409577Y0235295D01*
X0409615Y0235332D02*
X0414936Y0235332D01*
X0414881Y0235370D02*
X0409673Y0235370D01*
X0409733Y0235408D02*
X0414820Y0235408D01*
X0414760Y0235446D02*
X0409793Y0235446D01*
X0409852Y0235484D02*
X0414699Y0235484D01*
X0414638Y0235522D02*
X0409912Y0235522D01*
X0409972Y0235560D02*
X0414577Y0235560D01*
X0414516Y0235598D02*
X0410032Y0235598D01*
X0410114Y0235635D02*
X0414440Y0235635D01*
X0414330Y0235673D02*
X0410221Y0235673D01*
X0410328Y0235711D02*
X0414221Y0235711D01*
X0414111Y0235749D02*
X0410435Y0235749D01*
X0410541Y0235787D02*
X0414001Y0235787D01*
X0413716Y0235825D02*
X0410830Y0235825D01*
X0408797Y0232984D02*
X0415764Y0232984D01*
X0415753Y0232946D02*
X0408809Y0232946D01*
X0408820Y0232908D02*
X0415741Y0232908D01*
X0415729Y0232870D02*
X0408831Y0232870D01*
X0408843Y0232832D02*
X0415718Y0232832D01*
X0415706Y0232794D02*
X0408854Y0232794D01*
X0408865Y0232756D02*
X0415695Y0232756D01*
X0415683Y0232719D02*
X0408877Y0232719D01*
X0408888Y0232681D02*
X0415671Y0232681D01*
X0415660Y0232643D02*
X0408899Y0232643D01*
X0408911Y0232605D02*
X0415648Y0232605D01*
X0415632Y0232567D02*
X0408927Y0232567D01*
X0408948Y0232529D02*
X0415612Y0232529D01*
X0415591Y0232491D02*
X0408968Y0232491D01*
X0408988Y0232453D02*
X0415571Y0232453D01*
X0415550Y0232416D02*
X0409008Y0232416D01*
X0409028Y0232378D02*
X0415530Y0232378D01*
X0415509Y0232340D02*
X0409048Y0232340D01*
X0409068Y0232302D02*
X0415489Y0232302D01*
X0415468Y0232264D02*
X0409088Y0232264D01*
X0409108Y0232226D02*
X0415448Y0232226D01*
X0415427Y0232188D02*
X0409128Y0232188D01*
X0409157Y0232150D02*
X0415400Y0232150D01*
X0415368Y0232113D02*
X0409188Y0232113D01*
X0409219Y0232075D02*
X0415337Y0232075D01*
X0415306Y0232037D02*
X0409250Y0232037D01*
X0409281Y0231999D02*
X0415274Y0231999D01*
X0415243Y0231961D02*
X0409312Y0231961D01*
X0409342Y0231923D02*
X0415212Y0231923D01*
X0415180Y0231885D02*
X0409373Y0231885D01*
X0409404Y0231847D02*
X0415149Y0231847D01*
X0415114Y0231809D02*
X0409441Y0231809D01*
X0409487Y0231772D02*
X0415068Y0231772D01*
X0415021Y0231734D02*
X0409533Y0231734D01*
X0409579Y0231696D02*
X0414975Y0231696D01*
X0414928Y0231658D02*
X0409624Y0231658D01*
X0409670Y0231620D02*
X0414881Y0231620D01*
X0414835Y0231582D02*
X0409716Y0231582D01*
X0409762Y0231544D02*
X0414788Y0231544D01*
X0414730Y0231506D02*
X0409824Y0231506D01*
X0409894Y0231469D02*
X0414658Y0231469D01*
X0414587Y0231431D02*
X0409964Y0231431D01*
X0410034Y0231393D02*
X0414515Y0231393D01*
X0414444Y0231355D02*
X0410104Y0231355D01*
X0410175Y0231317D02*
X0414372Y0231317D01*
X0414260Y0231279D02*
X0410292Y0231279D01*
X0410415Y0231241D02*
X0414134Y0231241D01*
X0414007Y0231203D02*
X0410538Y0231203D01*
X0410736Y0231165D02*
X0413821Y0231165D01*
X0413444Y0097870D02*
X0413972Y0097813D01*
X0414474Y0097639D01*
X0414925Y0097359D01*
X0415302Y0096985D01*
X0415587Y0096536D01*
X0415764Y0096035D01*
X0415826Y0095508D01*
X0415779Y0095045D01*
X0415642Y0094601D01*
X0415421Y0094192D01*
X0415124Y0093833D01*
X0414764Y0093540D01*
X0414353Y0093322D01*
X0413907Y0093189D01*
X0413444Y0093146D01*
X0411082Y0093146D01*
X0410623Y0093193D01*
X0410183Y0093328D01*
X0409777Y0093548D01*
X0409421Y0093842D01*
X0409130Y0094199D01*
X0408915Y0094607D01*
X0408783Y0095049D01*
X0408739Y0095508D01*
X0408796Y0096032D01*
X0408968Y0096530D01*
X0409247Y0096977D01*
X0409617Y0097351D01*
X0410062Y0097633D01*
X0410559Y0097809D01*
X0411082Y0097870D01*
X0413444Y0097870D01*
X0413529Y0097861D02*
X0411003Y0097861D01*
X0410679Y0097823D02*
X0413879Y0097823D01*
X0414053Y0097785D02*
X0410492Y0097785D01*
X0410385Y0097747D02*
X0414162Y0097747D01*
X0414272Y0097709D02*
X0410278Y0097709D01*
X0410171Y0097671D02*
X0414382Y0097671D01*
X0414484Y0097634D02*
X0410064Y0097634D01*
X0410004Y0097596D02*
X0414545Y0097596D01*
X0414605Y0097558D02*
X0409944Y0097558D01*
X0409884Y0097520D02*
X0414666Y0097520D01*
X0414727Y0097482D02*
X0409824Y0097482D01*
X0409765Y0097444D02*
X0414788Y0097444D01*
X0414849Y0097406D02*
X0409705Y0097406D01*
X0409645Y0097368D02*
X0414910Y0097368D01*
X0414954Y0097330D02*
X0409597Y0097330D01*
X0409560Y0097293D02*
X0414992Y0097293D01*
X0415030Y0097255D02*
X0409522Y0097255D01*
X0409485Y0097217D02*
X0415068Y0097217D01*
X0415106Y0097179D02*
X0409447Y0097179D01*
X0409410Y0097141D02*
X0415145Y0097141D01*
X0415183Y0097103D02*
X0409372Y0097103D01*
X0409334Y0097065D02*
X0415221Y0097065D01*
X0415259Y0097027D02*
X0409297Y0097027D01*
X0409259Y0096990D02*
X0415297Y0096990D01*
X0415323Y0096952D02*
X0409231Y0096952D01*
X0409207Y0096914D02*
X0415347Y0096914D01*
X0415371Y0096876D02*
X0409184Y0096876D01*
X0409160Y0096838D02*
X0415395Y0096838D01*
X0415419Y0096800D02*
X0409137Y0096800D01*
X0409113Y0096762D02*
X0415443Y0096762D01*
X0415467Y0096724D02*
X0409089Y0096724D01*
X0409066Y0096687D02*
X0415491Y0096687D01*
X0415516Y0096649D02*
X0409042Y0096649D01*
X0409019Y0096611D02*
X0415540Y0096611D01*
X0415564Y0096573D02*
X0408995Y0096573D01*
X0408972Y0096535D02*
X0415587Y0096535D01*
X0415601Y0096497D02*
X0408957Y0096497D01*
X0408944Y0096459D02*
X0415614Y0096459D01*
X0415628Y0096421D02*
X0408931Y0096421D01*
X0408918Y0096383D02*
X0415641Y0096383D01*
X0415654Y0096346D02*
X0408905Y0096346D01*
X0408892Y0096308D02*
X0415668Y0096308D01*
X0415681Y0096270D02*
X0408878Y0096270D01*
X0408865Y0096232D02*
X0415695Y0096232D01*
X0415708Y0096194D02*
X0408852Y0096194D01*
X0408839Y0096156D02*
X0415722Y0096156D01*
X0415735Y0096118D02*
X0408826Y0096118D01*
X0408813Y0096080D02*
X0415748Y0096080D01*
X0415762Y0096043D02*
X0408800Y0096043D01*
X0408793Y0096005D02*
X0415768Y0096005D01*
X0415772Y0095967D02*
X0408789Y0095967D01*
X0408785Y0095929D02*
X0415777Y0095929D01*
X0415781Y0095891D02*
X0408781Y0095891D01*
X0408777Y0095853D02*
X0415786Y0095853D01*
X0415790Y0095815D02*
X0408773Y0095815D01*
X0408769Y0095777D02*
X0415795Y0095777D01*
X0415799Y0095739D02*
X0408765Y0095739D01*
X0408760Y0095702D02*
X0415803Y0095702D01*
X0415808Y0095664D02*
X0408756Y0095664D01*
X0408752Y0095626D02*
X0415812Y0095626D01*
X0415817Y0095588D02*
X0408748Y0095588D01*
X0408744Y0095550D02*
X0415821Y0095550D01*
X0415826Y0095512D02*
X0408740Y0095512D01*
X0408743Y0095474D02*
X0415823Y0095474D01*
X0415819Y0095436D02*
X0408746Y0095436D01*
X0408750Y0095399D02*
X0415815Y0095399D01*
X0415811Y0095361D02*
X0408753Y0095361D01*
X0408757Y0095323D02*
X0415807Y0095323D01*
X0415803Y0095285D02*
X0408760Y0095285D01*
X0408764Y0095247D02*
X0415799Y0095247D01*
X0415795Y0095209D02*
X0408768Y0095209D01*
X0408771Y0095171D02*
X0415791Y0095171D01*
X0415788Y0095133D02*
X0408775Y0095133D01*
X0408778Y0095095D02*
X0415784Y0095095D01*
X0415780Y0095058D02*
X0408782Y0095058D01*
X0408791Y0095020D02*
X0415771Y0095020D01*
X0415759Y0094982D02*
X0408803Y0094982D01*
X0408814Y0094944D02*
X0415747Y0094944D01*
X0415736Y0094906D02*
X0408825Y0094906D01*
X0408837Y0094868D02*
X0415724Y0094868D01*
X0415712Y0094830D02*
X0408848Y0094830D01*
X0408859Y0094792D02*
X0415701Y0094792D01*
X0415689Y0094755D02*
X0408871Y0094755D01*
X0408882Y0094717D02*
X0415677Y0094717D01*
X0415666Y0094679D02*
X0408893Y0094679D01*
X0408905Y0094641D02*
X0415654Y0094641D01*
X0415642Y0094603D02*
X0408917Y0094603D01*
X0408937Y0094565D02*
X0415622Y0094565D01*
X0415602Y0094527D02*
X0408957Y0094527D01*
X0408977Y0094489D02*
X0415582Y0094489D01*
X0415561Y0094452D02*
X0408997Y0094452D01*
X0409017Y0094414D02*
X0415541Y0094414D01*
X0415520Y0094376D02*
X0409037Y0094376D01*
X0409057Y0094338D02*
X0415500Y0094338D01*
X0415479Y0094300D02*
X0409077Y0094300D01*
X0409097Y0094262D02*
X0415459Y0094262D01*
X0415438Y0094224D02*
X0409117Y0094224D01*
X0409141Y0094186D02*
X0415416Y0094186D01*
X0415385Y0094148D02*
X0409172Y0094148D01*
X0409203Y0094111D02*
X0415354Y0094111D01*
X0415322Y0094073D02*
X0409233Y0094073D01*
X0409264Y0094035D02*
X0415291Y0094035D01*
X0415260Y0093997D02*
X0409295Y0093997D01*
X0409326Y0093959D02*
X0415228Y0093959D01*
X0415197Y0093921D02*
X0409357Y0093921D01*
X0409388Y0093883D02*
X0415166Y0093883D01*
X0415134Y0093845D02*
X0409418Y0093845D01*
X0409463Y0093808D02*
X0415092Y0093808D01*
X0415046Y0093770D02*
X0409508Y0093770D01*
X0409554Y0093732D02*
X0414999Y0093732D01*
X0414953Y0093694D02*
X0409600Y0093694D01*
X0409646Y0093656D02*
X0414906Y0093656D01*
X0414860Y0093618D02*
X0409691Y0093618D01*
X0409737Y0093580D02*
X0414813Y0093580D01*
X0414767Y0093542D02*
X0409786Y0093542D01*
X0409857Y0093504D02*
X0414697Y0093504D01*
X0414625Y0093467D02*
X0409927Y0093467D01*
X0409997Y0093429D02*
X0414553Y0093429D01*
X0414482Y0093391D02*
X0410067Y0093391D01*
X0410137Y0093353D02*
X0414410Y0093353D01*
X0414328Y0093315D02*
X0410226Y0093315D01*
X0410349Y0093277D02*
X0414201Y0093277D01*
X0414074Y0093239D02*
X0410472Y0093239D01*
X0410595Y0093201D02*
X0413948Y0093201D01*
X0413634Y0093164D02*
X0410908Y0093164D01*
X0424244Y0095004D02*
X0424212Y0095508D01*
X0424244Y0096012D01*
X0424388Y0096497D01*
X0433073Y0096497D01*
X0433055Y0096535D02*
X0424410Y0096535D01*
X0424431Y0096573D02*
X0433036Y0096573D01*
X0433018Y0096611D02*
X0424452Y0096611D01*
X0424474Y0096649D02*
X0433000Y0096649D01*
X0432981Y0096687D02*
X0424495Y0096687D01*
X0424516Y0096724D02*
X0432963Y0096724D01*
X0432945Y0096762D02*
X0424538Y0096762D01*
X0424559Y0096800D02*
X0432922Y0096800D01*
X0432933Y0096786D02*
X0433128Y0096385D01*
X0433241Y0095953D01*
X0433267Y0095508D01*
X0433241Y0095063D01*
X0433128Y0094631D01*
X0432933Y0094230D01*
X0432664Y0093874D01*
X0432330Y0093578D01*
X0431945Y0093353D01*
X0431524Y0093207D01*
X0431082Y0093146D01*
X0426358Y0093146D01*
X0425859Y0093226D01*
X0425390Y0093416D01*
X0424976Y0093705D01*
X0424636Y0094079D01*
X0424388Y0094519D01*
X0424244Y0095004D01*
X0424243Y0095020D02*
X0433229Y0095020D01*
X0433239Y0095058D02*
X0424241Y0095058D01*
X0424238Y0095095D02*
X0433243Y0095095D01*
X0433245Y0095133D02*
X0424236Y0095133D01*
X0424234Y0095171D02*
X0433247Y0095171D01*
X0433249Y0095209D02*
X0424231Y0095209D01*
X0424229Y0095247D02*
X0433252Y0095247D01*
X0433254Y0095285D02*
X0424226Y0095285D01*
X0424224Y0095323D02*
X0433256Y0095323D01*
X0433258Y0095361D02*
X0424221Y0095361D01*
X0424219Y0095399D02*
X0433261Y0095399D01*
X0433263Y0095436D02*
X0424216Y0095436D01*
X0424214Y0095474D02*
X0433265Y0095474D01*
X0433267Y0095512D02*
X0424212Y0095512D01*
X0424215Y0095550D02*
X0433264Y0095550D01*
X0433262Y0095588D02*
X0424217Y0095588D01*
X0424219Y0095626D02*
X0433260Y0095626D01*
X0433258Y0095664D02*
X0424222Y0095664D01*
X0424224Y0095702D02*
X0433256Y0095702D01*
X0433253Y0095739D02*
X0424227Y0095739D01*
X0424229Y0095777D02*
X0433251Y0095777D01*
X0433249Y0095815D02*
X0424232Y0095815D01*
X0424234Y0095853D02*
X0433247Y0095853D01*
X0433244Y0095891D02*
X0424237Y0095891D01*
X0424239Y0095929D02*
X0433242Y0095929D01*
X0433237Y0095967D02*
X0424241Y0095967D01*
X0424244Y0096005D02*
X0433227Y0096005D01*
X0433217Y0096043D02*
X0424253Y0096043D01*
X0424265Y0096080D02*
X0433207Y0096080D01*
X0433197Y0096118D02*
X0424276Y0096118D01*
X0424287Y0096156D02*
X0433188Y0096156D01*
X0433178Y0096194D02*
X0424298Y0096194D01*
X0424310Y0096232D02*
X0433168Y0096232D01*
X0433158Y0096270D02*
X0424321Y0096270D01*
X0424332Y0096308D02*
X0433148Y0096308D01*
X0433138Y0096346D02*
X0424343Y0096346D01*
X0424355Y0096383D02*
X0433128Y0096383D01*
X0433110Y0096421D02*
X0424366Y0096421D01*
X0424377Y0096459D02*
X0433092Y0096459D01*
X0432933Y0096786D02*
X0432664Y0097142D01*
X0432330Y0097438D01*
X0431945Y0097663D01*
X0431524Y0097809D01*
X0431082Y0097870D01*
X0426358Y0097870D01*
X0425859Y0097789D01*
X0425390Y0097600D01*
X0424976Y0097311D01*
X0424636Y0096937D01*
X0424388Y0096497D01*
X0424580Y0096838D02*
X0432894Y0096838D01*
X0432865Y0096876D02*
X0424602Y0096876D01*
X0424623Y0096914D02*
X0432836Y0096914D01*
X0432808Y0096952D02*
X0424650Y0096952D01*
X0424684Y0096990D02*
X0432779Y0096990D01*
X0432750Y0097027D02*
X0424718Y0097027D01*
X0424753Y0097065D02*
X0432721Y0097065D01*
X0432693Y0097103D02*
X0424787Y0097103D01*
X0424822Y0097141D02*
X0432664Y0097141D01*
X0432622Y0097179D02*
X0424856Y0097179D01*
X0424891Y0097217D02*
X0432579Y0097217D01*
X0432536Y0097255D02*
X0424925Y0097255D01*
X0424959Y0097293D02*
X0432494Y0097293D01*
X0432451Y0097330D02*
X0425004Y0097330D01*
X0425058Y0097368D02*
X0432408Y0097368D01*
X0432366Y0097406D02*
X0425113Y0097406D01*
X0425167Y0097444D02*
X0432319Y0097444D01*
X0432254Y0097482D02*
X0425221Y0097482D01*
X0425276Y0097520D02*
X0432190Y0097520D01*
X0432125Y0097558D02*
X0425330Y0097558D01*
X0425384Y0097596D02*
X0432060Y0097596D01*
X0431996Y0097634D02*
X0425473Y0097634D01*
X0425567Y0097671D02*
X0431921Y0097671D01*
X0431812Y0097709D02*
X0425661Y0097709D01*
X0425754Y0097747D02*
X0431703Y0097747D01*
X0431593Y0097785D02*
X0425848Y0097785D01*
X0426066Y0097823D02*
X0431423Y0097823D01*
X0431149Y0097861D02*
X0426300Y0097861D01*
X0424251Y0094982D02*
X0433220Y0094982D01*
X0433210Y0094944D02*
X0424262Y0094944D01*
X0424273Y0094906D02*
X0433200Y0094906D01*
X0433190Y0094868D02*
X0424285Y0094868D01*
X0424296Y0094830D02*
X0433180Y0094830D01*
X0433170Y0094792D02*
X0424307Y0094792D01*
X0424318Y0094755D02*
X0433160Y0094755D01*
X0433150Y0094717D02*
X0424329Y0094717D01*
X0424341Y0094679D02*
X0433140Y0094679D01*
X0433130Y0094641D02*
X0424352Y0094641D01*
X0424363Y0094603D02*
X0433114Y0094603D01*
X0433096Y0094565D02*
X0424374Y0094565D01*
X0424386Y0094527D02*
X0433077Y0094527D01*
X0433059Y0094489D02*
X0424405Y0094489D01*
X0424426Y0094452D02*
X0433041Y0094452D01*
X0433022Y0094414D02*
X0424448Y0094414D01*
X0424469Y0094376D02*
X0433004Y0094376D01*
X0432986Y0094338D02*
X0424490Y0094338D01*
X0424512Y0094300D02*
X0432967Y0094300D01*
X0432949Y0094262D02*
X0424533Y0094262D01*
X0424554Y0094224D02*
X0432929Y0094224D01*
X0432900Y0094186D02*
X0424576Y0094186D01*
X0424597Y0094148D02*
X0432871Y0094148D01*
X0432843Y0094111D02*
X0424618Y0094111D01*
X0424642Y0094073D02*
X0432814Y0094073D01*
X0432785Y0094035D02*
X0424676Y0094035D01*
X0424711Y0093997D02*
X0432757Y0093997D01*
X0432728Y0093959D02*
X0424745Y0093959D01*
X0424779Y0093921D02*
X0432699Y0093921D01*
X0432671Y0093883D02*
X0424814Y0093883D01*
X0424848Y0093845D02*
X0432631Y0093845D01*
X0432589Y0093808D02*
X0424883Y0093808D01*
X0424917Y0093770D02*
X0432546Y0093770D01*
X0432503Y0093732D02*
X0424951Y0093732D01*
X0424992Y0093694D02*
X0432461Y0093694D01*
X0432418Y0093656D02*
X0425046Y0093656D01*
X0425100Y0093618D02*
X0432375Y0093618D01*
X0432333Y0093580D02*
X0425155Y0093580D01*
X0425209Y0093542D02*
X0432269Y0093542D01*
X0432205Y0093504D02*
X0425263Y0093504D01*
X0425318Y0093467D02*
X0432140Y0093467D01*
X0432075Y0093429D02*
X0425372Y0093429D01*
X0425452Y0093391D02*
X0432011Y0093391D01*
X0431946Y0093353D02*
X0425546Y0093353D01*
X0425639Y0093315D02*
X0431837Y0093315D01*
X0431727Y0093277D02*
X0425733Y0093277D01*
X0425827Y0093239D02*
X0431618Y0093239D01*
X0431486Y0093201D02*
X0426012Y0093201D01*
X0426247Y0093164D02*
X0431212Y0093164D01*
X0431082Y0063854D02*
X0426358Y0063854D01*
X0425859Y0063774D01*
X0425390Y0063584D01*
X0424976Y0063295D01*
X0424636Y0062921D01*
X0424388Y0062481D01*
X0424244Y0061996D01*
X0424212Y0061492D01*
X0424244Y0060988D01*
X0424388Y0060503D01*
X0424636Y0060063D01*
X0424976Y0059689D01*
X0425390Y0059400D01*
X0425859Y0059211D01*
X0426358Y0059130D01*
X0431082Y0059130D01*
X0431524Y0059191D01*
X0431945Y0059337D01*
X0432330Y0059562D01*
X0432664Y0059858D01*
X0432933Y0060214D01*
X0433128Y0060615D01*
X0433241Y0061047D01*
X0433267Y0061492D01*
X0433241Y0061937D01*
X0433128Y0062369D01*
X0432933Y0062770D01*
X0432664Y0063126D01*
X0432330Y0063422D01*
X0431945Y0063647D01*
X0431524Y0063793D01*
X0431082Y0063854D01*
X0431162Y0063843D02*
X0426290Y0063843D01*
X0426055Y0063805D02*
X0431436Y0063805D01*
X0431598Y0063768D02*
X0425844Y0063768D01*
X0425750Y0063730D02*
X0431708Y0063730D01*
X0431817Y0063692D02*
X0425656Y0063692D01*
X0425563Y0063654D02*
X0431926Y0063654D01*
X0431999Y0063616D02*
X0425469Y0063616D01*
X0425382Y0063578D02*
X0432063Y0063578D01*
X0432128Y0063540D02*
X0425327Y0063540D01*
X0425273Y0063502D02*
X0432193Y0063502D01*
X0432257Y0063465D02*
X0425219Y0063465D01*
X0425165Y0063427D02*
X0432322Y0063427D01*
X0432368Y0063389D02*
X0425110Y0063389D01*
X0425056Y0063351D02*
X0432410Y0063351D01*
X0432453Y0063313D02*
X0425002Y0063313D01*
X0424958Y0063275D02*
X0432496Y0063275D01*
X0432538Y0063237D02*
X0424923Y0063237D01*
X0424889Y0063199D02*
X0432581Y0063199D01*
X0432623Y0063161D02*
X0424855Y0063161D01*
X0424820Y0063124D02*
X0432665Y0063124D01*
X0432694Y0063086D02*
X0424786Y0063086D01*
X0424751Y0063048D02*
X0432723Y0063048D01*
X0432751Y0063010D02*
X0424717Y0063010D01*
X0424682Y0062972D02*
X0432780Y0062972D01*
X0432809Y0062934D02*
X0424648Y0062934D01*
X0424622Y0062896D02*
X0432838Y0062896D01*
X0432866Y0062858D02*
X0424601Y0062858D01*
X0424580Y0062821D02*
X0432895Y0062821D01*
X0432924Y0062783D02*
X0424558Y0062783D01*
X0424537Y0062745D02*
X0432945Y0062745D01*
X0432964Y0062707D02*
X0424515Y0062707D01*
X0424494Y0062669D02*
X0432982Y0062669D01*
X0433001Y0062631D02*
X0424473Y0062631D01*
X0424451Y0062593D02*
X0433019Y0062593D01*
X0433037Y0062555D02*
X0424430Y0062555D01*
X0424409Y0062517D02*
X0433056Y0062517D01*
X0433074Y0062480D02*
X0424388Y0062480D01*
X0424377Y0062442D02*
X0433092Y0062442D01*
X0433111Y0062404D02*
X0424365Y0062404D01*
X0424354Y0062366D02*
X0433129Y0062366D01*
X0433138Y0062328D02*
X0424343Y0062328D01*
X0424332Y0062290D02*
X0433148Y0062290D01*
X0433158Y0062252D02*
X0424320Y0062252D01*
X0424309Y0062214D02*
X0433168Y0062214D01*
X0433178Y0062177D02*
X0424298Y0062177D01*
X0424287Y0062139D02*
X0433188Y0062139D01*
X0433198Y0062101D02*
X0424275Y0062101D01*
X0424264Y0062063D02*
X0433208Y0062063D01*
X0433218Y0062025D02*
X0424253Y0062025D01*
X0424244Y0061987D02*
X0433228Y0061987D01*
X0433237Y0061949D02*
X0424241Y0061949D01*
X0424239Y0061911D02*
X0433242Y0061911D01*
X0433244Y0061874D02*
X0424236Y0061874D01*
X0424234Y0061836D02*
X0433247Y0061836D01*
X0433249Y0061798D02*
X0424232Y0061798D01*
X0424229Y0061760D02*
X0433251Y0061760D01*
X0433253Y0061722D02*
X0424227Y0061722D01*
X0424224Y0061684D02*
X0433256Y0061684D01*
X0433258Y0061646D02*
X0424222Y0061646D01*
X0424219Y0061608D02*
X0433260Y0061608D01*
X0433262Y0061570D02*
X0424217Y0061570D01*
X0424214Y0061533D02*
X0433265Y0061533D01*
X0433267Y0061495D02*
X0424212Y0061495D01*
X0424214Y0061457D02*
X0433265Y0061457D01*
X0433263Y0061419D02*
X0424217Y0061419D01*
X0424219Y0061381D02*
X0433260Y0061381D01*
X0433258Y0061343D02*
X0424221Y0061343D01*
X0424224Y0061305D02*
X0433256Y0061305D01*
X0433254Y0061267D02*
X0424226Y0061267D01*
X0424229Y0061230D02*
X0433251Y0061230D01*
X0433249Y0061192D02*
X0424231Y0061192D01*
X0424234Y0061154D02*
X0433247Y0061154D01*
X0433245Y0061116D02*
X0424236Y0061116D01*
X0424239Y0061078D02*
X0433242Y0061078D01*
X0433239Y0061040D02*
X0424241Y0061040D01*
X0424243Y0061002D02*
X0433229Y0061002D01*
X0433219Y0060964D02*
X0424251Y0060964D01*
X0424263Y0060926D02*
X0433209Y0060926D01*
X0433199Y0060889D02*
X0424274Y0060889D01*
X0424285Y0060851D02*
X0433189Y0060851D01*
X0433179Y0060813D02*
X0424296Y0060813D01*
X0424308Y0060775D02*
X0433170Y0060775D01*
X0433160Y0060737D02*
X0424319Y0060737D01*
X0424330Y0060699D02*
X0433150Y0060699D01*
X0433140Y0060661D02*
X0424341Y0060661D01*
X0424353Y0060623D02*
X0433130Y0060623D01*
X0433113Y0060586D02*
X0424364Y0060586D01*
X0424375Y0060548D02*
X0433095Y0060548D01*
X0433077Y0060510D02*
X0424386Y0060510D01*
X0424406Y0060472D02*
X0433058Y0060472D01*
X0433040Y0060434D02*
X0424427Y0060434D01*
X0424449Y0060396D02*
X0433021Y0060396D01*
X0433003Y0060358D02*
X0424470Y0060358D01*
X0424491Y0060320D02*
X0432985Y0060320D01*
X0432966Y0060282D02*
X0424513Y0060282D01*
X0424534Y0060245D02*
X0432948Y0060245D01*
X0432928Y0060207D02*
X0424555Y0060207D01*
X0424577Y0060169D02*
X0432899Y0060169D01*
X0432870Y0060131D02*
X0424598Y0060131D01*
X0424619Y0060093D02*
X0432841Y0060093D01*
X0432813Y0060055D02*
X0424643Y0060055D01*
X0424678Y0060017D02*
X0432784Y0060017D01*
X0432755Y0059979D02*
X0424712Y0059979D01*
X0424747Y0059942D02*
X0432727Y0059942D01*
X0432698Y0059904D02*
X0424781Y0059904D01*
X0424815Y0059866D02*
X0432669Y0059866D01*
X0432629Y0059828D02*
X0424850Y0059828D01*
X0424884Y0059790D02*
X0432587Y0059790D01*
X0432544Y0059752D02*
X0424919Y0059752D01*
X0424953Y0059714D02*
X0432501Y0059714D01*
X0432459Y0059676D02*
X0424994Y0059676D01*
X0425049Y0059639D02*
X0432416Y0059639D01*
X0432373Y0059601D02*
X0425103Y0059601D01*
X0425157Y0059563D02*
X0432331Y0059563D01*
X0432266Y0059525D02*
X0425211Y0059525D01*
X0425266Y0059487D02*
X0432202Y0059487D01*
X0432137Y0059449D02*
X0425320Y0059449D01*
X0425374Y0059411D02*
X0432072Y0059411D01*
X0432008Y0059373D02*
X0425456Y0059373D01*
X0425550Y0059335D02*
X0431941Y0059335D01*
X0431832Y0059298D02*
X0425644Y0059298D01*
X0425737Y0059260D02*
X0431722Y0059260D01*
X0431613Y0059222D02*
X0425831Y0059222D01*
X0426023Y0059184D02*
X0431473Y0059184D01*
X0431199Y0059146D02*
X0426258Y0059146D01*
X0415779Y0061030D02*
X0415642Y0060585D01*
X0415421Y0060176D01*
X0415124Y0059818D01*
X0414764Y0059524D01*
X0414353Y0059307D01*
X0413907Y0059174D01*
X0413444Y0059130D01*
X0411082Y0059130D01*
X0410623Y0059177D01*
X0410183Y0059313D01*
X0409777Y0059532D01*
X0409421Y0059826D01*
X0409130Y0060184D01*
X0408915Y0060591D01*
X0408783Y0061033D01*
X0408739Y0061492D01*
X0408796Y0062016D01*
X0408968Y0062514D01*
X0409247Y0062961D01*
X0409617Y0063335D01*
X0410062Y0063617D01*
X0410559Y0063793D01*
X0411082Y0063854D01*
X0413444Y0063854D01*
X0413972Y0063797D01*
X0414474Y0063624D01*
X0414925Y0063343D01*
X0415302Y0062969D01*
X0415587Y0062520D01*
X0415764Y0062020D01*
X0415826Y0061492D01*
X0415779Y0061030D01*
X0415780Y0061040D02*
X0408782Y0061040D01*
X0408778Y0061078D02*
X0415784Y0061078D01*
X0415787Y0061116D02*
X0408775Y0061116D01*
X0408771Y0061154D02*
X0415791Y0061154D01*
X0415795Y0061192D02*
X0408768Y0061192D01*
X0408764Y0061230D02*
X0415799Y0061230D01*
X0415803Y0061267D02*
X0408761Y0061267D01*
X0408757Y0061305D02*
X0415807Y0061305D01*
X0415811Y0061343D02*
X0408753Y0061343D01*
X0408750Y0061381D02*
X0415815Y0061381D01*
X0415819Y0061419D02*
X0408746Y0061419D01*
X0408743Y0061457D02*
X0415822Y0061457D01*
X0415826Y0061495D02*
X0408740Y0061495D01*
X0408744Y0061533D02*
X0415821Y0061533D01*
X0415817Y0061570D02*
X0408748Y0061570D01*
X0408752Y0061608D02*
X0415812Y0061608D01*
X0415808Y0061646D02*
X0408756Y0061646D01*
X0408760Y0061684D02*
X0415804Y0061684D01*
X0415799Y0061722D02*
X0408764Y0061722D01*
X0408768Y0061760D02*
X0415795Y0061760D01*
X0415790Y0061798D02*
X0408773Y0061798D01*
X0408777Y0061836D02*
X0415786Y0061836D01*
X0415781Y0061874D02*
X0408781Y0061874D01*
X0408785Y0061911D02*
X0415777Y0061911D01*
X0415773Y0061949D02*
X0408789Y0061949D01*
X0408793Y0061987D02*
X0415768Y0061987D01*
X0415762Y0062025D02*
X0408799Y0062025D01*
X0408812Y0062063D02*
X0415749Y0062063D01*
X0415736Y0062101D02*
X0408826Y0062101D01*
X0408839Y0062139D02*
X0415722Y0062139D01*
X0415709Y0062177D02*
X0408852Y0062177D01*
X0408865Y0062214D02*
X0415695Y0062214D01*
X0415682Y0062252D02*
X0408878Y0062252D01*
X0408891Y0062290D02*
X0415668Y0062290D01*
X0415655Y0062328D02*
X0408904Y0062328D01*
X0408917Y0062366D02*
X0415642Y0062366D01*
X0415628Y0062404D02*
X0408930Y0062404D01*
X0408943Y0062442D02*
X0415615Y0062442D01*
X0415601Y0062480D02*
X0408956Y0062480D01*
X0408970Y0062517D02*
X0415588Y0062517D01*
X0415565Y0062555D02*
X0408994Y0062555D01*
X0409018Y0062593D02*
X0415541Y0062593D01*
X0415517Y0062631D02*
X0409041Y0062631D01*
X0409065Y0062669D02*
X0415493Y0062669D01*
X0415469Y0062707D02*
X0409088Y0062707D01*
X0409112Y0062745D02*
X0415445Y0062745D01*
X0415421Y0062783D02*
X0409136Y0062783D01*
X0409159Y0062821D02*
X0415397Y0062821D01*
X0415372Y0062858D02*
X0409183Y0062858D01*
X0409206Y0062896D02*
X0415348Y0062896D01*
X0415324Y0062934D02*
X0409230Y0062934D01*
X0409258Y0062972D02*
X0415299Y0062972D01*
X0415261Y0063010D02*
X0409295Y0063010D01*
X0409333Y0063048D02*
X0415223Y0063048D01*
X0415185Y0063086D02*
X0409370Y0063086D01*
X0409408Y0063124D02*
X0415146Y0063124D01*
X0415108Y0063161D02*
X0409445Y0063161D01*
X0409483Y0063199D02*
X0415070Y0063199D01*
X0415032Y0063237D02*
X0409521Y0063237D01*
X0409558Y0063275D02*
X0414994Y0063275D01*
X0414955Y0063313D02*
X0409596Y0063313D01*
X0409643Y0063351D02*
X0414913Y0063351D01*
X0414852Y0063389D02*
X0409702Y0063389D01*
X0409762Y0063427D02*
X0414791Y0063427D01*
X0414730Y0063465D02*
X0409822Y0063465D01*
X0409881Y0063502D02*
X0414669Y0063502D01*
X0414608Y0063540D02*
X0409941Y0063540D01*
X0410001Y0063578D02*
X0414547Y0063578D01*
X0414487Y0063616D02*
X0410061Y0063616D01*
X0410166Y0063654D02*
X0414387Y0063654D01*
X0414277Y0063692D02*
X0410273Y0063692D01*
X0410380Y0063730D02*
X0414167Y0063730D01*
X0414058Y0063768D02*
X0410487Y0063768D01*
X0410664Y0063805D02*
X0413895Y0063805D01*
X0413545Y0063843D02*
X0410988Y0063843D01*
X0408792Y0061002D02*
X0415770Y0061002D01*
X0415758Y0060964D02*
X0408803Y0060964D01*
X0408815Y0060926D02*
X0415747Y0060926D01*
X0415735Y0060889D02*
X0408826Y0060889D01*
X0408837Y0060851D02*
X0415723Y0060851D01*
X0415712Y0060813D02*
X0408849Y0060813D01*
X0408860Y0060775D02*
X0415700Y0060775D01*
X0415689Y0060737D02*
X0408871Y0060737D01*
X0408882Y0060699D02*
X0415677Y0060699D01*
X0415665Y0060661D02*
X0408894Y0060661D01*
X0408905Y0060623D02*
X0415654Y0060623D01*
X0415642Y0060586D02*
X0408918Y0060586D01*
X0408938Y0060548D02*
X0415622Y0060548D01*
X0415601Y0060510D02*
X0408958Y0060510D01*
X0408978Y0060472D02*
X0415581Y0060472D01*
X0415560Y0060434D02*
X0408998Y0060434D01*
X0409018Y0060396D02*
X0415540Y0060396D01*
X0415519Y0060358D02*
X0409038Y0060358D01*
X0409058Y0060320D02*
X0415499Y0060320D01*
X0415478Y0060282D02*
X0409078Y0060282D01*
X0409098Y0060245D02*
X0415458Y0060245D01*
X0415437Y0060207D02*
X0409118Y0060207D01*
X0409142Y0060169D02*
X0415415Y0060169D01*
X0415384Y0060131D02*
X0409173Y0060131D01*
X0409204Y0060093D02*
X0415352Y0060093D01*
X0415321Y0060055D02*
X0409235Y0060055D01*
X0409266Y0060017D02*
X0415290Y0060017D01*
X0415258Y0059979D02*
X0409297Y0059979D01*
X0409327Y0059942D02*
X0415227Y0059942D01*
X0415195Y0059904D02*
X0409358Y0059904D01*
X0409389Y0059866D02*
X0415164Y0059866D01*
X0415133Y0059828D02*
X0409420Y0059828D01*
X0409465Y0059790D02*
X0415090Y0059790D01*
X0415044Y0059752D02*
X0409511Y0059752D01*
X0409556Y0059714D02*
X0414997Y0059714D01*
X0414951Y0059676D02*
X0409602Y0059676D01*
X0409648Y0059639D02*
X0414904Y0059639D01*
X0414858Y0059601D02*
X0409694Y0059601D01*
X0409739Y0059563D02*
X0414811Y0059563D01*
X0414764Y0059525D02*
X0409790Y0059525D01*
X0409860Y0059487D02*
X0414693Y0059487D01*
X0414622Y0059449D02*
X0409930Y0059449D01*
X0410000Y0059411D02*
X0414550Y0059411D01*
X0414479Y0059373D02*
X0410070Y0059373D01*
X0410140Y0059335D02*
X0414407Y0059335D01*
X0414322Y0059298D02*
X0410232Y0059298D01*
X0410355Y0059260D02*
X0414195Y0059260D01*
X0414069Y0059222D02*
X0410478Y0059222D01*
X0410601Y0059184D02*
X0413942Y0059184D01*
X0413615Y0059146D02*
X0410925Y0059146D01*
X0251267Y0061492D02*
X0251241Y0061047D01*
X0251128Y0060615D01*
X0250933Y0060214D01*
X0250664Y0059858D01*
X0250330Y0059562D01*
X0249945Y0059337D01*
X0249524Y0059191D01*
X0249082Y0059130D01*
X0244358Y0059130D01*
X0243859Y0059211D01*
X0243390Y0059400D01*
X0242976Y0059689D01*
X0242636Y0060063D01*
X0242388Y0060503D01*
X0242244Y0060988D01*
X0242212Y0061492D01*
X0242244Y0061996D01*
X0242388Y0062481D01*
X0242636Y0062921D01*
X0242976Y0063295D01*
X0243390Y0063584D01*
X0243859Y0063774D01*
X0244358Y0063854D01*
X0249082Y0063854D01*
X0249524Y0063793D01*
X0249945Y0063647D01*
X0250330Y0063422D01*
X0250664Y0063126D01*
X0250933Y0062770D01*
X0251128Y0062369D01*
X0251241Y0061937D01*
X0251267Y0061492D01*
X0251267Y0061495D02*
X0242212Y0061495D01*
X0242214Y0061533D02*
X0251265Y0061533D01*
X0251262Y0061570D02*
X0242217Y0061570D01*
X0242219Y0061608D02*
X0251260Y0061608D01*
X0251258Y0061646D02*
X0242222Y0061646D01*
X0242224Y0061684D02*
X0251256Y0061684D01*
X0251253Y0061722D02*
X0242227Y0061722D01*
X0242229Y0061760D02*
X0251251Y0061760D01*
X0251249Y0061798D02*
X0242232Y0061798D01*
X0242234Y0061836D02*
X0251247Y0061836D01*
X0251244Y0061874D02*
X0242236Y0061874D01*
X0242239Y0061911D02*
X0251242Y0061911D01*
X0251237Y0061949D02*
X0242241Y0061949D01*
X0242244Y0061987D02*
X0251228Y0061987D01*
X0251218Y0062025D02*
X0242253Y0062025D01*
X0242264Y0062063D02*
X0251208Y0062063D01*
X0251198Y0062101D02*
X0242275Y0062101D01*
X0242287Y0062139D02*
X0251188Y0062139D01*
X0251178Y0062177D02*
X0242298Y0062177D01*
X0242309Y0062214D02*
X0251168Y0062214D01*
X0251158Y0062252D02*
X0242320Y0062252D01*
X0242332Y0062290D02*
X0251148Y0062290D01*
X0251138Y0062328D02*
X0242343Y0062328D01*
X0242354Y0062366D02*
X0251129Y0062366D01*
X0251111Y0062404D02*
X0242365Y0062404D01*
X0242377Y0062442D02*
X0251092Y0062442D01*
X0251074Y0062480D02*
X0242388Y0062480D01*
X0242409Y0062517D02*
X0251056Y0062517D01*
X0251037Y0062555D02*
X0242430Y0062555D01*
X0242451Y0062593D02*
X0251019Y0062593D01*
X0251001Y0062631D02*
X0242473Y0062631D01*
X0242494Y0062669D02*
X0250982Y0062669D01*
X0250964Y0062707D02*
X0242515Y0062707D01*
X0242537Y0062745D02*
X0250945Y0062745D01*
X0250924Y0062783D02*
X0242558Y0062783D01*
X0242580Y0062821D02*
X0250895Y0062821D01*
X0250866Y0062858D02*
X0242601Y0062858D01*
X0242622Y0062896D02*
X0250838Y0062896D01*
X0250809Y0062934D02*
X0242648Y0062934D01*
X0242682Y0062972D02*
X0250780Y0062972D01*
X0250751Y0063010D02*
X0242717Y0063010D01*
X0242751Y0063048D02*
X0250723Y0063048D01*
X0250694Y0063086D02*
X0242786Y0063086D01*
X0242820Y0063124D02*
X0250665Y0063124D01*
X0250623Y0063161D02*
X0242855Y0063161D01*
X0242889Y0063199D02*
X0250581Y0063199D01*
X0250538Y0063237D02*
X0242923Y0063237D01*
X0242958Y0063275D02*
X0250496Y0063275D01*
X0250453Y0063313D02*
X0243002Y0063313D01*
X0243056Y0063351D02*
X0250410Y0063351D01*
X0250368Y0063389D02*
X0243110Y0063389D01*
X0243165Y0063427D02*
X0250322Y0063427D01*
X0250257Y0063465D02*
X0243219Y0063465D01*
X0243273Y0063502D02*
X0250193Y0063502D01*
X0250128Y0063540D02*
X0243327Y0063540D01*
X0243382Y0063578D02*
X0250063Y0063578D01*
X0249999Y0063616D02*
X0243469Y0063616D01*
X0243563Y0063654D02*
X0249926Y0063654D01*
X0249817Y0063692D02*
X0243656Y0063692D01*
X0243750Y0063730D02*
X0249708Y0063730D01*
X0249598Y0063768D02*
X0243844Y0063768D01*
X0244055Y0063805D02*
X0249436Y0063805D01*
X0249162Y0063843D02*
X0244290Y0063843D01*
X0242214Y0061457D02*
X0251265Y0061457D01*
X0251263Y0061419D02*
X0242217Y0061419D01*
X0242219Y0061381D02*
X0251260Y0061381D01*
X0251258Y0061343D02*
X0242221Y0061343D01*
X0242224Y0061305D02*
X0251256Y0061305D01*
X0251254Y0061267D02*
X0242226Y0061267D01*
X0242229Y0061230D02*
X0251251Y0061230D01*
X0251249Y0061192D02*
X0242231Y0061192D01*
X0242234Y0061154D02*
X0251247Y0061154D01*
X0251245Y0061116D02*
X0242236Y0061116D01*
X0242239Y0061078D02*
X0251242Y0061078D01*
X0251239Y0061040D02*
X0242241Y0061040D01*
X0242243Y0061002D02*
X0251229Y0061002D01*
X0251219Y0060964D02*
X0242251Y0060964D01*
X0242263Y0060926D02*
X0251209Y0060926D01*
X0251199Y0060889D02*
X0242274Y0060889D01*
X0242285Y0060851D02*
X0251189Y0060851D01*
X0251179Y0060813D02*
X0242296Y0060813D01*
X0242308Y0060775D02*
X0251170Y0060775D01*
X0251160Y0060737D02*
X0242319Y0060737D01*
X0242330Y0060699D02*
X0251150Y0060699D01*
X0251140Y0060661D02*
X0242341Y0060661D01*
X0242353Y0060623D02*
X0251130Y0060623D01*
X0251113Y0060586D02*
X0242364Y0060586D01*
X0242375Y0060548D02*
X0251095Y0060548D01*
X0251077Y0060510D02*
X0242386Y0060510D01*
X0242406Y0060472D02*
X0251058Y0060472D01*
X0251040Y0060434D02*
X0242427Y0060434D01*
X0242449Y0060396D02*
X0251021Y0060396D01*
X0251003Y0060358D02*
X0242470Y0060358D01*
X0242491Y0060320D02*
X0250985Y0060320D01*
X0250966Y0060282D02*
X0242513Y0060282D01*
X0242534Y0060245D02*
X0250948Y0060245D01*
X0250928Y0060207D02*
X0242555Y0060207D01*
X0242577Y0060169D02*
X0250899Y0060169D01*
X0250870Y0060131D02*
X0242598Y0060131D01*
X0242619Y0060093D02*
X0250841Y0060093D01*
X0250813Y0060055D02*
X0242643Y0060055D01*
X0242678Y0060017D02*
X0250784Y0060017D01*
X0250755Y0059979D02*
X0242712Y0059979D01*
X0242747Y0059942D02*
X0250727Y0059942D01*
X0250698Y0059904D02*
X0242781Y0059904D01*
X0242815Y0059866D02*
X0250669Y0059866D01*
X0250629Y0059828D02*
X0242850Y0059828D01*
X0242884Y0059790D02*
X0250587Y0059790D01*
X0250544Y0059752D02*
X0242919Y0059752D01*
X0242953Y0059714D02*
X0250501Y0059714D01*
X0250459Y0059676D02*
X0242994Y0059676D01*
X0243049Y0059639D02*
X0250416Y0059639D01*
X0250373Y0059601D02*
X0243103Y0059601D01*
X0243157Y0059563D02*
X0250331Y0059563D01*
X0250266Y0059525D02*
X0243211Y0059525D01*
X0243266Y0059487D02*
X0250202Y0059487D01*
X0250137Y0059449D02*
X0243320Y0059449D01*
X0243374Y0059411D02*
X0250072Y0059411D01*
X0250008Y0059373D02*
X0243456Y0059373D01*
X0243550Y0059335D02*
X0249941Y0059335D01*
X0249832Y0059298D02*
X0243644Y0059298D01*
X0243737Y0059260D02*
X0249722Y0059260D01*
X0249613Y0059222D02*
X0243831Y0059222D01*
X0244023Y0059184D02*
X0249473Y0059184D01*
X0249199Y0059146D02*
X0244258Y0059146D01*
X0233779Y0061030D02*
X0233642Y0060585D01*
X0233421Y0060176D01*
X0233124Y0059818D01*
X0232764Y0059524D01*
X0232353Y0059307D01*
X0231907Y0059174D01*
X0231444Y0059130D01*
X0229082Y0059130D01*
X0228623Y0059177D01*
X0228183Y0059313D01*
X0227777Y0059532D01*
X0227421Y0059826D01*
X0227130Y0060184D01*
X0226915Y0060591D01*
X0226783Y0061033D01*
X0226739Y0061492D01*
X0226796Y0062016D01*
X0226968Y0062514D01*
X0227247Y0062961D01*
X0227617Y0063335D01*
X0228062Y0063617D01*
X0228559Y0063793D01*
X0229082Y0063854D01*
X0231444Y0063854D01*
X0231972Y0063797D01*
X0232474Y0063624D01*
X0232925Y0063343D01*
X0233302Y0062969D01*
X0233587Y0062520D01*
X0233764Y0062020D01*
X0233826Y0061492D01*
X0233779Y0061030D01*
X0233780Y0061040D02*
X0226782Y0061040D01*
X0226778Y0061078D02*
X0233784Y0061078D01*
X0233787Y0061116D02*
X0226775Y0061116D01*
X0226771Y0061154D02*
X0233791Y0061154D01*
X0233795Y0061192D02*
X0226768Y0061192D01*
X0226764Y0061230D02*
X0233799Y0061230D01*
X0233803Y0061267D02*
X0226761Y0061267D01*
X0226757Y0061305D02*
X0233807Y0061305D01*
X0233811Y0061343D02*
X0226753Y0061343D01*
X0226750Y0061381D02*
X0233815Y0061381D01*
X0233819Y0061419D02*
X0226746Y0061419D01*
X0226743Y0061457D02*
X0233822Y0061457D01*
X0233826Y0061495D02*
X0226740Y0061495D01*
X0226744Y0061533D02*
X0233821Y0061533D01*
X0233817Y0061570D02*
X0226748Y0061570D01*
X0226752Y0061608D02*
X0233812Y0061608D01*
X0233808Y0061646D02*
X0226756Y0061646D01*
X0226760Y0061684D02*
X0233804Y0061684D01*
X0233799Y0061722D02*
X0226764Y0061722D01*
X0226768Y0061760D02*
X0233795Y0061760D01*
X0233790Y0061798D02*
X0226773Y0061798D01*
X0226777Y0061836D02*
X0233786Y0061836D01*
X0233781Y0061874D02*
X0226781Y0061874D01*
X0226785Y0061911D02*
X0233777Y0061911D01*
X0233773Y0061949D02*
X0226789Y0061949D01*
X0226793Y0061987D02*
X0233768Y0061987D01*
X0233762Y0062025D02*
X0226799Y0062025D01*
X0226812Y0062063D02*
X0233749Y0062063D01*
X0233736Y0062101D02*
X0226826Y0062101D01*
X0226839Y0062139D02*
X0233722Y0062139D01*
X0233709Y0062177D02*
X0226852Y0062177D01*
X0226865Y0062214D02*
X0233695Y0062214D01*
X0233682Y0062252D02*
X0226878Y0062252D01*
X0226891Y0062290D02*
X0233668Y0062290D01*
X0233655Y0062328D02*
X0226904Y0062328D01*
X0226917Y0062366D02*
X0233642Y0062366D01*
X0233628Y0062404D02*
X0226930Y0062404D01*
X0226943Y0062442D02*
X0233615Y0062442D01*
X0233601Y0062480D02*
X0226956Y0062480D01*
X0226970Y0062517D02*
X0233588Y0062517D01*
X0233565Y0062555D02*
X0226994Y0062555D01*
X0227018Y0062593D02*
X0233541Y0062593D01*
X0233517Y0062631D02*
X0227041Y0062631D01*
X0227065Y0062669D02*
X0233493Y0062669D01*
X0233469Y0062707D02*
X0227088Y0062707D01*
X0227112Y0062745D02*
X0233445Y0062745D01*
X0233421Y0062783D02*
X0227136Y0062783D01*
X0227159Y0062821D02*
X0233397Y0062821D01*
X0233372Y0062858D02*
X0227183Y0062858D01*
X0227206Y0062896D02*
X0233348Y0062896D01*
X0233324Y0062934D02*
X0227230Y0062934D01*
X0227258Y0062972D02*
X0233299Y0062972D01*
X0233261Y0063010D02*
X0227295Y0063010D01*
X0227333Y0063048D02*
X0233223Y0063048D01*
X0233185Y0063086D02*
X0227370Y0063086D01*
X0227408Y0063124D02*
X0233146Y0063124D01*
X0233108Y0063161D02*
X0227445Y0063161D01*
X0227483Y0063199D02*
X0233070Y0063199D01*
X0233032Y0063237D02*
X0227521Y0063237D01*
X0227558Y0063275D02*
X0232994Y0063275D01*
X0232955Y0063313D02*
X0227596Y0063313D01*
X0227643Y0063351D02*
X0232913Y0063351D01*
X0232852Y0063389D02*
X0227702Y0063389D01*
X0227762Y0063427D02*
X0232791Y0063427D01*
X0232730Y0063465D02*
X0227822Y0063465D01*
X0227881Y0063502D02*
X0232669Y0063502D01*
X0232608Y0063540D02*
X0227941Y0063540D01*
X0228001Y0063578D02*
X0232547Y0063578D01*
X0232487Y0063616D02*
X0228061Y0063616D01*
X0228166Y0063654D02*
X0232387Y0063654D01*
X0232277Y0063692D02*
X0228273Y0063692D01*
X0228380Y0063730D02*
X0232167Y0063730D01*
X0232058Y0063768D02*
X0228487Y0063768D01*
X0228664Y0063805D02*
X0231895Y0063805D01*
X0231545Y0063843D02*
X0228988Y0063843D01*
X0226792Y0061002D02*
X0233770Y0061002D01*
X0233758Y0060964D02*
X0226803Y0060964D01*
X0226815Y0060926D02*
X0233747Y0060926D01*
X0233735Y0060889D02*
X0226826Y0060889D01*
X0226837Y0060851D02*
X0233723Y0060851D01*
X0233712Y0060813D02*
X0226849Y0060813D01*
X0226860Y0060775D02*
X0233700Y0060775D01*
X0233689Y0060737D02*
X0226871Y0060737D01*
X0226882Y0060699D02*
X0233677Y0060699D01*
X0233665Y0060661D02*
X0226894Y0060661D01*
X0226905Y0060623D02*
X0233654Y0060623D01*
X0233642Y0060586D02*
X0226918Y0060586D01*
X0226938Y0060548D02*
X0233622Y0060548D01*
X0233601Y0060510D02*
X0226958Y0060510D01*
X0226978Y0060472D02*
X0233581Y0060472D01*
X0233560Y0060434D02*
X0226998Y0060434D01*
X0227018Y0060396D02*
X0233540Y0060396D01*
X0233519Y0060358D02*
X0227038Y0060358D01*
X0227058Y0060320D02*
X0233499Y0060320D01*
X0233478Y0060282D02*
X0227078Y0060282D01*
X0227098Y0060245D02*
X0233458Y0060245D01*
X0233437Y0060207D02*
X0227118Y0060207D01*
X0227142Y0060169D02*
X0233415Y0060169D01*
X0233384Y0060131D02*
X0227173Y0060131D01*
X0227204Y0060093D02*
X0233352Y0060093D01*
X0233321Y0060055D02*
X0227235Y0060055D01*
X0227266Y0060017D02*
X0233290Y0060017D01*
X0233258Y0059979D02*
X0227297Y0059979D01*
X0227327Y0059942D02*
X0233227Y0059942D01*
X0233195Y0059904D02*
X0227358Y0059904D01*
X0227389Y0059866D02*
X0233164Y0059866D01*
X0233133Y0059828D02*
X0227420Y0059828D01*
X0227465Y0059790D02*
X0233090Y0059790D01*
X0233044Y0059752D02*
X0227511Y0059752D01*
X0227556Y0059714D02*
X0232997Y0059714D01*
X0232951Y0059676D02*
X0227602Y0059676D01*
X0227648Y0059639D02*
X0232904Y0059639D01*
X0232858Y0059601D02*
X0227694Y0059601D01*
X0227739Y0059563D02*
X0232811Y0059563D01*
X0232764Y0059525D02*
X0227790Y0059525D01*
X0227860Y0059487D02*
X0232693Y0059487D01*
X0232622Y0059449D02*
X0227930Y0059449D01*
X0228000Y0059411D02*
X0232550Y0059411D01*
X0232479Y0059373D02*
X0228070Y0059373D01*
X0228140Y0059335D02*
X0232407Y0059335D01*
X0232322Y0059298D02*
X0228232Y0059298D01*
X0228355Y0059260D02*
X0232195Y0059260D01*
X0232069Y0059222D02*
X0228478Y0059222D01*
X0228601Y0059184D02*
X0231942Y0059184D01*
X0231615Y0059146D02*
X0228925Y0059146D01*
X0229082Y0093146D02*
X0228623Y0093193D01*
X0228183Y0093328D01*
X0227777Y0093548D01*
X0227421Y0093842D01*
X0227130Y0094199D01*
X0226915Y0094607D01*
X0226783Y0095049D01*
X0226739Y0095508D01*
X0226796Y0096032D01*
X0226968Y0096530D01*
X0227247Y0096977D01*
X0227617Y0097351D01*
X0228062Y0097633D01*
X0228559Y0097809D01*
X0229082Y0097870D01*
X0231444Y0097870D01*
X0231972Y0097813D01*
X0232474Y0097639D01*
X0232925Y0097359D01*
X0233302Y0096985D01*
X0233587Y0096536D01*
X0233764Y0096035D01*
X0233826Y0095508D01*
X0233779Y0095045D01*
X0233642Y0094601D01*
X0233421Y0094192D01*
X0233124Y0093833D01*
X0232764Y0093540D01*
X0232353Y0093322D01*
X0231907Y0093189D01*
X0231444Y0093146D01*
X0229082Y0093146D01*
X0228908Y0093164D02*
X0231634Y0093164D01*
X0231948Y0093201D02*
X0228595Y0093201D01*
X0228472Y0093239D02*
X0232074Y0093239D01*
X0232201Y0093277D02*
X0228349Y0093277D01*
X0228226Y0093315D02*
X0232328Y0093315D01*
X0232410Y0093353D02*
X0228137Y0093353D01*
X0228067Y0093391D02*
X0232482Y0093391D01*
X0232553Y0093429D02*
X0227997Y0093429D01*
X0227927Y0093467D02*
X0232625Y0093467D01*
X0232697Y0093504D02*
X0227857Y0093504D01*
X0227786Y0093542D02*
X0232767Y0093542D01*
X0232813Y0093580D02*
X0227737Y0093580D01*
X0227691Y0093618D02*
X0232860Y0093618D01*
X0232906Y0093656D02*
X0227646Y0093656D01*
X0227600Y0093694D02*
X0232953Y0093694D01*
X0232999Y0093732D02*
X0227554Y0093732D01*
X0227508Y0093770D02*
X0233046Y0093770D01*
X0233092Y0093808D02*
X0227463Y0093808D01*
X0227418Y0093845D02*
X0233134Y0093845D01*
X0233166Y0093883D02*
X0227388Y0093883D01*
X0227357Y0093921D02*
X0233197Y0093921D01*
X0233228Y0093959D02*
X0227326Y0093959D01*
X0227295Y0093997D02*
X0233260Y0093997D01*
X0233291Y0094035D02*
X0227264Y0094035D01*
X0227233Y0094073D02*
X0233322Y0094073D01*
X0233354Y0094111D02*
X0227203Y0094111D01*
X0227172Y0094148D02*
X0233385Y0094148D01*
X0233416Y0094186D02*
X0227141Y0094186D01*
X0227117Y0094224D02*
X0233438Y0094224D01*
X0233459Y0094262D02*
X0227097Y0094262D01*
X0227077Y0094300D02*
X0233479Y0094300D01*
X0233500Y0094338D02*
X0227057Y0094338D01*
X0227037Y0094376D02*
X0233520Y0094376D01*
X0233541Y0094414D02*
X0227017Y0094414D01*
X0226997Y0094452D02*
X0233561Y0094452D01*
X0233582Y0094489D02*
X0226977Y0094489D01*
X0226957Y0094527D02*
X0233602Y0094527D01*
X0233622Y0094565D02*
X0226937Y0094565D01*
X0226917Y0094603D02*
X0233642Y0094603D01*
X0233654Y0094641D02*
X0226905Y0094641D01*
X0226893Y0094679D02*
X0233666Y0094679D01*
X0233677Y0094717D02*
X0226882Y0094717D01*
X0226871Y0094755D02*
X0233689Y0094755D01*
X0233701Y0094792D02*
X0226859Y0094792D01*
X0226848Y0094830D02*
X0233712Y0094830D01*
X0233724Y0094868D02*
X0226837Y0094868D01*
X0226825Y0094906D02*
X0233736Y0094906D01*
X0233747Y0094944D02*
X0226814Y0094944D01*
X0226803Y0094982D02*
X0233759Y0094982D01*
X0233771Y0095020D02*
X0226791Y0095020D01*
X0226782Y0095058D02*
X0233780Y0095058D01*
X0233784Y0095095D02*
X0226778Y0095095D01*
X0226775Y0095133D02*
X0233788Y0095133D01*
X0233791Y0095171D02*
X0226771Y0095171D01*
X0226768Y0095209D02*
X0233795Y0095209D01*
X0233799Y0095247D02*
X0226764Y0095247D01*
X0226760Y0095285D02*
X0233803Y0095285D01*
X0233807Y0095323D02*
X0226757Y0095323D01*
X0226753Y0095361D02*
X0233811Y0095361D01*
X0233815Y0095399D02*
X0226750Y0095399D01*
X0226746Y0095436D02*
X0233819Y0095436D01*
X0233823Y0095474D02*
X0226743Y0095474D01*
X0226740Y0095512D02*
X0233826Y0095512D01*
X0233821Y0095550D02*
X0226744Y0095550D01*
X0226748Y0095588D02*
X0233817Y0095588D01*
X0233812Y0095626D02*
X0226752Y0095626D01*
X0226756Y0095664D02*
X0233808Y0095664D01*
X0233803Y0095702D02*
X0226760Y0095702D01*
X0226765Y0095739D02*
X0233799Y0095739D01*
X0233795Y0095777D02*
X0226769Y0095777D01*
X0226773Y0095815D02*
X0233790Y0095815D01*
X0233786Y0095853D02*
X0226777Y0095853D01*
X0226781Y0095891D02*
X0233781Y0095891D01*
X0233777Y0095929D02*
X0226785Y0095929D01*
X0226789Y0095967D02*
X0233772Y0095967D01*
X0233768Y0096005D02*
X0226793Y0096005D01*
X0226800Y0096043D02*
X0233762Y0096043D01*
X0233748Y0096080D02*
X0226813Y0096080D01*
X0226826Y0096118D02*
X0233735Y0096118D01*
X0233722Y0096156D02*
X0226839Y0096156D01*
X0226852Y0096194D02*
X0233708Y0096194D01*
X0233695Y0096232D02*
X0226865Y0096232D01*
X0226878Y0096270D02*
X0233681Y0096270D01*
X0233668Y0096308D02*
X0226892Y0096308D01*
X0226905Y0096346D02*
X0233654Y0096346D01*
X0233641Y0096383D02*
X0226918Y0096383D01*
X0226931Y0096421D02*
X0233628Y0096421D01*
X0233614Y0096459D02*
X0226944Y0096459D01*
X0226957Y0096497D02*
X0233601Y0096497D01*
X0233587Y0096535D02*
X0226972Y0096535D01*
X0226995Y0096573D02*
X0233564Y0096573D01*
X0233540Y0096611D02*
X0227019Y0096611D01*
X0227042Y0096649D02*
X0233516Y0096649D01*
X0233491Y0096687D02*
X0227066Y0096687D01*
X0227089Y0096724D02*
X0233467Y0096724D01*
X0233443Y0096762D02*
X0227113Y0096762D01*
X0227137Y0096800D02*
X0233419Y0096800D01*
X0233395Y0096838D02*
X0227160Y0096838D01*
X0227184Y0096876D02*
X0233371Y0096876D01*
X0233347Y0096914D02*
X0227207Y0096914D01*
X0227231Y0096952D02*
X0233323Y0096952D01*
X0233297Y0096990D02*
X0227259Y0096990D01*
X0227297Y0097027D02*
X0233259Y0097027D01*
X0233221Y0097065D02*
X0227334Y0097065D01*
X0227372Y0097103D02*
X0233183Y0097103D01*
X0233145Y0097141D02*
X0227410Y0097141D01*
X0227447Y0097179D02*
X0233106Y0097179D01*
X0233068Y0097217D02*
X0227485Y0097217D01*
X0227522Y0097255D02*
X0233030Y0097255D01*
X0232992Y0097293D02*
X0227560Y0097293D01*
X0227597Y0097330D02*
X0232954Y0097330D01*
X0232910Y0097368D02*
X0227645Y0097368D01*
X0227705Y0097406D02*
X0232849Y0097406D01*
X0232788Y0097444D02*
X0227765Y0097444D01*
X0227824Y0097482D02*
X0232727Y0097482D01*
X0232666Y0097520D02*
X0227884Y0097520D01*
X0227944Y0097558D02*
X0232605Y0097558D01*
X0232545Y0097596D02*
X0228004Y0097596D01*
X0228064Y0097634D02*
X0232484Y0097634D01*
X0232382Y0097671D02*
X0228171Y0097671D01*
X0228278Y0097709D02*
X0232272Y0097709D01*
X0232162Y0097747D02*
X0228385Y0097747D01*
X0228492Y0097785D02*
X0232053Y0097785D01*
X0231879Y0097823D02*
X0228679Y0097823D01*
X0229003Y0097861D02*
X0231529Y0097861D01*
X0242244Y0096012D02*
X0242388Y0096497D01*
X0251073Y0096497D01*
X0251055Y0096535D02*
X0242410Y0096535D01*
X0242431Y0096573D02*
X0251036Y0096573D01*
X0251018Y0096611D02*
X0242452Y0096611D01*
X0242474Y0096649D02*
X0251000Y0096649D01*
X0250981Y0096687D02*
X0242495Y0096687D01*
X0242516Y0096724D02*
X0250963Y0096724D01*
X0250945Y0096762D02*
X0242538Y0096762D01*
X0242559Y0096800D02*
X0250922Y0096800D01*
X0250933Y0096786D02*
X0251128Y0096385D01*
X0251241Y0095953D01*
X0251267Y0095508D01*
X0251241Y0095063D01*
X0251128Y0094631D01*
X0250933Y0094230D01*
X0250664Y0093874D01*
X0250330Y0093578D01*
X0249945Y0093353D01*
X0249524Y0093207D01*
X0249082Y0093146D01*
X0244358Y0093146D01*
X0243859Y0093226D01*
X0243390Y0093416D01*
X0242976Y0093705D01*
X0242636Y0094079D01*
X0242388Y0094519D01*
X0242244Y0095004D01*
X0242212Y0095508D01*
X0242244Y0096012D01*
X0242244Y0096005D02*
X0251227Y0096005D01*
X0251217Y0096043D02*
X0242253Y0096043D01*
X0242265Y0096080D02*
X0251207Y0096080D01*
X0251197Y0096118D02*
X0242276Y0096118D01*
X0242287Y0096156D02*
X0251188Y0096156D01*
X0251178Y0096194D02*
X0242298Y0096194D01*
X0242310Y0096232D02*
X0251168Y0096232D01*
X0251158Y0096270D02*
X0242321Y0096270D01*
X0242332Y0096308D02*
X0251148Y0096308D01*
X0251138Y0096346D02*
X0242343Y0096346D01*
X0242355Y0096383D02*
X0251128Y0096383D01*
X0251110Y0096421D02*
X0242366Y0096421D01*
X0242377Y0096459D02*
X0251092Y0096459D01*
X0250933Y0096786D02*
X0250664Y0097142D01*
X0250330Y0097438D01*
X0249945Y0097663D01*
X0249524Y0097809D01*
X0249082Y0097870D01*
X0244358Y0097870D01*
X0243859Y0097789D01*
X0243390Y0097600D01*
X0242976Y0097311D01*
X0242636Y0096937D01*
X0242388Y0096497D01*
X0242580Y0096838D02*
X0250894Y0096838D01*
X0250865Y0096876D02*
X0242602Y0096876D01*
X0242623Y0096914D02*
X0250836Y0096914D01*
X0250808Y0096952D02*
X0242650Y0096952D01*
X0242684Y0096990D02*
X0250779Y0096990D01*
X0250750Y0097027D02*
X0242718Y0097027D01*
X0242753Y0097065D02*
X0250721Y0097065D01*
X0250693Y0097103D02*
X0242787Y0097103D01*
X0242822Y0097141D02*
X0250664Y0097141D01*
X0250622Y0097179D02*
X0242856Y0097179D01*
X0242891Y0097217D02*
X0250579Y0097217D01*
X0250536Y0097255D02*
X0242925Y0097255D01*
X0242959Y0097293D02*
X0250494Y0097293D01*
X0250451Y0097330D02*
X0243004Y0097330D01*
X0243058Y0097368D02*
X0250408Y0097368D01*
X0250366Y0097406D02*
X0243113Y0097406D01*
X0243167Y0097444D02*
X0250319Y0097444D01*
X0250254Y0097482D02*
X0243221Y0097482D01*
X0243276Y0097520D02*
X0250190Y0097520D01*
X0250125Y0097558D02*
X0243330Y0097558D01*
X0243384Y0097596D02*
X0250060Y0097596D01*
X0249996Y0097634D02*
X0243473Y0097634D01*
X0243567Y0097671D02*
X0249921Y0097671D01*
X0249812Y0097709D02*
X0243661Y0097709D01*
X0243754Y0097747D02*
X0249703Y0097747D01*
X0249593Y0097785D02*
X0243848Y0097785D01*
X0244066Y0097823D02*
X0249423Y0097823D01*
X0249149Y0097861D02*
X0244300Y0097861D01*
X0242241Y0095967D02*
X0251237Y0095967D01*
X0251242Y0095929D02*
X0242239Y0095929D01*
X0242237Y0095891D02*
X0251244Y0095891D01*
X0251247Y0095853D02*
X0242234Y0095853D01*
X0242232Y0095815D02*
X0251249Y0095815D01*
X0251251Y0095777D02*
X0242229Y0095777D01*
X0242227Y0095739D02*
X0251253Y0095739D01*
X0251256Y0095702D02*
X0242224Y0095702D01*
X0242222Y0095664D02*
X0251258Y0095664D01*
X0251260Y0095626D02*
X0242219Y0095626D01*
X0242217Y0095588D02*
X0251262Y0095588D01*
X0251264Y0095550D02*
X0242215Y0095550D01*
X0242212Y0095512D02*
X0251267Y0095512D01*
X0251265Y0095474D02*
X0242214Y0095474D01*
X0242216Y0095436D02*
X0251263Y0095436D01*
X0251261Y0095399D02*
X0242219Y0095399D01*
X0242221Y0095361D02*
X0251258Y0095361D01*
X0251256Y0095323D02*
X0242224Y0095323D01*
X0242226Y0095285D02*
X0251254Y0095285D01*
X0251252Y0095247D02*
X0242229Y0095247D01*
X0242231Y0095209D02*
X0251249Y0095209D01*
X0251247Y0095171D02*
X0242234Y0095171D01*
X0242236Y0095133D02*
X0251245Y0095133D01*
X0251243Y0095095D02*
X0242238Y0095095D01*
X0242241Y0095058D02*
X0251239Y0095058D01*
X0251229Y0095020D02*
X0242243Y0095020D01*
X0242251Y0094982D02*
X0251220Y0094982D01*
X0251210Y0094944D02*
X0242262Y0094944D01*
X0242273Y0094906D02*
X0251200Y0094906D01*
X0251190Y0094868D02*
X0242285Y0094868D01*
X0242296Y0094830D02*
X0251180Y0094830D01*
X0251170Y0094792D02*
X0242307Y0094792D01*
X0242318Y0094755D02*
X0251160Y0094755D01*
X0251150Y0094717D02*
X0242329Y0094717D01*
X0242341Y0094679D02*
X0251140Y0094679D01*
X0251130Y0094641D02*
X0242352Y0094641D01*
X0242363Y0094603D02*
X0251114Y0094603D01*
X0251096Y0094565D02*
X0242374Y0094565D01*
X0242386Y0094527D02*
X0251077Y0094527D01*
X0251059Y0094489D02*
X0242405Y0094489D01*
X0242426Y0094452D02*
X0251041Y0094452D01*
X0251022Y0094414D02*
X0242448Y0094414D01*
X0242469Y0094376D02*
X0251004Y0094376D01*
X0250986Y0094338D02*
X0242490Y0094338D01*
X0242512Y0094300D02*
X0250967Y0094300D01*
X0250949Y0094262D02*
X0242533Y0094262D01*
X0242554Y0094224D02*
X0250929Y0094224D01*
X0250900Y0094186D02*
X0242576Y0094186D01*
X0242597Y0094148D02*
X0250871Y0094148D01*
X0250843Y0094111D02*
X0242618Y0094111D01*
X0242642Y0094073D02*
X0250814Y0094073D01*
X0250785Y0094035D02*
X0242676Y0094035D01*
X0242711Y0093997D02*
X0250757Y0093997D01*
X0250728Y0093959D02*
X0242745Y0093959D01*
X0242779Y0093921D02*
X0250699Y0093921D01*
X0250671Y0093883D02*
X0242814Y0093883D01*
X0242848Y0093845D02*
X0250631Y0093845D01*
X0250589Y0093808D02*
X0242883Y0093808D01*
X0242917Y0093770D02*
X0250546Y0093770D01*
X0250503Y0093732D02*
X0242951Y0093732D01*
X0242992Y0093694D02*
X0250461Y0093694D01*
X0250418Y0093656D02*
X0243046Y0093656D01*
X0243100Y0093618D02*
X0250375Y0093618D01*
X0250333Y0093580D02*
X0243155Y0093580D01*
X0243209Y0093542D02*
X0250269Y0093542D01*
X0250205Y0093504D02*
X0243263Y0093504D01*
X0243318Y0093467D02*
X0250140Y0093467D01*
X0250075Y0093429D02*
X0243372Y0093429D01*
X0243452Y0093391D02*
X0250011Y0093391D01*
X0249946Y0093353D02*
X0243546Y0093353D01*
X0243639Y0093315D02*
X0249837Y0093315D01*
X0249727Y0093277D02*
X0243733Y0093277D01*
X0243827Y0093239D02*
X0249618Y0093239D01*
X0249486Y0093201D02*
X0244012Y0093201D01*
X0244247Y0093164D02*
X0249212Y0093164D01*
X0069267Y0095508D02*
X0069241Y0095063D01*
X0069128Y0094631D01*
X0068933Y0094230D01*
X0068664Y0093874D01*
X0068330Y0093578D01*
X0067945Y0093353D01*
X0067524Y0093207D01*
X0067082Y0093146D01*
X0062358Y0093146D01*
X0061859Y0093226D01*
X0061390Y0093416D01*
X0060976Y0093705D01*
X0060636Y0094079D01*
X0060388Y0094519D01*
X0060244Y0095004D01*
X0060212Y0095508D01*
X0060244Y0096012D01*
X0060388Y0096497D01*
X0069073Y0096497D01*
X0069055Y0096535D02*
X0060410Y0096535D01*
X0060431Y0096573D02*
X0069036Y0096573D01*
X0069018Y0096611D02*
X0060452Y0096611D01*
X0060474Y0096649D02*
X0069000Y0096649D01*
X0068981Y0096687D02*
X0060495Y0096687D01*
X0060516Y0096724D02*
X0068963Y0096724D01*
X0068945Y0096762D02*
X0060538Y0096762D01*
X0060559Y0096800D02*
X0068922Y0096800D01*
X0068933Y0096786D02*
X0069128Y0096385D01*
X0069241Y0095953D01*
X0069267Y0095508D01*
X0069267Y0095512D02*
X0060212Y0095512D01*
X0060214Y0095474D02*
X0069265Y0095474D01*
X0069263Y0095436D02*
X0060216Y0095436D01*
X0060219Y0095399D02*
X0069261Y0095399D01*
X0069258Y0095361D02*
X0060221Y0095361D01*
X0060224Y0095323D02*
X0069256Y0095323D01*
X0069254Y0095285D02*
X0060226Y0095285D01*
X0060229Y0095247D02*
X0069252Y0095247D01*
X0069249Y0095209D02*
X0060231Y0095209D01*
X0060234Y0095171D02*
X0069247Y0095171D01*
X0069245Y0095133D02*
X0060236Y0095133D01*
X0060238Y0095095D02*
X0069243Y0095095D01*
X0069239Y0095058D02*
X0060241Y0095058D01*
X0060243Y0095020D02*
X0069229Y0095020D01*
X0069220Y0094982D02*
X0060251Y0094982D01*
X0060262Y0094944D02*
X0069210Y0094944D01*
X0069200Y0094906D02*
X0060273Y0094906D01*
X0060285Y0094868D02*
X0069190Y0094868D01*
X0069180Y0094830D02*
X0060296Y0094830D01*
X0060307Y0094792D02*
X0069170Y0094792D01*
X0069160Y0094755D02*
X0060318Y0094755D01*
X0060329Y0094717D02*
X0069150Y0094717D01*
X0069140Y0094679D02*
X0060341Y0094679D01*
X0060352Y0094641D02*
X0069130Y0094641D01*
X0069114Y0094603D02*
X0060363Y0094603D01*
X0060374Y0094565D02*
X0069096Y0094565D01*
X0069077Y0094527D02*
X0060386Y0094527D01*
X0060405Y0094489D02*
X0069059Y0094489D01*
X0069041Y0094452D02*
X0060426Y0094452D01*
X0060448Y0094414D02*
X0069022Y0094414D01*
X0069004Y0094376D02*
X0060469Y0094376D01*
X0060490Y0094338D02*
X0068986Y0094338D01*
X0068967Y0094300D02*
X0060512Y0094300D01*
X0060533Y0094262D02*
X0068949Y0094262D01*
X0068929Y0094224D02*
X0060554Y0094224D01*
X0060576Y0094186D02*
X0068900Y0094186D01*
X0068871Y0094148D02*
X0060597Y0094148D01*
X0060618Y0094111D02*
X0068843Y0094111D01*
X0068814Y0094073D02*
X0060642Y0094073D01*
X0060676Y0094035D02*
X0068785Y0094035D01*
X0068757Y0093997D02*
X0060711Y0093997D01*
X0060745Y0093959D02*
X0068728Y0093959D01*
X0068699Y0093921D02*
X0060779Y0093921D01*
X0060814Y0093883D02*
X0068671Y0093883D01*
X0068631Y0093845D02*
X0060848Y0093845D01*
X0060883Y0093808D02*
X0068589Y0093808D01*
X0068546Y0093770D02*
X0060917Y0093770D01*
X0060951Y0093732D02*
X0068503Y0093732D01*
X0068461Y0093694D02*
X0060992Y0093694D01*
X0061046Y0093656D02*
X0068418Y0093656D01*
X0068375Y0093618D02*
X0061100Y0093618D01*
X0061155Y0093580D02*
X0068333Y0093580D01*
X0068269Y0093542D02*
X0061209Y0093542D01*
X0061263Y0093504D02*
X0068205Y0093504D01*
X0068140Y0093467D02*
X0061318Y0093467D01*
X0061372Y0093429D02*
X0068075Y0093429D01*
X0068011Y0093391D02*
X0061452Y0093391D01*
X0061546Y0093353D02*
X0067946Y0093353D01*
X0067837Y0093315D02*
X0061639Y0093315D01*
X0061733Y0093277D02*
X0067727Y0093277D01*
X0067618Y0093239D02*
X0061827Y0093239D01*
X0062012Y0093201D02*
X0067486Y0093201D01*
X0067212Y0093164D02*
X0062247Y0093164D01*
X0060215Y0095550D02*
X0069264Y0095550D01*
X0069262Y0095588D02*
X0060217Y0095588D01*
X0060219Y0095626D02*
X0069260Y0095626D01*
X0069258Y0095664D02*
X0060222Y0095664D01*
X0060224Y0095702D02*
X0069256Y0095702D01*
X0069253Y0095739D02*
X0060227Y0095739D01*
X0060229Y0095777D02*
X0069251Y0095777D01*
X0069249Y0095815D02*
X0060232Y0095815D01*
X0060234Y0095853D02*
X0069247Y0095853D01*
X0069244Y0095891D02*
X0060237Y0095891D01*
X0060239Y0095929D02*
X0069242Y0095929D01*
X0069237Y0095967D02*
X0060241Y0095967D01*
X0060244Y0096005D02*
X0069227Y0096005D01*
X0069217Y0096043D02*
X0060253Y0096043D01*
X0060265Y0096080D02*
X0069207Y0096080D01*
X0069197Y0096118D02*
X0060276Y0096118D01*
X0060287Y0096156D02*
X0069188Y0096156D01*
X0069178Y0096194D02*
X0060298Y0096194D01*
X0060310Y0096232D02*
X0069168Y0096232D01*
X0069158Y0096270D02*
X0060321Y0096270D01*
X0060332Y0096308D02*
X0069148Y0096308D01*
X0069138Y0096346D02*
X0060343Y0096346D01*
X0060355Y0096383D02*
X0069128Y0096383D01*
X0069110Y0096421D02*
X0060366Y0096421D01*
X0060377Y0096459D02*
X0069092Y0096459D01*
X0068933Y0096786D02*
X0068664Y0097142D01*
X0068330Y0097438D01*
X0067945Y0097663D01*
X0067524Y0097809D01*
X0067082Y0097870D01*
X0062358Y0097870D01*
X0061859Y0097789D01*
X0061390Y0097600D01*
X0060976Y0097311D01*
X0060636Y0096937D01*
X0060388Y0096497D01*
X0060580Y0096838D02*
X0068894Y0096838D01*
X0068865Y0096876D02*
X0060602Y0096876D01*
X0060623Y0096914D02*
X0068836Y0096914D01*
X0068808Y0096952D02*
X0060650Y0096952D01*
X0060684Y0096990D02*
X0068779Y0096990D01*
X0068750Y0097027D02*
X0060718Y0097027D01*
X0060753Y0097065D02*
X0068721Y0097065D01*
X0068693Y0097103D02*
X0060787Y0097103D01*
X0060822Y0097141D02*
X0068664Y0097141D01*
X0068622Y0097179D02*
X0060856Y0097179D01*
X0060891Y0097217D02*
X0068579Y0097217D01*
X0068536Y0097255D02*
X0060925Y0097255D01*
X0060959Y0097293D02*
X0068494Y0097293D01*
X0068451Y0097330D02*
X0061004Y0097330D01*
X0061058Y0097368D02*
X0068408Y0097368D01*
X0068366Y0097406D02*
X0061113Y0097406D01*
X0061167Y0097444D02*
X0068319Y0097444D01*
X0068254Y0097482D02*
X0061221Y0097482D01*
X0061276Y0097520D02*
X0068190Y0097520D01*
X0068125Y0097558D02*
X0061330Y0097558D01*
X0061384Y0097596D02*
X0068060Y0097596D01*
X0067996Y0097634D02*
X0061473Y0097634D01*
X0061567Y0097671D02*
X0067921Y0097671D01*
X0067812Y0097709D02*
X0061661Y0097709D01*
X0061754Y0097747D02*
X0067703Y0097747D01*
X0067593Y0097785D02*
X0061848Y0097785D01*
X0062066Y0097823D02*
X0067423Y0097823D01*
X0067149Y0097861D02*
X0062300Y0097861D01*
X0051764Y0096035D02*
X0051826Y0095508D01*
X0051779Y0095045D01*
X0051642Y0094601D01*
X0051421Y0094192D01*
X0051124Y0093833D01*
X0050764Y0093540D01*
X0050353Y0093322D01*
X0049907Y0093189D01*
X0049444Y0093146D01*
X0047082Y0093146D01*
X0046623Y0093193D01*
X0046183Y0093328D01*
X0045777Y0093548D01*
X0045421Y0093842D01*
X0045130Y0094199D01*
X0044915Y0094607D01*
X0044783Y0095049D01*
X0044739Y0095508D01*
X0044796Y0096032D01*
X0044968Y0096530D01*
X0045247Y0096977D01*
X0045617Y0097351D01*
X0046062Y0097633D01*
X0046559Y0097809D01*
X0047082Y0097870D01*
X0049444Y0097870D01*
X0049972Y0097813D01*
X0050474Y0097639D01*
X0050925Y0097359D01*
X0051302Y0096985D01*
X0051587Y0096536D01*
X0051764Y0096035D01*
X0051762Y0096043D02*
X0044800Y0096043D01*
X0044793Y0096005D02*
X0051768Y0096005D01*
X0051772Y0095967D02*
X0044789Y0095967D01*
X0044785Y0095929D02*
X0051777Y0095929D01*
X0051781Y0095891D02*
X0044781Y0095891D01*
X0044777Y0095853D02*
X0051786Y0095853D01*
X0051790Y0095815D02*
X0044773Y0095815D01*
X0044769Y0095777D02*
X0051795Y0095777D01*
X0051799Y0095739D02*
X0044765Y0095739D01*
X0044760Y0095702D02*
X0051803Y0095702D01*
X0051808Y0095664D02*
X0044756Y0095664D01*
X0044752Y0095626D02*
X0051812Y0095626D01*
X0051817Y0095588D02*
X0044748Y0095588D01*
X0044744Y0095550D02*
X0051821Y0095550D01*
X0051826Y0095512D02*
X0044740Y0095512D01*
X0044743Y0095474D02*
X0051823Y0095474D01*
X0051819Y0095436D02*
X0044746Y0095436D01*
X0044750Y0095399D02*
X0051815Y0095399D01*
X0051811Y0095361D02*
X0044753Y0095361D01*
X0044757Y0095323D02*
X0051807Y0095323D01*
X0051803Y0095285D02*
X0044760Y0095285D01*
X0044764Y0095247D02*
X0051799Y0095247D01*
X0051795Y0095209D02*
X0044768Y0095209D01*
X0044771Y0095171D02*
X0051791Y0095171D01*
X0051788Y0095133D02*
X0044775Y0095133D01*
X0044778Y0095095D02*
X0051784Y0095095D01*
X0051780Y0095058D02*
X0044782Y0095058D01*
X0044791Y0095020D02*
X0051771Y0095020D01*
X0051759Y0094982D02*
X0044803Y0094982D01*
X0044814Y0094944D02*
X0051747Y0094944D01*
X0051736Y0094906D02*
X0044825Y0094906D01*
X0044837Y0094868D02*
X0051724Y0094868D01*
X0051712Y0094830D02*
X0044848Y0094830D01*
X0044859Y0094792D02*
X0051701Y0094792D01*
X0051689Y0094755D02*
X0044871Y0094755D01*
X0044882Y0094717D02*
X0051677Y0094717D01*
X0051666Y0094679D02*
X0044893Y0094679D01*
X0044905Y0094641D02*
X0051654Y0094641D01*
X0051642Y0094603D02*
X0044917Y0094603D01*
X0044937Y0094565D02*
X0051622Y0094565D01*
X0051602Y0094527D02*
X0044957Y0094527D01*
X0044977Y0094489D02*
X0051582Y0094489D01*
X0051561Y0094452D02*
X0044997Y0094452D01*
X0045017Y0094414D02*
X0051541Y0094414D01*
X0051520Y0094376D02*
X0045037Y0094376D01*
X0045057Y0094338D02*
X0051500Y0094338D01*
X0051479Y0094300D02*
X0045077Y0094300D01*
X0045097Y0094262D02*
X0051459Y0094262D01*
X0051438Y0094224D02*
X0045117Y0094224D01*
X0045141Y0094186D02*
X0051416Y0094186D01*
X0051385Y0094148D02*
X0045172Y0094148D01*
X0045203Y0094111D02*
X0051354Y0094111D01*
X0051322Y0094073D02*
X0045233Y0094073D01*
X0045264Y0094035D02*
X0051291Y0094035D01*
X0051260Y0093997D02*
X0045295Y0093997D01*
X0045326Y0093959D02*
X0051228Y0093959D01*
X0051197Y0093921D02*
X0045357Y0093921D01*
X0045388Y0093883D02*
X0051166Y0093883D01*
X0051134Y0093845D02*
X0045418Y0093845D01*
X0045463Y0093808D02*
X0051092Y0093808D01*
X0051046Y0093770D02*
X0045508Y0093770D01*
X0045554Y0093732D02*
X0050999Y0093732D01*
X0050953Y0093694D02*
X0045600Y0093694D01*
X0045646Y0093656D02*
X0050906Y0093656D01*
X0050860Y0093618D02*
X0045691Y0093618D01*
X0045737Y0093580D02*
X0050813Y0093580D01*
X0050767Y0093542D02*
X0045786Y0093542D01*
X0045857Y0093504D02*
X0050697Y0093504D01*
X0050625Y0093467D02*
X0045927Y0093467D01*
X0045997Y0093429D02*
X0050553Y0093429D01*
X0050482Y0093391D02*
X0046067Y0093391D01*
X0046137Y0093353D02*
X0050410Y0093353D01*
X0050328Y0093315D02*
X0046226Y0093315D01*
X0046349Y0093277D02*
X0050201Y0093277D01*
X0050074Y0093239D02*
X0046472Y0093239D01*
X0046595Y0093201D02*
X0049948Y0093201D01*
X0049634Y0093164D02*
X0046908Y0093164D01*
X0044813Y0096080D02*
X0051748Y0096080D01*
X0051735Y0096118D02*
X0044826Y0096118D01*
X0044839Y0096156D02*
X0051722Y0096156D01*
X0051708Y0096194D02*
X0044852Y0096194D01*
X0044865Y0096232D02*
X0051695Y0096232D01*
X0051681Y0096270D02*
X0044878Y0096270D01*
X0044892Y0096308D02*
X0051668Y0096308D01*
X0051654Y0096346D02*
X0044905Y0096346D01*
X0044918Y0096383D02*
X0051641Y0096383D01*
X0051628Y0096421D02*
X0044931Y0096421D01*
X0044944Y0096459D02*
X0051614Y0096459D01*
X0051601Y0096497D02*
X0044957Y0096497D01*
X0044972Y0096535D02*
X0051587Y0096535D01*
X0051564Y0096573D02*
X0044995Y0096573D01*
X0045019Y0096611D02*
X0051540Y0096611D01*
X0051516Y0096649D02*
X0045042Y0096649D01*
X0045066Y0096687D02*
X0051491Y0096687D01*
X0051467Y0096724D02*
X0045089Y0096724D01*
X0045113Y0096762D02*
X0051443Y0096762D01*
X0051419Y0096800D02*
X0045137Y0096800D01*
X0045160Y0096838D02*
X0051395Y0096838D01*
X0051371Y0096876D02*
X0045184Y0096876D01*
X0045207Y0096914D02*
X0051347Y0096914D01*
X0051323Y0096952D02*
X0045231Y0096952D01*
X0045259Y0096990D02*
X0051297Y0096990D01*
X0051259Y0097027D02*
X0045297Y0097027D01*
X0045334Y0097065D02*
X0051221Y0097065D01*
X0051183Y0097103D02*
X0045372Y0097103D01*
X0045410Y0097141D02*
X0051145Y0097141D01*
X0051106Y0097179D02*
X0045447Y0097179D01*
X0045485Y0097217D02*
X0051068Y0097217D01*
X0051030Y0097255D02*
X0045522Y0097255D01*
X0045560Y0097293D02*
X0050992Y0097293D01*
X0050954Y0097330D02*
X0045597Y0097330D01*
X0045645Y0097368D02*
X0050910Y0097368D01*
X0050849Y0097406D02*
X0045705Y0097406D01*
X0045765Y0097444D02*
X0050788Y0097444D01*
X0050727Y0097482D02*
X0045824Y0097482D01*
X0045884Y0097520D02*
X0050666Y0097520D01*
X0050605Y0097558D02*
X0045944Y0097558D01*
X0046004Y0097596D02*
X0050545Y0097596D01*
X0050484Y0097634D02*
X0046064Y0097634D01*
X0046171Y0097671D02*
X0050382Y0097671D01*
X0050272Y0097709D02*
X0046278Y0097709D01*
X0046385Y0097747D02*
X0050162Y0097747D01*
X0050053Y0097785D02*
X0046492Y0097785D01*
X0046679Y0097823D02*
X0049879Y0097823D01*
X0049529Y0097861D02*
X0047003Y0097861D01*
X0047082Y0063854D02*
X0046559Y0063793D01*
X0046062Y0063617D01*
X0045617Y0063335D01*
X0045247Y0062961D01*
X0044968Y0062514D01*
X0044796Y0062016D01*
X0044739Y0061492D01*
X0044783Y0061033D01*
X0044915Y0060591D01*
X0045130Y0060184D01*
X0045421Y0059826D01*
X0045777Y0059532D01*
X0046183Y0059313D01*
X0046623Y0059177D01*
X0047082Y0059130D01*
X0049444Y0059130D01*
X0049907Y0059174D01*
X0050353Y0059307D01*
X0050764Y0059524D01*
X0051124Y0059818D01*
X0051421Y0060176D01*
X0051642Y0060585D01*
X0051779Y0061030D01*
X0051826Y0061492D01*
X0051764Y0062020D01*
X0051587Y0062520D01*
X0051302Y0062969D01*
X0050925Y0063343D01*
X0050474Y0063624D01*
X0049972Y0063797D01*
X0049444Y0063854D01*
X0047082Y0063854D01*
X0046988Y0063843D02*
X0049545Y0063843D01*
X0049895Y0063805D02*
X0046664Y0063805D01*
X0046487Y0063768D02*
X0050058Y0063768D01*
X0050167Y0063730D02*
X0046380Y0063730D01*
X0046273Y0063692D02*
X0050277Y0063692D01*
X0050387Y0063654D02*
X0046166Y0063654D01*
X0046061Y0063616D02*
X0050487Y0063616D01*
X0050547Y0063578D02*
X0046001Y0063578D01*
X0045941Y0063540D02*
X0050608Y0063540D01*
X0050669Y0063502D02*
X0045881Y0063502D01*
X0045822Y0063465D02*
X0050730Y0063465D01*
X0050791Y0063427D02*
X0045762Y0063427D01*
X0045702Y0063389D02*
X0050852Y0063389D01*
X0050913Y0063351D02*
X0045643Y0063351D01*
X0045596Y0063313D02*
X0050955Y0063313D01*
X0050994Y0063275D02*
X0045558Y0063275D01*
X0045521Y0063237D02*
X0051032Y0063237D01*
X0051070Y0063199D02*
X0045483Y0063199D01*
X0045445Y0063161D02*
X0051108Y0063161D01*
X0051146Y0063124D02*
X0045408Y0063124D01*
X0045370Y0063086D02*
X0051185Y0063086D01*
X0051223Y0063048D02*
X0045333Y0063048D01*
X0045295Y0063010D02*
X0051261Y0063010D01*
X0051299Y0062972D02*
X0045258Y0062972D01*
X0045230Y0062934D02*
X0051324Y0062934D01*
X0051348Y0062896D02*
X0045206Y0062896D01*
X0045183Y0062858D02*
X0051372Y0062858D01*
X0051397Y0062821D02*
X0045159Y0062821D01*
X0045136Y0062783D02*
X0051421Y0062783D01*
X0051445Y0062745D02*
X0045112Y0062745D01*
X0045088Y0062707D02*
X0051469Y0062707D01*
X0051493Y0062669D02*
X0045065Y0062669D01*
X0045041Y0062631D02*
X0051517Y0062631D01*
X0051541Y0062593D02*
X0045018Y0062593D01*
X0044994Y0062555D02*
X0051565Y0062555D01*
X0051588Y0062517D02*
X0044970Y0062517D01*
X0044956Y0062480D02*
X0051601Y0062480D01*
X0051615Y0062442D02*
X0044943Y0062442D01*
X0044930Y0062404D02*
X0051628Y0062404D01*
X0051642Y0062366D02*
X0044917Y0062366D01*
X0044904Y0062328D02*
X0051655Y0062328D01*
X0051668Y0062290D02*
X0044891Y0062290D01*
X0044878Y0062252D02*
X0051682Y0062252D01*
X0051695Y0062214D02*
X0044865Y0062214D01*
X0044852Y0062177D02*
X0051709Y0062177D01*
X0051722Y0062139D02*
X0044839Y0062139D01*
X0044826Y0062101D02*
X0051736Y0062101D01*
X0051749Y0062063D02*
X0044812Y0062063D01*
X0044799Y0062025D02*
X0051762Y0062025D01*
X0051768Y0061987D02*
X0044793Y0061987D01*
X0044789Y0061949D02*
X0051773Y0061949D01*
X0051777Y0061911D02*
X0044785Y0061911D01*
X0044781Y0061874D02*
X0051781Y0061874D01*
X0051786Y0061836D02*
X0044777Y0061836D01*
X0044773Y0061798D02*
X0051790Y0061798D01*
X0051795Y0061760D02*
X0044768Y0061760D01*
X0044764Y0061722D02*
X0051799Y0061722D01*
X0051804Y0061684D02*
X0044760Y0061684D01*
X0044756Y0061646D02*
X0051808Y0061646D01*
X0051812Y0061608D02*
X0044752Y0061608D01*
X0044748Y0061570D02*
X0051817Y0061570D01*
X0051821Y0061533D02*
X0044744Y0061533D01*
X0044740Y0061495D02*
X0051826Y0061495D01*
X0051822Y0061457D02*
X0044743Y0061457D01*
X0044746Y0061419D02*
X0051819Y0061419D01*
X0051815Y0061381D02*
X0044750Y0061381D01*
X0044753Y0061343D02*
X0051811Y0061343D01*
X0051807Y0061305D02*
X0044757Y0061305D01*
X0044761Y0061267D02*
X0051803Y0061267D01*
X0051799Y0061230D02*
X0044764Y0061230D01*
X0044768Y0061192D02*
X0051795Y0061192D01*
X0051791Y0061154D02*
X0044771Y0061154D01*
X0044775Y0061116D02*
X0051787Y0061116D01*
X0051784Y0061078D02*
X0044778Y0061078D01*
X0044782Y0061040D02*
X0051780Y0061040D01*
X0051770Y0061002D02*
X0044792Y0061002D01*
X0044803Y0060964D02*
X0051758Y0060964D01*
X0051747Y0060926D02*
X0044815Y0060926D01*
X0044826Y0060889D02*
X0051735Y0060889D01*
X0051723Y0060851D02*
X0044837Y0060851D01*
X0044849Y0060813D02*
X0051712Y0060813D01*
X0051700Y0060775D02*
X0044860Y0060775D01*
X0044871Y0060737D02*
X0051689Y0060737D01*
X0051677Y0060699D02*
X0044882Y0060699D01*
X0044894Y0060661D02*
X0051665Y0060661D01*
X0051654Y0060623D02*
X0044905Y0060623D01*
X0044918Y0060586D02*
X0051642Y0060586D01*
X0051622Y0060548D02*
X0044938Y0060548D01*
X0044958Y0060510D02*
X0051601Y0060510D01*
X0051581Y0060472D02*
X0044978Y0060472D01*
X0044998Y0060434D02*
X0051560Y0060434D01*
X0051540Y0060396D02*
X0045018Y0060396D01*
X0045038Y0060358D02*
X0051519Y0060358D01*
X0051499Y0060320D02*
X0045058Y0060320D01*
X0045078Y0060282D02*
X0051478Y0060282D01*
X0051458Y0060245D02*
X0045098Y0060245D01*
X0045118Y0060207D02*
X0051437Y0060207D01*
X0051415Y0060169D02*
X0045142Y0060169D01*
X0045173Y0060131D02*
X0051384Y0060131D01*
X0051352Y0060093D02*
X0045204Y0060093D01*
X0045235Y0060055D02*
X0051321Y0060055D01*
X0051290Y0060017D02*
X0045266Y0060017D01*
X0045297Y0059979D02*
X0051258Y0059979D01*
X0051227Y0059942D02*
X0045327Y0059942D01*
X0045358Y0059904D02*
X0051195Y0059904D01*
X0051164Y0059866D02*
X0045389Y0059866D01*
X0045420Y0059828D02*
X0051133Y0059828D01*
X0051090Y0059790D02*
X0045465Y0059790D01*
X0045511Y0059752D02*
X0051044Y0059752D01*
X0050997Y0059714D02*
X0045556Y0059714D01*
X0045602Y0059676D02*
X0050951Y0059676D01*
X0050904Y0059639D02*
X0045648Y0059639D01*
X0045694Y0059601D02*
X0050858Y0059601D01*
X0050811Y0059563D02*
X0045739Y0059563D01*
X0045790Y0059525D02*
X0050764Y0059525D01*
X0050693Y0059487D02*
X0045860Y0059487D01*
X0045930Y0059449D02*
X0050622Y0059449D01*
X0050550Y0059411D02*
X0046000Y0059411D01*
X0046070Y0059373D02*
X0050479Y0059373D01*
X0050407Y0059335D02*
X0046140Y0059335D01*
X0046232Y0059298D02*
X0050322Y0059298D01*
X0050195Y0059260D02*
X0046355Y0059260D01*
X0046478Y0059222D02*
X0050069Y0059222D01*
X0049942Y0059184D02*
X0046601Y0059184D01*
X0046925Y0059146D02*
X0049615Y0059146D01*
X0060244Y0060988D02*
X0060212Y0061492D01*
X0060244Y0061996D01*
X0060388Y0062481D01*
X0060636Y0062921D01*
X0060976Y0063295D01*
X0061390Y0063584D01*
X0061859Y0063774D01*
X0062358Y0063854D01*
X0067082Y0063854D01*
X0067524Y0063793D01*
X0067945Y0063647D01*
X0068330Y0063422D01*
X0068664Y0063126D01*
X0068933Y0062770D01*
X0069128Y0062369D01*
X0069241Y0061937D01*
X0069267Y0061492D01*
X0069241Y0061047D01*
X0069128Y0060615D01*
X0068933Y0060214D01*
X0068664Y0059858D01*
X0068330Y0059562D01*
X0067945Y0059337D01*
X0067524Y0059191D01*
X0067082Y0059130D01*
X0062358Y0059130D01*
X0061859Y0059211D01*
X0061390Y0059400D01*
X0060976Y0059689D01*
X0060636Y0060063D01*
X0060388Y0060503D01*
X0060244Y0060988D01*
X0060243Y0061002D02*
X0069229Y0061002D01*
X0069219Y0060964D02*
X0060251Y0060964D01*
X0060263Y0060926D02*
X0069209Y0060926D01*
X0069199Y0060889D02*
X0060274Y0060889D01*
X0060285Y0060851D02*
X0069189Y0060851D01*
X0069179Y0060813D02*
X0060296Y0060813D01*
X0060308Y0060775D02*
X0069170Y0060775D01*
X0069160Y0060737D02*
X0060319Y0060737D01*
X0060330Y0060699D02*
X0069150Y0060699D01*
X0069140Y0060661D02*
X0060341Y0060661D01*
X0060353Y0060623D02*
X0069130Y0060623D01*
X0069113Y0060586D02*
X0060364Y0060586D01*
X0060375Y0060548D02*
X0069095Y0060548D01*
X0069077Y0060510D02*
X0060386Y0060510D01*
X0060406Y0060472D02*
X0069058Y0060472D01*
X0069040Y0060434D02*
X0060427Y0060434D01*
X0060449Y0060396D02*
X0069021Y0060396D01*
X0069003Y0060358D02*
X0060470Y0060358D01*
X0060491Y0060320D02*
X0068985Y0060320D01*
X0068966Y0060282D02*
X0060513Y0060282D01*
X0060534Y0060245D02*
X0068948Y0060245D01*
X0068928Y0060207D02*
X0060555Y0060207D01*
X0060577Y0060169D02*
X0068899Y0060169D01*
X0068870Y0060131D02*
X0060598Y0060131D01*
X0060619Y0060093D02*
X0068841Y0060093D01*
X0068813Y0060055D02*
X0060643Y0060055D01*
X0060678Y0060017D02*
X0068784Y0060017D01*
X0068755Y0059979D02*
X0060712Y0059979D01*
X0060747Y0059942D02*
X0068727Y0059942D01*
X0068698Y0059904D02*
X0060781Y0059904D01*
X0060815Y0059866D02*
X0068669Y0059866D01*
X0068629Y0059828D02*
X0060850Y0059828D01*
X0060884Y0059790D02*
X0068587Y0059790D01*
X0068544Y0059752D02*
X0060919Y0059752D01*
X0060953Y0059714D02*
X0068501Y0059714D01*
X0068459Y0059676D02*
X0060994Y0059676D01*
X0061049Y0059639D02*
X0068416Y0059639D01*
X0068373Y0059601D02*
X0061103Y0059601D01*
X0061157Y0059563D02*
X0068331Y0059563D01*
X0068266Y0059525D02*
X0061211Y0059525D01*
X0061266Y0059487D02*
X0068202Y0059487D01*
X0068137Y0059449D02*
X0061320Y0059449D01*
X0061374Y0059411D02*
X0068072Y0059411D01*
X0068008Y0059373D02*
X0061456Y0059373D01*
X0061550Y0059335D02*
X0067941Y0059335D01*
X0067832Y0059298D02*
X0061644Y0059298D01*
X0061737Y0059260D02*
X0067722Y0059260D01*
X0067613Y0059222D02*
X0061831Y0059222D01*
X0062023Y0059184D02*
X0067473Y0059184D01*
X0067199Y0059146D02*
X0062258Y0059146D01*
X0060241Y0061040D02*
X0069239Y0061040D01*
X0069242Y0061078D02*
X0060239Y0061078D01*
X0060236Y0061116D02*
X0069245Y0061116D01*
X0069247Y0061154D02*
X0060234Y0061154D01*
X0060231Y0061192D02*
X0069249Y0061192D01*
X0069251Y0061230D02*
X0060229Y0061230D01*
X0060226Y0061267D02*
X0069254Y0061267D01*
X0069256Y0061305D02*
X0060224Y0061305D01*
X0060221Y0061343D02*
X0069258Y0061343D01*
X0069260Y0061381D02*
X0060219Y0061381D01*
X0060217Y0061419D02*
X0069263Y0061419D01*
X0069265Y0061457D02*
X0060214Y0061457D01*
X0060212Y0061495D02*
X0069267Y0061495D01*
X0069265Y0061533D02*
X0060214Y0061533D01*
X0060217Y0061570D02*
X0069262Y0061570D01*
X0069260Y0061608D02*
X0060219Y0061608D01*
X0060222Y0061646D02*
X0069258Y0061646D01*
X0069256Y0061684D02*
X0060224Y0061684D01*
X0060227Y0061722D02*
X0069253Y0061722D01*
X0069251Y0061760D02*
X0060229Y0061760D01*
X0060232Y0061798D02*
X0069249Y0061798D01*
X0069247Y0061836D02*
X0060234Y0061836D01*
X0060236Y0061874D02*
X0069244Y0061874D01*
X0069242Y0061911D02*
X0060239Y0061911D01*
X0060241Y0061949D02*
X0069237Y0061949D01*
X0069228Y0061987D02*
X0060244Y0061987D01*
X0060253Y0062025D02*
X0069218Y0062025D01*
X0069208Y0062063D02*
X0060264Y0062063D01*
X0060275Y0062101D02*
X0069198Y0062101D01*
X0069188Y0062139D02*
X0060287Y0062139D01*
X0060298Y0062177D02*
X0069178Y0062177D01*
X0069168Y0062214D02*
X0060309Y0062214D01*
X0060320Y0062252D02*
X0069158Y0062252D01*
X0069148Y0062290D02*
X0060332Y0062290D01*
X0060343Y0062328D02*
X0069138Y0062328D01*
X0069129Y0062366D02*
X0060354Y0062366D01*
X0060365Y0062404D02*
X0069111Y0062404D01*
X0069092Y0062442D02*
X0060377Y0062442D01*
X0060388Y0062480D02*
X0069074Y0062480D01*
X0069056Y0062517D02*
X0060409Y0062517D01*
X0060430Y0062555D02*
X0069037Y0062555D01*
X0069019Y0062593D02*
X0060451Y0062593D01*
X0060473Y0062631D02*
X0069001Y0062631D01*
X0068982Y0062669D02*
X0060494Y0062669D01*
X0060515Y0062707D02*
X0068964Y0062707D01*
X0068945Y0062745D02*
X0060537Y0062745D01*
X0060558Y0062783D02*
X0068924Y0062783D01*
X0068895Y0062821D02*
X0060580Y0062821D01*
X0060601Y0062858D02*
X0068866Y0062858D01*
X0068838Y0062896D02*
X0060622Y0062896D01*
X0060648Y0062934D02*
X0068809Y0062934D01*
X0068780Y0062972D02*
X0060682Y0062972D01*
X0060717Y0063010D02*
X0068751Y0063010D01*
X0068723Y0063048D02*
X0060751Y0063048D01*
X0060786Y0063086D02*
X0068694Y0063086D01*
X0068665Y0063124D02*
X0060820Y0063124D01*
X0060855Y0063161D02*
X0068623Y0063161D01*
X0068581Y0063199D02*
X0060889Y0063199D01*
X0060923Y0063237D02*
X0068538Y0063237D01*
X0068496Y0063275D02*
X0060958Y0063275D01*
X0061002Y0063313D02*
X0068453Y0063313D01*
X0068410Y0063351D02*
X0061056Y0063351D01*
X0061110Y0063389D02*
X0068368Y0063389D01*
X0068322Y0063427D02*
X0061165Y0063427D01*
X0061219Y0063465D02*
X0068257Y0063465D01*
X0068193Y0063502D02*
X0061273Y0063502D01*
X0061327Y0063540D02*
X0068128Y0063540D01*
X0068063Y0063578D02*
X0061382Y0063578D01*
X0061469Y0063616D02*
X0067999Y0063616D01*
X0067926Y0063654D02*
X0061563Y0063654D01*
X0061656Y0063692D02*
X0067817Y0063692D01*
X0067708Y0063730D02*
X0061750Y0063730D01*
X0061844Y0063768D02*
X0067598Y0063768D01*
X0067436Y0063805D02*
X0062055Y0063805D01*
X0062290Y0063843D02*
X0067162Y0063843D01*
M02*
