M48
;GenerationSoftware,Autodesk,EAGLE,9.6.0*%
;CreationDate,2020-03-25T22:57:09Z*%
FMAT,2
ICI,OFF
METRIC,TZ,000.000
T6C0.305
T5C0.381
T4C0.400
T3C0.650
T2C1.016
T1C3.302
%
G90
M71
T1
X48768Y84328
X40640Y40640
X2540Y89916
X2540Y128016
X48768Y2540
X48768Y40640
X86868Y2540
X86868Y40640
X40640Y89916
X40640Y128016
X2540Y46228
X2540Y84328
X40640Y46228
X40640Y84328
X86868Y89916
X48768Y46228
X86868Y128016
X86868Y46228
X86868Y84328
X48768Y89916
X48768Y128016
X2540Y2540
X2540Y40640
X40640Y2540
T2
X60198Y85598
X70358Y44958
X72898Y44958
X75438Y44958
X77978Y44958
X80518Y44958
X83058Y44958
X47498Y77978
X47498Y75438
X47498Y72898
X47498Y70358
X47498Y67818
X47498Y65278
X13970Y88646
X16510Y88646
X19050Y88646
X21590Y88646
X34290Y129286
X31750Y129286
X29210Y129286
X26670Y129286
X24130Y129286
X21590Y129286
X19050Y129286
X16510Y129286
X13970Y129286
X24130Y88646
X26670Y88646
X29210Y88646
X31750Y88646
X72898Y1270
X34290Y88646
X36830Y88646
X1270Y121666
X1270Y119126
X1270Y114046
X47498Y108966
X1270Y111506
X1270Y108966
X60198Y88646
X62738Y88646
X65278Y88646
X67818Y88646
X80518Y129286
X77978Y129286
X75438Y129286
X72898Y129286
X70358Y129286
X67818Y129286
X65278Y129286
X62738Y129286
X60198Y129286
X70358Y88646
X72898Y88646
X75438Y88646
X13970Y1270
X16510Y1270
X19050Y1270
X21590Y1270
X77978Y88646
X80518Y88646
X83058Y88646
X47498Y121666
X34290Y41910
X31750Y41910
X29210Y41910
X26670Y41910
X24130Y41910
X21590Y41910
X19050Y41910
X16510Y41910
X13970Y41910
X24130Y1270
X26670Y1270
X29210Y1270
X31750Y1270
X34290Y1270
X36830Y1270
X1270Y34290
X1270Y31750
X1270Y29210
X1270Y26670
X1270Y24130
X1270Y21590
X60198Y1270
X62738Y1270
X65278Y1270
X67818Y1270
X47498Y119126
X47498Y116586
X47498Y114046
X47498Y111506
X80518Y41910
X77978Y41910
X75438Y41910
X72898Y41910
X70358Y41910
X67818Y41910
X65278Y41910
X62738Y41910
X60198Y41910
X70358Y1270
X1270Y116586
X75438Y1270
X77978Y1270
X80518Y1270
X83058Y1270
X47498Y34290
X47498Y31750
X47498Y29210
X47498Y26670
X47498Y24130
X47498Y21590
X13970Y44958
X16510Y44958
X19050Y44958
X21590Y44958
X34290Y85598
X31750Y85598
X29210Y85598
X26670Y85598
X24130Y85598
X21590Y85598
X19050Y85598
X16510Y85598
X13970Y85598
X24130Y44958
X26670Y44958
X29210Y44958
X31750Y44958
X34290Y44958
X36830Y44958
X1270Y77978
X1270Y75438
X1270Y72898
X1270Y70358
X1270Y67818
X1270Y65278
X60198Y44958
X62738Y44958
X65278Y44958
X67818Y44958
X80518Y85598
X77978Y85598
X75438Y85598
X72898Y85598
X70358Y85598
X67818Y85598
X65278Y85598
X62738Y85598
T3
X51133Y97186
X51133Y53498
X4905Y53498
X4905Y15590
X4905Y9810
X51133Y15590
X51133Y9810
X4905Y59278
X51133Y59278
X4905Y102966
X4905Y97186
X51133Y102966
T4
X1255Y95758
X1255Y17018
X1255Y8382
X5435Y8382
X5435Y17018
X47483Y17018
X47483Y8382
X51663Y8382
X51663Y17018
X47483Y60706
X47483Y52070
X51663Y52070
X51663Y60706
X1255Y52070
X1255Y104394
X5435Y95758
X5435Y104394
X47483Y104394
X47483Y95758
X51663Y95758
X51663Y104394
X5435Y52070
X5435Y60706
X1255Y60706
T5
X86000Y93112
X86838Y93345
X84582Y123990
X82741Y30263
X80772Y122301
X36513Y30263
X34544Y34925
X32893Y34290
X84582Y36614
X39772Y5736
X39772Y93112
X79121Y77978
X85217Y92710
X40610Y5969
X40610Y49657
X79121Y34290
X85217Y5334
X38989Y49022
X38354Y36614
X86000Y5736
X32893Y77978
X38989Y5334
X86838Y5969
X36513Y73951
X38354Y80302
X34544Y78613
X39772Y49424
X80772Y34925
X82741Y73951
X86000Y49424
X86838Y49657
X84582Y80302
X40610Y93345
X85217Y49022
X80772Y78613
X32893Y121666
X36513Y117639
X38354Y123990
X38989Y92710
X34544Y122301
X79121Y121666
X82741Y117639
T6
X56642Y36830
X53594Y6350
X53975Y9525
X53975Y16002
X77851Y14478
X77851Y13335
X78740Y13335
X79629Y13335
X80518Y13335
X77724Y15367
X77851Y16637
X77851Y26543
X77851Y28702
X77851Y29718
X78740Y29718
X79629Y29718
X80518Y29718
X65405Y24384
X65405Y18796
X73660Y13081
X71628Y13081
X69596Y13081
X67437Y13081
X65405Y14478
X67437Y15240
X67437Y17399
X69596Y17399
X69596Y15240
X71628Y15240
X71628Y17399
X73660Y17399
X73660Y15240
X75819Y15240
X75819Y17399
X75819Y19431
X73660Y19431
X71628Y19431
X69596Y19431
X67437Y19431
X67437Y21590
X67437Y23749
X69596Y23749
X69596Y21590
X71628Y21590
X71628Y23749
X73660Y23749
X73660Y21590
X75819Y21590
X75819Y23749
X75819Y25781
X73660Y25781
X71628Y25781
X69596Y25781
X67437Y25781
X67437Y27940
X67437Y30099
X69596Y30099
X69596Y27940
X71628Y27940
X71628Y30099
X73660Y30099
X73660Y27940
X75819Y27940
X75819Y30099
X77851Y27686
X71628Y10160
X83566Y22098
X82423Y13335
X83058Y16637
X82296Y17907
X64135Y13335
X62738Y13970
X79629Y11303
X79629Y12192
X63754Y12192
X63754Y11303
X65278Y30099
X65405Y27940
X65405Y25781
X65405Y21590
X65405Y19558
X65405Y17399
X65405Y15367
X65405Y13081
X77851Y17399
X77851Y19431
X77851Y21590
X77851Y23749
X77851Y25781
X63881Y32004
X63881Y30861
X65405Y23495
X80518Y27813
X80518Y25908
X83058Y40640
X67818Y35560
X58928Y36830
X58928Y34290
X56388Y34290
X54229Y29718
X60198Y22352
X58928Y26670
X47371Y18542
X47371Y6985
X53594Y3683
X76073Y9906
X80391Y18161
X80391Y19812
X61468Y5715
X62230Y5715
X61468Y8890
X62738Y8890
X61468Y10160
X61468Y11430
X61468Y12700
X71882Y8382
X77978Y33020
X76708Y33020
X75438Y33020
X70358Y33020
X71628Y33020
X69088Y33020
X67818Y33020
X62611Y29210
X64008Y35560
X62738Y35560
X69088Y35560
X71882Y9271
X62484Y12700
X62484Y11430
X62484Y10033
X63754Y9906
X83693Y13843
X81153Y12319
X82550Y24130
X62865Y18796
X53848Y24130
X88773Y13970
X87503Y13970
X86360Y13970
X83566Y15113
X88773Y11303
X87503Y11303
X86360Y11303
X88773Y8763
X87503Y8763
X86233Y8763
X88646Y6223
X87757Y6223
X83693Y12700
X83693Y11684
X83439Y9271
X82550Y9271
X81661Y9271
X80772Y9271
X78486Y9271
X81153Y10795
X82296Y10795
X83312Y10795
X86360Y15494
X87503Y15494
X88773Y15494
X88773Y18161
X87503Y18161
X86360Y18161
X86360Y20701
X87503Y20701
X88773Y20701
X88773Y23241
X87503Y23241
X86233Y23241
X82677Y28575
X88646Y28829
X66548Y3810
X60198Y36830
X55118Y39903
X56388Y6350
X60198Y38100
X54483Y36398
X62941Y19939
X58166Y18415
X53848Y25400
X76708Y3810
X78867Y6223
X83693Y36576
X66548Y5080
X62992Y7620
X57658Y29083
X53975Y10541
X53975Y15150
X70358Y9906
X71374Y36170
X86618Y36576
X76708Y36195
X85598Y36576
X87503Y36576
X61468Y38735
X65028Y38735
X53827Y40661
X61468Y39497
X22860Y83058
X8255Y50165
X9398Y55118
X29591Y56769
X11938Y60452
X10541Y69596
X7493Y71247
X16002Y71501
X34290Y70485
X34290Y72390
X34417Y58166
X35433Y58166
X36449Y58547
X36068Y60579
X8509Y56388
X10414Y80518
X7366Y50038
X7747Y53213
X7747Y59690
X31623Y58166
X31623Y57023
X32512Y57023
X33401Y57023
X34290Y57023
X31496Y59055
X31623Y60325
X31623Y70231
X31623Y72390
X31623Y73406
X32512Y73406
X33401Y73406
X34290Y73406
X19177Y68072
X19177Y62484
X27432Y56769
X25400Y56769
X23368Y56769
X21209Y56769
X19177Y58166
X21209Y58928
X21209Y61087
X23368Y61087
X23368Y58928
X25400Y58928
X25400Y61087
X27432Y61087
X27432Y58928
X29591Y58928
X29591Y61087
X29591Y63119
X27432Y63119
X25400Y63119
X23368Y63119
X21209Y63119
X21209Y65278
X21209Y67437
X23368Y67437
X23368Y65278
X25400Y65278
X25400Y67437
X27432Y67437
X27432Y65278
X29591Y65278
X29591Y67437
X29591Y69469
X27432Y69469
X25400Y69469
X23368Y69469
X21209Y69469
X21209Y71628
X21209Y73787
X23368Y73787
X23368Y71628
X25400Y71628
X25400Y73787
X27432Y73787
X27432Y71628
X29591Y71628
X29591Y73787
X31623Y71374
X25400Y53848
X37338Y65786
X36195Y57023
X36830Y60325
X36068Y61595
X17907Y57023
X16510Y57658
X33401Y54991
X33401Y55880
X17526Y55880
X17526Y54991
X19050Y73787
X19177Y71628
X19177Y69469
X19177Y65278
X19177Y63246
X19177Y61087
X19177Y59055
X19177Y56769
X31623Y61087
X31623Y63119
X31623Y65278
X31623Y67437
X31623Y69469
X17653Y75692
X17653Y74549
X19177Y67183
X34290Y71501
X34290Y69596
X36830Y84328
X21590Y79248
X12700Y80518
X12700Y77978
X10160Y77978
X8001Y73406
X13970Y66040
X12700Y70358
X1143Y62230
X1143Y50673
X7366Y47371
X29845Y53594
X34163Y61849
X34163Y63500
X15240Y49403
X16002Y49403
X15240Y52578
X16510Y52578
X15240Y53848
X15240Y55118
X15240Y56388
X25654Y52070
X31750Y76708
X30480Y76708
X29210Y76708
X24130Y76708
X25400Y76708
X22860Y76708
X21590Y76708
X16383Y72898
X17780Y79248
X16510Y79248
X22860Y79248
X25654Y52959
X16256Y56388
X16256Y55118
X16256Y53721
X17526Y53594
X37465Y57531
X34925Y56007
X36322Y67818
X16637Y62484
X7620Y67818
X42545Y57658
X41275Y57658
X40132Y57658
X37338Y58801
X42545Y54991
X41275Y54991
X40132Y54991
X42545Y52451
X41275Y52451
X40005Y52451
X42418Y49911
X41529Y49911
X37465Y56388
X37465Y55372
X37211Y52959
X36322Y52959
X35433Y52959
X34544Y52959
X32258Y52959
X34925Y54483
X36068Y54483
X37084Y54483
X40132Y59182
X41275Y59182
X42545Y59182
X42545Y61849
X41275Y61849
X40132Y61849
X40132Y64389
X41275Y64389
X42545Y64389
X42545Y66929
X41275Y66929
X40005Y66929
X36449Y72263
X42418Y72517
X20320Y47498
X13970Y80518
X8890Y83591
X10160Y50038
X13970Y81788
X8255Y80086
X16713Y63627
X11938Y62103
X7620Y69088
X30480Y47498
X32639Y49911
X37465Y80264
X20320Y48768
X16764Y51308
X11430Y72771
X7747Y54229
X7747Y58838
X24130Y53594
X25146Y79858
X40390Y80264
X30480Y79883
X39370Y80264
X41275Y80264
X15240Y82423
X18800Y82423
X7599Y84349
X15240Y83185
X69088Y83058
X54483Y50165
X55626Y55118
X75819Y56769
X58166Y60452
X56769Y69596
X53721Y71247
X62230Y71501
X80518Y70485
X80518Y72390
X80645Y58166
X81661Y58166
X82677Y58547
X82296Y60579
X54737Y56388
X56642Y80518
X53594Y50038
X53975Y53213
X53975Y59690
X77851Y58166
X77851Y57023
X78740Y57023
X79629Y57023
X80518Y57023
X77724Y59055
X77851Y60325
X77851Y70231
X77851Y72390
X77851Y73406
X78740Y73406
X79629Y73406
X80518Y73406
X65405Y68072
X65405Y62484
X73660Y56769
X71628Y56769
X69596Y56769
X67437Y56769
X65405Y58166
X67437Y58928
X67437Y61087
X69596Y61087
X69596Y58928
X71628Y58928
X71628Y61087
X73660Y61087
X73660Y58928
X75819Y58928
X75819Y61087
X75819Y63119
X73660Y63119
X71628Y63119
X69596Y63119
X67437Y63119
X67437Y65278
X67437Y67437
X69596Y67437
X69596Y65278
X71628Y65278
X71628Y67437
X73660Y67437
X73660Y65278
X75819Y65278
X75819Y67437
X75819Y69469
X73660Y69469
X71628Y69469
X69596Y69469
X67437Y69469
X67437Y71628
X67437Y73787
X69596Y73787
X69596Y71628
X71628Y71628
X71628Y73787
X73660Y73787
X73660Y71628
X75819Y71628
X75819Y73787
X77851Y71374
X71628Y53848
X83566Y65786
X82423Y57023
X83058Y60325
X82296Y61595
X64135Y57023
X62738Y57658
X79629Y54991
X79629Y55880
X63754Y55880
X63754Y54991
X65278Y73787
X65405Y71628
X65405Y69469
X65405Y65278
X65405Y63246
X65405Y61087
X65405Y59055
X65405Y56769
X77851Y61087
X77851Y63119
X77851Y65278
X77851Y67437
X77851Y69469
X10160Y6350
X63881Y74549
X65405Y67183
X80518Y71501
X80518Y69596
X83058Y84328
X67818Y79248
X58928Y80518
X58928Y77978
X56388Y77978
X54229Y73406
X60198Y66040
X58928Y70358
X47371Y62230
X47371Y50673
X53594Y47371
X76073Y53594
X80391Y61849
X80391Y63500
X61468Y49403
X62230Y49403
X61468Y52578
X62738Y52578
X61468Y53848
X61468Y55118
X61468Y56388
X71882Y52070
X77978Y76708
X76708Y76708
X75438Y76708
X70358Y76708
X71628Y76708
X69088Y76708
X67818Y76708
X62611Y72898
X64008Y79248
X62738Y79248
X69088Y79248
X71882Y52959
X62484Y56388
X62484Y55118
X62484Y53721
X63754Y53594
X83693Y57531
X81153Y56007
X82550Y67818
X62865Y62484
X53848Y67818
X88773Y57658
X87503Y57658
X86360Y57658
X83566Y58801
X88773Y54991
X87503Y54991
X86360Y54991
X88773Y52451
X87503Y52451
X86233Y52451
X88646Y49911
X87757Y49911
X83693Y56388
X83693Y55372
X83439Y52959
X82550Y52959
X81661Y52959
X80772Y52959
X78486Y52959
X81153Y54483
X82296Y54483
X83312Y54483
X86360Y59182
X87503Y59182
X88773Y59182
X88773Y61849
X87503Y61849
X86360Y61849
X86360Y64389
X87503Y64389
X88773Y64389
X88773Y66929
X87503Y66929
X86233Y66929
X82677Y72263
X88646Y72517
X66548Y47498
X60198Y80518
X55118Y83591
X56388Y50038
X60198Y81788
X54483Y80086
X62941Y63627
X58166Y62103
X53848Y69088
X76708Y47498
X78867Y49911
X22860Y39370
X83693Y80264
X66548Y48768
X8255Y6477
X62992Y51308
X9398Y11430
X57658Y72771
X53975Y54229
X53975Y58838
X70358Y53594
X71374Y79858
X29591Y13081
X86618Y80264
X76708Y79883
X11938Y16764
X85598Y80264
X87503Y80264
X61468Y82423
X65028Y82423
X53827Y84349
X61468Y83185
X10541Y25908
X22860Y126746
X8255Y93853
X9398Y98806
X7493Y27559
X29591Y100457
X11938Y104140
X10541Y113284
X7493Y114935
X16002Y115189
X34290Y114173
X34290Y116078
X34417Y101854
X35433Y101854
X36449Y102235
X36068Y104267
X8509Y100076
X10414Y124206
X7366Y93726
X7747Y96901
X7747Y103378
X31623Y101854
X31623Y100711
X32512Y100711
X33401Y100711
X34290Y100711
X31496Y102743
X31623Y104013
X31623Y113919
X31623Y116078
X31623Y117094
X32512Y117094
X33401Y117094
X34290Y117094
X19177Y111760
X19177Y106172
X27432Y100457
X25400Y100457
X23368Y100457
X21209Y100457
X19177Y101854
X21209Y102616
X21209Y104775
X23368Y104775
X23368Y102616
X25400Y102616
X25400Y104775
X27432Y104775
X27432Y102616
X29591Y102616
X29591Y104775
X29591Y106807
X27432Y106807
X25400Y106807
X23368Y106807
X21209Y106807
X21209Y108966
X21209Y111125
X23368Y111125
X23368Y108966
X25400Y108966
X25400Y111125
X27432Y111125
X27432Y108966
X29591Y108966
X29591Y111125
X29591Y113157
X27432Y113157
X25400Y113157
X23368Y113157
X21209Y113157
X21209Y115316
X21209Y117475
X23368Y117475
X23368Y115316
X25400Y115316
X25400Y117475
X27432Y117475
X27432Y115316
X29591Y115316
X29591Y117475
X31623Y115062
X25400Y97536
X37338Y109474
X36195Y100711
X36830Y104013
X36068Y105283
X17907Y100711
X16510Y101346
X33401Y98679
X33401Y99568
X17526Y99568
X17526Y98679
X19050Y117475
X19177Y115316
X19177Y113157
X19177Y108966
X19177Y106934
X19177Y104775
X19177Y102743
X19177Y100457
X31623Y104775
X31623Y106807
X31623Y108966
X31623Y111125
X31623Y113157
X17653Y119380
X17653Y118237
X19177Y110871
X34290Y115189
X34290Y113284
X36830Y128016
X21590Y122936
X12700Y124206
X12700Y121666
X10160Y121666
X8001Y117094
X13970Y109728
X12700Y114046
X1143Y105918
X1143Y94361
X7366Y91059
X29845Y97282
X34163Y105537
X34163Y107188
X15240Y93091
X16002Y93091
X15240Y96266
X16510Y96266
X15240Y97536
X15240Y98806
X15240Y100076
X25654Y95758
X31750Y120396
X30480Y120396
X29210Y120396
X24130Y120396
X25400Y120396
X22860Y120396
X21590Y120396
X16383Y116586
X17780Y122936
X16510Y122936
X22860Y122936
X25654Y96647
X16256Y100076
X16256Y98806
X16256Y97409
X17526Y97282
X37465Y101219
X34925Y99695
X36322Y111506
X16637Y106172
X7620Y111506
X42545Y101346
X41275Y101346
X40132Y101346
X37338Y102489
X42545Y98679
X41275Y98679
X40132Y98679
X42545Y96139
X41275Y96139
X40005Y96139
X42418Y93599
X41529Y93599
X37465Y100076
X37465Y99060
X37211Y96647
X36322Y96647
X35433Y96647
X34544Y96647
X32258Y96647
X34925Y98171
X36068Y98171
X37084Y98171
X40132Y102870
X41275Y102870
X42545Y102870
X42545Y105537
X41275Y105537
X40132Y105537
X40132Y108077
X41275Y108077
X42545Y108077
X42545Y110617
X41275Y110617
X40005Y110617
X36449Y115951
X42418Y116205
X20320Y91186
X13970Y124206
X8890Y127279
X10160Y93726
X13970Y125476
X8255Y123774
X16713Y107315
X11938Y105791
X7620Y112776
X30480Y91186
X32639Y93599
X16002Y27813
X37465Y123952
X20320Y92456
X34290Y26797
X16764Y94996
X34290Y28702
X11430Y116459
X7747Y97917
X7747Y102526
X24130Y97282
X25146Y123546
X34417Y14478
X40390Y123952
X30480Y123571
X35433Y14478
X39370Y123952
X41275Y123952
X15240Y126111
X18800Y126111
X7599Y128037
X15240Y126873
X36449Y14859
X69088Y126746
X54483Y93853
X55626Y98806
X36068Y16891
X75819Y100457
X58166Y104140
X56769Y113284
X53721Y114935
X62230Y115189
X80518Y114173
X80518Y116078
X80645Y101854
X81661Y101854
X82677Y102235
X82296Y104267
X54737Y100076
X56642Y124206
X53594Y93726
X53975Y96901
X53975Y103378
X77851Y101854
X77851Y100711
X78740Y100711
X79629Y100711
X80518Y100711
X77724Y102743
X77851Y104013
X77851Y113919
X77851Y116078
X77851Y117094
X78740Y117094
X79629Y117094
X80518Y117094
X65405Y111760
X65405Y106172
X73660Y100457
X71628Y100457
X69596Y100457
X67437Y100457
X65405Y101854
X67437Y102616
X67437Y104775
X69596Y104775
X69596Y102616
X71628Y102616
X71628Y104775
X73660Y104775
X8509Y12700
X75819Y102616
X75819Y104775
X75819Y106807
X73660Y106807
X71628Y106807
X69596Y106807
X67437Y106807
X67437Y108966
X67437Y111125
X69596Y111125
X69596Y108966
X71628Y108966
X71628Y111125
X73660Y111125
X73660Y108966
X75819Y108966
X75819Y111125
X75819Y113157
X73660Y113157
X71628Y113157
X69596Y113157
X67437Y113157
X67437Y115316
X67437Y117475
X69596Y117475
X69596Y115316
X71628Y115316
X71628Y117475
X73660Y117475
X73660Y115316
X75819Y115316
X75819Y117475
X77851Y115062
X71628Y97536
X83566Y109474
X82423Y100711
X83058Y104013
X82296Y105283
X64135Y100711
X62738Y101346
X79629Y98679
X79629Y99568
X63754Y99568
X63754Y98679
X65278Y117475
X65405Y115316
X65405Y113157
X65405Y108966
X65405Y106934
X65405Y104775
X65405Y102743
X65405Y100457
X77851Y104775
X77851Y106807
X77851Y108966
X77851Y111125
X77851Y113157
X63881Y119380
X63881Y118237
X65405Y110871
X80518Y115189
X80518Y113284
X83058Y128016
X67818Y122936
X58928Y124206
X58928Y121666
X56388Y121666
X54229Y117094
X60198Y109728
X58928Y114046
X47371Y105918
X47371Y94361
X53594Y91059
X76073Y97282
X80391Y105537
X80391Y107188
X61468Y93091
X62230Y93091
X61468Y96266
X62738Y96266
X61468Y97536
X61468Y98806
X61468Y100076
X71882Y95758
X77978Y120396
X76708Y120396
X75438Y120396
X70358Y120396
X71628Y120396
X69088Y120396
X67818Y120396
X62611Y116586
X64008Y122936
X62738Y122936
X69088Y122936
X71882Y96647
X62484Y100076
X62484Y98806
X62484Y97409
X63754Y97282
X83693Y101219
X81153Y99695
X82550Y111506
X62865Y106172
X53848Y111506
X88773Y101346
X87503Y101346
X86360Y101346
X83566Y102489
X88773Y98679
X87503Y98679
X86360Y98679
X88773Y96139
X87503Y96139
X86233Y96139
X88646Y93599
X87757Y93599
X83693Y100076
X83693Y99060
X83439Y96647
X82550Y96647
X81661Y96647
X80772Y96647
X78486Y96647
X81153Y98171
X82296Y98171
X83312Y98171
X86360Y102870
X87503Y102870
X88773Y102870
X88773Y105537
X87503Y105537
X86360Y105537
X86360Y108077
X87503Y108077
X88773Y108077
X88773Y110617
X87503Y110617
X86233Y110617
X82677Y115951
X88646Y116205
X66548Y91186
X60198Y124206
X55118Y127279
X56388Y93726
X60198Y125476
X54483Y123774
X62941Y107315
X58166Y105791
X53848Y112776
X76708Y91186
X78867Y93599
X10414Y36830
X83693Y123952
X66548Y92456
X7366Y6350
X62992Y94996
X7747Y9525
X57658Y116459
X53975Y97917
X53975Y102526
X70358Y97282
X71374Y123546
X7747Y16002
X86618Y123952
X76708Y123571
X31623Y14478
X85598Y123952
X87503Y123952
X61468Y126111
X65028Y126111
X53827Y128037
X61468Y126873
X31623Y13335
X32512Y13335
X33401Y13335
X34290Y13335
X31496Y15367
X31623Y16637
X31623Y26543
X31623Y28702
X31623Y29718
X32512Y29718
X33401Y29718
X34290Y29718
X19177Y24384
X19177Y18796
X27432Y13081
X25400Y13081
X23368Y13081
X21209Y13081
X63881Y75692
X19177Y14478
X21209Y15240
X21209Y17399
X23368Y17399
X23368Y15240
X25400Y15240
X25400Y17399
X27432Y17399
X27432Y15240
X29591Y15240
X29591Y17399
X29591Y19431
X27432Y19431
X25400Y19431
X23368Y19431
X21209Y19431
X21209Y21590
X21209Y23749
X23368Y23749
X23368Y21590
X25400Y21590
X25400Y23749
X27432Y23749
X27432Y21590
X29591Y21590
X29591Y23749
X29591Y25781
X27432Y25781
X25400Y25781
X23368Y25781
X21209Y25781
X21209Y27940
X21209Y30099
X23368Y30099
X23368Y27940
X25400Y27940
X25400Y30099
X27432Y30099
X27432Y27940
X29591Y27940
X29591Y30099
X31623Y27686
X25400Y10160
X37338Y22098
X36195Y13335
X36830Y16637
X36068Y17907
X17907Y13335
X16510Y13970
X33401Y11303
X33401Y12192
X17526Y12192
X17526Y11303
X19050Y30099
X19177Y27940
X19177Y25781
X19177Y21590
X19177Y19558
X19177Y17399
X19177Y15367
X19177Y13081
X31623Y17399
X31623Y19431
X31623Y21590
X31623Y23749
X31623Y25781
X17653Y32004
X17653Y30861
X19177Y23495
X34290Y27813
X34290Y25908
X36830Y40640
X21590Y35560
X12700Y36830
X12700Y34290
X10160Y34290
X8001Y29718
X13970Y22352
X12700Y26670
X1143Y18542
X1143Y6985
X7366Y3683
X29845Y9906
X34163Y18161
X34163Y19812
X15240Y5715
X16002Y5715
X15240Y8890
X16510Y8890
X15240Y10160
X15240Y11430
X15240Y12700
X25654Y8382
X31750Y33020
X30480Y33020
X29210Y33020
X24130Y33020
X25400Y33020
X22860Y33020
X21590Y33020
X16383Y29210
X17780Y35560
X16510Y35560
X22860Y35560
X25654Y9271
X16256Y12700
X16256Y11430
X16256Y10033
X17526Y9906
X37465Y13843
X34925Y12319
X36322Y24130
X16637Y18796
X7620Y24130
X42545Y13970
X41275Y13970
X40132Y13970
X37338Y15113
X42545Y11303
X41275Y11303
X40132Y11303
X42545Y8763
X41275Y8763
X40005Y8763
X42418Y6223
X41529Y6223
X37465Y12700
X37465Y11684
X37211Y9271
X36322Y9271
X35433Y9271
X34544Y9271
X32258Y9271
X34925Y10795
X36068Y10795
X37084Y10795
X40132Y15494
X41275Y15494
X42545Y15494
X42545Y18161
X41275Y18161
X40132Y18161
X40132Y20701
X41275Y20701
X42545Y20701
X42545Y23241
X41275Y23241
X40005Y23241
X36449Y28575
X42418Y28829
X20320Y3810
X13970Y36830
X8890Y39903
X13970Y38100
X8255Y36398
X16713Y19939
X11938Y18415
X7620Y25400
X30480Y3810
X32639Y6223
X37465Y36576
X20320Y5080
X16764Y7620
X11430Y29083
X7747Y10541
X7747Y15150
X24130Y9906
X25146Y36170
X40390Y36576
X30480Y36195
X39370Y36576
X41275Y36576
X15240Y38735
X18800Y38735
X7599Y40661
X15240Y39497
X69088Y39370
X54483Y6477
X55626Y11430
X75819Y13081
X58166Y16764
X56769Y25908
X53721Y27559
X62230Y27813
X80518Y26797
X80518Y28702
X80645Y14478
X81661Y14478
X82677Y14859
X82296Y16891
X54737Y12700
X73660Y102616
M30