%
M48
M72
T01C0.0120
T02C0.0256
T03C0.0400
T04C0.1300
%
T01
X7234Y4300
X7234Y5350
X7584Y5400
X8334Y5350
X10334Y5100
X10634Y5100
X10934Y5850
X10834Y6350
X10734Y6800
X10334Y6850
X10334Y6350
X11234Y6750
X11234Y7300
X11234Y7650
X10734Y7850
X10334Y7850
X10334Y7350
X10734Y7350
X11384Y8100
X11884Y8000
X12684Y8000
X13534Y8000
X14334Y8000
X15134Y8000
X15134Y8850
X14334Y8850
X13534Y8850
X12684Y8850
X11884Y8900
X11884Y8550
X10834Y8350
X9034Y9450
X9034Y10100
X10884Y10250
X10914Y10700
X11884Y10550
X11884Y10250
X11884Y9700
X12684Y9700
X13534Y9700
X14334Y9700
X15134Y9700
X15134Y10500
X14334Y10500
X13534Y10500
X12684Y10500
X12684Y11350
X11884Y11350
X11884Y12100
X11884Y12450
X12684Y12200
X13534Y12200
X14334Y12200
X15134Y12200
X15134Y13000
X14334Y13000
X13534Y13000
X12684Y13000
X11884Y13000
X11884Y13850
X12684Y13850
X13534Y13850
X14334Y13850
X15134Y13850
X15134Y14700
X14334Y14700
X13534Y14700
X12684Y14700
X11834Y14700
X11284Y15000
X11284Y15450
X12834Y15850
X13334Y15850
X13834Y15850
X14334Y15850
X13334Y16850
X12834Y16850
X14234Y17090
X13334Y18350
X11736Y18100
X10334Y18100
X10334Y18400
X9834Y17850
X9834Y17350
X9334Y17350
X8434Y17350
X7584Y17180
X8334Y16350
X9334Y16350
X10834Y16850
X11334Y16850
X7834Y18560
X7326Y18858
X7234Y21500
X7234Y22550
X7584Y22600
X8334Y22550
X10334Y22300
X10634Y22300
X10934Y23050
X10834Y23550
X10734Y24000
X10334Y24050
X10334Y23550
X11234Y23950
X11234Y24500
X11234Y24850
X11384Y25300
X11884Y25200
X11884Y25750
X11884Y26100
X12684Y26050
X13534Y26050
X14334Y26050
X15134Y26050
X15134Y25200
X14334Y25200
X13534Y25200
X12684Y25200
X13834Y23950
X14334Y24050
X14434Y23700
X14434Y23350
X16084Y23950
X16834Y24050
X17334Y23550
X17634Y23550
X17684Y23050
X17334Y23050
X17184Y22500
X17334Y21680
X16334Y21550
X12334Y21550
X12334Y22050
X10734Y24550
X10334Y24550
X10334Y25050
X10734Y25050
X10834Y25550
X9034Y26650
X9034Y27300
X10884Y27450
X10914Y27900
X11884Y27750
X11884Y27450
X11884Y26900
X12684Y26900
X13534Y26900
X14334Y26900
X15134Y26900
X15134Y27700
X14334Y27700
X13534Y27700
X12684Y27700
X12684Y28550
X11884Y28550
X11884Y29300
X11884Y29650
X11884Y30200
X12684Y30200
X13534Y30200
X14334Y30200
X15134Y30200
X15134Y29400
X14334Y29400
X13534Y29400
X12684Y29400
X13534Y28550
X14334Y28550
X15134Y28550
X15984Y28550
X16784Y28550
X17834Y29050
X16784Y29400
X15984Y29400
X15984Y30200
X16784Y30200
X16784Y30500
X16784Y30950
X16784Y31350
X16784Y31750
X17134Y31750
X17484Y31750
X17834Y31750
X17834Y31350
X17834Y31000
X17834Y30600
X17834Y30250
X17834Y29550
X18734Y29850
X19484Y29600
X20236Y29452
X20189Y29000
X20184Y28650
X19384Y28000
X18934Y28000
X18534Y28000
X17784Y27850
X17784Y27200
X18534Y27050
X18834Y27100
X19234Y27100
X19584Y27100
X19934Y27000
X19934Y26650
X19934Y25550
X19934Y25200
X19584Y25200
X19234Y25200
X18884Y25200
X18584Y25300
X18234Y25300
X18234Y25650
X18584Y25650
X17834Y25650
X17834Y25300
X17484Y25300
X17134Y25300
X16784Y25300
X16784Y25750
X16784Y26200
X16784Y26600
X16784Y26900
X15984Y26900
X15984Y27700
X16784Y27700
X18534Y26700
X19834Y27500
X20834Y29800
X22984Y27350
X25584Y26350
X25584Y26015
X25884Y25050
X26234Y24550
X25584Y24200
X25584Y23800
X25784Y22600
X25434Y22550
X25434Y21500
X26534Y22550
X28534Y22300
X28834Y22300
X29134Y23050
X29034Y23550
X28934Y24000
X28534Y24050
X28534Y23550
X29434Y23950
X29434Y24500
X29434Y24850
X29584Y25300
X30084Y25200
X30084Y25750
X30084Y26100
X30884Y26050
X31734Y26050
X32534Y26050
X33334Y26050
X34184Y26050
X34984Y26200
X34984Y26600
X34984Y26900
X34184Y26900
X33334Y26900
X32534Y26900
X31734Y26900
X30884Y26900
X30084Y26900
X30084Y27450
X30084Y27750
X30884Y27700
X31734Y27700
X32534Y27700
X33334Y27700
X34184Y27700
X34984Y27700
X34984Y28550
X34184Y28550
X33334Y28550
X32534Y28550
X31734Y28550
X30884Y28550
X30084Y28550
X29114Y27900
X29084Y27450
X27234Y27300
X27234Y26650
X28534Y25050
X28934Y25050
X29034Y25550
X30884Y25200
X31734Y25200
X32534Y25200
X33334Y25200
X34184Y25200
X34984Y25300
X35334Y25300
X35684Y25300
X36034Y25300
X36034Y25650
X36434Y25650
X36434Y25300
X36784Y25300
X37084Y25200
X37434Y25200
X37784Y25200
X38134Y25200
X38134Y25550
X38134Y26650
X38134Y27000
X37784Y27100
X37434Y27100
X37034Y27100
X36734Y27050
X36734Y26700
X35984Y27200
X35984Y27850
X36734Y28000
X37134Y28000
X37584Y28000
X38034Y27500
X38384Y28650
X38389Y29000
X38436Y29452
X39034Y29800
X37684Y29600
X36934Y29850
X36034Y29550
X36034Y30250
X36034Y30600
X36034Y31000
X36034Y31350
X36034Y31750
X35684Y31750
X35334Y31750
X34984Y31750
X34984Y31350
X34984Y30950
X34984Y30500
X34984Y30200
X34184Y30200
X33334Y30200
X32534Y30200
X31734Y30200
X30884Y30200
X30084Y30200
X30084Y29650
X30084Y29300
X30884Y29400
X31734Y29400
X32534Y29400
X33334Y29400
X34184Y29400
X34984Y29400
X36034Y29050
X34184Y31050
X33334Y31050
X32534Y31050
X31734Y31050
X30884Y31050
X30084Y31050
X30034Y31900
X29484Y32200
X29484Y32650
X28984Y31550
X28834Y31000
X27534Y30550
X27034Y30550
X26684Y30250
X26284Y30350
X25534Y30050
X25534Y29550
X25484Y30900
X25684Y31750
X26534Y33550
X27534Y33550
X27534Y34550
X28034Y34550
X28034Y35050
X28534Y35300
X28534Y35600
X29936Y35300
X31534Y35550
X31534Y34050
X31034Y34050
X32434Y34290
X32534Y33050
X32034Y33050
X31534Y33050
X31034Y33050
X30884Y31900
X31734Y31900
X32534Y31900
X33334Y31900
X34184Y31900
X35634Y32250
X35634Y32650
X35034Y33050
X34534Y33050
X34034Y33050
X34534Y34300
X37284Y32950
X38034Y32950
X38436Y32950
X38784Y32950
X43884Y31750
X43684Y30900
X44484Y30350
X44884Y30250
X45234Y30550
X45734Y30550
X47034Y31000
X48284Y31050
X49084Y31050
X49934Y31050
X50734Y31050
X51534Y31050
X52384Y31050
X53184Y30950
X53184Y31350
X53184Y31750
X53534Y31750
X53884Y31750
X54234Y31750
X54234Y31350
X54234Y31000
X54234Y30600
X54234Y30250
X54234Y29550
X55134Y29850
X55884Y29600
X56636Y29452
X56589Y29000
X56584Y28650
X55784Y28000
X55334Y28000
X54934Y28000
X54184Y27850
X54184Y27200
X54934Y27050
X55234Y27100
X55634Y27100
X55984Y27100
X56334Y27000
X56334Y26650
X56334Y25550
X56334Y25200
X55984Y25200
X55634Y25200
X55284Y25200
X54984Y25300
X54634Y25300
X54634Y25650
X54984Y25650
X54234Y25650
X54234Y25300
X53884Y25300
X53534Y25300
X53184Y25300
X53184Y25750
X53184Y26200
X53184Y26600
X53184Y26900
X52384Y26900
X51534Y26900
X50734Y26900
X49934Y26900
X49084Y26900
X48284Y26900
X48284Y27450
X48284Y27750
X47314Y27900
X48284Y28550
X48284Y29300
X48284Y29650
X48284Y30200
X49084Y30200
X49934Y30200
X50734Y30200
X51534Y30200
X52384Y30200
X52384Y29400
X51534Y29400
X50734Y29400
X49934Y29400
X49084Y29400
X49084Y28550
X49934Y28550
X50734Y28550
X51534Y28550
X52384Y28550
X53184Y28550
X54234Y29050
X53184Y29400
X53184Y30200
X53184Y30500
X52384Y31900
X51534Y31900
X50734Y31900
X49934Y31900
X49084Y31900
X48234Y31900
X47684Y32200
X47684Y32650
X47184Y31550
X49234Y33050
X49734Y33050
X50234Y33050
X50734Y33050
X52234Y33050
X52734Y33050
X53234Y33050
X53834Y32650
X53834Y32250
X55484Y32950
X56234Y32950
X56636Y32950
X56984Y32950
X52734Y34300
X50634Y34290
X49734Y34050
X49234Y34050
X47734Y34050
X47234Y34050
X46234Y34550
X45734Y34550
X46234Y35050
X46734Y35300
X46734Y35600
X48136Y35300
X49734Y35550
X45734Y33550
X44734Y33550
X44834Y34550
X43984Y34380
X44234Y35760
X43726Y36058
X37034Y36050
X29534Y34050
X29034Y34050
X26634Y34550
X25784Y34380
X26034Y35760
X25526Y36058
X20584Y32950
X20236Y32950
X19834Y32950
X19084Y32950
X17434Y32650
X17434Y32250
X16834Y33050
X16334Y33050
X15834Y33050
X14334Y33050
X13834Y33050
X13334Y33050
X12834Y33050
X11284Y32650
X11284Y32200
X11834Y31900
X12684Y31900
X13534Y31900
X14334Y31900
X15134Y31900
X15134Y31050
X14334Y31050
X13534Y31050
X12684Y31050
X11884Y31050
X10784Y31550
X10634Y31000
X9334Y30550
X8834Y30550
X8484Y30250
X8084Y30350
X7334Y30050
X7334Y29550
X7284Y30900
X7484Y31750
X8334Y33550
X9334Y33550
X9334Y34550
X9834Y34550
X9834Y35050
X10334Y35300
X10334Y35600
X11736Y35300
X11334Y34050
X10834Y34050
X12834Y34050
X13334Y34050
X14234Y34290
X16334Y34300
X13334Y35550
X8434Y34550
X7584Y34380
X7834Y35760
X7326Y36058
X15984Y31900
X15984Y31050
X9834Y28850
X7384Y26350
X7384Y26015
X7684Y25050
X8034Y24550
X7384Y24200
X7384Y23800
X4784Y22800
X4784Y27350
X15984Y26050
X15984Y25200
X17484Y24850
X17484Y24500
X18084Y24550
X18084Y24900
X22984Y22800
X28534Y24550
X28934Y24550
X32034Y23950
X32534Y24050
X32634Y23700
X32634Y23350
X34284Y23950
X35034Y24050
X35534Y23550
X35834Y23550
X35884Y23050
X35534Y23050
X35384Y22500
X35534Y21680
X34534Y21550
X30534Y21550
X30534Y22050
X35684Y24500
X35684Y24850
X36284Y24900
X36284Y24550
X36784Y25650
X34984Y25750
X41184Y27350
X43784Y26350
X43784Y26015
X44084Y25050
X44434Y24550
X43784Y24200
X43784Y23800
X43984Y22600
X43634Y22550
X44734Y22550
X43634Y21500
X41184Y22800
X46734Y22300
X47034Y22300
X47334Y23050
X47234Y23550
X47134Y24000
X46734Y24050
X46734Y23550
X47634Y23950
X47634Y24500
X47634Y24850
X47784Y25300
X48284Y25200
X48284Y25750
X48284Y26100
X47234Y25550
X47134Y25050
X46734Y25050
X46734Y24550
X47134Y24550
X49084Y25200
X49934Y25200
X50734Y25200
X51534Y25200
X52384Y25200
X52384Y26050
X51534Y26050
X50734Y26050
X49934Y26050
X49084Y26050
X47284Y27450
X49084Y27700
X49934Y27700
X50734Y27700
X51534Y27700
X52384Y27700
X53184Y27700
X54934Y26700
X56234Y27500
X57234Y29800
X54484Y24900
X54484Y24550
X53884Y24500
X53884Y24850
X53234Y24050
X53734Y23550
X54034Y23550
X54084Y23050
X53734Y23050
X53584Y22500
X53734Y21680
X52734Y21550
X50834Y23350
X50834Y23700
X50734Y24050
X50234Y23950
X52484Y23950
X48734Y22050
X48734Y21550
X43726Y18858
X44234Y18560
X46234Y17850
X46734Y18100
X46734Y18400
X48136Y18100
X47734Y16850
X47234Y16850
X46234Y17350
X45734Y17350
X44834Y17350
X43984Y17180
X44734Y16350
X45734Y16350
X47684Y15450
X47684Y15000
X48234Y14700
X47184Y14350
X47034Y13800
X48284Y13850
X49084Y13850
X49934Y13850
X50734Y13850
X51534Y13850
X52384Y13850
X53184Y13750
X53184Y14150
X53184Y14550
X53534Y14550
X53884Y14550
X54234Y14550
X54234Y14150
X54234Y13800
X54234Y13400
X54234Y13050
X55134Y12650
X55884Y12400
X56589Y11800
X56584Y11450
X56636Y12252
X57234Y12600
X54234Y12350
X54234Y11850
X53184Y12200
X52384Y12200
X51534Y12200
X50734Y12200
X49934Y12200
X49084Y12200
X49084Y13000
X49934Y13000
X50734Y13000
X51534Y13000
X52384Y13000
X53184Y13000
X53184Y13300
X52384Y14700
X51534Y14700
X50734Y14700
X49934Y14700
X49084Y14700
X49234Y15850
X49734Y15850
X50234Y15850
X50734Y15850
X49734Y16850
X49234Y16850
X50634Y17090
X49734Y18350
X52734Y17100
X52734Y15850
X52234Y15850
X53234Y15850
X53834Y15450
X53834Y15050
X55484Y15750
X56234Y15750
X56636Y15750
X56984Y15750
X55234Y18850
X45734Y13350
X45234Y13350
X44884Y13050
X44484Y13150
X43734Y12850
X43734Y12350
X43684Y13700
X43884Y14550
X48284Y13000
X48284Y12450
X48284Y12100
X48284Y11350
X48284Y10550
X48284Y10250
X48284Y9700
X47284Y10250
X47314Y10700
X46234Y11650
X45434Y10100
X45434Y9450
X43784Y9150
X43784Y8815
X44084Y7850
X44434Y7350
X43784Y7000
X43784Y6600
X43984Y5400
X43634Y5350
X44734Y5350
X43634Y4300
X41184Y5600
X38134Y8000
X37784Y8000
X37434Y8000
X37084Y8000
X36784Y8100
X36434Y8100
X36434Y8450
X36784Y8450
X36034Y8450
X36034Y8100
X35684Y8100
X35334Y8100
X34984Y8100
X34984Y8550
X34984Y9000
X34984Y9400
X34984Y9700
X34184Y9700
X33334Y9700
X32534Y9700
X31734Y9700
X30884Y9700
X30084Y9700
X30084Y10250
X30084Y10550
X30884Y10500
X31734Y10500
X32534Y10500
X33334Y10500
X34184Y10500
X34984Y10500
X34984Y11350
X34184Y11350
X33334Y11350
X32534Y11350
X31734Y11350
X30884Y11350
X30084Y11350
X30084Y12100
X30084Y12450
X30884Y12200
X31734Y12200
X31734Y13000
X30884Y13000
X30084Y13000
X30084Y13850
X30884Y13850
X31734Y13850
X32534Y13850
X33334Y13850
X34184Y13850
X34984Y13750
X34984Y14150
X34984Y14550
X35334Y14550
X35684Y14550
X36034Y14550
X36034Y14150
X36034Y13800
X36034Y13400
X36034Y13050
X36934Y12650
X37684Y12400
X38436Y12252
X38389Y11800
X38384Y11450
X37584Y10800
X37134Y10800
X36734Y10800
X35984Y10650
X35984Y10000
X36734Y9850
X37034Y9900
X37434Y9900
X37784Y9900
X38134Y9800
X38134Y9450
X38034Y10300
X36734Y9500
X38134Y8350
X36284Y7700
X36284Y7350
X35684Y7300
X35684Y7650
X35034Y6850
X35534Y6350
X35834Y6350
X35884Y5850
X35534Y5850
X35384Y5300
X35534Y4480
X34534Y4350
X32634Y6150
X32634Y6500
X32534Y6850
X32034Y6750
X31734Y8000
X30884Y8000
X30084Y8000
X29584Y8100
X29034Y8350
X28934Y7850
X28534Y7850
X28534Y7350
X28934Y7350
X29434Y7300
X29434Y7650
X29434Y6750
X28934Y6800
X28534Y6850
X28534Y6350
X29034Y6350
X29134Y5850
X28834Y5100
X28534Y5100
X26534Y5350
X25784Y5400
X25434Y5350
X25434Y4300
X22984Y5600
X25584Y6600
X25584Y7000
X26234Y7350
X25884Y7850
X25584Y8815
X25584Y9150
X27234Y9450
X27234Y10100
X28034Y11650
X29114Y10700
X29084Y10250
X30084Y8900
X30084Y8550
X30884Y8850
X31734Y8850
X32534Y8850
X33334Y8850
X34184Y8850
X34184Y8000
X33334Y8000
X32534Y8000
X34284Y6750
X30534Y4850
X30534Y4350
X22984Y10150
X20184Y11450
X20189Y11800
X20236Y12252
X20834Y12600
X19484Y12400
X18734Y12650
X17834Y12350
X17834Y11850
X16784Y12200
X15984Y12200
X15984Y13000
X16784Y13000
X16784Y13300
X17834Y13400
X17834Y13050
X17834Y13800
X17834Y14150
X17834Y14550
X17484Y14550
X17134Y14550
X16784Y14550
X16784Y14150
X16784Y13750
X15984Y13850
X15984Y14700
X17434Y15050
X17434Y15450
X16834Y15850
X16334Y15850
X15834Y15850
X16334Y17100
X18834Y18850
X19084Y15750
X19834Y15750
X20236Y15750
X20584Y15750
X25484Y13700
X25534Y12850
X25534Y12350
X26284Y13150
X26684Y13050
X27034Y13350
X27534Y13350
X28834Y13800
X28984Y14350
X29484Y15000
X29484Y15450
X30034Y14700
X30884Y14700
X31734Y14700
X32534Y14700
X33334Y14700
X34184Y14700
X35634Y15050
X35634Y15450
X35034Y15850
X34534Y15850
X34034Y15850
X32534Y15850
X32034Y15850
X31534Y15850
X31034Y15850
X31034Y16850
X31534Y16850
X32434Y17090
X31534Y18350
X29936Y18100
X28534Y18100
X28534Y18400
X28034Y17850
X28034Y17350
X27534Y17350
X26634Y17350
X25784Y17180
X26534Y16350
X27534Y16350
X29034Y16850
X29534Y16850
X26034Y18560
X25526Y18858
X25684Y14550
X32534Y13000
X33334Y13000
X34184Y13000
X34984Y13000
X34984Y13300
X34984Y12200
X34184Y12200
X33334Y12200
X32534Y12200
X36034Y12350
X36034Y11850
X39034Y12600
X41184Y10150
X46734Y7850
X47134Y7850
X47134Y7350
X46734Y7350
X47634Y7300
X47634Y7650
X48284Y8000
X47784Y8100
X47234Y8350
X48284Y8550
X48284Y8900
X49084Y8850
X49934Y8850
X50734Y8850
X51534Y8850
X52384Y8850
X53184Y9000
X53184Y9400
X53184Y9700
X54184Y10000
X54934Y9850
X55234Y9900
X55634Y9900
X55984Y9900
X56334Y9800
X56334Y9450
X56234Y10300
X55784Y10800
X55334Y10800
X54934Y10800
X54184Y10650
X53184Y10500
X52384Y10500
X51534Y10500
X50734Y10500
X49934Y10500
X49084Y10500
X49084Y9700
X49934Y9700
X50734Y9700
X51534Y9700
X52384Y9700
X53184Y8550
X53184Y8100
X53534Y8100
X53884Y8100
X54234Y8100
X54234Y8450
X54634Y8450
X54634Y8100
X54984Y8100
X55284Y8000
X55634Y8000
X55984Y8000
X56334Y8000
X56334Y8350
X54984Y8450
X54484Y7700
X54484Y7350
X53884Y7300
X53884Y7650
X53234Y6850
X53734Y6350
X54034Y6350
X54084Y5850
X53734Y5850
X53584Y5300
X53734Y4480
X52734Y4350
X50834Y6150
X50834Y6500
X50734Y6850
X50234Y6750
X49934Y8000
X50734Y8000
X51534Y8000
X52384Y8000
X52484Y6750
X49084Y8000
X47634Y6750
X47134Y6800
X46734Y6850
X46734Y6350
X47234Y6350
X47334Y5850
X47034Y5100
X46734Y5100
X48734Y4850
X48734Y4350
X54934Y9500
X53184Y11350
X52384Y11350
X51534Y11350
X50734Y11350
X49934Y11350
X49084Y11350
X38784Y15750
X38436Y15750
X38034Y15750
X37284Y15750
X34534Y17100
X37034Y18850
X45434Y26650
X45434Y27300
X46234Y28850
X43734Y29550
X43734Y30050
X55234Y36050
X28034Y28850
X18834Y36050
X7484Y14550
X7284Y13700
X8084Y13150
X8484Y13050
X8834Y13350
X9334Y13350
X10634Y13800
X10784Y14350
X7334Y12850
X7334Y12350
X9834Y11650
X13534Y11350
X14334Y11350
X15134Y11350
X15984Y11350
X16784Y11350
X16784Y10500
X15984Y10500
X15984Y9700
X16784Y9700
X16784Y9400
X16784Y9000
X16784Y8550
X16784Y8100
X17134Y8100
X17484Y8100
X17834Y8100
X17834Y8450
X18234Y8450
X18234Y8100
X18584Y8100
X18884Y8000
X19234Y8000
X19584Y8000
X19934Y8000
X19934Y8350
X18584Y8450
X18084Y7700
X18084Y7350
X17484Y7300
X17484Y7650
X16834Y6850
X17334Y6350
X17634Y6350
X17684Y5850
X17334Y5850
X17184Y5300
X17334Y4480
X16334Y4350
X14434Y6150
X14434Y6500
X14334Y6850
X13834Y6750
X16084Y6750
X15984Y8000
X15984Y8850
X17784Y10000
X18534Y9850
X18834Y9900
X19234Y9900
X19584Y9900
X19934Y9800
X19934Y9450
X19834Y10300
X19384Y10800
X18934Y10800
X18534Y10800
X17784Y10650
X18534Y9500
X12334Y4850
X12334Y4350
X7384Y6600
X7384Y7000
X8034Y7350
X7684Y7850
X7384Y8815
X7384Y9150
X4784Y10150
X4784Y5600
T02
X6265Y6712
X6265Y8988
X24465Y8988
X24465Y6712
X42665Y6712
X42665Y8988
X42665Y23912
X42665Y26188
X24465Y26188
X24465Y23912
X6265Y23912
X6265Y26188
T03
X4834Y28550
X4834Y29550
X4834Y30550
X4834Y31550
X4834Y32550
X4834Y33550
X9834Y36550
X10834Y36550
X11834Y36550
X12834Y36550
X13834Y36550
X14834Y36550
X15834Y36550
X16834Y36550
X17834Y36550
X23034Y33550
X23034Y32550
X23034Y31550
X23034Y30550
X23034Y29550
X23034Y28550
X18834Y20550
X17834Y20550
X16834Y20550
X15834Y20550
X14834Y20550
X13834Y20550
X12834Y20550
X11834Y20550
X10834Y20550
X9834Y20550
X9834Y19350
X10834Y19350
X11834Y19350
X12834Y19350
X13834Y19350
X14834Y19350
X15834Y19350
X16834Y19350
X17834Y19350
X23034Y16350
X23034Y15350
X23034Y14350
X23034Y13350
X23034Y12350
X23034Y11350
X28034Y19350
X29034Y19350
X30034Y19350
X31034Y19350
X32034Y19350
X33034Y19350
X34034Y19350
X35034Y19350
X36034Y19350
X36034Y20550
X37034Y20550
X35034Y20550
X34034Y20550
X33034Y20550
X32034Y20550
X31034Y20550
X30034Y20550
X29034Y20550
X28034Y20550
X41234Y16350
X41234Y15350
X41234Y14350
X41234Y13350
X41234Y12350
X41234Y11350
X46234Y19350
X47234Y19350
X48234Y19350
X49234Y19350
X50234Y19350
X51234Y19350
X52234Y19350
X53234Y19350
X54234Y19350
X54234Y20550
X53234Y20550
X52234Y20550
X51234Y20550
X50234Y20550
X49234Y20550
X48234Y20550
X47234Y20550
X46234Y20550
X55234Y20550
X41234Y28550
X41234Y29550
X41234Y30550
X41234Y31550
X41234Y32550
X41234Y33550
X46234Y36550
X47234Y36550
X48234Y36550
X49234Y36550
X50234Y36550
X51234Y36550
X52234Y36550
X53234Y36550
X54234Y36550
X36034Y36550
X35034Y36550
X34034Y36550
X33034Y36550
X32034Y36550
X31034Y36550
X30034Y36550
X29034Y36550
X28034Y36550
X4834Y16350
X4834Y15350
X4834Y14350
X4834Y13350
X4834Y12350
X4834Y11350
X9834Y3350
X10834Y3350
X11834Y3350
X12834Y3350
X13834Y3350
X14834Y3350
X15834Y3350
X16834Y3350
X17834Y3350
X18834Y3350
X28034Y3350
X29034Y3350
X30034Y3350
X31034Y3350
X32034Y3350
X33034Y3350
X34034Y3350
X35034Y3350
X36034Y3350
X37034Y3350
X46234Y3350
X47234Y3350
X48234Y3350
X49234Y3350
X50234Y3350
X51234Y3350
X52234Y3350
X53234Y3350
X54234Y3350
X55234Y3350
T04
X5334Y3850
X20334Y3850
X23534Y3850
X38534Y3850
X41734Y3850
X56734Y3850
X56734Y18850
X56734Y21050
X41734Y21050
X38534Y21050
X38534Y18850
X41734Y18850
X23534Y18850
X20334Y18850
X20334Y21050
X23534Y21050
X5334Y21050
X5334Y18850
X5334Y36050
X20334Y36050
X23534Y36050
X38534Y36050
X41734Y36050
X56734Y36050
M30
