G75*
%MOIN*%
%OFA0B0*%
%FSLAX25Y25*%
%IPPOS*%
%LPD*%
%AMOC8*
5,1,8,0,0,1.08239X$1,22.5*
%
%ADD10C,0.13800*%
%ADD11C,0.08200*%
%ADD12R,0.05800X0.03300*%
%ADD13C,0.00500*%
%ADD14C,0.03300*%
%ADD15C,0.03359*%
D10*
X0053342Y0038500D03*
X0203342Y0038500D03*
X0235342Y0038500D03*
X0385342Y0038500D03*
X0417342Y0038500D03*
X0567342Y0038500D03*
X0567342Y0188500D03*
X0567342Y0210500D03*
X0417342Y0210500D03*
X0385342Y0210500D03*
X0385342Y0188500D03*
X0417342Y0188500D03*
X0235342Y0188500D03*
X0203342Y0188500D03*
X0203342Y0210500D03*
X0235342Y0210500D03*
X0053342Y0210500D03*
X0053342Y0188500D03*
X0053342Y0360500D03*
X0203342Y0360500D03*
X0235342Y0360500D03*
X0385342Y0360500D03*
X0417342Y0360500D03*
X0567342Y0360500D03*
D11*
X0542342Y0365500D03*
X0532342Y0365500D03*
X0522342Y0365500D03*
X0512342Y0365500D03*
X0502342Y0365500D03*
X0492342Y0365500D03*
X0482342Y0365500D03*
X0472342Y0365500D03*
X0462342Y0365500D03*
X0412342Y0335500D03*
X0412342Y0325500D03*
X0412342Y0315500D03*
X0412342Y0305500D03*
X0412342Y0295500D03*
X0412342Y0285500D03*
X0370342Y0205500D03*
X0360342Y0205500D03*
X0350342Y0205500D03*
X0340342Y0205500D03*
X0330342Y0205500D03*
X0320342Y0205500D03*
X0310342Y0205500D03*
X0300342Y0205500D03*
X0290342Y0205500D03*
X0280342Y0205500D03*
X0280342Y0193500D03*
X0290342Y0193500D03*
X0300342Y0193500D03*
X0310342Y0193500D03*
X0320342Y0193500D03*
X0330342Y0193500D03*
X0340342Y0193500D03*
X0350342Y0193500D03*
X0360342Y0193500D03*
X0412342Y0163500D03*
X0412342Y0153500D03*
X0412342Y0143500D03*
X0412342Y0133500D03*
X0412342Y0123500D03*
X0412342Y0113500D03*
X0462342Y0193500D03*
X0472342Y0193500D03*
X0482342Y0193500D03*
X0492342Y0193500D03*
X0502342Y0193500D03*
X0512342Y0193500D03*
X0522342Y0193500D03*
X0532342Y0193500D03*
X0542342Y0193500D03*
X0542342Y0205500D03*
X0552342Y0205500D03*
X0532342Y0205500D03*
X0522342Y0205500D03*
X0512342Y0205500D03*
X0502342Y0205500D03*
X0492342Y0205500D03*
X0482342Y0205500D03*
X0472342Y0205500D03*
X0462342Y0205500D03*
X0230342Y0163500D03*
X0230342Y0153500D03*
X0230342Y0143500D03*
X0230342Y0133500D03*
X0230342Y0123500D03*
X0230342Y0113500D03*
X0178342Y0193500D03*
X0168342Y0193500D03*
X0158342Y0193500D03*
X0148342Y0193500D03*
X0138342Y0193500D03*
X0128342Y0193500D03*
X0118342Y0193500D03*
X0108342Y0193500D03*
X0098342Y0193500D03*
X0098342Y0205500D03*
X0108342Y0205500D03*
X0118342Y0205500D03*
X0128342Y0205500D03*
X0138342Y0205500D03*
X0148342Y0205500D03*
X0158342Y0205500D03*
X0168342Y0205500D03*
X0178342Y0205500D03*
X0188342Y0205500D03*
X0230342Y0285500D03*
X0230342Y0295500D03*
X0230342Y0305500D03*
X0230342Y0315500D03*
X0230342Y0325500D03*
X0230342Y0335500D03*
X0280342Y0365500D03*
X0290342Y0365500D03*
X0300342Y0365500D03*
X0310342Y0365500D03*
X0320342Y0365500D03*
X0330342Y0365500D03*
X0340342Y0365500D03*
X0350342Y0365500D03*
X0360342Y0365500D03*
X0178342Y0365500D03*
X0168342Y0365500D03*
X0158342Y0365500D03*
X0148342Y0365500D03*
X0138342Y0365500D03*
X0128342Y0365500D03*
X0118342Y0365500D03*
X0108342Y0365500D03*
X0098342Y0365500D03*
X0048342Y0335500D03*
X0048342Y0325500D03*
X0048342Y0315500D03*
X0048342Y0305500D03*
X0048342Y0295500D03*
X0048342Y0285500D03*
X0048342Y0163500D03*
X0048342Y0153500D03*
X0048342Y0143500D03*
X0048342Y0133500D03*
X0048342Y0123500D03*
X0048342Y0113500D03*
X0098342Y0033500D03*
X0108342Y0033500D03*
X0118342Y0033500D03*
X0128342Y0033500D03*
X0138342Y0033500D03*
X0148342Y0033500D03*
X0158342Y0033500D03*
X0168342Y0033500D03*
X0178342Y0033500D03*
X0188342Y0033500D03*
X0280342Y0033500D03*
X0290342Y0033500D03*
X0300342Y0033500D03*
X0310342Y0033500D03*
X0320342Y0033500D03*
X0330342Y0033500D03*
X0340342Y0033500D03*
X0350342Y0033500D03*
X0360342Y0033500D03*
X0370342Y0033500D03*
X0462342Y0033500D03*
X0472342Y0033500D03*
X0482342Y0033500D03*
X0492342Y0033500D03*
X0502342Y0033500D03*
X0512342Y0033500D03*
X0522342Y0033500D03*
X0532342Y0033500D03*
X0542342Y0033500D03*
X0552342Y0033500D03*
D12*
X0502342Y0060400D03*
X0502342Y0063600D03*
X0549842Y0136500D03*
X0549842Y0140500D03*
X0559842Y0140500D03*
X0559842Y0136500D03*
X0569842Y0136500D03*
X0569842Y0140500D03*
X0502342Y0232400D03*
X0502342Y0235600D03*
X0549842Y0308500D03*
X0549842Y0312500D03*
X0559842Y0312500D03*
X0559842Y0308500D03*
X0569842Y0308500D03*
X0569842Y0312500D03*
X0387842Y0312500D03*
X0387842Y0308500D03*
X0377842Y0308500D03*
X0377842Y0312500D03*
X0367842Y0312500D03*
X0367842Y0308500D03*
X0320342Y0235600D03*
X0320342Y0232400D03*
X0205842Y0308500D03*
X0205842Y0312500D03*
X0195842Y0312500D03*
X0195842Y0308500D03*
X0185842Y0308500D03*
X0185842Y0312500D03*
X0138342Y0235600D03*
X0138342Y0232400D03*
X0185842Y0140500D03*
X0185842Y0136500D03*
X0195842Y0136500D03*
X0195842Y0140500D03*
X0205842Y0140500D03*
X0205842Y0136500D03*
X0138342Y0063600D03*
X0138342Y0060400D03*
X0320342Y0060400D03*
X0320342Y0063600D03*
X0367842Y0136500D03*
X0367842Y0140500D03*
X0377842Y0140500D03*
X0377842Y0136500D03*
X0387842Y0136500D03*
X0387842Y0140500D03*
D13*
X0388342Y0139250D02*
X0387342Y0139250D01*
X0387342Y0137750D01*
X0388342Y0137750D01*
X0388342Y0139250D01*
X0388342Y0139170D02*
X0387342Y0139170D01*
X0387342Y0138671D02*
X0388342Y0138671D01*
X0388342Y0138172D02*
X0387342Y0138172D01*
X0378342Y0138172D02*
X0377342Y0138172D01*
X0377342Y0137750D02*
X0378342Y0137750D01*
X0378342Y0139250D01*
X0377342Y0139250D01*
X0377342Y0137750D01*
X0377342Y0138671D02*
X0378342Y0138671D01*
X0378342Y0139170D02*
X0377342Y0139170D01*
X0368342Y0139170D02*
X0367342Y0139170D01*
X0367342Y0139250D02*
X0368342Y0139250D01*
X0368342Y0137750D01*
X0367342Y0137750D01*
X0367342Y0139250D01*
X0367342Y0138671D02*
X0368342Y0138671D01*
X0368342Y0138172D02*
X0367342Y0138172D01*
X0206342Y0138172D02*
X0205342Y0138172D01*
X0205342Y0137750D02*
X0206342Y0137750D01*
X0206342Y0139250D01*
X0205342Y0139250D01*
X0205342Y0137750D01*
X0205342Y0138671D02*
X0206342Y0138671D01*
X0206342Y0139170D02*
X0205342Y0139170D01*
X0196342Y0139170D02*
X0195342Y0139170D01*
X0195342Y0139250D02*
X0196342Y0139250D01*
X0196342Y0137750D01*
X0195342Y0137750D01*
X0195342Y0139250D01*
X0195342Y0138671D02*
X0196342Y0138671D01*
X0196342Y0138172D02*
X0195342Y0138172D01*
X0186342Y0138172D02*
X0185342Y0138172D01*
X0185342Y0137750D02*
X0186342Y0137750D01*
X0186342Y0139250D01*
X0185342Y0139250D01*
X0185342Y0137750D01*
X0185342Y0138671D02*
X0186342Y0138671D01*
X0186342Y0139170D02*
X0185342Y0139170D01*
X0185342Y0309750D02*
X0186342Y0309750D01*
X0186342Y0311250D01*
X0185342Y0311250D01*
X0185342Y0309750D01*
X0185342Y0310159D02*
X0186342Y0310159D01*
X0186342Y0310657D02*
X0185342Y0310657D01*
X0185342Y0311156D02*
X0186342Y0311156D01*
X0195342Y0311156D02*
X0196342Y0311156D01*
X0196342Y0311250D02*
X0195342Y0311250D01*
X0195342Y0309750D01*
X0196342Y0309750D01*
X0196342Y0311250D01*
X0196342Y0310657D02*
X0195342Y0310657D01*
X0195342Y0310159D02*
X0196342Y0310159D01*
X0205342Y0310159D02*
X0206342Y0310159D01*
X0206342Y0309750D02*
X0206342Y0311250D01*
X0205342Y0311250D01*
X0205342Y0309750D01*
X0206342Y0309750D01*
X0206342Y0310657D02*
X0205342Y0310657D01*
X0205342Y0311156D02*
X0206342Y0311156D01*
X0367342Y0311156D02*
X0368342Y0311156D01*
X0368342Y0311250D02*
X0367342Y0311250D01*
X0367342Y0309750D01*
X0368342Y0309750D01*
X0368342Y0311250D01*
X0368342Y0310657D02*
X0367342Y0310657D01*
X0367342Y0310159D02*
X0368342Y0310159D01*
X0377342Y0310159D02*
X0378342Y0310159D01*
X0378342Y0309750D02*
X0378342Y0311250D01*
X0377342Y0311250D01*
X0377342Y0309750D01*
X0378342Y0309750D01*
X0378342Y0310657D02*
X0377342Y0310657D01*
X0377342Y0311156D02*
X0378342Y0311156D01*
X0387342Y0311156D02*
X0388342Y0311156D01*
X0388342Y0311250D02*
X0387342Y0311250D01*
X0387342Y0309750D01*
X0388342Y0309750D01*
X0388342Y0311250D01*
X0388342Y0310657D02*
X0387342Y0310657D01*
X0387342Y0310159D02*
X0388342Y0310159D01*
X0549342Y0310159D02*
X0550342Y0310159D01*
X0550342Y0309750D02*
X0550342Y0311250D01*
X0549342Y0311250D01*
X0549342Y0309750D01*
X0550342Y0309750D01*
X0550342Y0310657D02*
X0549342Y0310657D01*
X0549342Y0311156D02*
X0550342Y0311156D01*
X0559342Y0311156D02*
X0560342Y0311156D01*
X0560342Y0311250D02*
X0559342Y0311250D01*
X0559342Y0309750D01*
X0560342Y0309750D01*
X0560342Y0311250D01*
X0560342Y0310657D02*
X0559342Y0310657D01*
X0559342Y0310159D02*
X0560342Y0310159D01*
X0569342Y0310159D02*
X0570342Y0310159D01*
X0570342Y0309750D02*
X0570342Y0311250D01*
X0569342Y0311250D01*
X0569342Y0309750D01*
X0570342Y0309750D01*
X0570342Y0310657D02*
X0569342Y0310657D01*
X0569342Y0311156D02*
X0570342Y0311156D01*
X0570342Y0139250D02*
X0569342Y0139250D01*
X0569342Y0137750D01*
X0570342Y0137750D01*
X0570342Y0139250D01*
X0570342Y0139170D02*
X0569342Y0139170D01*
X0569342Y0138671D02*
X0570342Y0138671D01*
X0570342Y0138172D02*
X0569342Y0138172D01*
X0560342Y0138172D02*
X0559342Y0138172D01*
X0559342Y0137750D02*
X0560342Y0137750D01*
X0560342Y0139250D01*
X0559342Y0139250D01*
X0559342Y0137750D01*
X0559342Y0138671D02*
X0560342Y0138671D01*
X0560342Y0139170D02*
X0559342Y0139170D01*
X0550342Y0139170D02*
X0549342Y0139170D01*
X0549342Y0139250D02*
X0550342Y0139250D01*
X0550342Y0137750D01*
X0549342Y0137750D01*
X0549342Y0139250D01*
X0549342Y0138671D02*
X0550342Y0138671D01*
X0550342Y0138172D02*
X0549342Y0138172D01*
D14*
X0045842Y0031000D03*
X0227842Y0031000D03*
X0409842Y0031000D03*
X0392842Y0196000D03*
X0409842Y0203000D03*
X0574842Y0196000D03*
X0574842Y0368000D03*
X0392842Y0368000D03*
X0210842Y0368000D03*
X0227842Y0203000D03*
X0210842Y0196000D03*
X0045842Y0203000D03*
D15*
X0062653Y0239122D03*
X0062653Y0261878D03*
X0244653Y0261878D03*
X0244653Y0239122D03*
X0426653Y0239122D03*
X0426653Y0261878D03*
X0426653Y0089878D03*
X0426653Y0067122D03*
X0244653Y0067122D03*
X0244653Y0089878D03*
X0062653Y0089878D03*
X0062653Y0067122D03*
M02*
